<svg xmlns="http://www.w3.org/2000/svg" viewBox="0 0 273 273"><defs><style>.cls-1{fill:#fff;}.cls-2{fill:#231f20;}.cls-3{fill:#f2ebe2;}.cls-4{fill:#cf2027;}.cls-5{fill:#82602d;}.cls-6{fill:#b69258;}.cls-7{fill:#945328;}.cls-8{fill:#634034;}</style></defs><title>coco</title><g id="Layer_2" data-name="Layer 2"><g id="Layer_1-2" data-name="Layer 1"><rect class="cls-1" width="273" height="273"/><path class="cls-2" d="M230.65,28.56a5.12,5.12,0,0,1,.61,2.67,5.08,5.08,0,0,1-.62,2.7,1.88,1.88,0,0,1-1.65,1,1.79,1.79,0,0,1-1.59-1,5.26,5.26,0,0,1-.59-2.7,5.17,5.17,0,0,1,.59-2.7,1.84,1.84,0,0,1,3.25,0Zm-5.28-4a3.75,3.75,0,0,0-.51.05,9.22,9.22,0,0,1-1.46.11,3.51,3.51,0,0,1-.78-.05l-.94-.13h-.19a1.38,1.38,0,0,0-1.11.51,2,2,0,0,0-.43,1.3q0,1.51,1.3,1.51a2.25,2.25,0,0,0,.43-.05,2.59,2.59,0,0,1,.49-.13q.46,0,.46,1.54v8.94q0,1.54-.49,1.54l-.46-.11a1,1,0,0,0-.41-.08q-1.32,0-1.32,1.51a1.83,1.83,0,0,0,.46,1.28,1.51,1.51,0,0,0,1.16.5l.49,0q1.78-.22,2.29-.22a22.53,22.53,0,0,1,2.46.14c.67.07,1.16.11,1.48.11A1.46,1.46,0,0,0,230,41.15q0-1.4-1.24-1.4c-.14,0-.38,0-.7.05a2.83,2.83,0,0,1-.62.08q-.65,0-.65-.84V37a10.71,10.71,0,0,0,1.57,1,4.23,4.23,0,0,0,1.81.38,4.77,4.77,0,0,0,4-1.94,8.47,8.47,0,0,0,1.49-5.27A8.21,8.21,0,0,0,234.14,26a4.68,4.68,0,0,0-3.92-1.9A5.1,5.1,0,0,0,226,26.3v-.81Q226,24.54,225.37,24.54ZM217,22.77a2.45,2.45,0,1,0-1.74.71A2.37,2.37,0,0,0,217,22.77Zm-1,1.85a8.41,8.41,0,0,1-1.19.11,11.27,11.27,0,0,1-1.51-.13,6.68,6.68,0,0,0-.86-.08,1.57,1.57,0,0,0-1.21.5,1.86,1.86,0,0,0-.46,1.31q0,1.51,1.3,1.51a2.23,2.23,0,0,0,.43-.05,2.61,2.61,0,0,1,.49-.13q.46,0,.46,1.54v4.37q0,1.51-.49,1.51l-.19,0-.7-.16q-1.3,0-1.3,1.54a1.82,1.82,0,0,0,.46,1.28,1.54,1.54,0,0,0,1.19.5,13.89,13.89,0,0,0,1.4-.11,14,14,0,0,1,1.43-.11,16.46,16.46,0,0,1,1.73.08q1.24.13,1.51.14,1.59,0,1.59-1.86,0-1.4-1.13-1.4a2.16,2.16,0,0,0-.47.07,2,2,0,0,1-.39.07q-.51,0-.51-1.38V25.57q0-1.05-.76-1.05Zm-17.12-4.7a7.68,7.68,0,0,0-.93.08,11.16,11.16,0,0,1-1.44.08,9.41,9.41,0,0,1-1-.08,9.44,9.44,0,0,0-1-.08,1.54,1.54,0,0,0-1.19.5,1.86,1.86,0,0,0-.46,1.31q0,1.49,1.3,1.49a1.4,1.4,0,0,0,.43-.05,1.49,1.49,0,0,1,.49-.11q.46,0,.46,1.51v9q0,1.51-.46,1.51a1.53,1.53,0,0,1-.45-.09,1.5,1.5,0,0,0-.45-.09q-1.32,0-1.32,1.54a1.82,1.82,0,0,0,.46,1.28,1.54,1.54,0,0,0,1.19.5q.3,0,1.38-.14A9.88,9.88,0,0,1,197,38a12.23,12.23,0,0,1,1.54.11,11,11,0,0,0,1.16.11q1.49,0,1.49-1.78,0-1.22-.84-1.35a1.16,1.16,0,0,1-.66-.23,1.31,1.31,0,0,1-.12-.71V30.94q0-3.21,2.32-3.21,1.7,0,1.7,2.24V34.1a1.78,1.78,0,0,1-.11.73q-.11.22-.57.24-1,.08-1,1.46a1.73,1.73,0,0,0,.42,1.22,1.41,1.41,0,0,0,1.09.46,11.31,11.31,0,0,0,1.28-.11A11.31,11.31,0,0,1,206,38a12.4,12.4,0,0,1,1.35.11,12.41,12.41,0,0,0,1.35.11q1.59,0,1.59-1.89,0-1.38-1.19-1.38a1.42,1.42,0,0,0-.43.05,1.17,1.17,0,0,1-.38.05q-.54,0-.54-1.35V29.05a6.18,6.18,0,0,0-.7-3.35,4,4,0,0,0-3.56-1.57,4.91,4.91,0,0,0-1.94.34,8.25,8.25,0,0,0-1.94,1.34V20.87Q199.58,19.93,198.86,19.93Zm-20.6,2.25a11,11,0,0,0-2.05,7.06,9.81,9.81,0,0,0,2.28,6.86,8,8,0,0,0,6.22,2.51A8.14,8.14,0,0,0,190,37a5.14,5.14,0,0,0,2-4.2,3,3,0,0,0-.66-2.05,2.26,2.26,0,0,0-1.79-.76,2.09,2.09,0,0,0-1.46.51,1.65,1.65,0,0,0-.54,1.35l0,1a1.64,1.64,0,0,1-.73,1.44,3.21,3.21,0,0,1-1.94.55,3.08,3.08,0,0,1-2.79-1.36,8.23,8.23,0,0,1-.88-4.33q0-5.72,3.62-5.72a3.06,3.06,0,0,1,1.92.58,1.71,1.71,0,0,1,.73,1.47l0,.84q-.05,1.7,2,1.7a2.37,2.37,0,0,0,1.58-.51,1.68,1.68,0,0,0,.61-1.35,8.27,8.27,0,0,0-.09-1,8.41,8.41,0,0,1-.09-1,14.76,14.76,0,0,1,.13-1.59,9.41,9.41,0,0,0,.08-1,1.62,1.62,0,0,0-1.7-1.7q-1.62,0-1.62,1.51a.92.92,0,0,0,0,.27,6.22,6.22,0,0,0-4.51-1.89A6.79,6.79,0,0,0,178.25,22.18Zm-14.66,9.17q0,3.89-2.51,3.89a2.2,2.2,0,0,1-1.93-1,5.1,5.1,0,0,1-.69-2.86,5.11,5.11,0,0,1,.69-2.85,2.14,2.14,0,0,1,1.88-1Q163.59,27.46,163.59,31.35Zm2.55,5.26a7.65,7.65,0,0,0,1.8-5.4A7.1,7.1,0,0,0,166.09,26,6.76,6.76,0,0,0,161,24.14,6.67,6.67,0,0,0,156,26a7.39,7.39,0,0,0-1.81,5.31A7.35,7.35,0,0,0,156,36.67a6.85,6.85,0,0,0,5.17,1.89A6.48,6.48,0,0,0,166.15,36.61ZM148.56,30a2.24,2.24,0,0,0,1.48.47,2.54,2.54,0,0,0,1.81-.66,2.28,2.28,0,0,0,.7-1.74A3.39,3.39,0,0,0,151,25.26a6.55,6.55,0,0,0-3.93-1.12,6.7,6.7,0,0,0-7.18,7.21,7.24,7.24,0,0,0,1.89,5.25,6.73,6.73,0,0,0,5.08,2,6.86,6.86,0,0,0,4.27-1.35A3.93,3.93,0,0,0,152.9,34a1.89,1.89,0,0,0-.57-1.42,2,2,0,0,0-1.48-.55,1.8,1.8,0,0,0-1.19.32,3.56,3.56,0,0,0-.65,1.13,2,2,0,0,1-1.94,1.43,2.49,2.49,0,0,1-2.08-1,4.38,4.38,0,0,1-.78-2.73,4.27,4.27,0,0,1,.74-2.63,2.31,2.31,0,0,1,1.93-1,2.36,2.36,0,0,1,1.38.43,1.45,1.45,0,0,0-.27.81A1.52,1.52,0,0,0,148.56,30Zm-14.45,1.31q0,3.89-2.51,3.89a2.2,2.2,0,0,1-1.93-1,5.1,5.1,0,0,1-.69-2.86,5.11,5.11,0,0,1,.69-2.85,2.14,2.14,0,0,1,1.88-1Q134.11,27.46,134.11,31.35Zm2.55,5.26a7.65,7.65,0,0,0,1.8-5.4A7.1,7.1,0,0,0,136.61,26a6.76,6.76,0,0,0-5.06-1.89,6.67,6.67,0,0,0-5.08,1.9,7.39,7.39,0,0,0-1.81,5.31,7.35,7.35,0,0,0,1.82,5.32,6.85,6.85,0,0,0,5.17,1.89A6.48,6.48,0,0,0,136.66,36.61Zm-21-13a5.4,5.4,0,0,0,.85.09,1.25,1.25,0,0,0,1-.51,2,2,0,0,0,.41-1.3A1.81,1.81,0,0,0,116,20a17,17,0,0,0-1.86.16l-.86.08-.89,0-1.12,0-1.23-.08q-1.94-.16-2.32-.16a1.75,1.75,0,0,0-2,2,1.94,1.94,0,0,0,.42,1.27,1.29,1.29,0,0,0,1,.51,3.16,3.16,0,0,0,.66-.09,3.17,3.17,0,0,1,.63-.09q.73,0,.73,1.81v7.48q0,1.84-.73,1.84a3.12,3.12,0,0,1-.63-.09,3.19,3.19,0,0,0-.63-.09,1.33,1.33,0,0,0-1.07.5,1.93,1.93,0,0,0-.42,1.28,2,2,0,0,0,.53,1.43,1.77,1.77,0,0,0,1.36.57c.27,0,.54,0,.82,0l.9-.11q.49-.07,1.07-.11t1.31,0q4.86,0,7.45.16l1.51.08,1.11,0q1.75,0,1.75-1.48s0-.16,0-.37,0-.49-.08-.85c0-.18,0-.36,0-.54s0-.36,0-.54,0-.33,0-.57,0-.5.08-.81.06-.58.08-.81,0-.43,0-.59a1.9,1.9,0,0,0-2.16-2.13,2.34,2.34,0,0,0-1.62.58,1.86,1.86,0,0,0-.65,1.44,5.67,5.67,0,0,0,.14,1.05,3.83,3.83,0,0,1,.11.86q0,1.35-2.19,1.35h-1.86l-.41,0A1.07,1.07,0,0,1,114,34a6.28,6.28,0,0,1-.08-1.32V25q0-1.48.86-1.48A5.5,5.5,0,0,1,115.68,23.64ZM93.45,31.35q0,3.89-2.51,3.89a2.2,2.2,0,0,1-1.93-1,5.1,5.1,0,0,1-.69-2.86A5.11,5.11,0,0,1,89,28.5a2.14,2.14,0,0,1,1.88-1Q93.45,27.46,93.45,31.35ZM96,36.61a7.65,7.65,0,0,0,1.8-5.4A7.1,7.1,0,0,0,95.95,26a6.76,6.76,0,0,0-5.06-1.89A6.67,6.67,0,0,0,85.81,26,7.39,7.39,0,0,0,84,31.35a7.35,7.35,0,0,0,1.82,5.32A6.85,6.85,0,0,0,91,38.56,6.48,6.48,0,0,0,96,36.61ZM78.41,30a2.24,2.24,0,0,0,1.48.47,2.54,2.54,0,0,0,1.81-.66,2.28,2.28,0,0,0,.7-1.74,3.39,3.39,0,0,0-1.55-2.85,6.55,6.55,0,0,0-3.93-1.12,6.7,6.7,0,0,0-7.18,7.21,7.24,7.24,0,0,0,1.89,5.25,6.73,6.73,0,0,0,5.08,2A6.86,6.86,0,0,0,81,37.21,3.93,3.93,0,0,0,82.76,34a1.89,1.89,0,0,0-.57-1.42A2,2,0,0,0,80.71,32a1.8,1.8,0,0,0-1.19.32,3.56,3.56,0,0,0-.65,1.13,2,2,0,0,1-1.94,1.43,2.49,2.49,0,0,1-2.08-1,4.38,4.38,0,0,1-.78-2.73,4.27,4.27,0,0,1,.74-2.63,2.31,2.31,0,0,1,1.93-1,2.36,2.36,0,0,1,1.38.43,1.45,1.45,0,0,0-.27.81A1.52,1.52,0,0,0,78.41,30ZM64,31.35q0,3.89-2.51,3.89a2.2,2.2,0,0,1-1.93-1,5.1,5.1,0,0,1-.69-2.86,5.11,5.11,0,0,1,.69-2.85,2.14,2.14,0,0,1,1.88-1Q64,27.46,64,31.35Zm2.55,5.26a7.65,7.65,0,0,0,1.8-5.4A7.1,7.1,0,0,0,66.46,26a6.76,6.76,0,0,0-5.06-1.89A6.67,6.67,0,0,0,56.33,26a7.39,7.39,0,0,0-1.81,5.31,7.35,7.35,0,0,0,1.82,5.32,6.85,6.85,0,0,0,5.17,1.89A6.48,6.48,0,0,0,66.52,36.61ZM39.45,22.18a11,11,0,0,0-2.05,7.06,9.81,9.81,0,0,0,2.28,6.86,8,8,0,0,0,6.22,2.51A8.14,8.14,0,0,0,51.15,37a5.14,5.14,0,0,0,2-4.2,3,3,0,0,0-.66-2.05A2.26,2.26,0,0,0,50.74,30a2.09,2.09,0,0,0-1.46.51,1.65,1.65,0,0,0-.54,1.35l0,1A1.64,1.64,0,0,1,48,34.25a3.21,3.21,0,0,1-1.94.55,3.08,3.08,0,0,1-2.79-1.36,8.23,8.23,0,0,1-.88-4.33q0-5.72,3.62-5.72A3.06,3.06,0,0,1,48,24a1.71,1.71,0,0,1,.73,1.47l0,.84q-.05,1.7,2,1.7a2.37,2.37,0,0,0,1.58-.51,1.68,1.68,0,0,0,.61-1.35,8.27,8.27,0,0,0-.09-1,8.41,8.41,0,0,1-.09-1,14.76,14.76,0,0,1,.13-1.59,9.41,9.41,0,0,0,.08-1,1.62,1.62,0,0,0-1.7-1.7q-1.62,0-1.62,1.51a.92.92,0,0,0,0,.27,6.22,6.22,0,0,0-4.51-1.89A6.79,6.79,0,0,0,39.45,22.18Z"/><circle class="cls-3" cx="136.5" cy="127.14" r="58.87"/><path class="cls-4" d="M131.88,131a2.68,2.68,0,0,0-1.67.54,2.69,2.69,0,0,0-4.39,2c0,1.48,4.4,6.23,4.4,6.23s4.26-4.56,4.29-6A2.69,2.69,0,0,0,131.88,131Z"/><path class="cls-5" d="M147.64,129.45s-18,32-21.76,35.09c0,0-6.23,9.56-7.11-2,0,0,1.12-30.58,3.31-40.37S154.7,126.5,147.64,129.45Z"/><polygon class="cls-6" points="145.59 129.8 144.3 131.93 141.27 127.32 145.59 129.8"/><polygon class="cls-6" points="123.08 127.4 123.94 121.12 134.16 122.33 131.87 126.5 124.51 127.81 123.08 127.4"/><polygon class="cls-6" points="143.09 134.25 138.31 127.11 134.47 127.47 126.92 129.33 137.88 139.16 140.27 139.61 143.09 134.25"/><path class="cls-6" d="M135,138.85s-7.57-7.93-11.45-8.23l-.7.21-1.1,8.13,1.39,1.45S132.58,139,135,138.85Z"/><path class="cls-6" d="M138.12,143.08l-.92-1.54s-7.73-.81-12,.77c0,0,6.24,7.49,6.2,8.88l1.83.12Z"/><path class="cls-6" d="M129.23,151.25s-5.84-8.19-6.59-8.23a2.46,2.46,0,0,0-1.23.23s-.8,8.91-.53,9.4S123,151.62,129.23,151.25Z"/><path class="cls-6" d="M130.59,155.13l-.52-1.43a27.09,27.09,0,0,0-9,1.49s-.93,9.17.49,10.51S130.59,155.13,130.59,155.13Z"/><path class="cls-7" d="M114.92,106.76c.75-2.64,4.06-4.08,7.87-3.68,0-.2.1-.41.16-.61,2.52-8.82,12.47-13.71,22.23-10.92s15.61,12.2,13.09,21a15.12,15.12,0,0,1-1.5,3.49c2.86,2.13,4.35,5.26,3.53,8.13-1.17,4.07-6.52,6.11-12,4.56a13.41,13.41,0,0,1-2.88-1.2,9.49,9.49,0,0,1-8.66,1.74,9.63,9.63,0,0,1-5-3.32,6.32,6.32,0,0,1-3-3.71,13.57,13.57,0,0,1-5.81-.43c-5-1.43-8.34-5.08-7.46-8.16a3.87,3.87,0,0,1,1.1-1.76A5.39,5.39,0,0,1,114.92,106.76Z"/><path class="cls-4" d="M127.78,131.23a3,3,0,0,1,1.87.63,3,3,0,0,1,4.9,2.34c0,1.67-5,6.92-5,6.92s-4.71-5.19-4.72-6.86A3,3,0,0,1,127.78,131.23Z"/><path class="cls-8" d="M133,107.69s-.77.72-1.2.48a1.65,1.65,0,0,0-1.64.34c-.45.39,2.25,2.37,2.25,2.37a1.73,1.73,0,0,0,.33-1.83C132.3,108,133.16,107.77,133,107.69Z"/><path class="cls-8" d="M130.07,102.46s-.82-.67-.63-1.12a1.65,1.65,0,0,0-.55-1.58c-.44-.4-2.05,2.54-2.05,2.54a1.73,1.73,0,0,0,1.86.09C129.65,101.8,130,102.63,130.07,102.46Z"/><path class="cls-8" d="M140.72,98.86s-.57.89-1,.76a1.64,1.64,0,0,0-1.51.74c-.34.49,2.77,1.74,2.77,1.74a1.74,1.74,0,0,0-.13-1.86C140.12,99.36,140.9,98.9,140.72,98.86Z"/><path class="cls-8" d="M156.59,123.33s-1,.16-1.26-.28a1.65,1.65,0,0,0-1.55-.65c-.59.06.51,3.23.51,3.23a1.73,1.73,0,0,0,1.31-1.32C155.82,123.2,156.67,123.49,156.59,123.33Z"/><path class="cls-8" d="M137.74,122.39s-.58.88-1.05.74a1.65,1.65,0,0,0-1.52.71c-.35.48,2.73,1.79,2.73,1.79a1.74,1.74,0,0,0-.09-1.86C137.13,122.87,137.92,122.43,137.74,122.39Z"/><path class="cls-8" d="M119.15,115.23s-.57.89-1,.76a1.65,1.65,0,0,0-1.51.74c-.34.49,2.77,1.74,2.77,1.74a1.73,1.73,0,0,0-.13-1.86C118.55,115.72,119.33,115.27,119.15,115.23Z"/><path class="cls-8" d="M153.21,115.09s-1,.47-1.29.11a1.64,1.64,0,0,0-1.67-.16c-.55.24,1.46,2.93,1.46,2.93a1.73,1.73,0,0,0,.86-1.65C152.44,115.2,153.34,115.22,153.21,115.09Z"/><path class="cls-8" d="M156.58,98.37s-1,.47-1.29.11a1.64,1.64,0,0,0-1.67-.16c-.55.24,1.46,2.93,1.46,2.93a1.73,1.73,0,0,0,.86-1.65C155.81,98.48,156.71,98.5,156.58,98.37Z"/><path class="cls-8" d="M147.27,105.14s.77.72,1.2.48a1.64,1.64,0,0,1,1.64.34c.45.39-2.25,2.37-2.25,2.37a1.73,1.73,0,0,1-.33-1.83C148,105.48,147.11,105.23,147.27,105.14Z"/><path class="cls-8" d="M144.62,93.26s.82-.67.64-1.12a1.64,1.64,0,0,1,.55-1.58c.44-.4,2.05,2.54,2.05,2.54a1.74,1.74,0,0,1-1.86.09C145,92.6,144.68,93.43,144.62,93.26Z"/><path class="cls-8" d="M134.07,91.8s.57.89,1,.76a1.64,1.64,0,0,1,1.51.74c.34.49-2.77,1.74-2.77,1.74a1.74,1.74,0,0,1,.13-1.86C134.67,92.3,133.9,91.84,134.07,91.8Z"/><path class="cls-8" d="M118.14,107.68s1,.16,1.26-.28a1.65,1.65,0,0,1,1.55-.65c.59.06-.51,3.23-.51,3.23a1.74,1.74,0,0,1-1.31-1.32C118.91,107.55,118.05,107.84,118.14,107.68Z"/><path class="cls-8" d="M141.55,116.35s.58.88,1.05.74a1.64,1.64,0,0,1,1.52.71c.35.48-2.73,1.79-2.73,1.79a1.74,1.74,0,0,1,.09-1.86C142.16,116.83,141.37,116.39,141.55,116.35Z"/><path class="cls-8" d="M155.54,106s.57.89,1,.76a1.64,1.64,0,0,1,1.51.74c.34.49-2.77,1.74-2.77,1.74a1.73,1.73,0,0,1,.13-1.86C156.14,106.52,155.36,106.07,155.54,106Z"/><path class="cls-8" d="M137.08,110.93s1,.46,1.29.11a1.64,1.64,0,0,1,1.67-.16c.55.24-1.45,2.93-1.45,2.93a1.73,1.73,0,0,1-.86-1.65C137.85,111,137,111.06,137.08,110.93Z"/><path class="cls-8" d="M124.14,115.35s1,.46,1.29.11a1.64,1.64,0,0,1,1.67-.16c.55.24-1.46,2.93-1.46,2.93a1.73,1.73,0,0,1-.86-1.65C124.91,115.46,124,115.48,124.14,115.35Z"/><path class="cls-4" d="M226.88,201.56q0-.36,0-.68,0-1.16-1.7-1.16t-1.7,1.16c0,.1,0,.33.05.68l.53,5.47q.08.85.8.85h.66q.71,0,.8-.85Zm-.54,9.62a1.62,1.62,0,0,0-1.14-2.75,1.53,1.53,0,0,0-1.12.48,1.6,1.6,0,0,0,0,2.28,1.54,1.54,0,0,0,1.12.48A1.56,1.56,0,0,0,226.34,211.18Zm-10.49-6.26a1.35,1.35,0,0,1,1.1-.53,1.38,1.38,0,0,1,.92.33,1,1,0,0,1,.39.77.3.3,0,0,1-.06.21.51.51,0,0,1-.31.06H216c-.2,0-.32,0-.36-.07l-.05-.17A1,1,0,0,1,215.85,204.92Zm4.05-1.31a4,4,0,0,0-2.88-1,4.12,4.12,0,0,0-3.14,1.27,4.64,4.64,0,0,0-1.2,3.32,4.45,4.45,0,0,0,1.21,3.26,4.33,4.33,0,0,0,3.23,1.22,4.79,4.79,0,0,0,2.63-.69,2,2,0,0,0,1.08-1.67,1,1,0,0,0-.31-.73,1.17,1.17,0,0,0-.82-.29,1.52,1.52,0,0,0-1.12.54,2.1,2.1,0,0,1-1.46.78,1.54,1.54,0,0,1-1.16-.48,1.65,1.65,0,0,1-.46-1.19c0-.16,0-.26.08-.3a.74.74,0,0,1,.38-.06h4.15a.84.84,0,0,0,.71-.24,1.73,1.73,0,0,0,.18-1A3.66,3.66,0,0,0,219.9,203.61Zm-13.34,1.31a1.35,1.35,0,0,1,1.1-.53,1.38,1.38,0,0,1,.92.33,1,1,0,0,1,.39.77.3.3,0,0,1-.06.21.51.51,0,0,1-.31.06h-1.9c-.2,0-.32,0-.36-.07l-.05-.17A1,1,0,0,1,206.57,204.92Zm4.05-1.31a4,4,0,0,0-2.88-1,4.12,4.12,0,0,0-3.14,1.27,4.64,4.64,0,0,0-1.2,3.32,4.45,4.45,0,0,0,1.21,3.26,4.33,4.33,0,0,0,3.23,1.22,4.79,4.79,0,0,0,2.63-.69,2,2,0,0,0,1.08-1.67,1,1,0,0,0-.31-.73,1.17,1.17,0,0,0-.82-.29,1.52,1.52,0,0,0-1.12.54,2.1,2.1,0,0,1-1.46.78,1.54,1.54,0,0,1-1.16-.48,1.65,1.65,0,0,1-.46-1.19c0-.16,0-.26.08-.3a.74.74,0,0,1,.38-.06h4.15a.84.84,0,0,0,.71-.24,1.73,1.73,0,0,0,.18-1A3.66,3.66,0,0,0,210.62,203.61Zm-12.89-.8a3.79,3.79,0,0,0-.58.07,3.72,3.72,0,0,1-.59.07,2.64,2.64,0,0,1-.58-.07,2.38,2.38,0,0,0-.48-.07.87.87,0,0,0-.7.32,1.25,1.25,0,0,0-.27.83q0,.93.82.93a1.11,1.11,0,0,0,.3-.06,1.19,1.19,0,0,1,.26-.06q.29,0,.29,1v2.75c0,.64-.1,1-.29,1a.85.85,0,0,1-.25-.06,1,1,0,0,0-.31-.06q-.82,0-.82,1,0,1.14,1.05,1.14.19,0,1-.08a11.15,11.15,0,0,1,1.14-.05,9.22,9.22,0,0,1,1.07.05,9.5,9.5,0,0,0,1,.08,1.1,1.1,0,0,0,.81-.33,1.12,1.12,0,0,0,.33-.82.9.9,0,0,0-.9-.9,1.89,1.89,0,0,0-.41.07,1.9,1.9,0,0,1-.42.07.27.27,0,0,1-.24-.1,1.86,1.86,0,0,1-.1-.78V208a7.4,7.4,0,0,1,.31-2.23,1.52,1.52,0,0,1,1.53-1.21h.1a1.59,1.59,0,0,0-.22.66,1,1,0,0,0,.33.75,1.14,1.14,0,0,0,.81.31,1.34,1.34,0,0,0,1-.45,1.64,1.64,0,0,0,.41-1.15,2,2,0,0,0-.64-1.49,2.2,2.2,0,0,0-1.57-.6,2.52,2.52,0,0,0-2.09.94,3.65,3.65,0,0,0-.56,1.27v-1.45A.47.47,0,0,0,197.73,202.81Zm-9.94,3.74a.67.67,0,0,1,.42-.09c.43,0,.65.14.65.43v.27l0,.1q0,1,.9,1t.88-1c0-.23,0-.57-.07-1s-.07-.8-.07-1c0-.4,0-.72,0-1s0-.43,0-.54q0-.88-.93-.88t-.8.66l0,.12v.14c0,.18,0,.29,0,.32q0,.49-.71.49c-.31,0-.46-.17-.46-.53v-.8q0-.71.18-.88a1.4,1.4,0,0,1,.84-.16h1.85q.85,0,.85.58a3.77,3.77,0,0,1-.05.53,5.07,5.07,0,0,0-.07.65,1.45,1.45,0,0,0,.33,1,1.15,1.15,0,0,0,.91.37,1.24,1.24,0,0,0,.94-.37,1.35,1.35,0,0,0,.36-1,5,5,0,0,0-.09-.8,4.93,4.93,0,0,1-.09-.8,5.3,5.3,0,0,1,.1-.92,3.87,3.87,0,0,0,.07-.68q0-.75-.85-.75l-.17,0-1,.08-1.41,0-1.9,0-1.29,0q-.83,0-2.14-.1-.87-.07-1.26-.07a1.11,1.11,0,0,0-1.26,1.24,1.22,1.22,0,0,0,.26.8.81.81,0,0,0,.65.32,2,2,0,0,0,.42-.06,2,2,0,0,1,.4-.06q.34,0,.42.44a4.25,4.25,0,0,1,0,.7v4.71a4.64,4.64,0,0,1,0,.71q-.08.44-.42.44a2.06,2.06,0,0,1-.39-.06,2.16,2.16,0,0,0-.41-.06.84.84,0,0,0-.67.31,1.22,1.22,0,0,0-.26.81,1.23,1.23,0,0,0,.33.9,1.17,1.17,0,0,0,.88.34l1.31-.12q.51-.05,1.38-.05.44,0,1.32.08t1.32.08a1.29,1.29,0,0,0,.93-.33,1.16,1.16,0,0,0,.35-.88q0-1.16-1-1.16a3.69,3.69,0,0,0-.54.06,3.53,3.53,0,0,1-.54.06.42.42,0,0,1-.46-.29,1.42,1.42,0,0,1-.05-.42l0-.58v-1A.52.52,0,0,1,187.79,206.56Zm-9,1.55.65,0,.65,0,.63,0a.84.84,0,0,0,.71-.27,1.65,1.65,0,0,0,.2-1q0-1.05-.92-1.05h-.49l-.78,0-.78,0h-.51q-.9,0-.9,1.11t.92,1.17Zm-10.06-5.29-.54.07a5.84,5.84,0,0,1-.7.07,2.29,2.29,0,0,1-.44-.05,4,4,0,0,0-.58-.08.93.93,0,0,0-.74.32,1.22,1.22,0,0,0-.28.83q0,.93.82.93a1.11,1.11,0,0,0,.3-.06,1.19,1.19,0,0,1,.26-.06q.29,0,.29,1v2.75c0,.64-.1,1-.29,1a.85.85,0,0,1-.25-.06,1,1,0,0,0-.31-.06q-.82,0-.82,1,0,1.14,1.07,1.14a9,9,0,0,0,.91-.07,9,9,0,0,1,.91-.07,7.74,7.74,0,0,1,.94.08,4.77,4.77,0,0,0,.63.05q.9,0,.9-1.07,0-.83-.61-.92c-.22,0-.35-.1-.39-.21a3.43,3.43,0,0,1-.07-.93v-1.77a1.69,1.69,0,0,1,.45-1.21,1.51,1.51,0,0,1,1.15-.48,1,1,0,0,1,.87.4,2.73,2.73,0,0,1,.25,1.39V209c0,.26-.15.4-.46.42q-.7.05-.7,1a.9.9,0,0,0,1,1,5.82,5.82,0,0,0,.78-.07,6.45,6.45,0,0,1,.9-.07,7.36,7.36,0,0,1,.82.07,7.31,7.31,0,0,0,.82.07q1,0,1-1.17,0-.88-.75-.88a.72.72,0,0,0-.25,0,1,1,0,0,1-.26.05q-.34,0-.34-.87V206a4.46,4.46,0,0,0-.39-2.14,2.62,2.62,0,0,0-2.5-1.33,3.83,3.83,0,0,0-3,1.53v-.82Q169.17,202.81,168.71,202.81Zm-9.2,2.11a1.35,1.35,0,0,1,1.1-.53,1.38,1.38,0,0,1,.92.33,1,1,0,0,1,.39.77.3.3,0,0,1-.06.21.51.51,0,0,1-.31.06h-1.9c-.2,0-.32,0-.36-.07l-.05-.17A1,1,0,0,1,159.51,204.92Zm4.05-1.31a4,4,0,0,0-2.88-1,4.12,4.12,0,0,0-3.14,1.27,4.64,4.64,0,0,0-1.2,3.32,4.45,4.45,0,0,0,1.21,3.26,4.33,4.33,0,0,0,3.23,1.22,4.79,4.79,0,0,0,2.63-.69,2,2,0,0,0,1.08-1.67,1,1,0,0,0-.31-.73,1.17,1.17,0,0,0-.82-.29,1.52,1.52,0,0,0-1.12.54,2.1,2.1,0,0,1-1.46.78,1.54,1.54,0,0,1-1.16-.48,1.65,1.65,0,0,1-.46-1.19c0-.16,0-.26.08-.3a.74.74,0,0,1,.38-.06h4.15a.84.84,0,0,0,.71-.24,1.73,1.73,0,0,0,.18-1A3.66,3.66,0,0,0,163.56,203.61Zm-11,1.16c0-.08.19-.12.42-.12h1.39a.8.8,0,0,0,.92-.9q0-.93-1-.93h-1.22c-.26,0-.42,0-.48-.12a1.2,1.2,0,0,1-.09-.61v-.92a1,1,0,0,0-.21-.75,1.36,1.36,0,0,0-.81-.17,2.13,2.13,0,0,0-1.15.22.94.94,0,0,0-.31.82v.83a1.44,1.44,0,0,1-.05.46c0,.16-.2.24-.48.24h-.32a.62.62,0,0,0-.5.28,1.08,1.08,0,0,0-.21.67,1,1,0,0,0,.2.64.65.65,0,0,0,.53.25h.27c.19,0,.31,0,.37.11a1.15,1.15,0,0,1,.08.54v.54q0,.48,0,1.43t0,1.43q0,3,2.81,3a3.11,3.11,0,0,0,2.23-.76,2.75,2.75,0,0,0,.8-2.1q0-1.72-1.07-1.72a.81.81,0,0,0-.92.92l0,.17v.22l0,.2q0,.9-.61.9t-.65-1,0-.46l0-1.14,0-1.05v-.7A.78.78,0,0,1,152.61,204.77Zm-7.45,6.66a3.37,3.37,0,0,0,.55-.07,3.34,3.34,0,0,1,.55-.07,4,4,0,0,1,.6.07,4,4,0,0,0,.6.07q1,0,1-1.17,0-.88-.73-.88a1,1,0,0,0-.29,0,.76.76,0,0,1-.24,0q-.32,0-.32-.85v-5.17c0-.41-.18-.61-.54-.61a4.89,4.89,0,0,0-.56.05l-.73.08a5.05,5.05,0,0,1-.68-.07,5.21,5.21,0,0,0-.7-.07q-1,0-1,1.17,0,.9.63.9a1.09,1.09,0,0,0,.26,0,1.08,1.08,0,0,1,.26,0q.39,0,.39.87v1.58q0,2.13-1.53,2.13-1,0-1.05-1.33l0-4.52q0-.71-.51-.71a4.12,4.12,0,0,0-.61.07,4,4,0,0,1-.61.07,4.35,4.35,0,0,1-.63-.07,4.46,4.46,0,0,0-.63-.07q-1,0-1,1.14,0,.93.76.94l.17,0h.17a.29.29,0,0,1,.25.1,1.69,1.69,0,0,1,.08.7v2.64a5.31,5.31,0,0,0,.28,2.1,2.05,2.05,0,0,0,.93.91,3,3,0,0,0,1.43.34,3.6,3.6,0,0,0,3-1.43v.66Q144.67,211.43,145.16,211.43ZM134.76,200a3,3,0,0,1-.68.07,8.22,8.22,0,0,1-.87-.07l-.58-.05a1,1,0,0,0-.78.31,1.16,1.16,0,0,0-.29.83q0,.93.82.93a.87.87,0,0,0,.27,0,1,1,0,0,1,.31-.07q.29,0,.29,1v5.66c0,.64-.1,1-.29,1a1,1,0,0,1-.28-.06,1,1,0,0,0-.28-.06q-.83,0-.83,1a1.17,1.17,0,0,0,.29.83,1,1,0,0,0,.75.31c.12,0,.42,0,.9-.08a6.7,6.7,0,0,1,.8-.05q.44,0,.83,0l1.29.1q1,0,1-1.17,0-.88-.75-.88a.88.88,0,0,0-.27,0,.76.76,0,0,1-.24,0q-.34,0-.34-.85v-8q0-.63-.48-.63A5,5,0,0,0,134.76,200Zm-13.55,1.41a7.06,7.06,0,0,0-1.33,4.52,7.46,7.46,0,0,0,.68,3.28,4.15,4.15,0,0,0,1.68,1.79,4.74,4.74,0,0,0,2.46.69,4.17,4.17,0,0,0,2.67-.93v.1q0,.83,1.19.83t1.26-1.14q0-.34,0-.71l0-.73q0-.36,0-.68,0-.76.46-.76l.41,0a.71.71,0,0,0,.59-.33,1.37,1.37,0,0,0,.24-.82,1.21,1.21,0,0,0-.33-.89,1.18,1.18,0,0,0-.88-.33,7.39,7.39,0,0,0-.75.07,10.08,10.08,0,0,1-1.24.08,9.25,9.25,0,0,1-1.1-.09,9.42,9.42,0,0,0-1.08-.09,1.27,1.27,0,0,0-.88.31,1,1,0,0,0-.34.82,1.15,1.15,0,0,0,.24.74.72.72,0,0,0,.58.3l.31,0,.12,0h.1q.59,0,.59.71a1.23,1.23,0,0,1-.43,1,1.6,1.6,0,0,1-1.1.38,1.84,1.84,0,0,1-1.62-.89,4.52,4.52,0,0,1-.59-2.49,5.8,5.8,0,0,1,.6-2.92,1.88,1.88,0,0,1,1.71-1,1.71,1.71,0,0,1,1.22.37,2.6,2.6,0,0,1,.59,1.33,1.1,1.1,0,0,0,1.19,1,1.61,1.61,0,0,0,1-.3.9.9,0,0,0,.39-.74s0-.25,0-.61a2.31,2.31,0,0,1,0-.46,9.49,9.49,0,0,1,.1-1,6.62,6.62,0,0,0,.07-.68.92.92,0,0,0-1.05-1q-.87,0-1,1a4,4,0,0,0-3-1.21A4.36,4.36,0,0,0,121.21,201.39Zm-14.82,7.84a1.8,1.8,0,0,1-.87.19,1.64,1.64,0,0,1-1.16-.41,1.37,1.37,0,0,1-.44-1.05,1.56,1.56,0,0,1,.28-1,5.68,5.68,0,0,1,1.2-1l1.79,2.53A3.27,3.27,0,0,1,106.39,209.22Zm.29-7.8a.65.65,0,0,1,.49.2.71.71,0,0,1,.2.51,1.06,1.06,0,0,1-.85,1,1.86,1.86,0,0,1-.48-1.09A.58.58,0,0,1,106.67,201.42Zm2.87.66a2.08,2.08,0,0,0-.83-1.7,3.33,3.33,0,0,0-2.14-.66,3.43,3.43,0,0,0-2.23.69,2.2,2.2,0,0,0-.85,1.79,3.82,3.82,0,0,0,.73,2l-.34.17q-1,.51-1.38.8A3.14,3.14,0,0,0,101,208a3.42,3.42,0,0,0,1.19,2.65,4.26,4.26,0,0,0,3,1.07,4.69,4.69,0,0,0,1.89-.39,3.33,3.33,0,0,0,1.38-1.12l.41.48a6.11,6.11,0,0,0,.49.54,1.05,1.05,0,0,0,.66.24l.51-.05a6.06,6.06,0,0,1,.76-.05,4.24,4.24,0,0,1,.59.06,4.07,4.07,0,0,0,.59.06.82.82,0,0,0,.65-.29,1.09,1.09,0,0,0,.25-.75q0-1.19-1.45-1.21a1.77,1.77,0,0,1-1.09-.31,4.39,4.39,0,0,1-.8-.88l-.15-.2a19.06,19.06,0,0,1,1-1.85q.51-.82,1.09-.82c.13,0,.19,0,.19.1l0,.14-.1.14a.75.75,0,0,0-.15.46,1,1,0,0,0,.39.82,1.35,1.35,0,0,0,.92.34,1.62,1.62,0,0,0,1.22-.53,1.78,1.78,0,0,0,.5-1.28,2.05,2.05,0,0,0-.77-1.62,2.77,2.77,0,0,0-1.86-.66,3.42,3.42,0,0,0-1.59.4,3.31,3.31,0,0,0-1.23,1.06,7.92,7.92,0,0,0-.66,1.24l-.14.31-1-1.38a8.6,8.6,0,0,0,1.14-.83A2.34,2.34,0,0,0,109.55,202.08Zm-21.15.73-.54.07a5.84,5.84,0,0,1-.7.07,2.29,2.29,0,0,1-.44-.05,4,4,0,0,0-.58-.08.93.93,0,0,0-.74.32,1.22,1.22,0,0,0-.28.83q0,.93.82.93a1.11,1.11,0,0,0,.3-.06,1.19,1.19,0,0,1,.26-.06q.29,0,.29,1v2.75c0,.64-.1,1-.29,1a.85.85,0,0,1-.25-.06,1,1,0,0,0-.31-.06q-.82,0-.82,1,0,1.14,1.07,1.14a9,9,0,0,0,.91-.07,9,9,0,0,1,.91-.07,7.74,7.74,0,0,1,.94.08,4.77,4.77,0,0,0,.63.05q.9,0,.9-1.07,0-.83-.61-.92c-.22,0-.35-.1-.39-.21a3.43,3.43,0,0,1-.07-.93v-1.77a1.69,1.69,0,0,1,.45-1.21,1.51,1.51,0,0,1,1.15-.48,1,1,0,0,1,.87.4,2.73,2.73,0,0,1,.25,1.39V209c0,.26-.15.4-.46.42q-.7.05-.7,1a.9.9,0,0,0,1,1,5.82,5.82,0,0,0,.78-.07,6.45,6.45,0,0,1,.9-.07,7.36,7.36,0,0,1,.82.07,7.31,7.31,0,0,0,.82.07q1,0,1-1.17,0-.88-.75-.88a.72.72,0,0,0-.25,0,1,1,0,0,1-.26.05q-.34,0-.34-.87V206a4.46,4.46,0,0,0-.39-2.14,2.62,2.62,0,0,0-2.5-1.33,3.83,3.83,0,0,0-3,1.53v-.82Q88.86,202.81,88.4,202.81Zm-9.32,6.77q-.92,0-.92-.78,0-.49.94-.73a15.42,15.42,0,0,0,1.5-.42V208A1.36,1.36,0,0,1,79.08,209.58Zm5.26,1.72a1.08,1.08,0,0,0,.5-.92.93.93,0,0,0-.93-.93l-.12,0-.25,0c-.18,0-.27-.18-.27-.54v-3.52a2.48,2.48,0,0,0-1-2.28,5.28,5.28,0,0,0-2.74-.56,5.63,5.63,0,0,0-2.67.53,1.6,1.6,0,0,0-1,1.44,1.33,1.33,0,0,0,.44,1,1.59,1.59,0,0,0,1.12.41,1.53,1.53,0,0,0,1-.32,1,1,0,0,0,.4-.8v-.07l0-.24q0-.36.56-.36a1.29,1.29,0,0,1,.83.26.81.81,0,0,1,.33.65.88.88,0,0,1-.43.81,5.19,5.19,0,0,1-1.64.47,11,11,0,0,0-1.53.37,2.2,2.2,0,0,0-1.55,2.31,2.38,2.38,0,0,0,.8,1.88,3.12,3.12,0,0,0,2.14.71,4,4,0,0,0,2.82-1.12,1.83,1.83,0,0,0,1.87,1.12A2.16,2.16,0,0,0,84.34,211.3Zm-13.81-.17.46,0q1.33,0,1.33.73,0,.9-2,.9t-2-.9q0-.48.77-.78a9.59,9.59,0,0,0,1,.07Zm.67-6.44a1.1,1.1,0,0,1,.31.8,1.08,1.08,0,0,1-.31.78,1.13,1.13,0,0,1-1.58,0,1.1,1.1,0,0,1-.31-.8,1.08,1.08,0,0,1,1.1-1.1A1.06,1.06,0,0,1,71.2,204.69Zm-3.47-1.3a2.45,2.45,0,0,0-1,2,2.19,2.19,0,0,0,.61,1.5,2.77,2.77,0,0,0-1.06.72,1.66,1.66,0,0,0-.3,1,1.47,1.47,0,0,0,1.36,1.55q-1.72.53-1.72,1.89a2.28,2.28,0,0,0,1.23,2,6.21,6.21,0,0,0,3.27.76,6.47,6.47,0,0,0,3.6-.88A2.72,2.72,0,0,0,75,211.59a2.14,2.14,0,0,0-.88-1.84,4.14,4.14,0,0,0-2.52-.63l-1.09,0h-.19a8.87,8.87,0,0,1-1.24-.05q-.82-.13-.82-.71a.57.57,0,0,1,.25-.44l.08,0a4.68,4.68,0,0,0,1.82.39,4.17,4.17,0,0,0,2.66-.8,2.56,2.56,0,0,0,1-2.11,2.25,2.25,0,0,0-1.63-2.31l0-.17q0-.49.36-.49a.24.24,0,0,1,.22.12l.17.27a.76.76,0,0,0,.7.36.94.94,0,0,0,.71-.29,1,1,0,0,0,.28-.71,1.25,1.25,0,0,0-.54-1,2.14,2.14,0,0,0-1.33-.41,2.29,2.29,0,0,0-1.55.48,1.74,1.74,0,0,0-.58,1.35l-.65,0A4,4,0,0,0,67.73,203.38Zm-8,1.54a1.35,1.35,0,0,1,1.1-.53,1.38,1.38,0,0,1,.92.33,1,1,0,0,1,.39.77.3.3,0,0,1-.06.21.51.51,0,0,1-.31.06h-1.9c-.2,0-.32,0-.36-.07l-.05-.17A1,1,0,0,1,59.7,204.92Zm4.05-1.31a4,4,0,0,0-2.88-1,4.12,4.12,0,0,0-3.14,1.27,4.64,4.64,0,0,0-1.2,3.32,4.45,4.45,0,0,0,1.21,3.26A4.33,4.33,0,0,0,61,211.65,4.79,4.79,0,0,0,63.6,211a2,2,0,0,0,1.08-1.67,1,1,0,0,0-.31-.73,1.17,1.17,0,0,0-.82-.29,1.52,1.52,0,0,0-1.12.54,2.1,2.1,0,0,1-1.46.78,1.54,1.54,0,0,1-1.16-.48,1.65,1.65,0,0,1-.46-1.19c0-.16,0-.26.08-.3a.74.74,0,0,1,.38-.06H64a.84.84,0,0,0,.71-.24,1.73,1.73,0,0,0,.18-1A3.66,3.66,0,0,0,63.76,203.61Zm-14.65-1.12q0-.29.31-.29l.15,0h.17q.7,0,.7-1,0-1.26-1.12-1.26a8.15,8.15,0,0,0-.9.08,9,9,0,0,1-1.16.08A9.5,9.5,0,0,1,46.2,200a9.47,9.47,0,0,0-1-.08,1.1,1.1,0,0,0-1.24,1.24,1.34,1.34,0,0,0,.23.81.71.71,0,0,0,.6.31,1.3,1.3,0,0,0,.38-.06,1.13,1.13,0,0,1,.31-.06q.34,0,.61.83l2,6.36q.63,2,1.53,2l.49,0,.49,0,.51,0,.51,0q.88,0,1.34-1.39L55,203.66q.48-1.46.88-1.46l.29.06a1.4,1.4,0,0,0,.34.06.73.73,0,0,0,.6-.34,1.38,1.38,0,0,0,.25-.83,1.18,1.18,0,0,0-.32-.86,1.13,1.13,0,0,0-.85-.33,7.13,7.13,0,0,0-1,.1,6.56,6.56,0,0,1-1,.07,9.5,9.5,0,0,1-1.05-.08,9.49,9.49,0,0,0-1.05-.08q-1.09,0-1.09,1.24,0,1,.78,1h0l.24,0c.18,0,.27.08.27.27a1.7,1.7,0,0,1-.08.41l-1.62,5.47-1.53-5.47A1.5,1.5,0,0,1,49.11,202.49Z"/><path class="cls-2" d="M226.85,220.52q0-.7-.55-.7h-.12l-.38,0-.4,0-.56-.05-.48,0q-.67,0-.67.58c0,.35.19.53.57.53a1.41,1.41,0,0,0,.48-.08l.33,0a.35.35,0,0,1,.36.25,5.21,5.21,0,0,1,.12,1.16v6.87l-.05.66q-.05.65-.46.65l-.37-.05a1.78,1.78,0,0,0-.32,0q-.65,0-.65.56t.66.56a8.28,8.28,0,0,0,.87-.08,6.83,6.83,0,0,1,.9-.07,7.51,7.51,0,0,1,.89.08,7.31,7.31,0,0,0,.88.08q.65,0,.65-.56a.5.5,0,0,0-.58-.56,1.57,1.57,0,0,0-.32,0l-.29,0q-.39,0-.48-.59c0-.07,0-.37,0-.92v-.39l1.26-1.12q.19-.17.25-.17c.07,0,.16.07.27.22l1.7,2.26.22.32.17.24,0,0v.05c0,.08-.05.12-.15.12a2,2,0,0,1-.39-.08l-.27,0c-.41,0-.61.18-.61.54s.21.58.65.58a6.67,6.67,0,0,0,.77-.07,6.69,6.69,0,0,1,.79-.07,9,9,0,0,1,.91.07,9,9,0,0,0,.91.07q.78,0,.78-.58c0-.36-.2-.54-.61-.54a1.56,1.56,0,0,0-.31,0l-.28,0q-.36,0-1.19-1.07l-2.18-2.82a.5.5,0,0,1-.14-.25c0-.07.06-.16.19-.27l1.78-1.63a1.34,1.34,0,0,1,.88-.42,2.43,2.43,0,0,1,.38,0,2.4,2.4,0,0,0,.38,0c.38,0,.58-.18.58-.55s-.28-.59-.83-.59l-.39,0-.7.1a4.06,4.06,0,0,1-.58,0,16.75,16.75,0,0,1-1.79-.14l-.48,0q-.75,0-.75.59c0,.36.2.54.59.54a2.63,2.63,0,0,0,.49-.07,2.56,2.56,0,0,1,.49-.07c.15,0,.22.06.22.17a.4.4,0,0,1-.15.31l-2.91,2.72Zm-5.12.05a1.47,1.47,0,0,0,0-.25q0-.49-.39-.49a3.73,3.73,0,0,0-.51.05,3.76,3.76,0,0,1-.51.05l-.46,0-.41-.05-.32,0q-.68,0-.68.56c0,.36.19.54.58.54l.31,0,.44-.07a.48.48,0,0,1,.48.39,5.3,5.3,0,0,1,.05.68v5.68l0,1.19a7.35,7.35,0,0,1-.09,1.37.36.36,0,0,1-.39.26l-.5-.09-.15,0H219c-.39,0-.58.18-.58.53s.24.61.71.61h.08a7.27,7.27,0,0,0,.8-.07,7.29,7.29,0,0,1,.81-.07,8.75,8.75,0,0,1,.91.07c.4,0,.68.07.86.07q.69,0,.7-.56a.51.51,0,0,0-.57-.58l-.27,0a2.23,2.23,0,0,1-.43.08q-.45,0-.46-.87v-5.28Q221.61,221.88,221.73,220.57Zm-5.52,1.13a.92.92,0,0,0,.28-.67.89.89,0,0,0-.28-.66,1,1,0,0,0-1.34,0,.89.89,0,0,0-.28.66.95.95,0,0,0,1.62.67Zm.23,3.31q0-.92,0-1.05s0-.11,0-.2,0-.16,0-.2c0-.44-.17-.66-.49-.66l-.42,0-.42,0-.7-.07-.46,0q-.75,0-.75.58c0,.36.21.54.62.54a1.75,1.75,0,0,0,.37-.06,1.83,1.83,0,0,1,.39-.06q.43,0,.51,1.07v4.35q-.08,1.09-.5,1.09a2.41,2.41,0,0,1-.4-.05,2.34,2.34,0,0,0-.4-.05q-.58,0-.58.56t.68.58a8.8,8.8,0,0,0,.89-.08,8,8,0,0,1,1-.07,6.7,6.7,0,0,1,.83.08,6.53,6.53,0,0,0,.83.08.84.84,0,0,0,.54-.17.51.51,0,0,0,.21-.41q0-.56-.65-.56a.73.73,0,0,0-.25,0,2.58,2.58,0,0,1-.43.08q-.37,0-.46-.76,0-.15,0-1v-2.21Q216.43,225.71,216.44,225ZM200,222.88H200l-.41.07h-.31a5.26,5.26,0,0,1-.56,0l-.51,0q-.7,0-.7.58t.63.54l.27,0,.48-.09a.39.39,0,0,1,.42.36,12.14,12.14,0,0,1,.08,1.8v3.57q0,.83-.5.83l-.07,0-.43-.08-.1,0h-.1q-.66,0-.66.53t.68.58l.88-.07.75-.05a8.72,8.72,0,0,1,1,.07,6.14,6.14,0,0,0,.71.05q.76,0,.76-.54t-.66-.56h-.12l-.1,0a1.44,1.44,0,0,1-.36.09c-.2,0-.33-.19-.37-.58q0-.12,0-.8v-2.27a4.06,4.06,0,0,1,.49-2.32,2,2,0,0,1,1.72-.82,1.6,1.6,0,0,1,1.42.58,3.86,3.86,0,0,1,.4,2.07v2.48l-.05.8q0,.87-.42.87a1.36,1.36,0,0,1-.36-.07.7.7,0,0,0-.29,0,.46.46,0,0,0-.51.53q0,.58.7.58a4.85,4.85,0,0,0,.75-.07,5,5,0,0,1,.78-.07,6.27,6.27,0,0,1,.76.07,6.24,6.24,0,0,0,.76.07q.8,0,.8-.55a.53.53,0,0,0-.16-.39.55.55,0,0,0-.4-.16l-.3,0-.3,0c-.22,0-.35-.13-.4-.4a14.72,14.72,0,0,1-.08-2v-1.21a5.09,5.09,0,0,1,.37-2.31,1.76,1.76,0,0,1,1.68-.83,2.07,2.07,0,0,1,1.12.31,1.54,1.54,0,0,1,.67.84,5.92,5.92,0,0,1,.18,1.71v2.16a8.36,8.36,0,0,1-.09,1.45.35.35,0,0,1-.37.29.89.89,0,0,1-.27,0l-.34,0c-.36,0-.54.17-.54.51s.24.6.71.6c.19,0,.47,0,.84-.06a8.4,8.4,0,0,1,.84-.06,7.42,7.42,0,0,1,.79.06,7.65,7.65,0,0,0,.77.06q.68,0,.68-.6t-.59-.51a1.63,1.63,0,0,0-.35.06,1.58,1.58,0,0,1-.35.06c-.24,0-.38-.2-.44-.61,0-.1,0-.39,0-.85v-2.93a5.2,5.2,0,0,0-.22-1.77,2.46,2.46,0,0,0-1.17-1.29,3.62,3.62,0,0,0-1.73-.41,3.51,3.51,0,0,0-1.53.29,3.59,3.59,0,0,0-1.17,1,2.66,2.66,0,0,0-2.45-1.29,3,3,0,0,0-1.36.28,4,4,0,0,0-1.16,1v-.49C200.44,223,200.31,222.88,200,222.88Zm-9.72,7.58q-1.19,0-1.19-1.78V224.5c0-.24.08-.36.24-.36h1.87q.7,0,.7-.63t-.65-.6h-1.85c-.2,0-.31-.08-.31-.25v-1.82q0-.64-.61-.65a.58.58,0,0,0-.66.65v1.75q0,.32-.29.32h-.66a.54.54,0,0,0-.4.19.6.6,0,0,0-.18.42.59.59,0,0,0,.18.43.63.63,0,0,0,.46.18h.56c.22,0,.33.12.33.36v4.08a4,4,0,0,0,.42,2.14,2.13,2.13,0,0,0,1.92.87,2.33,2.33,0,0,0,2.11-1,5.07,5.07,0,0,0,.47-2.58q0-.78-.59-.78t-.61.7V229Q191.52,230.46,190.31,230.46Zm-6.56,1a1.49,1.49,0,0,0,.36-.05l.36,0,.53.05.44,0q.71,0,.71-.58a.5.5,0,0,0-.58-.56,2,2,0,0,0-.34,0,1.94,1.94,0,0,1-.34,0q-.39,0-.48-.9,0-.12,0-1.16v-2.62a15.87,15.87,0,0,1,.08-1.91,1.63,1.63,0,0,0,0-.37c0-.36-.17-.54-.51-.54l-.41,0-.41,0-.47,0-.47,0q-.66,0-.66.58t.6.51h.51c.24,0,.38.27.44.82v2a7.69,7.69,0,0,1-.27,2.52,1.79,1.79,0,0,1-.78.88,2.49,2.49,0,0,1-1.29.33,1.75,1.75,0,0,1-1.87-1.07,6.76,6.76,0,0,1-.24-2.12v-1.1l.05-1.26v-1.46q0-.65-.53-.65l-.29,0a4.48,4.48,0,0,1-.53.05l-.5,0-.5,0q-.73,0-.73.54c0,.37.2.55.6.55l.34,0,.33,0q.5,0,.5,2.33v1.41q0,1.14,0,1.5a2.59,2.59,0,0,0,.37,1.27,3,3,0,0,0,2.79,1.24,3.09,3.09,0,0,0,2.67-1.24v.53Q183.28,231.43,183.75,231.43Zm-16.15-8.57-.46,0a2.35,2.35,0,0,1-.48,0l-.63-.07-.17,0q-.76,0-.76.56c0,.36.21.54.62.54l.35,0,.36,0a.4.4,0,0,1,.39.21,2.18,2.18,0,0,1,.15.79v4.54q0,1-.54,1a2.13,2.13,0,0,1-.46-.05l-.32-.05a.48.48,0,0,0-.55.54q0,.58.71.58l.85-.08a8.68,8.68,0,0,1,1-.07,6.18,6.18,0,0,1,.83.05q.75.1.88.1.68,0,.68-.55t-.53-.57a1.67,1.67,0,0,0-.39.06,1.68,1.68,0,0,1-.37.06.37.37,0,0,1-.37-.27,3.39,3.39,0,0,1-.1-1v-2.26a4.59,4.59,0,0,1,.41-2.26,2.11,2.11,0,0,1,1.95-1,2.16,2.16,0,0,1,1.27.39,1.64,1.64,0,0,1,.66,1,6,6,0,0,1,.08,1.24v3.2q0,.93-.45.93l-.42-.07a1.57,1.57,0,0,0-.31,0q-.59,0-.59.53t.68.6l.9-.1a6.51,6.51,0,0,1,.73,0,8.32,8.32,0,0,1,1,.07,7.34,7.34,0,0,0,.78.07.75.75,0,0,0,.49-.17.53.53,0,0,0,.2-.43.5.5,0,0,0-.16-.37.54.54,0,0,0-.38-.15l-.35,0a2.47,2.47,0,0,1-.4,0c-.25,0-.4-.19-.46-.58q0-.14,0-.87v-3.23a4,4,0,0,0-.24-1.51,2.45,2.45,0,0,0-1.11-1.16,3.44,3.44,0,0,0-1.73-.47,3.29,3.29,0,0,0-2.72,1.29v-.48Q168.09,222.87,167.6,222.87Zm-4.81,4.23a4,4,0,0,1-.71,2.52,2.33,2.33,0,0,1-1.95.91,2.2,2.2,0,0,1-1.88-.91,4.14,4.14,0,0,1-.67-2.51v-.22a3.93,3.93,0,0,1,.75-2.36,2.28,2.28,0,0,1,1.87-.83Q162.79,223.7,162.79,227.1Zm.27,3.3a4.86,4.86,0,0,0,1.11-3.33,4.77,4.77,0,0,0-1.07-3.28,3.71,3.71,0,0,0-2.92-1.21,3.66,3.66,0,0,0-2.9,1.23,5.62,5.62,0,0,0,0,6.61,3.6,3.6,0,0,0,2.86,1.23A3.72,3.72,0,0,0,163.06,230.4Zm-10.29-4a1,1,0,0,0,.71.26,1.12,1.12,0,0,0,.89-.41,1.54,1.54,0,0,0,.35-1,2.33,2.33,0,0,0-.9-1.88,3.44,3.44,0,0,0-2.26-.74,3.66,3.66,0,0,0-2.92,1.27,5,5,0,0,0-1.1,3.37,4.73,4.73,0,0,0,1.06,3.21,3.52,3.52,0,0,0,2.8,1.22,3.4,3.4,0,0,0,2.6-1.07,3.53,3.53,0,0,0,.65-1,2.54,2.54,0,0,0,.27-1,.64.64,0,0,0-.66-.66.59.59,0,0,0-.54.34q0,.09-.2.68a2.14,2.14,0,0,1-.76,1.17,2.07,2.07,0,0,1-1.3.42,2.18,2.18,0,0,1-1.86-.91,4.14,4.14,0,0,1-.67-2.51,4,4,0,0,1,.71-2.48,2.26,2.26,0,0,1,1.89-.93,2.13,2.13,0,0,1,1.25.34,1.32,1.32,0,0,1,.57.94q-.85.1-.85.78A.81.81,0,0,0,152.77,226.38Zm-7.93.71a4,4,0,0,1-.71,2.52,2.33,2.33,0,0,1-1.95.91,2.2,2.2,0,0,1-1.88-.91,4.14,4.14,0,0,1-.67-2.51v-.22a3.93,3.93,0,0,1,.75-2.36,2.28,2.28,0,0,1,1.87-.83Q144.84,223.7,144.84,227.1Zm.27,3.3a4.86,4.86,0,0,0,1.11-3.33,4.77,4.77,0,0,0-1.07-3.28,3.71,3.71,0,0,0-2.92-1.21,3.66,3.66,0,0,0-2.9,1.23,5.62,5.62,0,0,0,0,6.61,3.6,3.6,0,0,0,2.86,1.23A3.72,3.72,0,0,0,145.11,230.4Zm-10.29-4a1,1,0,0,0,.71.26,1.12,1.12,0,0,0,.89-.41,1.54,1.54,0,0,0,.35-1,2.33,2.33,0,0,0-.9-1.88,3.44,3.44,0,0,0-2.26-.74,3.66,3.66,0,0,0-2.92,1.27,5,5,0,0,0-1.1,3.37,4.73,4.73,0,0,0,1.06,3.21,3.52,3.52,0,0,0,2.8,1.22,3.4,3.4,0,0,0,2.6-1.07,3.53,3.53,0,0,0,.65-1,2.54,2.54,0,0,0,.27-1,.64.64,0,0,0-.66-.66.59.59,0,0,0-.54.34q0,.09-.2.68a2.14,2.14,0,0,1-.76,1.17,2.07,2.07,0,0,1-1.3.42,2.18,2.18,0,0,1-1.86-.91,4.14,4.14,0,0,1-.67-2.51,4,4,0,0,1,.71-2.48,2.26,2.26,0,0,1,1.89-.93,2.13,2.13,0,0,1,1.25.34,1.32,1.32,0,0,1,.57.94q-.85.1-.85.78A.81.81,0,0,0,134.82,226.38Zm-17.65-6q0-.56-.39-.56l-.39,0a3,3,0,0,1-.42,0,6.72,6.72,0,0,1-.7,0l-.58-.05a.75.75,0,0,0-.49.17.51.51,0,0,0-.2.41c0,.36.19.54.58.54a1.89,1.89,0,0,0,.37-.05,1.85,1.85,0,0,1,.36-.05q.37,0,.48.67a29.32,29.32,0,0,1,.1,3.22v3a15.57,15.57,0,0,1-.11,2.12q-.1.52-.37.52a2,2,0,0,1-.42-.07.83.83,0,0,0-.33,0q-.66,0-.66.53t.7.63l.87-.07q.51-.05.8-.05a11,11,0,0,1,1.11.07c.32,0,.56.05.72.05q.75,0,.75-.61a.49.49,0,0,0-.56-.54,1.46,1.46,0,0,0-.38.08,1.49,1.49,0,0,1-.39.08q-.42,0-.51-.83,0-.15,0-1.12v-.32a1.47,1.47,0,0,0,.07-.34v-1.22a3.77,3.77,0,0,1,.44-2,2.19,2.19,0,0,1,2-.92,1.82,1.82,0,0,1,1.74.88,5.29,5.29,0,0,1,.34,2.33v1.65c0,.4,0,.66,0,.8q0,1.1-.53,1.1a.91.91,0,0,1-.29-.05,1.43,1.43,0,0,0-.44-.08.62.62,0,0,0-.42.15.47.47,0,0,0-.18.37.57.57,0,0,0,.2.45.74.74,0,0,0,.51.18q.17,0,.88-.1a5.18,5.18,0,0,1,.68,0,10.22,10.22,0,0,1,1.16.08,5.88,5.88,0,0,0,.65.05q.82,0,.82-.58t-.63-.58l-.27,0a1.23,1.23,0,0,1-.39.1q-.37,0-.44-.85,0-.1,0-1.1V225.6a2.87,2.87,0,0,0-.89-2.19,3.73,3.73,0,0,0-3.68-.59,4.59,4.59,0,0,0-1.25.89l.07-3.31Zm-6,10.1q-1.19,0-1.19-1.78V224.5c0-.24.08-.36.24-.36h1.87q.7,0,.7-.63t-.65-.6h-1.85c-.2,0-.31-.08-.31-.25v-1.82q0-.64-.61-.65a.58.58,0,0,0-.66.65v1.75q0,.32-.29.32h-.66a.54.54,0,0,0-.4.19.6.6,0,0,0-.18.42.59.59,0,0,0,.18.43.63.63,0,0,0,.46.18h.56c.22,0,.33.12.33.36v4.08a4,4,0,0,0,.42,2.14,2.13,2.13,0,0,0,1.92.87,2.33,2.33,0,0,0,2.11-1,5.07,5.07,0,0,0,.47-2.58q0-.78-.59-.78t-.61.7V229Q112.38,230.46,111.18,230.46ZM105,221.7a.92.92,0,0,0,.28-.67.89.89,0,0,0-.28-.66,1,1,0,0,0-1.34,0,.89.89,0,0,0-.28.66.95.95,0,0,0,1.62.67Zm.23,3.31q0-.92,0-1.05s0-.11,0-.2,0-.16,0-.2c0-.44-.17-.66-.49-.66l-.42,0-.42,0-.7-.07-.46,0q-.75,0-.75.58c0,.36.21.54.62.54a1.75,1.75,0,0,0,.37-.06,1.83,1.83,0,0,1,.39-.06q.43,0,.51,1.07v4.35q-.08,1.09-.5,1.09a2.41,2.41,0,0,1-.4-.05,2.34,2.34,0,0,0-.4-.05q-.58,0-.58.56t.68.58a8.8,8.8,0,0,0,.89-.08,8,8,0,0,1,1-.07,6.7,6.7,0,0,1,.83.08,6.53,6.53,0,0,0,.83.08.84.84,0,0,0,.54-.17.51.51,0,0,0,.21-.41q0-.56-.65-.56a.73.73,0,0,0-.25,0,2.58,2.58,0,0,1-.43.08q-.37,0-.46-.76,0-.15,0-1v-2.21Q105.19,225.71,105.21,225Zm-14.12-.61q0-.51.44-.51A1.26,1.26,0,0,1,92,224l.42,0q.63,0,.63-.57t-.75-.59l-.88.09a8.92,8.92,0,0,1-1.09.08,4.14,4.14,0,0,1-.63,0l-.73-.11-.19,0q-.76,0-.76.6a.49.49,0,0,0,.56.55l.37,0a1,1,0,0,1,.31-.07c.22,0,.37.18.48.55l1.63,6.13q.27,1.06,1.07,1.06a1,1,0,0,0,.78-.35,2.9,2.9,0,0,0,.48-1.2L95,224.14l1.27,6.05q.31,1.43,1.21,1.43a.93.93,0,0,0,.75-.32,2.88,2.88,0,0,0,.48-1.12l1.16-4.4q.49-1.9,1-1.9l.31.06a.58.58,0,0,0,.29.06.5.5,0,0,0,.56-.57q0-.59-.73-.59l-.19,0-.56.08a6.62,6.62,0,0,1-.88.06,6.77,6.77,0,0,1-.85,0l-.7-.1-.25,0q-.83,0-.83.59t.63.56a2.36,2.36,0,0,0,.44-.06,2.43,2.43,0,0,1,.44-.06c.26,0,.39.15.39.46v0a3.73,3.73,0,0,1-.12.85l-1.26,5.18-1.28-6a3.5,3.5,0,0,0-.45-1.26.91.91,0,0,0-.77-.32.9.9,0,0,0-.76.31,3.43,3.43,0,0,0-.45,1.27l-1.33,6-1.24-5.18A3.68,3.68,0,0,1,91.08,224.4Zm-13.16,0a2.56,2.56,0,0,1,1.73-.69,2.22,2.22,0,0,1,1.6.66,2.11,2.11,0,0,1,.68,1.56q0,.24-.36.24H77.52q-.37,0-.37-.24A2,2,0,0,1,77.93,224.39Zm4.35-.74a3.51,3.51,0,0,0-2.63-1.07,3.69,3.69,0,0,0-2.92,1.29,5,5,0,0,0-1.12,3.37,4.7,4.7,0,0,0,1.05,3.22,3.59,3.59,0,0,0,2.84,1.2A4.09,4.09,0,0,0,82,230.8a2.46,2.46,0,0,0,1.12-2,.56.56,0,0,0-.63-.65.53.53,0,0,0-.56.41l-.15.49a1.86,1.86,0,0,1-.81,1,2.43,2.43,0,0,1-1.37.41,2.46,2.46,0,0,1-1.9-.85,3.06,3.06,0,0,1-.76-2.12.25.25,0,0,1,.07-.2.48.48,0,0,1,.29-.06h5.41q.41,0,.49-.14a2.1,2.1,0,0,0,.08-.79A3.75,3.75,0,0,0,82.28,223.65ZM70.93,230a2.46,2.46,0,0,1-3.46-.39,4.11,4.11,0,0,1-.7-2.54,4,4,0,0,1,.68-2.46,2.21,2.21,0,0,1,1.88-.9,2.41,2.41,0,0,1,1.57.56,2.13,2.13,0,0,1,.74,1.33,9.07,9.07,0,0,1,.09,1.55,12.53,12.53,0,0,1-.07,1.45A2.14,2.14,0,0,1,70.93,230Zm-4.5-6.19a5.72,5.72,0,0,0,0,6.59,3.44,3.44,0,0,0,2.78,1.26,3.06,3.06,0,0,0,2.61-1.21v.37c0,.41.15.61.46.61a1.49,1.49,0,0,0,.36-.05l.39,0,.52,0,.52,0q.77,0,.77-.58t-.64-.56l-.38,0a1.32,1.32,0,0,1-.35,0,.39.39,0,0,1-.42-.27,6.76,6.76,0,0,1-.1-1.4v-4.51q0-.44,0-1.29.05-1.21.05-1.31c0-.57,0-.87,0-.9v-.19q0-.68-.48-.68a3.26,3.26,0,0,0-.44,0l-.44,0-.56-.05-.49,0q-.85,0-.85.56t.63.54a2,2,0,0,0,.38-.05,2,2,0,0,1,.38-.05q.39,0,.48.53a5.68,5.68,0,0,1,0,.83v1.72a2.78,2.78,0,0,0-2.52-1.31A3.44,3.44,0,0,0,66.44,223.81Zm-5.87,6.1a2.5,2.5,0,0,1-1.79.62,2,2,0,0,1-1.27-.37,1.24,1.24,0,0,1-.47-1q0-1.24,1.93-1.43a7.83,7.83,0,0,0,1.48-.24,2.18,2.18,0,0,0,.79-.48v1.21A2.3,2.3,0,0,1,60.56,229.91Zm4.29,0V228.9q0-.82-.55-.82t-.52.54v.83q0,1.08-.59,1.08t-.58-.59a7.25,7.25,0,0,1,0-1v-3.43q0-3-3.09-3a3.81,3.81,0,0,0-2.29.68,2,2,0,0,0-.94,1.63,1,1,0,0,0,.3.75,1,1,0,0,0,.74.31.9.9,0,0,0,.62-.22.72.72,0,0,0,.25-.56.66.66,0,0,0-.24-.58c-.1-.07-.15-.12-.15-.17s.08-.24.25-.36a2.6,2.6,0,0,1,1.43-.43,2.07,2.07,0,0,1,1.35.4,1.35,1.35,0,0,1,.48,1.1,1.09,1.09,0,0,1-.43,1,5.12,5.12,0,0,1-1.86.43q-1,.12-1.33.2a3.16,3.16,0,0,0-.79.33,2.21,2.21,0,0,0-1.21,2.07,2.23,2.23,0,0,0,.83,1.82,3.35,3.35,0,0,0,2.2.68,3.06,3.06,0,0,0,2.72-1.28,1.57,1.57,0,0,0,1.72,1.21A1.51,1.51,0,0,0,64.85,230Zm-20.5-9.16q-.22-.83-.88-.83a7.54,7.54,0,0,0-.81.07,7.64,7.64,0,0,1-.87.07A7.23,7.23,0,0,1,41,220l-.6-.07-.22,0q-.76,0-.76.6a.47.47,0,0,0,.53.54l.41,0,.41,0q.87,0,.87,1.27v6.83q0,1.28-.87,1.28a2.22,2.22,0,0,1-.37-.05,2.29,2.29,0,0,0-.44-.05.5.5,0,0,0-.37.16.56.56,0,0,0-.15.4q0,.59.78.59h.1l.1,0,.71-.14a8.7,8.7,0,0,1,1.21-.05,6.15,6.15,0,0,1,.87.05l.8.12.36,0q.68,0,.68-.58t-.66-.58H43.6q-.66,0-.68-1.23l-.1-7.86.07-.1.12.1,3.08,9.69a.87.87,0,0,0,.33.52,1.31,1.31,0,0,0,.66.13.89.89,0,0,0,1-.64l3.13-9.69.1-.1.08.1v4.53q0,1.07,0,1.63,0,1.46,0,1.73-.15,1.27-.77,1.27l-.45,0-.26,0q-.69,0-.68.59t.66.57a3.33,3.33,0,0,0,.54-.05,9.53,9.53,0,0,1,1.53-.12,17.68,17.68,0,0,1,2,.14l.25,0q.73,0,.73-.61a.48.48,0,0,0-.54-.54l-.44,0a1.54,1.54,0,0,1-.37.05q-.85,0-.85-1.27v-6.82q0-1.27.87-1.27l.4,0,.4,0a.48.48,0,0,0,.54-.54q0-.6-.78-.6l-.2,0-.59.1a4.84,4.84,0,0,1-.8.05,6.18,6.18,0,0,1-.75,0,2.34,2.34,0,0,1-.44-.08,2.59,2.59,0,0,0-.44-.05h-.08q-.54,0-.76.71l-2.87,9.16-2.62-8.6Z"/><path class="cls-2" d="M236.12,243.32a2.38,2.38,0,0,0-.9,1.93,1.83,1.83,0,0,0,.92,1.76,7.37,7.37,0,0,0,2.67.69q1.84.19,1.84,1.34a1.31,1.31,0,0,1-.54,1.07,2.17,2.17,0,0,1-1.38.42,3.59,3.59,0,0,1-1.9-.46,1.4,1.4,0,0,1-.76-1.19,2.63,2.63,0,0,0-.11-.9q-.09-.17-.45-.17c-.36,0-.54.2-.54.59a3.21,3.21,0,0,0,.07.56,4.13,4.13,0,0,1,.07.77,3.39,3.39,0,0,1,0,.48q-.1,1-.1.88,0,.7.63.7t.58-.61v-.32a3.87,3.87,0,0,0,2.44.8,3.75,3.75,0,0,0,2.44-.76,2.43,2.43,0,0,0,.93-2q0-2-2.89-2.4l-1-.14q-1.5-.2-1.5-1.29a1.21,1.21,0,0,1,.53-1,2.11,2.11,0,0,1,1.31-.4,2.42,2.42,0,0,1,1.33.37,1.09,1.09,0,0,1,.59.88v.56a.49.49,0,0,0,.55.54q.55,0,.55-.65,0-.2,0-.59a6,6,0,0,1,0-.6,4.09,4.09,0,0,1,.06-.68c0-.27,0-.44,0-.51a.49.49,0,0,0-.56-.54q-.54,0-.54.63v.07a3,3,0,0,0-1.9-.59A3.56,3.56,0,0,0,236.12,243.32Zm-7.78.88a2.31,2.31,0,0,1,1.45-.49q2.41,0,2.41,3.4a4.16,4.16,0,0,1-.67,2.54,2.47,2.47,0,0,1-3.26.48,2,2,0,0,1-.74-.93,5.32,5.32,0,0,1-.19-1.66v-.24c0-.12,0-.21,0-.25a8,8,0,0,1,.17-1.61A2.13,2.13,0,0,1,228.34,244.19Zm-1.49-1.31-.42,0-.44,0-.63,0-.41,0q-.75,0-.75.54t.62.56a1.69,1.69,0,0,0,.38-.06,1.69,1.69,0,0,1,.36-.06q.42,0,.44.78v6.56a13.18,13.18,0,0,1-.09,1.84.38.38,0,0,1-.4.33,2.37,2.37,0,0,1-.42-.06l-.32,0q-.57,0-.57.54a.53.53,0,0,0,.2.41.72.72,0,0,0,.49.18q.22,0,.9-.08a5.63,5.63,0,0,1,.68,0,9.15,9.15,0,0,1,1.12.05,6.21,6.21,0,0,0,.76.07q.71,0,.71-.56a.49.49,0,0,0-.54-.56,1.93,1.93,0,0,0-.36.05,1.89,1.89,0,0,1-.36.05c-.26,0-.42-.18-.49-.53a6.14,6.14,0,0,1,0-.83v-1.41a3.05,3.05,0,0,0,2.4,1,3.51,3.51,0,0,0,2.85-1.28,5.23,5.23,0,0,0,1.06-3.44,4.73,4.73,0,0,0-1-3.18,3.37,3.37,0,0,0-2.7-1.17,3,3,0,0,0-2.6,1.33v-.54Q227.28,242.88,226.85,242.88ZM222,241.7a.92.92,0,0,0,.28-.67.89.89,0,0,0-.28-.66,1,1,0,0,0-1.34,0,.89.89,0,0,0-.28.66.95.95,0,0,0,1.62.67Zm.23,3.31q0-.92,0-1.05s0-.11,0-.2,0-.16,0-.2c0-.44-.17-.66-.49-.66l-.42,0-.42,0-.7-.07-.46,0q-.75,0-.75.58c0,.36.21.54.62.54a1.75,1.75,0,0,0,.37-.06,1.83,1.83,0,0,1,.39-.06q.43,0,.51,1.07v4.35q-.08,1.09-.5,1.09a2.41,2.41,0,0,1-.4-.05,2.34,2.34,0,0,0-.4-.05q-.58,0-.58.56t.68.58a8.8,8.8,0,0,0,.89-.08,8,8,0,0,1,1-.07,6.7,6.7,0,0,1,.83.08,6.53,6.53,0,0,0,.83.08.84.84,0,0,0,.54-.17.51.51,0,0,0,.21-.41q0-.56-.65-.56a.73.73,0,0,0-.25,0,2.58,2.58,0,0,1-.43.08q-.37,0-.46-.76,0-.15,0-1v-2.21Q222.16,245.71,222.18,245Zm-10.94-4.64q0-.56-.39-.56l-.39,0a3,3,0,0,1-.42,0,6.72,6.72,0,0,1-.7,0l-.58-.05a.75.75,0,0,0-.49.17.51.51,0,0,0-.2.41c0,.36.19.54.58.54a1.89,1.89,0,0,0,.37-.05,1.85,1.85,0,0,1,.36-.05q.37,0,.48.67a29.32,29.32,0,0,1,.1,3.22v3a15.57,15.57,0,0,1-.11,2.12q-.1.52-.37.52a2,2,0,0,1-.42-.07.83.83,0,0,0-.33,0q-.66,0-.66.53t.7.63l.87-.07q.51-.05.8-.05a11,11,0,0,1,1.11.07c.32,0,.56.05.72.05q.75,0,.75-.61a.49.49,0,0,0-.56-.54,1.46,1.46,0,0,0-.38.08,1.49,1.49,0,0,1-.39.08q-.42,0-.51-.83,0-.15,0-1.12v-.32a1.47,1.47,0,0,0,.07-.34v-1.22a3.77,3.77,0,0,1,.44-2,2.19,2.19,0,0,1,2-.92,1.82,1.82,0,0,1,1.74.88,5.29,5.29,0,0,1,.34,2.33v1.65c0,.4,0,.66,0,.8q0,1.1-.53,1.1a.91.91,0,0,1-.29-.05,1.43,1.43,0,0,0-.44-.08.62.62,0,0,0-.42.15.47.47,0,0,0-.18.37.57.57,0,0,0,.2.45.74.74,0,0,0,.51.18q.17,0,.88-.1a5.18,5.18,0,0,1,.68,0,10.22,10.22,0,0,1,1.16.08,5.88,5.88,0,0,0,.65.05q.82,0,.82-.58t-.63-.58l-.27,0a1.23,1.23,0,0,1-.39.1q-.37,0-.44-.85,0-.1,0-1.1V245.6a2.87,2.87,0,0,0-.89-2.19,3.73,3.73,0,0,0-3.68-.59,4.59,4.59,0,0,0-1.25.89l.07-3.31Zm-5.87,6a1,1,0,0,0,.71.26,1.12,1.12,0,0,0,.89-.41,1.54,1.54,0,0,0,.35-1,2.33,2.33,0,0,0-.9-1.88,3.44,3.44,0,0,0-2.26-.74,3.66,3.66,0,0,0-2.92,1.27,5,5,0,0,0-1.1,3.37,4.73,4.73,0,0,0,1.06,3.21,3.52,3.52,0,0,0,2.8,1.22,3.4,3.4,0,0,0,2.6-1.07,3.53,3.53,0,0,0,.65-1,2.54,2.54,0,0,0,.27-1,.64.64,0,0,0-.66-.66.59.59,0,0,0-.54.34q0,.09-.2.68a2.14,2.14,0,0,1-.76,1.17,2.07,2.07,0,0,1-1.3.42,2.18,2.18,0,0,1-1.86-.91,4.14,4.14,0,0,1-.67-2.51,4,4,0,0,1,.71-2.48,2.26,2.26,0,0,1,1.89-.93,2.13,2.13,0,0,1,1.25.34,1.32,1.32,0,0,1,.57.94q-.85.1-.85.78A.81.81,0,0,0,205.36,246.38Zm-16.12-2a2.56,2.56,0,0,1,1.73-.69,2.22,2.22,0,0,1,1.6.66,2.11,2.11,0,0,1,.68,1.56q0,.24-.36.24h-4.06q-.37,0-.37-.24A2,2,0,0,1,189.23,244.39Zm4.35-.74a3.51,3.51,0,0,0-2.63-1.07,3.69,3.69,0,0,0-2.92,1.29,5,5,0,0,0-1.12,3.37,4.7,4.7,0,0,0,1.05,3.22,3.59,3.59,0,0,0,2.84,1.2,4.09,4.09,0,0,0,2.55-.86,2.46,2.46,0,0,0,1.12-2,.56.56,0,0,0-.63-.65.53.53,0,0,0-.56.41l-.15.49a1.86,1.86,0,0,1-.81,1,2.43,2.43,0,0,1-1.37.41,2.46,2.46,0,0,1-1.9-.85,3.06,3.06,0,0,1-.76-2.12.25.25,0,0,1,.07-.2.48.48,0,0,1,.29-.06H194q.41,0,.49-.14a2.1,2.1,0,0,0,.08-.79A3.75,3.75,0,0,0,193.59,243.65Zm-10,6.82q-1.19,0-1.19-1.78V244.5c0-.24.08-.36.24-.36h1.87q.7,0,.7-.63t-.65-.6h-1.85c-.2,0-.31-.08-.31-.25v-1.82q0-.64-.61-.65a.58.58,0,0,0-.66.65v1.75q0,.32-.29.32h-.66a.54.54,0,0,0-.4.19.6.6,0,0,0-.18.42.59.59,0,0,0,.18.43.63.63,0,0,0,.46.18h.56c.22,0,.33.12.33.36v4.08a4,4,0,0,0,.42,2.14,2.13,2.13,0,0,0,1.92.87,2.33,2.33,0,0,0,2.11-1A5.07,5.07,0,0,0,186,248q0-.78-.59-.78t-.61.7V249Q184.78,250.46,183.57,250.46Zm-8.3-.55a2.5,2.5,0,0,1-1.79.62,2,2,0,0,1-1.27-.37,1.24,1.24,0,0,1-.47-1q0-1.24,1.93-1.43a7.83,7.83,0,0,0,1.48-.24,2.18,2.18,0,0,0,.79-.48v1.21A2.3,2.3,0,0,1,175.27,249.91Zm4.29,0V248.9q0-.82-.55-.82t-.52.54v.83q0,1.08-.59,1.08t-.58-.59a7.25,7.25,0,0,1,0-1v-3.43q0-3-3.09-3a3.81,3.81,0,0,0-2.29.68,2,2,0,0,0-.94,1.63,1,1,0,0,0,.3.75,1,1,0,0,0,.74.31.9.9,0,0,0,.62-.22.72.72,0,0,0,.25-.56.66.66,0,0,0-.24-.58c-.1-.07-.15-.12-.15-.17s.08-.24.25-.36a2.6,2.6,0,0,1,1.43-.43,2.07,2.07,0,0,1,1.35.4,1.35,1.35,0,0,1,.48,1.1,1.09,1.09,0,0,1-.43,1,5.12,5.12,0,0,1-1.86.43q-1,.12-1.33.2a3.16,3.16,0,0,0-.79.33,2.21,2.21,0,0,0-1.21,2.07,2.23,2.23,0,0,0,.83,1.82,3.35,3.35,0,0,0,2.2.68,3.06,3.06,0,0,0,2.72-1.28,1.57,1.57,0,0,0,1.72,1.21A1.51,1.51,0,0,0,179.56,250Zm-11.51-9.38a1.47,1.47,0,0,0,0-.25q0-.49-.39-.49a3.73,3.73,0,0,0-.51.05,3.76,3.76,0,0,1-.51.05l-.46,0-.41-.05-.32,0q-.68,0-.68.56c0,.36.19.54.58.54l.31,0,.44-.07a.48.48,0,0,1,.48.39,5.3,5.3,0,0,1,.05.68v5.68l0,1.19a7.35,7.35,0,0,1-.09,1.37.36.36,0,0,1-.39.26l-.5-.09-.15,0h-.12c-.39,0-.58.18-.58.53s.24.61.71.61h.08a7.27,7.27,0,0,0,.8-.07,7.29,7.29,0,0,1,.81-.07,8.75,8.75,0,0,1,.91.07c.4,0,.68.07.86.07q.69,0,.7-.56a.51.51,0,0,0-.57-.58l-.27,0a2.23,2.23,0,0,1-.43.08q-.45,0-.46-.87v-5.28Q167.93,241.88,168.05,240.57Zm-5.49,6.53a4,4,0,0,1-.71,2.52,2.33,2.33,0,0,1-1.95.91,2.2,2.2,0,0,1-1.88-.91,4.14,4.14,0,0,1-.67-2.51v-.22a3.93,3.93,0,0,1,.75-2.36,2.28,2.28,0,0,1,1.87-.83Q162.56,243.7,162.56,247.1Zm.27,3.3a4.86,4.86,0,0,0,1.11-3.33,4.77,4.77,0,0,0-1.07-3.28,3.71,3.71,0,0,0-2.92-1.21,3.66,3.66,0,0,0-2.9,1.23,5.62,5.62,0,0,0,0,6.61,3.6,3.6,0,0,0,2.86,1.23A3.72,3.72,0,0,0,162.83,250.4Zm-10.29-4a1,1,0,0,0,.71.26,1.12,1.12,0,0,0,.89-.41,1.54,1.54,0,0,0,.35-1,2.33,2.33,0,0,0-.9-1.88,3.44,3.44,0,0,0-2.26-.74,3.66,3.66,0,0,0-2.92,1.27,5,5,0,0,0-1.1,3.37,4.73,4.73,0,0,0,1.06,3.21,3.52,3.52,0,0,0,2.8,1.22,3.4,3.4,0,0,0,2.6-1.07,3.53,3.53,0,0,0,.65-1,2.54,2.54,0,0,0,.27-1,.64.64,0,0,0-.66-.66.59.59,0,0,0-.54.34q0,.09-.2.68a2.14,2.14,0,0,1-.76,1.17,2.07,2.07,0,0,1-1.3.42,2.18,2.18,0,0,1-1.86-.91,4.14,4.14,0,0,1-.67-2.51,4,4,0,0,1,.71-2.48,2.26,2.26,0,0,1,1.89-.93,2.13,2.13,0,0,1,1.25.34,1.32,1.32,0,0,1,.57.94q-.85.1-.85.78A.81.81,0,0,0,152.54,246.38Zm-7.93.71a4,4,0,0,1-.71,2.52,2.33,2.33,0,0,1-1.95.91,2.2,2.2,0,0,1-1.88-.91,4.14,4.14,0,0,1-.67-2.51v-.22a3.93,3.93,0,0,1,.75-2.36,2.28,2.28,0,0,1,1.87-.83Q144.61,243.7,144.61,247.1Zm.27,3.3a4.86,4.86,0,0,0,1.11-3.33,4.77,4.77,0,0,0-1.07-3.28,3.71,3.71,0,0,0-2.92-1.21,3.66,3.66,0,0,0-2.9,1.23,5.62,5.62,0,0,0,0,6.61,3.6,3.6,0,0,0,2.86,1.23A3.72,3.72,0,0,0,144.88,250.4Zm-15-10q0-.56-.39-.56l-.39,0a3,3,0,0,1-.42,0,6.72,6.72,0,0,1-.7,0l-.58-.05a.75.75,0,0,0-.49.17.51.51,0,0,0-.2.41c0,.36.19.54.58.54a1.89,1.89,0,0,0,.37-.05,1.85,1.85,0,0,1,.36-.05q.37,0,.48.67a29.32,29.32,0,0,1,.1,3.22v3a15.57,15.57,0,0,1-.11,2.12q-.1.52-.37.52a2,2,0,0,1-.42-.07.83.83,0,0,0-.33,0q-.66,0-.66.53t.7.63l.87-.07q.51-.05.8-.05a11,11,0,0,1,1.11.07c.32,0,.56.05.72.05q.75,0,.75-.61a.49.49,0,0,0-.56-.54,1.46,1.46,0,0,0-.38.08,1.49,1.49,0,0,1-.39.08q-.42,0-.51-.83,0-.15,0-1.12v-.32a1.47,1.47,0,0,0,.07-.34v-1.22a3.77,3.77,0,0,1,.44-2,2.19,2.19,0,0,1,2-.92,1.82,1.82,0,0,1,1.74.88,5.29,5.29,0,0,1,.34,2.33v1.65c0,.4,0,.66,0,.8q0,1.1-.53,1.1a.91.91,0,0,1-.29-.05,1.43,1.43,0,0,0-.44-.08.62.62,0,0,0-.42.15.47.47,0,0,0-.18.37.57.57,0,0,0,.2.45.74.74,0,0,0,.51.18q.17,0,.88-.1a5.18,5.18,0,0,1,.68,0,10.22,10.22,0,0,1,1.16.08,5.88,5.88,0,0,0,.65.05q.82,0,.82-.58t-.63-.58l-.27,0a1.23,1.23,0,0,1-.39.1q-.37,0-.44-.85,0-.1,0-1.1V245.6a2.87,2.87,0,0,0-.89-2.19,3.73,3.73,0,0,0-3.68-.59,4.59,4.59,0,0,0-1.25.89l.07-3.31Zm-5.87,6a1,1,0,0,0,.71.26,1.12,1.12,0,0,0,.89-.41,1.54,1.54,0,0,0,.35-1,2.33,2.33,0,0,0-.9-1.88,3.44,3.44,0,0,0-2.26-.74,3.66,3.66,0,0,0-2.92,1.27,5,5,0,0,0-1.1,3.37,4.73,4.73,0,0,0,1.06,3.21,3.52,3.52,0,0,0,2.8,1.22,3.4,3.4,0,0,0,2.6-1.07,3.53,3.53,0,0,0,.65-1,2.54,2.54,0,0,0,.27-1,.64.64,0,0,0-.66-.66.59.59,0,0,0-.54.34q0,.09-.2.68a2.14,2.14,0,0,1-.76,1.17,2.07,2.07,0,0,1-1.3.42,2.18,2.18,0,0,1-1.86-.91,4.14,4.14,0,0,1-.67-2.51,4,4,0,0,1,.71-2.48,2.26,2.26,0,0,1,1.89-.93A2.13,2.13,0,0,1,124,244a1.32,1.32,0,0,1,.57.94q-.85.1-.85.78A.81.81,0,0,0,124,246.38Zm-18.2-3.52-.46,0a2.35,2.35,0,0,1-.48,0l-.63-.07-.17,0q-.76,0-.76.56c0,.36.21.54.62.54l.35,0,.36,0a.4.4,0,0,1,.39.21,2.18,2.18,0,0,1,.15.79v4.54q0,1-.54,1a2.13,2.13,0,0,1-.46-.05l-.32-.05a.48.48,0,0,0-.55.54q0,.58.71.58l.85-.08a8.68,8.68,0,0,1,1-.07,6.18,6.18,0,0,1,.83.05q.75.1.88.1.68,0,.68-.55t-.53-.57a1.67,1.67,0,0,0-.39.06,1.68,1.68,0,0,1-.37.06.37.37,0,0,1-.37-.27,3.39,3.39,0,0,1-.1-1v-2.26a4.59,4.59,0,0,1,.41-2.26,2.11,2.11,0,0,1,1.95-1,2.16,2.16,0,0,1,1.27.39,1.64,1.64,0,0,1,.66,1,6,6,0,0,1,.08,1.24v3.2q0,.93-.45.93l-.42-.07a1.57,1.57,0,0,0-.31,0q-.59,0-.59.53t.68.6l.9-.1a6.51,6.51,0,0,1,.73,0,8.32,8.32,0,0,1,1,.07,7.34,7.34,0,0,0,.78.07.75.75,0,0,0,.49-.17.53.53,0,0,0,.2-.43.5.5,0,0,0-.16-.37.54.54,0,0,0-.38-.15l-.35,0a2.47,2.47,0,0,1-.4,0c-.25,0-.4-.19-.46-.58q0-.14,0-.87v-3.23a4,4,0,0,0-.24-1.51,2.45,2.45,0,0,0-1.11-1.16,3.44,3.44,0,0,0-1.73-.47,3.29,3.29,0,0,0-2.72,1.29v-.48Q106.27,242.87,105.78,242.87Zm-6.95,7a2.5,2.5,0,0,1-1.79.62,2,2,0,0,1-1.27-.37,1.24,1.24,0,0,1-.47-1q0-1.24,1.93-1.43a7.83,7.83,0,0,0,1.48-.24,2.18,2.18,0,0,0,.79-.48v1.21A2.3,2.3,0,0,1,98.84,249.91Zm4.29,0V248.9q0-.82-.55-.82t-.52.54v.83q0,1.08-.59,1.08t-.58-.59a7.25,7.25,0,0,1,0-1v-3.43q0-3-3.09-3a3.81,3.81,0,0,0-2.29.68,2,2,0,0,0-.94,1.63,1,1,0,0,0,.3.75,1,1,0,0,0,.74.31.9.9,0,0,0,.62-.22.72.72,0,0,0,.25-.56.66.66,0,0,0-.24-.58c-.1-.07-.15-.12-.15-.17s.08-.24.25-.36a2.6,2.6,0,0,1,1.43-.43,2.07,2.07,0,0,1,1.35.4,1.35,1.35,0,0,1,.48,1.1,1.09,1.09,0,0,1-.43,1,5.12,5.12,0,0,1-1.86.43q-1,.12-1.33.2a3.16,3.16,0,0,0-.79.33,2.21,2.21,0,0,0-1.21,2.07,2.23,2.23,0,0,0,.83,1.82,3.35,3.35,0,0,0,2.2.68,3.06,3.06,0,0,0,2.72-1.28,1.57,1.57,0,0,0,1.72,1.21A1.51,1.51,0,0,0,103.13,250Zm-11.94.74a1.17,1.17,0,0,1,0,2.2,4.74,4.74,0,0,1-2.15.41,4.47,4.47,0,0,1-2.06-.4,1.21,1.21,0,0,1-.76-1.1A1.23,1.23,0,0,1,87,250.7a4.68,4.68,0,0,1,2.14-.41A4.5,4.5,0,0,1,91.19,250.69Zm-.75-6.52a1.53,1.53,0,0,1,.54,1.21,1.48,1.48,0,0,1-.54,1.17,2.05,2.05,0,0,1-1.39.46,1.91,1.91,0,0,1-1.33-.46,1.55,1.55,0,0,1-.51-1.21v-.1a1.55,1.55,0,0,1,.58-1.1,1.92,1.92,0,0,1,1.28-.44A2,2,0,0,1,90.45,244.17Zm-3.65-.83a2.43,2.43,0,0,0-.89,1.92,2.27,2.27,0,0,0,.44,1.39A1.68,1.68,0,0,0,85,248.29q0,1.09,1.39,1.63a2,2,0,0,0-1.55,2,2.1,2.1,0,0,0,1.11,1.87,5.88,5.88,0,0,0,3.07.68,5.79,5.79,0,0,0,3.1-.72,2.21,2.21,0,0,0,1.15-2,2,2,0,0,0-.54-1.37,3.19,3.19,0,0,0-1.48-.9,9.29,9.29,0,0,0-2.62-.31H88q-1.79,0-1.79-.88a.73.73,0,0,1,.19-.5.56.56,0,0,1,.43-.21,1.21,1.21,0,0,1,.46.12,4.81,4.81,0,0,0,1.94.44,3.23,3.23,0,0,0,2.22-.78,2.5,2.5,0,0,0,.89-2A2.68,2.68,0,0,0,91,243.07q0-1.12.92-1.12a.85.85,0,0,1,.7.34.77.77,0,0,0-.37.56.58.58,0,0,0,.2.44.68.68,0,0,0,.48.19.81.81,0,0,0,.62-.29,1,1,0,0,0,.26-.7,1.26,1.26,0,0,0-.53-1A2.08,2.08,0,0,0,92,241q-1.85,0-1.94,1.67a4.36,4.36,0,0,0-1-.14A3.32,3.32,0,0,0,86.8,243.34Zm-8.44,1a2.56,2.56,0,0,1,1.73-.69,2.22,2.22,0,0,1,1.6.66,2.11,2.11,0,0,1,.68,1.56q0,.24-.36.24H78q-.37,0-.37-.24A2,2,0,0,1,78.36,244.39Zm4.35-.74a3.51,3.51,0,0,0-2.63-1.07,3.69,3.69,0,0,0-2.92,1.29A5,5,0,0,0,76,247.23a4.7,4.7,0,0,0,1.05,3.22,3.59,3.59,0,0,0,2.84,1.2,4.09,4.09,0,0,0,2.55-.86,2.46,2.46,0,0,0,1.12-2,.56.56,0,0,0-.63-.65.53.53,0,0,0-.56.41l-.15.49a1.86,1.86,0,0,1-.81,1,2.43,2.43,0,0,1-1.37.41,2.46,2.46,0,0,1-1.9-.85,3.06,3.06,0,0,1-.76-2.12.25.25,0,0,1,.07-.2.48.48,0,0,1,.29-.06h5.41q.41,0,.49-.14a2.1,2.1,0,0,0,.08-.79A3.75,3.75,0,0,0,82.71,243.65Zm-14.25.84a1.25,1.25,0,0,1-.07-.34c0-.16.09-.24.27-.24a2.43,2.43,0,0,1,.41.08,1.32,1.32,0,0,0,.29,0q.65,0,.65-.55t-.75-.59l-.24,0-.56.07a8,8,0,0,1-.85.07,5.66,5.66,0,0,1-.71,0l-.71-.09-.2,0q-.78,0-.78.61c0,.35.19.53.56.53a1.87,1.87,0,0,0,.36-.05,1.85,1.85,0,0,1,.36-.05q.32,0,.56.63l2.45,6.32a1,1,0,0,0,1,.79,1.07,1.07,0,0,0,1-.78l2.4-6.13q.32-.82.63-.82a1.85,1.85,0,0,1,.36.06.67.67,0,0,0,.27,0q.59,0,.59-.57t-.73-.57a6.58,6.58,0,0,0-.68.06,10.62,10.62,0,0,1-1.12.1,1.76,1.76,0,0,1-.49-.07l-.71-.07h-.27q-.82,0-.82.59a.49.49,0,0,0,.56.55,2.27,2.27,0,0,0,.4-.05,2.27,2.27,0,0,1,.4-.05q.36,0,.36.37a2.59,2.59,0,0,1-.17.61l-1.92,5.3-2-5.33ZM57.14,250a2.46,2.46,0,0,1-3.46-.39,4.11,4.11,0,0,1-.7-2.54,4,4,0,0,1,.68-2.46,2.21,2.21,0,0,1,1.88-.9,2.41,2.41,0,0,1,1.57.56,2.13,2.13,0,0,1,.74,1.33,9.07,9.07,0,0,1,.09,1.55,12.53,12.53,0,0,1-.07,1.45A2.14,2.14,0,0,1,57.14,250Zm-4.5-6.19a5.72,5.72,0,0,0,0,6.59,3.44,3.44,0,0,0,2.78,1.26A3.06,3.06,0,0,0,58,250.45v.37c0,.41.15.61.46.61a1.49,1.49,0,0,0,.36-.05l.39,0,.52,0,.52,0q.77,0,.77-.58t-.64-.56l-.38,0a1.32,1.32,0,0,1-.35,0,.39.39,0,0,1-.42-.27,6.76,6.76,0,0,1-.1-1.4v-4.51q0-.44,0-1.29.05-1.21.05-1.31c0-.57,0-.87,0-.9v-.19q0-.68-.48-.68a3.26,3.26,0,0,0-.44,0l-.44,0-.56-.05-.49,0q-.85,0-.85.56t.63.54a2,2,0,0,0,.38-.05,2,2,0,0,1,.38-.05q.39,0,.48.53a5.68,5.68,0,0,1,0,.83v1.72a2.78,2.78,0,0,0-2.52-1.31A3.44,3.44,0,0,0,52.64,243.81Zm-9.76-.94-.46,0a2.35,2.35,0,0,1-.48,0l-.63-.07-.17,0q-.76,0-.76.56c0,.36.21.54.62.54l.35,0,.36,0a.4.4,0,0,1,.39.21,2.18,2.18,0,0,1,.15.79v4.54q0,1-.54,1a2.13,2.13,0,0,1-.46-.05l-.32-.05a.48.48,0,0,0-.55.54q0,.58.71.58l.85-.08a8.68,8.68,0,0,1,1-.07,6.18,6.18,0,0,1,.83.05q.75.1.88.1.68,0,.68-.55t-.53-.57a1.67,1.67,0,0,0-.39.06,1.68,1.68,0,0,1-.37.06.37.37,0,0,1-.37-.27,3.39,3.39,0,0,1-.1-1v-2.26a4.59,4.59,0,0,1,.41-2.26,2.11,2.11,0,0,1,1.95-1,2.16,2.16,0,0,1,1.27.39,1.64,1.64,0,0,1,.66,1,6,6,0,0,1,.08,1.24v3.2q0,.93-.45.93l-.42-.07a1.57,1.57,0,0,0-.31,0q-.59,0-.59.53t.68.6l.9-.1a6.51,6.51,0,0,1,.73,0,8.32,8.32,0,0,1,1,.07,7.34,7.34,0,0,0,.78.07.75.75,0,0,0,.49-.17.53.53,0,0,0,.2-.43.5.5,0,0,0-.16-.37.54.54,0,0,0-.38-.15l-.35,0a2.47,2.47,0,0,1-.4,0c-.25,0-.4-.19-.46-.58q0-.14,0-.87v-3.23a4,4,0,0,0-.24-1.51A2.45,2.45,0,0,0,47.83,243a3.44,3.44,0,0,0-1.73-.47,3.29,3.29,0,0,0-2.72,1.29v-.48Q43.37,242.87,42.88,242.87Zm-6.95,7a2.5,2.5,0,0,1-1.79.62,2,2,0,0,1-1.27-.37,1.24,1.24,0,0,1-.47-1q0-1.24,1.93-1.43a7.83,7.83,0,0,0,1.48-.24,2.18,2.18,0,0,0,.79-.48v1.21A2.3,2.3,0,0,1,35.94,249.91Zm4.29,0V248.9q0-.82-.55-.82t-.52.54v.83q0,1.08-.59,1.08t-.58-.59a7.25,7.25,0,0,1,0-1v-3.43q0-3-3.09-3a3.81,3.81,0,0,0-2.29.68,2,2,0,0,0-.94,1.63,1,1,0,0,0,.3.75,1,1,0,0,0,.74.31.9.9,0,0,0,.62-.22.72.72,0,0,0,.25-.56.66.66,0,0,0-.24-.58c-.1-.07-.15-.12-.15-.17s.08-.24.25-.36a2.6,2.6,0,0,1,1.43-.43,2.07,2.07,0,0,1,1.35.4,1.35,1.35,0,0,1,.48,1.1,1.09,1.09,0,0,1-.43,1,5.12,5.12,0,0,1-1.86.43q-1,.12-1.33.2a3.16,3.16,0,0,0-.79.33A2.21,2.21,0,0,0,31,249.16a2.23,2.23,0,0,0,.83,1.82,3.35,3.35,0,0,0,2.2.68,3.06,3.06,0,0,0,2.72-1.28,1.57,1.57,0,0,0,1.72,1.21A1.51,1.51,0,0,0,40.23,250Z"/></g></g></svg>