<svg xmlns="http://www.w3.org/2000/svg" viewBox="0 0 273 273"><defs><style>.cls-1{fill:#fff;}.cls-2{fill:#f2ebe2;}.cls-3{fill:#ce2028;}.cls-4{fill:#82602e;}.cls-5{fill:#b59158;}.cls-6{fill:#c19d67;}.cls-7{fill:#231f20;}</style></defs><title>coffee</title><g id="Layer_2" data-name="Layer 2"><g id="Layer_1-2" data-name="Layer 1"><rect class="cls-1" width="273" height="273"/><circle class="cls-2" cx="136.5" cy="124.64" r="58.87"/><path class="cls-3" d="M135.67,132a2.69,2.69,0,0,0-1.68.51,2.69,2.69,0,0,0-4.44,2c-.06,1.49,4.31,6.32,4.31,6.32s4.35-4.5,4.41-6A2.7,2.7,0,0,0,135.67,132Z"/><path class="cls-4" d="M151.52,130.64s-18.58,31.77-22.41,34.84c0,0-6.41,9.48-7.09-2.16,0,0,1.63-30.66,4-40.44S158.65,127.79,151.52,130.64Z"/><polygon class="cls-5" points="149.45 130.95 148.12 133.06 145.16 128.39 149.45 130.95"/><polygon class="cls-5" points="126.91 128.17 127.87 121.88 138.11 123.27 135.74 127.42 128.34 128.6 126.91 128.17"/><polygon class="cls-5" points="146.87 135.37 142.2 128.14 138.33 128.43 130.74 130.17 141.56 140.22 143.95 140.71 146.87 135.37"/><path class="cls-5" d="M138.64,139.85s-7.47-8.08-11.35-8.44l-.71.2-1.24,8.14,1.37,1.47S136.25,140,138.64,139.85Z"/><path class="cls-5" d="M141.74,144.14l-.89-1.56s-7.74-.94-12,.57c0,0,6.14,7.62,6.07,9l1.83.15Z"/><path class="cls-5" d="M132.68,152.2s-5.72-8.32-6.47-8.37A2.47,2.47,0,0,0,125,144s-1,8.93-.69,9.42S126.41,152.46,132.68,152.2Z"/><path class="cls-5" d="M134,156.11l-.5-1.44a27.18,27.18,0,0,0-9.1,1.34s-1.09,9.18.32,10.55S134,156.11,134,156.11Z"/><path class="cls-6" d="M119.07,107.33c.8-2.63,4.14-4,8-3.56.05-.2.11-.41.17-.61,2.68-8.8,12.74-13.54,22.48-10.58s15.46,12.5,12.78,21.3a15.19,15.19,0,0,1-1.56,3.48c2.84,2.19,4.28,5.34,3.41,8.22-1.24,4.07-6.64,6-12.07,4.37a13.5,13.5,0,0,1-2.87-1.25,9.52,9.52,0,0,1-8.72,1.6,9.67,9.67,0,0,1-4.92-3.41,6.34,6.34,0,0,1-3-3.78,13.64,13.64,0,0,1-5.82-.53c-5-1.52-8.28-5.24-7.35-8.31a3.88,3.88,0,0,1,1.13-1.75C119.22,111,118.54,109.06,119.07,107.33Z"/><path class="cls-3" d="M131.56,132.09a3,3,0,0,1,1.86.67,3,3,0,0,1,4.87,2.43c0,1.67-5.18,6.86-5.18,6.86s-4.63-5.28-4.62-7A3,3,0,0,1,131.56,132.09Z"/><path class="cls-7" d="M215.15,30.83A2.15,2.15,0,0,1,216.9,30a2.19,2.19,0,0,1,1.46.53,1.57,1.57,0,0,1,.62,1.23.47.47,0,0,1-.09.34.81.81,0,0,1-.5.09h-3q-.49,0-.57-.11a.43.43,0,0,1-.08-.27A1.63,1.63,0,0,1,215.15,30.83Zm6.44-2.08A6.33,6.33,0,0,0,217,27.1a6.54,6.54,0,0,0-5,2,7.36,7.36,0,0,0-1.9,5.28A7.06,7.06,0,0,0,212,39.57a6.88,6.88,0,0,0,5.13,1.94,7.59,7.59,0,0,0,4.17-1.09,3.14,3.14,0,0,0,1.71-2.66,1.51,1.51,0,0,0-.5-1.16,1.86,1.86,0,0,0-1.31-.46,2.41,2.41,0,0,0-1.78.86,3.33,3.33,0,0,1-2.32,1.24,2.44,2.44,0,0,1-1.84-.76,2.61,2.61,0,0,1-.73-1.89q0-.38.12-.47a1.19,1.19,0,0,1,.61-.09h6.59a1.34,1.34,0,0,0,1.12-.38,2.74,2.74,0,0,0,.28-1.51A5.82,5.82,0,0,0,221.59,28.75Zm-21.18,2.08a2.15,2.15,0,0,1,1.75-.84,2.19,2.19,0,0,1,1.46.53,1.57,1.57,0,0,1,.62,1.23.47.47,0,0,1-.09.34.81.81,0,0,1-.5.09h-3q-.49,0-.57-.11a.43.43,0,0,1-.08-.27A1.63,1.63,0,0,1,200.41,30.83Zm6.44-2.08a6.33,6.33,0,0,0-4.58-1.65,6.54,6.54,0,0,0-5,2,7.36,7.36,0,0,0-1.9,5.28,7.06,7.06,0,0,0,1.92,5.18,6.88,6.88,0,0,0,5.13,1.94,7.59,7.59,0,0,0,4.17-1.09,3.14,3.14,0,0,0,1.71-2.66,1.51,1.51,0,0,0-.5-1.16,1.86,1.86,0,0,0-1.31-.46,2.41,2.41,0,0,0-1.78.86,3.33,3.33,0,0,1-2.32,1.24,2.44,2.44,0,0,1-1.84-.76,2.61,2.61,0,0,1-.73-1.89q0-.38.12-.47a1.19,1.19,0,0,1,.61-.09h6.59a1.34,1.34,0,0,0,1.12-.38,2.74,2.74,0,0,0,.28-1.51A5.82,5.82,0,0,0,206.85,28.75ZM193.67,27a1.82,1.82,0,0,0,1.2.39,2.12,2.12,0,0,0,1.49-.54,1.75,1.75,0,0,0,.59-1.35,2.39,2.39,0,0,0-1.17-2.08,5.53,5.53,0,0,0-3.12-.78,5.89,5.89,0,0,0-3.71,1.08,3.75,3.75,0,0,0-1.47,2.94,1.3,1.3,0,0,1-.16.72.83.83,0,0,1-.59.15h-.49q-1.49,0-1.49,1.57a1.25,1.25,0,0,0,1.43,1.4h.65a.83.83,0,0,1,.35.05q.24.08.24.65v5.37q0,1.51-.49,1.51a1.39,1.39,0,0,1-.38-.09,1.47,1.47,0,0,0-.49-.09q-1.32,0-1.32,1.51a1.86,1.86,0,0,0,.46,1.31,1.57,1.57,0,0,0,1.21.5q.27,0,1.43-.14a16.73,16.73,0,0,1,1.84-.08q1,0,1.57.05l1.65.16a1.53,1.53,0,0,0,1.16-.49,1.74,1.74,0,0,0,.46-1.24q0-1.48-1.27-1.49a2.36,2.36,0,0,0-.62.08l-.49.05q-.49,0-.57-.57a7.34,7.34,0,0,1,0-.95V31.15q0-.7.59-.7H193a1.32,1.32,0,0,0,1.49-1.51q0-1.46-1.57-1.46h-.81q-.59,0-.59-.51v-.54q0-1.27,1.32-1.27a1.31,1.31,0,0,1,.54.11,1.54,1.54,0,0,0-.22.7A1.23,1.23,0,0,0,193.67,27Zm-11.23,0a1.82,1.82,0,0,0,1.2.39,2.12,2.12,0,0,0,1.49-.54,1.75,1.75,0,0,0,.59-1.35,2.39,2.39,0,0,0-1.17-2.08,5.53,5.53,0,0,0-3.12-.78,5.89,5.89,0,0,0-3.71,1.08,3.75,3.75,0,0,0-1.47,2.94,1.3,1.3,0,0,1-.16.72.83.83,0,0,1-.59.15H175q-1.49,0-1.49,1.57a1.25,1.25,0,0,0,1.43,1.4h.65a.83.83,0,0,1,.35.05q.24.08.24.65v5.37q0,1.51-.49,1.51a1.39,1.39,0,0,1-.38-.09,1.47,1.47,0,0,0-.49-.09q-1.32,0-1.32,1.51a1.86,1.86,0,0,0,.46,1.31,1.57,1.57,0,0,0,1.21.5q.27,0,1.43-.14a16.73,16.73,0,0,1,1.84-.08q1,0,1.57.05l1.65.16a1.53,1.53,0,0,0,1.16-.49,1.74,1.74,0,0,0,.46-1.24Q183.29,38,182,38a2.36,2.36,0,0,0-.62.08l-.49.05q-.49,0-.57-.57a7.34,7.34,0,0,1,0-.95V31.15q0-.7.59-.7h.89a1.32,1.32,0,0,0,1.49-1.51q0-1.46-1.57-1.46h-.81q-.59,0-.59-.51v-.54q0-1.27,1.32-1.27a1.31,1.31,0,0,1,.54.11,1.54,1.54,0,0,0-.22.7A1.23,1.23,0,0,0,182.44,27ZM168,34.31q0,3.89-2.51,3.89a2.2,2.2,0,0,1-1.93-1,5.1,5.1,0,0,1-.69-2.86,5.11,5.11,0,0,1,.69-2.85,2.14,2.14,0,0,1,1.88-1Q168,30.42,168,34.31Zm2.55,5.26a7.65,7.65,0,0,0,1.8-5.4A7.1,7.1,0,0,0,170.51,29a6.76,6.76,0,0,0-5.06-1.89,6.67,6.67,0,0,0-5.08,1.9,7.39,7.39,0,0,0-1.81,5.31,7.35,7.35,0,0,0,1.82,5.32,6.85,6.85,0,0,0,5.17,1.89A6.48,6.48,0,0,0,170.56,39.57Zm-21-13a5.4,5.4,0,0,0,.85.09,1.25,1.25,0,0,0,1-.51,2,2,0,0,0,.41-1.3,1.81,1.81,0,0,0-1.94-1.94,17,17,0,0,0-1.86.16l-.86.08-.89,0-1.12,0L144,23.1q-1.94-.16-2.32-.16a1.75,1.75,0,0,0-2,2,1.94,1.94,0,0,0,.42,1.27,1.29,1.29,0,0,0,1,.51,3.16,3.16,0,0,0,.66-.09,3.17,3.17,0,0,1,.63-.09q.73,0,.73,1.81v7.48q0,1.84-.73,1.84a3.12,3.12,0,0,1-.63-.09,3.19,3.19,0,0,0-.63-.09,1.33,1.33,0,0,0-1.07.5,1.93,1.93,0,0,0-.42,1.28,2,2,0,0,0,.53,1.43,1.77,1.77,0,0,0,1.36.57c.27,0,.54,0,.82,0l.9-.11q.49-.07,1.07-.11t1.31,0q4.86,0,7.45.16l1.51.08,1.11,0q1.75,0,1.75-1.48s0-.16,0-.37,0-.49-.08-.85c0-.18,0-.36,0-.54s0-.36,0-.54,0-.33,0-.57,0-.5.08-.81.06-.58.08-.81,0-.43,0-.59a1.9,1.9,0,0,0-2.16-2.13,2.34,2.34,0,0,0-1.62.58,1.86,1.86,0,0,0-.65,1.44,5.67,5.67,0,0,0,.14,1.05,3.83,3.83,0,0,1,.11.86q0,1.35-2.19,1.35h-1.86l-.41,0a1.07,1.07,0,0,1-.92-.81,6.28,6.28,0,0,1-.08-1.32V28q0-1.48.86-1.48A5.5,5.5,0,0,1,149.58,26.6Zm-26.18,4.23a2.15,2.15,0,0,1,1.75-.84,2.19,2.19,0,0,1,1.46.53,1.57,1.57,0,0,1,.62,1.23.47.47,0,0,1-.09.34.81.81,0,0,1-.5.09h-3q-.49,0-.57-.11a.43.43,0,0,1-.08-.27A1.63,1.63,0,0,1,123.41,30.83Zm6.44-2.08a6.33,6.33,0,0,0-4.58-1.65,6.54,6.54,0,0,0-5,2,7.36,7.36,0,0,0-1.9,5.28,7.06,7.06,0,0,0,1.92,5.18,6.88,6.88,0,0,0,5.13,1.94,7.59,7.59,0,0,0,4.17-1.09,3.14,3.14,0,0,0,1.71-2.66,1.51,1.51,0,0,0-.5-1.16,1.86,1.86,0,0,0-1.31-.46,2.41,2.41,0,0,0-1.78.86,3.33,3.33,0,0,1-2.32,1.24,2.44,2.44,0,0,1-1.84-.76,2.61,2.61,0,0,1-.73-1.89q0-.38.12-.47a1.19,1.19,0,0,1,.61-.09h6.59a1.34,1.34,0,0,0,1.12-.38,2.74,2.74,0,0,0,.28-1.51A5.82,5.82,0,0,0,129.85,28.75Zm-21.18,2.08a2.15,2.15,0,0,1,1.75-.84,2.19,2.19,0,0,1,1.46.53,1.57,1.57,0,0,1,.62,1.23.47.47,0,0,1-.09.34.81.81,0,0,1-.5.09h-3q-.49,0-.57-.11a.43.43,0,0,1-.08-.27A1.63,1.63,0,0,1,108.66,30.83Zm6.44-2.08a6.33,6.33,0,0,0-4.58-1.65,6.54,6.54,0,0,0-5,2,7.36,7.36,0,0,0-1.9,5.28,7.06,7.06,0,0,0,1.92,5.18,6.88,6.88,0,0,0,5.13,1.94,7.59,7.59,0,0,0,4.17-1.09,3.14,3.14,0,0,0,1.71-2.66,1.51,1.51,0,0,0-.5-1.16,1.86,1.86,0,0,0-1.31-.46A2.41,2.41,0,0,0,113,37a3.33,3.33,0,0,1-2.32,1.24,2.44,2.44,0,0,1-1.84-.76,2.61,2.61,0,0,1-.73-1.89q0-.38.12-.47a1.19,1.19,0,0,1,.61-.09h6.59a1.34,1.34,0,0,0,1.12-.38,2.74,2.74,0,0,0,.28-1.51A5.82,5.82,0,0,0,115.1,28.75ZM101.93,27a1.82,1.82,0,0,0,1.2.39,2.12,2.12,0,0,0,1.49-.54,1.75,1.75,0,0,0,.59-1.35A2.39,2.39,0,0,0,104,23.37a5.53,5.53,0,0,0-3.12-.78,5.89,5.89,0,0,0-3.71,1.08,3.75,3.75,0,0,0-1.47,2.94,1.3,1.3,0,0,1-.16.72.83.83,0,0,1-.59.15h-.49Q93,27.48,93,29a1.25,1.25,0,0,0,1.43,1.4h.65a.83.83,0,0,1,.35.05q.24.08.24.65v5.37q0,1.51-.49,1.51a1.39,1.39,0,0,1-.38-.09,1.47,1.47,0,0,0-.49-.09Q93,37.85,93,39.36a1.86,1.86,0,0,0,.46,1.31,1.57,1.57,0,0,0,1.21.5q.27,0,1.43-.14A16.73,16.73,0,0,1,97.95,41q1,0,1.57.05l1.65.16a1.53,1.53,0,0,0,1.16-.49,1.74,1.74,0,0,0,.46-1.24q0-1.48-1.27-1.49a2.36,2.36,0,0,0-.62.08l-.49.05q-.49,0-.57-.57a7.34,7.34,0,0,1,0-.95V31.15q0-.7.59-.7h.89a1.32,1.32,0,0,0,1.49-1.51q0-1.46-1.57-1.46h-.81q-.59,0-.59-.51v-.54q0-1.27,1.32-1.27a1.31,1.31,0,0,1,.54.11,1.54,1.54,0,0,0-.22.7A1.23,1.23,0,0,0,101.93,27ZM90.7,27a1.82,1.82,0,0,0,1.2.39,2.12,2.12,0,0,0,1.49-.54A1.75,1.75,0,0,0,94,25.45a2.39,2.39,0,0,0-1.17-2.08,5.53,5.53,0,0,0-3.12-.78A5.89,5.89,0,0,0,86,23.67a3.75,3.75,0,0,0-1.47,2.94,1.3,1.3,0,0,1-.16.72.83.83,0,0,1-.59.15h-.49q-1.49,0-1.49,1.57a1.25,1.25,0,0,0,1.43,1.4h.65a.83.83,0,0,1,.35.05q.24.08.24.65v5.37Q84.45,38,84,38a1.39,1.39,0,0,1-.38-.09,1.47,1.47,0,0,0-.49-.09q-1.32,0-1.32,1.51a1.86,1.86,0,0,0,.46,1.31,1.57,1.57,0,0,0,1.21.5q.27,0,1.43-.14A16.73,16.73,0,0,1,86.71,41q1,0,1.57.05l1.65.16a1.53,1.53,0,0,0,1.16-.49,1.74,1.74,0,0,0,.46-1.24q0-1.48-1.27-1.49a2.36,2.36,0,0,0-.62.08l-.49.05q-.49,0-.57-.57a7.34,7.34,0,0,1,0-.95V31.15q0-.7.59-.7h.89a1.32,1.32,0,0,0,1.49-1.51q0-1.46-1.57-1.46h-.81q-.59,0-.59-.51v-.54q0-1.27,1.32-1.27a1.31,1.31,0,0,1,.54.11,1.54,1.54,0,0,0-.22.7A1.23,1.23,0,0,0,90.7,27ZM76.27,34.31q0,3.89-2.51,3.89a2.2,2.2,0,0,1-1.93-1,5.1,5.1,0,0,1-.69-2.86,5.11,5.11,0,0,1,.69-2.85,2.14,2.14,0,0,1,1.88-1Q76.27,30.42,76.27,34.31Zm2.55,5.26a7.65,7.65,0,0,0,1.8-5.4A7.1,7.1,0,0,0,78.76,29,6.76,6.76,0,0,0,73.7,27.1,6.67,6.67,0,0,0,68.62,29a7.39,7.39,0,0,0-1.81,5.31,7.35,7.35,0,0,0,1.82,5.32,6.85,6.85,0,0,0,5.17,1.89A6.48,6.48,0,0,0,78.82,39.57ZM51.75,25.14A11,11,0,0,0,49.7,32.2,9.81,9.81,0,0,0,52,39.06a8,8,0,0,0,6.22,2.51,8.14,8.14,0,0,0,5.25-1.63,5.14,5.14,0,0,0,2-4.2,3,3,0,0,0-.66-2.05A2.26,2.26,0,0,0,63,32.93a2.09,2.09,0,0,0-1.46.51A1.65,1.65,0,0,0,61,34.79l0,1a1.64,1.64,0,0,1-.73,1.44,3.21,3.21,0,0,1-1.94.55A3.08,3.08,0,0,1,55.6,36.4a8.23,8.23,0,0,1-.88-4.33q0-5.72,3.62-5.72a3.06,3.06,0,0,1,1.92.58A1.71,1.71,0,0,1,61,28.4l0,.84q-.05,1.7,2,1.7a2.37,2.37,0,0,0,1.58-.51,1.68,1.68,0,0,0,.61-1.35A8.27,8.27,0,0,0,65,28,8.41,8.41,0,0,1,65,27a14.76,14.76,0,0,1,.13-1.59,9.41,9.41,0,0,0,.08-1,1.62,1.62,0,0,0-1.7-1.7q-1.62,0-1.62,1.51a.92.92,0,0,0,0,.27,6.22,6.22,0,0,0-4.51-1.89A6.79,6.79,0,0,0,51.75,25.14Z"/><path class="cls-7" d="M54.31,213.53q.58,0,.58-1.05v-4.9q0-1.14-.83-1.14t-.83.58a3.37,3.37,0,0,0,.06.52,3.5,3.5,0,0,1,.06.52q0,1.51-1.28,1.51a1.18,1.18,0,0,1-.93-.38,1.49,1.49,0,0,1-.34-1q0-.22.07-.8a7.11,7.11,0,0,0,.05-.82q0-.2-.05-.83c0-.28,0-.51,0-.68a.66.66,0,0,1,.75-.75c.26,0,.59,0,1,.05q1.36.12,3.81.12t3.83-.12c.4,0,.72-.05,1-.05a.67.67,0,0,1,.77.75c0,.17,0,.42,0,.76s0,.59,0,.76,0,.45.05.82.07.75.07.82a1.44,1.44,0,0,1-.35,1,1.21,1.21,0,0,1-.93.37q-1.28,0-1.28-1.46a4,4,0,0,1,.05-.54,3.77,3.77,0,0,0,.05-.51q0-.61-.75-.61a.84.84,0,0,0-.7.25,1.45,1.45,0,0,0-.2.88v4.9q0,1.05.58,1.05a3.71,3.71,0,0,0,.55-.06,3.84,3.84,0,0,1,.55-.06.9.9,0,0,1,1,1q0,1.34-1.28,1.34-.49,0-1.17-.07-1-.1-1.75-.1t-1.75.1a11.48,11.48,0,0,1-1.17.07,1.11,1.11,0,0,1-1.28-1.24q0-1.12,1-1.12a3.85,3.85,0,0,1,.55.06A3.7,3.7,0,0,0,54.31,213.53Z"/><path class="cls-7" d="M70.14,216a1.83,1.83,0,0,1-1.87-1.12A4,4,0,0,1,65.45,216a3.12,3.12,0,0,1-2.14-.71,2.38,2.38,0,0,1-.8-1.88,2.2,2.2,0,0,1,1.55-2.31,11,11,0,0,1,1.53-.37,5.19,5.19,0,0,0,1.64-.47.88.88,0,0,0,.43-.81.81.81,0,0,0-.33-.65,1.29,1.29,0,0,0-.83-.26q-.56,0-.56.36a1.77,1.77,0,0,0,0,.24v.07a1,1,0,0,1-.4.8,1.53,1.53,0,0,1-1,.32,1.59,1.59,0,0,1-1.12-.41,1.33,1.33,0,0,1-.44-1,1.6,1.6,0,0,1,1-1.44,5.63,5.63,0,0,1,2.67-.53,5.28,5.28,0,0,1,2.74.56,2.48,2.48,0,0,1,1,2.28v3.52c0,.36.09.54.27.54l.25,0,.12,0a.93.93,0,0,1,.93.93,1.08,1.08,0,0,1-.5.92A2.16,2.16,0,0,1,70.14,216Zm-2.47-3.64V212a15.42,15.42,0,0,1-1.5.42q-.94.24-.94.73,0,.78.92.78A1.36,1.36,0,0,0,67.68,212.34Z"/><path class="cls-7" d="M76.35,204.89v5.78l.8-.7.39-.34c.31-.26.46-.46.46-.61a.38.38,0,0,0-.15-.27l-.27-.26a.74.74,0,0,1-.22-.58q0-.78.88-.78.31,0,.93.07a9.51,9.51,0,0,0,1,.07q.49,0,1.22-.07l.76-.07a.89.89,0,0,1,1,1q0,1-.78,1a1.7,1.7,0,0,1-.37-.05,1.64,1.64,0,0,0-.34-.05,1.57,1.57,0,0,0-.75.37l-.71.53q-.44.32-.44.51a.35.35,0,0,0,.07.19l.15.22L81.26,213q.54.87.87.87a1,1,0,0,0,.27-.05l.36-.05q.77,0,.77,1t-1,1.07a7.33,7.33,0,0,1-.82-.07,7.33,7.33,0,0,0-.82-.07,6,6,0,0,0-.9.07,4.85,4.85,0,0,1-.65.07.79.79,0,0,1-.59-.27.91.91,0,0,1-.25-.65,1.46,1.46,0,0,1,.2-.6.57.57,0,0,0,.12-.32,1.7,1.7,0,0,0-.37-.73l-.56-.78c-.21-.29-.35-.44-.39-.44a1,1,0,0,0-.53.32l-.61.56v.34c0,.43.09.65.27.65a1.19,1.19,0,0,0,.29-.05,1.21,1.21,0,0,1,.31-.05q.7,0,.7.82,0,1.21-1,1.21a6,6,0,0,1-.73-.07,11.46,11.46,0,0,0-1.44-.07,6.35,6.35,0,0,0-.88.05,6.63,6.63,0,0,1-.78.08,1,1,0,0,1-.75-.31,1.15,1.15,0,0,1-.29-.81q0-1,.83-1l.42.1.12,0c.2,0,.31-.32.31-1v-5.66q0-1-.29-1a1,1,0,0,0-.31.07.87.87,0,0,1-.27,0q-.82,0-.82-.93,0-1.14,1.09-1.14a3.29,3.29,0,0,1,.49,0,5.87,5.87,0,0,0,.85.08,6.37,6.37,0,0,0,.75-.07,5,5,0,0,1,.56-.05Q76.35,204.25,76.35,204.89Z"/><path class="cls-7" d="M92.16,210.71a1.73,1.73,0,0,1-.18,1,.84.84,0,0,1-.71.24H87.12a.74.74,0,0,0-.38.06c-.05,0-.08.14-.08.3a1.65,1.65,0,0,0,.46,1.19,1.54,1.54,0,0,0,1.16.48,2.1,2.1,0,0,0,1.46-.78,1.52,1.52,0,0,1,1.12-.54,1.17,1.17,0,0,1,.82.29,1,1,0,0,1,.31.73,2,2,0,0,1-1.08,1.67,4.79,4.79,0,0,1-2.63.69,4.33,4.33,0,0,1-3.23-1.22,4.45,4.45,0,0,1-1.21-3.26,4.64,4.64,0,0,1,1.2-3.32,4.12,4.12,0,0,1,3.14-1.27,4,4,0,0,1,2.88,1A3.66,3.66,0,0,1,92.16,210.71Zm-5.41-.85a.27.27,0,0,0,.05.17s.15.07.36.07h1.9a.51.51,0,0,0,.31-.06.3.3,0,0,0,.06-.21A1,1,0,0,0,89,209a1.38,1.38,0,0,0-.92-.33,1.35,1.35,0,0,0-1.1.53A1,1,0,0,0,86.75,209.86Z"/><path class="cls-7" d="M105,216a1.83,1.83,0,0,1-1.87-1.12,4,4,0,0,1-2.82,1.12,3.12,3.12,0,0,1-2.14-.71,2.38,2.38,0,0,1-.8-1.88A2.2,2.2,0,0,1,99,211.08a11,11,0,0,1,1.53-.37,5.19,5.19,0,0,0,1.64-.47.88.88,0,0,0,.43-.81.81.81,0,0,0-.33-.65,1.29,1.29,0,0,0-.83-.26q-.56,0-.56.36a1.77,1.77,0,0,0,0,.24v.07a1,1,0,0,1-.4.8,1.53,1.53,0,0,1-1,.32,1.59,1.59,0,0,1-1.12-.41,1.33,1.33,0,0,1-.44-1,1.6,1.6,0,0,1,1-1.44,5.63,5.63,0,0,1,2.67-.53,5.28,5.28,0,0,1,2.74.56,2.48,2.48,0,0,1,1,2.28v3.52c0,.36.09.54.27.54l.25,0,.12,0a.93.93,0,0,1,.93.93,1.08,1.08,0,0,1-.5.92A2.16,2.16,0,0,1,105,216Zm-2.47-3.64V212a15.42,15.42,0,0,1-1.5.42q-.94.24-.94.73,0,.78.92.78A1.36,1.36,0,0,0,102.58,212.34Z"/><path class="cls-7" d="M116.65,209.84a.92.92,0,0,1,.17-.51,1.49,1.49,0,0,0-.87-.27,1.45,1.45,0,0,0-1.22.62,2.69,2.69,0,0,0-.47,1.66,2.76,2.76,0,0,0,.49,1.72,1.57,1.57,0,0,0,1.31.65,1.29,1.29,0,0,0,1.22-.9,2.23,2.23,0,0,1,.41-.71,1.13,1.13,0,0,1,.75-.2,1.28,1.28,0,0,1,.93.35,1.19,1.19,0,0,1,.36.89,2.48,2.48,0,0,1-1.12,2,4.32,4.32,0,0,1-2.69.85,4.24,4.24,0,0,1-3.2-1.23,4.56,4.56,0,0,1-1.19-3.31,4.22,4.22,0,0,1,4.52-4.54,4.12,4.12,0,0,1,2.47.71,2.13,2.13,0,0,1,1,1.79,1.44,1.44,0,0,1-.44,1.1,1.6,1.6,0,0,1-1.14.42,1.41,1.41,0,0,1-.93-.3A1,1,0,0,1,116.65,209.84Z"/><path class="cls-7" d="M124.93,216a4.31,4.31,0,0,1-3.26-1.19,5.47,5.47,0,0,1,0-6.69,4.2,4.2,0,0,1,3.2-1.2,4.25,4.25,0,0,1,3.19,1.19,4.46,4.46,0,0,1,1.17,3.26,4.82,4.82,0,0,1-1.13,3.4A4.08,4.08,0,0,1,124.93,216Zm-.07-7a1.35,1.35,0,0,0-1.18.65,3.94,3.94,0,0,0,0,3.6,1.38,1.38,0,0,0,1.22.65q1.58,0,1.58-2.45T124.86,209Z"/><path class="cls-7" d="M135.27,206.19a1,1,0,0,1,.14-.44.84.84,0,0,0-.34-.07q-.83,0-.83.8v.34c0,.22.12.32.37.32h.51q1,0,1,.92a.83.83,0,0,1-.94,1h-.56c-.25,0-.37.15-.37.44v3.42a4.7,4.7,0,0,0,0,.6q.05.36.36.36l.31,0a1.47,1.47,0,0,1,.39-.05q.8,0,.8.94a1.09,1.09,0,0,1-.29.78,1,1,0,0,1-.73.31l-1-.1q-.34,0-1,0a10.43,10.43,0,0,0-1.16.05q-.73.08-.9.08a1,1,0,0,1-.76-.31,1.17,1.17,0,0,1-.29-.83q0-1,.83-1a1,1,0,0,1,.31.06.85.85,0,0,0,.24.06c.2,0,.31-.32.31-1v-3.38c0-.24-.05-.37-.15-.41a.54.54,0,0,0-.22,0h-.41a.79.79,0,0,1-.9-.88q0-1,.93-1h.31a.52.52,0,0,0,.37-.09.82.82,0,0,0,.1-.45,2.36,2.36,0,0,1,.93-1.85,3.71,3.71,0,0,1,2.34-.68,3.48,3.48,0,0,1,2,.49,1.51,1.51,0,0,1,.74,1.31,1.1,1.1,0,0,1-.37.85,1.34,1.34,0,0,1-.93.34,1.14,1.14,0,0,1-.76-.25A.77.77,0,0,1,135.27,206.19Z"/><path class="cls-7" d="M142.34,206.19a1,1,0,0,1,.14-.44.84.84,0,0,0-.34-.07q-.83,0-.83.8v.34c0,.22.12.32.37.32h.51q1,0,1,.92a.83.83,0,0,1-.94,1h-.56c-.25,0-.37.15-.37.44v3.42a4.7,4.7,0,0,0,0,.6q.05.36.36.36l.31,0a1.47,1.47,0,0,1,.39-.05q.8,0,.8.94a1.09,1.09,0,0,1-.29.78,1,1,0,0,1-.73.31l-1-.1q-.34,0-1,0a10.43,10.43,0,0,0-1.16.05q-.73.08-.9.08a1,1,0,0,1-.76-.31,1.17,1.17,0,0,1-.29-.83q0-1,.83-1a1,1,0,0,1,.31.06.85.85,0,0,0,.24.06c.2,0,.31-.32.31-1v-3.38c0-.24-.05-.37-.15-.41a.54.54,0,0,0-.22,0h-.41a.79.79,0,0,1-.9-.88q0-1,.93-1h.31a.52.52,0,0,0,.37-.09.82.82,0,0,0,.1-.45,2.36,2.36,0,0,1,.93-1.85,3.71,3.71,0,0,1,2.34-.68,3.48,3.48,0,0,1,2,.49,1.51,1.51,0,0,1,.74,1.31,1.1,1.1,0,0,1-.37.85,1.34,1.34,0,0,1-.93.34,1.14,1.14,0,0,1-.76-.25A.77.77,0,0,1,142.34,206.19Z"/><path class="cls-7" d="M152,210.71a1.73,1.73,0,0,1-.18,1,.84.84,0,0,1-.71.24H147a.74.74,0,0,0-.38.06c-.05,0-.08.14-.08.3a1.65,1.65,0,0,0,.46,1.19,1.54,1.54,0,0,0,1.16.48,2.1,2.1,0,0,0,1.46-.78,1.52,1.52,0,0,1,1.12-.54,1.17,1.17,0,0,1,.82.29,1,1,0,0,1,.31.73,2,2,0,0,1-1.08,1.67,4.79,4.79,0,0,1-2.63.69,4.33,4.33,0,0,1-3.23-1.22,4.45,4.45,0,0,1-1.21-3.26,4.64,4.64,0,0,1,1.2-3.32,4.12,4.12,0,0,1,3.14-1.27,4,4,0,0,1,2.88,1A3.66,3.66,0,0,1,152,210.71Zm-5.41-.85a.27.27,0,0,0,.05.17s.15.07.36.07h1.9a.51.51,0,0,0,.31-.06.3.3,0,0,0,.06-.21,1,1,0,0,0-.39-.77,1.38,1.38,0,0,0-.92-.33,1.35,1.35,0,0,0-1.1.53A1,1,0,0,0,146.61,209.86Z"/><path class="cls-7" d="M161.29,210.71a1.73,1.73,0,0,1-.18,1,.84.84,0,0,1-.71.24h-4.15a.74.74,0,0,0-.38.06c-.05,0-.08.14-.08.3a1.65,1.65,0,0,0,.46,1.19,1.54,1.54,0,0,0,1.16.48,2.1,2.1,0,0,0,1.46-.78,1.52,1.52,0,0,1,1.12-.54,1.17,1.17,0,0,1,.82.29,1,1,0,0,1,.31.73,2,2,0,0,1-1.08,1.67,4.79,4.79,0,0,1-2.63.69,4.33,4.33,0,0,1-3.23-1.22,4.45,4.45,0,0,1-1.21-3.26,4.64,4.64,0,0,1,1.2-3.32,4.12,4.12,0,0,1,3.14-1.27,4,4,0,0,1,2.88,1A3.66,3.66,0,0,1,161.29,210.71Zm-5.41-.85a.27.27,0,0,0,.05.17s.15.07.36.07h1.9a.51.51,0,0,0,.31-.06.3.3,0,0,0,.06-.21,1,1,0,0,0-.39-.77,1.38,1.38,0,0,0-.92-.33,1.35,1.35,0,0,0-1.1.53A1,1,0,0,0,155.89,209.86Z"/><path class="cls-7" d="M170,204.84v3.21a3.35,3.35,0,0,1,2.46-1.16,2.9,2.9,0,0,1,2.42,1.22,5.12,5.12,0,0,1,.93,3.19,5.22,5.22,0,0,1-1,3.4A3.39,3.39,0,0,1,172,216a3.22,3.22,0,0,1-2.74-1.36,3.72,3.72,0,0,1,0,.42q0,.78-.94.78a.86.86,0,0,1-1-1v-7.75q0-.87-.29-.87a1,1,0,0,0-.31.07.87.87,0,0,1-.27,0q-.82,0-.82-.93a1.2,1.2,0,0,1,.28-.83,1,1,0,0,1,.76-.31,5.89,5.89,0,0,1,.65.05,6.08,6.08,0,0,0,.65.05,7.19,7.19,0,0,0,.9-.05,5,5,0,0,1,.58-.05C169.86,204.25,170,204.45,170,204.84Zm1.6,9q1.48,0,1.48-2.38t-1.45-2.38a1.34,1.34,0,0,0-1.15.67,3,3,0,0,0-.45,1.69Q170,213.82,171.61,213.82Z"/><path class="cls-7" d="M180.27,207.66v1.45a3.65,3.65,0,0,1,.56-1.27,2.52,2.52,0,0,1,2.09-.94,2.2,2.2,0,0,1,1.57.6,2,2,0,0,1,.64,1.49,1.64,1.64,0,0,1-.41,1.15,1.34,1.34,0,0,1-1,.45,1.14,1.14,0,0,1-.81-.31,1,1,0,0,1-.33-.75,1.59,1.59,0,0,1,.22-.66h-.1a1.52,1.52,0,0,0-1.53,1.21,7.4,7.4,0,0,0-.31,2.23V213a1.86,1.86,0,0,0,.1.78.27.27,0,0,0,.24.1,1.9,1.9,0,0,0,.42-.07,1.89,1.89,0,0,1,.41-.07.9.9,0,0,1,.9.9,1.12,1.12,0,0,1-.33.82,1.1,1.1,0,0,1-.81.33,9.5,9.5,0,0,1-1-.08,9.22,9.22,0,0,0-1.07-.05,11.15,11.15,0,0,0-1.14.05q-.82.08-1,.08-1.05,0-1.05-1.14,0-1,.82-1a1,1,0,0,1,.31.06.85.85,0,0,0,.25.06c.19,0,.29-.32.29-1v-2.75q0-1-.29-1a1.19,1.19,0,0,0-.26.06,1.11,1.11,0,0,1-.3.06q-.82,0-.82-.93a1.25,1.25,0,0,1,.27-.83.87.87,0,0,1,.7-.32,2.38,2.38,0,0,1,.48.07,2.64,2.64,0,0,0,.58.07,3.72,3.72,0,0,0,.59-.07,3.79,3.79,0,0,1,.58-.07A.47.47,0,0,1,180.27,207.66Z"/><path class="cls-7" d="M193.71,210.71a1.73,1.73,0,0,1-.18,1,.84.84,0,0,1-.71.24h-4.15a.74.74,0,0,0-.38.06c-.05,0-.08.14-.08.3a1.65,1.65,0,0,0,.46,1.19,1.54,1.54,0,0,0,1.16.48,2.1,2.1,0,0,0,1.46-.78,1.52,1.52,0,0,1,1.12-.54,1.17,1.17,0,0,1,.82.29,1,1,0,0,1,.31.73,2,2,0,0,1-1.08,1.67,4.79,4.79,0,0,1-2.63.69,4.33,4.33,0,0,1-3.23-1.22,4.45,4.45,0,0,1-1.21-3.26,4.64,4.64,0,0,1,1.2-3.32,4.12,4.12,0,0,1,3.14-1.27,4,4,0,0,1,2.88,1A3.66,3.66,0,0,1,193.71,210.71Zm-5.41-.85a.27.27,0,0,0,.05.17s.15.07.36.07h1.9a.51.51,0,0,0,.31-.06.3.3,0,0,0,.06-.21,1,1,0,0,0-.39-.77,1.38,1.38,0,0,0-.92-.33,1.35,1.35,0,0,0-1.1.53A1,1,0,0,0,188.31,209.86Z"/><path class="cls-7" d="M202.35,216a1.83,1.83,0,0,1-1.87-1.12,4,4,0,0,1-2.82,1.12,3.12,3.12,0,0,1-2.14-.71,2.38,2.38,0,0,1-.8-1.88,2.2,2.2,0,0,1,1.55-2.31,11,11,0,0,1,1.53-.37,5.19,5.19,0,0,0,1.64-.47.88.88,0,0,0,.43-.81.81.81,0,0,0-.33-.65,1.29,1.29,0,0,0-.83-.26q-.56,0-.56.36a1.77,1.77,0,0,0,0,.24v.07a1,1,0,0,1-.4.8,1.53,1.53,0,0,1-1,.32,1.59,1.59,0,0,1-1.12-.41,1.33,1.33,0,0,1-.44-1,1.6,1.6,0,0,1,1-1.44,5.63,5.63,0,0,1,2.67-.53,5.28,5.28,0,0,1,2.74.56,2.48,2.48,0,0,1,1,2.28v3.52c0,.36.09.54.27.54l.25,0,.12,0a.93.93,0,0,1,.93.93,1.08,1.08,0,0,1-.5.92A2.16,2.16,0,0,1,202.35,216Zm-2.47-3.64V212a15.42,15.42,0,0,1-1.5.42q-.94.24-.94.73,0,.78.92.78A1.36,1.36,0,0,0,199.88,212.34Z"/><path class="cls-7" d="M208.56,204.89v5.78l.8-.7.39-.34c.31-.26.46-.46.46-.61a.38.38,0,0,0-.15-.27l-.27-.26a.74.74,0,0,1-.22-.58q0-.78.88-.78.31,0,.93.07a9.51,9.51,0,0,0,1,.07q.49,0,1.22-.07l.76-.07a.89.89,0,0,1,1,1q0,1-.78,1a1.7,1.7,0,0,1-.37-.05,1.64,1.64,0,0,0-.34-.05,1.57,1.57,0,0,0-.75.37l-.71.53q-.44.32-.44.51a.35.35,0,0,0,.07.19l.15.22,1.33,2.09q.54.87.87.87a1,1,0,0,0,.27-.05l.36-.05q.77,0,.77,1t-1,1.07a7.33,7.33,0,0,1-.82-.07,7.33,7.33,0,0,0-.82-.07,6,6,0,0,0-.9.07,4.85,4.85,0,0,1-.65.07.79.79,0,0,1-.59-.27.91.91,0,0,1-.25-.65,1.46,1.46,0,0,1,.2-.6.57.57,0,0,0,.12-.32,1.7,1.7,0,0,0-.37-.73l-.56-.78c-.21-.29-.35-.44-.39-.44a1,1,0,0,0-.53.32l-.61.56v.34c0,.43.09.65.27.65a1.19,1.19,0,0,0,.29-.05,1.21,1.21,0,0,1,.31-.05q.7,0,.7.82,0,1.21-1,1.21a6,6,0,0,1-.73-.07,11.46,11.46,0,0,0-1.44-.07,6.35,6.35,0,0,0-.88.05,6.63,6.63,0,0,1-.78.08,1,1,0,0,1-.75-.31,1.15,1.15,0,0,1-.29-.81q0-1,.83-1l.42.1.12,0c.2,0,.31-.32.31-1v-5.66q0-1-.29-1a1,1,0,0,0-.31.07.87.87,0,0,1-.27,0q-.82,0-.82-.93,0-1.14,1.09-1.14a3.29,3.29,0,0,1,.49,0,5.87,5.87,0,0,0,.85.08,6.37,6.37,0,0,0,.75-.07,5,5,0,0,1,.56-.05Q208.55,204.25,208.56,204.89Z"/><path class="cls-7" d="M220.45,211.35q-.08.85-.8.85H219q-.71,0-.8-.85l-.53-5.47c0-.35-.05-.58-.05-.68q0-1.16,1.7-1.16t1.7,1.16q0,.32,0,.68ZM219.3,216a1.54,1.54,0,0,1-1.12-.48,1.6,1.6,0,0,1,0-2.28,1.53,1.53,0,0,1,1.12-.48,1.62,1.62,0,0,1,0,3.23Z"/><path class="cls-7" d="M51.64,225.56l2.62,8.6L57.13,225q.22-.71.76-.71H58a2.59,2.59,0,0,1,.44.05,2.34,2.34,0,0,0,.44.08,6.18,6.18,0,0,0,.75,0,4.84,4.84,0,0,0,.8-.05l.59-.1.2,0q.78,0,.78.6a.48.48,0,0,1-.54.54l-.4,0-.4,0q-.87,0-.87,1.27v6.82q0,1.27.85,1.27a1.54,1.54,0,0,0,.37-.05l.44,0a.48.48,0,0,1,.54.54q0,.61-.73.61l-.25,0a17.68,17.68,0,0,0-2-.14,9.53,9.53,0,0,0-1.53.12,3.33,3.33,0,0,1-.54.05q-.66,0-.66-.57t.68-.59l.26,0,.45,0q.62,0,.77-1.27,0-.27,0-1.73,0-.56,0-1.63v-4.53c0-.07,0-.1-.08-.1s-.07,0-.1.1l-3.13,9.69a.89.89,0,0,1-1,.64,1.31,1.31,0,0,1-.66-.13.87.87,0,0,1-.33-.52l-3.08-9.69c0-.07-.07-.1-.12-.1s-.07,0-.07.1l.1,7.86q0,1.23.68,1.23h.71q.66,0,.66.58t-.68.58l-.36,0-.8-.12a6.15,6.15,0,0,0-.87-.05,8.7,8.7,0,0,0-1.21.05l-.71.14-.1,0h-.1q-.78,0-.78-.59a.56.56,0,0,1,.15-.4.5.5,0,0,1,.37-.16,2.29,2.29,0,0,1,.44.05,2.22,2.22,0,0,0,.37.05q.87,0,.87-1.28v-6.83q0-1.27-.87-1.27l-.41,0-.41,0a.47.47,0,0,1-.53-.54q0-.6.76-.6l.22,0,.6.07a7.23,7.23,0,0,0,.83.05,7.64,7.64,0,0,0,.88-.07,7.54,7.54,0,0,1,.81-.07q.66,0,.88.83Z"/><path class="cls-7" d="M70.29,235.91a1.57,1.57,0,0,1-1.72-1.21A3.06,3.06,0,0,1,65.85,236a3.35,3.35,0,0,1-2.2-.68,2.23,2.23,0,0,1-.83-1.82A2.21,2.21,0,0,1,64,231.4a3.16,3.16,0,0,1,.79-.33q.33-.08,1.33-.2a5.12,5.12,0,0,0,1.86-.43,1.09,1.09,0,0,0,.43-1,1.35,1.35,0,0,0-.48-1.1,2.07,2.07,0,0,0-1.35-.4,2.6,2.6,0,0,0-1.43.43q-.25.17-.25.36s.05.1.15.17a.66.66,0,0,1,.24.58.72.72,0,0,1-.25.56.9.9,0,0,1-.62.22,1,1,0,0,1-.74-.31,1,1,0,0,1-.3-.75,2,2,0,0,1,.94-1.63,3.81,3.81,0,0,1,2.29-.68q3.09,0,3.09,3v3.43a7.25,7.25,0,0,0,0,1q.1.59.58.59t.59-1.08v-.83q0-.54.52-.54t.55.82v1.05A1.51,1.51,0,0,1,70.29,235.91Zm-1.89-3.38v-1.21a2.18,2.18,0,0,1-.79.48,7.83,7.83,0,0,1-1.48.24q-1.93.19-1.93,1.43a1.24,1.24,0,0,0,.47,1,2,2,0,0,0,1.27.37,2.5,2.5,0,0,0,1.79-.62A2.3,2.3,0,0,0,68.4,232.53Z"/><path class="cls-7" d="M76.37,226.9a2.78,2.78,0,0,1,2.52,1.31v-1.72a5.68,5.68,0,0,0,0-.83q-.08-.53-.48-.53a2,2,0,0,0-.38.05,2,2,0,0,1-.38.05q-.63,0-.63-.54t.85-.56l.49,0,.56.05.44,0a3.26,3.26,0,0,1,.44,0q.48,0,.48.68V225s0,.33,0,.9q0,.1-.05,1.31,0,.85,0,1.29V233a6.76,6.76,0,0,0,.1,1.4.39.39,0,0,0,.42.27,1.32,1.32,0,0,0,.35,0l.38,0q.64,0,.64.56t-.77.58l-.52,0-.52,0-.39,0a1.49,1.49,0,0,1-.36.05c-.31,0-.46-.2-.46-.61v-.37A3.06,3.06,0,0,1,76.4,236a3.44,3.44,0,0,1-2.78-1.26,5.72,5.72,0,0,1,0-6.59A3.44,3.44,0,0,1,76.37,226.9Zm2.45,6a12.53,12.53,0,0,0,.07-1.45,9.07,9.07,0,0,0-.09-1.55,2.13,2.13,0,0,0-.74-1.33,2.41,2.41,0,0,0-1.57-.56,2.21,2.21,0,0,0-1.87.9,4,4,0,0,0-.68,2.46,4.11,4.11,0,0,0,.7,2.54,2.46,2.46,0,0,0,3.46.39A2.14,2.14,0,0,0,78.82,232.9Z"/><path class="cls-7" d="M90.48,230.69a2.1,2.1,0,0,1-.08.79q-.08.14-.49.14H84.5a.48.48,0,0,0-.29.06.25.25,0,0,0-.07.2,3.06,3.06,0,0,0,.76,2.13,2.46,2.46,0,0,0,1.9.85,2.43,2.43,0,0,0,1.37-.41,1.86,1.86,0,0,0,.81-1l.15-.49a.53.53,0,0,1,.56-.41.56.56,0,0,1,.63.65,2.46,2.46,0,0,1-1.12,2,4.09,4.09,0,0,1-2.55.86,3.59,3.59,0,0,1-2.84-1.2,4.7,4.7,0,0,1-1.05-3.22,5,5,0,0,1,1.12-3.37,3.69,3.69,0,0,1,2.92-1.29A3.51,3.51,0,0,1,89.44,228,3.75,3.75,0,0,1,90.48,230.69Zm-6.17-.44q0,.24.37.24h4.06q.36,0,.36-.24a2.11,2.11,0,0,0-.68-1.56,2.22,2.22,0,0,0-1.6-.66,2.56,2.56,0,0,0-1.73.69A2,2,0,0,0,84.31,230.25Z"/><path class="cls-7" d="M98.37,229.55l1.24,5.18,1.33-6a3.43,3.43,0,0,1,.45-1.27.9.9,0,0,1,.76-.31.91.91,0,0,1,.77.32,3.5,3.5,0,0,1,.45,1.26l1.28,6,1.26-5.18a3.73,3.73,0,0,0,.12-.85v0c0-.31-.13-.46-.39-.46a2.43,2.43,0,0,0-.44.06,2.36,2.36,0,0,1-.44.06q-.63,0-.63-.56t.83-.59l.25,0,.7.1a6.77,6.77,0,0,0,.85,0,6.62,6.62,0,0,0,.88-.06l.56-.08.19,0q.73,0,.73.59a.5.5,0,0,1-.56.57.58.58,0,0,1-.29-.06l-.31-.06q-.46,0-1,1.9l-1.16,4.4a2.88,2.88,0,0,1-.48,1.12.93.93,0,0,1-.75.32q-.9,0-1.21-1.43l-1.27-6.05-1.33,5.94a2.9,2.9,0,0,1-.48,1.2,1,1,0,0,1-.78.35q-.8,0-1.07-1.06l-1.63-6.13c-.1-.36-.26-.55-.48-.55a1,1,0,0,0-.31.07l-.37,0a.49.49,0,0,1-.56-.55q0-.6.76-.6l.19,0,.73.11a4.14,4.14,0,0,0,.63,0,8.92,8.92,0,0,0,1.09-.08l.88-.09q.75,0,.75.59t-.63.57l-.42,0a1.26,1.26,0,0,0-.42-.08q-.44,0-.44.51A3.68,3.68,0,0,0,98.37,229.55Z"/><path class="cls-7" d="M112.36,230.76V233q0,.85,0,1,.08.76.46.76a2.58,2.58,0,0,0,.43-.08.73.73,0,0,1,.25,0q.65,0,.65.56a.51.51,0,0,1-.21.41.84.84,0,0,1-.54.17,6.53,6.53,0,0,1-.83-.08,6.7,6.7,0,0,0-.83-.08,8,8,0,0,0-1,.07,8.8,8.8,0,0,1-.89.08q-.68,0-.68-.58t.58-.56a2.34,2.34,0,0,1,.4.05,2.41,2.41,0,0,0,.4.05q.41,0,.5-1.09v-4.35q-.08-1.07-.51-1.07a1.83,1.83,0,0,0-.39.06,1.75,1.75,0,0,1-.37.06c-.41,0-.62-.18-.62-.54s.25-.58.75-.58l.46,0,.7.07.42,0,.42,0c.33,0,.49.22.49.66,0,0,0,.11,0,.2s0,.16,0,.2,0,.44,0,1.05S112.36,230.27,112.36,230.76Zm-.88-4.45a1,1,0,0,1-1-1,.89.89,0,0,1,.28-.66,1,1,0,0,1,1.34,0,.89.89,0,0,1,.28.66,1,1,0,0,1-1,1Z"/><path class="cls-7" d="M119.6,233.34v-1.09q0-.7.61-.7t.59.78a5.07,5.07,0,0,1-.47,2.58,2.33,2.33,0,0,1-2.11,1,2.13,2.13,0,0,1-1.92-.87,4,4,0,0,1-.42-2.14v-4.08c0-.24-.11-.36-.33-.36H115a.63.63,0,0,1-.46-.18.59.59,0,0,1-.18-.43.6.6,0,0,1,.18-.42.54.54,0,0,1,.4-.19h.66q.29,0,.29-.32v-1.75a.58.58,0,0,1,.66-.65q.61,0,.61.65V227c0,.17.1.25.31.25h1.85q.65,0,.65.6t-.7.63h-1.87c-.16,0-.24.12-.24.36V233q0,1.78,1.19,1.78T119.6,233.34Z"/><path class="cls-7" d="M124.33,224.73l-.07,3.31a4.59,4.59,0,0,1,1.25-.89,3.73,3.73,0,0,1,3.68.59,2.87,2.87,0,0,1,.89,2.19v2.84q0,1,0,1.1.07.85.44.85a1.23,1.23,0,0,0,.39-.1l.27,0q.63,0,.63.58t-.82.58a5.88,5.88,0,0,1-.65-.05,10.22,10.22,0,0,0-1.16-.08,5.18,5.18,0,0,0-.68,0q-.71.1-.88.1a.74.74,0,0,1-.51-.18.57.57,0,0,1-.2-.45.47.47,0,0,1,.18-.37.62.62,0,0,1,.42-.15,1.43,1.43,0,0,1,.44.08.91.91,0,0,0,.29.05q.51,0,.53-1.1c0-.14,0-.4,0-.8v-1.65a5.29,5.29,0,0,0-.34-2.33,1.82,1.82,0,0,0-1.74-.88,2.19,2.19,0,0,0-2,.92,3.77,3.77,0,0,0-.44,2v1.22a1.47,1.47,0,0,1-.07.34v.32q0,1,0,1.12.09.83.51.83a1.49,1.49,0,0,0,.39-.08,1.46,1.46,0,0,1,.38-.08.49.49,0,0,1,.56.54q0,.61-.75.61c-.16,0-.4,0-.72-.05a11,11,0,0,0-1.11-.07q-.29,0-.8.05l-.87.07q-.7,0-.7-.63t.66-.53a.83.83,0,0,1,.33,0,2,2,0,0,0,.42.07q.28,0,.37-.52a15.57,15.57,0,0,0,.11-2.12v-3a29.32,29.32,0,0,0-.1-3.22q-.1-.67-.48-.67a1.85,1.85,0,0,0-.36.05,1.89,1.89,0,0,1-.37.05c-.39,0-.58-.18-.58-.54a.51.51,0,0,1,.2-.41.75.75,0,0,1,.49-.17l.58.05a6.72,6.72,0,0,0,.7,0,3,3,0,0,0,.42,0l.39,0q.39,0,.39.56Z"/><path class="cls-7" d="M141.31,224A3.65,3.65,0,0,1,144,225v-.24q0-.66.53-.66t.58.73v.1s0,.19-.05.51a10.86,10.86,0,0,0-.05,1.14c0,.06,0,.24,0,.54l.05.68a1.34,1.34,0,0,1,0,.24q0,.82-.63.82a.59.59,0,0,1-.66-.68v-.08l0-.46c0-.16,0-.28,0-.37a2,2,0,0,0-.69-1.6,2.86,2.86,0,0,0-1.9-.58,2.66,2.66,0,0,0-1.76.54,1.8,1.8,0,0,0-.66,1.46,1.68,1.68,0,0,0,1,1.58,7.38,7.38,0,0,0,1.9.49,6.7,6.7,0,0,1,2.77.88,2.77,2.77,0,0,1,1.12,2.36,3.3,3.3,0,0,1-1.15,2.6,4.32,4.32,0,0,1-3,1,4.44,4.44,0,0,1-3.21-1.22v.25a1.85,1.85,0,0,1,.07.35.55.55,0,0,1-.63.62q-.68,0-.68-.71a.18.18,0,0,1,.05-.14l.08-.88q.06-.66.06-.85a8.22,8.22,0,0,0-.09-1,8.19,8.19,0,0,1-.09-1q0-.76.65-.76t.66.77v.7a2.63,2.63,0,0,0,.81,2,3.13,3.13,0,0,0,2.2.75,3.18,3.18,0,0,0,2.05-.61,2,2,0,0,0,.76-1.67q0-1.61-2-2l-1-.17a10.71,10.71,0,0,1-2.24-.6,2.58,2.58,0,0,1-1.17-1,2.86,2.86,0,0,1-.43-1.56,3.06,3.06,0,0,1,1.09-2.43A4.18,4.18,0,0,1,141.31,224Z"/><path class="cls-7" d="M151.8,233.34v-1.09q0-.7.61-.7t.59.78a5.07,5.07,0,0,1-.47,2.58,2.33,2.33,0,0,1-2.11,1,2.13,2.13,0,0,1-1.92-.87,4,4,0,0,1-.42-2.14v-4.08c0-.24-.11-.36-.33-.36h-.56a.63.63,0,0,1-.46-.18.59.59,0,0,1-.18-.43.6.6,0,0,1,.18-.42.54.54,0,0,1,.4-.19h.66q.29,0,.29-.32v-1.75a.58.58,0,0,1,.66-.65q.61,0,.61.65V227c0,.17.1.25.31.25h1.85q.65,0,.65.6t-.7.63h-1.87c-.16,0-.24.12-.24.36V233q0,1.78,1.19,1.78T151.8,233.34Z"/><path class="cls-7" d="M161.18,235.91a1.57,1.57,0,0,1-1.72-1.21,3.06,3.06,0,0,1-2.72,1.28,3.35,3.35,0,0,1-2.2-.68,2.23,2.23,0,0,1-.83-1.82,2.21,2.21,0,0,1,1.21-2.07,3.16,3.16,0,0,1,.79-.33q.33-.08,1.33-.2a5.12,5.12,0,0,0,1.86-.43,1.09,1.09,0,0,0,.43-1,1.35,1.35,0,0,0-.48-1.1,2.07,2.07,0,0,0-1.35-.4,2.6,2.6,0,0,0-1.43.43q-.25.17-.25.36s.05.1.15.17a.66.66,0,0,1,.24.58.72.72,0,0,1-.25.56.9.9,0,0,1-.62.22,1,1,0,0,1-.74-.31,1,1,0,0,1-.3-.75,2,2,0,0,1,.94-1.63,3.81,3.81,0,0,1,2.29-.68q3.09,0,3.09,3v3.43a7.25,7.25,0,0,0,0,1q.1.59.58.59t.59-1.08v-.83q0-.54.52-.54t.55.82v1.05A1.51,1.51,0,0,1,161.18,235.91Zm-1.89-3.38v-1.21a2.18,2.18,0,0,1-.79.48A7.83,7.83,0,0,1,157,232q-1.93.19-1.93,1.43a1.24,1.24,0,0,0,.47,1,2,2,0,0,0,1.27.37,2.5,2.5,0,0,0,1.79-.62A2.3,2.3,0,0,0,159.3,232.53Z"/><path class="cls-7" d="M166,227.67v.47a3,3,0,0,1,4.29-.57,2.22,2.22,0,0,1,.74,1.73,1.89,1.89,0,0,1-.37,1.21,1.2,1.2,0,0,1-1,.47,1,1,0,0,1-.66-.24.74.74,0,0,1-.27-.58.68.68,0,0,1,.2-.48.64.64,0,0,1,.48-.21l.22.05a.85.85,0,0,0,.1-.37,1,1,0,0,0-.43-.83,1.7,1.7,0,0,0-1.08-.34,1.72,1.72,0,0,0-1.77,1.19,6.73,6.73,0,0,0-.27,2.21v1.12q0,1.14,0,1.28.08,1,.53,1a2,2,0,0,0,.46-.06,1.45,1.45,0,0,1,.32,0,.48.48,0,0,1,.54.54q0,.59-.69.59h-.07a7.59,7.59,0,0,1-.77-.06,7.32,7.32,0,0,0-.77-.06c-.45,0-.81,0-1.07,0l-.95.08c-.46,0-.69-.2-.69-.6s.22-.53.65-.53l.26,0,.26.05.24,0q.43,0,.46-.78v-.87l-.05-3.86q-.05-1-.51-1a1.88,1.88,0,0,0-.37.05,1.89,1.89,0,0,1-.37.05.49.49,0,0,1-.56-.54q0-.59.73-.59l.51,0,.51,0,.44,0a1.09,1.09,0,0,1,.32,0C165.88,227.19,166,227.35,166,227.67Z"/><path class="cls-7" d="M174,224.86q-.15,1.4-.17,3.33a3.44,3.44,0,0,1,1.11-1,3.08,3.08,0,0,1,1.42-.29,3.36,3.36,0,0,1,2.71,1.19,4.74,4.74,0,0,1,1,3.16,5.23,5.23,0,0,1-1.06,3.44,3.53,3.53,0,0,1-2.86,1.28,2.73,2.73,0,0,1-2.53-1.31c0,.33.07.51.07.54a.53.53,0,0,1-.6.61q-.59,0-.59-.85v-1.19l.08-1.31v-6.26a2.34,2.34,0,0,0-.13-.85.39.39,0,0,0-.38-.22l-.44.07-.32,0c-.38,0-.58-.18-.58-.54s.23-.56.68-.56l.34,0,.41.05.44,0a3.77,3.77,0,0,0,.53-.05,3.73,3.73,0,0,1,.51-.05c.25,0,.37.16.37.47Zm0,4.92a7.51,7.51,0,0,0-.12,1.53,6.56,6.56,0,0,0,.27,2.31,2,2,0,0,0,2,1.24,2.22,2.22,0,0,0,1.88-.93,4.06,4.06,0,0,0,.69-2.49,4.2,4.2,0,0,0-.66-2.51,2.11,2.11,0,0,0-1.81-.91,2.32,2.32,0,0,0-1.46.5A2.15,2.15,0,0,0,174,229.77Z"/><path class="cls-7" d="M188.35,235.26v-.53a3.09,3.09,0,0,1-2.67,1.24,3,3,0,0,1-2.79-1.24,2.59,2.59,0,0,1-.37-1.27q0-.36,0-1.5v-1.41q0-2.33-.5-2.33l-.33,0-.34,0c-.4,0-.6-.18-.6-.55s.24-.54.73-.54l.5,0,.5,0a4.48,4.48,0,0,0,.53-.05l.29,0q.53,0,.53.65v1.46l-.05,1.26v1.1a6.76,6.76,0,0,0,.24,2.13,1.75,1.75,0,0,0,1.87,1.07,2.49,2.49,0,0,0,1.29-.33,1.79,1.79,0,0,0,.78-.88,7.69,7.69,0,0,0,.27-2.52v-2c-.06-.54-.2-.82-.44-.82h-.51q-.6,0-.6-.51t.66-.58l.47,0,.47,0,.41,0,.41,0c.34,0,.51.18.51.54a1.63,1.63,0,0,1,0,.38,15.87,15.87,0,0,0-.08,1.91v2.62q0,1,0,1.16.08.9.48.9a1.94,1.94,0,0,0,.34,0,2,2,0,0,1,.34,0,.5.5,0,0,1,.58.56q0,.58-.71.58l-.44,0-.53-.05-.36,0a1.49,1.49,0,0,1-.36.05Q188.35,235.76,188.35,235.26Z"/><path class="cls-7" d="M196.87,230.08q0-.68.85-.78a1.32,1.32,0,0,0-.57-.94,2.13,2.13,0,0,0-1.25-.34A2.26,2.26,0,0,0,194,229a4,4,0,0,0-.71,2.48,4.14,4.14,0,0,0,.67,2.51,2.18,2.18,0,0,0,1.86.91,2.07,2.07,0,0,0,1.3-.42,2.14,2.14,0,0,0,.76-1.17q.17-.59.2-.68a.59.59,0,0,1,.54-.34.64.64,0,0,1,.66.66,2.54,2.54,0,0,1-.27,1,3.53,3.53,0,0,1-.65,1,3.4,3.4,0,0,1-2.6,1.07,3.52,3.52,0,0,1-2.8-1.22,4.73,4.73,0,0,1-1.06-3.21,5,5,0,0,1,1.1-3.37,3.66,3.66,0,0,1,2.92-1.27,3.44,3.44,0,0,1,2.26.74,2.33,2.33,0,0,1,.9,1.88,1.54,1.54,0,0,1-.35,1,1.12,1.12,0,0,1-.89.41,1,1,0,0,1-.71-.26A.81.81,0,0,1,196.87,230.08Z"/><path class="cls-7" d="M203,231.39l2.91-2.72a.4.4,0,0,0,.15-.31c0-.11-.07-.17-.22-.17a2.56,2.56,0,0,0-.49.07,2.63,2.63,0,0,1-.49.07c-.4,0-.59-.18-.59-.54s.25-.59.75-.59l.48,0a16.75,16.75,0,0,0,1.79.14,4.06,4.06,0,0,0,.58,0l.7-.1.39,0q.83,0,.83.59c0,.37-.19.55-.58.55a2.4,2.4,0,0,1-.38,0,2.43,2.43,0,0,0-.38,0,1.34,1.34,0,0,0-.88.42l-1.78,1.63c-.12.11-.19.2-.19.27a.5.5,0,0,0,.14.25l2.18,2.82q.83,1.07,1.19,1.07l.28,0a1.56,1.56,0,0,1,.31,0c.41,0,.61.18.61.54s-.26.58-.78.58a9,9,0,0,1-.91-.07,9,9,0,0,0-.91-.07,6.69,6.69,0,0,0-.79.07,6.67,6.67,0,0,1-.77.07q-.65,0-.65-.58c0-.36.2-.54.61-.54l.27,0a2,2,0,0,0,.39.08c.1,0,.15,0,.15-.12v-.05a0,0,0,0,1,0,0l-.17-.24-.22-.32-1.7-2.26c-.11-.15-.2-.22-.27-.22s-.13.06-.25.17L203,232.78v.39c0,.54,0,.85,0,.92q.08.59.48.59l.29,0a1.57,1.57,0,0,1,.32,0,.5.5,0,0,1,.58.56q0,.56-.65.56a7.31,7.31,0,0,1-.87-.08,7.51,7.51,0,0,0-.89-.08,6.83,6.83,0,0,0-.9.07,8.28,8.28,0,0,1-.87.08q-.66,0-.66-.56t.65-.56a1.78,1.78,0,0,1,.32,0l.37.05q.41,0,.46-.65l.05-.66v-6.87a5.21,5.21,0,0,0-.12-1.16.35.35,0,0,0-.36-.25l-.33,0a1.41,1.41,0,0,1-.48.08c-.38,0-.57-.17-.57-.53s.22-.58.67-.58l.48,0,.56.05.4,0,.38,0h.12q.55,0,.55.7Z"/><path class="cls-7" d="M214.69,226.9a3,3,0,0,1,1.9.59v-.07q0-.63.54-.63a.49.49,0,0,1,.56.54c0,.07,0,.24,0,.51a4.09,4.09,0,0,0-.06.68,6,6,0,0,0,0,.6q0,.39,0,.59,0,.65-.55.65a.49.49,0,0,1-.55-.54v-.56a1.09,1.09,0,0,0-.59-.88,2.42,2.42,0,0,0-1.33-.37,2.11,2.11,0,0,0-1.31.4,1.21,1.21,0,0,0-.53,1q0,1.09,1.5,1.29l1,.14q2.89.39,2.89,2.4a2.43,2.43,0,0,1-.93,2,3.75,3.75,0,0,1-2.44.76,3.87,3.87,0,0,1-2.44-.8v.32q0,.61-.58.61t-.63-.7.1-.88a3.39,3.39,0,0,0,0-.48,4.13,4.13,0,0,0-.07-.77,3.21,3.21,0,0,1-.07-.56c0-.4.18-.59.54-.59s.39.06.45.17a2.63,2.63,0,0,1,.11.9,1.4,1.4,0,0,0,.76,1.19,3.59,3.59,0,0,0,1.9.46,2.17,2.17,0,0,0,1.38-.42,1.31,1.31,0,0,0,.54-1.07q0-1.16-1.84-1.34a7.37,7.37,0,0,1-2.67-.69,1.83,1.83,0,0,1-.92-1.76,2.38,2.38,0,0,1,.9-1.93A3.56,3.56,0,0,1,214.69,226.9Z"/><path class="cls-7" d="M223.06,222.77a3.41,3.41,0,1,1-2.4,1A3.28,3.28,0,0,1,223.06,222.77Zm0,6.29a2.9,2.9,0,1,0-2-.85A2.77,2.77,0,0,0,223.06,229.06Zm1.36-3.79a.77.77,0,0,1-.49.78.86.86,0,0,1,.27.73v.31c0,.16,0,.24.11.24s.11-.11.11-.32v-.34c0-.25.09-.37.27-.37a.26.26,0,0,1,.29.29v.58a.62.62,0,0,1-.71.7.6.6,0,0,1-.67-.68v-.44c0-.19,0-.31-.12-.36a.94.94,0,0,0-.42-.07h-.44s-.05,0-.05,0v.71c0,.18,0,.27.14.27h.24a.22.22,0,0,1,.25.25q0,.28-.32.28l-.09,0-.25,0-.14,0h-.12l-.15,0-.17,0-.24,0-.1,0c-.2,0-.31-.09-.31-.26a.23.23,0,0,1,.25-.26h.24q.15,0,.15-.25v-2a.73.73,0,0,0,0-.19.12.12,0,0,0,0-.05s0,0-.1,0l-.08,0-.15,0a.23.23,0,0,1-.25-.26q0-.26.32-.26h.08l.24,0h.24l.34,0h.36l.34,0Q224.42,224.33,224.42,225.27Zm-1.85-.22v.71s0,0,0,0h.46q.75,0,.75-.49t-.65-.44C222.77,224.84,222.57,224.91,222.57,225Z"/><path class="cls-7" d="M74.86,246.61q0-1.26-.87-1.26a1.4,1.4,0,0,0-.36,0,2.55,2.55,0,0,1-.46.05.5.5,0,0,1-.37-.16.56.56,0,0,1-.15-.4q0-.6.71-.6l.25,0,2.37.17h.17l4.08-.12.88-.05.49,0q.88,0,.88.78,0,.14,0,.87c0,.36,0,.7,0,1a8.31,8.31,0,0,0,0,.83,7,7,0,0,1,.06.73q0,.65-.6.65t-.6-.9v-.88q0-1.43-.59-1.68a7.93,7.93,0,0,0-2.28-.19,10.62,10.62,0,0,0-1.43.05.93.93,0,0,0-.73,1v1.7c0,.45.1.71.3.78a1.59,1.59,0,0,0,.4,0h.69q1.06,0,1.06-.73a4.2,4.2,0,0,0,0-.53,4.48,4.48,0,0,1,0-.58q0-.68.6-.68t.6.73-.11,1.05a11.76,11.76,0,0,0-.09,1.38q0,.34.07,1.21c0,.09,0,.29.08.59a4.61,4.61,0,0,1,.05.59.54.54,0,0,1-.61.61q-.6,0-.6-.71a5,5,0,0,1,0-.54,5,5,0,0,0,0-.54q0-.73-1-.73H77q-.49,0-.6.17a1.55,1.55,0,0,0-.11.73v1.05c0,.18,0,.42,0,.73s0,.62,0,.75q0,.68.27.85a2,2,0,0,0,.88.12h2.31a2.31,2.31,0,0,0,1.38-.3,1.36,1.36,0,0,0,.37-1.11q0-.25,0-.76c0-.33,0-.59,0-.76,0-.51.2-.77.6-.77s.64.26.64.78c0,.2,0,.52,0,.94s0,.73,0,.93,0,.39,0,.71,0,.55,0,.71a.7.7,0,0,1-.78.8l-.6,0-.75,0-1.33,0-2.5,0q-1.6,0-3.13.1l-.15,0h-.1q-.71,0-.71-.61a.47.47,0,0,1,.53-.54l.46,0a1.34,1.34,0,0,0,.36.05q.87,0,.87-1.27Z"/><path class="cls-7" d="M88,246.9a3,3,0,0,1,1.9.59v-.07q0-.63.54-.63a.49.49,0,0,1,.56.54c0,.07,0,.24,0,.51a4.09,4.09,0,0,0-.06.68,6,6,0,0,0,0,.6q0,.39,0,.59,0,.65-.55.65a.49.49,0,0,1-.55-.54v-.56a1.09,1.09,0,0,0-.59-.88A2.42,2.42,0,0,0,88,248a2.11,2.11,0,0,0-1.31.4,1.21,1.21,0,0,0-.53,1q0,1.09,1.5,1.29l1,.14q2.89.39,2.89,2.4a2.43,2.43,0,0,1-.93,2,3.75,3.75,0,0,1-2.44.76,3.87,3.87,0,0,1-2.44-.8v.32q0,.61-.58.61t-.63-.7.1-.88a3.39,3.39,0,0,0,0-.48,4.13,4.13,0,0,0-.07-.77,3.21,3.21,0,0,1-.07-.56c0-.4.18-.59.54-.59s.39.06.45.17a2.63,2.63,0,0,1,.11.9,1.4,1.4,0,0,0,.76,1.19,3.59,3.59,0,0,0,1.9.46,2.17,2.17,0,0,0,1.38-.42,1.31,1.31,0,0,0,.54-1.07q0-1.16-1.84-1.34a7.37,7.37,0,0,1-2.67-.69,1.83,1.83,0,0,1-.92-1.76,2.38,2.38,0,0,1,.9-1.93A3.56,3.56,0,0,1,88,246.9Z"/><path class="cls-7" d="M95.38,247.68v.54A3,3,0,0,1,98,246.9a3.37,3.37,0,0,1,2.7,1.17,4.73,4.73,0,0,1,1,3.18,5.23,5.23,0,0,1-1.06,3.44A3.51,3.51,0,0,1,97.78,256a3.05,3.05,0,0,1-2.4-1v1.41a6.14,6.14,0,0,0,0,.83c.07.35.23.53.49.53a1.89,1.89,0,0,0,.36-.05,1.93,1.93,0,0,1,.36-.05.49.49,0,0,1,.54.56q0,.56-.71.56a6.21,6.21,0,0,1-.76-.07,9.15,9.15,0,0,0-1.12-.05,5.63,5.63,0,0,0-.68,0q-.68.08-.9.08a.72.72,0,0,1-.49-.18.53.53,0,0,1-.2-.41q0-.54.57-.54l.32,0a2.37,2.37,0,0,0,.42.06.38.38,0,0,0,.4-.33,13.18,13.18,0,0,0,.09-1.84V249q0-.78-.44-.78a1.69,1.69,0,0,0-.36.06,1.69,1.69,0,0,1-.38.06q-.62,0-.62-.56t.75-.54l.41,0,.63,0,.44,0,.42,0Q95.38,247.21,95.38,247.68Zm.25,2.07a8,8,0,0,0-.17,1.61s0,.13,0,.25v.24a5.32,5.32,0,0,0,.19,1.66,2,2,0,0,0,.74.93,2.47,2.47,0,0,0,3.26-.48,4.16,4.16,0,0,0,.67-2.54q0-3.4-2.41-3.4a2.31,2.31,0,0,0-1.45.49A2.13,2.13,0,0,0,95.63,249.76Z"/><path class="cls-7" d="M105.55,247.67v.47a3,3,0,0,1,4.29-.57,2.22,2.22,0,0,1,.74,1.73,1.89,1.89,0,0,1-.37,1.21,1.2,1.2,0,0,1-1,.47,1,1,0,0,1-.66-.24.74.74,0,0,1-.27-.58.68.68,0,0,1,.2-.48.64.64,0,0,1,.48-.21l.22.05a.85.85,0,0,0,.1-.37,1,1,0,0,0-.43-.83,1.7,1.7,0,0,0-1.08-.34,1.72,1.72,0,0,0-1.77,1.19,6.73,6.73,0,0,0-.27,2.21v1.12q0,1.14,0,1.28.08,1,.53,1a2,2,0,0,0,.46-.06,1.45,1.45,0,0,1,.32,0,.48.48,0,0,1,.54.54q0,.59-.69.59h-.07a7.59,7.59,0,0,1-.77-.06,7.32,7.32,0,0,0-.77-.06c-.45,0-.81,0-1.07,0l-.95.08c-.46,0-.69-.2-.69-.6s.22-.53.65-.53l.26,0,.26.05.24,0q.43,0,.46-.78v-.87l-.05-3.86q-.05-1-.51-1a1.88,1.88,0,0,0-.37.05,1.89,1.89,0,0,1-.37.05.49.49,0,0,1-.56-.54q0-.59.73-.59l.51,0,.51,0,.44,0a1.09,1.09,0,0,1,.32,0C105.4,247.19,105.55,247.35,105.55,247.67Z"/><path class="cls-7" d="M119,250.69a2.1,2.1,0,0,1-.08.79q-.08.14-.49.14h-5.41a.48.48,0,0,0-.29.06.25.25,0,0,0-.07.2,3.06,3.06,0,0,0,.76,2.13,2.46,2.46,0,0,0,1.9.85,2.43,2.43,0,0,0,1.37-.41,1.86,1.86,0,0,0,.81-1l.15-.49a.53.53,0,0,1,.56-.41.56.56,0,0,1,.63.65,2.46,2.46,0,0,1-1.12,2,4.09,4.09,0,0,1-2.55.86,3.59,3.59,0,0,1-2.84-1.2,4.7,4.7,0,0,1-1.05-3.22,5,5,0,0,1,1.12-3.37,3.69,3.69,0,0,1,2.92-1.29A3.51,3.51,0,0,1,118,248,3.75,3.75,0,0,1,119,250.69Zm-6.17-.44q0,.24.37.24h4.06q.36,0,.36-.24a2.11,2.11,0,0,0-.68-1.56,2.22,2.22,0,0,0-1.6-.66,2.56,2.56,0,0,0-1.73.69A2,2,0,0,0,112.87,250.25Z"/><path class="cls-7" d="M123.88,246.9a3,3,0,0,1,1.9.59v-.07q0-.63.54-.63a.49.49,0,0,1,.56.54c0,.07,0,.24,0,.51a4.09,4.09,0,0,0-.06.68,6,6,0,0,0,0,.6q0,.39,0,.59,0,.65-.55.65a.49.49,0,0,1-.55-.54v-.56a1.09,1.09,0,0,0-.59-.88,2.42,2.42,0,0,0-1.33-.37,2.11,2.11,0,0,0-1.31.4,1.21,1.21,0,0,0-.53,1q0,1.09,1.5,1.29l1,.14q2.89.39,2.89,2.4a2.43,2.43,0,0,1-.93,2A3.75,3.75,0,0,1,124,256a3.87,3.87,0,0,1-2.44-.8v.32q0,.61-.58.61t-.63-.7.1-.88a3.39,3.39,0,0,0,0-.48,4.13,4.13,0,0,0-.07-.77,3.21,3.21,0,0,1-.07-.56c0-.4.18-.59.54-.59s.39.06.45.17a2.63,2.63,0,0,1,.11.9,1.4,1.4,0,0,0,.76,1.19,3.59,3.59,0,0,0,1.9.46,2.17,2.17,0,0,0,1.38-.42,1.31,1.31,0,0,0,.54-1.07q0-1.16-1.84-1.34a7.37,7.37,0,0,1-2.67-.69,1.83,1.83,0,0,1-.92-1.76,2.38,2.38,0,0,1,.9-1.93A3.56,3.56,0,0,1,123.88,246.9Z"/><path class="cls-7" d="M132.24,246.9a3,3,0,0,1,1.9.59v-.07q0-.63.54-.63a.49.49,0,0,1,.56.54c0,.07,0,.24,0,.51a4.09,4.09,0,0,0-.06.68,6,6,0,0,0,0,.6q0,.39,0,.59,0,.65-.55.65a.49.49,0,0,1-.55-.54v-.56a1.09,1.09,0,0,0-.59-.88,2.42,2.42,0,0,0-1.33-.37,2.11,2.11,0,0,0-1.31.4,1.21,1.21,0,0,0-.53,1q0,1.09,1.5,1.29l1,.14q2.89.39,2.89,2.4a2.43,2.43,0,0,1-.93,2,3.75,3.75,0,0,1-2.44.76,3.87,3.87,0,0,1-2.44-.8v.32q0,.61-.58.61t-.63-.7.1-.88a3.39,3.39,0,0,0,0-.48,4.13,4.13,0,0,0-.07-.77,3.21,3.21,0,0,1-.07-.56c0-.4.18-.59.54-.59s.39.06.45.17a2.63,2.63,0,0,1,.11.9,1.4,1.4,0,0,0,.76,1.19,3.59,3.59,0,0,0,1.9.46,2.17,2.17,0,0,0,1.38-.42,1.31,1.31,0,0,0,.54-1.07q0-1.16-1.84-1.34a7.37,7.37,0,0,1-2.67-.69,1.83,1.83,0,0,1-.92-1.76,2.38,2.38,0,0,1,.9-1.93A3.56,3.56,0,0,1,132.24,246.9Z"/><path class="cls-7" d="M140.94,256a3.6,3.6,0,0,1-2.86-1.23,5.62,5.62,0,0,1,0-6.61,3.66,3.66,0,0,1,2.9-1.23,3.71,3.71,0,0,1,2.92,1.21,4.77,4.77,0,0,1,1.07,3.28,4.86,4.86,0,0,1-1.11,3.33A3.72,3.72,0,0,1,140.94,256Zm.08-8a2.28,2.28,0,0,0-1.87.83,3.93,3.93,0,0,0-.75,2.36v.22a4.14,4.14,0,0,0,.67,2.51,2.2,2.2,0,0,0,1.88.91,2.33,2.33,0,0,0,1.95-.91,4,4,0,0,0,.71-2.52Q143.61,248,141,248Z"/><path class="cls-7" d="M159,249.42a5.84,5.84,0,0,1-1.26.41,2,2,0,0,1,1.37.75,3.41,3.41,0,0,1,.38,1.85v1q0,1.22.77,1.22t.79-1.45V252a2.25,2.25,0,0,1,.07-.67.53.53,0,0,1,.53-.29q.61,0,.61.71s0,.14,0,.37v1.24a2,2,0,0,0,0,.31,1.92,1.92,0,0,1-2.09,2.09,1.78,1.78,0,0,1-2-2v-1.46a2,2,0,0,0-.43-1.5,3,3,0,0,0-1.79-.37h-1.58q-.54,0-.54.66v1.31q0,1.26,0,1.43c.1.57.38.85.85.85l.36,0,.44,0a.49.49,0,0,1,.54.56q0,.59-.73.59l-.25,0-.92-.12a7.47,7.47,0,0,0-.93-.07,9.75,9.75,0,0,0-1.19.08l-.82.1-.25,0q-.73,0-.73-.61a.47.47,0,0,1,.53-.54l.46,0a1.35,1.35,0,0,0,.36.05q.87,0,.87-1.27v-6.82q0-1.27-.87-1.27l-.41,0-.41,0a.49.49,0,0,1-.37-.16.54.54,0,0,1-.15-.38q0-.6.75-.6l.24,0,.87.08q.34,0,.85,0t1.17,0l1.29-.07q.65,0,1.19,0,3.74,0,3.74,2.85A2.29,2.29,0,0,1,159,249.42Zm-4.71-.14h1.6a4.42,4.42,0,0,0,2.14-.41,1.74,1.74,0,0,0,.87-1.65q0-1.94-2.66-1.94a5.71,5.71,0,0,0-1.92.21.85.85,0,0,0-.52.84v2.5c0,.19,0,.31.1.37A.7.7,0,0,0,154.32,249.28Z"/><path class="cls-7" d="M167.12,256a3.6,3.6,0,0,1-2.86-1.23,5.62,5.62,0,0,1,0-6.61,3.66,3.66,0,0,1,2.9-1.23,3.71,3.71,0,0,1,2.92,1.21,4.77,4.77,0,0,1,1.07,3.28,4.86,4.86,0,0,1-1.11,3.33A3.72,3.72,0,0,1,167.12,256Zm.08-8a2.28,2.28,0,0,0-1.87.83,3.93,3.93,0,0,0-.75,2.36v.22a4.14,4.14,0,0,0,.67,2.51,2.2,2.2,0,0,0,1.88.91,2.33,2.33,0,0,0,1.95-.91,4,4,0,0,0,.71-2.52Q169.79,248,167.2,248Z"/><path class="cls-7" d="M179.8,255.91a1.57,1.57,0,0,1-1.72-1.21,3.06,3.06,0,0,1-2.72,1.28,3.35,3.35,0,0,1-2.2-.68,2.23,2.23,0,0,1-.83-1.82,2.21,2.21,0,0,1,1.21-2.07,3.16,3.16,0,0,1,.79-.33q.33-.08,1.33-.2a5.12,5.12,0,0,0,1.86-.43,1.09,1.09,0,0,0,.43-1,1.35,1.35,0,0,0-.48-1.1,2.07,2.07,0,0,0-1.35-.4,2.6,2.6,0,0,0-1.43.43q-.25.17-.25.36s.05.1.15.17a.66.66,0,0,1,.24.58.72.72,0,0,1-.25.56.9.9,0,0,1-.62.22,1,1,0,0,1-.74-.31,1,1,0,0,1-.3-.75,2,2,0,0,1,.94-1.63,3.81,3.81,0,0,1,2.29-.68q3.09,0,3.09,3v3.43a7.25,7.25,0,0,0,0,1q.1.59.58.59t.59-1.08v-.83q0-.54.52-.54t.55.82v1.05A1.51,1.51,0,0,1,179.8,255.91Zm-1.89-3.38v-1.21a2.18,2.18,0,0,1-.79.48,7.83,7.83,0,0,1-1.48.24q-1.93.19-1.93,1.43a1.24,1.24,0,0,0,.47,1,2,2,0,0,0,1.27.37,2.5,2.5,0,0,0,1.79-.62A2.3,2.3,0,0,0,177.91,252.53Z"/><path class="cls-7" d="M185.65,246.9a3,3,0,0,1,1.9.59v-.07q0-.63.54-.63a.49.49,0,0,1,.56.54c0,.07,0,.24,0,.51a4.09,4.09,0,0,0-.06.68,6,6,0,0,0,0,.6q0,.39,0,.59,0,.65-.55.65a.49.49,0,0,1-.55-.54v-.56a1.09,1.09,0,0,0-.59-.88,2.42,2.42,0,0,0-1.33-.37,2.11,2.11,0,0,0-1.31.4,1.21,1.21,0,0,0-.53,1q0,1.09,1.5,1.29l1,.14q2.89.39,2.89,2.4a2.43,2.43,0,0,1-.93,2,3.75,3.75,0,0,1-2.44.76,3.87,3.87,0,0,1-2.44-.8v.32q0,.61-.58.61t-.63-.7.1-.88a3.39,3.39,0,0,0,0-.48,4.13,4.13,0,0,0-.07-.77,3.21,3.21,0,0,1-.07-.56c0-.4.18-.59.54-.59s.39.06.45.17a2.63,2.63,0,0,1,.11.9,1.4,1.4,0,0,0,.76,1.19,3.59,3.59,0,0,0,1.9.46,2.17,2.17,0,0,0,1.38-.42,1.31,1.31,0,0,0,.54-1.07q0-1.16-1.84-1.34a7.37,7.37,0,0,1-2.67-.69,1.83,1.83,0,0,1-.92-1.76,2.38,2.38,0,0,1,.9-1.93A3.56,3.56,0,0,1,185.65,246.9Z"/><path class="cls-7" d="M195.17,253.34v-1.09q0-.7.61-.7t.59.78a5.07,5.07,0,0,1-.47,2.58,2.33,2.33,0,0,1-2.11,1,2.13,2.13,0,0,1-1.92-.87,4,4,0,0,1-.42-2.14v-4.08c0-.24-.11-.36-.33-.36h-.56a.63.63,0,0,1-.46-.18.59.59,0,0,1-.18-.43.6.6,0,0,1,.18-.42.54.54,0,0,1,.4-.19h.66q.29,0,.29-.32v-1.75a.58.58,0,0,1,.66-.65q.61,0,.61.65V247c0,.17.1.25.31.25h1.85q.65,0,.65.6t-.7.63H193c-.16,0-.24.12-.24.36V253q0,1.78,1.19,1.78T195.17,253.34Z"/><path class="cls-7" d="M198.89,256a1,1,0,0,1-.75-.31,1.09,1.09,0,0,1,0-1.51,1,1,0,0,1,1.5,0,1.09,1.09,0,0,1,0,1.51A1,1,0,0,1,198.89,256Z"/></g></g></svg>