<svg xmlns="http://www.w3.org/2000/svg" viewBox="0 0 159.22 134.11"><defs><style>.cls-1{fill:#4892ce;}</style></defs><title>contact</title><g id="Layer_2" data-name="Layer 2"><g id="Layer_1-2" data-name="Layer 1"><path class="cls-1" d="M84.06,1.68a6.73,6.73,0,0,0-8.88,0L1,46.41a2.1,2.1,0,0,0-1,1.79v79.33a6.59,6.59,0,0,0,6.6,6.57h146a6.59,6.59,0,0,0,6.6-6.57V48.21a2.1,2.1,0,0,0-1-1.79ZM77.53,5.14a2.22,2.22,0,0,0,.4-.31,2.37,2.37,0,0,1,3.36,0,2.39,2.39,0,0,0,.4.31l72.22,43.58L92.34,85.32a2.1,2.1,0,0,0,1.07,3.9,2.07,2.07,0,0,0,1.07-.29l60.6-36v74.45l-71-47.23c-2.26-1.8-6.68-1.8-8.79-.11L4.15,127.36V52.94L65.23,89.09a2.1,2.1,0,1,0,2.15-3.61L5.31,48.72Zm73.73,124.77H7.93L77.76,83.43a4.18,4.18,0,0,1,3.85.11ZM8.87,54.45H151a2.1,2.1,0,1,0,0-4.19H8.87a2.1,2.1,0,1,0,0,4.19Z"/></g></g></svg>