<?xml version="1.0" encoding="utf-8"?>
<!-- Generator: Adobe Illustrator 21.1.0, SVG Export Plug-In . SVG Version: 6.00 Build 0)  -->
<svg version="1.1" id="Layer_1" xmlns="http://www.w3.org/2000/svg" xmlns:xlink="http://www.w3.org/1999/xlink" x="0px" y="0px"
	 viewBox="0 0 273 273" style="enable-background:new 0 0 273 273;" xml:space="preserve">
<style type="text/css">
	.st0{fill:#FFFFFF;}
	.st1{fill:#F2EBE2;}
	.st2{fill:#CE2028;}
	.st3{fill:#82602E;}
	.st4{fill:#B59158;}
	.st5{fill:#F9C8D3;}
	.st6{fill:#2D4099;}
	.st7{fill:#E5D31C;}
	.st8{fill:#F68D1E;}
	.st9{fill:#38211D;}
	.st10{fill:#2A348D;}
	.st11{fill:#B72025;}
	.st12{fill:#572B84;}
	.st13{fill:#CD4627;}
	.st14{fill:#1FB471;}
	.st15{fill:#AE4B9B;}
	.st16{fill:#55B848;}
	.st17{fill:#231F20;}
</style>
<title>coco</title>
<rect class="st0" width="273" height="273"/>
<circle class="st1" cx="136.5" cy="127.1" r="58.9"/>
<g>
	<path class="st2" d="M130.9,129.6c-0.6,0-1.1,0.2-1.5,0.5c-0.4-0.3-0.9-0.6-1.5-0.6c-1.4-0.1-2.5,1-2.6,2.4c-0.1,1.4,4,5.8,4,5.8
		s4-4.1,4-5.5C133.3,130.8,132.3,129.6,130.9,129.6z"/>
	<path class="st3" d="M145.5,128.4c0,0-17,29.1-20.6,32c0,0-5.9,8.7-6.5-2c0,0,1.5-28.1,3.7-37.1C124.2,112.3,152,125.7,145.5,128.4
		z"/>
	<polygon class="st4" points="143.6,128.6 142.3,130.6 139.6,126.3 	"/>
	<polygon class="st4" points="122.9,126.1 123.8,120.3 133.2,121.6 131,125.4 124.2,126.5 	"/>
	<polygon class="st4" points="141.2,132.7 136.9,126.1 133.4,126.3 126.4,127.9 136.3,137.1 138.5,137.6 	"/>
	<path class="st4" d="M133.6,136.8c0,0-6.8-7.4-10.4-7.7l-0.6,0.2l-1.1,7.5l1.3,1.4C122.7,138.1,131.4,136.9,133.6,136.8z"/>
	<path class="st4" d="M136.5,140.7l-0.8-1.4c0,0-7.1-0.9-11,0.5c0,0,5.6,7,5.6,8.3l1.7,0.1L136.5,140.7z"/>
	<path class="st4" d="M128.2,148.1c0,0-5.2-7.6-5.9-7.7s-1.1,0.2-1.1,0.2s-0.9,8.2-0.6,8.6C120.7,149.7,122.4,148.4,128.2,148.1z"/>
	<path class="st4" d="M129.4,151.7l-0.5-1.3c0,0-4.6-0.2-8.3,1.2c0,0-1,8.4,0.3,9.7S129.4,151.7,129.4,151.7z"/>
	<path class="st5" d="M115.7,107c0.7-2.4,3.8-3.7,7.3-3.3c0-0.2,0.1-0.4,0.2-0.6c2.5-8.1,11.7-12.4,20.6-9.7
		c8.9,2.7,14.2,11.5,11.7,19.5c-0.3,1.1-0.8,2.2-1.4,3.2c2.6,2,3.9,4.9,3.1,7.5c-1.1,3.7-6.1,5.5-11.1,4c-1-0.3-1.8-0.7-2.6-1.1
		c-2.1,1.7-5.1,2.3-8,1.5c-1.9-0.6-3.4-1.7-4.5-3.1c-1.4-0.9-2.4-2.1-2.7-3.5c-1.6,0.2-3.4,0.1-5.3-0.5c-4.6-1.4-7.6-4.8-6.7-7.6
		c0.2-0.6,0.5-1.2,1-1.6C115.8,110.3,115.2,108.6,115.7,107z"/>
	<path class="st2" d="M127.1,129.7c0.6,0,1.2,0.2,1.7,0.6c0.5-0.4,1.1-0.6,1.7-0.6c1.5,0,2.8,1.3,2.8,2.8c0,1.5-4.7,6.3-4.7,6.3
		s-4.3-4.8-4.2-6.4C124.4,130.9,125.6,129.7,127.1,129.7z"/>
	<g>
		<path class="st6" d="M143.7,98.6c-0.8,0.2-1.5,0.8-1.9,1.6c-0.2,0.4,0.4,0.8,0.6,0.4c0.3-0.6,0.8-1.1,1.4-1.3
			C144.4,99.2,144.2,98.5,143.7,98.6z"/>
		<path class="st7" d="M132.6,122.6c-0.3,1.6-0.2,3.2,0.4,4.7c0.2,0.4,0.9,0.2,0.7-0.2c-0.6-1.4-0.7-2.8-0.4-4.3
			C133.4,122.3,132.7,122.1,132.6,122.6z"/>
		<path class="st8" d="M144.9,103.6c0.6,1.1,1.3,2.1,2.3,2.9c0.4,0.3,0.9-0.2,0.5-0.5c-0.9-0.8-1.6-1.7-2.2-2.8
			C145.4,102.8,144.7,103.2,144.9,103.6z"/>
		<path class="st7" d="M143.3,110.9c0.7,0.9,1.5,1.7,2.5,2.2c0.4,0.2,0.8-0.4,0.4-0.6c-0.9-0.5-1.6-1.1-2.2-1.9
			C143.6,110.2,143,110.5,143.3,110.9z"/>
		<path class="st9" d="M145.2,115.5c0.3,0.4,0.5,0.8,0.8,1.2c0.3,0.4,0.9,0,0.6-0.4c-0.3-0.4-0.5-0.8-0.8-1.2
			C145.6,114.7,144.9,115.1,145.2,115.5z"/>
		<path class="st9" d="M148.9,108c-1.2,0.7-2.3,1.5-3.4,2.4c-0.4,0.3,0.2,0.8,0.5,0.5c1-0.9,2.1-1.6,3.2-2.3
			C149.7,108.4,149.3,107.7,148.9,108z"/>
		<path class="st10" d="M132.1,94.6c0.2,1.1,0.5,2.1,1.1,3.1c0.2,0.4,0.9,0,0.6-0.4c-0.5-0.9-0.9-1.9-1-2.9
			C132.8,93.9,132.1,94.1,132.1,94.6z"/>
		<path class="st8" d="M134,108.2c0.2,0.8,0.6,1.4,1.1,2c0.3,0.3,0.9-0.2,0.5-0.5c-0.5-0.5-0.8-1-0.9-1.6
			C134.6,107.5,133.9,107.7,134,108.2z"/>
		<path class="st11" d="M126.6,102.8c0.1,0.7,0.1,1.5,0.2,2.2c0,0.5,0.8,0.5,0.7,0c-0.1-0.7-0.1-1.5-0.2-2.2
			C127.3,102.3,126.6,102.3,126.6,102.8z"/>
		<path class="st12" d="M141.8,107c0.5,0,0.9,0,1.4,0c0.5,0,0.5-0.7,0-0.7c-0.5,0-0.9,0-1.4,0C141.3,106.3,141.3,107,141.8,107z"/>
		<path class="st0" d="M131,100.3c0.6,0.1,1.1,0.3,1.5,0.6c0.4,0.3,0.8-0.4,0.4-0.6c-0.5-0.4-1.1-0.6-1.7-0.7
			C130.7,99.5,130.5,100.2,131,100.3z"/>
		<path class="st7" d="M137.6,99.8c-0.1,1.4-0.1,2.7,0.1,4.1c0.1,0.5,0.8,0.5,0.7,0c-0.2-1.3-0.2-2.7-0.1-4.1
			C138.4,99.3,137.7,99.3,137.6,99.8z"/>
		<path class="st13" d="M131.2,103.9c1.1,0.3,2.2,0.8,3.1,1.4c0.4,0.3,0.8-0.4,0.4-0.6c-1-0.7-2.1-1.2-3.3-1.5
			C131,103.1,130.8,103.8,131.2,103.9z"/>
		<path class="st6" d="M139,108.5c-0.7,0.8-1.3,1.8-1.5,2.9c-0.1,0.5,0.6,0.7,0.7,0.2c0.2-1,0.6-1.8,1.3-2.6
			C139.9,108.7,139.3,108.1,139,108.5z"/>
		<path class="st14" d="M135.6,94.3c1.1,0,2.2,0.1,3.3,0.4c0.5,0.1,0.7-0.6,0.2-0.7c-1.2-0.3-2.3-0.4-3.5-0.4
			C135.1,93.5,135.1,94.3,135.6,94.3z"/>
		<path class="st15" d="M151.1,113.2c0.1-1.2,1-2.3,2.3-2.5c0.5-0.1,0.5-0.8,0-0.7c-1.6,0.2-2.9,1.5-3,3.2
			C150.3,113.6,151.1,113.6,151.1,113.2z"/>
		<path class="st15" d="M128.9,114.1c0.5,0,0.9,0,1.4,0c0.5,0,0.5-0.7,0-0.7c-0.5,0-0.9,0-1.4,0
			C128.4,113.3,128.4,114.1,128.9,114.1z"/>
		<path class="st12" d="M124.7,106.8c-0.1,1.4-0.1,2.7,0.1,4.1c0.1,0.5,0.8,0.5,0.7,0c-0.2-1.3-0.2-2.7-0.1-4.1
			C125.5,106.4,124.7,106.4,124.7,106.8z"/>
		<path class="st9" d="M126.1,115.6c-0.7,0.8-1.3,1.8-1.5,2.9c-0.1,0.5,0.6,0.7,0.7,0.2c0.2-1,0.6-1.8,1.3-2.6
			C126.9,115.7,126.4,115.2,126.1,115.6z"/>
		<path class="st0" d="M135.9,105.3c-0.3,1.6-0.2,3.2,0.4,4.7c0.2,0.4,0.9,0.2,0.7-0.2c-0.6-1.4-0.7-2.8-0.4-4.3
			C136.7,105.1,136,104.9,135.9,105.3z"/>
		<path class="st9" d="M132,110.7c0.6,1.1,1.3,2.1,2.3,2.9c0.4,0.3,0.9-0.2,0.5-0.5c-0.9-0.8-1.6-1.7-2.2-2.8
			C132.4,109.9,131.8,110.2,132,110.7z"/>
		<path class="st16" d="M130.3,118c0.7,0.9,1.5,1.7,2.5,2.2c0.4,0.2,0.8-0.4,0.4-0.6c-0.9-0.5-1.6-1.1-2.2-1.9
			C130.7,117.2,130.1,117.6,130.3,118z"/>
		<path class="st0" d="M139.2,117.2c-1.1-0.2-2.2,0-3.2,0.4c-0.4,0.2-0.2,0.9,0.2,0.7c0.9-0.4,1.9-0.5,2.8-0.4
			C139.5,118,139.7,117.3,139.2,117.2z"/>
		<path class="st7" d="M156.4,116.4c-1.5,0.6-2.8,1.7-3.7,3c-0.3,0.4,0.4,0.8,0.6,0.4c0.8-1.2,1.9-2.1,3.3-2.7
			C157,117,156.8,116.2,156.4,116.4z"/>
		<path class="st12" d="M149.8,116.2c-0.6,1.1-1,2.3-1.2,3.6c-0.1,0.5,0.7,0.5,0.7,0c0.1-1.1,0.5-2.2,1.1-3.2
			C150.7,116.1,150,115.7,149.8,116.2z"/>
		<path class="st13" d="M142.8,118.9c-0.4,1-0.5,2.1-0.4,3.2c0,0.5,0.8,0.5,0.7,0c-0.1-1,0-2,0.4-3
			C143.6,118.7,142.9,118.5,142.8,118.9z"/>
	</g>
</g>
<g>
	<path class="st17" d="M18.1,19.9c1.7,0,3.2,0.6,4.4,1.9c0-0.1,0-0.1,0-0.3c0-1,0.5-1.5,1.6-1.5c0.5,0,0.9,0.2,1.2,0.5
		c0.3,0.3,0.5,0.7,0.5,1.2c0,0.2,0,0.6-0.1,1c-0.1,0.7-0.1,1.2-0.1,1.6c0,0.2,0,0.6,0.1,1c0.1,0.5,0.1,0.8,0.1,1
		c0,0.5-0.2,1-0.6,1.3s-0.9,0.5-1.5,0.5c-1.3,0-2-0.6-2-1.7l0-0.8c0-0.6-0.2-1.1-0.7-1.4c-0.5-0.4-1.1-0.6-1.9-0.6
		c-2.4,0-3.5,1.9-3.5,5.6c0,1.9,0.3,3.4,0.9,4.2c0.6,0.9,1.5,1.3,2.7,1.3c0.8,0,1.4-0.2,1.9-0.5c0.5-0.4,0.7-0.8,0.7-1.4l0-1
		c0-0.5,0.2-1,0.5-1.3c0.4-0.3,0.8-0.5,1.4-0.5c0.7,0,1.3,0.2,1.8,0.7c0.4,0.5,0.6,1.2,0.6,2c0,1.7-0.7,3-2,4.1
		c-1.3,1.1-3,1.6-5.1,1.6c-2.6,0-4.6-0.8-6.1-2.5c-1.5-1.6-2.2-3.9-2.2-6.7c0-2.9,0.7-5.2,2-6.9C14,20.7,15.8,19.9,18.1,19.9z"/>
	<path class="st17" d="M34.2,38.4c-2.2,0-3.9-0.6-5.1-1.9c-1.2-1.2-1.8-3-1.8-5.2c0-2.2,0.6-4,1.8-5.2c1.2-1.2,2.8-1.9,5-1.9
		c2.1,0,3.8,0.6,5,1.9c1.2,1.2,1.8,2.9,1.8,5.1c0,2.3-0.6,4-1.8,5.3C38,37.8,36.3,38.4,34.2,38.4z M34.1,27.6c-0.8,0-1.4,0.3-1.8,1
		c-0.4,0.7-0.7,1.6-0.7,2.8c0,1.2,0.2,2.1,0.7,2.8c0.5,0.7,1.1,1,1.9,1c1.6,0,2.5-1.3,2.5-3.8S35.8,27.6,34.1,27.6z"/>
	<path class="st17" d="M47.9,28.3v1.1l0,1.6l-0.1,1.8c0,0.6,0,0.8,0,0.7c0,1,0.3,1.6,1,1.6c0.6,0,1-0.5,1-1.4c0-0.1,0-0.2,0-0.3
		c0-0.1,0-0.2,0-0.3c0-0.1,0-0.2,0-0.3c0-1,0.5-1.4,1.4-1.4c1.1,0,1.7,0.9,1.7,2.7c0,1.4-0.4,2.5-1.2,3.3c-0.8,0.8-2,1.2-3.5,1.2
		c-2.9,0-4.4-1.5-4.4-4.6c0-0.5,0-1.2,0.1-2.2c0-1,0.1-1.7,0.1-2.2v-0.8c0-0.4,0-0.7-0.1-0.8c-0.1-0.1-0.3-0.2-0.6-0.2h-0.4
		c-0.3,0-0.6-0.1-0.8-0.4c-0.2-0.3-0.3-0.6-0.3-1c0-0.4,0.1-0.8,0.3-1c0.2-0.3,0.5-0.4,0.8-0.4h0.5c0.4,0,0.7-0.1,0.7-0.4
		c0.1-0.1,0.1-0.4,0.1-0.7v-1.3c0-0.6,0.2-1,0.5-1.3c0.3-0.2,0.9-0.3,1.8-0.3c0.6,0,1,0.1,1.3,0.3c0.2,0.2,0.3,0.6,0.3,1.2v1.4
		c0,0.5,0,0.8,0.1,1c0.1,0.1,0.3,0.2,0.8,0.2h1.9c1,0,1.6,0.5,1.6,1.5c0,0.9-0.5,1.4-1.4,1.4h-2.2c-0.4,0-0.6,0.1-0.7,0.2
		C48,27.8,47.9,28,47.9,28.3z"/>
	<path class="st17" d="M59.5,28.3v1.1l0,1.6l-0.1,1.8c0,0.6,0,0.8,0,0.7c0,1,0.3,1.6,1,1.6c0.6,0,1-0.5,1-1.4c0-0.1,0-0.2,0-0.3
		c0-0.1,0-0.2,0-0.3c0-0.1,0-0.2,0-0.3c0-1,0.5-1.4,1.4-1.4c1.1,0,1.7,0.9,1.7,2.7c0,1.4-0.4,2.5-1.2,3.3c-0.8,0.8-2,1.2-3.5,1.2
		c-2.9,0-4.4-1.5-4.4-4.6c0-0.5,0-1.2,0.1-2.2c0-1,0.1-1.7,0.1-2.2v-0.8c0-0.4,0-0.7-0.1-0.8c-0.1-0.1-0.3-0.2-0.6-0.2h-0.4
		c-0.3,0-0.6-0.1-0.8-0.4c-0.2-0.3-0.3-0.6-0.3-1c0-0.4,0.1-0.8,0.3-1c0.2-0.3,0.5-0.4,0.8-0.4h0.5c0.4,0,0.7-0.1,0.7-0.4
		c0.1-0.1,0.1-0.4,0.1-0.7v-1.3c0-0.6,0.2-1,0.5-1.3c0.3-0.2,0.9-0.3,1.8-0.3c0.6,0,1,0.1,1.3,0.3c0.2,0.2,0.3,0.6,0.3,1.2v1.4
		c0,0.5,0,0.8,0.1,1c0.1,0.1,0.3,0.2,0.8,0.2h1.9c1,0,1.6,0.5,1.6,1.5c0,0.9-0.5,1.4-1.4,1.4h-2.2c-0.4,0-0.6,0.1-0.7,0.2
		S59.5,28,59.5,28.3z"/>
	<path class="st17" d="M72.3,38.4c-2.2,0-3.9-0.6-5.1-1.9c-1.2-1.2-1.8-3-1.8-5.2c0-2.2,0.6-4,1.8-5.2c1.2-1.2,2.8-1.9,5-1.9
		c2.1,0,3.8,0.6,5,1.9c1.2,1.2,1.8,2.9,1.8,5.1c0,2.3-0.6,4-1.8,5.3C76,37.8,74.4,38.4,72.3,38.4z M72.2,27.6c-0.8,0-1.4,0.3-1.8,1
		c-0.4,0.7-0.7,1.6-0.7,2.8c0,1.2,0.2,2.1,0.7,2.8c0.5,0.7,1.1,1,1.9,1c1.6,0,2.5-1.3,2.5-3.8S73.8,27.6,72.2,27.6z"/>
	<path class="st17" d="M85.8,25.4v1.3c1.4-1.6,2.9-2.4,4.6-2.4c1.8,0,3.1,0.7,3.9,2.1c0.4,0.7,0.6,1.8,0.6,3.3v4
		c0,0.9,0.2,1.3,0.5,1.3c0.1,0,0.2,0,0.4-0.1c0.1,0,0.2-0.1,0.4-0.1c0.8,0,1.2,0.5,1.2,1.4c0,1.2-0.5,1.8-1.6,1.8
		c-0.3,0-0.7,0-1.3-0.1c-0.6-0.1-1-0.1-1.3-0.1c-0.4,0-0.9,0-1.4,0.1c-0.5,0.1-0.9,0.1-1.2,0.1c-1,0-1.6-0.5-1.6-1.6
		c0-0.9,0.4-1.4,1.1-1.5c0.5,0,0.7-0.3,0.7-0.7v-3.7c0-1-0.1-1.7-0.4-2.2c-0.3-0.4-0.7-0.6-1.3-0.6c-0.7,0-1.3,0.2-1.8,0.7
		c-0.5,0.5-0.7,1.1-0.7,1.9v2.8c0,0.8,0,1.3,0.1,1.4c0.1,0.2,0.3,0.3,0.6,0.3c0.6,0.1,1,0.6,1,1.4c0,1.1-0.5,1.7-1.4,1.7
		c-0.3,0-0.6,0-1-0.1c-0.7-0.1-1.1-0.1-1.5-0.1c-0.3,0-0.8,0-1.4,0.1c-0.6,0.1-1.1,0.1-1.4,0.1c-1.1,0-1.7-0.6-1.7-1.8
		c0-1,0.4-1.5,1.3-1.5c0.1,0,0.3,0,0.5,0.1c0.2,0.1,0.3,0.1,0.4,0.1c0.3,0,0.5-0.5,0.5-1.5v-4.3c0-1-0.2-1.5-0.5-1.5
		c-0.1,0-0.2,0-0.4,0.1c-0.2,0.1-0.4,0.1-0.5,0.1c-0.8,0-1.3-0.5-1.3-1.5c0-0.5,0.1-1,0.4-1.3c0.3-0.3,0.7-0.5,1.2-0.5
		c0.1,0,0.4,0,0.9,0.1c0.3,0.1,0.5,0.1,0.7,0.1c0.2,0,0.6,0,1.1-0.1c0.5-0.1,0.8-0.1,0.8-0.1C85.6,24.7,85.8,24.9,85.8,25.4z"/>
	<path class="st17" d="M112.4,19.9c1.7,0,3.2,0.6,4.4,1.9c0-0.1,0-0.1,0-0.3c0-1,0.5-1.5,1.6-1.5c0.5,0,0.9,0.2,1.2,0.5
		c0.3,0.3,0.5,0.7,0.5,1.2c0,0.2,0,0.6-0.1,1c-0.1,0.7-0.1,1.2-0.1,1.6c0,0.2,0,0.6,0.1,1c0.1,0.5,0.1,0.8,0.1,1
		c0,0.5-0.2,1-0.6,1.3s-0.9,0.5-1.5,0.5c-1.3,0-2-0.6-2-1.7l0-0.8c0-0.6-0.2-1.1-0.7-1.4c-0.5-0.4-1.1-0.6-1.9-0.6
		c-2.4,0-3.5,1.9-3.5,5.6c0,1.9,0.3,3.4,0.9,4.2c0.6,0.9,1.5,1.3,2.7,1.3c0.8,0,1.4-0.2,1.9-0.5c0.5-0.4,0.7-0.8,0.7-1.4l0-1
		c0-0.5,0.2-1,0.5-1.3c0.4-0.3,0.8-0.5,1.4-0.5c0.7,0,1.3,0.2,1.8,0.7c0.4,0.5,0.6,1.2,0.6,2c0,1.7-0.7,3-2,4.1
		c-1.3,1.1-3,1.6-5.1,1.6c-2.6,0-4.6-0.8-6.1-2.5c-1.5-1.6-2.2-3.9-2.2-6.7c0-2.9,0.7-5.2,2-6.9C108.2,20.7,110,19.9,112.4,19.9z"/>
	<path class="st17" d="M133.5,38.4c-1.4,0-2.4-0.6-2.9-1.7c-1.2,1.2-2.7,1.7-4.4,1.7c-1.4,0-2.5-0.4-3.3-1.1
		c-0.8-0.7-1.2-1.7-1.2-2.9c0-1.9,0.8-3,2.4-3.6c0.7-0.2,1.5-0.4,2.4-0.6c1.3-0.2,2.1-0.5,2.6-0.7c0.5-0.3,0.7-0.7,0.7-1.3
		c0-0.4-0.2-0.7-0.5-1c-0.3-0.3-0.8-0.4-1.3-0.4c-0.6,0-0.9,0.2-0.9,0.6c0,0.1,0,0.2,0,0.4v0.1c0,0.5-0.2,0.9-0.6,1.2
		c-0.4,0.3-0.9,0.5-1.5,0.5c-0.7,0-1.3-0.2-1.7-0.6c-0.5-0.4-0.7-1-0.7-1.6c0-1,0.5-1.7,1.5-2.2c1-0.5,2.4-0.8,4.2-0.8
		c1.9,0,3.3,0.3,4.3,0.9c1,0.6,1.5,1.8,1.5,3.5v5.5c0,0.6,0.1,0.8,0.4,0.8c0.1,0,0.3,0,0.4,0c0.1,0,0.1,0,0.2,0c0.4,0,0.7,0.1,1,0.4
		c0.3,0.3,0.4,0.6,0.4,1c0,0.6-0.3,1.1-0.8,1.4C135,38.2,134.3,38.4,133.5,38.4z M129.7,32.8v-0.6c-0.1,0.1-0.9,0.3-2.3,0.7
		c-1,0.2-1.5,0.6-1.5,1.1c0,0.8,0.5,1.2,1.4,1.2C128.9,35.2,129.7,34.4,129.7,32.8z"/>
	<path class="st17" d="M142.5,25.4v1.3c1.4-1.6,2.9-2.4,4.6-2.4c1.8,0,3.1,0.7,3.9,2.1c0.4,0.7,0.6,1.8,0.6,3.3v4
		c0,0.9,0.2,1.3,0.5,1.3c0.1,0,0.2,0,0.4-0.1c0.1,0,0.2-0.1,0.4-0.1c0.8,0,1.2,0.5,1.2,1.4c0,1.2-0.5,1.8-1.6,1.8
		c-0.3,0-0.7,0-1.3-0.1c-0.6-0.1-1-0.1-1.3-0.1c-0.4,0-0.9,0-1.4,0.1c-0.5,0.1-0.9,0.1-1.2,0.1c-1,0-1.6-0.5-1.6-1.6
		c0-0.9,0.4-1.4,1.1-1.5c0.5,0,0.7-0.3,0.7-0.7v-3.7c0-1-0.1-1.7-0.4-2.2c-0.3-0.4-0.7-0.6-1.3-0.6c-0.7,0-1.3,0.2-1.8,0.7
		c-0.5,0.5-0.7,1.1-0.7,1.9v2.8c0,0.8,0,1.3,0.1,1.4c0.1,0.2,0.3,0.3,0.6,0.3c0.6,0.1,1,0.6,1,1.4c0,1.1-0.5,1.7-1.4,1.7
		c-0.3,0-0.6,0-1-0.1c-0.7-0.1-1.1-0.1-1.5-0.1c-0.3,0-0.8,0-1.4,0.1c-0.6,0.1-1.1,0.1-1.4,0.1c-1.1,0-1.7-0.6-1.7-1.8
		c0-1,0.4-1.5,1.3-1.5c0.1,0,0.3,0,0.5,0.1c0.2,0.1,0.3,0.1,0.4,0.1c0.3,0,0.5-0.5,0.5-1.5v-4.3c0-1-0.2-1.5-0.5-1.5
		c-0.1,0-0.2,0-0.4,0.1c-0.2,0.1-0.4,0.1-0.5,0.1c-0.8,0-1.3-0.5-1.3-1.5c0-0.5,0.1-1,0.4-1.3c0.3-0.3,0.7-0.5,1.2-0.5
		c0.1,0,0.4,0,0.9,0.1c0.3,0.1,0.5,0.1,0.7,0.1c0.2,0,0.6,0,1.1-0.1c0.5-0.1,0.8-0.1,0.8-0.1C142.3,24.7,142.5,24.9,142.5,25.4z"/>
	<path class="st17" d="M160.5,24.5c1.3,0,2.6,0.5,3.7,1.6v-1.9c0-0.6-0.2-1-0.7-1c-0.1,0-0.3,0-0.6,0.1c-0.2,0.1-0.5,0.1-0.7,0.1
		c-0.3,0-0.6-0.1-0.8-0.4c-0.2-0.3-0.3-0.6-0.3-1.1c0-1.1,0.6-1.7,1.8-1.7c0.4,0,0.7,0,0.8,0c0.7,0.1,1.2,0.1,1.4,0.1
		c0.2,0,0.6,0,1-0.1c0.4,0,0.8-0.1,1-0.1c0.4,0,0.7,0.1,0.9,0.3c0.2,0.2,0.3,0.6,0.3,1.1v12c0,0.9,0.2,1.3,0.5,1.3
		c0.1,0,0.2,0,0.4-0.1c0.1,0,0.2-0.1,0.4-0.1c0.8,0,1.1,0.4,1.1,1.3c0,0.5-0.1,1-0.4,1.3c-0.3,0.3-0.6,0.5-1.1,0.5H169l-0.9-0.2
		c-0.2,0-0.5-0.1-0.9-0.1c-0.5,0-0.8,0-1.1,0.1c-0.4,0.1-0.7,0.1-0.7,0.1c-0.5,0-0.8-0.3-0.8-1v-1c-0.9,1.6-2.3,2.4-4.1,2.4
		c-1.6,0-3-0.7-4-2c-1-1.3-1.6-3-1.6-5c0-2.1,0.5-3.7,1.5-5C157.4,25.1,158.8,24.5,160.5,24.5z M161.4,27.8c-0.7,0-1.2,0.3-1.6,0.9
		s-0.6,1.5-0.7,2.5v0.3c0,1.1,0.2,1.9,0.6,2.5c0.4,0.6,1,0.9,1.7,0.9c0.8,0,1.4-0.3,1.9-1c0.5-0.7,0.7-1.6,0.7-2.7
		c0-1.1-0.2-1.9-0.7-2.6C162.8,28.1,162.2,27.8,161.4,27.8z"/>
	<path class="st17" d="M177.6,28.7l1.8,5.7l1.8-5.4c0.1-0.4,0.2-0.7,0.2-1c0-0.2-0.1-0.3-0.4-0.4l-0.5-0.2c-0.4-0.1-0.6-0.5-0.6-1.1
		c0-0.4,0.1-0.8,0.4-1.1c0.3-0.3,0.6-0.4,1-0.4c0.3,0,0.7,0,1.2,0.1c0.5,0.1,1,0.1,1.2,0.1c0.3,0,0.7,0,1.3-0.1
		c0.6-0.1,1-0.1,1.3-0.1c1.1,0,1.6,0.6,1.6,1.7c0,0.4-0.1,0.8-0.4,1.1c-0.2,0.3-0.5,0.5-0.9,0.5c-0.1,0-0.2,0-0.4-0.1
		c-0.2,0-0.3-0.1-0.4-0.1c-0.3,0-0.6,0.3-0.8,0.8l-0.3,0.9l-2.3,5.9c-0.7,1.8-1.2,3-1.5,3.6c-0.3,0.5-0.7,1.1-1.2,1.8
		c-1.4,1.8-3.1,2.7-5.2,2.7c-1.3,0-2.3-0.3-3.1-0.9c-0.8-0.6-1.2-1.4-1.2-2.3c0-0.7,0.2-1.2,0.6-1.6c0.4-0.4,0.9-0.6,1.6-0.6
		c0.5,0,1,0.2,1.3,0.5c0.3,0.3,0.5,0.7,0.5,1.3c0,0.2,0,0.4-0.1,0.6c0.2,0.1,0.5,0.2,0.7,0.2c0.5,0,0.9-0.3,1.4-0.8
		c0.4-0.6,0.6-1,0.6-1.4c0-0.4-0.3-1.2-0.9-2.7l-3-7c-0.2-0.5-0.4-0.7-0.6-0.7c0,0-0.2,0-0.4,0.1c0,0-0.1,0-0.1,0
		c-0.1,0-0.1,0-0.1,0c-0.9,0-1.3-0.5-1.3-1.5c0-0.5,0.2-0.9,0.5-1.3c0.3-0.3,0.7-0.5,1.2-0.5c0.3,0,0.7,0,1.3,0.1
		c0.6,0.1,1,0.1,1.3,0.1c0.3,0,0.9,0,1.7-0.1c0.8-0.1,1.2-0.1,1.3-0.1c1,0,1.5,0.5,1.5,1.5c0,0.7-0.4,1.1-1.1,1.3
		c-0.4,0.1-0.6,0.2-0.6,0.5C177.4,28.1,177.5,28.3,177.6,28.7z"/>
	<path class="st17" d="M212,24.6c0,1.9-1.1,3.2-3.3,3.7l0.7,0.3c1.4,0.5,2.3,1.3,2.7,2.2c0.3,0.7,0.5,1.4,0.5,2.1
		c0,1.7-0.6,3-1.8,3.9c-1.2,0.9-2.9,1.4-5.1,1.4c-0.7,0-1.4,0-2.2-0.1l-1.9-0.1c-0.5,0-1-0.1-1.6-0.1c-0.4,0-1,0-1.9,0.1
		s-1.4,0.1-1.7,0.1h-0.2c-0.6,0-1-0.2-1.4-0.5c-0.3-0.4-0.5-0.8-0.5-1.4c0-0.5,0.1-0.9,0.4-1.2s0.6-0.5,1-0.5c0.2,0,0.4,0,0.6,0.1
		c0.3,0.1,0.5,0.1,0.6,0.1c0.5,0,0.7-0.6,0.7-1.8v-7.3c0-1.2-0.2-1.8-0.7-1.8c-0.1,0-0.3,0-0.6,0.1c-0.3,0.1-0.5,0.1-0.6,0.1
		c-0.4,0-0.7-0.2-1-0.5c-0.3-0.3-0.4-0.7-0.4-1.2c0-0.6,0.2-1.1,0.5-1.4c0.3-0.4,0.8-0.5,1.4-0.5c0,0,0.1,0,0.1,0c0.1,0,0.1,0,0.1,0
		l1.9,0.2c0.5,0.1,1.2,0.1,2.1,0.1c0.7,0,1.2,0,1.6-0.1l1.8-0.2c0.4,0,1-0.1,1.8-0.1c1.2,0,2.2,0.1,3.1,0.4s1.7,0.7,2.3,1.5
		C211.7,22.8,212,23.6,212,24.6z M202.4,26.3c0,0.4,0.1,0.6,0.2,0.7c0.1,0.1,0.3,0.1,0.7,0.1h0.8c0.9,0,1.6-0.2,2.2-0.5
		c0.5-0.3,0.8-0.8,0.8-1.3c0-1.2-0.9-1.8-2.7-1.8c-0.7,0-1.1,0.1-1.4,0.2c-0.4,0.2-0.6,0.6-0.6,1.1V26.3z M207.7,32.6
		c0-0.7-0.3-1.3-1-1.7c-0.7-0.4-1.5-0.7-2.6-0.7h-0.8c-0.4,0-0.6,0.1-0.8,0.2c-0.1,0.1-0.2,0.3-0.2,0.6V33c0,0.7,0.2,1.1,0.6,1.4
		c0.4,0.3,1.1,0.4,2.1,0.4c0.8,0,1.4-0.2,1.9-0.6C207.5,33.8,207.7,33.3,207.7,32.6z"/>
	<path class="st17" d="M219.8,20.2c0.5,0,0.7,0.3,0.7,1v12.5c0,0.9,0.2,1.3,0.5,1.3c0.1,0,0.3,0,0.4-0.1c0.1,0,0.2-0.1,0.4-0.1
		c0.8,0,1.2,0.5,1.2,1.4c0,1.2-0.5,1.8-1.6,1.8c0,0-0.7-0.1-2-0.2c-0.4,0-0.8-0.1-1.3-0.1c-0.4,0-0.8,0-1.2,0.1
		c-0.7,0.1-1.2,0.1-1.4,0.1c-0.5,0-0.9-0.2-1.2-0.5c-0.3-0.3-0.5-0.8-0.5-1.3c0-1,0.4-1.5,1.3-1.5c0.1,0,0.3,0,0.4,0.1
		c0.2,0.1,0.3,0.1,0.4,0.1c0.3,0,0.5-0.5,0.5-1.5v-8.8c0-1-0.2-1.5-0.5-1.5c-0.1,0-0.3,0-0.5,0.1c-0.1,0-0.2,0.1-0.4,0.1
		c-0.8,0-1.3-0.5-1.3-1.5c0-0.5,0.2-1,0.5-1.3c0.3-0.3,0.7-0.5,1.2-0.5c0.1,0,0.4,0,0.9,0.1c0.6,0.1,1,0.1,1.3,0.1
		c0.4,0,0.8,0,1.1-0.1C219.2,20.2,219.6,20.2,219.8,20.2z"/>
	<path class="st17" d="M235.9,38.4c-1.4,0-2.4-0.6-2.9-1.7c-1.2,1.2-2.7,1.7-4.4,1.7c-1.4,0-2.5-0.4-3.3-1.1
		c-0.8-0.7-1.2-1.7-1.2-2.9c0-1.9,0.8-3,2.4-3.6c0.7-0.2,1.5-0.4,2.4-0.6c1.3-0.2,2.1-0.5,2.6-0.7c0.5-0.3,0.7-0.7,0.7-1.3
		c0-0.4-0.2-0.7-0.5-1c-0.3-0.3-0.8-0.4-1.3-0.4c-0.6,0-0.9,0.2-0.9,0.6c0,0.1,0,0.2,0,0.4v0.1c0,0.5-0.2,0.9-0.6,1.2
		c-0.4,0.3-0.9,0.5-1.5,0.5c-0.7,0-1.3-0.2-1.7-0.6c-0.5-0.4-0.7-1-0.7-1.6c0-1,0.5-1.7,1.5-2.2c1-0.5,2.4-0.8,4.2-0.8
		c1.9,0,3.3,0.3,4.3,0.9c1,0.6,1.5,1.8,1.5,3.5v5.5c0,0.6,0.1,0.8,0.4,0.8c0.1,0,0.3,0,0.4,0c0.1,0,0.1,0,0.2,0c0.4,0,0.7,0.1,1,0.4
		c0.3,0.3,0.4,0.6,0.4,1c0,0.6-0.3,1.1-0.8,1.4C237.4,38.2,236.7,38.4,235.9,38.4z M232.1,32.8v-0.6c-0.1,0.1-0.9,0.3-2.3,0.7
		c-1,0.2-1.5,0.6-1.5,1.1c0,0.8,0.5,1.2,1.4,1.2C231.3,35.2,232.1,34.4,232.1,32.8z"/>
	<path class="st17" d="M244.7,24.3c1.4,0,2.5,0.4,3.4,1.1c0.1-0.7,0.5-1.1,1.4-1.1c0.9,0,1.3,0.3,1.3,1c0,0.2,0,0.4-0.1,0.7
		c-0.1,0.3-0.1,0.6-0.1,0.9c0,0.1,0,0.2,0,0.4c0,0.2,0,0.4,0,0.6V28c0,0.9-0.5,1.4-1.4,1.4c-0.7,0-1.3-0.3-1.7-1
		c-0.6-0.8-1.3-1.2-2.2-1.2c-1,0-1.5,0.4-1.5,1.1c0,0.4,0.2,0.6,0.5,0.8c0.3,0.2,1.2,0.3,2.6,0.6c1.2,0.2,2,0.4,2.6,0.7
		c0.6,0.3,1,0.6,1.4,1.1c0.4,0.6,0.7,1.4,0.7,2.2c0,1.3-0.5,2.5-1.5,3.4c-1,0.9-2.3,1.3-3.9,1.3c-1.6,0-3-0.5-4.2-1.5
		c0,0.9-0.4,1.3-1.3,1.3c-1,0-1.4-0.4-1.4-1.2c0-0.2,0-0.5,0.1-0.8c0-0.4,0.1-0.6,0.1-0.8c0-0.2,0-0.4,0-0.7c0-0.3,0-0.6,0-0.7
		c0-0.8,0.5-1.2,1.5-1.2c0.5,0,0.8,0.1,1.1,0.2c0.2,0.1,0.5,0.4,0.8,0.8c0.4,0.7,0.8,1.1,1.2,1.3c0.4,0.2,0.9,0.3,1.6,0.3
		c1.3,0,1.9-0.4,1.9-1.2c0-0.5-0.5-0.9-1.5-1.1l-1.5-0.3c-1.3-0.3-2.1-0.5-2.7-0.8c-0.5-0.3-0.9-0.7-1.2-1.3c-0.3-0.6-0.5-1.2-0.5-2
		c0-1.3,0.4-2.4,1.3-3.2C242.1,24.7,243.3,24.3,244.7,24.3z"/>
	<path class="st17" d="M258.6,28.3v1.1l0,1.6l-0.1,1.8c0,0.6,0,0.8,0,0.7c0,1,0.3,1.6,1,1.6c0.6,0,1-0.5,1-1.4c0-0.1,0-0.2,0-0.3
		c0-0.1,0-0.2,0-0.3c0-0.1,0-0.2,0-0.3c0-1,0.5-1.4,1.4-1.4c1.1,0,1.7,0.9,1.7,2.7c0,1.4-0.4,2.5-1.2,3.3c-0.8,0.8-2,1.2-3.5,1.2
		c-2.9,0-4.4-1.5-4.4-4.6c0-0.5,0-1.2,0.1-2.2c0-1,0.1-1.7,0.1-2.2v-0.8c0-0.4,0-0.7-0.1-0.8c-0.1-0.1-0.3-0.2-0.6-0.2h-0.4
		c-0.3,0-0.6-0.1-0.8-0.4c-0.2-0.3-0.3-0.6-0.3-1c0-0.4,0.1-0.8,0.3-1c0.2-0.3,0.5-0.4,0.8-0.4h0.5c0.4,0,0.7-0.1,0.7-0.4
		c0.1-0.1,0.1-0.4,0.1-0.7v-1.3c0-0.6,0.2-1,0.5-1.3c0.3-0.2,0.9-0.3,1.8-0.3c0.6,0,1,0.1,1.3,0.3c0.2,0.2,0.3,0.6,0.3,1.2v1.4
		c0,0.5,0,0.8,0.1,1c0.1,0.1,0.3,0.2,0.8,0.2h1.9c1,0,1.6,0.5,1.6,1.5c0,0.9-0.5,1.4-1.4,1.4h-2.2c-0.4,0-0.6,0.1-0.7,0.2
		S258.6,28,258.6,28.3z"/>
</g>
<g>
	<path d="M58.9,211.5c-1.7,0-2.9-0.5-3.8-1.5c-0.9-1-1.4-2.4-1.4-4.3c0-1.8,0.4-3.2,1.3-4.2c0.9-1,2.1-1.5,3.7-1.5
		c1.7,0,2.9,0.5,3.9,1.5c0.9,1,1.4,2.4,1.4,4.1c0,1.8-0.4,3.3-1.3,4.3C61.8,211,60.5,211.5,58.9,211.5z M58.9,202.3
		c-1.4,0-2.1,1.2-2.1,3.5c0,1.1,0.1,1.9,0.4,2.4c0.3,0.7,0.9,1,1.7,1c1.4,0,2.1-1.1,2.1-3.4c0-1.2-0.2-2.1-0.5-2.7
		S59.6,202.3,58.9,202.3z"/>
	<path d="M71.3,210.8v-0.6c-0.7,0.9-1.7,1.4-2.9,1.4c-0.5,0-1-0.1-1.4-0.3c-0.4-0.2-0.7-0.5-0.9-0.9c-0.2-0.4-0.3-1-0.3-2v-2.5
		c0-0.4,0-0.6-0.1-0.7c0-0.1-0.1-0.1-0.2-0.1h-0.2c0,0-0.1,0-0.2,0c-0.5,0-0.7-0.3-0.7-0.9c0-0.7,0.3-1.1,1-1.1c0.1,0,0.3,0,0.6,0.1
		c0.3,0,0.5,0.1,0.6,0.1c0.1,0,0.3,0,0.6-0.1c0.3,0,0.5-0.1,0.6-0.1c0.3,0,0.5,0.2,0.5,0.7l0,4.3c0,0.8,0.4,1.3,1,1.3
		c1,0,1.5-0.7,1.5-2v-1.5c0-0.6-0.1-0.8-0.4-0.8c-0.1,0-0.1,0-0.3,0c-0.1,0-0.2,0-0.3,0c-0.4,0-0.6-0.3-0.6-0.9
		c0-0.8,0.3-1.1,0.9-1.1c0.2,0,0.4,0,0.7,0.1c0.3,0,0.5,0.1,0.7,0.1c0,0,0.3,0,0.7-0.1c0.3,0,0.4,0,0.5,0c0.3,0,0.5,0.2,0.5,0.6v5
		c0,0.5,0.1,0.8,0.3,0.8c0.1,0,0.2,0,0.2,0c0.1,0,0.2,0,0.3,0c0.5,0,0.7,0.3,0.7,0.8c0,0.8-0.3,1.1-1,1.1c-0.1,0-0.3,0-0.6-0.1
		s-0.4-0.1-0.6-0.1c-0.1,0-0.3,0-0.5,0.1c-0.2,0-0.4,0.1-0.5,0.1C71.4,211.3,71.3,211.1,71.3,210.8z"/>
	<path d="M78.7,203.5v1.4c0.2-0.6,0.3-1,0.5-1.2c0.5-0.6,1.1-0.9,2-0.9c0.6,0,1.1,0.2,1.5,0.6c0.4,0.4,0.6,0.9,0.6,1.4
		c0,0.4-0.1,0.8-0.4,1.1c-0.3,0.3-0.6,0.4-1,0.4c-0.3,0-0.6-0.1-0.8-0.3c-0.2-0.2-0.3-0.4-0.3-0.7c0-0.2,0.1-0.4,0.2-0.6H81
		c-0.7,0-1.2,0.4-1.5,1.2c-0.2,0.6-0.3,1.3-0.3,2.1v0.6c0,0.4,0,0.6,0.1,0.8c0,0.1,0.1,0.1,0.2,0.1c0.1,0,0.2,0,0.4-0.1
		c0.2,0,0.3-0.1,0.4-0.1c0.2,0,0.4,0.1,0.6,0.3s0.3,0.4,0.3,0.6c0,0.3-0.1,0.6-0.3,0.8c-0.2,0.2-0.5,0.3-0.8,0.3
		c-0.2,0-0.5,0-0.9-0.1c-0.3,0-0.6,0-1,0c-0.4,0-0.8,0-1.1,0c-0.5,0.1-0.8,0.1-1,0.1c-0.7,0-1-0.4-1-1.1c0-0.6,0.3-0.9,0.8-0.9
		c0.1,0,0.2,0,0.3,0.1c0.1,0,0.2,0.1,0.2,0.1c0.2,0,0.3-0.3,0.3-0.9v-2.6c0-0.6-0.1-0.9-0.3-0.9c0,0-0.1,0-0.3,0.1
		c-0.1,0-0.2,0.1-0.3,0.1c-0.5,0-0.8-0.3-0.8-0.9c0-0.3,0.1-0.6,0.3-0.8c0.2-0.2,0.4-0.3,0.7-0.3c0.1,0,0.3,0,0.5,0.1
		c0.2,0,0.4,0.1,0.6,0.1c0.1,0,0.3,0,0.6-0.1c0.3,0,0.4-0.1,0.6-0.1C78.5,203,78.7,203.2,78.7,203.5z"/>
	<path d="M91.1,203.5v0.8c0.8-1,1.7-1.5,2.7-1.5c0.8,0,1.5,0.4,2.1,1.2c0.5-0.5,1-0.8,1.4-1c0.4-0.2,0.8-0.3,1.3-0.3
		c1,0,1.8,0.3,2.3,1c0.3,0.5,0.5,1.2,0.5,2.3v2.5c0,0.6,0.1,0.8,0.3,0.8c0.1,0,0.2,0,0.3,0c0.1,0,0.1,0,0.2,0c0.5,0,0.7,0.3,0.7,0.8
		c0,0.3-0.1,0.6-0.3,0.8c-0.2,0.2-0.4,0.3-0.7,0.3c0,0-0.2,0-0.5,0l-0.4,0c-0.2,0-0.4,0-0.7,0c-0.3,0-0.7,0-1,0.1
		c-0.3,0-0.6,0.1-0.7,0.1c-0.3,0-0.5-0.1-0.6-0.3c-0.2-0.2-0.3-0.5-0.3-0.8c0-0.5,0.2-0.8,0.6-0.9c0.2,0,0.3-0.1,0.4-0.2
		c0-0.1,0.1-0.3,0.1-0.7v-1.7c0-0.7-0.1-1.2-0.2-1.4c-0.1-0.3-0.4-0.4-0.8-0.4c-0.9,0-1.4,0.7-1.4,2v1.5c0,0.4,0,0.6,0,0.7
		c0,0.1,0.1,0.2,0.3,0.2c0.3,0.1,0.5,0.3,0.5,0.8c0,0.7-0.3,1.1-0.9,1.1c-0.1,0-0.3,0-0.5,0c-0.4-0.1-0.6-0.1-0.7-0.1
		c-0.1,0-0.3,0-0.6,0.1s-0.4,0.1-0.6,0.1c-0.5,0-0.8-0.3-0.8-1c0-0.5,0.2-0.8,0.5-0.9c0.2,0,0.3-0.2,0.3-0.4c0-0.3,0-0.5,0-0.5v-1.8
		c0-0.6-0.1-1.1-0.2-1.3c-0.1-0.2-0.4-0.4-0.8-0.4c-1,0-1.4,0.7-1.4,2v2c0,0.2,0,0.3,0.1,0.3c0,0,0.2,0.1,0.3,0.1
		c0.4,0.1,0.6,0.4,0.6,0.8c0,0.7-0.3,1.1-0.9,1.1c-0.2,0-0.5,0-0.8-0.1c-0.4,0-0.6-0.1-0.8-0.1c-0.3,0-0.5,0-0.8,0
		c-0.4,0.1-0.7,0.1-0.8,0.1c-0.3,0-0.5-0.1-0.7-0.3c-0.2-0.2-0.3-0.5-0.3-0.8c0-0.6,0.3-0.9,0.8-0.9c0.1,0,0.2,0,0.3,0.1
		c0.1,0,0.2,0.1,0.2,0.1c0.2,0,0.3-0.3,0.3-0.9v-2.6c0-0.6-0.1-0.9-0.3-0.9c0,0-0.1,0-0.3,0.1c-0.1,0-0.2,0.1-0.3,0.1
		c-0.5,0-0.8-0.3-0.8-0.9c0-0.3,0.1-0.6,0.3-0.8c0.2-0.2,0.4-0.3,0.7-0.3c0.1,0,0.2,0,0.5,0.1c0.2,0,0.3,0,0.5,0
		c0.1,0,0.3,0,0.6-0.1c0.3,0,0.4-0.1,0.6-0.1C91,203,91.1,203.2,91.1,203.5z"/>
	<path d="M107.7,211.5c-1.3,0-2.4-0.4-3.1-1.1c-0.7-0.8-1.1-1.8-1.1-3.2c0-1.4,0.4-2.4,1.1-3.2c0.7-0.8,1.8-1.2,3.1-1.2
		c1.3,0,2.3,0.4,3.1,1.1c0.7,0.8,1.1,1.8,1.1,3.1c0,1.4-0.4,2.5-1.1,3.3C110,211.1,109,211.5,107.7,211.5z M107.7,204.8
		c-0.5,0-0.9,0.2-1.1,0.6c-0.3,0.4-0.4,1-0.4,1.7c0,0.7,0.1,1.3,0.4,1.7c0.3,0.4,0.7,0.6,1.2,0.6c1,0,1.5-0.8,1.5-2.3
		C109.2,205.6,108.7,204.8,107.7,204.8z"/>
	<path d="M115.9,202.8c0.8,0,1.5,0.2,2.1,0.7c0-0.5,0.3-0.7,0.9-0.7c0.6,0,0.8,0.2,0.8,0.6c0,0.1,0,0.3-0.1,0.4c0,0.2,0,0.4,0,0.6
		c0,0,0,0.1,0,0.3c0,0.1,0,0.3,0,0.4v0.1c0,0.6-0.3,0.9-0.9,0.9c-0.4,0-0.8-0.2-1.1-0.6c-0.4-0.5-0.8-0.8-1.4-0.8
		c-0.6,0-0.9,0.2-0.9,0.7c0,0.2,0.1,0.4,0.3,0.5c0.2,0.1,0.8,0.2,1.6,0.4c0.7,0.1,1.2,0.3,1.6,0.4c0.3,0.2,0.6,0.4,0.8,0.7
		c0.3,0.4,0.4,0.8,0.4,1.4c0,0.8-0.3,1.5-1,2.1c-0.6,0.6-1.4,0.8-2.4,0.8s-1.8-0.3-2.6-0.9c0,0.5-0.3,0.8-0.8,0.8
		c-0.6,0-0.9-0.2-0.9-0.7c0-0.1,0-0.3,0-0.5c0-0.2,0-0.4,0-0.5c0-0.1,0-0.2,0-0.4c0-0.2,0-0.3,0-0.4c0-0.5,0.3-0.7,0.9-0.7
		c0.3,0,0.5,0,0.7,0.1c0.2,0.1,0.3,0.3,0.5,0.5c0.3,0.4,0.5,0.7,0.8,0.8c0.2,0.1,0.6,0.2,1,0.2c0.8,0,1.2-0.2,1.2-0.7
		c0-0.3-0.3-0.6-0.9-0.7l-0.9-0.2c-0.8-0.2-1.3-0.3-1.6-0.5c-0.3-0.2-0.6-0.4-0.8-0.8c-0.2-0.4-0.3-0.8-0.3-1.2c0-0.8,0.3-1.5,0.8-2
		C114.4,203.1,115.1,202.8,115.9,202.8z"/>
	<path d="M124.5,205.3v0.7l0,1l0,1.1c0,0.4,0,0.5,0,0.4c0,0.6,0.2,1,0.6,1c0.4,0,0.6-0.3,0.6-0.9c0-0.1,0-0.2,0-0.2
		c0-0.1,0-0.1,0-0.2c0-0.1,0-0.1,0-0.2c0-0.6,0.3-0.9,0.9-0.9c0.7,0,1,0.5,1,1.6c0,0.9-0.3,1.5-0.8,2c-0.5,0.5-1.2,0.7-2.1,0.7
		c-1.8,0-2.7-0.9-2.7-2.8c0-0.3,0-0.8,0-1.4c0-0.6,0-1.1,0-1.4v-0.5c0-0.3,0-0.4-0.1-0.5c0-0.1-0.2-0.1-0.4-0.1h-0.3
		c-0.2,0-0.4-0.1-0.5-0.2c-0.1-0.2-0.2-0.4-0.2-0.6c0-0.2,0.1-0.5,0.2-0.6c0.1-0.2,0.3-0.3,0.5-0.3h0.3c0.3,0,0.4-0.1,0.5-0.2
		c0-0.1,0-0.2,0-0.4v-0.8c0-0.4,0.1-0.6,0.3-0.8c0.2-0.1,0.6-0.2,1.1-0.2c0.4,0,0.6,0.1,0.8,0.2c0.1,0.1,0.2,0.3,0.2,0.7v0.9
		c0,0.3,0,0.5,0.1,0.6c0.1,0.1,0.2,0.1,0.5,0.1h1.2c0.6,0,1,0.3,1,0.9c0,0.6-0.3,0.9-0.9,0.9H125c-0.2,0-0.4,0-0.4,0.1
		C124.5,205,124.5,205.1,124.5,205.3z"/>
	<path d="M137.2,202.1c0-0.1,0-0.3,0.1-0.4c-0.1,0-0.2-0.1-0.3-0.1c-0.5,0-0.8,0.3-0.8,0.8v0.3c0,0.2,0.1,0.3,0.4,0.3h0.5
		c0.6,0,0.9,0.3,0.9,0.9c0,0.6-0.3,0.9-0.9,0.9h-0.5c-0.2,0-0.4,0.1-0.4,0.4v3.3c0,0.3,0,0.5,0,0.6c0,0.2,0.1,0.3,0.3,0.3
		c0,0,0.1,0,0.3,0c0.1,0,0.2,0,0.4,0c0.5,0,0.8,0.3,0.8,0.9c0,0.3-0.1,0.6-0.3,0.8c-0.2,0.2-0.4,0.3-0.7,0.3c0,0-0.4,0-1-0.1
		c-0.2,0-0.5,0-0.9,0c-0.5,0-0.8,0-1.1,0c-0.5,0.1-0.8,0.1-0.9,0.1c-0.3,0-0.5-0.1-0.7-0.3c-0.2-0.2-0.3-0.5-0.3-0.8
		c0-0.6,0.3-0.9,0.8-0.9c0.1,0,0.2,0,0.3,0.1c0.1,0,0.2,0.1,0.2,0.1c0.2,0,0.3-0.3,0.3-0.9v-3.2c0-0.2,0-0.4-0.1-0.4
		c0,0-0.1,0-0.2,0h-0.4c-0.6,0-0.9-0.3-0.9-0.8c0-0.6,0.3-0.9,0.9-0.9h0.3c0.2,0,0.3,0,0.4-0.1c0.1-0.1,0.1-0.2,0.1-0.4
		c0-0.8,0.3-1.3,0.9-1.8c0.6-0.4,1.3-0.7,2.2-0.7c0.8,0,1.4,0.2,1.9,0.5c0.5,0.3,0.7,0.7,0.7,1.3c0,0.3-0.1,0.6-0.4,0.8
		c-0.2,0.2-0.5,0.3-0.9,0.3c-0.3,0-0.5-0.1-0.7-0.2C137.3,202.6,137.2,202.4,137.2,202.1z"/>
	<path d="M145.1,210.8v-0.6c-0.7,0.9-1.7,1.4-2.9,1.4c-0.5,0-1-0.1-1.4-0.3c-0.4-0.2-0.7-0.5-0.9-0.9c-0.2-0.4-0.3-1-0.3-2v-2.5
		c0-0.4,0-0.6-0.1-0.7c0-0.1-0.1-0.1-0.2-0.1h-0.2c0,0-0.1,0-0.2,0c-0.5,0-0.7-0.3-0.7-0.9c0-0.7,0.3-1.1,1-1.1c0.1,0,0.3,0,0.6,0.1
		c0.3,0,0.5,0.1,0.6,0.1c0.1,0,0.3,0,0.6-0.1c0.3,0,0.5-0.1,0.6-0.1c0.3,0,0.5,0.2,0.5,0.7l0,4.3c0,0.8,0.4,1.3,1,1.3
		c1,0,1.5-0.7,1.5-2v-1.5c0-0.6-0.1-0.8-0.4-0.8c-0.1,0-0.1,0-0.3,0c-0.1,0-0.2,0-0.3,0c-0.4,0-0.6-0.3-0.6-0.9
		c0-0.8,0.3-1.1,0.9-1.1c0.2,0,0.4,0,0.7,0.1c0.3,0,0.5,0.1,0.7,0.1c0,0,0.3,0,0.7-0.1c0.3,0,0.4,0,0.5,0c0.3,0,0.5,0.2,0.5,0.6v5
		c0,0.5,0.1,0.8,0.3,0.8c0.1,0,0.2,0,0.2,0c0.1,0,0.2,0,0.3,0c0.5,0,0.7,0.3,0.7,0.8c0,0.8-0.3,1.1-1,1.1c-0.1,0-0.3,0-0.6-0.1
		c-0.3,0-0.4-0.1-0.6-0.1c-0.1,0-0.3,0-0.5,0.1c-0.2,0-0.4,0.1-0.5,0.1C145.3,211.3,145.1,211.1,145.1,210.8z"/>
	<path d="M152.6,203.5v0.8c0.8-1,1.8-1.5,2.8-1.5c1.1,0,1.9,0.4,2.4,1.3c0.2,0.4,0.4,1.1,0.4,2.1v2.4c0,0.6,0.1,0.8,0.3,0.8
		c0.1,0,0.1,0,0.2,0c0.1,0,0.1,0,0.2,0c0.5,0,0.7,0.3,0.7,0.8c0,0.8-0.3,1.1-1,1.1c-0.2,0-0.4,0-0.8-0.1c-0.3,0-0.6-0.1-0.8-0.1
		c-0.3,0-0.6,0-0.9,0.1c-0.3,0-0.6,0.1-0.8,0.1c-0.6,0-1-0.3-1-1c0-0.6,0.2-0.9,0.7-0.9c0.3,0,0.4-0.2,0.4-0.4v-2.3
		c0-0.6-0.1-1.1-0.2-1.3c-0.2-0.3-0.4-0.4-0.8-0.4c-0.4,0-0.8,0.2-1.1,0.5c-0.3,0.3-0.4,0.7-0.4,1.2v1.7c0,0.5,0,0.8,0.1,0.9
		c0,0.1,0.2,0.2,0.4,0.2c0.4,0.1,0.6,0.3,0.6,0.9c0,0.7-0.3,1-0.9,1c-0.2,0-0.4,0-0.6,0c-0.4-0.1-0.7-0.1-0.9-0.1
		c-0.2,0-0.5,0-0.9,0.1s-0.7,0.1-0.9,0.1c-0.7,0-1-0.4-1-1.1c0-0.6,0.3-0.9,0.8-0.9c0.1,0,0.2,0,0.3,0.1c0.1,0,0.2,0.1,0.2,0.1
		c0.2,0,0.3-0.3,0.3-0.9v-2.6c0-0.6-0.1-0.9-0.3-0.9c0,0-0.1,0-0.3,0.1c-0.1,0-0.2,0.1-0.3,0.1c-0.5,0-0.8-0.3-0.8-0.9
		c0-0.3,0.1-0.6,0.3-0.8c0.2-0.2,0.4-0.3,0.7-0.3c0.1,0,0.3,0,0.6,0.1c0.2,0,0.3,0,0.4,0c0.1,0,0.4,0,0.7-0.1c0.3,0,0.5-0.1,0.5-0.1
		C152.4,203,152.6,203.2,152.6,203.5z"/>
	<path d="M169.2,202.1c0-0.1,0-0.3,0.1-0.4c-0.1,0-0.2-0.1-0.3-0.1c-0.5,0-0.8,0.3-0.8,0.8v0.3c0,0.2,0.1,0.3,0.4,0.3h0.5
		c0.6,0,0.9,0.3,0.9,0.9c0,0.6-0.3,0.9-0.9,0.9h-0.5c-0.2,0-0.4,0.1-0.4,0.4v3.3c0,0.3,0,0.5,0,0.6c0,0.2,0.1,0.3,0.3,0.3
		c0,0,0.1,0,0.3,0c0.1,0,0.2,0,0.4,0c0.5,0,0.8,0.3,0.8,0.9c0,0.3-0.1,0.6-0.3,0.8c-0.2,0.2-0.4,0.3-0.7,0.3c0,0-0.4,0-1-0.1
		c-0.2,0-0.5,0-0.9,0c-0.5,0-0.8,0-1.1,0c-0.5,0.1-0.8,0.1-0.9,0.1c-0.3,0-0.5-0.1-0.7-0.3c-0.2-0.2-0.3-0.5-0.3-0.8
		c0-0.6,0.3-0.9,0.8-0.9c0.1,0,0.2,0,0.3,0.1c0.1,0,0.2,0.1,0.2,0.1c0.2,0,0.3-0.3,0.3-0.9v-3.2c0-0.2,0-0.4-0.1-0.4
		c0,0-0.1,0-0.2,0H165c-0.6,0-0.9-0.3-0.9-0.8c0-0.6,0.3-0.9,0.9-0.9h0.3c0.2,0,0.3,0,0.4-0.1s0.1-0.2,0.1-0.4
		c0-0.8,0.3-1.3,0.9-1.8c0.6-0.4,1.3-0.7,2.2-0.7c0.8,0,1.4,0.2,1.9,0.5c0.5,0.3,0.7,0.7,0.7,1.3c0,0.3-0.1,0.6-0.4,0.8
		c-0.2,0.2-0.5,0.3-0.9,0.3c-0.3,0-0.5-0.1-0.7-0.2C169.3,202.6,169.2,202.4,169.2,202.1z"/>
	<path d="M175,200.3c0.3,0,0.5,0.2,0.5,0.6v7.7c0,0.5,0.1,0.8,0.3,0.8c0.1,0,0.2,0,0.2,0c0.1,0,0.2,0,0.3,0c0.5,0,0.7,0.3,0.7,0.8
		c0,0.8-0.3,1.1-1,1.1c0,0-0.4,0-1.2-0.1c-0.2,0-0.5,0-0.8,0c-0.2,0-0.5,0-0.8,0c-0.5,0.1-0.7,0.1-0.9,0.1c-0.3,0-0.5-0.1-0.7-0.3
		c-0.2-0.2-0.3-0.5-0.3-0.8c0-0.6,0.3-0.9,0.8-0.9c0.1,0,0.2,0,0.3,0.1c0.1,0,0.2,0.1,0.3,0.1c0.2,0,0.3-0.3,0.3-0.9v-5.4
		c0-0.6-0.1-0.9-0.3-0.9c-0.1,0-0.2,0-0.3,0.1c-0.1,0-0.2,0-0.3,0c-0.5,0-0.8-0.3-0.8-0.9c0-0.3,0.1-0.6,0.3-0.8
		c0.2-0.2,0.4-0.3,0.8-0.3c0.1,0,0.3,0,0.6,0c0.4,0,0.6,0.1,0.8,0.1c0.2,0,0.5,0,0.7-0.1C174.6,200.3,174.8,200.3,175,200.3z"/>
	<path d="M184.9,211.5c-0.9,0-1.5-0.4-1.8-1.1c-0.8,0.7-1.7,1.1-2.7,1.1c-0.9,0-1.5-0.2-2.1-0.7c-0.5-0.5-0.8-1.1-0.8-1.8
		c0-1.1,0.5-1.9,1.5-2.2c0.4-0.1,0.9-0.3,1.5-0.4c0.8-0.1,1.3-0.3,1.6-0.4c0.3-0.2,0.4-0.4,0.4-0.8c0-0.2-0.1-0.5-0.3-0.6
		c-0.2-0.2-0.5-0.3-0.8-0.3c-0.4,0-0.5,0.1-0.5,0.3c0,0.1,0,0.2,0,0.2v0.1c0,0.3-0.1,0.6-0.4,0.8c-0.3,0.2-0.6,0.3-1,0.3
		c-0.4,0-0.8-0.1-1.1-0.4c-0.3-0.3-0.4-0.6-0.4-1c0-0.6,0.3-1.1,0.9-1.4c0.6-0.3,1.5-0.5,2.6-0.5c1.2,0,2.1,0.2,2.6,0.5
		c0.6,0.4,0.9,1.1,0.9,2.2v3.4c0,0.3,0.1,0.5,0.3,0.5c0.1,0,0.2,0,0.2,0c0,0,0.1,0,0.1,0c0.2,0,0.5,0.1,0.6,0.3s0.3,0.4,0.3,0.6
		c0,0.4-0.2,0.7-0.5,0.9C185.9,211.4,185.4,211.5,184.9,211.5z M182.6,208v-0.4c-0.1,0-0.6,0.2-1.4,0.4c-0.6,0.2-0.9,0.4-0.9,0.7
		c0,0.5,0.3,0.8,0.9,0.8C182.1,209.5,182.6,209,182.6,208z"/>
	<path d="M190.5,205.8l1.1,3.6l1.2-3.6c0-0.1,0.1-0.2,0.1-0.4c0-0.1,0-0.2,0-0.3c0-0.2-0.1-0.3-0.4-0.3c-0.4-0.1-0.6-0.4-0.6-0.9
		c0-0.6,0.3-0.9,0.9-0.9c0.2,0,0.5,0,0.9,0.1c0.4,0,0.7,0.1,0.9,0.1c0.3,0,0.6,0,0.9-0.1c0.3,0,0.5-0.1,0.6-0.1c0.6,0,1,0.3,1,1
		c0,0.7-0.3,1-0.8,1c0,0,0,0-0.1,0c0,0-0.1,0-0.1,0c-0.1,0-0.1,0-0.2,0c-0.2,0-0.3,0.2-0.5,0.5c0,0.1-0.2,0.4-0.3,0.8l-1.4,3.7
		c-0.3,0.9-0.8,1.3-1.5,1.3l-0.8,0l-0.8,0c0,0,0,0-0.1,0c-0.5,0-0.9-0.3-1.1-1l-1.7-4.6c-0.1-0.3-0.2-0.5-0.3-0.6
		c-0.1-0.1-0.1-0.1-0.2-0.1c0,0,0,0-0.1,0c0,0-0.1,0-0.1,0c-0.1,0-0.2,0-0.3,0c-0.2,0-0.4-0.1-0.5-0.3c-0.1-0.2-0.2-0.4-0.2-0.7
		c0-0.7,0.3-1.1,1-1.1c0.2,0,0.4,0,0.7,0.1c0.3,0,0.6,0.1,0.7,0.1c0.2,0,0.6,0,1.2-0.1c0.3,0,0.6,0,0.8,0c0.6,0,0.9,0.3,0.9,0.9
		c0,0.6-0.2,0.9-0.7,0.9c-0.3,0-0.4,0.1-0.4,0.3C190.3,205.3,190.4,205.5,190.5,205.8z"/>
	<path d="M201.6,211.5c-1.3,0-2.4-0.4-3.1-1.1c-0.7-0.8-1.1-1.8-1.1-3.2c0-1.4,0.4-2.4,1.1-3.2c0.7-0.8,1.8-1.2,3.1-1.2
		c1.3,0,2.3,0.4,3.1,1.1c0.7,0.8,1.1,1.8,1.1,3.1c0,1.4-0.4,2.5-1.1,3.3C203.9,211.1,202.9,211.5,201.6,211.5z M201.6,204.8
		c-0.5,0-0.9,0.2-1.1,0.6c-0.3,0.4-0.4,1-0.4,1.7c0,0.7,0.1,1.3,0.4,1.7c0.3,0.4,0.7,0.6,1.2,0.6c1,0,1.5-0.8,1.5-2.3
		C203.1,205.6,202.6,204.8,201.6,204.8z"/>
	<path d="M210,203.5v1.4c0.2-0.6,0.3-1,0.5-1.2c0.5-0.6,1.1-0.9,2-0.9c0.6,0,1.1,0.2,1.5,0.6c0.4,0.4,0.6,0.9,0.6,1.4
		c0,0.4-0.1,0.8-0.4,1.1c-0.3,0.3-0.6,0.4-1,0.4c-0.3,0-0.6-0.1-0.8-0.3c-0.2-0.2-0.3-0.4-0.3-0.7c0-0.2,0.1-0.4,0.2-0.6h-0.1
		c-0.7,0-1.2,0.4-1.5,1.2c-0.2,0.6-0.3,1.3-0.3,2.1v0.6c0,0.4,0,0.6,0.1,0.8c0,0.1,0.1,0.1,0.2,0.1c0.1,0,0.2,0,0.4-0.1
		c0.2,0,0.3-0.1,0.4-0.1c0.2,0,0.4,0.1,0.6,0.3c0.2,0.2,0.3,0.4,0.3,0.6c0,0.3-0.1,0.6-0.3,0.8c-0.2,0.2-0.5,0.3-0.8,0.3
		c-0.2,0-0.5,0-0.9-0.1c-0.3,0-0.6,0-1,0c-0.4,0-0.8,0-1.1,0c-0.5,0.1-0.8,0.1-1,0.1c-0.7,0-1-0.4-1-1.1c0-0.6,0.3-0.9,0.8-0.9
		c0.1,0,0.2,0,0.3,0.1c0.1,0,0.2,0.1,0.2,0.1c0.2,0,0.3-0.3,0.3-0.9v-2.6c0-0.6-0.1-0.9-0.3-0.9c0,0-0.1,0-0.3,0.1
		c-0.1,0-0.2,0.1-0.3,0.1c-0.5,0-0.8-0.3-0.8-0.9c0-0.3,0.1-0.6,0.3-0.8c0.2-0.2,0.4-0.3,0.7-0.3c0.1,0,0.3,0,0.5,0.1
		c0.2,0,0.4,0.1,0.6,0.1c0.1,0,0.3,0,0.6-0.1c0.2,0,0.4-0.1,0.6-0.1C209.8,203,210,203.2,210,203.5z"/>
	<path d="M219.1,207.1c-0.1,0.5-0.3,0.8-0.8,0.8h-0.6c-0.5,0-0.7-0.3-0.8-0.8l-0.5-5.3c0-0.3,0-0.6,0-0.7c0-0.7,0.5-1.1,1.6-1.1
		s1.6,0.4,1.6,1.1c0,0.2,0,0.4,0,0.7L219.1,207.1z M218,211.5c-0.4,0-0.8-0.2-1.1-0.5c-0.3-0.3-0.5-0.7-0.5-1.1
		c0-0.4,0.2-0.8,0.5-1.1c0.3-0.3,0.7-0.5,1.1-0.5c0.4,0,0.8,0.2,1.1,0.5c0.3,0.3,0.5,0.7,0.5,1.1c0,0.4-0.2,0.8-0.5,1.1
		C218.8,211.4,218.5,211.5,218,211.5z"/>
</g>
<rect x="59.8" y="329.1" style="fill:none;" width="150.2" height="13.5"/>
<text transform="matrix(1 0 0 1 59.8134 337.1462)" style="font-family:'AmericanTypewriter-Bold'; font-size:12px;">Our most fun flavor!</text>
<g>
	<path d="M16.1,220c1.2,0,2.2,0.5,3,1.4v-0.2c0-0.1,0-0.1,0-0.2c0-0.1,0-0.1,0-0.1c0-0.2,0-0.4,0-0.3c0-0.4,0.2-0.6,0.5-0.6
		c0.4,0,0.5,0.2,0.5,0.7c0,0.1,0,0.3,0,0.8c-0.1,0.5-0.1,0.9-0.1,1.1c0,0.3,0,0.6,0.1,0.9l0.1,0.6v0.2c0,0.5-0.2,0.7-0.6,0.7
		c-0.4,0-0.6-0.2-0.6-0.7v-0.6c0-0.8-0.2-1.4-0.7-1.9c-0.5-0.5-1.2-0.7-2-0.7c-1.1,0-1.9,0.4-2.5,1.2c-0.6,0.8-0.9,2-0.9,3.4
		c0,1.5,0.3,2.7,0.9,3.5c0.6,0.8,1.5,1.2,2.6,1.2c0.6,0,1.2-0.1,1.6-0.4c0.5-0.3,0.8-0.7,1-1.2c0.1-0.3,0.2-0.7,0.2-1.3
		c0-0.5,0.2-0.8,0.6-0.8c0.4,0,0.7,0.3,0.7,0.8c0,1.2-0.4,2.1-1.2,2.9c-0.8,0.7-1.8,1.1-3.1,1.1c-1.5,0-2.6-0.5-3.5-1.6
		c-0.9-1-1.3-2.4-1.3-4.1c0-1.8,0.4-3.2,1.3-4.3C13.4,220.5,14.6,220,16.1,220z"/>
	<path d="M25.4,231.5c-1.1,0-2.1-0.4-2.7-1.2c-0.7-0.8-1-1.8-1-3.2c0-1.3,0.3-2.4,1-3.2c0.7-0.8,1.6-1.2,2.8-1.2
		c1.2,0,2.1,0.4,2.8,1.2c0.7,0.8,1,1.8,1,3.2c0,1.3-0.4,2.4-1.1,3.2C27.5,231.1,26.5,231.5,25.4,231.5z M25.4,223.9
		c-0.8,0-1.4,0.3-1.8,0.8c-0.4,0.5-0.7,1.3-0.7,2.3v0.2c0,1,0.2,1.8,0.6,2.4c0.4,0.6,1,0.9,1.8,0.9c0.8,0,1.4-0.3,1.9-0.9
		c0.5-0.6,0.7-1.4,0.7-2.4C27.9,225,27.1,223.9,25.4,223.9z"/>
	<path d="M35.1,229v-1c0-0.4,0.2-0.7,0.6-0.7c0.4,0,0.6,0.3,0.6,0.8c0,1.2-0.2,2-0.5,2.5c-0.4,0.6-1.1,0.9-2,0.9
		c-0.9,0-1.5-0.3-1.8-0.8c-0.3-0.4-0.4-1.1-0.4-2.1v-3.9c0-0.2-0.1-0.3-0.3-0.3h-0.5c-0.2,0-0.3-0.1-0.4-0.2
		c-0.1-0.1-0.2-0.3-0.2-0.4c0-0.2,0.1-0.3,0.2-0.4c0.1-0.1,0.2-0.2,0.4-0.2h0.6c0.2,0,0.3-0.1,0.3-0.3v-1.7c0-0.4,0.2-0.6,0.6-0.6
		c0.4,0,0.6,0.2,0.6,0.6v1.7c0,0.2,0.1,0.2,0.3,0.2h1.8c0.4,0,0.6,0.2,0.6,0.6c0,0.4-0.2,0.6-0.7,0.6h-1.8c-0.2,0-0.2,0.1-0.2,0.3v4
		c0,1.1,0.4,1.7,1.1,1.7C34.6,230.4,35,229.9,35.1,229z"/>
	<path d="M41.6,229v-1c0-0.4,0.2-0.7,0.6-0.7c0.4,0,0.6,0.3,0.6,0.8c0,1.2-0.2,2-0.5,2.5c-0.4,0.6-1.1,0.9-2,0.9
		c-0.9,0-1.5-0.3-1.8-0.8c-0.3-0.4-0.4-1.1-0.4-2.1v-3.9c0-0.2-0.1-0.3-0.3-0.3h-0.5c-0.2,0-0.3-0.1-0.4-0.2
		c-0.1-0.1-0.2-0.3-0.2-0.4c0-0.2,0.1-0.3,0.2-0.4s0.2-0.2,0.4-0.2h0.6c0.2,0,0.3-0.1,0.3-0.3v-1.7c0-0.4,0.2-0.6,0.6-0.6
		c0.4,0,0.6,0.2,0.6,0.6v1.7c0,0.2,0.1,0.2,0.3,0.2h1.8c0.4,0,0.6,0.2,0.6,0.6c0,0.4-0.2,0.6-0.7,0.6h-1.8c-0.2,0-0.2,0.1-0.2,0.3v4
		c0,1.1,0.4,1.7,1.1,1.7C41.1,230.4,41.6,229.9,41.6,229z"/>
	<path d="M47.3,231.5c-1.1,0-2.1-0.4-2.7-1.2c-0.7-0.8-1-1.8-1-3.2c0-1.3,0.3-2.4,1-3.2c0.7-0.8,1.6-1.2,2.8-1.2
		c1.2,0,2.1,0.4,2.8,1.2c0.7,0.8,1,1.8,1,3.2c0,1.3-0.4,2.4-1.1,3.2C49.5,231.1,48.5,231.5,47.3,231.5z M47.4,223.9
		c-0.8,0-1.4,0.3-1.8,0.8c-0.4,0.5-0.7,1.3-0.7,2.3v0.2c0,1,0.2,1.8,0.6,2.4c0.4,0.6,1,0.9,1.8,0.9c0.8,0,1.4-0.3,1.9-0.9
		c0.5-0.6,0.7-1.4,0.7-2.4C49.9,225,49.1,223.9,47.4,223.9z"/>
	<path d="M55,223.6v0.5c0.7-0.8,1.5-1.2,2.6-1.2c0.6,0,1.1,0.2,1.7,0.4c0.5,0.3,0.9,0.7,1.1,1.1c0.2,0.4,0.2,0.9,0.2,1.5v3.1
		c0,0.5,0,0.7,0,0.8c0.1,0.4,0.2,0.6,0.4,0.6c0.1,0,0.2,0,0.4,0c0.2,0,0.3,0,0.3,0c0.1,0,0.3,0,0.4,0.1c0.1,0.1,0.2,0.2,0.2,0.4
		c0,0.2-0.1,0.3-0.2,0.4c-0.1,0.1-0.3,0.2-0.5,0.2c-0.2,0-0.4,0-0.8-0.1c-0.3,0-0.7-0.1-1-0.1c-0.3,0-0.5,0-0.7,0
		c-0.5,0.1-0.8,0.1-0.9,0.1c-0.4,0-0.7-0.2-0.7-0.6c0-0.3,0.2-0.5,0.6-0.5c0.1,0,0.2,0,0.3,0c0.2,0,0.3,0.1,0.4,0.1
		c0.3,0,0.4-0.3,0.4-0.9v-0.8v-1v-1.2c0-0.6,0-1-0.1-1.2c-0.1-0.4-0.3-0.7-0.6-1c-0.4-0.2-0.8-0.4-1.2-0.4c-0.9,0-1.5,0.3-1.9,0.9
		c-0.3,0.4-0.4,1.1-0.4,2.2v2.2c0,0.5,0,0.8,0.1,1c0.1,0.2,0.2,0.3,0.4,0.3c0.1,0,0.2,0,0.4-0.1c0.2,0,0.3-0.1,0.4-0.1
		c0.3,0,0.5,0.2,0.5,0.5c0,0.4-0.2,0.5-0.7,0.5c-0.1,0-0.4,0-0.8-0.1c-0.2,0-0.5,0-0.8,0c-0.2,0-0.5,0-0.9,0.1
		c-0.5,0.1-0.8,0.1-0.8,0.1c-0.5,0-0.7-0.2-0.7-0.6c0-0.3,0.2-0.5,0.5-0.5c0.1,0,0.2,0,0.3,0c0.1,0,0.3,0,0.4,0
		c0.3,0,0.5-0.3,0.5-0.9v-1.8v-2V225c0-0.4-0.1-0.6-0.1-0.8c-0.1-0.1-0.2-0.2-0.4-0.2c-0.1,0-0.2,0-0.3,0c-0.1,0-0.3,0-0.3,0
		c-0.4,0-0.6-0.2-0.6-0.5c0-0.4,0.2-0.5,0.7-0.5c0.1,0,0.1,0,0.2,0l0.6,0.1c0.2,0,0.3,0,0.5,0c0.3,0,0.4,0,0.4,0
		C54.8,223.1,55,223.2,55,223.6z"/>
	<path d="M71.7,225.8c0-0.4,0.3-0.7,0.8-0.8c-0.1-0.4-0.2-0.7-0.5-0.9c-0.3-0.2-0.7-0.3-1.2-0.3c-0.8,0-1.4,0.3-1.8,0.9
		c-0.5,0.6-0.7,1.4-0.7,2.4c0,1,0.2,1.8,0.6,2.4c0.4,0.6,1,0.9,1.8,0.9c0.5,0,0.9-0.1,1.2-0.4c0.4-0.3,0.6-0.6,0.7-1.1
		c0.1-0.4,0.2-0.6,0.2-0.7c0.1-0.2,0.3-0.3,0.5-0.3c0.2,0,0.3,0.1,0.5,0.2c0.1,0.1,0.2,0.3,0.2,0.5c0,0.3-0.1,0.6-0.3,1
		c-0.2,0.4-0.4,0.7-0.6,0.9c-0.6,0.7-1.5,1-2.5,1c-1.1,0-2-0.4-2.7-1.2c-0.7-0.8-1-1.8-1-3.1c0-1.4,0.4-2.4,1.1-3.2
		c0.7-0.8,1.6-1.2,2.8-1.2c0.9,0,1.6,0.2,2.2,0.7c0.6,0.5,0.9,1.1,0.9,1.8c0,0.4-0.1,0.7-0.3,1c-0.2,0.3-0.5,0.4-0.9,0.4
		c-0.3,0-0.5-0.1-0.7-0.2C71.8,226.3,71.7,226.1,71.7,225.8z"/>
	<path d="M82.3,231.4c-0.9,0-1.4-0.4-1.6-1.2c-0.6,0.8-1.4,1.2-2.6,1.2c-0.9,0-1.6-0.2-2.1-0.7c-0.5-0.4-0.8-1-0.8-1.7
		c0-0.9,0.4-1.6,1.2-2c0.3-0.2,0.5-0.3,0.8-0.3c0.2,0,0.6-0.1,1.3-0.2c0.9-0.1,1.5-0.2,1.8-0.4c0.3-0.2,0.4-0.5,0.4-1
		c0-0.4-0.2-0.8-0.5-1.1c-0.3-0.3-0.7-0.4-1.3-0.4c-0.5,0-0.9,0.1-1.4,0.4c-0.2,0.1-0.2,0.2-0.2,0.3c0,0,0,0.1,0.1,0.2
		c0.2,0.1,0.2,0.3,0.2,0.6c0,0.2-0.1,0.4-0.2,0.5c-0.2,0.1-0.4,0.2-0.6,0.2c-0.3,0-0.5-0.1-0.7-0.3c-0.2-0.2-0.3-0.4-0.3-0.7
		c0-0.6,0.3-1.1,0.9-1.6c0.6-0.4,1.3-0.7,2.2-0.7c2,0,3,1,3,2.9v3.3c0,0.5,0,0.8,0,0.9c0.1,0.4,0.3,0.6,0.6,0.6c0.4,0,0.6-0.3,0.6-1
		v-0.8c0-0.3,0.2-0.5,0.5-0.5c0.4,0,0.5,0.3,0.5,0.8v0.1v0.9C84,230.9,83.4,231.4,82.3,231.4z M80.5,228.2V227
		c-0.2,0.2-0.5,0.4-0.8,0.5c-0.3,0.1-0.7,0.2-1.4,0.2c-1.2,0.1-1.9,0.6-1.9,1.4c0,0.4,0.1,0.7,0.4,1c0.3,0.2,0.7,0.4,1.2,0.4
		c0.7,0,1.3-0.2,1.7-0.6C80.3,229.4,80.5,228.9,80.5,228.2z"/>
	<path d="M87,223.6v0.5c0.7-0.8,1.5-1.2,2.6-1.2c0.6,0,1.1,0.2,1.7,0.4c0.5,0.3,0.9,0.7,1.1,1.1c0.2,0.4,0.2,0.9,0.2,1.5v3.1
		c0,0.5,0,0.7,0,0.8c0.1,0.4,0.2,0.6,0.4,0.6c0.1,0,0.2,0,0.4,0c0.2,0,0.3,0,0.3,0c0.1,0,0.3,0,0.4,0.1c0.1,0.1,0.2,0.2,0.2,0.4
		c0,0.2-0.1,0.3-0.2,0.4c-0.1,0.1-0.3,0.2-0.5,0.2c-0.2,0-0.4,0-0.8-0.1c-0.3,0-0.7-0.1-1-0.1c-0.3,0-0.5,0-0.7,0
		c-0.5,0.1-0.8,0.1-0.9,0.1c-0.4,0-0.7-0.2-0.7-0.6c0-0.3,0.2-0.5,0.6-0.5c0.1,0,0.2,0,0.3,0c0.2,0,0.3,0.1,0.4,0.1
		c0.3,0,0.4-0.3,0.4-0.9v-0.8v-1v-1.2c0-0.6,0-1-0.1-1.2c-0.1-0.4-0.3-0.7-0.6-1c-0.4-0.2-0.8-0.4-1.2-0.4c-0.9,0-1.5,0.3-1.9,0.9
		c-0.3,0.4-0.4,1.1-0.4,2.2v2.2c0,0.5,0,0.8,0.1,1c0.1,0.2,0.2,0.3,0.4,0.3c0.1,0,0.2,0,0.4-0.1c0.2,0,0.3-0.1,0.4-0.1
		c0.3,0,0.5,0.2,0.5,0.5c0,0.4-0.2,0.5-0.7,0.5c-0.1,0-0.4,0-0.8-0.1c-0.2,0-0.5,0-0.8,0c-0.2,0-0.5,0-0.9,0.1
		c-0.5,0.1-0.8,0.1-0.8,0.1c-0.5,0-0.7-0.2-0.7-0.6c0-0.3,0.2-0.5,0.5-0.5c0.1,0,0.2,0,0.3,0c0.1,0,0.3,0,0.4,0
		c0.3,0,0.5-0.3,0.5-0.9v-1.8v-2V225c0-0.4-0.1-0.6-0.1-0.8c-0.1-0.1-0.2-0.2-0.4-0.2c-0.1,0-0.2,0-0.3,0c-0.1,0-0.3,0-0.3,0
		c-0.4,0-0.6-0.2-0.6-0.5c0-0.4,0.2-0.5,0.7-0.5c0.1,0,0.1,0,0.2,0l0.6,0.1c0.2,0,0.3,0,0.5,0c0.3,0,0.4,0,0.4,0
		C86.9,223.1,87,223.2,87,223.6z"/>
	<path d="M98.6,222.8c1.1,0,1.9,0.4,2.4,1.3v-1.6c0-0.4,0-0.7,0-0.8c-0.1-0.3-0.2-0.5-0.5-0.5c-0.1,0-0.2,0-0.4,0
		c-0.2,0-0.3,0-0.4,0c-0.4,0-0.6-0.2-0.6-0.5c0-0.4,0.3-0.5,0.8-0.5c0.1,0,0.2,0,0.5,0c0.3,0,0.5,0,0.5,0c0.1,0,0.2,0,0.4,0
		c0.2,0,0.3,0,0.4,0c0.3,0,0.5,0.2,0.5,0.7v0.2c0,0,0,0.3,0,0.9c0,0.1,0,0.5,0,1.3c0,0.5,0,1,0,1.2v1.6v2.7c0,0.7,0,1.2,0.1,1.3
		c0.1,0.2,0.2,0.3,0.4,0.3c0.1,0,0.3,0,0.3,0c0.2,0,0.3,0,0.4,0c0.4,0,0.6,0.2,0.6,0.5c0,0.4-0.2,0.6-0.7,0.6c-0.1,0-0.3,0-0.5,0
		c-0.2,0-0.4,0-0.5,0c0,0-0.2,0-0.4,0c-0.1,0-0.2,0-0.3,0c-0.3,0-0.4-0.2-0.4-0.6v-0.1v-0.3c-0.6,0.8-1.4,1.2-2.5,1.2
		c-1.1,0-2-0.4-2.7-1.2c-0.7-0.8-1-1.9-1-3.2c0-1.3,0.3-2.4,1-3.2C96.6,223.2,97.5,222.8,98.6,222.8z M100.9,228.6
		c0-0.4,0.1-0.8,0.1-1.4c0-0.7,0-1.2-0.1-1.5c-0.1-0.5-0.3-1-0.7-1.3c-0.4-0.4-0.9-0.5-1.5-0.5c-0.8,0-1.4,0.3-1.8,0.9
		c-0.4,0.6-0.6,1.4-0.6,2.4c0,1,0.2,1.8,0.7,2.4c0.4,0.6,1.1,0.9,1.8,0.9c0.6,0,1.1-0.2,1.5-0.5
		C100.6,229.6,100.9,229.1,100.9,228.6z"/>
	<path d="M107.3,224.6l1.9,5.5l2-5.4c0.1-0.2,0.1-0.3,0.1-0.4c0-0.2-0.1-0.3-0.4-0.3c-0.1,0-0.2,0-0.3,0c-0.2,0-0.3,0-0.3,0
		c-0.4,0-0.5-0.2-0.5-0.5c0-0.4,0.2-0.6,0.7-0.6c0.1,0,0.2,0,0.3,0l0.6,0.1c0.2,0,0.3,0,0.5,0c0.2,0,0.5,0,0.8-0.1
		c0.4,0,0.6-0.1,0.8-0.1c0.5,0,0.7,0.2,0.7,0.5c0,0.4-0.2,0.5-0.5,0.5c-0.1,0-0.2,0-0.2,0c-0.1,0-0.2,0-0.3,0
		c-0.2,0-0.4,0.3-0.6,0.8l-2.2,5.6c-0.5,1.2-1,2.1-1.4,2.7c-0.7,0.9-1.7,1.4-2.8,1.4c-0.7,0-1.2-0.2-1.7-0.5
		c-0.5-0.3-0.7-0.7-0.7-1.2c0-0.3,0.1-0.6,0.3-0.8c0.2-0.2,0.5-0.3,0.8-0.3c0.3,0,0.5,0.1,0.6,0.2c0.2,0.1,0.2,0.3,0.2,0.5
		c0,0.3-0.2,0.6-0.5,0.7c0.2,0.2,0.5,0.4,0.9,0.4c0.6,0,1.1-0.2,1.6-0.6c0.5-0.4,0.7-0.9,0.7-1.4c0-0.3-0.1-0.8-0.4-1.5l-1.8-4.5
		l-0.2-0.5c-0.2-0.5-0.4-0.7-0.6-0.7c-0.1,0-0.2,0-0.4,0c-0.2,0-0.3,0-0.3,0c-0.4,0-0.6-0.2-0.6-0.5c0-0.4,0.2-0.6,0.8-0.6
		c0.2,0,0.3,0,0.4,0l0.7,0.1c0,0,0.1,0,0.1,0c0.1,0,0.1,0,0.2,0c0.4,0,0.8,0,1.3-0.1c0.3,0,0.6-0.1,0.7-0.1c0.5,0,0.7,0.2,0.7,0.5
		c0,0.4-0.2,0.5-0.6,0.5c-0.1,0-0.2,0-0.3,0c-0.1,0-0.2,0-0.3,0c-0.2,0-0.2,0.1-0.2,0.2C107.2,224.4,107.3,224.5,107.3,224.6z"/>
	<path d="M123.4,221.6c0-0.2,0.1-0.3,0.2-0.4c-0.2-0.2-0.5-0.3-0.8-0.3c-0.5,0-0.8,0.2-1.1,0.4c-0.3,0.3-0.4,0.7-0.4,1.2v0.3
		c0,0.1,0.1,0.2,0.2,0.2h1.3c0.4,0,0.5,0.2,0.5,0.6c0,0.4-0.2,0.6-0.5,0.6h-1.2c-0.2,0-0.3,0.1-0.3,0.3v4.6c0,0.4,0,0.6,0,0.7
		c0.1,0.3,0.2,0.4,0.4,0.4c0.1,0,0.2,0,0.4-0.1c0.2,0,0.3,0,0.3,0c0.4,0,0.6,0.2,0.6,0.5c0,0.4-0.2,0.6-0.7,0.6
		c-0.2,0-0.5,0-0.8-0.1s-0.7-0.1-0.8-0.1c-0.3,0-0.6,0-0.9,0c-0.4,0.1-0.7,0.1-0.8,0.1c-0.5,0-0.7-0.2-0.7-0.6
		c0-0.1,0.1-0.3,0.2-0.4c0.1-0.1,0.2-0.2,0.4-0.2c0.1,0,0.2,0,0.4,0.1c0.1,0,0.3,0.1,0.4,0.1c0.2,0,0.3-0.1,0.4-0.4
		c0.1-0.3,0.1-0.9,0.1-1.9v-3.4c0-0.2-0.1-0.3-0.3-0.3h-0.8c-0.4,0-0.6-0.2-0.6-0.6c0-0.4,0.2-0.6,0.6-0.6h0.9
		c0.1,0,0.2-0.1,0.2-0.2v-0.3c0-0.9,0.2-1.5,0.7-2s1.1-0.7,1.9-0.7c0.7,0,1.2,0.1,1.6,0.4c0.4,0.3,0.6,0.7,0.6,1.1
		c0,0.2-0.1,0.4-0.2,0.6c-0.2,0.1-0.3,0.2-0.6,0.2c-0.2,0-0.4-0.1-0.5-0.2C123.5,221.9,123.4,221.8,123.4,221.6z"/>
	<path d="M127.9,224.4v5.1c0,0.6,0.2,0.8,0.4,0.8c0.1,0,0.2,0,0.4-0.1c0.1,0,0.2,0,0.3,0c0.4,0,0.5,0.2,0.5,0.6
		c0,0.4-0.2,0.5-0.7,0.5c-0.2,0-0.4,0-0.8-0.1c-0.4,0-0.7-0.1-0.9-0.1c-0.2,0-0.4,0-0.8,0.1c-0.3,0-0.6,0.1-0.8,0.1h-0.1
		c-0.5,0-0.7-0.2-0.7-0.6c0-0.3,0.2-0.5,0.6-0.5c0,0,0.1,0,0.1,0c0.1,0,0.1,0,0.1,0c0.3,0.1,0.4,0.1,0.5,0.1c0.2,0,0.3-0.1,0.4-0.3
		c0-0.2,0.1-0.6,0.1-1.3l0-1.1v-2.5v-2.9c0-0.3,0-0.5,0-0.7c-0.1-0.3-0.2-0.4-0.5-0.4c0,0-0.2,0-0.4,0.1c-0.1,0-0.2,0-0.3,0
		c-0.4,0-0.6-0.2-0.6-0.5c0-0.4,0.2-0.5,0.7-0.5c0.1,0,0.2,0,0.3,0l0.4,0c0.2,0,0.3,0,0.4,0c0.1,0,0.3,0,0.5,0c0.2,0,0.4,0,0.5,0
		c0.3,0,0.4,0.2,0.4,0.5c0,0.1,0,0.2,0,0.2C128,221.7,127.9,222.9,127.9,224.4z"/>
	<path d="M137.4,231.4c-0.9,0-1.4-0.4-1.6-1.2c-0.6,0.8-1.4,1.2-2.6,1.2c-0.9,0-1.6-0.2-2.1-0.7c-0.5-0.4-0.8-1-0.8-1.7
		c0-0.9,0.4-1.6,1.2-2c0.3-0.2,0.5-0.3,0.8-0.3c0.2,0,0.6-0.1,1.3-0.2c0.9-0.1,1.5-0.2,1.8-0.4c0.3-0.2,0.4-0.5,0.4-1
		c0-0.4-0.2-0.8-0.5-1.1c-0.3-0.3-0.7-0.4-1.3-0.4c-0.5,0-0.9,0.1-1.4,0.4c-0.2,0.1-0.2,0.2-0.2,0.3c0,0,0,0.1,0.1,0.2
		c0.2,0.1,0.2,0.3,0.2,0.6c0,0.2-0.1,0.4-0.2,0.5c-0.2,0.1-0.4,0.2-0.6,0.2c-0.3,0-0.5-0.1-0.7-0.3c-0.2-0.2-0.3-0.4-0.3-0.7
		c0-0.6,0.3-1.1,0.9-1.6c0.6-0.4,1.3-0.7,2.2-0.7c2,0,3,1,3,2.9v3.3c0,0.5,0,0.8,0,0.9c0.1,0.4,0.3,0.6,0.6,0.6c0.4,0,0.6-0.3,0.6-1
		v-0.8c0-0.3,0.2-0.5,0.5-0.5c0.4,0,0.5,0.3,0.5,0.8v0.1v0.9C139.1,230.9,138.5,231.4,137.4,231.4z M135.6,228.2V227
		c-0.2,0.2-0.5,0.4-0.8,0.5c-0.3,0.1-0.7,0.2-1.4,0.2c-1.2,0.1-1.9,0.6-1.9,1.4c0,0.4,0.1,0.7,0.4,1c0.3,0.2,0.7,0.4,1.2,0.4
		c0.7,0,1.3-0.2,1.7-0.6C135.4,229.4,135.6,228.9,135.6,228.2z"/>
	<path d="M141.5,225l1.9,5.1l1.8-5.1c0.1-0.3,0.2-0.5,0.2-0.6c0-0.2-0.1-0.4-0.3-0.4c-0.1,0-0.2,0-0.4,0c-0.2,0-0.3,0-0.4,0
		c-0.4,0-0.5-0.2-0.5-0.5c0-0.4,0.3-0.6,0.8-0.6c0,0,0.1,0,0.1,0c0.1,0,0.1,0,0.1,0l0.7,0.1c0.2,0,0.3,0.1,0.5,0.1
		c0.2,0,0.6,0,1.1-0.1c0.3,0,0.5-0.1,0.7-0.1c0.5,0,0.7,0.2,0.7,0.5c0,0.4-0.2,0.5-0.6,0.5c-0.1,0-0.2,0-0.3,0
		c-0.2,0-0.3-0.1-0.3-0.1c-0.2,0-0.4,0.3-0.6,0.8l-2.3,5.9c-0.2,0.5-0.5,0.8-1,0.8c-0.4,0-0.8-0.3-1-0.8l-2.4-6.1
		c-0.2-0.4-0.3-0.6-0.5-0.6c-0.1,0-0.2,0-0.3,0c-0.2,0-0.3,0-0.3,0c-0.4,0-0.5-0.2-0.5-0.5c0-0.4,0.2-0.6,0.8-0.6c0.1,0,0.2,0,0.2,0
		l0.7,0.1c0.2,0,0.5,0,0.7,0c0.2,0,0.5,0,0.8-0.1l0.5-0.1c0.1,0,0.1,0,0.2,0c0.5,0,0.7,0.2,0.7,0.6c0,0.4-0.2,0.5-0.6,0.5
		c-0.1,0-0.2,0-0.3,0c-0.2-0.1-0.3-0.1-0.4-0.1c-0.2,0-0.3,0.1-0.3,0.2c0,0.1,0,0.2,0.1,0.3L141.5,225z"/>
	<path d="M152.4,231.5c-1.1,0-2.1-0.4-2.7-1.2s-1-1.8-1-3.2c0-1.3,0.3-2.4,1-3.2s1.6-1.2,2.8-1.2c1.2,0,2.1,0.4,2.8,1.2
		c0.7,0.8,1,1.8,1,3.2c0,1.3-0.4,2.4-1.1,3.2C154.5,231.1,153.6,231.5,152.4,231.5z M152.5,223.9c-0.8,0-1.4,0.3-1.8,0.8
		c-0.4,0.5-0.7,1.3-0.7,2.3v0.2c0,1,0.2,1.8,0.6,2.4c0.4,0.6,1,0.9,1.8,0.9c0.8,0,1.4-0.3,1.9-0.9c0.5-0.6,0.7-1.4,0.7-2.4
		C155,225,154.1,223.9,152.5,223.9z"/>
	<path d="M160,223.5v0.4c0.6-0.8,1.3-1.2,2.3-1.2c0.8,0,1.4,0.2,1.9,0.6c0.5,0.4,0.7,1,0.7,1.7c0,0.5-0.1,0.9-0.4,1.2
		c-0.2,0.3-0.6,0.4-0.9,0.4c-0.3,0-0.5-0.1-0.6-0.2c-0.2-0.2-0.3-0.3-0.3-0.6c0-0.2,0.1-0.3,0.2-0.5c0.1-0.1,0.3-0.2,0.5-0.2
		c0,0,0.1,0,0.2,0c0.1-0.1,0.1-0.2,0.1-0.4c0-0.3-0.1-0.6-0.4-0.8c-0.3-0.2-0.6-0.3-1-0.3c-0.8,0-1.4,0.4-1.7,1.1
		c-0.2,0.5-0.3,1.2-0.3,2.1v1.1c0,0.7,0,1.1,0,1.2c0.1,0.6,0.2,0.9,0.5,0.9c0.1,0,0.3,0,0.4-0.1c0.1,0,0.2,0,0.3,0
		c0.3,0,0.5,0.2,0.5,0.5c0,0.4-0.2,0.6-0.7,0.6h-0.1c-0.2,0-0.4,0-0.7-0.1c-0.3,0-0.6-0.1-0.7-0.1c-0.4,0-0.8,0-1,0l-0.9,0.1
		c-0.4,0-0.7-0.2-0.7-0.6c0-0.3,0.2-0.5,0.6-0.5c0.1,0,0.2,0,0.2,0l0.2,0c0.1,0,0.2,0,0.2,0c0.3,0,0.4-0.2,0.4-0.8v-0.8l0-3.7
		c0-0.6-0.2-1-0.5-1c-0.1,0-0.2,0-0.4,0c-0.2,0-0.3,0-0.4,0c-0.4,0-0.5-0.2-0.5-0.5c0-0.4,0.2-0.6,0.7-0.6c0.1,0,0.3,0,0.5,0
		c0.2,0,0.4,0,0.5,0c0.1,0,0.2,0,0.4,0c0.1,0,0.2,0,0.3,0C159.9,223.1,160,223.2,160,223.5z"/>
	<path d="M173,226.4c0,0.4,0,0.7-0.1,0.8c-0.1,0.1-0.2,0.1-0.5,0.1h-5.2c-0.1,0-0.2,0-0.3,0.1c0,0-0.1,0.1-0.1,0.2
		c0,0.8,0.2,1.5,0.7,2c0.5,0.5,1.1,0.8,1.8,0.8c0.5,0,0.9-0.1,1.3-0.4c0.4-0.3,0.7-0.6,0.8-1l0.1-0.5c0.1-0.3,0.3-0.4,0.5-0.4
		c0.4,0,0.6,0.2,0.6,0.6c0,0.7-0.4,1.3-1.1,1.9c-0.7,0.6-1.5,0.8-2.4,0.8c-1.1,0-2.1-0.4-2.7-1.2c-0.7-0.8-1-1.8-1-3.1
		c0-1.3,0.4-2.4,1.1-3.2c0.7-0.8,1.7-1.2,2.8-1.2c1,0,1.9,0.3,2.5,1C172.7,224.5,173,225.4,173,226.4z M167.1,226
		c0,0.2,0.1,0.2,0.4,0.2h3.9c0.2,0,0.3-0.1,0.3-0.2c0-0.6-0.2-1.1-0.7-1.5c-0.4-0.4-0.9-0.6-1.5-0.6c-0.6,0-1.2,0.2-1.7,0.7
		C167.3,225,167.1,225.5,167.1,226z"/>
	<path d="M177.9,222.8c1.1,0,1.9,0.4,2.4,1.3v-1.6c0-0.4,0-0.7,0-0.8c-0.1-0.3-0.2-0.5-0.5-0.5c-0.1,0-0.2,0-0.4,0s-0.3,0-0.4,0
		c-0.4,0-0.6-0.2-0.6-0.5c0-0.4,0.3-0.5,0.8-0.5c0.1,0,0.2,0,0.5,0c0.3,0,0.5,0,0.5,0c0.1,0,0.2,0,0.4,0c0.2,0,0.3,0,0.4,0
		c0.3,0,0.5,0.2,0.5,0.7v0.2c0,0,0,0.3,0,0.9c0,0.1,0,0.5,0,1.3c0,0.5,0,1,0,1.2v1.6v2.7c0,0.7,0,1.2,0.1,1.3
		c0.1,0.2,0.2,0.3,0.4,0.3c0.1,0,0.3,0,0.3,0c0.2,0,0.3,0,0.4,0c0.4,0,0.6,0.2,0.6,0.5c0,0.4-0.2,0.6-0.7,0.6c-0.1,0-0.3,0-0.5,0
		c-0.2,0-0.4,0-0.5,0c0,0-0.2,0-0.4,0c-0.1,0-0.2,0-0.3,0c-0.3,0-0.4-0.2-0.4-0.6v-0.1v-0.3c-0.6,0.8-1.4,1.2-2.5,1.2
		c-1.1,0-2-0.4-2.7-1.2c-0.7-0.8-1-1.9-1-3.2c0-1.3,0.3-2.4,1-3.2C175.9,223.2,176.8,222.8,177.9,222.8z M180.2,228.6
		c0-0.4,0.1-0.8,0.1-1.4c0-0.7,0-1.2-0.1-1.5c-0.1-0.5-0.3-1-0.7-1.3c-0.4-0.4-0.9-0.5-1.5-0.5c-0.8,0-1.4,0.3-1.8,0.9
		c-0.4,0.6-0.6,1.4-0.6,2.4c0,1,0.2,1.8,0.7,2.4c0.4,0.6,1.1,0.9,1.8,0.9c0.6,0,1.1-0.2,1.5-0.5
		C179.9,229.6,180.2,229.1,180.2,228.6z"/>
	<path d="M190.7,226.5v2.1c0,0.5,0,0.9,0,1c0.1,0.5,0.2,0.7,0.4,0.7c0.1,0,0.2,0,0.4-0.1c0.1,0,0.1,0,0.2,0c0.4,0,0.6,0.2,0.6,0.5
		c0,0.2-0.1,0.3-0.2,0.4c-0.1,0.1-0.3,0.2-0.5,0.2c-0.2,0-0.4,0-0.8-0.1c-0.4,0-0.6-0.1-0.8-0.1c-0.3,0-0.6,0-1,0.1
		c-0.4,0.1-0.7,0.1-0.9,0.1c-0.4,0-0.7-0.2-0.7-0.6c0-0.4,0.2-0.5,0.6-0.5c0.1,0,0.2,0,0.4,0c0.2,0,0.3,0,0.4,0c0.3,0,0.4-0.3,0.5-1
		c0,0,0-0.5,0-1.4v-1.3c0-0.9,0-1.4,0-1.4c-0.1-0.7-0.2-1-0.5-1c-0.1,0-0.2,0-0.4,0.1c-0.2,0-0.3,0.1-0.4,0.1
		c-0.4,0-0.6-0.2-0.6-0.5c0-0.4,0.2-0.6,0.7-0.6c0.2,0,0.4,0,0.4,0c0.3,0,0.6,0.1,0.7,0.1c0.1,0,0.2,0,0.4,0c0.2,0,0.3,0,0.4,0
		c0.3,0,0.5,0.2,0.5,0.6c0,0,0,0.1,0,0.2c0,0.1,0,0.2,0,0.2c0,0.1,0,0.4,0,1C190.7,225.6,190.7,226,190.7,226.5z M189.9,222.2
		c-0.3,0-0.5-0.1-0.6-0.3c-0.2-0.2-0.3-0.4-0.3-0.6s0.1-0.5,0.3-0.6c0.2-0.2,0.4-0.3,0.6-0.3c0.2,0,0.5,0.1,0.6,0.3
		c0.2,0.2,0.3,0.4,0.3,0.6s-0.1,0.5-0.3,0.6C190.4,222.1,190.1,222.2,189.9,222.2z"/>
	<path d="M197.9,225.8c0-0.4,0.3-0.7,0.8-0.8c-0.1-0.4-0.2-0.7-0.5-0.9c-0.3-0.2-0.7-0.3-1.2-0.3c-0.8,0-1.4,0.3-1.8,0.9
		c-0.5,0.6-0.7,1.4-0.7,2.4c0,1,0.2,1.8,0.6,2.4c0.4,0.6,1,0.9,1.8,0.9c0.5,0,0.9-0.1,1.3-0.4c0.4-0.3,0.6-0.6,0.7-1.1
		c0.1-0.4,0.2-0.6,0.2-0.7c0.1-0.2,0.3-0.3,0.5-0.3c0.2,0,0.3,0.1,0.5,0.2c0.1,0.1,0.2,0.3,0.2,0.5c0,0.3-0.1,0.6-0.3,1
		c-0.2,0.4-0.4,0.7-0.6,0.9c-0.6,0.7-1.5,1-2.5,1c-1.1,0-2-0.4-2.7-1.2c-0.7-0.8-1-1.8-1-3.1c0-1.4,0.4-2.4,1.1-3.2
		c0.7-0.8,1.6-1.2,2.8-1.2c0.9,0,1.6,0.2,2.2,0.7c0.6,0.5,0.9,1.1,0.9,1.8c0,0.4-0.1,0.7-0.3,1s-0.5,0.4-0.9,0.4
		c-0.3,0-0.5-0.1-0.7-0.2C198,226.3,197.9,226.1,197.9,225.8z"/>
	<path d="M208.9,226.4c0,0.4,0,0.7-0.1,0.8c-0.1,0.1-0.2,0.1-0.5,0.1h-5.2c-0.1,0-0.2,0-0.3,0.1c0,0-0.1,0.1-0.1,0.2
		c0,0.8,0.2,1.5,0.7,2c0.5,0.5,1.1,0.8,1.8,0.8c0.5,0,0.9-0.1,1.3-0.4c0.4-0.3,0.7-0.6,0.8-1l0.1-0.5c0.1-0.3,0.3-0.4,0.5-0.4
		c0.4,0,0.6,0.2,0.6,0.6c0,0.7-0.4,1.3-1.1,1.9c-0.7,0.6-1.5,0.8-2.4,0.8c-1.1,0-2.1-0.4-2.7-1.2c-0.7-0.8-1-1.8-1-3.1
		c0-1.3,0.4-2.4,1.1-3.2c0.7-0.8,1.7-1.2,2.8-1.2c1,0,1.9,0.3,2.5,1C208.6,224.5,208.9,225.4,208.9,226.4z M203,226
		c0,0.2,0.1,0.2,0.4,0.2h3.9c0.2,0,0.3-0.1,0.3-0.2c0-0.6-0.2-1.1-0.7-1.5c-0.4-0.4-0.9-0.6-1.5-0.6c-0.6,0-1.2,0.2-1.7,0.7
		C203.2,225,203,225.5,203,226z"/>
	<path d="M218.9,225.8c0-0.4,0.3-0.7,0.8-0.8c-0.1-0.4-0.2-0.7-0.5-0.9c-0.3-0.2-0.7-0.3-1.2-0.3c-0.8,0-1.4,0.3-1.8,0.9
		c-0.5,0.6-0.7,1.4-0.7,2.4c0,1,0.2,1.8,0.6,2.4c0.4,0.6,1,0.9,1.8,0.9c0.5,0,0.9-0.1,1.3-0.4c0.4-0.3,0.6-0.6,0.7-1.1
		c0.1-0.4,0.2-0.6,0.2-0.7c0.1-0.2,0.3-0.3,0.5-0.3c0.2,0,0.3,0.1,0.5,0.2c0.1,0.1,0.2,0.3,0.2,0.5c0,0.3-0.1,0.6-0.3,1
		c-0.2,0.4-0.4,0.7-0.6,0.9c-0.6,0.7-1.5,1-2.5,1c-1.1,0-2-0.4-2.7-1.2c-0.7-0.8-1-1.8-1-3.1c0-1.4,0.4-2.4,1.1-3.2
		c0.7-0.8,1.6-1.2,2.8-1.2c0.9,0,1.6,0.2,2.2,0.7c0.6,0.5,0.9,1.1,0.9,1.8c0,0.4-0.1,0.7-0.3,1s-0.5,0.4-0.9,0.4
		c-0.3,0-0.5-0.1-0.7-0.2C219,226.3,218.9,226.1,218.9,225.8z"/>
	<path d="M225,223.5v0.4c0.6-0.8,1.3-1.2,2.3-1.2c0.8,0,1.4,0.2,1.9,0.6c0.5,0.4,0.7,1,0.7,1.7c0,0.5-0.1,0.9-0.4,1.2
		c-0.2,0.3-0.6,0.4-0.9,0.4c-0.3,0-0.5-0.1-0.6-0.2c-0.2-0.2-0.3-0.3-0.3-0.6c0-0.2,0.1-0.3,0.2-0.5c0.1-0.1,0.3-0.2,0.5-0.2
		c0,0,0.1,0,0.2,0c0.1-0.1,0.1-0.2,0.1-0.4c0-0.3-0.1-0.6-0.4-0.8c-0.3-0.2-0.6-0.3-1-0.3c-0.8,0-1.4,0.4-1.7,1.1
		c-0.2,0.5-0.3,1.2-0.3,2.1v1.1c0,0.7,0,1.1,0,1.2c0.1,0.6,0.2,0.9,0.5,0.9c0.1,0,0.3,0,0.4-0.1c0.1,0,0.2,0,0.3,0
		c0.3,0,0.5,0.2,0.5,0.5c0,0.4-0.2,0.6-0.7,0.6h-0.1c-0.2,0-0.4,0-0.7-0.1c-0.3,0-0.6-0.1-0.7-0.1c-0.4,0-0.8,0-1,0l-0.9,0.1
		c-0.4,0-0.7-0.2-0.7-0.6c0-0.3,0.2-0.5,0.6-0.5c0.1,0,0.2,0,0.2,0l0.2,0c0.1,0,0.2,0,0.2,0c0.3,0,0.4-0.2,0.4-0.8v-0.8l0-3.7
		c0-0.6-0.2-1-0.5-1c-0.1,0-0.2,0-0.4,0c-0.2,0-0.3,0-0.4,0c-0.4,0-0.5-0.2-0.5-0.5c0-0.4,0.2-0.6,0.7-0.6c0.1,0,0.3,0,0.5,0
		c0.2,0,0.4,0,0.5,0c0.1,0,0.2,0,0.4,0c0.1,0,0.2,0,0.3,0C224.8,223.1,225,223.2,225,223.5z"/>
	<path d="M237.9,226.4c0,0.4,0,0.7-0.1,0.8c-0.1,0.1-0.2,0.1-0.5,0.1h-5.2c-0.1,0-0.2,0-0.3,0.1c0,0-0.1,0.1-0.1,0.2
		c0,0.8,0.2,1.5,0.7,2c0.5,0.5,1.1,0.8,1.8,0.8c0.5,0,0.9-0.1,1.3-0.4c0.4-0.3,0.7-0.6,0.8-1l0.1-0.5c0.1-0.3,0.3-0.4,0.5-0.4
		c0.4,0,0.6,0.2,0.6,0.6c0,0.7-0.4,1.3-1.1,1.9c-0.7,0.6-1.5,0.8-2.4,0.8c-1.1,0-2.1-0.4-2.7-1.2c-0.7-0.8-1-1.8-1-3.1
		c0-1.3,0.4-2.4,1.1-3.2c0.7-0.8,1.7-1.2,2.8-1.2c1,0,1.9,0.3,2.5,1C237.6,224.5,237.9,225.4,237.9,226.4z M232,226
		c0,0.2,0.1,0.2,0.4,0.2h3.9c0.2,0,0.3-0.1,0.3-0.2c0-0.6-0.2-1.1-0.7-1.5c-0.4-0.4-0.9-0.6-1.5-0.6c-0.6,0-1.2,0.2-1.7,0.7
		C232.3,225,232,225.5,232,226z"/>
	<path d="M246.2,231.4c-0.9,0-1.4-0.4-1.6-1.2c-0.6,0.8-1.4,1.2-2.6,1.2c-0.9,0-1.6-0.2-2.1-0.7c-0.5-0.4-0.8-1-0.8-1.7
		c0-0.9,0.4-1.6,1.2-2c0.3-0.2,0.5-0.3,0.8-0.3c0.2,0,0.6-0.1,1.3-0.2c0.9-0.1,1.5-0.2,1.8-0.4c0.3-0.2,0.4-0.5,0.4-1
		c0-0.4-0.2-0.8-0.5-1.1c-0.3-0.3-0.7-0.4-1.3-0.4c-0.5,0-0.9,0.1-1.4,0.4c-0.2,0.1-0.2,0.2-0.2,0.3c0,0,0,0.1,0.1,0.2
		c0.2,0.1,0.2,0.3,0.2,0.6c0,0.2-0.1,0.4-0.2,0.5c-0.2,0.1-0.4,0.2-0.6,0.2c-0.3,0-0.5-0.1-0.7-0.3c-0.2-0.2-0.3-0.4-0.3-0.7
		c0-0.6,0.3-1.1,0.9-1.6c0.6-0.4,1.3-0.7,2.2-0.7c2,0,3,1,3,2.9v3.3c0,0.5,0,0.8,0,0.9c0.1,0.4,0.3,0.6,0.6,0.6c0.4,0,0.6-0.3,0.6-1
		v-0.8c0-0.3,0.2-0.5,0.5-0.5c0.4,0,0.5,0.3,0.5,0.8v0.1v0.9C247.8,230.9,247.3,231.4,246.2,231.4z M244.4,228.2V227
		c-0.2,0.2-0.5,0.4-0.8,0.5c-0.3,0.1-0.7,0.2-1.4,0.2c-1.2,0.1-1.9,0.6-1.9,1.4c0,0.4,0.1,0.7,0.4,1c0.3,0.2,0.7,0.4,1.2,0.4
		c0.7,0,1.3-0.2,1.7-0.6C244.1,229.4,244.4,228.9,244.4,228.2z"/>
	<path d="M250.8,223.6v0.5c0.4-0.5,0.8-0.8,1.1-1c0.3-0.2,0.8-0.3,1.3-0.3c1.1,0,1.9,0.4,2.4,1.2c0.4-0.5,0.7-0.8,1.1-1
		c0.4-0.2,0.9-0.3,1.5-0.3c0.6,0,1.2,0.1,1.7,0.4c0.5,0.3,0.9,0.7,1.1,1.2c0.1,0.4,0.2,0.9,0.2,1.7v1.6v1.2c0,0.4,0,0.7,0,0.8
		c0.1,0.4,0.2,0.6,0.4,0.6c0.1,0,0.2,0,0.3-0.1c0.2,0,0.3-0.1,0.3-0.1c0.4,0,0.6,0.2,0.6,0.5c0,0.4-0.2,0.6-0.7,0.6
		c-0.2,0-0.4,0-0.7-0.1c-0.3,0-0.6-0.1-0.8-0.1c-0.2,0-0.5,0-0.8,0.1c-0.4,0-0.6,0.1-0.8,0.1c-0.5,0-0.7-0.2-0.7-0.6
		c0-0.3,0.2-0.5,0.5-0.5c0,0,0.2,0,0.3,0c0.1,0,0.2,0,0.3,0c0.2,0,0.3-0.1,0.4-0.3c0-0.2,0.1-0.6,0.1-1.4v-1v-1.1
		c0-0.8-0.1-1.3-0.2-1.6c-0.1-0.3-0.3-0.6-0.6-0.8c-0.3-0.2-0.7-0.3-1.1-0.3c-0.8,0-1.3,0.3-1.6,0.8c-0.2,0.4-0.4,1.2-0.4,2.2v1.2
		c0,1,0,1.7,0.1,1.9c0,0.3,0.2,0.4,0.4,0.4c0.1,0,0.2,0,0.3,0c0.1,0,0.2,0,0.3,0c0.2,0,0.3,0.1,0.4,0.2c0.1,0.1,0.2,0.2,0.2,0.4
		c0,0.4-0.3,0.5-0.8,0.5c-0.2,0-0.4,0-0.7-0.1s-0.6-0.1-0.7-0.1c-0.2,0-0.5,0-0.8,0.1c-0.3,0-0.5,0.1-0.7,0.1
		c-0.4,0-0.7-0.2-0.7-0.6c0-0.3,0.2-0.5,0.5-0.5c0.1,0,0.2,0,0.3,0c0.2,0,0.3,0.1,0.3,0.1c0.3,0,0.4-0.3,0.4-0.8l0-0.8
		c0-0.2,0-0.5,0-0.7c0-0.2,0-0.3,0-0.3v-1.4c0-1-0.1-1.6-0.4-2c-0.3-0.4-0.7-0.6-1.4-0.6c-0.7,0-1.3,0.3-1.6,0.8
		c-0.3,0.4-0.5,1.2-0.5,2.2v2.2c0,0.4,0,0.7,0,0.8c0,0.4,0.2,0.6,0.4,0.6c0.1,0,0.2,0,0.3-0.1c0,0,0.1,0,0.1,0c0,0,0.1,0,0.1,0
		c0.4,0,0.6,0.2,0.6,0.5c0,0.3-0.2,0.5-0.7,0.5c-0.2,0-0.4,0-0.7,0c-0.4,0-0.7-0.1-0.9-0.1c-0.1,0-0.4,0-0.7,0
		c-0.5,0-0.8,0.1-0.8,0.1c-0.4,0-0.7-0.2-0.7-0.6c0-0.3,0.2-0.5,0.6-0.5c0,0,0.1,0,0.1,0c0,0,0.1,0,0.1,0l0.4,0.1c0,0,0,0,0.1,0
		c0.3,0,0.5-0.3,0.5-0.8v-0.9v-2.5c0-0.9,0-1.5-0.1-1.7c0-0.2-0.2-0.3-0.4-0.3c0,0-0.2,0-0.5,0.1c-0.1,0-0.2,0-0.3,0
		c-0.4,0-0.6-0.2-0.6-0.5c0-0.4,0.2-0.6,0.7-0.6c0.1,0,0.3,0,0.5,0c0.2,0,0.4,0,0.5,0c0.1,0,0.1,0,0.2,0c0.1,0,0.1,0,0.1,0l0.4-0.1
		h0C250.7,223.1,250.8,223.2,250.8,223.6z"/>
	<path d="M44.2,244.9l1.2,5l1.3-5.7c0.1-0.6,0.3-1,0.4-1.2c0.2-0.2,0.4-0.3,0.7-0.3c0.3,0,0.6,0.1,0.7,0.3c0.2,0.2,0.3,0.6,0.4,1.2
		l1.2,5.7l1.2-5c0.1-0.3,0.1-0.6,0.1-0.8v0c0-0.3-0.1-0.4-0.4-0.4c-0.1,0-0.2,0-0.4,0.1c-0.2,0-0.3,0.1-0.4,0.1
		c-0.4,0-0.6-0.2-0.6-0.5c0-0.4,0.3-0.6,0.8-0.6c0.1,0,0.2,0,0.2,0l0.7,0.1c0.2,0,0.4,0,0.8,0c0.3,0,0.6,0,0.8-0.1l0.5-0.1
		c0,0,0.1,0,0.2,0c0.5,0,0.7,0.2,0.7,0.6c0,0.4-0.2,0.5-0.5,0.5c-0.1,0-0.2,0-0.3-0.1c-0.2,0-0.3-0.1-0.3-0.1
		c-0.3,0-0.6,0.6-0.9,1.8l-1.1,4.2c-0.1,0.5-0.3,0.9-0.5,1.1c-0.2,0.2-0.4,0.3-0.7,0.3c-0.6,0-1-0.5-1.2-1.4l-1.2-5.8l-1.3,5.7
		c-0.1,0.5-0.3,0.9-0.5,1.1c-0.2,0.2-0.4,0.3-0.8,0.3c-0.5,0-0.9-0.3-1-1l-1.6-5.9c-0.1-0.3-0.3-0.5-0.5-0.5c-0.1,0-0.2,0-0.3,0.1
		c-0.2,0-0.3,0-0.4,0c-0.4,0-0.5-0.2-0.5-0.5c0-0.4,0.2-0.6,0.7-0.6c0.1,0,0.1,0,0.2,0l0.7,0.1c0.2,0,0.4,0,0.6,0c0.3,0,0.7,0,1-0.1
		c0.5-0.1,0.8-0.1,0.8-0.1c0.5,0,0.7,0.2,0.7,0.6c0,0.4-0.2,0.5-0.6,0.5c-0.1,0-0.2,0-0.4,0c-0.1-0.1-0.3-0.1-0.4-0.1
		c-0.3,0-0.4,0.2-0.4,0.5C44.1,244.4,44.2,244.6,44.2,244.9z"/>
	<path d="M57.7,246.1v2.1c0,0.5,0,0.9,0,1c0.1,0.5,0.2,0.7,0.4,0.7c0.1,0,0.2,0,0.4-0.1c0.1,0,0.1,0,0.2,0c0.4,0,0.6,0.2,0.6,0.5
		c0,0.2-0.1,0.3-0.2,0.4c-0.1,0.1-0.3,0.2-0.5,0.2c-0.2,0-0.4,0-0.8-0.1c-0.4,0-0.6-0.1-0.8-0.1c-0.3,0-0.6,0-1,0.1
		c-0.4,0.1-0.7,0.1-0.9,0.1c-0.4,0-0.7-0.2-0.7-0.6c0-0.4,0.2-0.5,0.6-0.5c0.1,0,0.2,0,0.4,0c0.2,0,0.3,0,0.4,0c0.3,0,0.4-0.3,0.5-1
		c0,0,0-0.5,0-1.4v-1.3c0-0.9,0-1.4,0-1.4c-0.1-0.7-0.2-1-0.5-1c-0.1,0-0.2,0-0.4,0.1c-0.2,0-0.3,0.1-0.4,0.1
		c-0.4,0-0.6-0.2-0.6-0.5c0-0.4,0.2-0.6,0.7-0.6c0.2,0,0.4,0,0.4,0c0.3,0,0.6,0.1,0.7,0.1c0.1,0,0.2,0,0.4,0c0.2,0,0.3,0,0.4,0
		c0.3,0,0.5,0.2,0.5,0.6c0,0,0,0.1,0,0.2c0,0.1,0,0.2,0,0.2c0,0.1,0,0.4,0,1C57.7,245.2,57.7,245.6,57.7,246.1z M56.8,241.8
		c-0.3,0-0.5-0.1-0.6-0.3c-0.2-0.2-0.3-0.4-0.3-0.6s0.1-0.5,0.3-0.6s0.4-0.3,0.6-0.3s0.5,0.1,0.6,0.3c0.2,0.2,0.3,0.4,0.3,0.6
		s-0.1,0.5-0.3,0.6C57.3,241.7,57.1,241.8,56.8,241.8z"/>
	<path d="M64.6,248.6v-1c0-0.4,0.2-0.7,0.6-0.7c0.4,0,0.6,0.3,0.6,0.8c0,1.2-0.2,2-0.5,2.5c-0.4,0.6-1.1,0.9-2,0.9
		c-0.9,0-1.5-0.3-1.8-0.8c-0.3-0.4-0.4-1.1-0.4-2.1v-3.9c0-0.2-0.1-0.3-0.3-0.3h-0.5c-0.2,0-0.3-0.1-0.4-0.2
		c-0.1-0.1-0.2-0.3-0.2-0.4c0-0.2,0.1-0.3,0.2-0.4c0.1-0.1,0.2-0.2,0.4-0.2h0.6c0.2,0,0.3-0.1,0.3-0.3v-1.7c0-0.4,0.2-0.6,0.6-0.6
		c0.4,0,0.6,0.2,0.6,0.6v1.7c0,0.2,0.1,0.2,0.3,0.2h1.8c0.4,0,0.6,0.2,0.6,0.6c0,0.4-0.2,0.6-0.7,0.6h-1.8c-0.2,0-0.2,0.1-0.2,0.3v4
		c0,1.1,0.4,1.7,1.1,1.7C64.2,250,64.6,249.5,64.6,248.6z"/>
	<path d="M69.2,240.3l-0.1,3.2c0.4-0.4,0.8-0.7,1.2-0.9c0.4-0.2,0.8-0.2,1.3-0.2c0.9,0,1.7,0.3,2.3,0.8c0.6,0.5,0.9,1.2,0.9,2.1v2.7
		c0,0.6,0,1,0,1.1c0,0.5,0.2,0.8,0.4,0.8c0.1,0,0.2,0,0.4-0.1c0.1,0,0.2,0,0.3,0c0.4,0,0.6,0.2,0.6,0.6c0,0.4-0.3,0.6-0.8,0.6
		c-0.1,0-0.3,0-0.6,0c-0.5-0.1-0.8-0.1-1.1-0.1c-0.3,0-0.5,0-0.7,0c-0.5,0.1-0.7,0.1-0.8,0.1c-0.2,0-0.4-0.1-0.5-0.2
		c-0.1-0.1-0.2-0.3-0.2-0.4c0-0.1,0.1-0.3,0.2-0.4c0.1-0.1,0.2-0.1,0.4-0.1c0.1,0,0.3,0,0.4,0.1c0.1,0,0.2,0,0.3,0
		c0.3,0,0.5-0.4,0.5-1.1c0-0.1,0-0.4,0-0.8v-0.7v-0.9c0-1.1-0.1-1.9-0.3-2.2c-0.3-0.6-0.9-0.8-1.7-0.8c-0.9,0-1.5,0.3-1.9,0.9
		c-0.3,0.4-0.4,1-0.4,1.9v1.2c0,0.1,0,0.2-0.1,0.3c0,0.1,0,0.2,0,0.3c0,0.6,0,1,0,1.1c0.1,0.5,0.2,0.8,0.5,0.8c0.1,0,0.2,0,0.4-0.1
		c0.2,0,0.3-0.1,0.4-0.1c0.4,0,0.5,0.2,0.5,0.5c0,0.4-0.2,0.6-0.7,0.6c-0.2,0-0.4,0-0.7,0c-0.4,0-0.8-0.1-1.1-0.1
		c-0.2,0-0.4,0-0.8,0c-0.4,0-0.7,0.1-0.8,0.1c-0.4,0-0.7-0.2-0.7-0.6c0-0.3,0.2-0.5,0.6-0.5c0.1,0,0.2,0,0.3,0
		c0.2,0,0.3,0.1,0.4,0.1c0.2,0,0.3-0.2,0.4-0.5c0.1-0.3,0.1-1,0.1-2v-2.9c0-1.6,0-2.7-0.1-3.1s-0.2-0.6-0.5-0.6c-0.1,0-0.2,0-0.3,0
		c-0.2,0-0.3,0-0.4,0c-0.4,0-0.6-0.2-0.6-0.5c0-0.2,0.1-0.3,0.2-0.4c0.1-0.1,0.3-0.2,0.5-0.2c0.1,0,0.2,0,0.6,0c0.2,0,0.4,0,0.7,0
		c0.1,0,0.2,0,0.4,0s0.3,0,0.4,0C69.1,239.7,69.2,239.9,69.2,240.3L69.2,240.3z"/>
	<path d="M88.1,251c-0.9,0-1.4-0.4-1.6-1.2c-0.6,0.8-1.4,1.2-2.6,1.2c-0.9,0-1.6-0.2-2.1-0.7c-0.5-0.4-0.8-1-0.8-1.7
		c0-0.9,0.4-1.6,1.2-2c0.3-0.2,0.5-0.3,0.8-0.3c0.2,0,0.6-0.1,1.3-0.2c0.9-0.1,1.5-0.2,1.8-0.4c0.3-0.2,0.4-0.5,0.4-1
		c0-0.4-0.2-0.8-0.5-1.1c-0.3-0.3-0.7-0.4-1.3-0.4c-0.5,0-0.9,0.1-1.4,0.4c-0.2,0.1-0.2,0.2-0.2,0.3c0,0,0,0.1,0.1,0.2
		c0.2,0.1,0.2,0.3,0.2,0.6c0,0.2-0.1,0.4-0.2,0.5c-0.2,0.1-0.4,0.2-0.6,0.2c-0.3,0-0.5-0.1-0.7-0.3c-0.2-0.2-0.3-0.4-0.3-0.7
		c0-0.6,0.3-1.1,0.9-1.6c0.6-0.4,1.3-0.7,2.2-0.7c2,0,3,1,3,2.9v3.3c0,0.5,0,0.8,0,0.9c0.1,0.4,0.3,0.6,0.6,0.6c0.4,0,0.6-0.3,0.6-1
		v-0.8c0-0.3,0.2-0.5,0.5-0.5c0.4,0,0.5,0.3,0.5,0.8v0.1v0.9C89.8,250.5,89.2,251,88.1,251z M86.3,247.8v-1.2
		c-0.2,0.2-0.5,0.4-0.8,0.5c-0.3,0.1-0.7,0.2-1.4,0.2c-1.2,0.1-1.9,0.6-1.9,1.4c0,0.4,0.1,0.7,0.4,1c0.3,0.2,0.7,0.4,1.2,0.4
		c0.7,0,1.3-0.2,1.7-0.6C86.1,249,86.3,248.5,86.3,247.8z"/>
	<path d="M96.6,240.4c-0.1,0.9-0.2,2-0.2,3.2c0.3-0.5,0.7-0.8,1.1-1c0.4-0.2,0.8-0.3,1.4-0.3c1.1,0,2,0.4,2.6,1.1c0.6,0.8,1,1.8,1,3
		c0,1.4-0.3,2.5-1,3.3c-0.7,0.8-1.6,1.2-2.8,1.2c-1.1,0-1.9-0.4-2.4-1.3c0,0.3,0.1,0.5,0.1,0.5c0,0.4-0.2,0.6-0.6,0.6
		c-0.4,0-0.6-0.3-0.6-0.8c0-0.2,0-0.3,0-0.3c0-0.2,0-0.5,0-0.8l0.1-1.3v-1.7v-4.4c0-0.4-0.1-0.7-0.1-0.8c-0.1-0.1-0.2-0.2-0.4-0.2
		c0,0-0.2,0-0.4,0.1c-0.1,0-0.2,0-0.3,0c-0.4,0-0.6-0.2-0.6-0.5c0-0.4,0.2-0.5,0.7-0.5c0.1,0,0.2,0,0.3,0l0.4,0c0.2,0,0.3,0,0.4,0
		c0.1,0,0.3,0,0.5,0c0.2,0,0.4,0,0.5,0c0.2,0,0.4,0.2,0.4,0.5V240.4z M96.5,245.1c-0.1,0.3-0.1,0.8-0.1,1.5c0,1.1,0.1,1.8,0.3,2.2
		c0.3,0.8,1,1.2,1.9,1.2c0.8,0,1.4-0.3,1.8-0.9c0.4-0.6,0.7-1.4,0.7-2.4c0-1-0.2-1.8-0.6-2.4c-0.4-0.6-1-0.9-1.7-0.9
		c-0.5,0-1,0.2-1.4,0.5C96.9,244.3,96.6,244.7,96.5,245.1z"/>
	<path d="M106.2,244v5.1c0,0.6,0.2,0.8,0.4,0.8c0.1,0,0.2,0,0.4-0.1c0.1,0,0.2,0,0.3,0c0.4,0,0.5,0.2,0.5,0.6c0,0.4-0.2,0.5-0.7,0.5
		c-0.2,0-0.4,0-0.8-0.1c-0.4,0-0.7-0.1-0.9-0.1c-0.2,0-0.4,0-0.8,0.1c-0.3,0-0.6,0.1-0.8,0.1h-0.1c-0.5,0-0.7-0.2-0.7-0.6
		c0-0.3,0.2-0.5,0.6-0.5c0,0,0.1,0,0.1,0c0.1,0,0.1,0,0.1,0c0.3,0.1,0.4,0.1,0.5,0.1c0.2,0,0.3-0.1,0.4-0.3c0-0.2,0.1-0.6,0.1-1.3
		l0-1.1v-2.5v-2.9c0-0.3,0-0.5,0-0.7c-0.1-0.3-0.2-0.4-0.5-0.4c0,0-0.2,0-0.4,0.1c-0.1,0-0.2,0-0.3,0c-0.4,0-0.6-0.2-0.6-0.5
		c0-0.4,0.2-0.5,0.7-0.5c0.1,0,0.2,0,0.3,0l0.4,0c0.2,0,0.3,0,0.4,0c0.1,0,0.3,0,0.5,0c0.2,0,0.4,0,0.5,0c0.3,0,0.4,0.2,0.4,0.5
		c0,0.1,0,0.2,0,0.2C106.2,241.3,106.2,242.5,106.2,244z"/>
	<path d="M115.7,251c-0.9,0-1.4-0.4-1.6-1.2c-0.6,0.8-1.4,1.2-2.6,1.2c-0.9,0-1.6-0.2-2.1-0.7c-0.5-0.4-0.8-1-0.8-1.7
		c0-0.9,0.4-1.6,1.2-2c0.3-0.2,0.5-0.3,0.8-0.3c0.2,0,0.6-0.1,1.3-0.2c0.9-0.1,1.5-0.2,1.8-0.4c0.3-0.2,0.4-0.5,0.4-1
		c0-0.4-0.2-0.8-0.5-1.1c-0.3-0.3-0.7-0.4-1.3-0.4c-0.5,0-0.9,0.1-1.4,0.4c-0.2,0.1-0.2,0.2-0.2,0.3c0,0,0,0.1,0.1,0.2
		c0.2,0.1,0.2,0.3,0.2,0.6c0,0.2-0.1,0.4-0.2,0.5c-0.2,0.1-0.4,0.2-0.6,0.2c-0.3,0-0.5-0.1-0.7-0.3c-0.2-0.2-0.3-0.4-0.3-0.7
		c0-0.6,0.3-1.1,0.9-1.6c0.6-0.4,1.3-0.7,2.2-0.7c2,0,3,1,3,2.9v3.3c0,0.5,0,0.8,0,0.9c0.1,0.4,0.3,0.6,0.6,0.6c0.4,0,0.6-0.3,0.6-1
		v-0.8c0-0.3,0.2-0.5,0.5-0.5c0.4,0,0.5,0.3,0.5,0.8v0.1v0.9C117.3,250.5,116.8,251,115.7,251z M113.9,247.8v-1.2
		c-0.2,0.2-0.5,0.4-0.8,0.5c-0.3,0.1-0.7,0.2-1.4,0.2c-1.2,0.1-1.9,0.6-1.9,1.4c0,0.4,0.1,0.7,0.4,1c0.3,0.2,0.7,0.4,1.2,0.4
		c0.7,0,1.3-0.2,1.7-0.6C113.6,249,113.9,248.5,113.9,247.8z"/>
	<path d="M121.3,242.4c0.7,0,1.3,0.2,1.8,0.6v-0.1c0-0.4,0.2-0.6,0.5-0.6c0.4,0,0.5,0.2,0.5,0.5c0,0.1,0,0.2,0,0.5
		c0,0.2-0.1,0.4-0.1,0.7c0,0.1,0,0.3,0,0.6c0,0.2,0,0.4,0,0.6c0,0.4-0.2,0.6-0.5,0.6c-0.3,0-0.5-0.2-0.5-0.5v-0.5
		c0-0.3-0.2-0.6-0.6-0.8c-0.4-0.2-0.8-0.4-1.3-0.4c-0.5,0-0.9,0.1-1.3,0.4c-0.3,0.3-0.5,0.6-0.5,1c0,0.7,0.5,1.1,1.4,1.2l0.9,0.1
		c1.9,0.2,2.8,1,2.8,2.3c0,0.8-0.3,1.4-0.9,1.9c-0.6,0.5-1.4,0.7-2.3,0.7c-0.9,0-1.7-0.3-2.3-0.8c0,0.1,0,0.2,0,0.3
		c0,0.4-0.2,0.6-0.6,0.6c-0.4,0-0.6-0.2-0.6-0.7c0,0.1,0-0.2,0.1-0.8c0-0.2,0-0.3,0-0.5c0-0.3,0-0.5-0.1-0.7c0-0.2-0.1-0.4-0.1-0.5
		c0-0.4,0.2-0.6,0.5-0.6c0.2,0,0.4,0.1,0.4,0.2s0.1,0.4,0.1,0.9c0,0.5,0.3,0.8,0.7,1.1c0.5,0.3,1.1,0.4,1.8,0.4c0.5,0,1-0.1,1.3-0.4
		c0.3-0.3,0.5-0.6,0.5-1c0-0.7-0.6-1.2-1.8-1.3c-1.1-0.1-2-0.3-2.6-0.7c-0.6-0.3-0.9-0.9-0.9-1.7c0-0.8,0.3-1.4,0.9-1.9
		C119.6,242.6,120.4,242.4,121.3,242.4z"/>
	<path d="M130.5,248.6v-1c0-0.4,0.2-0.7,0.6-0.7c0.4,0,0.6,0.3,0.6,0.8c0,1.2-0.2,2-0.5,2.5c-0.4,0.6-1.1,0.9-2,0.9
		c-0.9,0-1.5-0.3-1.8-0.8c-0.3-0.4-0.4-1.1-0.4-2.1v-3.9c0-0.2-0.1-0.3-0.3-0.3H126c-0.2,0-0.3-0.1-0.4-0.2
		c-0.1-0.1-0.2-0.3-0.2-0.4c0-0.2,0.1-0.3,0.2-0.4c0.1-0.1,0.2-0.2,0.4-0.2h0.6c0.2,0,0.3-0.1,0.3-0.3v-1.7c0-0.4,0.2-0.6,0.6-0.6
		c0.4,0,0.6,0.2,0.6,0.6v1.7c0,0.2,0.1,0.2,0.3,0.2h1.8c0.4,0,0.6,0.2,0.6,0.6c0,0.4-0.2,0.6-0.7,0.6h-1.8c-0.2,0-0.2,0.1-0.2,0.3v4
		c0,1.1,0.4,1.7,1.1,1.7C130,250,130.4,249.5,130.5,248.6z"/>
	<path d="M140.3,251.1c-1.1,0-2.1-0.4-2.7-1.2c-0.7-0.8-1-1.8-1-3.2c0-1.3,0.3-2.4,1-3.2c0.7-0.8,1.6-1.2,2.8-1.2
		c1.2,0,2.1,0.4,2.8,1.2c0.7,0.8,1,1.8,1,3.2c0,1.3-0.4,2.4-1.1,3.2C142.4,250.7,141.5,251.1,140.3,251.1z M140.4,243.5
		c-0.8,0-1.4,0.3-1.8,0.8c-0.4,0.5-0.7,1.3-0.7,2.3v0.2c0,1,0.2,1.8,0.6,2.4c0.4,0.6,1,0.9,1.8,0.9c0.8,0,1.4-0.3,1.9-0.9
		c0.5-0.6,0.7-1.4,0.7-2.4C142.8,244.6,142,243.5,140.4,243.5z"/>
	<path d="M150.3,241.2c0-0.2,0.1-0.3,0.2-0.4c-0.2-0.2-0.5-0.3-0.8-0.3c-0.5,0-0.8,0.2-1.1,0.4c-0.3,0.3-0.4,0.7-0.4,1.2v0.3
		c0,0.1,0.1,0.2,0.2,0.2h1.3c0.4,0,0.5,0.2,0.5,0.6c0,0.4-0.2,0.6-0.5,0.6h-1.2c-0.2,0-0.3,0.1-0.3,0.3v4.6c0,0.4,0,0.6,0,0.7
		c0.1,0.3,0.2,0.4,0.4,0.4c0.1,0,0.2,0,0.4-0.1c0.2,0,0.3,0,0.3,0c0.4,0,0.6,0.2,0.6,0.5c0,0.4-0.2,0.6-0.7,0.6
		c-0.2,0-0.5,0-0.8-0.1c-0.4,0-0.7-0.1-0.8-0.1c-0.3,0-0.6,0-0.9,0c-0.4,0.1-0.7,0.1-0.8,0.1c-0.5,0-0.7-0.2-0.7-0.6
		c0-0.1,0.1-0.3,0.2-0.4c0.1-0.1,0.2-0.2,0.4-0.2c0.1,0,0.2,0,0.4,0.1c0.1,0,0.3,0.1,0.4,0.1c0.2,0,0.3-0.1,0.4-0.4
		c0.1-0.3,0.1-0.9,0.1-1.9v-3.4c0-0.2-0.1-0.3-0.3-0.3h-0.8c-0.4,0-0.6-0.2-0.6-0.6c0-0.4,0.2-0.6,0.6-0.6h0.9
		c0.1,0,0.2-0.1,0.2-0.2v-0.3c0-0.9,0.2-1.5,0.7-2s1.1-0.7,1.9-0.7c0.7,0,1.2,0.1,1.6,0.4c0.4,0.3,0.6,0.7,0.6,1.1
		c0,0.2-0.1,0.4-0.2,0.6c-0.2,0.1-0.3,0.2-0.6,0.2c-0.2,0-0.4-0.1-0.5-0.2C150.3,241.5,150.3,241.4,150.3,241.2z"/>
	<path d="M158.6,242.4c0.7,0,1.3,0.2,1.8,0.6v-0.1c0-0.4,0.2-0.6,0.5-0.6c0.4,0,0.5,0.2,0.5,0.5c0,0.1,0,0.2,0,0.5
		c0,0.2-0.1,0.4-0.1,0.7c0,0.1,0,0.3,0,0.6c0,0.2,0,0.4,0,0.6c0,0.4-0.2,0.6-0.5,0.6c-0.3,0-0.5-0.2-0.5-0.5v-0.5
		c0-0.3-0.2-0.6-0.6-0.8c-0.4-0.2-0.8-0.4-1.3-0.4c-0.5,0-0.9,0.1-1.3,0.4c-0.3,0.3-0.5,0.6-0.5,1c0,0.7,0.5,1.1,1.4,1.2l0.9,0.1
		c1.9,0.2,2.8,1,2.8,2.3c0,0.8-0.3,1.4-0.9,1.9c-0.6,0.5-1.4,0.7-2.3,0.7c-0.9,0-1.7-0.3-2.3-0.8c0,0.1,0,0.2,0,0.3
		c0,0.4-0.2,0.6-0.6,0.6c-0.4,0-0.6-0.2-0.6-0.7c0,0.1,0-0.2,0.1-0.8c0-0.2,0-0.3,0-0.5c0-0.3,0-0.5-0.1-0.7c0-0.2-0.1-0.4-0.1-0.5
		c0-0.4,0.2-0.6,0.5-0.6c0.2,0,0.4,0.1,0.4,0.2s0.1,0.4,0.1,0.9s0.3,0.8,0.7,1.1c0.5,0.3,1.1,0.4,1.8,0.4c0.5,0,1-0.1,1.3-0.4
		c0.3-0.3,0.5-0.6,0.5-1c0-0.7-0.6-1.2-1.8-1.3c-1.1-0.1-2-0.3-2.6-0.7c-0.6-0.3-0.9-0.9-0.9-1.7c0-0.8,0.3-1.4,0.9-1.9
		C156.9,242.6,157.7,242.4,158.6,242.4z"/>
	<path d="M165.7,243.1v0.5c0.6-0.8,1.4-1.3,2.5-1.3c1.1,0,2,0.4,2.6,1.1c0.6,0.8,1,1.8,1,3.1c0,1.4-0.3,2.5-1,3.3
		c-0.7,0.8-1.6,1.2-2.7,1.2c-0.9,0-1.7-0.3-2.3-1v1.4c0,0.4,0,0.7,0,0.8c0.1,0.3,0.2,0.5,0.5,0.5c0.1,0,0.2,0,0.3,0
		c0.2,0,0.3,0,0.3,0c0.3,0,0.5,0.2,0.5,0.5c0,0.4-0.2,0.5-0.7,0.5c-0.2,0-0.4,0-0.7-0.1c-0.2,0-0.6,0-1.1,0c-0.3,0-0.5,0-0.7,0
		c-0.4,0.1-0.7,0.1-0.9,0.1c-0.2,0-0.3-0.1-0.5-0.2c-0.1-0.1-0.2-0.2-0.2-0.4c0-0.3,0.2-0.5,0.6-0.5c0.1,0,0.2,0,0.3,0
		c0.2,0,0.3,0.1,0.4,0.1c0.2,0,0.3-0.1,0.4-0.3c0-0.2,0.1-0.8,0.1-1.8v-6.3c0-0.5-0.2-0.8-0.4-0.8c-0.1,0-0.2,0-0.3,0.1
		c-0.2,0-0.3,0.1-0.4,0.1c-0.4,0-0.6-0.2-0.6-0.5c0-0.3,0.2-0.5,0.7-0.5c0.1,0,0.2,0,0.4,0c0.3,0,0.5,0,0.6,0c0.1,0,0.2,0,0.4,0
		c0.2,0,0.3,0,0.4,0C165.6,242.7,165.7,242.8,165.7,243.1z M166,245.1c-0.1,0.4-0.2,0.9-0.2,1.6c0,0,0,0.1,0,0.2c0,0.1,0,0.2,0,0.2
		c0,0.7,0.1,1.3,0.2,1.6c0.1,0.3,0.4,0.6,0.7,0.9s0.8,0.4,1.3,0.4c0.8,0,1.4-0.3,1.8-0.9c0.4-0.6,0.6-1.4,0.6-2.4
		c0-2.2-0.8-3.3-2.3-3.3c-0.5,0-1,0.2-1.4,0.5C166.3,244.3,166.1,244.6,166,245.1z"/>
	<path d="M175.5,243.1v0.4c0.6-0.8,1.3-1.2,2.3-1.2c0.8,0,1.4,0.2,1.9,0.6c0.5,0.4,0.7,1,0.7,1.7c0,0.5-0.1,0.9-0.4,1.2
		c-0.2,0.3-0.6,0.4-0.9,0.4c-0.3,0-0.5-0.1-0.6-0.2c-0.2-0.2-0.3-0.3-0.3-0.6c0-0.2,0.1-0.3,0.2-0.5c0.1-0.1,0.3-0.2,0.5-0.2
		c0,0,0.1,0,0.2,0c0.1-0.1,0.1-0.2,0.1-0.4c0-0.3-0.1-0.6-0.4-0.8c-0.3-0.2-0.6-0.3-1-0.3c-0.8,0-1.4,0.4-1.7,1.1
		c-0.2,0.5-0.3,1.2-0.3,2.1v1.1c0,0.7,0,1.1,0,1.2c0.1,0.6,0.2,0.9,0.5,0.9c0.1,0,0.3,0,0.4-0.1c0.1,0,0.2,0,0.3,0
		c0.3,0,0.5,0.2,0.5,0.5c0,0.4-0.2,0.6-0.7,0.6h-0.1c-0.2,0-0.4,0-0.7-0.1c-0.3,0-0.6-0.1-0.7-0.1c-0.4,0-0.8,0-1,0l-0.9,0.1
		c-0.4,0-0.7-0.2-0.7-0.6c0-0.3,0.2-0.5,0.6-0.5c0.1,0,0.2,0,0.2,0l0.2,0c0.1,0,0.2,0,0.2,0c0.3,0,0.4-0.2,0.4-0.8v-0.8l0-3.7
		c0-0.6-0.2-1-0.5-1c-0.1,0-0.2,0-0.4,0c-0.2,0-0.3,0-0.4,0c-0.4,0-0.5-0.2-0.5-0.5c0-0.4,0.2-0.6,0.7-0.6c0.1,0,0.3,0,0.5,0
		c0.2,0,0.4,0,0.5,0c0.1,0,0.2,0,0.4,0c0.1,0,0.2,0,0.3,0C175.3,242.7,175.5,242.8,175.5,243.1z"/>
	<path d="M183.7,246.1v2.1c0,0.5,0,0.9,0,1c0.1,0.5,0.2,0.7,0.4,0.7c0.1,0,0.2,0,0.4-0.1c0.1,0,0.1,0,0.2,0c0.4,0,0.6,0.2,0.6,0.5
		c0,0.2-0.1,0.3-0.2,0.4c-0.1,0.1-0.3,0.2-0.5,0.2c-0.2,0-0.4,0-0.8-0.1c-0.4,0-0.6-0.1-0.8-0.1c-0.3,0-0.6,0-1,0.1
		c-0.4,0.1-0.7,0.1-0.9,0.1c-0.4,0-0.7-0.2-0.7-0.6c0-0.4,0.2-0.5,0.6-0.5c0.1,0,0.2,0,0.4,0c0.2,0,0.3,0,0.4,0c0.3,0,0.4-0.3,0.5-1
		c0,0,0-0.5,0-1.4v-1.3c0-0.9,0-1.4,0-1.4c-0.1-0.7-0.2-1-0.5-1c-0.1,0-0.2,0-0.4,0.1c-0.2,0-0.3,0.1-0.4,0.1
		c-0.4,0-0.6-0.2-0.6-0.5c0-0.4,0.2-0.6,0.7-0.6c0.2,0,0.4,0,0.4,0c0.3,0,0.6,0.1,0.7,0.1c0.1,0,0.2,0,0.4,0c0.2,0,0.3,0,0.4,0
		c0.3,0,0.5,0.2,0.5,0.6c0,0,0,0.1,0,0.2c0,0.1,0,0.2,0,0.2c0,0.1,0,0.4,0,1C183.7,245.2,183.7,245.6,183.7,246.1z M182.8,241.8
		c-0.3,0-0.5-0.1-0.6-0.3c-0.2-0.2-0.3-0.4-0.3-0.6s0.1-0.5,0.3-0.6c0.2-0.2,0.4-0.3,0.6-0.3c0.2,0,0.5,0.1,0.6,0.3s0.3,0.4,0.3,0.6
		s-0.1,0.5-0.3,0.6C183.3,241.7,183.1,241.8,182.8,241.8z"/>
	<path d="M188.6,243.2v0.5c0.7-0.8,1.5-1.2,2.6-1.2c0.6,0,1.1,0.2,1.7,0.4c0.5,0.3,0.9,0.7,1.1,1.1c0.2,0.4,0.2,0.9,0.2,1.5v3.1
		c0,0.5,0,0.7,0,0.8c0.1,0.4,0.2,0.6,0.4,0.6c0.1,0,0.2,0,0.4,0c0.2,0,0.3,0,0.3,0c0.1,0,0.3,0,0.4,0.1c0.1,0.1,0.2,0.2,0.2,0.4
		c0,0.2-0.1,0.3-0.2,0.4c-0.1,0.1-0.3,0.2-0.5,0.2c-0.2,0-0.4,0-0.8-0.1c-0.3,0-0.7-0.1-1-0.1c-0.3,0-0.5,0-0.7,0
		c-0.5,0.1-0.8,0.1-0.9,0.1c-0.4,0-0.7-0.2-0.7-0.6c0-0.3,0.2-0.5,0.6-0.5c0.1,0,0.2,0,0.3,0c0.2,0,0.3,0.1,0.4,0.1
		c0.3,0,0.4-0.3,0.4-0.9v-0.8v-1v-1.2c0-0.6,0-1-0.1-1.2c-0.1-0.4-0.3-0.7-0.6-1c-0.4-0.2-0.8-0.4-1.2-0.4c-0.9,0-1.5,0.3-1.9,0.9
		c-0.3,0.4-0.4,1.1-0.4,2.2v2.2c0,0.5,0,0.8,0.1,1c0.1,0.2,0.2,0.3,0.4,0.3c0.1,0,0.2,0,0.4-0.1c0.2,0,0.3-0.1,0.4-0.1
		c0.3,0,0.5,0.2,0.5,0.5c0,0.4-0.2,0.5-0.7,0.5c-0.1,0-0.4,0-0.8-0.1c-0.2,0-0.5,0-0.8,0c-0.2,0-0.5,0-0.9,0.1
		c-0.5,0.1-0.8,0.1-0.8,0.1c-0.5,0-0.7-0.2-0.7-0.6c0-0.3,0.2-0.5,0.5-0.5c0.1,0,0.2,0,0.3,0c0.1,0,0.3,0,0.4,0
		c0.3,0,0.5-0.3,0.5-0.9v-1.8v-2v-0.6c0-0.4-0.1-0.6-0.1-0.8s-0.2-0.2-0.4-0.2c-0.1,0-0.2,0-0.3,0c-0.2,0-0.3,0-0.3,0
		c-0.4,0-0.6-0.2-0.6-0.5c0-0.4,0.2-0.5,0.7-0.5c0.1,0,0.1,0,0.2,0l0.6,0.1c0.2,0,0.3,0,0.5,0c0.3,0,0.4,0,0.4,0
		C188.4,242.7,188.6,242.8,188.6,243.2z"/>
	<path d="M199,246.7l2.8-2.6c0.1-0.1,0.1-0.2,0.1-0.3c0-0.1-0.1-0.2-0.2-0.2c-0.1,0-0.3,0-0.5,0.1c-0.2,0-0.4,0.1-0.5,0.1
		c-0.4,0-0.6-0.2-0.6-0.5c0-0.4,0.2-0.6,0.7-0.6c0.1,0,0.3,0,0.5,0c0.8,0.1,1.3,0.1,1.7,0.1c0.2,0,0.4,0,0.6,0l0.7-0.1
		c0.2,0,0.3,0,0.4,0c0.5,0,0.8,0.2,0.8,0.6c0,0.4-0.2,0.5-0.6,0.5c-0.1,0-0.2,0-0.4,0c-0.2,0-0.3,0-0.4,0c-0.3,0-0.6,0.1-0.8,0.4
		l-1.7,1.6c-0.1,0.1-0.2,0.2-0.2,0.3c0,0.1,0,0.1,0.1,0.2l2.1,2.7c0.5,0.7,0.9,1,1.1,1c0.1,0,0.1,0,0.3,0c0.1,0,0.2,0,0.3,0
		c0.4,0,0.6,0.2,0.6,0.5c0,0.4-0.2,0.6-0.8,0.6c-0.2,0-0.5,0-0.9-0.1c-0.4,0-0.7-0.1-0.9-0.1c-0.2,0-0.4,0-0.8,0.1
		c-0.3,0-0.6,0.1-0.7,0.1c-0.4,0-0.6-0.2-0.6-0.6c0-0.3,0.2-0.5,0.6-0.5c0.1,0,0.2,0,0.3,0c0.2,0.1,0.3,0.1,0.4,0.1
		c0.1,0,0.1,0,0.1-0.1c0,0,0,0,0,0c0,0,0,0,0,0l-0.2-0.2l-0.2-0.3l-1.6-2.2c-0.1-0.1-0.2-0.2-0.3-0.2c0,0-0.1,0.1-0.2,0.2L199,248
		v0.4c0,0.5,0,0.8,0,0.9c0.1,0.4,0.2,0.6,0.5,0.6c0.1,0,0.2,0,0.3,0c0.1,0,0.2,0,0.3,0c0.4,0,0.6,0.2,0.6,0.5c0,0.4-0.2,0.5-0.6,0.5
		c-0.2,0-0.5,0-0.8-0.1c-0.4,0-0.7-0.1-0.9-0.1c-0.3,0-0.5,0-0.9,0.1c-0.4,0.1-0.7,0.1-0.8,0.1c-0.4,0-0.6-0.2-0.6-0.5
		c0-0.4,0.2-0.5,0.6-0.5c0.1,0,0.2,0,0.3,0c0.2,0,0.3,0,0.4,0c0.3,0,0.4-0.2,0.4-0.6l0-0.6V242c0-0.6-0.1-1-0.1-1.1
		c-0.1-0.2-0.2-0.2-0.3-0.2c-0.1,0-0.2,0-0.3,0c-0.2,0.1-0.3,0.1-0.5,0.1c-0.4,0-0.5-0.2-0.5-0.5c0-0.4,0.2-0.6,0.6-0.6
		c0.2,0,0.4,0,0.5,0c0.3,0,0.5,0,0.5,0s0.2,0,0.4,0c0.2,0,0.3,0,0.4,0h0.1c0.3,0,0.5,0.2,0.5,0.7V246.7z"/>
	<path d="M209.2,244v5.1c0,0.6,0.2,0.8,0.4,0.8c0.1,0,0.2,0,0.4-0.1c0.1,0,0.2,0,0.3,0c0.4,0,0.5,0.2,0.5,0.6c0,0.4-0.2,0.5-0.7,0.5
		c-0.2,0-0.5,0-0.8-0.1s-0.7-0.1-0.9-0.1c-0.2,0-0.4,0-0.8,0.1s-0.6,0.1-0.8,0.1h-0.1c-0.5,0-0.7-0.2-0.7-0.6c0-0.3,0.2-0.5,0.6-0.5
		c0,0,0.1,0,0.1,0c0.1,0,0.1,0,0.1,0c0.3,0.1,0.4,0.1,0.5,0.1c0.2,0,0.3-0.1,0.4-0.3c0-0.2,0.1-0.6,0.1-1.3l0-1.1v-2.5v-2.9
		c0-0.3,0-0.5,0-0.7c-0.1-0.3-0.2-0.4-0.5-0.4c0,0-0.2,0-0.4,0.1c-0.1,0-0.2,0-0.3,0c-0.4,0-0.6-0.2-0.6-0.5c0-0.4,0.2-0.5,0.7-0.5
		c0.1,0,0.2,0,0.3,0l0.4,0c0.2,0,0.3,0,0.4,0c0.1,0,0.3,0,0.5,0c0.2,0,0.4,0,0.5,0c0.2,0,0.4,0.2,0.4,0.5c0,0.1,0,0.2,0,0.2
		C209.2,241.3,209.2,242.5,209.2,244z"/>
	<path d="M219.1,246c0,0.4,0,0.7-0.1,0.8c-0.1,0.1-0.2,0.1-0.5,0.1h-5.2c-0.1,0-0.2,0-0.3,0.1c0,0-0.1,0.1-0.1,0.2
		c0,0.8,0.2,1.5,0.7,2c0.5,0.5,1.1,0.8,1.8,0.8c0.5,0,0.9-0.1,1.3-0.4s0.7-0.6,0.8-1l0.1-0.5c0.1-0.3,0.3-0.4,0.5-0.4
		c0.4,0,0.6,0.2,0.6,0.6c0,0.7-0.4,1.3-1.1,1.9c-0.7,0.6-1.5,0.8-2.4,0.8c-1.1,0-2.1-0.4-2.7-1.2c-0.7-0.8-1-1.8-1-3.1
		c0-1.3,0.4-2.4,1.1-3.2c0.7-0.8,1.7-1.2,2.8-1.2c1,0,1.9,0.3,2.5,1C218.7,244.1,219.1,245,219.1,246z M213.1,245.6
		c0,0.2,0.1,0.2,0.4,0.2h3.9c0.2,0,0.3-0.1,0.3-0.2c0-0.6-0.2-1.1-0.7-1.5c-0.4-0.4-0.9-0.6-1.5-0.6c-0.6,0-1.2,0.2-1.7,0.7
		C213.4,244.6,213.1,245.1,213.1,245.6z"/>
	<path d="M223.7,242.4c0.7,0,1.3,0.2,1.8,0.6v-0.1c0-0.4,0.2-0.6,0.5-0.6c0.4,0,0.5,0.2,0.5,0.5c0,0.1,0,0.2,0,0.5
		c0,0.2-0.1,0.4-0.1,0.7c0,0.1,0,0.3,0,0.6c0,0.2,0,0.4,0,0.6c0,0.4-0.2,0.6-0.5,0.6c-0.3,0-0.5-0.2-0.5-0.5v-0.5
		c0-0.3-0.2-0.6-0.6-0.8c-0.4-0.2-0.8-0.4-1.3-0.4c-0.5,0-0.9,0.1-1.3,0.4c-0.3,0.3-0.5,0.6-0.5,1c0,0.7,0.5,1.1,1.4,1.2l0.9,0.1
		c1.9,0.2,2.8,1,2.8,2.3c0,0.8-0.3,1.4-0.9,1.9c-0.6,0.5-1.4,0.7-2.3,0.7c-0.9,0-1.7-0.3-2.3-0.8c0,0.1,0,0.2,0,0.3
		c0,0.4-0.2,0.6-0.6,0.6c-0.4,0-0.6-0.2-0.6-0.7c0,0.1,0-0.2,0.1-0.8c0-0.2,0-0.3,0-0.5c0-0.3,0-0.5-0.1-0.7c0-0.2-0.1-0.4-0.1-0.5
		c0-0.4,0.2-0.6,0.5-0.6c0.2,0,0.4,0.1,0.4,0.2c0.1,0.1,0.1,0.4,0.1,0.9c0,0.5,0.3,0.8,0.7,1.1c0.5,0.3,1.1,0.4,1.8,0.4
		c0.5,0,1-0.1,1.3-0.4c0.3-0.3,0.5-0.6,0.5-1c0-0.7-0.6-1.2-1.8-1.3c-1.1-0.1-2-0.3-2.6-0.7c-0.6-0.3-0.9-0.9-0.9-1.7
		c0-0.8,0.3-1.4,0.9-1.9C222,242.6,222.8,242.4,223.7,242.4z"/>
	<path d="M229.9,251.1c-0.3,0-0.5-0.1-0.7-0.3c-0.2-0.2-0.3-0.4-0.3-0.7s0.1-0.5,0.3-0.7c0.2-0.2,0.4-0.3,0.7-0.3
		c0.3,0,0.5,0.1,0.7,0.3c0.2,0.2,0.3,0.4,0.3,0.7s-0.1,0.5-0.3,0.7C230.4,251,230.2,251.1,229.9,251.1z"/>
</g>
</svg>
