<?xml version="1.0" encoding="utf-8"?>
<!-- Generator: Adobe Illustrator 21.1.0, SVG Export Plug-In . SVG Version: 6.00 Build 0)  -->
<svg version="1.1" id="Layer_1" xmlns="http://www.w3.org/2000/svg" xmlns:xlink="http://www.w3.org/1999/xlink" x="0px" y="0px"
	 viewBox="0 0 186 206" style="enable-background:new 0 0 186 206;" xml:space="preserve">
<style type="text/css">
	.st0{fill:#4892CE;}
	.st1{fill:#F2EBE2;}
</style>
<title>fb</title>
<path class="st0" d="M177.7,96c-0.6-10.4-9.1-19-21-22.7c0.8-4.3,1.2-8.7,0.9-13.2c-1.8-31.9-32-56.2-67.3-54.2
	c-35.3,2-62.5,29.6-60.6,61.5c0,0.7,0.1,1.5,0.2,2.2c-13,3-22.2,11.6-21.7,21.1c0.4,6.3,4.9,11.6,11.7,15c-1.2,2.2-1.7,4.6-1.6,7.1
	c0.6,11.1,15.8,19.3,34,18.3c7.5-0.4,14.3-2.4,19.6-5.3c2.9,4.4,8.1,7.6,14.2,8.8c5.7,3.7,12.7,5.6,20.1,5.2
	c11.4-0.7,21.2-6.9,26.5-15.7c3.5,0.6,7.1,0.8,10.9,0.6C163.3,123.6,178.6,110.7,177.7,96z M114.1,68.3l-0.1,0l0,0H97.6v44.1H78.7
	V68.3h-9.1V53.8h9.1v-9.4c0-12.7,5.5-20.3,20.5-20.3h17.3v15.6h-14c-4.2,0-4.7,2.2-4.7,6.3v7.8h18.8L114,68.3H114.1z"/>
<polygon class="st1" points="93.1,68.3 92.9,68.3 92.9,68.3 "/>
<path class="st1" d="M-463.3,169.6v-7.8c0-4.1,0.5-6.3,4.7-6.3h14v-15.6h-17.3c-15,0-20.5,7.6-20.5,20.3v9.4h-9.1V184h9.1v44.1h18.9
	V184h16.4l2.5-14.4H-463.3z"/>
</svg>
