<svg xmlns="http://www.w3.org/2000/svg" viewBox="0 0 169.52 134.11"><defs><style>.cls-1{fill:#4892ce;}</style></defs><title>fb</title><g id="Layer_2" data-name="Layer 2"><g id="Layer_1-2" data-name="Layer 1"><path class="cls-1" d="M169.49,90.22c-.6-10.43-9.1-19-21-22.73a52.79,52.79,0,0,0,.92-13.22c-1.84-31.94-32-56.19-67.28-54.16S19.67,29.69,21.51,61.63c0,.74.12,1.47.19,2.2C8.71,66.86-.53,75.44,0,85c.36,6.26,4.86,11.63,11.65,15a13.48,13.48,0,0,0-1.6,7.06c.64,11.14,15.84,19.32,34,18.28a47.35,47.35,0,0,0,19.62-5.26c2.91,4.35,8.05,7.56,14.19,8.77A33.6,33.6,0,0,0,98,134a33.11,33.11,0,0,0,26.53-15.69,46.79,46.79,0,0,0,10.86.63C155.06,117.86,170.34,105,169.49,90.22ZM105.86,62.51l-.14,0v0H89.32v44.12H70.41V62.51H61.3V48.08h9.11V38.72c0-12.74,5.48-20.31,20.46-20.31h17.26V34h-14c-4.19,0-4.7,2.17-4.7,6.25v7.81h18.8l-2.5,14.42Z"/></g></g></svg>