<svg xmlns="http://www.w3.org/2000/svg" viewBox="0 0 57.54 57.54"><defs><style>.cls-1{fill:#f2ebe2;}</style></defs><title>fb</title><g id="Layer_2" data-name="Layer 2"><g id="Layer_1-2" data-name="Layer 1"><path class="cls-1" d="M48,0H9.59A9.62,9.62,0,0,0,0,9.59V48a9.62,9.62,0,0,0,9.59,9.59H48A9.62,9.62,0,0,0,57.54,48V9.59A9.62,9.62,0,0,0,48,0Zm1,28.77H39.56V53.95H28.77V28.77h-5.2V20.53h5.2V15.19c0-7.27,3.13-11.59,11.68-11.59H50.3v8.91h-8c-2.39,0-2.68,1.24-2.68,3.57v4.46H50.35l-1.43,8.24h0Z"/></g></g></svg>