<svg xmlns="http://www.w3.org/2000/svg" viewBox="0 0 238.27 233.09"><defs><style>.cls-1{fill:#231f20;}.cls-2{fill:#f2ebe2;}.cls-3{fill:#ce2028;}.cls-4{fill:#82602e;}.cls-5{fill:#b59158;}.cls-6{fill:#fcc788;}.cls-7{fill:#b75b27;}.cls-8{fill:#3b1d15;}</style></defs><title>Krunch</title><g id="Layer_2" data-name="Layer 2"><g id="Layer_1-2" data-name="Layer 1"><path class="cls-1" d="M210.05,0a7.68,7.68,0,0,0-.93.08,11.16,11.16,0,0,1-1.44.08,9.41,9.41,0,0,1-1-.08,9.44,9.44,0,0,0-1-.08,1.54,1.54,0,0,0-1.19.5A1.86,1.86,0,0,0,204,1.81q0,1.49,1.3,1.49a1.4,1.4,0,0,0,.43-.05,1.49,1.49,0,0,1,.49-.11q.46,0,.46,1.51v9q0,1.51-.46,1.51a1.53,1.53,0,0,1-.45-.09,1.5,1.5,0,0,0-.45-.09Q204,15,204,16.5a1.82,1.82,0,0,0,.46,1.28,1.54,1.54,0,0,0,1.19.5q.3,0,1.38-.14a9.88,9.88,0,0,1,1.21-.08,12.23,12.23,0,0,1,1.54.11,11,11,0,0,0,1.16.11q1.49,0,1.49-1.78,0-1.22-.84-1.35a1.16,1.16,0,0,1-.66-.23,1.31,1.31,0,0,1-.12-.71V11q0-3.21,2.32-3.21,1.7,0,1.7,2.24v4.13a1.78,1.78,0,0,1-.11.73q-.11.22-.57.24-1,.08-1,1.46a1.73,1.73,0,0,0,.42,1.22,1.41,1.41,0,0,0,1.09.46,11.31,11.31,0,0,0,1.28-.11,11.31,11.31,0,0,1,1.28-.11,12.4,12.4,0,0,1,1.35.11,12.41,12.41,0,0,0,1.35.11q1.59,0,1.59-1.89,0-1.38-1.19-1.38a1.42,1.42,0,0,0-.43.05,1.17,1.17,0,0,1-.38.05q-.54,0-.54-1.35V9.13a6.18,6.18,0,0,0-.7-3.35,4,4,0,0,0-3.56-1.57,4.91,4.91,0,0,0-1.94.34,8.25,8.25,0,0,0-1.94,1.34V.95Q210.78,0,210.05,0ZM198.93,10.11a2.24,2.24,0,0,0,1.48.47,2.54,2.54,0,0,0,1.81-.66,2.28,2.28,0,0,0,.7-1.74,3.39,3.39,0,0,0-1.55-2.85,6.55,6.55,0,0,0-3.93-1.12,7.08,7.08,0,0,0-5.24,1.94,7.11,7.11,0,0,0-1.94,5.26,7.24,7.24,0,0,0,1.89,5.25,6.73,6.73,0,0,0,5.08,2,6.86,6.86,0,0,0,4.27-1.35,3.93,3.93,0,0,0,1.78-3.19,1.89,1.89,0,0,0-.57-1.42,2,2,0,0,0-1.48-.55,1.8,1.8,0,0,0-1.19.32,3.56,3.56,0,0,0-.65,1.13A2,2,0,0,1,197.44,15a2.49,2.49,0,0,1-2.08-1,4.38,4.38,0,0,1-.78-2.73,4.27,4.27,0,0,1,.74-2.63,2.31,2.31,0,0,1,1.93-1,2.36,2.36,0,0,1,1.38.43,1.45,1.45,0,0,0-.27.81A1.52,1.52,0,0,0,198.93,10.11ZM177,4.59l-.86.11a9.31,9.31,0,0,1-1.11.11,3.58,3.58,0,0,1-.7-.08,6.39,6.39,0,0,0-.92-.13,1.48,1.48,0,0,0-1.17.51,2,2,0,0,0-.45,1.32q0,1.49,1.3,1.49a1.77,1.77,0,0,0,.47-.09,1.83,1.83,0,0,1,.42-.09q.46,0,.46,1.54v4.37q0,1.51-.46,1.51a1.39,1.39,0,0,1-.41-.09A1.47,1.47,0,0,0,173,15q-1.3,0-1.3,1.51,0,1.81,1.7,1.81a14.35,14.35,0,0,0,1.44-.11,14.31,14.31,0,0,1,1.44-.11,12.34,12.34,0,0,1,1.49.14,7.65,7.65,0,0,0,1,.08q1.43,0,1.43-1.7,0-1.32-1-1.46c-.34-.05-.55-.17-.62-.34a5.49,5.49,0,0,1-.11-1.47V10.5a2.68,2.68,0,0,1,.72-1.92,2.4,2.4,0,0,1,1.82-.76,1.51,1.51,0,0,1,1.38.63,4.34,4.34,0,0,1,.41,2.2v3.78q0,.62-.73.67Q181,15.2,181,16.63a1.43,1.43,0,0,0,1.59,1.65,9.26,9.26,0,0,0,1.24-.11,10.23,10.23,0,0,1,1.43-.11,11.65,11.65,0,0,1,1.3.11,11.65,11.65,0,0,0,1.3.11q1.62,0,1.62-1.86,0-1.4-1.19-1.4a1.17,1.17,0,0,0-.41.05,1.54,1.54,0,0,1-.41.08q-.54,0-.54-1.38v-4a7.09,7.09,0,0,0-.62-3.4,4.15,4.15,0,0,0-4-2.11,6.09,6.09,0,0,0-4.7,2.43V5.35Q177.68,4.59,177,4.59ZM166.1,18.28a5.34,5.34,0,0,0,.88-.11,5.32,5.32,0,0,1,.88-.11,6.37,6.37,0,0,1,1,.11,6.34,6.34,0,0,0,1,.11q1.59,0,1.59-1.86,0-1.4-1.16-1.4a1.54,1.54,0,0,0-.46.05,1.17,1.17,0,0,1-.38.05q-.51,0-.51-1.35V5.56q0-1-.86-1a7.94,7.94,0,0,0-.89.08l-1.16.13a8.1,8.1,0,0,1-1.08-.11,8.17,8.17,0,0,0-1.11-.11q-1.51,0-1.51,1.86,0,1.43,1,1.43a1.72,1.72,0,0,0,.42-.07,1.72,1.72,0,0,1,.42-.07q.62,0,.62,1.38v2.51q0,3.38-2.43,3.38-1.59,0-1.67-2.11l-.05-7.18q0-1.13-.81-1.13a6.47,6.47,0,0,0-1,.11,6.45,6.45,0,0,1-1,.11,6.94,6.94,0,0,1-1-.11,7,7,0,0,0-1-.11q-1.65,0-1.65,1.81,0,1.49,1.21,1.49a.93.93,0,0,0,.27,0h.27a.46.46,0,0,1,.39.16,2.69,2.69,0,0,1,.12,1.11v4.18a8.45,8.45,0,0,0,.45,3.33,3.26,3.26,0,0,0,1.47,1.44,4.79,4.79,0,0,0,2.27.54,5.71,5.71,0,0,0,4.72-2.27v1.05Q165.31,18.28,166.1,18.28Zm-21-13.69a5.93,5.93,0,0,0-.92.11,6,6,0,0,1-.95.11,4.22,4.22,0,0,1-.92-.11,3.73,3.73,0,0,0-.76-.11,1.38,1.38,0,0,0-1.11.51,2,2,0,0,0-.43,1.32q0,1.49,1.3,1.49a1.77,1.77,0,0,0,.47-.09,1.83,1.83,0,0,1,.42-.09q.46,0,.46,1.54v4.37q0,1.51-.46,1.51a1.39,1.39,0,0,1-.41-.09,1.47,1.47,0,0,0-.49-.09q-1.3,0-1.3,1.51,0,1.81,1.67,1.81.3,0,1.59-.14a17.89,17.89,0,0,1,1.81-.08,14.77,14.77,0,0,1,1.7.08q1.11.13,1.51.14a1.74,1.74,0,0,0,1.28-.53,1.78,1.78,0,0,0,.53-1.31A1.43,1.43,0,0,0,148.74,15a2.94,2.94,0,0,0-.65.11,3,3,0,0,1-.67.11.42.42,0,0,1-.38-.16,2.92,2.92,0,0,1-.16-1.24v-1a11.75,11.75,0,0,1,.49-3.54,2.41,2.41,0,0,1,2.43-1.92H150a2.53,2.53,0,0,0-.35,1.05,1.55,1.55,0,0,0,.53,1.19,1.82,1.82,0,0,0,1.28.49,2.12,2.12,0,0,0,1.65-.72,2.61,2.61,0,0,0,.65-1.82,3.13,3.13,0,0,0-1-2.36,3.5,3.5,0,0,0-2.5-1,4,4,0,0,0-3.32,1.49,5.8,5.8,0,0,0-.89,2V5.43A.74.74,0,0,0,145.15,4.59Zm-18.87-.38q.08-.57.51-.57a1.45,1.45,0,0,1,.32,0h.24q1.19,0,1.19-1.62a2.1,2.1,0,0,0-.49-1.46,1.66,1.66,0,0,0-1.3-.54,13,13,0,0,0-1.54.13,12.82,12.82,0,0,1-1.54.14,18.37,18.37,0,0,1-1.88-.14Q120.58.05,120,.05a1.92,1.92,0,0,0-1.42.53A2,2,0,0,0,118,2a1.94,1.94,0,0,0,.42,1.27,1.29,1.29,0,0,0,1,.51,3.16,3.16,0,0,0,.66-.09,3.17,3.17,0,0,1,.63-.09q.54,0,.67.7a6.72,6.72,0,0,1,.05,1.11v7.48q0,1.84-.73,1.84a3.12,3.12,0,0,1-.63-.09,3.19,3.19,0,0,0-.63-.09,1.33,1.33,0,0,0-1.07.5,1.93,1.93,0,0,0-.42,1.28,1.93,1.93,0,0,0,.54,1.43,1.9,1.9,0,0,0,1.4.54,17,17,0,0,0,1.77-.13,17,17,0,0,1,1.8-.13q.54,0,.95,0l1.13.14a8.3,8.3,0,0,0,1.11.11,1.69,1.69,0,0,0,1.32-.54,2.06,2.06,0,0,0,.49-1.43q0-1.67-1.19-1.67a.84.84,0,0,0-.24,0h-.16l-.14,0c-.31,0-.49-.19-.54-.57V12.29L127.87,11l.27-.27a.41.41,0,0,1,.3-.14q.19,0,.67.86l1.43,2.48A2.72,2.72,0,0,1,131,15a.76.76,0,0,1-.35.59,1.69,1.69,0,0,0-.76,1.24,1.39,1.39,0,0,0,.49,1.08,1.72,1.72,0,0,0,1.19.43,11.36,11.36,0,0,0,1.44-.13,11.33,11.33,0,0,1,1.44-.13,12.5,12.5,0,0,1,1.89.16,8.23,8.23,0,0,0,1.22.11,1.86,1.86,0,0,0,2-2q0-1.78-1.46-1.78a2.82,2.82,0,0,0-.61.09,2.74,2.74,0,0,1-.55.09q-.62,0-1.67-1.81l-1.92-3.27-.7-1.24a1.91,1.91,0,0,1-.3-.67q0-.3.81-1l2.62-2.29.49-.38a1.77,1.77,0,0,1,.92-.46,2.12,2.12,0,0,1,.53.09,2.08,2.08,0,0,0,.53.09,1.22,1.22,0,0,0,1-.55,2.15,2.15,0,0,0,.42-1.34,1.79,1.79,0,0,0-.53-1.36,2,2,0,0,0-1.42-.5,7.48,7.48,0,0,0-1.16.11,10.5,10.5,0,0,1-1.57.16,11.86,11.86,0,0,1-1.5-.14,12,12,0,0,0-1.5-.13,1.84,1.84,0,0,0-1.27.43,1.45,1.45,0,0,0-.49,1.13,1.18,1.18,0,0,0,.51,1,1.62,1.62,0,0,1,.35.24.44.44,0,0,1,.11.32q0,.41-.95,1.27l-3.92,3.62V4.21ZM101.81,7.94a2.15,2.15,0,0,1,1.75-.84,2.19,2.19,0,0,1,1.46.53,1.57,1.57,0,0,1,.62,1.23.47.47,0,0,1-.09.34.81.81,0,0,1-.5.09h-3q-.49,0-.57-.11a.43.43,0,0,1-.08-.27A1.63,1.63,0,0,1,101.81,7.94Zm6.44-2.08a6.33,6.33,0,0,0-4.58-1.65,6.54,6.54,0,0,0-5,2,7.36,7.36,0,0,0-1.9,5.28,7.06,7.06,0,0,0,1.92,5.18,6.88,6.88,0,0,0,5.13,1.94A7.59,7.59,0,0,0,108,17.54a3.14,3.14,0,0,0,1.71-2.66,1.51,1.51,0,0,0-.5-1.16,1.86,1.86,0,0,0-1.31-.46,2.41,2.41,0,0,0-1.78.86,3.33,3.33,0,0,1-2.32,1.24,2.44,2.44,0,0,1-1.84-.76,2.61,2.61,0,0,1-.73-1.89q0-.38.12-.47a1.19,1.19,0,0,1,.61-.09h6.59a1.34,1.34,0,0,0,1.12-.38,2.74,2.74,0,0,0,.28-1.51A5.82,5.82,0,0,0,108.25,5.86ZM90.85,7.7q.11-.19.67-.19h2.21A1.28,1.28,0,0,0,95.2,6.08q0-1.49-1.59-1.49H91.66c-.42,0-.67-.06-.77-.19a1.91,1.91,0,0,1-.15-1V2A1.52,1.52,0,0,0,90.4.78,2.17,2.17,0,0,0,89.12.51,3.37,3.37,0,0,0,87.3.86a1.48,1.48,0,0,0-.5,1.3V3.48a2.31,2.31,0,0,1-.08.73q-.11.38-.76.38h-.51a1,1,0,0,0-.8.45,1.71,1.71,0,0,0-.34,1.07,1.53,1.53,0,0,0,.32,1,1,1,0,0,0,.84.39h.43q.46,0,.58.18a1.81,1.81,0,0,1,.12.85V9.4q0,.76-.07,2.27t-.07,2.27q0,4.7,4.46,4.7a4.94,4.94,0,0,0,3.54-1.2,4.37,4.37,0,0,0,1.27-3.33q0-2.73-1.7-2.73a1.29,1.29,0,0,0-1.46,1.46,2.24,2.24,0,0,0,0,.27v.35a1.45,1.45,0,0,1,0,.32q0,1.43-1,1.43t-1-1.59q0,.16,0-.73l.05-1.81,0-1.67V8.29A1.24,1.24,0,0,1,90.85,7.7ZM75.08,15.34q-1.46,0-1.46-1.24,0-.78,1.49-1.16a24.12,24.12,0,0,0,2.38-.67v.59A2.16,2.16,0,0,1,75.08,15.34Zm8.36,2.73a1.72,1.72,0,0,0,.8-1.46,1.47,1.47,0,0,0-1.49-1.48l-.19,0a2.78,2.78,0,0,1-.41,0q-.43,0-.43-.86V8.72q0-2.65-1.54-3.62a8.39,8.39,0,0,0-4.35-.89A9,9,0,0,0,71.6,5a2.55,2.55,0,0,0-1.54,2.29A2.11,2.11,0,0,0,70.76,9a2.53,2.53,0,0,0,1.78.65,2.43,2.43,0,0,0,1.58-.51,1.57,1.57,0,0,0,.63-1.27V7.72a2.59,2.59,0,0,1,0-.38q0-.57.89-.57a2,2,0,0,1,1.31.42,1.28,1.28,0,0,1,.53,1,1.4,1.4,0,0,1-.69,1.28,8.24,8.24,0,0,1-2.61.74,17.27,17.27,0,0,0-2.43.59,3.49,3.49,0,0,0-2.46,3.67,3.78,3.78,0,0,0,1.27,3,5,5,0,0,0,3.4,1.12,6.31,6.31,0,0,0,4.48-1.78,2.91,2.91,0,0,0,3,1.78A3.44,3.44,0,0,0,83.44,18.06ZM60.23,4.59a5.93,5.93,0,0,0-.92.11,6,6,0,0,1-.95.11,4.22,4.22,0,0,1-.92-.11,3.73,3.73,0,0,0-.76-.11,1.38,1.38,0,0,0-1.11.51,2,2,0,0,0-.43,1.32q0,1.49,1.3,1.49a1.77,1.77,0,0,0,.47-.09,1.83,1.83,0,0,1,.42-.09q.46,0,.46,1.54v4.37q0,1.51-.46,1.51a1.39,1.39,0,0,1-.41-.09,1.47,1.47,0,0,0-.49-.09q-1.3,0-1.3,1.51,0,1.81,1.67,1.81.3,0,1.59-.14a17.89,17.89,0,0,1,1.81-.08,14.77,14.77,0,0,1,1.7.08q1.11.13,1.51.14a1.74,1.74,0,0,0,1.28-.53,1.78,1.78,0,0,0,.53-1.31A1.43,1.43,0,0,0,63.82,15a2.94,2.94,0,0,0-.65.11,3,3,0,0,1-.67.11.42.42,0,0,1-.38-.16A2.92,2.92,0,0,1,62,13.82v-1a11.75,11.75,0,0,1,.49-3.54,2.41,2.41,0,0,1,2.43-1.92H65a2.53,2.53,0,0,0-.35,1.05,1.55,1.55,0,0,0,.53,1.19,1.82,1.82,0,0,0,1.28.49,2.12,2.12,0,0,0,1.65-.72,2.61,2.61,0,0,0,.65-1.82,3.13,3.13,0,0,0-1-2.36,3.5,3.5,0,0,0-2.5-1A4,4,0,0,0,62,5.7a5.8,5.8,0,0,0-.89,2V5.43A.74.74,0,0,0,60.23,4.59ZM45.57,15.34q-1.46,0-1.46-1.24,0-.78,1.49-1.16A24.12,24.12,0,0,0,48,12.26v.59A2.16,2.16,0,0,1,45.57,15.34Zm8.36,2.73a1.72,1.72,0,0,0,.8-1.46,1.47,1.47,0,0,0-1.49-1.48l-.19,0a2.78,2.78,0,0,1-.41,0q-.43,0-.43-.86V8.72q0-2.65-1.54-3.62a8.39,8.39,0,0,0-4.35-.89A9,9,0,0,0,42.09,5a2.55,2.55,0,0,0-1.54,2.29A2.11,2.11,0,0,0,41.25,9,2.53,2.53,0,0,0,43,9.61a2.43,2.43,0,0,0,1.58-.51,1.57,1.57,0,0,0,.63-1.27V7.72a2.59,2.59,0,0,1,0-.38q0-.57.89-.57a2,2,0,0,1,1.31.42,1.28,1.28,0,0,1,.53,1,1.4,1.4,0,0,1-.69,1.28,8.24,8.24,0,0,1-2.61.74,17.27,17.27,0,0,0-2.43.59,3.49,3.49,0,0,0-2.46,3.67,3.78,3.78,0,0,0,1.27,3,5,5,0,0,0,3.4,1.12,6.31,6.31,0,0,0,4.48-1.78,2.91,2.91,0,0,0,3,1.78A3.44,3.44,0,0,0,53.93,18.06ZM25.62,4.21q.08-.57.51-.57a1.45,1.45,0,0,1,.32,0h.24q1.19,0,1.19-1.62A2.1,2.1,0,0,0,27.4.59,1.66,1.66,0,0,0,26.1.05a13,13,0,0,0-1.54.13A12.82,12.82,0,0,1,23,.32,18.37,18.37,0,0,1,21.15.19Q19.92.05,19.33.05a1.92,1.92,0,0,0-1.42.53A2,2,0,0,0,17.38,2a1.94,1.94,0,0,0,.42,1.27,1.29,1.29,0,0,0,1,.51,3.16,3.16,0,0,0,.66-.09,3.17,3.17,0,0,1,.63-.09q.54,0,.67.7a6.72,6.72,0,0,1,.05,1.11v7.48q0,1.84-.73,1.84a3.12,3.12,0,0,1-.63-.09,3.19,3.19,0,0,0-.63-.09,1.33,1.33,0,0,0-1.07.5,1.93,1.93,0,0,0-.42,1.28,1.93,1.93,0,0,0,.54,1.43,1.9,1.9,0,0,0,1.4.54,17,17,0,0,0,1.77-.13,17,17,0,0,1,1.8-.13q.54,0,.95,0L25,18.2a8.3,8.3,0,0,0,1.11.11,1.69,1.69,0,0,0,1.32-.54,2.06,2.06,0,0,0,.49-1.43q0-1.67-1.19-1.67a.84.84,0,0,0-.24,0h-.16l-.14,0c-.31,0-.49-.19-.54-.57V12.29L27.21,11l.27-.27a.41.41,0,0,1,.3-.14q.19,0,.67.86l1.43,2.48A2.72,2.72,0,0,1,30.32,15a.76.76,0,0,1-.35.59,1.69,1.69,0,0,0-.76,1.24,1.39,1.39,0,0,0,.49,1.08,1.72,1.72,0,0,0,1.19.43,11.36,11.36,0,0,0,1.44-.13A11.33,11.33,0,0,1,33.77,18a12.5,12.5,0,0,1,1.89.16,8.23,8.23,0,0,0,1.22.11,1.86,1.86,0,0,0,2-2q0-1.78-1.46-1.78a2.82,2.82,0,0,0-.61.09,2.74,2.74,0,0,1-.55.09q-.62,0-1.67-1.81L32.64,9.67l-.7-1.24a1.91,1.91,0,0,1-.3-.67q0-.3.81-1l2.62-2.29.49-.38a1.77,1.77,0,0,1,.92-.46,2.12,2.12,0,0,1,.53.09,2.08,2.08,0,0,0,.53.09,1.22,1.22,0,0,0,1-.55,2.15,2.15,0,0,0,.42-1.34A1.79,1.79,0,0,0,38.4.55,2,2,0,0,0,37,.05a7.48,7.48,0,0,0-1.16.11,10.5,10.5,0,0,1-1.57.16,11.86,11.86,0,0,1-1.5-.14,12,12,0,0,0-1.5-.13A1.84,1.84,0,0,0,30,.49a1.45,1.45,0,0,0-.49,1.13,1.18,1.18,0,0,0,.51,1,1.62,1.62,0,0,1,.35.24.44.44,0,0,1,.11.32q0,.41-.95,1.27L25.62,8.07V4.21Z"/><circle class="cls-2" cx="118.91" cy="104.66" r="58.87"/><path class="cls-3" d="M119.58,105.66a2.68,2.68,0,0,0-1.68.51,2.7,2.7,0,0,0-4.44,2c-.06,1.49,4.31,6.32,4.31,6.32s4.35-4.5,4.41-6A2.7,2.7,0,0,0,119.58,105.66Z"/><path class="cls-4" d="M135.42,104.33S116.83,136.1,113,139.16c0,0-6.41,9.48-7.1-2.16,0,0,1.63-30.66,4-40.44S142.55,101.48,135.42,104.33Z"/><polygon class="cls-5" points="133.35 104.64 132.02 106.75 129.06 102.08 133.35 104.64"/><polygon class="cls-5" points="110.81 101.86 111.78 95.57 122.01 96.96 119.65 101.1 112.24 102.29 110.81 101.86"/><polygon class="cls-5" points="130.77 109.06 126.1 101.83 122.23 102.12 114.64 103.86 125.46 113.9 127.85 114.39 130.77 109.06"/><path class="cls-5" d="M122.54,113.54s-7.47-8.08-11.35-8.44l-.71.2-1.24,8.14,1.37,1.47S120.15,113.68,122.54,113.54Z"/><path class="cls-5" d="M125.64,117.83l-.89-1.56s-7.74-.94-12,.57c0,0,6.14,7.62,6.07,9l1.83.15Z"/><path class="cls-5" d="M116.58,125.88s-5.72-8.32-6.47-8.37a2.47,2.47,0,0,0-1.24.21s-1,8.93-.69,9.42S110.31,126.15,116.58,125.88Z"/><path class="cls-5" d="M117.89,129.8l-.5-1.44a27.17,27.17,0,0,0-9.1,1.34s-1.09,9.18.32,10.55S117.89,129.8,117.89,129.8Z"/><path class="cls-6" d="M103,81c.8-2.63,4.14-4,8-3.56.05-.2.11-.41.17-.61,2.68-8.8,12.74-13.54,22.48-10.58s15.46,12.5,12.78,21.3A15.2,15.2,0,0,1,144.79,91c2.84,2.19,4.28,5.34,3.41,8.22-1.24,4.07-6.64,6-12.07,4.37a13.42,13.42,0,0,1-2.87-1.25,9.53,9.53,0,0,1-8.72,1.6,9.67,9.67,0,0,1-4.92-3.41,6.34,6.34,0,0,1-3-3.78,13.61,13.61,0,0,1-5.82-.53c-5-1.52-8.28-5.24-7.35-8.31a3.87,3.87,0,0,1,1.13-1.75C103.13,84.64,102.44,82.74,103,81Z"/><path class="cls-3" d="M115.46,105.78a3,3,0,0,1,1.86.67,3,3,0,0,1,4.87,2.43c0,1.67-5.18,6.86-5.18,6.86s-4.64-5.28-4.62-7A3,3,0,0,1,115.46,105.78Z"/><polygon class="cls-7" points="124.65 71.8 131.57 73.6 132.18 72.4 125.34 70.75 124.65 71.8"/><polygon class="cls-8" points="125.45 70.58 130.18 70.64 132.3 72.19 131.9 73.03 128.06 71.45 124.88 71.14 125.45 70.58"/><polygon class="cls-8" points="125.1 70.91 125.76 71.06 125.03 71.78 131.62 73.56 131.12 74.04 124.22 71.77 125.1 70.91"/><polygon class="cls-7" points="107.63 81.12 109.1 85.19 110.19 84.57 108.7 80.81 107.63 81.12"/><polygon class="cls-8" points="108.88 80.76 110.67 82.58 110.39 84.47 109.64 84.9 109.27 82.35 108.27 80.94 108.88 80.76"/><polygon class="cls-8" points="107.72 81.09 107.87 81.45 107.87 81.44 109.15 85.17 108.61 85.32 107.56 81.13 107.72 81.09"/><polygon class="cls-7" points="124.97 95.83 129.52 98.43 129.38 97.21 125.11 94.89 124.97 95.83"/><polygon class="cls-8" points="125.15 94.73 125.77 94.85 129.35 97 129.47 97.85 126.85 95.87 125.06 95.27 125.15 94.73"/><polygon class="cls-8" points="124.98 95.75 125.39 95.97 125.39 95.96 129.52 98.39 129.45 98.86 124.96 95.89 124.98 95.75"/><polygon class="cls-7" points="118.27 76.39 119.75 80.46 120.84 79.85 119.35 76.08 118.27 76.39"/><polygon class="cls-8" points="119.53 76.03 121.04 79.74 120.28 80.18 118.91 76.21 119.53 76.03"/><polygon class="cls-8" points="118.37 76.37 118.52 76.72 118.52 76.72 119.8 80.44 119.26 80.6 118.21 76.41 118.37 76.37"/><polygon class="cls-7" points="119.23 89.19 121.66 89.35 121.61 88.04 119.45 88.04 119.23 89.19"/><polygon class="cls-8" points="119.52 87.7 121.6 87.8 121.65 88.71 119.39 88.37 119.52 87.7"/><polygon class="cls-8" points="119.23 89.16 121.67 89.3 121.55 89.88 119.19 89.33 119.23 89.16"/><polygon class="cls-7" points="129.13 81.71 132.14 83.51 133.22 81.62 130.43 80.22 129.13 81.71"/><polygon class="cls-8" points="130.81 79.8 133.43 81.28 132.69 82.6 130.06 80.65 130.81 79.8"/><polygon class="cls-8" points="129.16 81.67 132.2 83.44 131.54 84.19 128.97 81.88 129.16 81.67"/><polygon class="cls-7" points="134.25 91.01 135.88 95.21 136.91 94.5 135.28 90.62 134.25 91.01"/><polygon class="cls-8" points="135.46 90.56 135.91 91.02 137.1 94.38 136.39 94.88 135.91 92.22 134.86 90.78 135.46 90.56"/><polygon class="cls-8" points="134.34 90.98 134.5 91.34 134.5 91.34 135.92 95.19 135.4 95.38 134.18 91.03 134.34 90.98"/><polygon class="cls-7" points="106.9 94.48 110.22 92.14 109.15 90.75 106.31 92.98 106.9 94.48"/><polygon class="cls-8" points="106.14 92.54 108.96 90.49 109.72 91.45 106.48 93.41 106.14 92.54"/><polygon class="cls-8" points="106.88 94.44 110.2 92.08 110.49 92.83 106.96 94.67 106.88 94.44"/><polygon class="cls-7" points="142.06 99.33 144.41 96.94 143.7 96.38 141.56 98.69 142.06 99.33"/><polygon class="cls-8" points="141.48 98.57 142.22 96.71 143.57 96.27 144.07 96.66 142.45 97.77 141.76 98.95 141.48 98.57"/><polygon class="cls-8" points="142.02 99.28 142.22 99.05 142.21 99.06 144.39 96.91 144.64 97.23 142.09 99.38 142.02 99.28"/><polygon class="cls-7" points="139.6 80.13 140.12 76.06 139.34 76.57 138.92 80.34 139.6 80.13"/><polygon class="cls-8" points="138.81 80.37 138.72 79.89 139.19 76.66 139.74 76.29 139.11 78.8 139.19 80.25 138.81 80.37"/><polygon class="cls-8" points="139.54 80.14 139.57 79.78 139.57 79.79 140.09 76.07 140.43 75.97 139.64 80.11 139.54 80.14"/><polygon class="cls-7" points="139.93 86.3 143.25 85.81 143.03 84.94 139.93 85.48 139.93 86.3"/><polygon class="cls-8" points="139.93 85.34 142.99 84.78 143.16 85.39 139.93 85.81 139.93 85.34"/><polygon class="cls-8" points="139.94 86.22 140.23 86.17 140.22 86.17 143.26 85.78 143.25 86.19 139.93 86.35 139.94 86.22"/><path class="cls-1" d="M179.85,192.58a1.68,1.68,0,0,0,.5-1.22,1.72,1.72,0,1,0-3.43,0,1.68,1.68,0,0,0,.5,1.22,1.7,1.7,0,0,0,2.43,0Zm-9.67-6.22a1.35,1.35,0,0,1,1.1-.53,1.38,1.38,0,0,1,.92.33,1,1,0,0,1,.39.77.3.3,0,0,1-.06.21.51.51,0,0,1-.31.06h-1.9c-.2,0-.32,0-.36-.07l-.05-.17A1,1,0,0,1,170.18,186.36Zm4.05-1.31a4,4,0,0,0-2.88-1,4.12,4.12,0,0,0-3.14,1.27,4.64,4.64,0,0,0-1.2,3.32,4.45,4.45,0,0,0,1.21,3.26,4.33,4.33,0,0,0,3.23,1.22,4.79,4.79,0,0,0,2.63-.69,2,2,0,0,0,1.08-1.67,1,1,0,0,0-.31-.73,1.17,1.17,0,0,0-.82-.29,1.52,1.52,0,0,0-1.12.54,2.1,2.1,0,0,1-1.46.78,1.54,1.54,0,0,1-1.16-.48,1.65,1.65,0,0,1-.46-1.19c0-.16,0-.26.08-.3a.74.74,0,0,1,.38-.06h4.15a.84.84,0,0,0,.71-.24,1.73,1.73,0,0,0,.18-1A3.66,3.66,0,0,0,174.24,185Zm-11,1.16c0-.08.19-.12.42-.12h1.39a.8.8,0,0,0,.92-.9q0-.93-1-.93h-1.22c-.26,0-.42,0-.48-.12a1.2,1.2,0,0,1-.09-.61v-.92a1,1,0,0,0-.21-.75,1.36,1.36,0,0,0-.81-.17,2.13,2.13,0,0,0-1.15.22.94.94,0,0,0-.31.82v.83a1.44,1.44,0,0,1-.05.46c0,.16-.2.24-.48.24h-.32a.62.62,0,0,0-.5.28,1.08,1.08,0,0,0-.21.67,1,1,0,0,0,.2.64.65.65,0,0,0,.53.25h.27c.19,0,.31,0,.37.11a1.15,1.15,0,0,1,.08.54v.54q0,.48,0,1.43t0,1.43q0,3,2.81,3a3.11,3.11,0,0,0,2.23-.76,2.75,2.75,0,0,0,.8-2.1q0-1.72-1.07-1.72a.81.81,0,0,0-.92.92l0,.17v.22l0,.2q0,.9-.61.9t-.65-1,0-.46l0-1.14,0-1.05v-.7A.78.78,0,0,1,163.28,186.21Zm-6.11-3.05a1.54,1.54,0,1,0-1.1.45A1.49,1.49,0,0,0,157.17,183.15Zm-.64,1.16a5.25,5.25,0,0,1-.75.07,7.08,7.08,0,0,1-1-.08,4.12,4.12,0,0,0-.54-.05,1,1,0,0,0-.76.31,1.17,1.17,0,0,0-.29.82q0,1,.82,1l.27,0,.31-.08q.29,0,.29,1v2.75c0,.64-.1,1-.31,1l-.12,0-.44-.1q-.82,0-.82,1a1.15,1.15,0,0,0,.29.81,1,1,0,0,0,.75.31,8.75,8.75,0,0,0,.88-.07,8.78,8.78,0,0,1,.9-.07,10.26,10.26,0,0,1,1.09.05q.78.08,1,.08,1,0,1-1.17,0-.88-.71-.88a1.33,1.33,0,0,0-.3,0l-.25,0q-.32,0-.32-.87v-5.12q0-.66-.48-.66Zm-8.81-.07a3.79,3.79,0,0,0-.58.07,3.72,3.72,0,0,1-.59.07,2.64,2.64,0,0,1-.58-.07,2.38,2.38,0,0,0-.48-.07.87.87,0,0,0-.7.32,1.25,1.25,0,0,0-.27.83q0,.93.82.93a1.11,1.11,0,0,0,.3-.06,1.19,1.19,0,0,1,.26-.06q.29,0,.29,1v2.75c0,.64-.1,1-.29,1a.85.85,0,0,1-.25-.06,1,1,0,0,0-.31-.06q-.82,0-.82,1,0,1.14,1.05,1.14.19,0,1-.08a11.15,11.15,0,0,1,1.14-.05,9.22,9.22,0,0,1,1.07.05,9.5,9.5,0,0,0,1,.08,1.1,1.1,0,0,0,.81-.33,1.12,1.12,0,0,0,.33-.82.9.9,0,0,0-.9-.9,1.89,1.89,0,0,0-.41.07,1.9,1.9,0,0,1-.42.07.27.27,0,0,1-.24-.1,1.86,1.86,0,0,1-.1-.78v-.65a7.4,7.4,0,0,1,.31-2.23,1.52,1.52,0,0,1,1.53-1.21h.1a1.59,1.59,0,0,0-.22.66,1,1,0,0,0,.33.75,1.14,1.14,0,0,0,.81.31,1.34,1.34,0,0,0,1-.45,1.64,1.64,0,0,0,.41-1.15,2,2,0,0,0-.64-1.49,2.2,2.2,0,0,0-1.57-.6,2.52,2.52,0,0,0-2.09.94,3.65,3.65,0,0,0-.56,1.27v-1.45A.47.47,0,0,0,147.73,184.25Zm-6.63,4.3q0,2.45-1.58,2.45a1.38,1.38,0,0,1-1.22-.65,3.94,3.94,0,0,1,0-3.6,1.35,1.35,0,0,1,1.18-.65Q141.1,186.1,141.1,188.55Zm1.61,3.32a4.82,4.82,0,0,0,1.13-3.4,4.46,4.46,0,0,0-1.17-3.26,4.25,4.25,0,0,0-3.19-1.19,4.2,4.2,0,0,0-3.2,1.2,5.47,5.47,0,0,0,0,6.69,4.31,4.31,0,0,0,3.26,1.19A4.08,4.08,0,0,0,142.71,191.87Zm-14.9-5.36q0-.29.42-.34.68-.07.68-1t-.92-1q-.25,0-.78.05-.87.08-1.22.08a6.45,6.45,0,0,1-.77-.07,6.61,6.61,0,0,0-.77-.07q-1,0-1,1.14a1.07,1.07,0,0,0,.22.7.69.69,0,0,0,.56.27,1.2,1.2,0,0,0,.29,0l.08,0h.08a.3.3,0,0,1,.25.11,3.54,3.54,0,0,1,.29.62l1.77,4.78q.37,1,1.17,1h.07l.8-.05.8.05q1,.07,1.51-1.33l1.46-3.81.34-.88c.13-.35.28-.53.48-.53l.22,0h.08l.08,0q.87,0,.87-1t-1-1.07a5.18,5.18,0,0,0-.66.07,6.3,6.3,0,0,1-.94.07,8.74,8.74,0,0,1-.91-.07,8.94,8.94,0,0,0-.91-.07q-.92,0-.92,1,0,.82.65,1,.44.08.44.32a1.16,1.16,0,0,1-.05.27l-.14.37-1.26,3.74L128,187.14A4.11,4.11,0,0,1,127.8,186.51ZM118.2,191q-.92,0-.92-.78,0-.49.94-.73a15.42,15.42,0,0,0,1.5-.42v.37A1.36,1.36,0,0,1,118.2,191Zm5.26,1.72a1.08,1.08,0,0,0,.5-.92.93.93,0,0,0-.93-.93l-.12,0-.25,0c-.18,0-.27-.18-.27-.54v-3.52a2.48,2.48,0,0,0-1-2.28,5.28,5.28,0,0,0-2.74-.56,5.63,5.63,0,0,0-2.67.53,1.6,1.6,0,0,0-1,1.44,1.33,1.33,0,0,0,.44,1,1.59,1.59,0,0,0,1.12.41,1.53,1.53,0,0,0,1-.32,1,1,0,0,0,.4-.8v-.07l0-.24q0-.36.56-.36a1.29,1.29,0,0,1,.83.26.81.81,0,0,1,.33.65.88.88,0,0,1-.43.81,5.19,5.19,0,0,1-1.64.47,11,11,0,0,0-1.53.37,2.2,2.2,0,0,0-1.55,2.31,2.38,2.38,0,0,0,.8,1.88,3.12,3.12,0,0,0,2.14.71,4,4,0,0,0,2.82-1.12,1.83,1.83,0,0,0,1.87,1.12A2.16,2.16,0,0,0,123.46,192.73Zm-10.3-8.81a1.14,1.14,0,0,0,.76.25,1.34,1.34,0,0,0,.93-.34,1.1,1.1,0,0,0,.37-.85,1.51,1.51,0,0,0-.74-1.31,3.48,3.48,0,0,0-2-.49,3.71,3.71,0,0,0-2.34.68,2.36,2.36,0,0,0-.93,1.85.82.82,0,0,1-.1.45.52.52,0,0,1-.37.09h-.31q-.93,0-.93,1a.79.79,0,0,0,.9.88h.41a.54.54,0,0,1,.22,0c.1,0,.15.17.15.41v3.38c0,.64-.1,1-.31,1a.85.85,0,0,1-.24-.06,1,1,0,0,0-.31-.06q-.83,0-.83,1a1.17,1.17,0,0,0,.29.83,1,1,0,0,0,.76.31q.17,0,.9-.08a10.43,10.43,0,0,1,1.16-.05q.65,0,1,0l1,.1a1,1,0,0,0,.73-.31,1.09,1.09,0,0,0,.29-.78q0-.94-.8-.94a1.47,1.47,0,0,0-.39.05l-.31,0q-.31,0-.36-.36a4.7,4.7,0,0,1,0-.6v-3.42c0-.29.12-.44.37-.44h.56a.83.83,0,0,0,.94-1q0-.92-1-.92h-.51c-.25,0-.37-.11-.37-.32v-.34q0-.8.83-.8a.84.84,0,0,1,.34.07,1,1,0,0,0-.14.44A.77.77,0,0,0,113.16,183.92Zm-18.08.33-.54.07a5.84,5.84,0,0,1-.7.07,2.29,2.29,0,0,1-.44-.05,4,4,0,0,0-.58-.08.93.93,0,0,0-.74.32,1.22,1.22,0,0,0-.28.83q0,.93.82.93a1.11,1.11,0,0,0,.3-.06,1.19,1.19,0,0,1,.26-.06q.29,0,.29,1v2.75c0,.64-.1,1-.29,1a.85.85,0,0,1-.25-.06,1,1,0,0,0-.31-.06q-.82,0-.82,1,0,1.14,1.07,1.14a9,9,0,0,0,.91-.07,9,9,0,0,1,.91-.07,7.74,7.74,0,0,1,.94.08,4.77,4.77,0,0,0,.63.05q.9,0,.9-1.07,0-.83-.61-.92c-.22,0-.35-.1-.39-.21a3.43,3.43,0,0,1-.07-.93V188a1.69,1.69,0,0,1,.45-1.21,1.51,1.51,0,0,1,1.15-.48,1,1,0,0,1,.87.4,2.73,2.73,0,0,1,.25,1.39v2.38c0,.26-.15.4-.46.42q-.7.05-.7,1a.9.9,0,0,0,1,1,5.82,5.82,0,0,0,.78-.07,6.45,6.45,0,0,1,.9-.07,7.36,7.36,0,0,1,.82.07,7.31,7.31,0,0,0,.82.07q1,0,1-1.17,0-.88-.75-.88a.72.72,0,0,0-.25,0,1,1,0,0,1-.26.05q-.34,0-.34-.87v-2.55a4.46,4.46,0,0,0-.39-2.14A2.62,2.62,0,0,0,98.5,184a3.83,3.83,0,0,0-3,1.53v-.82Q95.54,184.25,95.08,184.25ZM85.76,191q-.92,0-.92-.78,0-.49.94-.73a15.42,15.42,0,0,0,1.5-.42v.37A1.36,1.36,0,0,1,85.76,191ZM91,192.73a1.08,1.08,0,0,0,.5-.92.93.93,0,0,0-.93-.93l-.12,0-.25,0c-.18,0-.27-.18-.27-.54v-3.52a2.48,2.48,0,0,0-1-2.28,5.28,5.28,0,0,0-2.74-.56,5.63,5.63,0,0,0-2.67.53,1.6,1.6,0,0,0-1,1.44,1.33,1.33,0,0,0,.44,1,1.59,1.59,0,0,0,1.12.41,1.53,1.53,0,0,0,1-.32,1,1,0,0,0,.4-.8v-.07l0-.24q0-.36.56-.36a1.29,1.29,0,0,1,.83.26.81.81,0,0,1,.33.65.88.88,0,0,1-.43.81,5.19,5.19,0,0,1-1.64.47,11,11,0,0,0-1.53.37,2.2,2.2,0,0,0-1.55,2.31,2.38,2.38,0,0,0,.8,1.88,3.12,3.12,0,0,0,2.14.71A4,4,0,0,0,87.87,192a1.83,1.83,0,0,0,1.87,1.12A2.16,2.16,0,0,0,91,192.73Zm-10.3-8.81a1.14,1.14,0,0,0,.76.25,1.34,1.34,0,0,0,.93-.34,1.1,1.1,0,0,0,.37-.85,1.51,1.51,0,0,0-.74-1.31,3.48,3.48,0,0,0-2-.49,3.71,3.71,0,0,0-2.34.68,2.36,2.36,0,0,0-.93,1.85.82.82,0,0,1-.1.45.52.52,0,0,1-.37.09H76q-.93,0-.93,1a.79.79,0,0,0,.9.88h.41a.54.54,0,0,1,.22,0c.1,0,.15.17.15.41v3.38c0,.64-.1,1-.31,1a.85.85,0,0,1-.24-.06,1,1,0,0,0-.31-.06q-.83,0-.83,1a1.17,1.17,0,0,0,.29.83,1,1,0,0,0,.76.31q.17,0,.9-.08a10.43,10.43,0,0,1,1.16-.05q.65,0,1,0l1,.1a1,1,0,0,0,.73-.31,1.09,1.09,0,0,0,.29-.78q0-.94-.8-.94a1.47,1.47,0,0,0-.39.05l-.31,0q-.31,0-.36-.36a4.7,4.7,0,0,1,0-.6v-3.42c0-.29.12-.44.37-.44h.56a.83.83,0,0,0,.94-1q0-.92-1-.92h-.51c-.25,0-.37-.11-.37-.32v-.34q0-.8.83-.8a.84.84,0,0,1,.34.07,1,1,0,0,0-.14.44A.77.77,0,0,0,80.72,183.92Zm-15.89,3q0,.24-.44.24H63.34c-.28,0-.42-.07-.42-.2l0-.12L64,183.2l.82,3.49C64.83,186.84,64.84,186.91,64.84,186.9Zm.7,2.69a1.44,1.44,0,0,1,.19.76c0,.24-.11.36-.32.36l-.25,0-.25,0q-.65,0-.65,1a1.3,1.3,0,0,0,.3.88,1,1,0,0,0,.76.35,9.89,9.89,0,0,0,1.09-.14,7,7,0,0,1,.87,0q.59,0,1,0a4.6,4.6,0,0,1,.63.08,5,5,0,0,0,.63.05,1.2,1.2,0,0,0,.88-.34,1.22,1.22,0,0,0,.34-.9q0-1.12-1-1.12h-.19l-.36.05q-.34,0-.59-.87l-2.18-7.24a1.51,1.51,0,0,0-.61-1,5.38,5.38,0,0,0-1.8-.18,4.52,4.52,0,0,0-1.65.19,2.62,2.62,0,0,0-.92,1.43l-2.35,6.68c-.12.35-.2.56-.24.63a.6.6,0,0,1-.53.36l-.32,0-.32,0q-.9,0-.9,1.19a1.13,1.13,0,0,0,.33.85,1.18,1.18,0,0,0,.86.32q.17,0,1.07-.12a8.88,8.88,0,0,1,1.09-.05,7.52,7.52,0,0,1,1,.05,9.79,9.79,0,0,0,1.05.12,1,1,0,0,0,.76-.34,1.31,1.31,0,0,0,.29-.88q0-1-.63-1l-.25,0-.25,0c-.19,0-.29-.09-.29-.27q0-1.16,1-1.16h2.26A.55.55,0,0,1,65.53,189.59Z"/><path class="cls-1" d="M230.77,201.8q0-.56-.39-.56l-.39,0a3,3,0,0,1-.42,0,6.72,6.72,0,0,1-.7,0l-.58-.05a.75.75,0,0,0-.49.17.51.51,0,0,0-.2.41c0,.36.19.54.58.54a1.89,1.89,0,0,0,.37-.05,1.85,1.85,0,0,1,.36-.05q.37,0,.48.67a29.32,29.32,0,0,1,.1,3.22v3a15.57,15.57,0,0,1-.11,2.12q-.1.52-.37.52a2,2,0,0,1-.42-.07.83.83,0,0,0-.33,0q-.66,0-.66.53t.7.63l.87-.07q.51-.05.8-.05a11,11,0,0,1,1.11.07c.32,0,.56.05.72.05q.75,0,.75-.61a.49.49,0,0,0-.56-.54,1.46,1.46,0,0,0-.38.08,1.49,1.49,0,0,1-.39.08q-.42,0-.51-.83,0-.15,0-1.12v-.32a1.47,1.47,0,0,0,.07-.34V208a3.77,3.77,0,0,1,.44-2,2.19,2.19,0,0,1,2-.92,1.82,1.82,0,0,1,1.74.88,5.29,5.29,0,0,1,.34,2.33v1.65c0,.4,0,.66,0,.8q0,1.1-.53,1.1a.91.91,0,0,1-.29-.05,1.43,1.43,0,0,0-.44-.08.62.62,0,0,0-.42.15.47.47,0,0,0-.18.37.57.57,0,0,0,.2.45.74.74,0,0,0,.51.18q.17,0,.88-.1a5.18,5.18,0,0,1,.68,0,10.22,10.22,0,0,1,1.16.08,5.88,5.88,0,0,0,.65.05q.82,0,.82-.58t-.63-.58l-.27,0a1.23,1.23,0,0,1-.39.1q-.37,0-.44-.85,0-.1,0-1.1V207a2.87,2.87,0,0,0-.89-2.19,3.73,3.73,0,0,0-3.68-.59,4.59,4.59,0,0,0-1.25.89l.07-3.31Zm-6,10.1q-1.19,0-1.19-1.78v-4.18c0-.24.08-.36.24-.36h1.87q.7,0,.7-.63t-.65-.6H223.9c-.2,0-.31-.08-.31-.25v-1.82q0-.64-.61-.65a.58.58,0,0,0-.66.65V204q0,.32-.29.32h-.66a.54.54,0,0,0-.4.19.6.6,0,0,0-.18.42.59.59,0,0,0,.18.43.63.63,0,0,0,.46.18H222c.22,0,.33.12.33.36V210a4,4,0,0,0,.42,2.14,2.13,2.13,0,0,0,1.92.87,2.33,2.33,0,0,0,2.11-1,5.07,5.07,0,0,0,.47-2.58q0-.78-.59-.78t-.61.7v1.09Q226,211.9,224.79,211.9Zm-6.2-8.76a.92.92,0,0,0,.28-.67.89.89,0,0,0-.28-.66,1,1,0,0,0-1.34,0,.89.89,0,0,0-.28.66.95.95,0,0,0,1.62.67Zm.23,3.31q0-.92,0-1.05s0-.11,0-.2,0-.16,0-.2c0-.44-.17-.66-.49-.66l-.42,0-.42,0-.7-.07-.46,0q-.75,0-.75.58c0,.36.21.54.62.54a1.75,1.75,0,0,0,.37-.06,1.83,1.83,0,0,1,.39-.06q.43,0,.51,1.07v4.35q-.08,1.09-.5,1.09a2.41,2.41,0,0,1-.4-.05,2.34,2.34,0,0,0-.4-.05q-.58,0-.58.56t.68.58a8.8,8.8,0,0,0,.89-.08,8,8,0,0,1,1-.07,6.7,6.7,0,0,1,.83.08,6.53,6.53,0,0,0,.83.08.84.84,0,0,0,.54-.17.51.51,0,0,0,.21-.41q0-.56-.65-.56a.73.73,0,0,0-.25,0,2.58,2.58,0,0,1-.43.08q-.37,0-.46-.76,0-.15,0-1v-2.21Q218.8,207.14,218.82,206.44Zm-14.12-.61q0-.51.44-.51a1.26,1.26,0,0,1,.42.08l.42,0q.63,0,.63-.57t-.75-.59l-.88.09a8.92,8.92,0,0,1-1.09.08,4.14,4.14,0,0,1-.63,0l-.73-.11-.19,0q-.76,0-.76.6a.49.49,0,0,0,.56.55l.37,0a1,1,0,0,1,.31-.07c.22,0,.37.18.48.55l1.63,6.13q.27,1.06,1.07,1.06a1,1,0,0,0,.78-.35,2.9,2.9,0,0,0,.48-1.2l1.33-5.94,1.27,6.05q.31,1.43,1.21,1.43a.93.93,0,0,0,.75-.32,2.88,2.88,0,0,0,.48-1.12l1.16-4.4q.49-1.9,1-1.9l.31.06a.58.58,0,0,0,.29.06.5.5,0,0,0,.56-.57q0-.59-.73-.59l-.19,0-.56.08a6.62,6.62,0,0,1-.88.06,6.77,6.77,0,0,1-.85,0l-.7-.1-.25,0q-.83,0-.83.59t.63.56a2.36,2.36,0,0,0,.44-.06,2.43,2.43,0,0,1,.44-.06c.26,0,.39.15.39.46v0a3.73,3.73,0,0,1-.12.85l-1.26,5.18-1.28-6a3.5,3.5,0,0,0-.45-1.26.91.91,0,0,0-.77-.32.9.9,0,0,0-.76.31,3.43,3.43,0,0,0-.45,1.27l-1.33,6-1.24-5.18A3.68,3.68,0,0,1,204.69,205.83Zm-11.17,5.6a2.46,2.46,0,0,1-3.46-.39,4.11,4.11,0,0,1-.7-2.54A4,4,0,0,1,190,206a2.21,2.21,0,0,1,1.88-.9,2.41,2.41,0,0,1,1.57.56,2.13,2.13,0,0,1,.74,1.33,9.07,9.07,0,0,1,.09,1.55,12.53,12.53,0,0,1-.07,1.45A2.14,2.14,0,0,1,193.52,211.43Zm-4.5-6.19a5.72,5.72,0,0,0,0,6.59,3.44,3.44,0,0,0,2.78,1.26,3.06,3.06,0,0,0,2.61-1.21v.37c0,.41.15.61.46.61a1.49,1.49,0,0,0,.36-.05l.39,0,.52,0,.52,0q.77,0,.77-.58t-.64-.56l-.38,0a1.32,1.32,0,0,1-.35,0,.39.39,0,0,1-.42-.27,6.76,6.76,0,0,1-.1-1.4v-4.51q0-.44,0-1.29.05-1.21.05-1.31c0-.57,0-.87,0-.9v-.19q0-.68-.48-.68a3.26,3.26,0,0,0-.44,0l-.44,0-.56-.05-.49,0q-.85,0-.85.56t.63.54a2,2,0,0,0,.38-.05,2,2,0,0,1,.38-.05q.39,0,.48.53a5.68,5.68,0,0,1,0,.83v1.72a2.78,2.78,0,0,0-2.52-1.31A3.44,3.44,0,0,0,189,205.25Zm-7.68.58a2.56,2.56,0,0,1,1.73-.69,2.22,2.22,0,0,1,1.6.66,2.11,2.11,0,0,1,.68,1.56q0,.24-.36.24h-4.06q-.37,0-.37-.24A2,2,0,0,1,181.34,205.82Zm4.35-.74a3.51,3.51,0,0,0-2.63-1.07,3.69,3.69,0,0,0-2.92,1.29,5,5,0,0,0-1.12,3.37,4.7,4.7,0,0,0,1.05,3.22,3.59,3.59,0,0,0,2.84,1.2,4.09,4.09,0,0,0,2.55-.86,2.46,2.46,0,0,0,1.12-2,.56.56,0,0,0-.63-.65.53.53,0,0,0-.56.41l-.15.49a1.86,1.86,0,0,1-.81,1,2.43,2.43,0,0,1-1.37.41,2.46,2.46,0,0,1-1.9-.85,3.06,3.06,0,0,1-.76-2.12.25.25,0,0,1,.07-.2.48.48,0,0,1,.29-.06h5.41q.41,0,.49-.14a2.1,2.1,0,0,0,.08-.79A3.75,3.75,0,0,0,185.69,205.08Zm-11.34,6.35a2.46,2.46,0,0,1-3.46-.39,4.11,4.11,0,0,1-.7-2.54,4,4,0,0,1,.68-2.46,2.21,2.21,0,0,1,1.88-.9,2.41,2.41,0,0,1,1.57.56A2.13,2.13,0,0,1,175,207a9.07,9.07,0,0,1,.09,1.55,12.53,12.53,0,0,1-.07,1.45A2.14,2.14,0,0,1,174.34,211.43Zm-4.5-6.19a5.72,5.72,0,0,0,0,6.59,3.44,3.44,0,0,0,2.78,1.26,3.06,3.06,0,0,0,2.61-1.21v.37c0,.41.15.61.46.61a1.49,1.49,0,0,0,.36-.05l.39,0,.52,0,.52,0q.77,0,.77-.58t-.64-.56l-.38,0a1.32,1.32,0,0,1-.35,0,.39.39,0,0,1-.42-.27,6.76,6.76,0,0,1-.1-1.4v-4.51q0-.44,0-1.29.05-1.21.05-1.31c0-.57,0-.87,0-.9v-.19q0-.68-.48-.68a3.26,3.26,0,0,0-.44,0l-.44,0-.56-.05-.49,0q-.85,0-.85.56t.63.54a2,2,0,0,0,.38-.05,2,2,0,0,1,.38-.05q.39,0,.48.53a5.68,5.68,0,0,1,0,.83v1.72a2.78,2.78,0,0,0-2.52-1.31A3.44,3.44,0,0,0,169.84,205.25Zm-5.87,6.1a2.5,2.5,0,0,1-1.79.62,2,2,0,0,1-1.27-.37,1.24,1.24,0,0,1-.47-1q0-1.24,1.93-1.43a7.83,7.83,0,0,0,1.48-.24,2.18,2.18,0,0,0,.79-.48v1.21A2.3,2.3,0,0,1,164,211.35Zm4.29,0v-1.05q0-.82-.55-.82t-.52.54v.83q0,1.08-.59,1.08t-.58-.59a7.25,7.25,0,0,1,0-1V207q0-3-3.09-3a3.81,3.81,0,0,0-2.29.68,2,2,0,0,0-.94,1.63,1,1,0,0,0,.3.75,1,1,0,0,0,.74.31.9.9,0,0,0,.62-.22.72.72,0,0,0,.25-.56.66.66,0,0,0-.24-.58c-.1-.07-.15-.12-.15-.17s.08-.24.25-.36a2.6,2.6,0,0,1,1.43-.43,2.07,2.07,0,0,1,1.35.4,1.35,1.35,0,0,1,.48,1.1,1.09,1.09,0,0,1-.43,1,5.12,5.12,0,0,1-1.86.43q-1,.12-1.33.2a3.16,3.16,0,0,0-.79.33,2.21,2.21,0,0,0-1.21,2.07,2.23,2.23,0,0,0,.83,1.82,3.35,3.35,0,0,0,2.2.68,3.06,3.06,0,0,0,2.72-1.28,1.57,1.57,0,0,0,1.72,1.21A1.51,1.51,0,0,0,168.26,211.39Zm-11.75-2.86a4,4,0,0,1-.71,2.52,2.33,2.33,0,0,1-1.95.91,2.2,2.2,0,0,1-1.88-.91,4.14,4.14,0,0,1-.67-2.51v-.22a3.93,3.93,0,0,1,.75-2.36,2.28,2.28,0,0,1,1.87-.83Q156.52,205.13,156.52,208.54Zm.27,3.3a4.86,4.86,0,0,0,1.11-3.33,4.77,4.77,0,0,0-1.07-3.28A3.71,3.71,0,0,0,153.9,204a3.66,3.66,0,0,0-2.9,1.23,5.62,5.62,0,0,0,0,6.61,3.6,3.6,0,0,0,2.86,1.23A3.72,3.72,0,0,0,156.79,211.83ZM147.47,202a1.47,1.47,0,0,0,0-.25q0-.49-.39-.49a3.73,3.73,0,0,0-.51.05,3.76,3.76,0,0,1-.51.05l-.46,0-.41-.05-.32,0q-.68,0-.68.56c0,.36.19.54.58.54l.31,0,.44-.07a.48.48,0,0,1,.48.39,5.3,5.3,0,0,1,.05.68V209l0,1.19a7.35,7.35,0,0,1-.09,1.37.36.36,0,0,1-.39.26l-.5-.09-.15,0h-.12c-.39,0-.58.18-.58.53s.24.61.71.61H145a7.27,7.27,0,0,0,.8-.07,7.29,7.29,0,0,1,.81-.07,8.75,8.75,0,0,1,.91.07c.4,0,.68.07.86.07q.69,0,.7-.56a.51.51,0,0,0-.57-.58l-.27,0a2.23,2.23,0,0,1-.43.08q-.45,0-.46-.87v-5.28Q147.35,203.31,147.47,202Zm-20.67,2.31h-.05l-.41.07H126a5.26,5.26,0,0,1-.56,0l-.51,0q-.7,0-.7.58t.63.54l.27,0,.48-.09a.39.39,0,0,1,.42.36,12.14,12.14,0,0,1,.08,1.8v3.57q0,.83-.5.83l-.07,0-.43-.08-.1,0h-.1q-.66,0-.66.53t.68.58l.88-.07.75-.05a8.72,8.72,0,0,1,1,.07,6.14,6.14,0,0,0,.71.05q.76,0,.76-.54t-.66-.56h-.12l-.1,0a1.44,1.44,0,0,1-.36.09c-.2,0-.33-.19-.37-.58q0-.12,0-.8v-2.27a4.06,4.06,0,0,1,.49-2.32,2,2,0,0,1,1.72-.82,1.6,1.6,0,0,1,1.42.58,3.86,3.86,0,0,1,.4,2.07v2.48l-.05.8q0,.87-.42.87a1.36,1.36,0,0,1-.36-.07.7.7,0,0,0-.29,0,.46.46,0,0,0-.51.53q0,.58.7.58a4.85,4.85,0,0,0,.75-.07,5,5,0,0,1,.78-.07,6.27,6.27,0,0,1,.76.07,6.24,6.24,0,0,0,.76.07q.8,0,.8-.55a.53.53,0,0,0-.16-.39.55.55,0,0,0-.4-.16l-.3,0-.3,0c-.22,0-.35-.13-.4-.4a14.72,14.72,0,0,1-.08-2v-1.21a5.09,5.09,0,0,1,.37-2.31,1.76,1.76,0,0,1,1.68-.83,2.07,2.07,0,0,1,1.12.31,1.54,1.54,0,0,1,.67.84,5.92,5.92,0,0,1,.18,1.71v2.16a8.36,8.36,0,0,1-.09,1.45.35.35,0,0,1-.37.29.89.89,0,0,1-.27,0l-.34,0c-.36,0-.54.17-.54.51s.24.6.71.6c.19,0,.47,0,.84-.06a8.4,8.4,0,0,1,.84-.06,7.42,7.42,0,0,1,.79.06,7.65,7.65,0,0,0,.77.06q.68,0,.68-.6t-.59-.51a1.63,1.63,0,0,0-.35.06,1.58,1.58,0,0,1-.35.06c-.24,0-.38-.2-.44-.61,0-.1,0-.39,0-.85v-2.93a5.2,5.2,0,0,0-.22-1.77,2.46,2.46,0,0,0-1.17-1.29,3.62,3.62,0,0,0-1.73-.41,3.51,3.51,0,0,0-1.53.29,3.59,3.59,0,0,0-1.17,1,2.66,2.66,0,0,0-2.45-1.29,3,3,0,0,0-1.36.28,4,4,0,0,0-1.16,1v-.49C127.21,204.48,127.07,204.32,126.8,204.32Zm-7,7A2.5,2.5,0,0,1,118,212a2,2,0,0,1-1.27-.37,1.24,1.24,0,0,1-.47-1q0-1.24,1.93-1.43a7.83,7.83,0,0,0,1.48-.24,2.18,2.18,0,0,0,.79-.48v1.21A2.3,2.3,0,0,1,119.82,211.35Zm4.29,0v-1.05q0-.82-.55-.82t-.52.54v.83q0,1.08-.59,1.08t-.58-.59a7.25,7.25,0,0,1,0-1V207q0-3-3.09-3a3.81,3.81,0,0,0-2.29.68,2,2,0,0,0-.94,1.63,1,1,0,0,0,.3.75,1,1,0,0,0,.74.31.9.9,0,0,0,.62-.22.72.72,0,0,0,.25-.56.66.66,0,0,0-.24-.58c-.1-.07-.15-.12-.15-.17s.08-.24.25-.36a2.6,2.6,0,0,1,1.43-.43,2.07,2.07,0,0,1,1.35.4,1.35,1.35,0,0,1,.48,1.1,1.09,1.09,0,0,1-.43,1,5.12,5.12,0,0,1-1.86.43q-1,.12-1.33.2a3.16,3.16,0,0,0-.79.33,2.21,2.21,0,0,0-1.21,2.07,2.23,2.23,0,0,0,.83,1.82,3.35,3.35,0,0,0,2.2.68,3.06,3.06,0,0,0,2.72-1.28,1.57,1.57,0,0,0,1.72,1.21A1.51,1.51,0,0,0,124.11,211.39Zm-15.69-5.57a2.56,2.56,0,0,1,1.73-.69,2.22,2.22,0,0,1,1.6.66,2.11,2.11,0,0,1,.68,1.56q0,.24-.36.24H108q-.37,0-.37-.24A2,2,0,0,1,108.42,205.82Zm4.35-.74a3.51,3.51,0,0,0-2.63-1.07,3.69,3.69,0,0,0-2.92,1.29,5,5,0,0,0-1.12,3.37,4.7,4.7,0,0,0,1.05,3.22,3.59,3.59,0,0,0,2.84,1.2,4.09,4.09,0,0,0,2.55-.86,2.46,2.46,0,0,0,1.12-2,.56.56,0,0,0-.63-.65.53.53,0,0,0-.56.41l-.15.49a1.86,1.86,0,0,1-.81,1,2.43,2.43,0,0,1-1.37.41,2.46,2.46,0,0,1-1.9-.85,3.06,3.06,0,0,1-.76-2.12.25.25,0,0,1,.07-.2.48.48,0,0,1,.29-.06h5.41q.41,0,.49-.14a2.1,2.1,0,0,0,.08-.79A3.75,3.75,0,0,0,112.78,205.08Zm-12.9-.78a1.09,1.09,0,0,0-.32,0l-.44,0-.51,0-.51,0q-.73,0-.73.59a.49.49,0,0,0,.56.54,1.89,1.89,0,0,0,.37-.05,1.88,1.88,0,0,1,.37-.05q.46,0,.51,1l.05,3.86v.87q0,.78-.46.78l-.24,0-.26-.05-.26,0q-.65,0-.65.53c0,.4.23.6.69.6l.95-.08c.26,0,.62,0,1.07,0a7.32,7.32,0,0,1,.77.06,7.59,7.59,0,0,0,.77.06h.07q.69,0,.69-.59a.48.48,0,0,0-.54-.54,1.45,1.45,0,0,0-.32,0,2,2,0,0,1-.46.06q-.44,0-.53-1,0-.14,0-1.28v-1.12a6.73,6.73,0,0,1,.27-2.21,1.72,1.72,0,0,1,1.77-1.19,1.7,1.7,0,0,1,1.08.34,1,1,0,0,1,.43.83.85.85,0,0,1-.1.37l-.22-.05a.64.64,0,0,0-.48.21.68.68,0,0,0-.2.48.74.74,0,0,0,.27.58,1,1,0,0,0,.66.24,1.2,1.2,0,0,0,1-.47,1.89,1.89,0,0,0,.37-1.21,2.22,2.22,0,0,0-.74-1.73,3,3,0,0,0-4.29.57v-.47C100.32,204.46,100.17,204.3,99.87,204.3Zm-5.57,3.52a1,1,0,0,0,.71.26,1.12,1.12,0,0,0,.89-.41,1.54,1.54,0,0,0,.35-1,2.33,2.33,0,0,0-.9-1.88,3.44,3.44,0,0,0-2.26-.74,3.66,3.66,0,0,0-2.92,1.27,5,5,0,0,0-1.1,3.37,4.73,4.73,0,0,0,1.06,3.21,3.52,3.52,0,0,0,2.8,1.22,3.4,3.4,0,0,0,2.6-1.07,3.53,3.53,0,0,0,.65-1,2.54,2.54,0,0,0,.27-1,.64.64,0,0,0-.66-.66.59.59,0,0,0-.54.34q0,.09-.2.68a2.14,2.14,0,0,1-.76,1.17A2.07,2.07,0,0,1,93,212a2.18,2.18,0,0,1-1.86-.91,4.14,4.14,0,0,1-.67-2.51,4,4,0,0,1,.71-2.48,2.26,2.26,0,0,1,1.89-.93,2.13,2.13,0,0,1,1.25.34,1.32,1.32,0,0,1,.57.94q-.85.1-.85.78A.81.81,0,0,0,94.31,207.82Zm-16.12-2a2.56,2.56,0,0,1,1.73-.69,2.22,2.22,0,0,1,1.6.66,2.11,2.11,0,0,1,.68,1.56q0,.24-.36.24H77.77q-.37,0-.37-.24A2,2,0,0,1,78.18,205.82Zm4.35-.74A3.51,3.51,0,0,0,79.9,204,3.69,3.69,0,0,0,77,205.3a5,5,0,0,0-1.12,3.37,4.7,4.7,0,0,0,1.05,3.22,3.59,3.59,0,0,0,2.84,1.2,4.09,4.09,0,0,0,2.55-.86,2.46,2.46,0,0,0,1.12-2,.56.56,0,0,0-.63-.65.53.53,0,0,0-.56.41l-.15.49a1.86,1.86,0,0,1-.81,1,2.43,2.43,0,0,1-1.37.41,2.46,2.46,0,0,1-1.9-.85,3.06,3.06,0,0,1-.76-2.12.25.25,0,0,1,.07-.2.48.48,0,0,1,.29-.06H83q.41,0,.49-.14a2.1,2.1,0,0,0,.08-.79A3.75,3.75,0,0,0,82.53,205.08Zm-10.12,2.74a1,1,0,0,0,.71.26,1.12,1.12,0,0,0,.89-.41,1.54,1.54,0,0,0,.35-1,2.33,2.33,0,0,0-.9-1.88,3.44,3.44,0,0,0-2.26-.74,3.66,3.66,0,0,0-2.92,1.27,5,5,0,0,0-1.1,3.37,4.73,4.73,0,0,0,1.06,3.21,3.52,3.52,0,0,0,2.8,1.22,3.4,3.4,0,0,0,2.6-1.07,3.53,3.53,0,0,0,.65-1,2.54,2.54,0,0,0,.27-1,.64.64,0,0,0-.66-.66.59.59,0,0,0-.54.34q0,.09-.2.68a2.14,2.14,0,0,1-.76,1.17,2.07,2.07,0,0,1-1.3.42,2.18,2.18,0,0,1-1.86-.91,4.14,4.14,0,0,1-.67-2.51,4,4,0,0,1,.71-2.48,2.26,2.26,0,0,1,1.89-.93,2.13,2.13,0,0,1,1.25.34,1.32,1.32,0,0,1,.57.94q-.85.1-.85.78A.81.81,0,0,0,72.41,207.82Zm-8-4.68a.92.92,0,0,0,.28-.67.89.89,0,0,0-.28-.66,1,1,0,0,0-1.34,0,.89.89,0,0,0-.28.66.95.95,0,0,0,1.62.67Zm.23,3.31q0-.92,0-1.05s0-.11,0-.2,0-.16,0-.2c0-.44-.17-.66-.49-.66l-.42,0-.42,0-.7-.07-.46,0q-.75,0-.75.58c0,.36.21.54.62.54a1.75,1.75,0,0,0,.37-.06,1.83,1.83,0,0,1,.39-.06q.43,0,.51,1.07v4.35q-.08,1.09-.5,1.09a2.41,2.41,0,0,1-.4-.05,2.34,2.34,0,0,0-.4-.05q-.58,0-.58.56t.68.58a8.8,8.8,0,0,0,.89-.08,8,8,0,0,1,1-.07,6.7,6.7,0,0,1,.83.08,6.53,6.53,0,0,0,.83.08.84.84,0,0,0,.54-.17.51.51,0,0,0,.21-.41q0-.56-.65-.56a.73.73,0,0,0-.25,0,2.58,2.58,0,0,1-.43.08q-.37,0-.46-.76,0-.15,0-1v-2.21Q64.67,207.14,64.68,206.44Zm-11.85,4.91A2.5,2.5,0,0,1,51,212a2,2,0,0,1-1.27-.37,1.24,1.24,0,0,1-.47-1q0-1.24,1.93-1.43a7.83,7.83,0,0,0,1.48-.24,2.18,2.18,0,0,0,.79-.48v1.21A2.3,2.3,0,0,1,52.83,211.35Zm4.29,0v-1.05q0-.82-.55-.82t-.52.54v.83q0,1.08-.59,1.08t-.58-.59a7.25,7.25,0,0,1,0-1V207q0-3-3.09-3a3.81,3.81,0,0,0-2.29.68,2,2,0,0,0-.94,1.63,1,1,0,0,0,.3.75,1,1,0,0,0,.74.31.9.9,0,0,0,.62-.22.72.72,0,0,0,.25-.56.66.66,0,0,0-.24-.58c-.1-.07-.15-.12-.15-.17s.08-.24.25-.36a2.6,2.6,0,0,1,1.43-.43,2.07,2.07,0,0,1,1.35.4,1.35,1.35,0,0,1,.48,1.1,1.09,1.09,0,0,1-.43,1,5.12,5.12,0,0,1-1.86.43q-1,.12-1.33.2a3.16,3.16,0,0,0-.79.33,2.21,2.21,0,0,0-1.21,2.07,2.23,2.23,0,0,0,.83,1.82,3.35,3.35,0,0,0,2.2.68,3.06,3.06,0,0,0,2.72-1.28A1.57,1.57,0,0,0,55.38,213,1.51,1.51,0,0,0,57.12,211.39ZM45.61,202a1.47,1.47,0,0,0,0-.25q0-.49-.39-.49a3.73,3.73,0,0,0-.51.05,3.76,3.76,0,0,1-.51.05l-.46,0-.41-.05-.32,0q-.68,0-.68.56c0,.36.19.54.58.54l.31,0,.44-.07a.48.48,0,0,1,.48.39,5.3,5.3,0,0,1,.05.68V209l0,1.19a7.35,7.35,0,0,1-.09,1.37.36.36,0,0,1-.39.26l-.5-.09-.15,0h-.12c-.39,0-.58.18-.58.53s.24.61.71.61h.08a7.27,7.27,0,0,0,.8-.07,7.29,7.29,0,0,1,.81-.07,8.75,8.75,0,0,1,.91.07c.4,0,.68.07.86.07q.69,0,.7-.56a.51.51,0,0,0-.57-.58l-.27,0a2.23,2.23,0,0,1-.43.08q-.45,0-.46-.87v-5.28Q45.49,203.31,45.61,202Zm-5.25,0a1.47,1.47,0,0,0,0-.25q0-.49-.39-.49a3.73,3.73,0,0,0-.51.05,3.76,3.76,0,0,1-.51.05l-.46,0-.41-.05-.32,0q-.68,0-.68.56c0,.36.19.54.58.54l.31,0,.44-.07a.48.48,0,0,1,.48.39,5.3,5.3,0,0,1,.05.68V209l0,1.19a7.35,7.35,0,0,1-.09,1.37.36.36,0,0,1-.39.26l-.5-.09-.15,0h-.12c-.39,0-.58.18-.58.53s.24.61.71.61h.08a7.27,7.27,0,0,0,.8-.07,7.29,7.29,0,0,1,.81-.07,8.75,8.75,0,0,1,.91.07c.4,0,.68.07.86.07q.69,0,.7-.56a.51.51,0,0,0-.57-.58l-.27,0a2.23,2.23,0,0,1-.43.08q-.45,0-.46-.87v-5.28Q40.24,203.31,40.36,202Zm-5.52,1.13a.92.92,0,0,0,.28-.67.89.89,0,0,0-.28-.66,1,1,0,0,0-1.34,0,.89.89,0,0,0-.28.66.95.95,0,0,0,1.62.67Zm.23,3.31q0-.92,0-1.05s0-.11,0-.2,0-.16,0-.2c0-.44-.17-.66-.49-.66l-.42,0-.42,0-.7-.07-.46,0q-.75,0-.75.58c0,.36.21.54.62.54a1.75,1.75,0,0,0,.37-.06,1.83,1.83,0,0,1,.39-.06q.43,0,.51,1.07v4.35q-.08,1.09-.5,1.09a2.41,2.41,0,0,1-.4-.05,2.34,2.34,0,0,0-.4-.05q-.58,0-.58.56t.68.58a8.8,8.8,0,0,0,.89-.08,8,8,0,0,1,1-.07,6.7,6.7,0,0,1,.83.08,6.53,6.53,0,0,0,.83.08.84.84,0,0,0,.54-.17.51.51,0,0,0,.21-.41q0-.56-.65-.56a.73.73,0,0,0-.25,0,2.58,2.58,0,0,1-.43.08q-.37,0-.46-.76,0-.15,0-1v-2.21Q35.05,207.14,35.07,206.44ZM23.58,204.3l-.46,0a2.35,2.35,0,0,1-.48,0l-.63-.07-.17,0q-.76,0-.76.56c0,.36.21.54.62.54l.35,0,.36,0a.4.4,0,0,1,.39.21,2.18,2.18,0,0,1,.15.79v4.54q0,1-.54,1a2.13,2.13,0,0,1-.46-.05l-.32-.05a.48.48,0,0,0-.55.54q0,.58.71.58l.85-.08a8.68,8.68,0,0,1,1-.07,6.18,6.18,0,0,1,.83.05q.75.1.88.1.68,0,.68-.55t-.53-.57a1.67,1.67,0,0,0-.39.06,1.68,1.68,0,0,1-.37.06.37.37,0,0,1-.37-.27,3.39,3.39,0,0,1-.1-1v-2.26a4.59,4.59,0,0,1,.41-2.26,2.11,2.11,0,0,1,1.95-1,2.16,2.16,0,0,1,1.27.39,1.64,1.64,0,0,1,.66,1,6,6,0,0,1,.08,1.24v3.2q0,.93-.45.93l-.42-.07a1.57,1.57,0,0,0-.31,0q-.59,0-.59.53t.68.6l.9-.1a6.51,6.51,0,0,1,.73,0,8.32,8.32,0,0,1,1,.07,7.34,7.34,0,0,0,.78.07.75.75,0,0,0,.49-.17.53.53,0,0,0,.2-.43.5.5,0,0,0-.16-.37.54.54,0,0,0-.38-.15l-.35,0a2.47,2.47,0,0,1-.4,0c-.25,0-.4-.19-.46-.58q0-.14,0-.87v-3.23a4,4,0,0,0-.24-1.51,2.45,2.45,0,0,0-1.11-1.16,3.44,3.44,0,0,0-1.73-.47,3.29,3.29,0,0,0-2.72,1.29v-.48Q24.07,204.3,23.58,204.3Zm-6.95,7a2.5,2.5,0,0,1-1.79.62,2,2,0,0,1-1.27-.37,1.24,1.24,0,0,1-.47-1q0-1.24,1.93-1.43a7.83,7.83,0,0,0,1.48-.24,2.18,2.18,0,0,0,.79-.48v1.21A2.3,2.3,0,0,1,16.63,211.35Zm4.29,0v-1.05q0-.82-.55-.82t-.52.54v.83q0,1.08-.59,1.08t-.58-.59a7.25,7.25,0,0,1,0-1V207q0-3-3.09-3a3.81,3.81,0,0,0-2.29.68,2,2,0,0,0-.94,1.63,1,1,0,0,0,.3.75,1,1,0,0,0,.74.31.9.9,0,0,0,.62-.22.72.72,0,0,0,.25-.56A.66.66,0,0,0,14,206c-.1-.07-.15-.12-.15-.17s.08-.24.25-.36a2.6,2.6,0,0,1,1.43-.43,2.07,2.07,0,0,1,1.35.4,1.35,1.35,0,0,1,.48,1.1,1.09,1.09,0,0,1-.43,1,5.12,5.12,0,0,1-1.86.43q-1,.12-1.33.2a3.16,3.16,0,0,0-.79.33,2.21,2.21,0,0,0-1.21,2.07,2.23,2.23,0,0,0,.83,1.82,3.35,3.35,0,0,0,2.2.68,3.06,3.06,0,0,0,2.72-1.28A1.57,1.57,0,0,0,19.19,213,1.51,1.51,0,0,0,20.93,211.39ZM4,203.55a1.67,1.67,0,0,1-.08-.51q0-.47.75-.47H5.3q.65,0,.65-.61t-.63-.56a10.48,10.48,0,0,0-1.24.11,10.37,10.37,0,0,1-1.26.11,9.57,9.57,0,0,1-1.68-.17,2.56,2.56,0,0,0-.46,0q-.68,0-.68.59t.66.58h.65a.91.91,0,0,1,.75.29,3.26,3.26,0,0,1,.36.8l3,8.54a1.1,1.1,0,0,0,1.1.83,1.08,1.08,0,0,0,1.07-.83L10.42,204a7,7,0,0,1,.5-1.22.54.54,0,0,1,.47-.28h.08l.39,0,.07,0q.63,0,.63-.58t-.63-.6a3.22,3.22,0,0,0-.54.05,9.25,9.25,0,0,1-1.51.15,8.63,8.63,0,0,1-1.1-.1,8.46,8.46,0,0,0-1.08-.1q-.65,0-.65.58t.66.59l.37,0,.37,0q.68,0,.68.65a4.58,4.58,0,0,1-.25,1.16l-2.28,7.11-2.4-7.23Z"/><path class="cls-1" d="M72.16,221.8q0-.56-.39-.56l-.39,0a3,3,0,0,1-.42,0,6.72,6.72,0,0,1-.7,0l-.58-.05a.75.75,0,0,0-.49.17.51.51,0,0,0-.2.41c0,.36.19.54.58.54a1.89,1.89,0,0,0,.37-.05,1.85,1.85,0,0,1,.36-.05q.37,0,.48.67a29.32,29.32,0,0,1,.1,3.22v3a15.57,15.57,0,0,1-.11,2.12q-.1.52-.37.52a2,2,0,0,1-.42-.07.83.83,0,0,0-.33,0q-.66,0-.66.53t.7.63l.87-.07q.51-.05.8-.05a11,11,0,0,1,1.11.07c.32,0,.56.05.72.05q.75,0,.75-.61a.49.49,0,0,0-.56-.54,1.46,1.46,0,0,0-.38.08,1.49,1.49,0,0,1-.39.08q-.42,0-.51-.83,0-.15,0-1.12v-.32a1.47,1.47,0,0,0,.07-.34V228a3.77,3.77,0,0,1,.44-2,2.19,2.19,0,0,1,2-.92,1.82,1.82,0,0,1,1.74.88,5.29,5.29,0,0,1,.34,2.33v1.65c0,.4,0,.66,0,.8q0,1.1-.53,1.1a.91.91,0,0,1-.29-.05,1.43,1.43,0,0,0-.44-.08.62.62,0,0,0-.42.15.47.47,0,0,0-.18.37.57.57,0,0,0,.2.45.74.74,0,0,0,.51.18q.17,0,.88-.1a5.18,5.18,0,0,1,.68,0,10.22,10.22,0,0,1,1.16.08,5.88,5.88,0,0,0,.65.05q.82,0,.82-.58t-.63-.58l-.27,0a1.23,1.23,0,0,1-.39.1q-.37,0-.44-.85,0-.1,0-1.1V227a2.87,2.87,0,0,0-.89-2.19,3.73,3.73,0,0,0-3.68-.59,4.59,4.59,0,0,0-1.25.89l.07-3.31Zm-6,10.1q-1.19,0-1.19-1.78v-4.18c0-.24.08-.36.24-.36h1.87q.7,0,.7-.63t-.65-.6H65.29c-.2,0-.31-.08-.31-.25v-1.82q0-.64-.61-.65a.58.58,0,0,0-.66.65V224q0,.32-.29.32h-.66a.54.54,0,0,0-.4.19.6.6,0,0,0-.18.42.59.59,0,0,0,.18.43.63.63,0,0,0,.46.18h.56c.22,0,.33.12.33.36V230a4,4,0,0,0,.42,2.14,2.13,2.13,0,0,0,1.92.87,2.33,2.33,0,0,0,2.11-1,5.07,5.07,0,0,0,.47-2.58q0-.78-.59-.78t-.61.7v1.09Q67.38,231.9,66.17,231.9Zm-8.3-.55a2.5,2.5,0,0,1-1.79.62,2,2,0,0,1-1.27-.37,1.24,1.24,0,0,1-.47-1q0-1.24,1.93-1.43a7.83,7.83,0,0,0,1.48-.24,2.18,2.18,0,0,0,.79-.48v1.21A2.3,2.3,0,0,1,57.87,231.35Zm4.29,0v-1.05q0-.82-.55-.82t-.52.54v.83q0,1.08-.59,1.08t-.58-.59a7.25,7.25,0,0,1,0-1V227q0-3-3.09-3a3.81,3.81,0,0,0-2.29.68,2,2,0,0,0-.94,1.63,1,1,0,0,0,.3.75,1,1,0,0,0,.74.31.9.9,0,0,0,.62-.22.72.72,0,0,0,.25-.56.66.66,0,0,0-.24-.58c-.1-.07-.15-.12-.15-.17s.08-.24.25-.36a2.6,2.6,0,0,1,1.43-.43,2.07,2.07,0,0,1,1.35.4,1.35,1.35,0,0,1,.48,1.1,1.09,1.09,0,0,1-.43,1,5.12,5.12,0,0,1-1.86.43q-1,.12-1.33.2a3.16,3.16,0,0,0-.79.33A2.21,2.21,0,0,0,53,230.59a2.23,2.23,0,0,0,.83,1.82,3.35,3.35,0,0,0,2.2.68,3.06,3.06,0,0,0,2.72-1.28A1.57,1.57,0,0,0,60.42,233,1.51,1.51,0,0,0,62.16,231.39Zm-15.69-5.57a2.56,2.56,0,0,1,1.73-.69,2.22,2.22,0,0,1,1.6.66,2.11,2.11,0,0,1,.68,1.56q0,.24-.36.24H46.06q-.37,0-.37-.24A2,2,0,0,1,46.47,225.82Zm4.35-.74A3.51,3.51,0,0,0,48.19,224a3.69,3.69,0,0,0-2.92,1.29,5,5,0,0,0-1.12,3.37,4.7,4.7,0,0,0,1.05,3.22,3.59,3.59,0,0,0,2.84,1.2,4.09,4.09,0,0,0,2.55-.86,2.46,2.46,0,0,0,1.12-2,.56.56,0,0,0-.63-.65.53.53,0,0,0-.56.41l-.15.49a1.86,1.86,0,0,1-.81,1,2.43,2.43,0,0,1-1.37.41,2.46,2.46,0,0,1-1.9-.85,3.06,3.06,0,0,1-.76-2.12.25.25,0,0,1,.07-.2.48.48,0,0,1,.29-.06h5.41q.41,0,.49-.14a2.1,2.1,0,0,0,.08-.79A3.75,3.75,0,0,0,50.82,225.08Zm-16.71-1.34q0-1.28.85-1.28l.37,0a2.94,2.94,0,0,0,.46,0,.5.5,0,0,0,.37-.16.55.55,0,0,0,.15-.39q0-.6-.75-.6a8.06,8.06,0,0,0-1,.1,8.22,8.22,0,0,1-1.06.1,8.83,8.83,0,0,1-1.58-.12,4.58,4.58,0,0,0-.63-.08q-.78,0-.78.6a.55.55,0,0,0,.16.39.51.51,0,0,0,.38.17,2.28,2.28,0,0,0,.44-.05,2.12,2.12,0,0,1,.37-.05q.87,0,.87,1.27v6.82q0,1.27-.87,1.27a1.62,1.62,0,0,1-.36,0l-.46,0a.51.51,0,0,0-.38.17.54.54,0,0,0-.16.38q0,.6.78.6l.22,0,.41-.07a9.33,9.33,0,0,1,1.53-.14,8.82,8.82,0,0,1,1.43.14c.41.07.65.1.73.1q.75,0,.75-.61a.47.47,0,0,0-.53-.54l-.42,0-.42,0q-.71,0-.85-.93,0-.12,0-1.53v-1.94h5.44v1.92q0,1.41,0,1.53-.14.94-.85.94l-.41,0-.41,0a.48.48,0,0,0-.54.55q0,.6.75.6l.82-.12a10.44,10.44,0,0,1,1.58-.1,6.61,6.61,0,0,1,1.29.12,4.53,4.53,0,0,0,.66.1q.75,0,.75-.61a.47.47,0,0,0-.53-.54l-.42,0-.42,0q-.85,0-.85-1.27v-6.78q0-1.27.87-1.28l.41,0,.41,0q.53,0,.53-.55t-.75-.6a5.24,5.24,0,0,0-.65.08,10.39,10.39,0,0,1-1.7.14,6.67,6.67,0,0,1-1.16-.11,6.1,6.1,0,0,0-.87-.11q-.73,0-.73.6a.48.48,0,0,0,.54.55,3.47,3.47,0,0,0,.45,0l.37,0q.87,0,.87,1.28v2.5H34.09Z"/><path class="cls-1" d="M84,222q.65,0,.65.44t-.75.49h-.46l0,0v-.71C83.43,222,83.62,222,84,222Zm.07-.51-.34,0h-.36l-.34,0h-.24l-.24,0h-.08q-.32,0-.32.26a.23.23,0,0,0,.25.26l.15,0,.08,0,.1,0,0,.05,0,.19v2q0,.25-.15.25h-.24a.23.23,0,0,0-.25.26c0,.18.1.26.31.26l.1,0,.24,0,.17,0,.15,0h.12l.14,0,.25,0,.09,0q.32,0,.32-.28a.22.22,0,0,0-.25-.25h-.24c-.09,0-.14-.09-.14-.27v-.71l.05,0h.44a.94.94,0,0,1,.42.07c.08,0,.12.17.12.36v.44a.6.6,0,0,0,.67.68.62.62,0,0,0,.71-.7v-.58a.26.26,0,0,0-.29-.29c-.18,0-.27.13-.27.37v.34q0,.32-.11.32c-.07,0-.11-.08-.11-.24v-.31a.86.86,0,0,0-.27-.73.77.77,0,0,0,.49-.78Q85.28,221.45,84.09,221.45Zm-2.21,3.88a2.88,2.88,0,1,1,2,.85A2.78,2.78,0,0,1,81.88,225.32Zm-.36-4.45a3.4,3.4,0,1,0,2.4-1A3.27,3.27,0,0,0,81.52,220.88Z"/><path class="cls-1" d="M206,224.15a5.87,5.87,0,0,1-.59,1,.7.7,0,0,0-.19.37q0,.34.32.34c.18,0,.41-.18.68-.53a4.62,4.62,0,0,0,1.07-2.79,1.84,1.84,0,0,0-.38-1.2,1.21,1.21,0,0,0-1-.47,1.18,1.18,0,0,0-.85.33,1.07,1.07,0,0,0-.34.81,1,1,0,0,0,.26.71.86.86,0,0,0,.62.32h.34q.31,0,.31.29A2.21,2.21,0,0,1,206,224.15Zm-3.08,0a5.23,5.23,0,0,1-.61,1,.7.7,0,0,0-.19.37.3.3,0,0,0,.34.34q.29,0,.68-.53a4.61,4.61,0,0,0,1.05-2.79,1.84,1.84,0,0,0-.38-1.2,1.24,1.24,0,0,0-1.81-.14,1.07,1.07,0,0,0-.34.81,1,1,0,0,0,.26.71.84.84,0,0,0,.6.32h.34c.21,0,.32.11.32.29A2.2,2.2,0,0,1,202.9,224.15Zm-6.32,5.22q0,.85.61.85l.25,0q.29-.05.36-.53c0-.09,0-.33,0-.73v-3.2l.08-1.84q0-1.41.05-1.5a3,3,0,0,0,0-.34q0-1-.73-1t-.71.92a2.78,2.78,0,0,0,0,.32q0,.88,0,1.58v5.46Zm1.39,3.41a1.07,1.07,0,0,0-.76-1.83,1,1,0,0,0-.75.31,1.09,1.09,0,0,0,0,1.51,1,1,0,0,0,.75.31A1,1,0,0,0,198,232.78Zm-11.82-11q0-.56-.39-.56l-.39,0a3,3,0,0,1-.42,0,6.72,6.72,0,0,1-.7,0l-.58-.05a.75.75,0,0,0-.49.17.51.51,0,0,0-.2.41c0,.36.19.54.58.54a1.89,1.89,0,0,0,.37-.05,1.85,1.85,0,0,1,.36-.05q.37,0,.48.67a29.32,29.32,0,0,1,.1,3.22v3a15.57,15.57,0,0,1-.11,2.12q-.1.52-.37.52a2,2,0,0,1-.42-.07.83.83,0,0,0-.33,0q-.66,0-.66.53t.7.63l.87-.07q.51-.05.8-.05a11,11,0,0,1,1.11.07c.32,0,.56.05.72.05q.75,0,.75-.61a.49.49,0,0,0-.56-.54,1.46,1.46,0,0,0-.38.08,1.49,1.49,0,0,1-.39.08q-.42,0-.51-.83,0-.15,0-1.12v-.32a1.47,1.47,0,0,0,.07-.34V228a3.77,3.77,0,0,1,.44-2,2.19,2.19,0,0,1,2-.92,1.82,1.82,0,0,1,1.74.88,5.29,5.29,0,0,1,.34,2.33v1.65c0,.4,0,.66,0,.8q0,1.1-.53,1.1a.91.91,0,0,1-.29-.05,1.43,1.43,0,0,0-.44-.08.62.62,0,0,0-.42.15.47.47,0,0,0-.18.37.57.57,0,0,0,.2.45.74.74,0,0,0,.51.18q.17,0,.88-.1a5.18,5.18,0,0,1,.68,0,10.22,10.22,0,0,1,1.16.08,5.88,5.88,0,0,0,.65.05q.82,0,.82-.58t-.63-.58l-.27,0a1.23,1.23,0,0,1-.39.1q-.37,0-.44-.85,0-.1,0-1.1V227a2.87,2.87,0,0,0-.89-2.19,3.73,3.73,0,0,0-3.68-.59,4.59,4.59,0,0,0-1.25.89l.07-3.31Zm-5.87,6a1,1,0,0,0,.71.26,1.12,1.12,0,0,0,.89-.41,1.54,1.54,0,0,0,.35-1,2.33,2.33,0,0,0-.9-1.88A3.44,3.44,0,0,0,179,224a3.66,3.66,0,0,0-2.92,1.27,5,5,0,0,0-1.1,3.37,4.73,4.73,0,0,0,1.06,3.21,3.52,3.52,0,0,0,2.8,1.22,3.4,3.4,0,0,0,2.6-1.07,3.53,3.53,0,0,0,.65-1,2.54,2.54,0,0,0,.27-1,.64.64,0,0,0-.66-.66.59.59,0,0,0-.54.34q0,.09-.2.68a2.14,2.14,0,0,1-.76,1.17,2.07,2.07,0,0,1-1.3.42,2.18,2.18,0,0,1-1.86-.91,4.14,4.14,0,0,1-.67-2.51,4,4,0,0,1,.71-2.48,2.26,2.26,0,0,1,1.89-.93,2.13,2.13,0,0,1,1.25.34,1.32,1.32,0,0,1,.57.94q-.85.1-.85.78A.81.81,0,0,0,180.26,227.82Zm-13.95-3.52-.46,0a2.35,2.35,0,0,1-.48,0l-.63-.07-.17,0q-.76,0-.76.56c0,.36.21.54.62.54l.35,0,.36,0a.4.4,0,0,1,.39.21,2.18,2.18,0,0,1,.15.79v4.54q0,1-.54,1a2.13,2.13,0,0,1-.46-.05l-.32-.05a.48.48,0,0,0-.55.54q0,.58.71.58l.85-.08a8.68,8.68,0,0,1,1-.07,6.18,6.18,0,0,1,.83.05q.75.1.88.1.68,0,.68-.55t-.53-.57a1.67,1.67,0,0,0-.39.06,1.68,1.68,0,0,1-.37.06.37.37,0,0,1-.37-.27,3.39,3.39,0,0,1-.1-1v-2.26a4.59,4.59,0,0,1,.41-2.26,2.11,2.11,0,0,1,1.95-1,2.16,2.16,0,0,1,1.27.39,1.64,1.64,0,0,1,.66,1,6,6,0,0,1,.08,1.24v3.2q0,.93-.45.93l-.42-.07a1.57,1.57,0,0,0-.31,0q-.59,0-.59.53t.68.6l.9-.1a6.51,6.51,0,0,1,.73,0,8.32,8.32,0,0,1,1,.07,7.34,7.34,0,0,0,.78.07.75.75,0,0,0,.49-.17.53.53,0,0,0,.2-.43.5.5,0,0,0-.16-.37.54.54,0,0,0-.38-.15l-.35,0a2.47,2.47,0,0,1-.4,0c-.25,0-.4-.19-.46-.58q0-.14,0-.87v-3.23a4,4,0,0,0-.24-1.51,2.45,2.45,0,0,0-1.11-1.16,3.44,3.44,0,0,0-1.73-.47,3.29,3.29,0,0,0-2.72,1.29v-.48Q166.81,224.3,166.32,224.3Zm-5.2,8.57a1.49,1.49,0,0,0,.36-.05l.36,0,.53.05.44,0q.71,0,.71-.58a.5.5,0,0,0-.58-.56,2,2,0,0,0-.34,0,1.94,1.94,0,0,1-.34,0q-.39,0-.48-.9,0-.12,0-1.16v-2.62a15.87,15.87,0,0,1,.08-1.91,1.63,1.63,0,0,0,0-.37c0-.36-.17-.54-.51-.54l-.41,0-.41,0-.47,0-.47,0q-.66,0-.66.58t.6.51h.51c.24,0,.38.27.44.82v2a7.69,7.69,0,0,1-.27,2.52,1.79,1.79,0,0,1-.78.88,2.49,2.49,0,0,1-1.29.33,1.75,1.75,0,0,1-1.87-1.07,6.76,6.76,0,0,1-.24-2.12v-1.1l.05-1.26v-1.46q0-.65-.53-.65l-.29,0a4.48,4.48,0,0,1-.53.05l-.5,0-.5,0q-.73,0-.73.54c0,.37.2.55.6.55l.34,0,.33,0q.5,0,.5,2.33v1.41q0,1.14,0,1.5a2.59,2.59,0,0,0,.37,1.27,3,3,0,0,0,2.79,1.24,3.09,3.09,0,0,0,2.67-1.24v.53Q160.64,232.87,161.11,232.87Zm-14-8.57a1.09,1.09,0,0,0-.32,0l-.44,0-.51,0-.51,0q-.73,0-.73.59a.49.49,0,0,0,.56.54,1.89,1.89,0,0,0,.37-.05,1.88,1.88,0,0,1,.37-.05q.46,0,.51,1l.05,3.86v.87q0,.78-.46.78l-.24,0-.26-.05-.26,0q-.65,0-.65.53c0,.4.23.6.69.6l.95-.08c.26,0,.62,0,1.07,0a7.32,7.32,0,0,1,.77.06,7.59,7.59,0,0,0,.77.06h.07q.69,0,.69-.59a.48.48,0,0,0-.54-.54,1.45,1.45,0,0,0-.32,0,2,2,0,0,1-.46.06q-.44,0-.53-1,0-.14,0-1.28v-1.12a6.73,6.73,0,0,1,.27-2.21,1.72,1.72,0,0,1,1.77-1.19,1.7,1.7,0,0,1,1.08.34,1,1,0,0,1,.43.83.85.85,0,0,1-.1.37l-.22-.05a.64.64,0,0,0-.48.21.68.68,0,0,0-.2.48.74.74,0,0,0,.27.58,1,1,0,0,0,.66.24,1.2,1.2,0,0,0,1-.47,1.89,1.89,0,0,0,.37-1.21,2.22,2.22,0,0,0-.74-1.73,3,3,0,0,0-4.29.57v-.47C147.55,224.46,147.4,224.3,147.11,224.3Zm-10-2.35q0-.7-.55-.7h-.12l-.38,0-.4,0-.56-.05-.48,0q-.67,0-.67.58c0,.35.19.53.57.53a1.41,1.41,0,0,0,.48-.08l.33,0a.35.35,0,0,1,.36.25,5.21,5.21,0,0,1,.12,1.16v6.87l-.05.66q-.05.65-.46.65l-.37-.05a1.78,1.78,0,0,0-.32,0q-.65,0-.65.56t.66.56a8.28,8.28,0,0,0,.87-.08,6.83,6.83,0,0,1,.9-.07,7.51,7.51,0,0,1,.89.08,7.31,7.31,0,0,0,.88.08q.65,0,.65-.56a.5.5,0,0,0-.58-.56,1.57,1.57,0,0,0-.32,0l-.29,0q-.39,0-.48-.59c0-.07,0-.37,0-.92v-.39l1.26-1.12q.19-.17.25-.17c.07,0,.16.07.27.22l1.7,2.26.22.32.17.24,0,0v.05c0,.08-.05.12-.15.12a2,2,0,0,1-.39-.08l-.27,0c-.41,0-.61.18-.61.54s.21.58.65.58a6.67,6.67,0,0,0,.77-.07,6.69,6.69,0,0,1,.79-.07,9,9,0,0,1,.91.07,9,9,0,0,0,.91.07q.78,0,.78-.58c0-.36-.2-.54-.61-.54a1.56,1.56,0,0,0-.31,0l-.28,0q-.36,0-1.19-1.07l-2.18-2.82a.5.5,0,0,1-.14-.25c0-.07.06-.16.19-.27l1.78-1.63a1.34,1.34,0,0,1,.88-.42,2.43,2.43,0,0,1,.38,0,2.4,2.4,0,0,0,.38,0c.38,0,.58-.18.58-.55s-.28-.59-.83-.59l-.39,0-.7.1a4.06,4.06,0,0,1-.58,0,16.75,16.75,0,0,1-1.79-.14l-.48,0q-.75,0-.75.59c0,.36.2.54.59.54a2.63,2.63,0,0,0,.49-.07,2.56,2.56,0,0,1,.49-.07c.15,0,.22.06.22.17a.4.4,0,0,1-.15.31l-2.91,2.72Zm-8.52.62a5.28,5.28,0,0,1,.61-1,.71.71,0,0,0,.19-.38c0-.23-.11-.34-.32-.34s-.42.18-.68.53a4.67,4.67,0,0,0-1.07,2.79,1.83,1.83,0,0,0,.38,1.2,1.2,1.2,0,0,0,1,.47,1.18,1.18,0,0,0,.85-.32,1.06,1.06,0,0,0,.34-.8,1,1,0,0,0-.26-.7.85.85,0,0,0-.62-.32h-.34q-.32,0-.32-.29A2.23,2.23,0,0,1,128.59,222.58Zm2.92.39a5.22,5.22,0,0,1,.76-1.39.7.7,0,0,0,.19-.38q0-.34-.32-.34t-.68.53a4.67,4.67,0,0,0-1.07,2.79,1.83,1.83,0,0,0,.38,1.2,1.21,1.21,0,0,0,1,.47,1.19,1.19,0,0,0,.85-.32,1.06,1.06,0,0,0,.34-.8,1,1,0,0,0-.26-.7.84.84,0,0,0-.6-.32h-.34q-.32,0-.32-.29A1.34,1.34,0,0,1,131.52,223Zm-15,1.33a1.09,1.09,0,0,0-.32,0l-.44,0-.51,0-.51,0q-.73,0-.73.59a.49.49,0,0,0,.56.54,1.89,1.89,0,0,0,.37-.05,1.88,1.88,0,0,1,.37-.05q.46,0,.51,1l.05,3.86v.87q0,.78-.46.78l-.24,0-.26-.05-.26,0q-.65,0-.65.53c0,.4.23.6.69.6l.95-.08c.26,0,.62,0,1.07,0a7.32,7.32,0,0,1,.77.06,7.59,7.59,0,0,0,.77.06h.07q.69,0,.69-.59a.48.48,0,0,0-.54-.54,1.45,1.45,0,0,0-.32,0,2,2,0,0,1-.46.06q-.44,0-.53-1,0-.14,0-1.28v-1.12a6.73,6.73,0,0,1,.27-2.21,1.72,1.72,0,0,1,1.77-1.19,1.7,1.7,0,0,1,1.08.34,1,1,0,0,1,.43.83.85.85,0,0,1-.1.37l-.22-.05a.64.64,0,0,0-.48.21.68.68,0,0,0-.2.48.74.74,0,0,0,.27.58,1,1,0,0,0,.66.24,1.2,1.2,0,0,0,1-.47,1.89,1.89,0,0,0,.37-1.21,2.22,2.22,0,0,0-.74-1.73,3,3,0,0,0-4.29.57v-.47C117,224.46,116.85,224.3,116.56,224.3Zm-7,7a2.5,2.5,0,0,1-1.79.62,2,2,0,0,1-1.27-.37,1.24,1.24,0,0,1-.47-1q0-1.24,1.93-1.43a7.83,7.83,0,0,0,1.48-.24,2.18,2.18,0,0,0,.79-.48v1.21A2.3,2.3,0,0,1,109.6,231.35Zm4.29,0v-1.05q0-.82-.55-.82t-.52.54v.83q0,1.08-.59,1.08t-.58-.59a7.25,7.25,0,0,1,0-1V227q0-3-3.09-3a3.81,3.81,0,0,0-2.29.68,2,2,0,0,0-.94,1.63,1,1,0,0,0,.3.75,1,1,0,0,0,.74.31.9.9,0,0,0,.62-.22.72.72,0,0,0,.25-.56A.66.66,0,0,0,107,226c-.1-.07-.15-.12-.15-.17s.08-.24.25-.36a2.6,2.6,0,0,1,1.43-.43,2.07,2.07,0,0,1,1.35.4,1.35,1.35,0,0,1,.48,1.1,1.09,1.09,0,0,1-.43,1A5.12,5.12,0,0,1,108,228q-1,.12-1.33.2a3.16,3.16,0,0,0-.79.33,2.21,2.21,0,0,0-1.21,2.07,2.23,2.23,0,0,0,.83,1.82,3.35,3.35,0,0,0,2.2.68,3.06,3.06,0,0,0,2.72-1.28,1.57,1.57,0,0,0,1.72,1.21A1.51,1.51,0,0,0,113.89,231.39Zm-17.58-3.74q.14-.41,1.05-.41h1.41q3.06,0,3.06,2.19,0,2.38-3.18,2.38a4.7,4.7,0,0,1-2-.25q-.37-.25-.37-1.36v-1.89A2.33,2.33,0,0,1,96.31,227.65Zm-.07-3.84q0-.92.4-1.14a5.89,5.89,0,0,1,2.13-.22q2.48,0,2.48,1.78,0,2-3,2h-1q-.73,0-.89-.21a2.28,2.28,0,0,1-.16-1.11Zm5.55-1.69a4.37,4.37,0,0,0-2.68-.72q-.92,0-1.72.07-1.19.1-1.84.1a7.19,7.19,0,0,1-1-.05l-.83-.12h-.22q-.78,0-.78.6a.47.47,0,0,0,.53.54,3.08,3.08,0,0,0,.46-.05l.36,0q.87,0,.87,1.27v6.83q0,1.26-.87,1.26l-.36,0a3.41,3.41,0,0,0-.46-.05.47.47,0,0,0-.53.54c0,.4.24.6.73.61h.12l.12,0,.8-.1a7,7,0,0,1,.87-.05q.53,0,1.65.08t1.85.08a5.17,5.17,0,0,0,3.23-.93,3,3,0,0,0,1.21-2.49,2.6,2.6,0,0,0-1.38-2.4,5.52,5.52,0,0,0-1.17-.49,2.53,2.53,0,0,0,2-2.45A2.38,2.38,0,0,0,101.79,222.12Z"/></g></g></svg>