<svg xmlns="http://www.w3.org/2000/svg" viewBox="0 0 273 273"><defs><style>.cls-1{fill:#fff;}.cls-2{fill:#231f20;}.cls-3{fill:#f2ebe2;}.cls-4{fill:#ce2028;}.cls-5{fill:#82602e;}.cls-6{fill:#b59158;}.cls-7{fill:#f9d740;}</style></defs><title>mango</title><g id="Layer_2" data-name="Layer 2"><g id="Layer_1-2" data-name="Layer 1"><rect class="cls-1" width="273" height="273"/><path class="cls-2" d="M241.35,34.85q0,3.89-2.51,3.89a2.2,2.2,0,0,1-1.93-1,5.1,5.1,0,0,1-.69-2.86,5.11,5.11,0,0,1,.69-2.85,2.14,2.14,0,0,1,1.88-1Q241.35,31,241.35,34.85Zm2.55,5.26a7.65,7.65,0,0,0,1.8-5.4,7.1,7.1,0,0,0-1.85-5.18,6.76,6.76,0,0,0-5.06-1.89,6.67,6.67,0,0,0-5.08,1.9,7.39,7.39,0,0,0-1.81,5.31,7.35,7.35,0,0,0,1.82,5.32,6.85,6.85,0,0,0,5.17,1.89A6.48,6.48,0,0,0,243.9,40.11Zm-19.75,1.11.73,0q2.11,0,2.11,1.16,0,1.43-3.21,1.43t-3.19-1.43q0-.76,1.22-1.24a15.07,15.07,0,0,0,1.62.11ZM225.22,31a1.75,1.75,0,0,1,.5,1.27,1.72,1.72,0,0,1-.5,1.24,1.79,1.79,0,0,1-2.51,0,1.75,1.75,0,0,1-.5-1.27A1.71,1.71,0,0,1,224,30.48,1.68,1.68,0,0,1,225.22,31Zm-5.51-2.07a3.89,3.89,0,0,0-1.63,3.17,3.47,3.47,0,0,0,1,2.38,4.37,4.37,0,0,0-1.69,1.15,2.64,2.64,0,0,0-.47,1.66,2.33,2.33,0,0,0,2.16,2.46q-2.73.84-2.73,3a3.63,3.63,0,0,0,2,3.2,9.86,9.86,0,0,0,5.2,1.2,10.28,10.28,0,0,0,5.72-1.39A4.33,4.33,0,0,0,231.31,42a3.4,3.4,0,0,0-1.4-2.92,6.57,6.57,0,0,0-4-1l-1.73,0h-.3a14.27,14.27,0,0,1-2-.08q-1.3-.22-1.3-1.13a.91.91,0,0,1,.41-.7l.13.05a7.45,7.45,0,0,0,2.89.62,6.62,6.62,0,0,0,4.23-1.27,4.06,4.06,0,0,0,1.61-3.35,3.58,3.58,0,0,0-2.59-3.67,1,1,0,0,1,0-.27q0-.78.57-.78a.37.37,0,0,1,.35.19l.27.43a1.21,1.21,0,0,0,1.11.57,1.5,1.5,0,0,0,1.12-.46,1.57,1.57,0,0,0,.45-1.13,2,2,0,0,0-.85-1.65,3.39,3.39,0,0,0-2.12-.65,3.64,3.64,0,0,0-2.46.77,2.76,2.76,0,0,0-.92,2.15l-1-.05A6.34,6.34,0,0,0,219.71,28.92ZM203.36,28l-.86.11a9.31,9.31,0,0,1-1.11.11,3.58,3.58,0,0,1-.7-.08,6.39,6.39,0,0,0-.92-.13,1.48,1.48,0,0,0-1.17.51,2,2,0,0,0-.45,1.32q0,1.49,1.3,1.49a1.77,1.77,0,0,0,.47-.09,1.83,1.83,0,0,1,.42-.09q.46,0,.46,1.54v4.37q0,1.51-.46,1.51a1.39,1.39,0,0,1-.41-.09,1.47,1.47,0,0,0-.49-.09q-1.3,0-1.3,1.51,0,1.81,1.7,1.81a14.35,14.35,0,0,0,1.44-.11,14.31,14.31,0,0,1,1.44-.11,12.34,12.34,0,0,1,1.49.14,7.65,7.65,0,0,0,1,.08q1.43,0,1.43-1.7,0-1.32-1-1.46c-.34-.05-.55-.17-.62-.34a5.49,5.49,0,0,1-.11-1.47V33.93a2.68,2.68,0,0,1,.72-1.92,2.4,2.4,0,0,1,1.82-.76,1.51,1.51,0,0,1,1.38.63,4.34,4.34,0,0,1,.41,2.2v3.78q0,.62-.73.67-1.11.08-1.11,1.51A1.43,1.43,0,0,0,209,41.71a9.26,9.26,0,0,0,1.24-.11,10.23,10.23,0,0,1,1.43-.11,11.65,11.65,0,0,1,1.3.11,11.65,11.65,0,0,0,1.3.11q1.62,0,1.62-1.86,0-1.4-1.19-1.4a1.17,1.17,0,0,0-.41.05,1.54,1.54,0,0,1-.41.08q-.54,0-.54-1.38v-4a7.09,7.09,0,0,0-.62-3.4,4.15,4.15,0,0,0-4-2.11,6.09,6.09,0,0,0-4.7,2.43v-1.3Q204.09,28,203.36,28Zm-14.8,10.75q-1.46,0-1.46-1.24,0-.78,1.49-1.16a24.12,24.12,0,0,0,2.38-.67v.59A2.16,2.16,0,0,1,188.57,38.77Zm8.36,2.73a1.72,1.72,0,0,0,.8-1.46,1.47,1.47,0,0,0-1.49-1.48l-.19,0a2.78,2.78,0,0,1-.41,0q-.43,0-.43-.86V32.15q0-2.65-1.54-3.62a8.39,8.39,0,0,0-4.35-.89,9,9,0,0,0-4.24.84,2.55,2.55,0,0,0-1.54,2.29,2.11,2.11,0,0,0,.7,1.62A2.53,2.53,0,0,0,186,33a2.43,2.43,0,0,0,1.58-.51,1.57,1.57,0,0,0,.63-1.27v-.11a2.59,2.59,0,0,1,0-.38q0-.57.89-.57a2,2,0,0,1,1.31.42,1.28,1.28,0,0,1,.53,1,1.4,1.4,0,0,1-.69,1.28,8.24,8.24,0,0,1-2.61.74,17.27,17.27,0,0,0-2.43.59A3.49,3.49,0,0,0,182.76,38a3.78,3.78,0,0,0,1.27,3,5,5,0,0,0,3.4,1.12,6.31,6.31,0,0,0,4.48-1.78,2.91,2.91,0,0,0,3,1.78A3.44,3.44,0,0,0,196.93,41.49Zm-16.36-14a1.82,1.82,0,0,0,1.2.39,2.12,2.12,0,0,0,1.49-.54,1.75,1.75,0,0,0,.59-1.35,2.39,2.39,0,0,0-1.17-2.08,5.53,5.53,0,0,0-3.12-.78,5.89,5.89,0,0,0-3.71,1.08,3.75,3.75,0,0,0-1.47,2.94,1.3,1.3,0,0,1-.16.72.83.83,0,0,1-.59.15h-.49q-1.49,0-1.49,1.57a1.25,1.25,0,0,0,1.43,1.4h.65a.83.83,0,0,1,.35.05q.24.08.24.65v5.37q0,1.51-.49,1.51a1.39,1.39,0,0,1-.38-.09,1.47,1.47,0,0,0-.49-.09q-1.32,0-1.32,1.51a1.86,1.86,0,0,0,.46,1.31,1.57,1.57,0,0,0,1.21.5q.27,0,1.43-.14a16.73,16.73,0,0,1,1.84-.08q1,0,1.57.05l1.65.16a1.53,1.53,0,0,0,1.16-.49,1.74,1.74,0,0,0,.46-1.24q0-1.48-1.27-1.49a2.36,2.36,0,0,0-.62.08l-.49.05q-.49,0-.57-.57a7.34,7.34,0,0,1,0-.95V31.69q0-.7.59-.7h.89a1.32,1.32,0,0,0,1.49-1.51q0-1.46-1.57-1.46H179q-.59,0-.59-.51V27q0-1.27,1.32-1.27a1.31,1.31,0,0,1,.54.11,1.54,1.54,0,0,0-.22.7A1.23,1.23,0,0,0,180.56,27.49Zm-14.43,7.36q0,3.89-2.51,3.89a2.2,2.2,0,0,1-1.93-1,5.1,5.1,0,0,1-.69-2.86,5.11,5.11,0,0,1,.69-2.85,2.14,2.14,0,0,1,1.88-1Q166.13,31,166.13,34.85Zm2.55,5.26a7.65,7.65,0,0,0,1.8-5.4,7.1,7.1,0,0,0-1.85-5.18,6.76,6.76,0,0,0-5.06-1.89,6.67,6.67,0,0,0-5.08,1.9,7.39,7.39,0,0,0-1.81,5.31,7.35,7.35,0,0,0,1.82,5.32,6.85,6.85,0,0,0,5.17,1.89A6.48,6.48,0,0,0,168.68,40.11ZM138.75,23.81a1.18,1.18,0,0,0-.95-.32,12.32,12.32,0,0,0-1.4.11,21,21,0,0,1-2.54.16q-.76,0-2.27-.14t-2.16-.13a1.75,1.75,0,0,0-2,2,1.94,1.94,0,0,0,.42,1.27,1.29,1.29,0,0,0,1,.51,3.16,3.16,0,0,0,.66-.09,3.17,3.17,0,0,1,.63-.09q.54,0,.67.7a6.72,6.72,0,0,1,.05,1.11v7.48a7.31,7.31,0,0,1-.05,1.13q-.13.7-.67.7a3.12,3.12,0,0,1-.63-.09,3.19,3.19,0,0,0-.63-.09,1.33,1.33,0,0,0-1.07.5,1.93,1.93,0,0,0-.42,1.28,2,2,0,0,0,.54,1.43,1.82,1.82,0,0,0,1.38.57l1.67-.22a12.08,12.08,0,0,1,1.54-.08q.73,0,1.3.05l.95.13a7.36,7.36,0,0,0,1,.08,1.66,1.66,0,0,0,1.3-.54,2.1,2.1,0,0,0,.49-1.46q0-1.65-1.08-1.65a.84.84,0,0,0-.24,0h-.16l-.16,0a.42.42,0,0,1-.3-.08q-.24-.16-.24-1.43V26.45L139,39.93q.41,1.54,1.49,1.54h1.73q1.11,0,1.59-1.73l3.75-13.28V36.63c0,.43,0,.74,0,.92-.05.4-.23.59-.51.59l-.13,0h-.19a.84.84,0,0,0-.24,0q-1.11,0-1.11,1.67a2,2,0,0,0,.5,1.43,1.7,1.7,0,0,0,1.31.54,12.32,12.32,0,0,0,1.51-.13,10.14,10.14,0,0,1,3.13,0,15,15,0,0,0,1.73.16,2,2,0,0,0,1.43-.53,2.15,2.15,0,0,0,.11-2.71A1.33,1.33,0,0,0,154,38a3.39,3.39,0,0,0-.65.09,3.31,3.31,0,0,1-.65.09q-.7,0-.7-1.84V28.86q0-1.81.73-1.81a3.36,3.36,0,0,1,.62.09,3.35,3.35,0,0,0,.67.09,1.29,1.29,0,0,0,1-.51,1.94,1.94,0,0,0,.42-1.27,1.92,1.92,0,0,0-.54-1.44,2,2,0,0,0-1.43-.53c-.23,0-.59,0-1.08.05q-2.56.22-3.21.22a17.92,17.92,0,0,1-1.84-.14,18.1,18.1,0,0,0-1.81-.13,1.27,1.27,0,0,0-1,.45,4.43,4.43,0,0,0-.66,1.63L141.51,35l-2.24-9.86A3.64,3.64,0,0,0,138.75,23.81Zm-23.6,11q0,3.89-2.51,3.89a2.2,2.2,0,0,1-1.93-1,5.1,5.1,0,0,1-.69-2.86,5.11,5.11,0,0,1,.69-2.85,2.14,2.14,0,0,1,1.88-1Q115.16,31,115.16,34.85Zm2.55,5.26a7.65,7.65,0,0,0,1.8-5.4,7.1,7.1,0,0,0-1.85-5.18,6.76,6.76,0,0,0-5.06-1.89,6.67,6.67,0,0,0-5.08,1.9,7.39,7.39,0,0,0-1.81,5.31,7.35,7.35,0,0,0,1.82,5.32,6.85,6.85,0,0,0,5.17,1.89A6.48,6.48,0,0,0,117.71,40.11ZM98,41.22l.73,0q2.11,0,2.11,1.16,0,1.43-3.21,1.43t-3.19-1.43q0-.76,1.22-1.24a15.07,15.07,0,0,0,1.62.11ZM99,31a1.75,1.75,0,0,1,.5,1.27A1.72,1.72,0,0,1,99,33.5a1.79,1.79,0,0,1-2.51,0,1.75,1.75,0,0,1-.5-1.27,1.71,1.71,0,0,1,1.75-1.75A1.68,1.68,0,0,1,99,31Zm-5.51-2.07a3.89,3.89,0,0,0-1.63,3.17,3.47,3.47,0,0,0,1,2.38,4.37,4.37,0,0,0-1.69,1.15,2.64,2.64,0,0,0-.47,1.66,2.33,2.33,0,0,0,2.16,2.46q-2.73.84-2.73,3a3.63,3.63,0,0,0,2,3.2,9.86,9.86,0,0,0,5.2,1.2A10.28,10.28,0,0,0,103,45.74,4.33,4.33,0,0,0,105.11,42a3.4,3.4,0,0,0-1.4-2.92,6.57,6.57,0,0,0-4-1l-1.73,0h-.3a14.27,14.27,0,0,1-2-.08q-1.3-.22-1.3-1.13a.91.91,0,0,1,.41-.7l.13.05a7.45,7.45,0,0,0,2.89.62,6.62,6.62,0,0,0,4.23-1.27,4.06,4.06,0,0,0,1.61-3.35,3.58,3.58,0,0,0-2.59-3.67,1,1,0,0,1,0-.27q0-.78.57-.78a.37.37,0,0,1,.35.19l.27.43a1.21,1.21,0,0,0,1.11.57,1.5,1.5,0,0,0,1.12-.46,1.57,1.57,0,0,0,.45-1.13,2,2,0,0,0-.85-1.65,3.39,3.39,0,0,0-2.12-.65,3.64,3.64,0,0,0-2.46.77,2.76,2.76,0,0,0-.92,2.15l-1-.05A6.34,6.34,0,0,0,93.52,28.92ZM77.17,28l-.86.11a9.31,9.31,0,0,1-1.11.11,3.58,3.58,0,0,1-.7-.08,6.39,6.39,0,0,0-.92-.13,1.48,1.48,0,0,0-1.17.51A2,2,0,0,0,72,29.85q0,1.49,1.3,1.49a1.77,1.77,0,0,0,.47-.09,1.83,1.83,0,0,1,.42-.09q.46,0,.46,1.54v4.37q0,1.51-.46,1.51a1.39,1.39,0,0,1-.41-.09,1.47,1.47,0,0,0-.49-.09q-1.3,0-1.3,1.51,0,1.81,1.7,1.81a14.35,14.35,0,0,0,1.44-.11,14.31,14.31,0,0,1,1.44-.11,12.34,12.34,0,0,1,1.49.14,7.65,7.65,0,0,0,1,.08q1.43,0,1.43-1.7,0-1.32-1-1.46c-.34-.05-.55-.17-.62-.34a5.49,5.49,0,0,1-.11-1.47V33.93A2.68,2.68,0,0,1,79.48,32a2.4,2.4,0,0,1,1.82-.76,1.51,1.51,0,0,1,1.38.63,4.34,4.34,0,0,1,.41,2.2v3.78q0,.62-.73.67-1.11.08-1.11,1.51a1.43,1.43,0,0,0,1.59,1.65,9.26,9.26,0,0,0,1.24-.11,10.23,10.23,0,0,1,1.43-.11,11.65,11.65,0,0,1,1.3.11,11.65,11.65,0,0,0,1.3.11q1.62,0,1.62-1.86,0-1.4-1.19-1.4a1.17,1.17,0,0,0-.41.05,1.54,1.54,0,0,1-.41.08q-.54,0-.54-1.38v-4a7.09,7.09,0,0,0-.62-3.4,4.15,4.15,0,0,0-4-2.11,6.09,6.09,0,0,0-4.7,2.43v-1.3Q77.9,28,77.17,28ZM62.37,38.77q-1.46,0-1.46-1.24,0-.78,1.49-1.16a24.12,24.12,0,0,0,2.38-.67v.59A2.16,2.16,0,0,1,62.37,38.77Zm8.36,2.73a1.72,1.72,0,0,0,.8-1.46A1.47,1.47,0,0,0,70,38.55l-.19,0a2.78,2.78,0,0,1-.41,0q-.43,0-.43-.86V32.15q0-2.65-1.54-3.62a8.39,8.39,0,0,0-4.35-.89,9,9,0,0,0-4.24.84,2.55,2.55,0,0,0-1.54,2.29,2.11,2.11,0,0,0,.7,1.62,2.53,2.53,0,0,0,1.78.65,2.43,2.43,0,0,0,1.58-.51A1.57,1.57,0,0,0,62,31.26v-.11a2.59,2.59,0,0,1,0-.38q0-.57.89-.57a2,2,0,0,1,1.31.42,1.28,1.28,0,0,1,.53,1,1.4,1.4,0,0,1-.69,1.28,8.24,8.24,0,0,1-2.61.74,17.27,17.27,0,0,0-2.43.59A3.49,3.49,0,0,0,56.57,38a3.78,3.78,0,0,0,1.27,3,5,5,0,0,0,3.4,1.12,6.31,6.31,0,0,0,4.48-1.78,2.91,2.91,0,0,0,3,1.78A3.44,3.44,0,0,0,70.73,41.49ZM38.61,23.81a1.18,1.18,0,0,0-.95-.32,12.32,12.32,0,0,0-1.4.11,21,21,0,0,1-2.54.16q-.76,0-2.27-.14t-2.16-.13a1.75,1.75,0,0,0-2,2,1.94,1.94,0,0,0,.42,1.27,1.29,1.29,0,0,0,1,.51,3.16,3.16,0,0,0,.66-.09,3.17,3.17,0,0,1,.63-.09q.54,0,.67.7a6.72,6.72,0,0,1,.05,1.11v7.48a7.31,7.31,0,0,1-.05,1.13q-.13.7-.67.7a3.12,3.12,0,0,1-.63-.09,3.19,3.19,0,0,0-.63-.09,1.33,1.33,0,0,0-1.07.5,1.93,1.93,0,0,0-.42,1.28,2,2,0,0,0,.54,1.43,1.82,1.82,0,0,0,1.38.57l1.67-.22a12.08,12.08,0,0,1,1.54-.08q.73,0,1.3.05l.95.13a7.36,7.36,0,0,0,1,.08,1.66,1.66,0,0,0,1.3-.54,2.1,2.1,0,0,0,.49-1.46q0-1.65-1.08-1.65a.84.84,0,0,0-.24,0h-.16l-.16,0a.42.42,0,0,1-.3-.08q-.24-.16-.24-1.43V26.45l3.59,13.47q.41,1.54,1.49,1.54H42q1.11,0,1.59-1.73l3.75-13.28V36.63c0,.43,0,.74,0,.92-.05.4-.23.59-.51.59l-.13,0h-.19a.84.84,0,0,0-.24,0q-1.11,0-1.11,1.67a2,2,0,0,0,.5,1.43,1.7,1.7,0,0,0,1.31.54,12.32,12.32,0,0,0,1.51-.13,10.14,10.14,0,0,1,3.13,0,15,15,0,0,0,1.73.16,2,2,0,0,0,1.43-.53,2.15,2.15,0,0,0,.11-2.71A1.33,1.33,0,0,0,53.84,38a3.39,3.39,0,0,0-.65.09,3.31,3.31,0,0,1-.65.09q-.7,0-.7-1.84V28.86q0-1.81.73-1.81a3.36,3.36,0,0,1,.62.09,3.35,3.35,0,0,0,.67.09,1.29,1.29,0,0,0,1-.51,1.94,1.94,0,0,0,.42-1.27A1.92,1.92,0,0,0,54.78,24a2,2,0,0,0-1.43-.53c-.23,0-.59,0-1.08.05q-2.56.22-3.21.22a17.92,17.92,0,0,1-1.84-.14,18.1,18.1,0,0,0-1.81-.13,1.27,1.27,0,0,0-1,.45,4.43,4.43,0,0,0-.66,1.63L41.37,35l-2.24-9.86A3.64,3.64,0,0,0,38.61,23.81Z"/><circle class="cls-3" cx="136.5" cy="129.64" r="58.87"/><path class="cls-4" d="M135.76,131.52a2.68,2.68,0,0,0-1.68.51,2.69,2.69,0,0,0-4.44,2c-.06,1.49,4.31,6.32,4.31,6.32s4.35-4.5,4.41-6A2.7,2.7,0,0,0,135.76,131.52Z"/><path class="cls-5" d="M151.61,130.19S133,162,129.2,165c0,0-6.41,9.48-7.1-2.16,0,0,1.63-30.66,4-40.44S158.74,127.34,151.61,130.19Z"/><polygon class="cls-6" points="149.54 130.5 148.21 132.61 145.25 127.94 149.54 130.5"/><polygon class="cls-6" points="127 127.72 127.96 121.43 138.2 122.82 135.83 126.96 128.43 128.15 127 127.72"/><polygon class="cls-6" points="146.96 134.92 142.29 127.69 138.42 127.98 130.82 129.72 141.65 139.76 144.04 140.25 146.96 134.92"/><path class="cls-6" d="M138.73,139.4s-7.47-8.08-11.35-8.44l-.71.2-1.24,8.14,1.37,1.47S136.34,139.54,138.73,139.4Z"/><path class="cls-6" d="M141.83,143.69l-.89-1.56s-7.74-.94-12,.57c0,0,6.14,7.62,6.07,9l1.83.15Z"/><path class="cls-6" d="M132.77,151.74s-5.72-8.32-6.47-8.37a2.46,2.46,0,0,0-1.24.21s-1,8.93-.69,9.42S126.5,152,132.77,151.74Z"/><path class="cls-6" d="M134.08,155.66l-.5-1.44a27.18,27.18,0,0,0-9.1,1.34s-1.09,9.18.32,10.55S134.08,155.66,134.08,155.66Z"/><path class="cls-7" d="M119.16,106.88c.8-2.63,4.14-4,8-3.56.05-.2.11-.41.17-.61C130,93.9,140,89.17,149.75,92.13s15.46,12.5,12.78,21.3a15.24,15.24,0,0,1-1.56,3.48c2.84,2.19,4.28,5.34,3.41,8.22-1.24,4.07-6.64,6-12.07,4.38a13.47,13.47,0,0,1-2.87-1.25,9.52,9.52,0,0,1-8.72,1.6,9.67,9.67,0,0,1-4.92-3.41,6.34,6.34,0,0,1-3-3.78,13.64,13.64,0,0,1-5.82-.53c-5-1.52-8.28-5.24-7.35-8.31a3.88,3.88,0,0,1,1.13-1.75C119.32,110.5,118.63,108.6,119.16,106.88Z"/><path class="cls-4" d="M131.65,131.64a3,3,0,0,1,1.86.67,3,3,0,0,1,4.87,2.43c0,1.67-5.18,6.86-5.18,6.86s-4.64-5.28-4.62-7A3,3,0,0,1,131.65,131.64Z"/><path class="cls-4" d="M241.81,204.21a3,3,0,0,1-.68.07,8.22,8.22,0,0,1-.87-.07l-.58-.05a1,1,0,0,0-.78.31,1.16,1.16,0,0,0-.29.83q0,.93.82.93a.87.87,0,0,0,.27,0,1,1,0,0,1,.31-.07q.29,0,.29,1v5.66c0,.64-.1,1-.29,1a1,1,0,0,1-.28-.06,1,1,0,0,0-.28-.06q-.83,0-.83,1a1.17,1.17,0,0,0,.29.83,1,1,0,0,0,.75.31c.12,0,.42,0,.9-.08a6.7,6.7,0,0,1,.8-.05q.44,0,.83,0l1.29.1q1,0,1-1.17,0-.88-.75-.88a.88.88,0,0,0-.27,0,.76.76,0,0,1-.24,0q-.34,0-.34-.85v-8q0-.63-.48-.63A5,5,0,0,0,241.81,204.21Zm-9.1,9.6q-.92,0-.92-.78,0-.49.94-.73a15.42,15.42,0,0,0,1.5-.42v.37A1.36,1.36,0,0,1,232.71,213.81Zm5.26,1.72a1.08,1.08,0,0,0,.5-.92.93.93,0,0,0-.93-.93l-.12,0-.25,0c-.18,0-.27-.18-.27-.54v-3.52a2.48,2.48,0,0,0-1-2.28,5.28,5.28,0,0,0-2.74-.56,5.63,5.63,0,0,0-2.67.53,1.6,1.6,0,0,0-1,1.44,1.33,1.33,0,0,0,.44,1,1.59,1.59,0,0,0,1.12.41,1.53,1.53,0,0,0,1-.32,1,1,0,0,0,.4-.8V209l0-.24q0-.36.56-.36a1.29,1.29,0,0,1,.83.26.81.81,0,0,1,.33.65.88.88,0,0,1-.43.81,5.19,5.19,0,0,1-1.64.47,11,11,0,0,0-1.53.37,2.2,2.2,0,0,0-1.55,2.31,2.38,2.38,0,0,0,.8,1.88,3.12,3.12,0,0,0,2.14.71,4,4,0,0,0,2.82-1.12,1.83,1.83,0,0,0,1.87,1.12A2.16,2.16,0,0,0,238,215.53ZM220.66,207l-.54.07a5.84,5.84,0,0,1-.7.07,2.29,2.29,0,0,1-.44-.05,4,4,0,0,0-.58-.08.93.93,0,0,0-.74.32,1.22,1.22,0,0,0-.28.83q0,.93.82.93a1.11,1.11,0,0,0,.3-.06,1.19,1.19,0,0,1,.26-.06q.29,0,.29,1v2.75c0,.64-.1,1-.29,1a.85.85,0,0,1-.25-.06,1,1,0,0,0-.31-.06q-.82,0-.82,1,0,1.14,1.07,1.14a9,9,0,0,0,.91-.07,9,9,0,0,1,.91-.07,7.74,7.74,0,0,1,.94.08,4.77,4.77,0,0,0,.63.05q.9,0,.9-1.07,0-.83-.61-.92c-.22,0-.35-.1-.39-.21a3.43,3.43,0,0,1-.07-.93v-1.77a1.69,1.69,0,0,1,.45-1.21,1.51,1.51,0,0,1,1.15-.48,1,1,0,0,1,.87.4,2.73,2.73,0,0,1,.25,1.39v2.38c0,.26-.15.4-.46.42q-.7.05-.7,1a.9.9,0,0,0,1,1,5.82,5.82,0,0,0,.78-.07,6.45,6.45,0,0,1,.9-.07,7.36,7.36,0,0,1,.82.07,7.31,7.31,0,0,0,.82.07q1,0,1-1.17,0-.88-.75-.88a.72.72,0,0,0-.25,0,1,1,0,0,1-.26.05q-.34,0-.34-.87v-2.55a4.46,4.46,0,0,0-.39-2.14,2.62,2.62,0,0,0-2.5-1.33,3.83,3.83,0,0,0-3,1.53v-.82Q221.12,207,220.66,207Zm-6.71,4.3q0,2.45-1.58,2.45a1.38,1.38,0,0,1-1.22-.65,3.94,3.94,0,0,1,0-3.6,1.35,1.35,0,0,1,1.18-.65Q213.94,208.9,213.94,211.35Zm1.61,3.32a4.82,4.82,0,0,0,1.13-3.4,4.46,4.46,0,0,0-1.17-3.26,4.25,4.25,0,0,0-3.19-1.19,4.2,4.2,0,0,0-3.2,1.2,5.47,5.47,0,0,0,0,6.69,4.31,4.31,0,0,0,3.26,1.19A4.08,4.08,0,0,0,215.55,214.66Zm-15-7.06a2.73,2.73,0,0,0-.84,2.07,2.7,2.7,0,0,0,.29,1.27,1.81,1.81,0,0,0,.79.81,7.61,7.61,0,0,0,1.71.51l1,.2q1,.2,1,.73,0,.77-1.22.77a2.25,2.25,0,0,1-1.05-.2,2.56,2.56,0,0,1-.78-.83,1.76,1.76,0,0,0-.51-.53,1.43,1.43,0,0,0-.7-.14q-1,0-1,.77c0,.1,0,.25,0,.46s0,.36,0,.46,0,.29,0,.53,0,.41,0,.53q0,.75.92.75a.74.74,0,0,0,.85-.83,4.32,4.32,0,0,0,2.72,1,3.65,3.65,0,0,0,2.49-.87,2.75,2.75,0,0,0,1-2.16,2.44,2.44,0,0,0-.42-1.43,2.25,2.25,0,0,0-.88-.73,7.06,7.06,0,0,0-1.66-.46,9.83,9.83,0,0,1-1.7-.38.51.51,0,0,1-.32-.5q0-.68,1-.68a1.71,1.71,0,0,1,1.41.78,1.38,1.38,0,0,0,1.12.65.8.8,0,0,0,.9-.9v-.46q0-.22,0-.27a3.62,3.62,0,0,1,.05-.58,1.78,1.78,0,0,0,.07-.46q0-.61-.87-.61t-.92.71a3.39,3.39,0,0,0-2.21-.73A3.07,3.07,0,0,0,200.5,207.61Zm-7.42,6.21q-.92,0-.92-.78,0-.49.94-.73a15.42,15.42,0,0,0,1.5-.42v.37A1.36,1.36,0,0,1,193.08,213.81Zm5.26,1.72a1.08,1.08,0,0,0,.5-.92.93.93,0,0,0-.93-.93l-.12,0-.25,0c-.18,0-.27-.18-.27-.54v-3.52a2.48,2.48,0,0,0-1-2.28,5.28,5.28,0,0,0-2.74-.56,5.63,5.63,0,0,0-2.67.53,1.6,1.6,0,0,0-1,1.44,1.33,1.33,0,0,0,.44,1,1.59,1.59,0,0,0,1.12.41,1.53,1.53,0,0,0,1-.32,1,1,0,0,0,.4-.8V209l0-.24q0-.36.56-.36a1.29,1.29,0,0,1,.83.26.81.81,0,0,1,.33.65.88.88,0,0,1-.43.81,5.19,5.19,0,0,1-1.64.47A11,11,0,0,0,191,211a2.2,2.2,0,0,0-1.55,2.31,2.38,2.38,0,0,0,.8,1.88,3.12,3.12,0,0,0,2.14.71,4,4,0,0,0,2.82-1.12,1.83,1.83,0,0,0,1.87,1.12A2.16,2.16,0,0,0,198.34,215.53Zm-15.05-6.37a1.35,1.35,0,0,1,1.1-.53,1.38,1.38,0,0,1,.92.33,1,1,0,0,1,.39.77.3.3,0,0,1-.06.21.51.51,0,0,1-.31.06h-1.9c-.2,0-.32,0-.36-.07l-.05-.17A1,1,0,0,1,183.29,209.16Zm4.05-1.31a4,4,0,0,0-2.88-1,4.12,4.12,0,0,0-3.14,1.27,4.64,4.64,0,0,0-1.2,3.32,4.45,4.45,0,0,0,1.21,3.26,4.33,4.33,0,0,0,3.23,1.22,4.79,4.79,0,0,0,2.63-.69,2,2,0,0,0,1.08-1.67,1,1,0,0,0-.31-.73,1.17,1.17,0,0,0-.82-.29A1.52,1.52,0,0,0,186,213a2.1,2.1,0,0,1-1.46.78,1.54,1.54,0,0,1-1.16-.48,1.65,1.65,0,0,1-.46-1.19c0-.16,0-.26.08-.3a.74.74,0,0,1,.38-.06h4.15a.84.84,0,0,0,.71-.24,1.73,1.73,0,0,0,.18-1A3.66,3.66,0,0,0,187.35,207.85Zm-16.18-2.92a3.32,3.32,0,0,0-1,2.54,2.92,2.92,0,0,0,1.22,2.46,3.8,3.8,0,0,0,1.36.66l1.12.27a7,7,0,0,1,1.79.59.93.93,0,0,1,.37.84,1.08,1.08,0,0,1-.42.88,1.77,1.77,0,0,1-1.14.34q-1.75,0-1.94-1.27a1.92,1.92,0,0,0-.4-1,1.28,1.28,0,0,0-.93-.28,1.51,1.51,0,0,0-.94.28.87.87,0,0,0-.37.72q0,.19,0,.58t0,.58a7.38,7.38,0,0,1-.07.83,6.13,6.13,0,0,0-.05.76,1,1,0,0,0,1.1,1.09.9.9,0,0,0,1-1,4.66,4.66,0,0,0,2.91,1.09,4.21,4.21,0,0,0,3-1.1A3.68,3.68,0,0,0,179,212a2.92,2.92,0,0,0-1-2.31,6.73,6.73,0,0,0-3.11-1.28,6.53,6.53,0,0,1-1.59-.44.76.76,0,0,1-.31-.71q0-1,1.46-1t1.8,1.11l.08.36a1,1,0,0,0,1.16.82q1.16,0,1.16-1v-.08a4.16,4.16,0,0,0,0-.44,4.15,4.15,0,0,1,0-.44c0-.17,0-.42.05-.75s.05-.58.05-.75q0-.92-1.09-.92a1,1,0,0,0-.74.22,1.24,1.24,0,0,0-.23.82,3.46,3.46,0,0,0-2.79-1.21A3.81,3.81,0,0,0,171.16,204.93ZM157,207l-.54.07a5.84,5.84,0,0,1-.7.07,2.29,2.29,0,0,1-.44-.05,4,4,0,0,0-.58-.08.93.93,0,0,0-.74.32,1.22,1.22,0,0,0-.28.83q0,.93.82.93a1.11,1.11,0,0,0,.3-.06,1.19,1.19,0,0,1,.26-.06q.29,0,.29,1v2.75c0,.64-.1,1-.29,1a.85.85,0,0,1-.25-.06,1,1,0,0,0-.31-.06q-.82,0-.82,1,0,1.14,1.07,1.14a9,9,0,0,0,.91-.07,9,9,0,0,1,.91-.07,7.74,7.74,0,0,1,.94.08,4.77,4.77,0,0,0,.63.05q.9,0,.9-1.07,0-.83-.61-.92c-.22,0-.35-.1-.39-.21a3.43,3.43,0,0,1-.07-.93v-1.77a1.69,1.69,0,0,1,.45-1.21,1.51,1.51,0,0,1,1.15-.48,1,1,0,0,1,.87.4,2.73,2.73,0,0,1,.25,1.39v2.38c0,.26-.15.4-.46.42q-.7.05-.7,1a.9.9,0,0,0,1,1,5.82,5.82,0,0,0,.78-.07,6.45,6.45,0,0,1,.9-.07,7.36,7.36,0,0,1,.82.07,7.31,7.31,0,0,0,.82.07q1,0,1-1.17,0-.88-.75-.88a.72.72,0,0,0-.25,0,1,1,0,0,1-.26.05q-.34,0-.34-.87v-2.55a4.46,4.46,0,0,0-.39-2.14,2.62,2.62,0,0,0-2.5-1.33,3.83,3.83,0,0,0-3,1.53v-.82Q157.43,207,157,207Zm-6.71,4.3q0,2.45-1.58,2.45a1.38,1.38,0,0,1-1.22-.65,3.94,3.94,0,0,1,0-3.6,1.35,1.35,0,0,1,1.18-.65Q150.26,208.9,150.26,211.35Zm1.61,3.32a4.82,4.82,0,0,0,1.13-3.4,4.46,4.46,0,0,0-1.17-3.26,4.25,4.25,0,0,0-3.19-1.19,4.2,4.2,0,0,0-3.2,1.2,5.47,5.47,0,0,0,0,6.69,4.31,4.31,0,0,0,3.26,1.19A4.08,4.08,0,0,0,151.87,214.66Zm-10-8.71a1.54,1.54,0,1,0-1.1.45A1.49,1.49,0,0,0,141.89,206Zm-.64,1.16a5.25,5.25,0,0,1-.75.07,7.08,7.08,0,0,1-1-.08A4.12,4.12,0,0,0,139,207a1,1,0,0,0-.76.31,1.17,1.17,0,0,0-.29.82q0,1,.82,1l.27,0,.31-.08q.29,0,.29,1v2.75c0,.64-.1,1-.31,1l-.12,0-.44-.1q-.82,0-.82,1a1.15,1.15,0,0,0,.29.81,1,1,0,0,0,.75.31,8.75,8.75,0,0,0,.88-.07,8.78,8.78,0,0,1,.9-.07,10.26,10.26,0,0,1,1.09.05q.78.08,1,.08,1,0,1-1.17,0-.88-.71-.88a1.33,1.33,0,0,0-.3,0l-.25,0q-.32,0-.32-.87v-5.12q0-.66-.48-.66ZM134.38,209c0-.08.19-.12.42-.12h1.39a.8.8,0,0,0,.92-.9q0-.93-1-.93h-1.22c-.26,0-.42,0-.48-.12a1.2,1.2,0,0,1-.09-.61v-.92a1,1,0,0,0-.21-.75,1.36,1.36,0,0,0-.81-.17,2.13,2.13,0,0,0-1.15.22.94.94,0,0,0-.31.82v.83a1.44,1.44,0,0,1-.05.46c0,.16-.2.24-.48.24H131a.62.62,0,0,0-.5.28,1.08,1.08,0,0,0-.21.67,1,1,0,0,0,.2.64.65.65,0,0,0,.53.25h.27c.19,0,.31,0,.37.11a1.15,1.15,0,0,1,.08.54v.54q0,.48,0,1.43t0,1.43q0,3,2.81,3a3.11,3.11,0,0,0,2.23-.76,2.75,2.75,0,0,0,.8-2.1q0-1.72-1.07-1.72a.81.81,0,0,0-.92.92l0,.17v.22l0,.2q0,.9-.61.9t-.65-1,0-.46l0-1.14,0-1.05v-.7A.78.78,0,0,1,134.38,209ZM128.27,206a1.54,1.54,0,1,0-1.1.45A1.49,1.49,0,0,0,128.27,206Zm-.64,1.16a5.25,5.25,0,0,1-.75.07,7.08,7.08,0,0,1-1-.08,4.12,4.12,0,0,0-.54-.05,1,1,0,0,0-.76.31,1.17,1.17,0,0,0-.29.82q0,1,.82,1l.27,0,.31-.08q.29,0,.29,1v2.75c0,.64-.1,1-.31,1l-.12,0-.44-.1q-.82,0-.82,1a1.15,1.15,0,0,0,.29.81,1,1,0,0,0,.75.31,8.75,8.75,0,0,0,.88-.07,8.78,8.78,0,0,1,.9-.07,10.26,10.26,0,0,1,1.09.05q.78.08,1,.08,1,0,1-1.17,0-.88-.71-.88a1.33,1.33,0,0,0-.3,0l-.25,0q-.32,0-.32-.87v-5.12q0-.66-.48-.66Zm-8.53,2.58a2.76,2.76,0,0,1,.46,1.67,2.86,2.86,0,0,1-.47,1.72,1.44,1.44,0,0,1-1.21.65,1.24,1.24,0,0,1-1.08-.59,2.9,2.9,0,0,1-.4-1.63v-.22a3.15,3.15,0,0,1,.45-1.61,1.2,1.2,0,0,1,1-.6A1.44,1.44,0,0,1,119.1,209.7Zm-4.43-1.55a4.94,4.94,0,0,0-1,3.21,5.07,5.07,0,0,0,1,3.24,3.14,3.14,0,0,0,2.58,1.28,2.88,2.88,0,0,0,2.65-1.51V215c0,.41.18.61.53.61l.46-.05a6.51,6.51,0,0,1,.73,0,3.77,3.77,0,0,1,.58,0l.59.1h.1a.82.82,0,0,0,.68-.33,1.37,1.37,0,0,0,.25-.86q0-.87-.73-.87a.89.89,0,0,0-.27,0,.84.84,0,0,1-.25.05q-.32,0-.32-.87v-7.73a1.18,1.18,0,0,0-.16-.72.73.73,0,0,0-.59-.2l-.63,0-.65,0c-.16,0-.46,0-.92-.07l-.54,0q-1.16,0-1.16,1.09a1,1,0,0,0,.22.68.67.67,0,0,0,.54.27,1.51,1.51,0,0,0,.44-.07l.41,0c.28,0,.43.2.43.61v1.22a3.44,3.44,0,0,0-2.38-1A3.2,3.2,0,0,0,114.67,208.15Zm-6-1.82a4.27,4.27,0,0,1,.71,0,.44.44,0,0,1,.39.46,3.28,3.28,0,0,1-.08.58,3.42,3.42,0,0,0-.08.61,1.14,1.14,0,0,0,1.28,1.31,1.28,1.28,0,0,0,.91-.34,1.09,1.09,0,0,0,.37-.83,5.5,5.5,0,0,0-.08-.76,5.56,5.56,0,0,1-.08-.77,7.65,7.65,0,0,1,.06-.8,7.84,7.84,0,0,0,.06-.8q0-.83-1-.83-.8,0-1.53.05-.44,0-1.84.07l-2,.05q-1.24,0-2.57-.1-.88-.07-1.17-.07a1.1,1.1,0,0,0-1.24,1.24,1.2,1.2,0,0,0,.27.8.83.83,0,0,0,.66.32,1.75,1.75,0,0,0,.39-.05,2.34,2.34,0,0,1,.41-.07q.46,0,.46,1.14v4.71q0,1.16-.46,1.16a2.06,2.06,0,0,1-.39-.06,2.16,2.16,0,0,0-.41-.06.83.83,0,0,0-.67.32,1.22,1.22,0,0,0-.26.8,1.27,1.27,0,0,0,.33.9,1.12,1.12,0,0,0,.86.36h.08l.07,0,1.29-.12q.56-.05,1.41-.05h1.51q2.72,0,4,.12.75.05,1.07.05,1,0,1-.8a4.23,4.23,0,0,0-.05-.66,5.88,5.88,0,0,1-.08-.73q0-.2.08-1a9.08,9.08,0,0,0,.05-.94q0-1.36-1.24-1.36a1.31,1.31,0,0,0-1,.36,1.33,1.33,0,0,0-.36,1,3.72,3.72,0,0,0,.05.55,3.8,3.8,0,0,1,.05.57.67.67,0,0,1-.43.66,4.28,4.28,0,0,1-1.52.19h-1a1.12,1.12,0,0,1-.79-.21,1.15,1.15,0,0,1-.21-.81V211.2q0-.54.49-.54c.49,0,.73.14.73.41s0,.35,0,.41v.08a.76.76,0,0,0,.85.87q.9,0,.9-1,0-.27-.07-1t-.07-1.12a8.55,8.55,0,0,1,.07-1,4.59,4.59,0,0,0,0-.53.77.77,0,0,0-.87-.87q-.83,0-.83.71a1.56,1.56,0,0,0,0,.25v.22q0,.54-.75.54c-.21,0-.35,0-.4-.14a1,1,0,0,1-.08-.43v-1q0-.53.25-.68a1.79,1.79,0,0,1,.75-.1ZM91.34,209.7a2.76,2.76,0,0,1,.46,1.67,2.86,2.86,0,0,1-.47,1.72,1.44,1.44,0,0,1-1.21.65,1.24,1.24,0,0,1-1.08-.59,2.9,2.9,0,0,1-.4-1.63v-.22a3.15,3.15,0,0,1,.45-1.61,1.2,1.2,0,0,1,1-.6A1.44,1.44,0,0,1,91.34,209.7Zm-4.43-1.55a4.94,4.94,0,0,0-1,3.21,5.07,5.07,0,0,0,1,3.24,3.14,3.14,0,0,0,2.58,1.28,2.88,2.88,0,0,0,2.65-1.51V215c0,.41.18.61.53.61l.46-.05a6.51,6.51,0,0,1,.73,0,3.77,3.77,0,0,1,.58,0l.59.1h.1a.82.82,0,0,0,.68-.33,1.37,1.37,0,0,0,.25-.86q0-.87-.73-.87a.89.89,0,0,0-.27,0,.84.84,0,0,1-.25.05q-.32,0-.32-.87v-7.73a1.18,1.18,0,0,0-.16-.72.73.73,0,0,0-.59-.2l-.63,0-.65,0c-.16,0-.46,0-.92-.07l-.54,0q-1.16,0-1.16,1.09a1,1,0,0,0,.22.68.67.67,0,0,0,.54.27,1.51,1.51,0,0,0,.44-.07l.41,0c.28,0,.43.2.43.61v1.22a3.44,3.44,0,0,0-2.38-1A3.2,3.2,0,0,0,86.91,208.15Zm-7.11,1a1.35,1.35,0,0,1,1.1-.53,1.38,1.38,0,0,1,.92.33,1,1,0,0,1,.39.77.3.3,0,0,1-.06.21.51.51,0,0,1-.31.06h-1.9c-.2,0-.32,0-.36-.07l-.05-.17A1,1,0,0,1,79.8,209.16Zm4.05-1.31a4,4,0,0,0-2.88-1,4.12,4.12,0,0,0-3.14,1.27,4.64,4.64,0,0,0-1.2,3.32,4.45,4.45,0,0,0,1.21,3.26,4.33,4.33,0,0,0,3.23,1.22,4.79,4.79,0,0,0,2.63-.69,2,2,0,0,0,1.08-1.67,1,1,0,0,0-.31-.73,1.17,1.17,0,0,0-.82-.29,1.52,1.52,0,0,0-1.12.54,2.1,2.1,0,0,1-1.46.78,1.54,1.54,0,0,1-1.16-.48,1.65,1.65,0,0,1-.46-1.19c0-.16,0-.26.08-.3a.74.74,0,0,1,.38-.06H84a.84.84,0,0,0,.71-.24,1.73,1.73,0,0,0,.18-1A3.66,3.66,0,0,0,83.85,207.85ZM72.9,209c0-.08.19-.12.42-.12h1.39a.8.8,0,0,0,.92-.9q0-.93-1-.93H73.41c-.26,0-.42,0-.48-.12a1.2,1.2,0,0,1-.09-.61v-.92a1,1,0,0,0-.21-.75,1.36,1.36,0,0,0-.81-.17,2.13,2.13,0,0,0-1.15.22.94.94,0,0,0-.31.82v.83a1.44,1.44,0,0,1-.05.46c0,.16-.2.24-.48.24H69.5a.62.62,0,0,0-.5.28,1.08,1.08,0,0,0-.21.67,1,1,0,0,0,.2.64.65.65,0,0,0,.53.25h.27c.19,0,.31,0,.37.11a1.15,1.15,0,0,1,.08.54v.54q0,.48,0,1.43t0,1.43q0,3,2.81,3a3.11,3.11,0,0,0,2.23-.76A2.75,2.75,0,0,0,76,213q0-1.72-1.07-1.72a.81.81,0,0,0-.92.92l0,.17v.22l0,.2q0,.9-.61.9t-.65-1,0-.46l0-1.14,0-1.05v-.7A.78.78,0,0,1,72.9,209ZM66.78,206a1.54,1.54,0,1,0-1.1.45A1.49,1.49,0,0,0,66.78,206Zm-.64,1.16a5.25,5.25,0,0,1-.75.07,7.08,7.08,0,0,1-1-.08,4.12,4.12,0,0,0-.54-.05,1,1,0,0,0-.76.31,1.17,1.17,0,0,0-.29.82q0,1,.82,1l.27,0,.31-.08q.29,0,.29,1v2.75c0,.64-.1,1-.31,1l-.12,0-.44-.1q-.82,0-.82,1a1.15,1.15,0,0,0,.29.81,1,1,0,0,0,.75.31,8.75,8.75,0,0,0,.88-.07,8.78,8.78,0,0,1,.9-.07,10.26,10.26,0,0,1,1.09.05q.78.08,1,.08,1,0,1-1.17,0-.88-.71-.88a1.33,1.33,0,0,0-.3,0l-.25,0q-.32,0-.32-.87v-5.12q0-.66-.48-.66ZM49.71,207a4,4,0,0,0-.6.07,3.87,3.87,0,0,1-.6.07,2.76,2.76,0,0,1-.51-.05,4.73,4.73,0,0,0-.56-.08.93.93,0,0,0-.74.32,1.2,1.2,0,0,0-.28.82q0,1,.82,1a1.11,1.11,0,0,0,.3-.06,1.19,1.19,0,0,1,.26-.06q.29,0,.29,1v2.75c0,.64-.1,1-.29,1a.85.85,0,0,1-.25-.06,1,1,0,0,0-.31-.06q-.82,0-.82,1a1.17,1.17,0,0,0,.28.81,1,1,0,0,0,.76.31q.19,0,.87-.08a6.4,6.4,0,0,1,.8-.05,8,8,0,0,1,.86.07,8,8,0,0,0,.86.07q.93,0,.94-1.11a.78.78,0,0,0-.66-.88.65.65,0,0,1-.34-.13.58.58,0,0,1-.07-.35v-2.06q0-2.06,1.5-2.06a.89.89,0,0,1,.82.37,2.77,2.77,0,0,1,.23,1.34v1.92c0,.07,0,.25,0,.56a.39.39,0,0,1-.31.41q-.53.14-.53.9,0,1.07.83,1.07a4,4,0,0,0,.6-.07,4,4,0,0,1,.6-.07,6.3,6.3,0,0,1,.75.08,3.79,3.79,0,0,0,.53.05q1,0,1-1.16,0-.73-.53-.85a.33.33,0,0,1-.27-.2,3.07,3.07,0,0,1-.05-.73v-1.58q0-2.06,1.44-2.06a.92.92,0,0,1,.88.4,3.3,3.3,0,0,1,.23,1.49v1.75a2.62,2.62,0,0,1-.06.75c0,.09-.17.15-.38.19q-.63.12-.63.9a1.19,1.19,0,0,0,.26.79.84.84,0,0,0,.67.31,6.47,6.47,0,0,0,.71-.07,8,8,0,0,1,1.05-.07,6,6,0,0,1,.71,0l.37.05.49.05a.89.89,0,0,0,.71-.32,1.27,1.27,0,0,0,.27-.85q0-.88-.75-.88a.73.73,0,0,0-.25,0,1,1,0,0,1-.27.05q-.32,0-.32-.87v-2.6a4,4,0,0,0-.54-2.35A2.82,2.82,0,0,0,58,206.81a3.38,3.38,0,0,0-1.4.27,6.45,6.45,0,0,0-1.45,1A2.52,2.52,0,0,0,53,206.81a3.67,3.67,0,0,0-2.84,1.53v-.78Q50.15,207,49.71,207ZM44.19,206a1.54,1.54,0,1,0-1.1.45A1.49,1.49,0,0,0,44.19,206Zm-.64,1.16a5.25,5.25,0,0,1-.75.07,7.08,7.08,0,0,1-1-.08,4.12,4.12,0,0,0-.54-.05,1,1,0,0,0-.76.31,1.17,1.17,0,0,0-.29.82q0,1,.82,1l.27,0,.31-.08q.29,0,.29,1v2.75c0,.64-.1,1-.31,1l-.12,0-.44-.1q-.82,0-.82,1a1.15,1.15,0,0,0,.29.81,1,1,0,0,0,.75.31,8.75,8.75,0,0,0,.88-.07,8.78,8.78,0,0,1,.9-.07,10.26,10.26,0,0,1,1.09.05q.78.08,1,.08,1,0,1-1.17,0-.88-.71-.88a1.33,1.33,0,0,0-.3,0l-.25,0q-.32,0-.32-.87v-5.12q0-.66-.48-.66Zm-8.78-.62a3.4,3.4,0,0,0,.54.06.79.79,0,0,0,.65-.32,1.28,1.28,0,0,0,.25-.82A1.14,1.14,0,0,0,35,204.19a10.71,10.71,0,0,0-1.17.1l-.54.05-.56,0-.71,0-.77-.05q-1.22-.1-1.46-.1a1.11,1.11,0,0,0-1.26,1.24,1.22,1.22,0,0,0,.26.8.81.81,0,0,0,.65.32,2,2,0,0,0,.42-.06,2,2,0,0,1,.4-.06q.46,0,.46,1.14v4.71q0,1.16-.46,1.16a2,2,0,0,1-.4-.06,2,2,0,0,0-.4-.06.84.84,0,0,0-.67.31,1.22,1.22,0,0,0-.26.81,1.27,1.27,0,0,0,.33.9,1.12,1.12,0,0,0,.86.36l.52,0,.57-.07.67-.07.82,0q3.06,0,4.69.1l1,.05.7,0q1.1,0,1.11-.93s0-.1,0-.23,0-.31-.05-.54,0-.23,0-.34,0-.23,0-.34,0-.21,0-.36,0-.32.05-.51,0-.36.05-.51,0-.27,0-.37a1.19,1.19,0,0,0-1.36-1.34,1.48,1.48,0,0,0-1,.37,1.17,1.17,0,0,0-.41.91,3.53,3.53,0,0,0,.08.66,2.41,2.41,0,0,1,.07.54q0,.85-1.38.85H34.58l-.25,0a.68.68,0,0,1-.58-.51,3.94,3.94,0,0,1-.05-.83v-4.79q0-.94.54-.94A3.4,3.4,0,0,1,34.77,206.5Z"/><path class="cls-2" d="M235,238.06a.57.57,0,0,0-.14.31.3.3,0,0,0,.34.34q.31,0,.75-.6a4.56,4.56,0,0,0,1-2.67,2,2,0,0,0-.37-1.24,1.19,1.19,0,0,0-1-.48,1.17,1.17,0,0,0-.85.33,1.1,1.1,0,0,0-.34.82,1,1,0,0,0,.26.71.85.85,0,0,0,.65.29h.34a.26.26,0,0,1,.29.29A3.81,3.81,0,0,1,235,238.06Zm-9.11-13.46q0-.56-.39-.56l-.39,0a3,3,0,0,1-.42,0,6.72,6.72,0,0,1-.7,0l-.58-.05a.75.75,0,0,0-.49.17.51.51,0,0,0-.2.41c0,.36.19.54.58.54a1.89,1.89,0,0,0,.37-.05,1.85,1.85,0,0,1,.36-.05q.37,0,.48.67a29.32,29.32,0,0,1,.1,3.22v3a15.57,15.57,0,0,1-.11,2.12q-.1.52-.37.52a2,2,0,0,1-.42-.07.83.83,0,0,0-.33,0q-.66,0-.66.53t.7.63l.87-.07q.51-.05.8-.05a11,11,0,0,1,1.11.07c.32,0,.56.05.72.05q.75,0,.75-.61a.49.49,0,0,0-.56-.54,1.46,1.46,0,0,0-.38.08,1.49,1.49,0,0,1-.39.08q-.42,0-.51-.83,0-.15,0-1.12v-.32a1.47,1.47,0,0,0,.07-.34v-1.22a3.77,3.77,0,0,1,.44-2,2.19,2.19,0,0,1,2-.92,1.82,1.82,0,0,1,1.74.88,5.29,5.29,0,0,1,.34,2.33v1.65c0,.4,0,.66,0,.8q0,1.1-.53,1.1a.91.91,0,0,1-.29-.05,1.43,1.43,0,0,0-.44-.08.62.62,0,0,0-.42.15.47.47,0,0,0-.18.37.57.57,0,0,0,.2.45.74.74,0,0,0,.51.18q.17,0,.88-.1a5.18,5.18,0,0,1,.68,0,10.22,10.22,0,0,1,1.16.08,5.88,5.88,0,0,0,.65.05q.82,0,.82-.58t-.63-.58l-.27,0a1.23,1.23,0,0,1-.39.1q-.37,0-.44-.85,0-.1,0-1.1v-2.84a2.87,2.87,0,0,0-.89-2.19,3.73,3.73,0,0,0-3.68-.59,4.59,4.59,0,0,0-1.25.89l.07-3.31Zm-9.78,2.95a2.38,2.38,0,0,0-.9,1.93,1.83,1.83,0,0,0,.92,1.76,7.37,7.37,0,0,0,2.67.69q1.84.19,1.84,1.34a1.31,1.31,0,0,1-.54,1.07,2.17,2.17,0,0,1-1.38.42,3.59,3.59,0,0,1-1.9-.46,1.4,1.4,0,0,1-.76-1.19,2.63,2.63,0,0,0-.11-.9q-.09-.17-.45-.17c-.36,0-.54.2-.54.59a3.21,3.21,0,0,0,.07.56,4.13,4.13,0,0,1,.07.77,3.39,3.39,0,0,1,0,.48q-.1,1-.1.88,0,.7.63.7t.58-.61v-.32a3.87,3.87,0,0,0,2.44.8,3.75,3.75,0,0,0,2.44-.76,2.43,2.43,0,0,0,.93-2q0-2-2.89-2.4l-1-.14q-1.5-.2-1.5-1.29a1.21,1.21,0,0,1,.53-1,2.11,2.11,0,0,1,1.31-.4,2.42,2.42,0,0,1,1.33.37,1.09,1.09,0,0,1,.59.88v.56a.49.49,0,0,0,.55.54q.55,0,.55-.65,0-.2,0-.59a6,6,0,0,1,0-.6,4.09,4.09,0,0,1,.06-.68c0-.27,0-.44,0-.51a.49.49,0,0,0-.56-.54q-.54,0-.54.63v.07a3,3,0,0,0-1.9-.59A3.56,3.56,0,0,0,216.14,227.55Zm-7.88,1.07a2.56,2.56,0,0,1,1.73-.69,2.22,2.22,0,0,1,1.6.66,2.11,2.11,0,0,1,.68,1.56q0,.24-.36.24h-4.06q-.37,0-.37-.24A2,2,0,0,1,208.26,228.62Zm4.35-.74a3.51,3.51,0,0,0-2.63-1.07,3.69,3.69,0,0,0-2.92,1.29,5,5,0,0,0-1.12,3.37,4.7,4.7,0,0,0,1.05,3.22,3.59,3.59,0,0,0,2.84,1.2,4.09,4.09,0,0,0,2.55-.86,2.46,2.46,0,0,0,1.12-2,.56.56,0,0,0-.63-.65.53.53,0,0,0-.56.41l-.15.49a1.86,1.86,0,0,1-.81,1,2.43,2.43,0,0,1-1.37.41,2.46,2.46,0,0,1-1.9-.85,3.06,3.06,0,0,1-.76-2.12.25.25,0,0,1,.07-.2.48.48,0,0,1,.29-.06h5.41q.41,0,.49-.14a2.1,2.1,0,0,0,.08-.79A3.75,3.75,0,0,0,212.61,227.88Zm-12.9-.78a1.09,1.09,0,0,0-.32,0l-.44,0-.51,0-.51,0q-.73,0-.73.59a.49.49,0,0,0,.56.54,1.89,1.89,0,0,0,.37-.05,1.88,1.88,0,0,1,.37-.05q.46,0,.51,1l.05,3.86v.87q0,.78-.46.78l-.24,0-.26-.05-.26,0q-.65,0-.65.53c0,.4.23.6.69.6l.95-.08c.26,0,.62,0,1.07,0a7.32,7.32,0,0,1,.77.06,7.59,7.59,0,0,0,.77.06h.07q.69,0,.69-.59a.48.48,0,0,0-.54-.54,1.45,1.45,0,0,0-.32,0,2,2,0,0,1-.46.06q-.44,0-.53-1,0-.14,0-1.28v-1.12a6.73,6.73,0,0,1,.27-2.21,1.72,1.72,0,0,1,1.77-1.19,1.7,1.7,0,0,1,1.08.34,1,1,0,0,1,.43.83.85.85,0,0,1-.1.37l-.22-.05a.64.64,0,0,0-.48.21.68.68,0,0,0-.2.48.74.74,0,0,0,.27.58,1,1,0,0,0,.66.24,1.2,1.2,0,0,0,1-.47,1.89,1.89,0,0,0,.37-1.21,2.22,2.22,0,0,0-.74-1.73,3,3,0,0,0-4.29.57v-.47C200.15,227.26,200,227.1,199.71,227.1Zm-2.75-1a.8.8,0,0,0,.57.21.82.82,0,0,0,.59-.23.8.8,0,0,0,.24-.6,1.34,1.34,0,0,0-.65-1.16,3,3,0,0,0-1.72-.43,2.74,2.74,0,0,0-2,.71,2.78,2.78,0,0,0-.71,2.06v.31a.19.19,0,0,1-.22.22h-1a.53.53,0,0,0-.61.6q0,.63.59.63h.84a.27.27,0,0,1,.3.31v3.57a14,14,0,0,1-.1,2c-.06.27-.19.41-.41.41a1.42,1.42,0,0,1-.38-.06,1.42,1.42,0,0,0-.38-.06.59.59,0,0,0-.42.17.53.53,0,0,0-.18.39q0,.6.73.6.19,0,.85-.08a7.41,7.41,0,0,1,.92-.05,8.5,8.5,0,0,1,.88.07,8.51,8.51,0,0,0,.88.07q.7,0,.7-.6a.5.5,0,0,0-.58-.56l-.34,0a2.58,2.58,0,0,1-.43.08q-.34,0-.42-.46c0-.07,0-.31,0-.73v-4.76c0-.2.1-.31.29-.31H196q.56,0,.56-.61t-.56-.61h-1.33a.19.19,0,0,1-.22-.22v-.31a1.89,1.89,0,0,1,.42-1.3,1.46,1.46,0,0,1,1.15-.47,1.2,1.2,0,0,1,.85.27.61.61,0,0,0-.17.42A.68.68,0,0,0,197,226.07Zm-10.13,0a.8.8,0,0,0,.57.21.82.82,0,0,0,.59-.23.8.8,0,0,0,.24-.6,1.34,1.34,0,0,0-.65-1.16,3,3,0,0,0-1.72-.43,2.74,2.74,0,0,0-2,.71,2.78,2.78,0,0,0-.71,2.06v.31a.19.19,0,0,1-.22.22h-1a.53.53,0,0,0-.61.6q0,.63.59.63h.84a.27.27,0,0,1,.3.31v3.57a14,14,0,0,1-.1,2c-.06.27-.19.41-.41.41a1.42,1.42,0,0,1-.38-.06,1.42,1.42,0,0,0-.38-.06.59.59,0,0,0-.42.17.53.53,0,0,0-.18.39q0,.6.73.6.19,0,.85-.08a7.41,7.41,0,0,1,.92-.05,8.5,8.5,0,0,1,.88.07,8.51,8.51,0,0,0,.88.07q.7,0,.7-.6a.5.5,0,0,0-.58-.56l-.34,0a2.58,2.58,0,0,1-.43.08q-.34,0-.42-.46c0-.07,0-.31,0-.73v-4.76c0-.2.1-.31.29-.31h1.26q.56,0,.56-.61t-.56-.61h-1.33a.19.19,0,0,1-.22-.22v-.31a1.89,1.89,0,0,1,.42-1.3,1.46,1.46,0,0,1,1.15-.47,1.2,1.2,0,0,1,.85.27.61.61,0,0,0-.17.42A.68.68,0,0,0,186.83,226.07Zm-8,5.26a4,4,0,0,1-.71,2.52,2.33,2.33,0,0,1-1.95.91,2.2,2.2,0,0,1-1.88-.91,4.14,4.14,0,0,1-.67-2.51v-.22a3.93,3.93,0,0,1,.75-2.36,2.28,2.28,0,0,1,1.87-.83Q178.87,227.93,178.87,231.33Zm.27,3.3a4.86,4.86,0,0,0,1.11-3.33,4.77,4.77,0,0,0-1.07-3.28,3.71,3.71,0,0,0-2.92-1.21,3.66,3.66,0,0,0-2.9,1.23,5.62,5.62,0,0,0,0,6.61,3.6,3.6,0,0,0,2.86,1.23A3.72,3.72,0,0,0,179.14,234.63Zm-18.23-7.08a2.38,2.38,0,0,0-.9,1.93,1.83,1.83,0,0,0,.92,1.76,7.37,7.37,0,0,0,2.67.69q1.84.19,1.84,1.34a1.31,1.31,0,0,1-.54,1.07,2.17,2.17,0,0,1-1.38.42,3.59,3.59,0,0,1-1.9-.46,1.4,1.4,0,0,1-.76-1.19,2.63,2.63,0,0,0-.11-.9q-.09-.17-.45-.17c-.36,0-.54.2-.54.59a3.21,3.21,0,0,0,.07.56,4.13,4.13,0,0,1,.07.77,3.39,3.39,0,0,1,0,.48q-.1,1-.1.88,0,.7.63.7t.58-.61v-.32a3.87,3.87,0,0,0,2.44.8,3.75,3.75,0,0,0,2.44-.76,2.43,2.43,0,0,0,.93-2q0-2-2.89-2.4l-1-.14q-1.5-.2-1.5-1.29a1.21,1.21,0,0,1,.53-1,2.11,2.11,0,0,1,1.31-.4,2.42,2.42,0,0,1,1.33.37,1.09,1.09,0,0,1,.59.88v.56a.49.49,0,0,0,.55.54q.55,0,.55-.65,0-.2,0-.59a6,6,0,0,1,0-.6,4.09,4.09,0,0,1,.06-.68c0-.27,0-.44,0-.51a.49.49,0,0,0-.56-.54q-.54,0-.54.63v.07a3,3,0,0,0-1.9-.59A3.56,3.56,0,0,0,160.91,227.55Zm-5.9,6.68a2.46,2.46,0,0,1-3.46-.39,4.11,4.11,0,0,1-.7-2.54,4,4,0,0,1,.68-2.46,2.21,2.21,0,0,1,1.88-.9,2.41,2.41,0,0,1,1.57.56,2.13,2.13,0,0,1,.74,1.33,9.07,9.07,0,0,1,.09,1.55,12.53,12.53,0,0,1-.07,1.45A2.14,2.14,0,0,1,155,234.23Zm-4.5-6.19a5.72,5.72,0,0,0,0,6.59,3.44,3.44,0,0,0,2.78,1.26,3.06,3.06,0,0,0,2.61-1.21v.37c0,.41.15.61.46.61a1.49,1.49,0,0,0,.36-.05l.39,0,.52,0,.52,0q.77,0,.77-.58t-.64-.56l-.38,0a1.32,1.32,0,0,1-.35,0,.39.39,0,0,1-.42-.27,6.76,6.76,0,0,1-.1-1.4v-4.51q0-.44,0-1.29.05-1.21.05-1.31c0-.57,0-.87,0-.9v-.19q0-.68-.48-.68a3.26,3.26,0,0,0-.44,0l-.44,0-.56-.05-.49,0q-.85,0-.85.56t.63.54a2,2,0,0,0,.38-.05,2,2,0,0,1,.38-.05q.39,0,.48.53a5.68,5.68,0,0,1,0,.83v1.72a2.78,2.78,0,0,0-2.52-1.31A3.44,3.44,0,0,0,150.51,228Zm-5.87,6.1a2.5,2.5,0,0,1-1.79.62,2,2,0,0,1-1.27-.37,1.24,1.24,0,0,1-.47-1q0-1.24,1.93-1.43a7.83,7.83,0,0,0,1.48-.24,2.18,2.18,0,0,0,.79-.48v1.21A2.3,2.3,0,0,1,144.63,234.15Zm4.29,0v-1.05q0-.82-.55-.82t-.52.54v.83q0,1.08-.59,1.08t-.58-.59a7.25,7.25,0,0,1,0-1v-3.43q0-3-3.09-3a3.81,3.81,0,0,0-2.29.68,2,2,0,0,0-.94,1.63,1,1,0,0,0,.3.75,1,1,0,0,0,.74.31A.9.9,0,0,0,142,230a.72.72,0,0,0,.25-.56.66.66,0,0,0-.24-.58c-.1-.07-.15-.12-.15-.17s.08-.24.25-.36a2.6,2.6,0,0,1,1.43-.43,2.07,2.07,0,0,1,1.35.4,1.35,1.35,0,0,1,.48,1.1,1.09,1.09,0,0,1-.43,1,5.12,5.12,0,0,1-1.86.43q-1,.12-1.33.2a3.16,3.16,0,0,0-.79.33,2.21,2.21,0,0,0-1.21,2.07,2.23,2.23,0,0,0,.83,1.82,3.35,3.35,0,0,0,2.2.68,3.06,3.06,0,0,0,2.72-1.28,1.57,1.57,0,0,0,1.72,1.21A1.51,1.51,0,0,0,148.93,234.19Zm-11.75-2.86a4,4,0,0,1-.71,2.52,2.33,2.33,0,0,1-1.95.91,2.2,2.2,0,0,1-1.88-.91,4.14,4.14,0,0,1-.67-2.51v-.22a3.93,3.93,0,0,1,.75-2.36,2.28,2.28,0,0,1,1.87-.83Q137.18,227.93,137.18,231.33Zm.27,3.3a4.86,4.86,0,0,0,1.11-3.33,4.77,4.77,0,0,0-1.07-3.28,3.71,3.71,0,0,0-2.92-1.21,3.66,3.66,0,0,0-2.9,1.23,5.62,5.62,0,0,0,0,6.61,3.6,3.6,0,0,0,2.86,1.23A3.72,3.72,0,0,0,137.45,234.63Zm-9.32-9.83a1.47,1.47,0,0,0,0-.25q0-.49-.39-.49a3.73,3.73,0,0,0-.51.05,3.76,3.76,0,0,1-.51.05l-.46,0-.41-.05-.32,0q-.68,0-.68.56c0,.36.19.54.58.54l.31,0,.44-.07a.48.48,0,0,1,.48.39,5.3,5.3,0,0,1,.05.68v5.68l0,1.19a7.35,7.35,0,0,1-.09,1.37.36.36,0,0,1-.39.26l-.5-.09-.15,0h-.12c-.39,0-.58.18-.58.53s.24.61.71.61h.08a7.27,7.27,0,0,0,.8-.07,7.29,7.29,0,0,1,.81-.07,8.75,8.75,0,0,1,.91.07c.4,0,.68.07.86.07q.69,0,.7-.56a.51.51,0,0,0-.57-.58l-.27,0a2.23,2.23,0,0,1-.43.08q-.45,0-.46-.87V228.5Q128,226.11,128.14,224.8Zm-15.21-.2q0-.56-.39-.56l-.39,0a3,3,0,0,1-.42,0,6.72,6.72,0,0,1-.7,0l-.58-.05a.75.75,0,0,0-.49.17.51.51,0,0,0-.2.41c0,.36.19.54.58.54a1.89,1.89,0,0,0,.37-.05,1.85,1.85,0,0,1,.36-.05q.37,0,.48.67a29.32,29.32,0,0,1,.1,3.22v3a15.57,15.57,0,0,1-.11,2.12q-.1.52-.37.52a2,2,0,0,1-.42-.07.83.83,0,0,0-.33,0q-.66,0-.66.53t.7.63l.87-.07q.51-.05.8-.05a11,11,0,0,1,1.11.07c.32,0,.56.05.72.05q.75,0,.75-.61a.49.49,0,0,0-.56-.54,1.46,1.46,0,0,0-.38.08,1.49,1.49,0,0,1-.39.08q-.42,0-.51-.83,0-.15,0-1.12v-.32a1.47,1.47,0,0,0,.07-.34v-1.22a3.77,3.77,0,0,1,.44-2,2.19,2.19,0,0,1,2-.92,1.82,1.82,0,0,1,1.74.88,5.29,5.29,0,0,1,.34,2.33v1.65c0,.4,0,.66,0,.8q0,1.1-.53,1.1a.91.91,0,0,1-.29-.05,1.43,1.43,0,0,0-.44-.08.62.62,0,0,0-.42.15.47.47,0,0,0-.18.37.57.57,0,0,0,.2.45.74.74,0,0,0,.51.18q.17,0,.88-.1a5.18,5.18,0,0,1,.68,0,10.22,10.22,0,0,1,1.16.08,5.88,5.88,0,0,0,.65.05q.82,0,.82-.58t-.63-.58l-.27,0a1.23,1.23,0,0,1-.39.1q-.37,0-.44-.85,0-.1,0-1.1v-2.84a2.87,2.87,0,0,0-.89-2.19,3.73,3.73,0,0,0-3.68-.59,4.59,4.59,0,0,0-1.25.89l.07-3.31Zm-6,10.1q-1.19,0-1.19-1.78v-4.18c0-.24.08-.36.24-.36h1.87q.7,0,.7-.63t-.65-.6h-1.85c-.2,0-.31-.08-.31-.25v-1.82q0-.64-.61-.65a.58.58,0,0,0-.66.65v1.75q0,.32-.29.32h-.66a.54.54,0,0,0-.4.19.6.6,0,0,0-.18.42.59.59,0,0,0,.18.43.63.63,0,0,0,.46.18h.56c.22,0,.33.12.33.36v4.08a4,4,0,0,0,.42,2.14,2.13,2.13,0,0,0,1.92.87,2.33,2.33,0,0,0,2.11-1,5.07,5.07,0,0,0,.47-2.58q0-.78-.59-.78t-.61.7v1.09Q108.14,234.7,106.94,234.7Zm-6.2-8.76a.92.92,0,0,0,.28-.67.89.89,0,0,0-.28-.66,1,1,0,0,0-1.34,0,.89.89,0,0,0-.28.66.95.95,0,0,0,1.62.67Zm.23,3.31q0-.92,0-1.05s0-.11,0-.2,0-.16,0-.2c0-.44-.17-.66-.49-.66l-.42,0-.42,0-.7-.07-.46,0q-.75,0-.75.58c0,.36.21.54.62.54a1.75,1.75,0,0,0,.37-.06,1.83,1.83,0,0,1,.39-.06q.43,0,.51,1.07v4.35q-.08,1.09-.5,1.09a2.41,2.41,0,0,1-.4-.05,2.34,2.34,0,0,0-.4-.05q-.58,0-.58.56t.68.58a8.8,8.8,0,0,0,.89-.08,8,8,0,0,1,1-.07,6.7,6.7,0,0,1,.83.08,6.53,6.53,0,0,0,.83.08.84.84,0,0,0,.54-.17.51.51,0,0,0,.21-.41q0-.56-.65-.56a.73.73,0,0,0-.25,0,2.58,2.58,0,0,1-.43.08q-.37,0-.46-.76,0-.15,0-1v-2.21Q101,229.94,101,229.24Zm-14.12-.61q0-.51.44-.51a1.26,1.26,0,0,1,.42.08l.42,0q.63,0,.63-.57t-.75-.59l-.88.09a8.92,8.92,0,0,1-1.09.08,4.14,4.14,0,0,1-.63,0l-.73-.11-.19,0q-.76,0-.76.6a.49.49,0,0,0,.56.55l.37,0a1,1,0,0,1,.31-.07c.22,0,.37.18.48.55l1.63,6.13q.27,1.06,1.07,1.06a1,1,0,0,0,.78-.35,2.9,2.9,0,0,0,.48-1.2l1.33-5.94L92,234.43q.31,1.43,1.21,1.43a.93.93,0,0,0,.75-.32,2.88,2.88,0,0,0,.48-1.12L95.6,230q.49-1.9,1-1.9l.31.06a.58.58,0,0,0,.29.06.5.5,0,0,0,.56-.57q0-.59-.73-.59l-.19,0-.56.08a6.62,6.62,0,0,1-.88.06,6.77,6.77,0,0,1-.85,0l-.7-.1-.25,0q-.83,0-.83.59t.63.56a2.36,2.36,0,0,0,.44-.06,2.43,2.43,0,0,1,.44-.06c.26,0,.39.15.39.46v0a3.73,3.73,0,0,1-.12.85l-1.26,5.18-1.28-6a3.5,3.5,0,0,0-.45-1.26.91.91,0,0,0-.77-.32.9.9,0,0,0-.76.31,3.43,3.43,0,0,0-.45,1.27l-1.33,6L87,229.47A3.68,3.68,0,0,1,86.84,228.63Zm-13.16,0a2.56,2.56,0,0,1,1.73-.69,2.22,2.22,0,0,1,1.6.66,2.11,2.11,0,0,1,.68,1.56q0,.24-.36.24H73.28q-.37,0-.37-.24A2,2,0,0,1,73.69,228.62Zm4.35-.74a3.51,3.51,0,0,0-2.63-1.07,3.69,3.69,0,0,0-2.92,1.29,5,5,0,0,0-1.12,3.37,4.7,4.7,0,0,0,1.05,3.22,3.59,3.59,0,0,0,2.84,1.2A4.09,4.09,0,0,0,77.8,235a2.46,2.46,0,0,0,1.12-2,.56.56,0,0,0-.63-.65.53.53,0,0,0-.56.41l-.15.49a1.86,1.86,0,0,1-.81,1,2.43,2.43,0,0,1-1.37.41,2.46,2.46,0,0,1-1.9-.85,3.06,3.06,0,0,1-.76-2.12.25.25,0,0,1,.07-.2.48.48,0,0,1,.29-.06H78.5q.41,0,.49-.14a2.1,2.1,0,0,0,.08-.79A3.75,3.75,0,0,0,78,227.88Zm-11.34,6.35a2.46,2.46,0,0,1-3.46-.39,4.11,4.11,0,0,1-.7-2.54,4,4,0,0,1,.68-2.46,2.21,2.21,0,0,1,1.88-.9,2.41,2.41,0,0,1,1.57.56,2.13,2.13,0,0,1,.74,1.33,9.07,9.07,0,0,1,.09,1.55,12.53,12.53,0,0,1-.07,1.45A2.14,2.14,0,0,1,66.69,234.23ZM62.19,228a5.72,5.72,0,0,0,0,6.59A3.44,3.44,0,0,0,65,235.89a3.06,3.06,0,0,0,2.61-1.21v.37c0,.41.15.61.46.61a1.49,1.49,0,0,0,.36-.05l.39,0,.52,0,.52,0q.77,0,.77-.58t-.64-.56l-.38,0a1.32,1.32,0,0,1-.35,0,.39.39,0,0,1-.42-.27,6.76,6.76,0,0,1-.1-1.4v-4.51q0-.44,0-1.29.05-1.21.05-1.31c0-.57,0-.87,0-.9v-.19q0-.68-.48-.68a3.26,3.26,0,0,0-.44,0l-.44,0-.56-.05-.49,0q-.85,0-.85.56t.63.54a2,2,0,0,0,.38-.05A2,2,0,0,1,67,225q.39,0,.48.53a5.68,5.68,0,0,1,0,.83v1.72A2.78,2.78,0,0,0,65,226.81,3.44,3.44,0,0,0,62.19,228Zm-5.87,6.1a2.5,2.5,0,0,1-1.79.62,2,2,0,0,1-1.27-.37,1.24,1.24,0,0,1-.47-1q0-1.24,1.93-1.43a7.83,7.83,0,0,0,1.48-.24,2.18,2.18,0,0,0,.79-.48v1.21A2.3,2.3,0,0,1,56.32,234.15Zm4.29,0v-1.05q0-.82-.55-.82t-.52.54v.83q0,1.08-.59,1.08t-.58-.59a7.25,7.25,0,0,1,0-1v-3.43q0-3-3.09-3a3.81,3.81,0,0,0-2.29.68,2,2,0,0,0-.94,1.63,1,1,0,0,0,.3.75,1,1,0,0,0,.74.31.9.9,0,0,0,.62-.22.72.72,0,0,0,.25-.56.66.66,0,0,0-.24-.58c-.1-.07-.15-.12-.15-.17s.08-.24.25-.36a2.6,2.6,0,0,1,1.43-.43,2.07,2.07,0,0,1,1.35.4,1.35,1.35,0,0,1,.48,1.1,1.09,1.09,0,0,1-.43,1,5.12,5.12,0,0,1-1.86.43q-1,.12-1.33.2a3.16,3.16,0,0,0-.79.33,2.21,2.21,0,0,0-1.21,2.07,2.23,2.23,0,0,0,.83,1.82,3.35,3.35,0,0,0,2.2.68,3.06,3.06,0,0,0,2.72-1.28,1.57,1.57,0,0,0,1.72,1.21A1.51,1.51,0,0,0,60.61,234.19ZM40.11,225q-.22-.83-.88-.83a7.54,7.54,0,0,0-.81.07,7.64,7.64,0,0,1-.87.07,7.23,7.23,0,0,1-.83-.05l-.6-.07-.22,0q-.76,0-.76.6a.47.47,0,0,0,.53.54l.41,0,.41,0q.87,0,.87,1.27v6.83q0,1.28-.87,1.28a2.22,2.22,0,0,1-.37-.05,2.29,2.29,0,0,0-.44-.05.5.5,0,0,0-.37.16.56.56,0,0,0-.15.4q0,.59.78.59H36l.1,0,.71-.14a8.7,8.7,0,0,1,1.21-.05,6.15,6.15,0,0,1,.87.05l.8.12.36,0q.68,0,.68-.58t-.66-.58h-.71q-.66,0-.68-1.23l-.1-7.86.07-.1.12.1,3.08,9.69a.87.87,0,0,0,.33.52,1.31,1.31,0,0,0,.66.13.89.89,0,0,0,1-.64l3.13-9.69.1-.1.08.1V230q0,1.07,0,1.63,0,1.46,0,1.73-.15,1.27-.77,1.27l-.45,0-.26,0q-.69,0-.68.59t.66.57a3.33,3.33,0,0,0,.54-.05,9.53,9.53,0,0,1,1.53-.12,17.68,17.68,0,0,1,2,.14l.25,0q.73,0,.73-.61a.48.48,0,0,0-.54-.54l-.44,0a1.54,1.54,0,0,1-.37.05q-.85,0-.85-1.27v-6.82q0-1.27.87-1.27l.4,0,.4,0a.48.48,0,0,0,.54-.54q0-.6-.78-.6l-.2,0-.59.1a4.84,4.84,0,0,1-.8.05,6.18,6.18,0,0,1-.75,0,2.34,2.34,0,0,1-.44-.08,2.59,2.59,0,0,0-.44-.05h-.08q-.54,0-.76.71l-2.87,9.16-2.62-8.6Z"/><path class="cls-2" d="M201.21,252.17q0,.85.61.85l.25,0q.29-.05.36-.53c0-.09,0-.33,0-.73v-3.2l.08-1.84q0-1.41.05-1.5a3,3,0,0,0,0-.34q0-1-.73-1t-.71.92a2.78,2.78,0,0,0,0,.32q0,.88,0,1.58v5.46Zm1.39,3.41a1.07,1.07,0,0,0-.76-1.83,1,1,0,0,0-.75.31,1.09,1.09,0,0,0,0,1.51,1,1,0,0,0,.75.31A1,1,0,0,0,202.6,255.57Zm-6.35-4.24a4,4,0,0,1-.71,2.52,2.33,2.33,0,0,1-1.95.91,2.2,2.2,0,0,1-1.88-.91,4.14,4.14,0,0,1-.67-2.51v-.22a3.93,3.93,0,0,1,.75-2.36,2.28,2.28,0,0,1,1.87-.83Q196.25,247.93,196.25,251.33Zm.27,3.3a4.86,4.86,0,0,0,1.11-3.33,4.77,4.77,0,0,0-1.07-3.28,3.71,3.71,0,0,0-2.92-1.21,3.66,3.66,0,0,0-2.9,1.23,5.62,5.62,0,0,0,0,6.61,3.6,3.6,0,0,0,2.86,1.23A3.72,3.72,0,0,0,196.52,254.63Zm-9.95.3a1.17,1.17,0,0,1,0,2.2,4.74,4.74,0,0,1-2.15.41,4.47,4.47,0,0,1-2.06-.4,1.21,1.21,0,0,1-.76-1.1,1.23,1.23,0,0,1,.78-1.11,4.68,4.68,0,0,1,2.14-.41A4.5,4.5,0,0,1,186.57,254.93Zm-.75-6.52a1.53,1.53,0,0,1,.54,1.21,1.48,1.48,0,0,1-.54,1.17,2.05,2.05,0,0,1-1.39.46,1.91,1.91,0,0,1-1.33-.46,1.55,1.55,0,0,1-.51-1.21v-.1a1.55,1.55,0,0,1,.58-1.1,1.92,1.92,0,0,1,1.28-.44A2,2,0,0,1,185.83,248.41Zm-3.65-.83a2.43,2.43,0,0,0-.89,1.92,2.27,2.27,0,0,0,.44,1.39,1.68,1.68,0,0,0-1.39,1.63q0,1.09,1.39,1.63a2,2,0,0,0-1.55,2A2.1,2.1,0,0,0,181.3,258a5.88,5.88,0,0,0,3.07.68,5.79,5.79,0,0,0,3.1-.72,2.21,2.21,0,0,0,1.15-2,2,2,0,0,0-.54-1.37,3.19,3.19,0,0,0-1.48-.9,9.29,9.29,0,0,0-2.62-.31h-.61q-1.79,0-1.79-.88a.73.73,0,0,1,.19-.5.56.56,0,0,1,.43-.21,1.21,1.21,0,0,1,.46.12,4.81,4.81,0,0,0,1.94.44,3.23,3.23,0,0,0,2.22-.78,2.5,2.5,0,0,0,.89-2,2.68,2.68,0,0,0-1.29-2.33q0-1.12.92-1.12a.85.85,0,0,1,.7.34.77.77,0,0,0-.37.56.58.58,0,0,0,.2.44.68.68,0,0,0,.48.19.81.81,0,0,0,.62-.29,1,1,0,0,0,.26-.7,1.26,1.26,0,0,0-.53-1,2.08,2.08,0,0,0-1.31-.41q-1.85,0-1.94,1.67a4.36,4.36,0,0,0-1-.14A3.32,3.32,0,0,0,182.18,247.57Zm-10.51-.48-.46,0a2.35,2.35,0,0,1-.48,0l-.63-.07-.17,0q-.76,0-.76.56c0,.36.21.54.62.54l.35,0,.36,0a.4.4,0,0,1,.39.21,2.18,2.18,0,0,1,.15.79v4.54q0,1-.54,1a2.13,2.13,0,0,1-.46-.05l-.32-.05a.48.48,0,0,0-.55.54q0,.58.71.58l.85-.08a8.68,8.68,0,0,1,1-.07,6.18,6.18,0,0,1,.83.05q.75.1.88.1.68,0,.68-.55t-.53-.57a1.67,1.67,0,0,0-.39.06,1.68,1.68,0,0,1-.37.06.37.37,0,0,1-.37-.27,3.39,3.39,0,0,1-.1-1v-2.26a4.59,4.59,0,0,1,.41-2.26,2.11,2.11,0,0,1,1.95-1,2.16,2.16,0,0,1,1.27.39,1.64,1.64,0,0,1,.66,1,6,6,0,0,1,.08,1.24v3.2q0,.93-.45.93l-.42-.07a1.57,1.57,0,0,0-.31,0q-.59,0-.59.53t.68.6l.9-.1a6.51,6.51,0,0,1,.73,0,8.32,8.32,0,0,1,1,.07,7.34,7.34,0,0,0,.78.07.75.75,0,0,0,.49-.17.53.53,0,0,0,.2-.43.5.5,0,0,0-.16-.37.54.54,0,0,0-.38-.15l-.35,0a2.47,2.47,0,0,1-.4,0c-.25,0-.4-.19-.46-.58q0-.14,0-.87V250a4,4,0,0,0-.24-1.51,2.45,2.45,0,0,0-1.11-1.16,3.44,3.44,0,0,0-1.73-.47,3.29,3.29,0,0,0-2.72,1.29v-.48Q172.16,247.1,171.67,247.1Zm-6.95,7a2.5,2.5,0,0,1-1.79.62,2,2,0,0,1-1.27-.37,1.24,1.24,0,0,1-.47-1q0-1.24,1.93-1.43a7.83,7.83,0,0,0,1.48-.24,2.18,2.18,0,0,0,.79-.48v1.21A2.3,2.3,0,0,1,164.72,254.15Zm4.29,0v-1.05q0-.82-.55-.82t-.52.54v.83q0,1.08-.59,1.08t-.58-.59a7.25,7.25,0,0,1,0-1v-3.43q0-3-3.09-3a3.81,3.81,0,0,0-2.29.68,2,2,0,0,0-.94,1.63,1,1,0,0,0,.3.75,1,1,0,0,0,.74.31.9.9,0,0,0,.62-.22.72.72,0,0,0,.25-.56.66.66,0,0,0-.24-.58c-.1-.07-.15-.12-.15-.17s.08-.24.25-.36a2.6,2.6,0,0,1,1.43-.43,2.07,2.07,0,0,1,1.35.4,1.35,1.35,0,0,1,.48,1.1,1.09,1.09,0,0,1-.43,1,5.12,5.12,0,0,1-1.86.43q-1,.12-1.33.2a3.16,3.16,0,0,0-.79.33,2.21,2.21,0,0,0-1.21,2.07,2.23,2.23,0,0,0,.83,1.82,3.35,3.35,0,0,0,2.2.68,3.06,3.06,0,0,0,2.72-1.28,1.57,1.57,0,0,0,1.72,1.21A1.51,1.51,0,0,0,169,254.19Zm-22.68-7.07h-.05l-.41.07h-.31a5.26,5.26,0,0,1-.56,0l-.51,0q-.7,0-.7.58t.63.54l.27,0,.48-.09a.39.39,0,0,1,.42.36,12.14,12.14,0,0,1,.08,1.8v3.57q0,.83-.5.83l-.07,0-.43-.08-.1,0h-.1q-.66,0-.66.53t.68.58l.88-.07.75-.05a8.72,8.72,0,0,1,1,.07,6.14,6.14,0,0,0,.71.05q.76,0,.76-.54t-.66-.56h-.12l-.1,0a1.44,1.44,0,0,1-.36.09c-.2,0-.33-.19-.37-.58q0-.12,0-.8V251a4.06,4.06,0,0,1,.49-2.32,2,2,0,0,1,1.72-.82,1.6,1.6,0,0,1,1.42.58,3.86,3.86,0,0,1,.4,2.07V253l-.05.8q0,.87-.42.87a1.36,1.36,0,0,1-.36-.07.7.7,0,0,0-.29,0,.46.46,0,0,0-.51.53q0,.58.7.58a4.85,4.85,0,0,0,.75-.07,5,5,0,0,1,.78-.07,6.27,6.27,0,0,1,.76.07,6.24,6.24,0,0,0,.76.07q.8,0,.8-.55a.53.53,0,0,0-.16-.39.55.55,0,0,0-.4-.16l-.3,0-.3,0c-.22,0-.35-.13-.4-.4a14.72,14.72,0,0,1-.08-2V251a5.09,5.09,0,0,1,.37-2.31,1.76,1.76,0,0,1,1.68-.83,2.07,2.07,0,0,1,1.12.31,1.54,1.54,0,0,1,.67.84,5.92,5.92,0,0,1,.18,1.71v2.16a8.36,8.36,0,0,1-.09,1.45.35.35,0,0,1-.37.29.89.89,0,0,1-.27,0l-.34,0c-.36,0-.54.17-.54.51s.24.6.71.6c.19,0,.47,0,.84-.06a8.4,8.4,0,0,1,.84-.06,7.42,7.42,0,0,1,.79.06,7.65,7.65,0,0,0,.77.06q.68,0,.68-.6t-.59-.51a1.63,1.63,0,0,0-.35.06,1.58,1.58,0,0,1-.35.06c-.24,0-.38-.2-.44-.61,0-.1,0-.39,0-.85v-2.93a5.2,5.2,0,0,0-.22-1.77,2.46,2.46,0,0,0-1.17-1.29,3.62,3.62,0,0,0-1.73-.41,3.51,3.51,0,0,0-1.53.29,3.59,3.59,0,0,0-1.17,1,2.66,2.66,0,0,0-2.45-1.29,3,3,0,0,0-1.36.28,4,4,0,0,0-1.16,1v-.49C146.74,247.28,146.61,247.12,146.33,247.12Zm-13.52.43a2.38,2.38,0,0,0-.9,1.93,1.83,1.83,0,0,0,.92,1.76,7.37,7.37,0,0,0,2.67.69q1.84.19,1.84,1.34a1.31,1.31,0,0,1-.54,1.07,2.17,2.17,0,0,1-1.38.42,3.59,3.59,0,0,1-1.9-.46,1.4,1.4,0,0,1-.76-1.19,2.63,2.63,0,0,0-.11-.9q-.09-.17-.45-.17c-.36,0-.54.2-.54.59a3.21,3.21,0,0,0,.07.56,4.13,4.13,0,0,1,.07.77,3.39,3.39,0,0,1,0,.48q-.1,1-.1.88,0,.7.63.7t.58-.61v-.32a3.87,3.87,0,0,0,2.44.8,3.75,3.75,0,0,0,2.44-.76,2.43,2.43,0,0,0,.93-2q0-2-2.89-2.4l-1-.14q-1.5-.2-1.5-1.29a1.21,1.21,0,0,1,.53-1,2.11,2.11,0,0,1,1.31-.4,2.42,2.42,0,0,1,1.33.37,1.09,1.09,0,0,1,.59.88v.56a.49.49,0,0,0,.55.54q.55,0,.55-.65,0-.2,0-.59a6,6,0,0,1,0-.6,4.09,4.09,0,0,1,.06-.68c0-.27,0-.44,0-.51a.49.49,0,0,0-.56-.54q-.54,0-.54.63v.07a3,3,0,0,0-1.9-.59A3.56,3.56,0,0,0,132.82,247.55Zm-4.33,8.12a1.49,1.49,0,0,0,.36-.05l.36,0,.53.05.44,0q.71,0,.71-.58a.5.5,0,0,0-.58-.56,2,2,0,0,0-.34,0,1.94,1.94,0,0,1-.34,0q-.39,0-.48-.9,0-.12,0-1.16v-2.62a15.87,15.87,0,0,1,.08-1.91,1.63,1.63,0,0,0,0-.37c0-.36-.17-.54-.51-.54l-.41,0-.41,0-.47,0-.47,0q-.66,0-.66.58t.6.51h.51c.24,0,.38.27.44.82v2a7.69,7.69,0,0,1-.27,2.52,1.79,1.79,0,0,1-.78.88,2.49,2.49,0,0,1-1.29.33,1.75,1.75,0,0,1-1.87-1.07,6.76,6.76,0,0,1-.24-2.12v-1.1l.05-1.26v-1.46q0-.65-.53-.65l-.29,0a4.48,4.48,0,0,1-.53.05l-.5,0-.5,0q-.73,0-.73.54c0,.37.2.55.6.55l.34,0,.33,0q.5,0,.5,2.33v1.41q0,1.14,0,1.5a2.59,2.59,0,0,0,.37,1.27,3,3,0,0,0,2.79,1.24,3.09,3.09,0,0,0,2.67-1.24v.53Q128,255.67,128.49,255.67Zm-10.13-4.33a4,4,0,0,1-.71,2.52,2.33,2.33,0,0,1-1.95.91,2.2,2.2,0,0,1-1.88-.91,4.14,4.14,0,0,1-.67-2.51v-.22a3.93,3.93,0,0,1,.75-2.36,2.28,2.28,0,0,1,1.87-.83Q118.35,247.93,118.35,251.33Zm.27,3.3a4.86,4.86,0,0,0,1.11-3.33,4.77,4.77,0,0,0-1.07-3.28,3.71,3.71,0,0,0-2.92-1.21,3.66,3.66,0,0,0-2.9,1.23,5.62,5.62,0,0,0,0,6.61,3.6,3.6,0,0,0,2.86,1.23A3.72,3.72,0,0,0,118.63,254.63Zm-9.58-8.7a.92.92,0,0,0,.28-.67.89.89,0,0,0-.28-.66,1,1,0,0,0-1.34,0,.89.89,0,0,0-.28.66.95.95,0,0,0,1.62.67Zm.23,3.31q0-.92,0-1.05s0-.11,0-.2,0-.16,0-.2c0-.44-.17-.66-.49-.66l-.42,0-.42,0-.7-.07-.46,0q-.75,0-.75.58c0,.36.21.54.62.54a1.75,1.75,0,0,0,.37-.06,1.83,1.83,0,0,1,.39-.06q.43,0,.51,1.07v4.35q-.08,1.09-.5,1.09a2.41,2.41,0,0,1-.4-.05,2.34,2.34,0,0,0-.4-.05q-.58,0-.58.56t.68.58a8.8,8.8,0,0,0,.89-.08,8,8,0,0,1,1-.07,6.7,6.7,0,0,1,.83.08,6.53,6.53,0,0,0,.83.08.84.84,0,0,0,.54-.17.51.51,0,0,0,.21-.41q0-.56-.65-.56a.73.73,0,0,0-.25,0,2.58,2.58,0,0,1-.43.08q-.37,0-.46-.76,0-.15,0-1v-2.21Q109.26,249.94,109.27,249.24Zm-6.21,1.38a1,1,0,0,0,.71.26,1.12,1.12,0,0,0,.89-.41,1.54,1.54,0,0,0,.35-1,2.33,2.33,0,0,0-.9-1.88,3.44,3.44,0,0,0-2.26-.74,3.66,3.66,0,0,0-2.92,1.27,5,5,0,0,0-1.1,3.37,4.73,4.73,0,0,0,1.06,3.21,3.52,3.52,0,0,0,2.8,1.22,3.4,3.4,0,0,0,2.6-1.07,3.53,3.53,0,0,0,.65-1,2.54,2.54,0,0,0,.27-1,.64.64,0,0,0-.66-.66.59.59,0,0,0-.54.34q0,.09-.2.68a2.14,2.14,0,0,1-.76,1.17,2.07,2.07,0,0,1-1.3.42,2.18,2.18,0,0,1-1.86-.91,4.14,4.14,0,0,1-.67-2.51,4,4,0,0,1,.71-2.48,2.26,2.26,0,0,1,1.89-.93,2.13,2.13,0,0,1,1.25.34,1.32,1.32,0,0,1,.57.94q-.85.1-.85.78A.81.81,0,0,0,103.06,250.62Zm-8-4.68a.92.92,0,0,0,.28-.67.89.89,0,0,0-.28-.66,1,1,0,0,0-1.34,0,.89.89,0,0,0-.28.66.95.95,0,0,0,1.62.67Zm.23,3.31q0-.92,0-1.05s0-.11,0-.2,0-.16,0-.2c0-.44-.17-.66-.49-.66l-.42,0-.42,0-.7-.07-.46,0q-.75,0-.75.58c0,.36.21.54.62.54a1.75,1.75,0,0,0,.37-.06,1.83,1.83,0,0,1,.39-.06q.43,0,.51,1.07v4.35q-.08,1.09-.5,1.09a2.41,2.41,0,0,1-.4-.05,2.34,2.34,0,0,0-.4-.05q-.58,0-.58.56t.68.58a8.8,8.8,0,0,0,.89-.08,8,8,0,0,1,1-.07,6.7,6.7,0,0,1,.83.08,6.53,6.53,0,0,0,.83.08.84.84,0,0,0,.54-.17.51.51,0,0,0,.21-.41q0-.56-.65-.56a.73.73,0,0,0-.25,0,2.58,2.58,0,0,1-.43.08q-.37,0-.46-.76,0-.15,0-1v-2.21Q95.32,249.94,95.33,249.24ZM90.1,244.8a1.47,1.47,0,0,0,0-.25q0-.49-.39-.49a3.73,3.73,0,0,0-.51.05,3.76,3.76,0,0,1-.51.05l-.46,0-.41-.05-.32,0q-.68,0-.68.56c0,.36.19.54.58.54l.31,0,.44-.07a.48.48,0,0,1,.48.39,5.3,5.3,0,0,1,.05.68v5.68l0,1.19a7.35,7.35,0,0,1-.09,1.37.36.36,0,0,1-.39.26l-.5-.09-.15,0h-.12c-.39,0-.58.18-.58.53s.24.61.71.61h.08a7.27,7.27,0,0,0,.8-.07,7.29,7.29,0,0,1,.81-.07,8.75,8.75,0,0,1,.91.07c.4,0,.68.07.86.07q.69,0,.7-.56a.51.51,0,0,0-.57-.58l-.27,0a2.23,2.23,0,0,1-.43.08q-.45,0-.46-.87V248.5Q90,246.11,90.1,244.8Zm-9.43,3.82a2.56,2.56,0,0,1,1.73-.69,2.22,2.22,0,0,1,1.6.66,2.11,2.11,0,0,1,.68,1.56q0,.24-.36.24H80.26q-.37,0-.37-.24A2,2,0,0,1,80.67,248.62Zm4.35-.74a3.51,3.51,0,0,0-2.63-1.07,3.69,3.69,0,0,0-2.92,1.29,5,5,0,0,0-1.12,3.37,4.7,4.7,0,0,0,1.05,3.22,3.59,3.59,0,0,0,2.84,1.2,4.09,4.09,0,0,0,2.55-.86,2.46,2.46,0,0,0,1.12-2,.56.56,0,0,0-.63-.65.53.53,0,0,0-.56.41l-.15.49a1.86,1.86,0,0,1-.81,1,2.43,2.43,0,0,1-1.37.41,2.46,2.46,0,0,1-1.9-.85,3.06,3.06,0,0,1-.76-2.12.25.25,0,0,1,.07-.2.48.48,0,0,1,.29-.06h5.41q.41,0,.49-.14a2.1,2.1,0,0,0,.08-.79A3.75,3.75,0,0,0,85,247.88Zm-11.34,6.35a2.46,2.46,0,0,1-3.46-.39,4.11,4.11,0,0,1-.7-2.54,4,4,0,0,1,.68-2.46,2.21,2.21,0,0,1,1.88-.9,2.41,2.41,0,0,1,1.57.56,2.13,2.13,0,0,1,.74,1.33,9.07,9.07,0,0,1,.09,1.55,12.53,12.53,0,0,1-.07,1.45A2.14,2.14,0,0,1,73.67,254.23ZM69.17,248a5.72,5.72,0,0,0,0,6.59A3.44,3.44,0,0,0,72,255.89a3.06,3.06,0,0,0,2.61-1.21v.37c0,.41.15.61.46.61a1.49,1.49,0,0,0,.36-.05l.39,0,.52,0,.52,0q.77,0,.77-.58t-.64-.56l-.38,0a1.32,1.32,0,0,1-.35,0,.39.39,0,0,1-.42-.27,6.76,6.76,0,0,1-.1-1.4v-4.51q0-.44,0-1.29.05-1.21.05-1.31c0-.57,0-.87,0-.9v-.19q0-.68-.48-.68a3.26,3.26,0,0,0-.44,0l-.44,0-.56-.05-.49,0q-.85,0-.85.56t.63.54a2,2,0,0,0,.38-.05A2,2,0,0,1,74,245q.39,0,.48.53a5.68,5.68,0,0,1,0,.83v1.72a2.78,2.78,0,0,0-2.52-1.31A3.44,3.44,0,0,0,69.17,248Z"/></g></g></svg>