<svg xmlns="http://www.w3.org/2000/svg" viewBox="0 0 273 273"><defs><style>.cls-1{fill:#fff;}.cls-2{fill:#f2ebe2;}.cls-3{fill:#cf2027;}.cls-4{fill:#82602d;}.cls-5{fill:#b69258;}.cls-6{fill:#c1e1bd;}.cls-7{fill:#231f20;}</style></defs><title>oreo</title><g id="Layer_2" data-name="Layer 2"><g id="Layer_1-2" data-name="Layer 1"><rect class="cls-1" width="273" height="273"/><circle class="cls-2" cx="136.5" cy="129.31" r="58.87"/><path class="cls-3" d="M135.51,130.8a2.69,2.69,0,0,0-1.68.54,2.71,2.71,0,0,0-4.43,2c0,1.5,4.44,6.28,4.44,6.28s4.29-4.59,4.33-6.09A2.71,2.71,0,0,0,135.51,130.8Z"/><path class="cls-4" d="M151.4,129.2s-18.14,32.22-21.93,35.36c0,0-6.28,9.63-7.16-2,0,0,1.13-30.82,3.33-40.68S158.51,126.22,151.4,129.2Z"/><polygon class="cls-5" points="149.33 129.54 148.03 131.69 144.97 127.05 149.33 129.54"/><polygon class="cls-5" points="126.65 127.13 127.51 120.8 137.81 122.02 135.5 126.22 128.09 127.54 126.65 127.13"/><polygon class="cls-5" points="146.81 134.03 142 126.84 138.12 127.2 130.52 129.07 141.56 138.98 143.97 139.44 146.81 134.03"/><path class="cls-5" d="M138.62,138.67s-7.63-8-11.54-8.29l-.71.21-1.11,8.19,1.4,1.46S136.22,138.85,138.62,138.67Z"/><path class="cls-5" d="M141.8,142.93l-.92-1.56s-7.79-.82-12.06.78c0,0,6.29,7.55,6.25,8.95l1.84.12Z"/><path class="cls-5" d="M132.84,151.16s-5.88-8.26-6.64-8.3a2.49,2.49,0,0,0-1.24.23s-.81,9-.54,9.47S126.54,151.53,132.84,151.16Z"/><path class="cls-5" d="M134.22,155.08l-.53-1.44a27.31,27.31,0,0,0-9.12,1.5s-.94,9.24.49,10.59S134.22,155.08,134.22,155.08Z"/><path class="cls-6" d="M118.42,106.33c.76-2.66,4.09-4.12,7.93-3.7,0-.21.1-.41.16-.62,2.54-8.89,12.57-13.81,22.4-11s15.74,12.3,13.19,21.18a15.24,15.24,0,0,1-1.51,3.52c2.89,2.15,4.39,5.3,3.56,8.2-1.17,4.11-6.57,6.16-12.05,4.59a13.49,13.49,0,0,1-2.9-1.21,9.57,9.57,0,0,1-8.73,1.75,9.71,9.71,0,0,1-5-3.34,6.37,6.37,0,0,1-3-3.74,13.67,13.67,0,0,1-5.85-.43c-5-1.44-8.41-5.12-7.52-8.22a3.9,3.9,0,0,1,1.11-1.77C118.64,110,117.92,108.07,118.42,106.33Z"/><path class="cls-3" d="M131.38,131a3,3,0,0,1,1.88.64A3,3,0,0,1,138.2,134c0,1.68-5.09,7-5.09,7s-4.74-5.23-4.75-6.91A3,3,0,0,1,131.38,131Z"/><rect class="cls-1" x="126.34" y="111.52" width="1.05" height="3.94" rx="0.48" ry="0.48" transform="translate(-27.18 41.07) rotate(-16.64)"/><rect class="cls-7" x="127.16" y="111.27" width="1.05" height="3.94" rx="0.48" ry="0.48" transform="translate(-27.08 41.3) rotate(-16.64)"/><rect class="cls-7" x="125.44" y="111.79" width="1.05" height="3.94" rx="0.48" ry="0.48" transform="matrix(0.96, -0.29, 0.29, 0.96, -27.3, 40.82)"/><path class="cls-1" d="M129.4,105.47l1.28-1.8a.44.44,0,0,0-.1-.61l-.07,0a.44.44,0,0,0-.61.1l-1.28,1.8a.44.44,0,0,0,.1.61l.07,0A.44.44,0,0,0,129.4,105.47Z"/><path class="cls-7" d="M128.76,105l1.28-1.8a.44.44,0,0,0-.1-.61l-.07,0a.44.44,0,0,0-.61.1l-1.28,1.8a.44.44,0,0,0,.1.61l.07,0A.44.44,0,0,0,128.76,105Z"/><path class="cls-7" d="M130.1,106l1.28-1.8a.44.44,0,0,0-.1-.61l-.07,0a.44.44,0,0,0-.61.1l-1.28,1.8a.44.44,0,0,0,.1.61l.07,0A.44.44,0,0,0,130.1,106Z"/><path class="cls-1" d="M135.18,119.54l2.19.25a.44.44,0,0,0,.49-.39v-.08a.44.44,0,0,0-.39-.49l-2.19-.25a.44.44,0,0,0-.49.39V119A.44.44,0,0,0,135.18,119.54Z"/><path class="cls-7" d="M135.27,118.75l2.19.25a.44.44,0,0,0,.49-.39v-.08a.44.44,0,0,0-.39-.49l-2.19-.25a.44.44,0,0,0-.49.39v.08A.44.44,0,0,0,135.27,118.75Z"/><path class="cls-7" d="M135.08,120.39l2.19.25a.44.44,0,0,0,.49-.39v-.08a.44.44,0,0,0-.39-.49l-2.19-.25a.44.44,0,0,0-.49.39v.08A.44.44,0,0,0,135.08,120.39Z"/><rect class="cls-1" x="148.09" y="100.94" width="5.58" height="0.96" rx="0.44" ry="0.44" transform="translate(-30.19 85.12) rotate(-28.76)"/><rect class="cls-7" x="147.72" y="100.25" width="5.58" height="0.96" rx="0.44" ry="0.44" transform="translate(-29.9 84.84) rotate(-28.76)"/><rect class="cls-7" x="148.51" y="101.7" width="5.58" height="0.96" rx="0.44" ry="0.44" transform="translate(-30.5 85.38) rotate(-28.75)"/><path class="cls-1" d="M138.07,96.22l3,1a.3.3,0,0,0,.37-.19l0-.05a.3.3,0,0,0-.19-.37l-3-1a.3.3,0,0,0-.37.19l0,.05A.3.3,0,0,0,138.07,96.22Z"/><path class="cls-7" d="M138.23,95.71l3,1a.3.3,0,0,0,.37-.19l0-.05a.3.3,0,0,0-.19-.37l-3-1a.3.3,0,0,0-.37.19l0,.05A.3.3,0,0,0,138.23,95.71Z"/><path class="cls-7" d="M137.88,96.76l3,1a.3.3,0,0,0,.37-.19l0-.05a.3.3,0,0,0-.19-.37l-3-1a.3.3,0,0,0-.37.19l0,.05A.3.3,0,0,0,137.88,96.76Z"/><path class="cls-1" d="M137.12,107.82l2,1.89a.5.5,0,0,0,.7,0l.06-.07a.5.5,0,0,0,0-.7l-2-1.89a.5.5,0,0,0-.7,0l-.06.07A.5.5,0,0,0,137.12,107.82Z"/><path class="cls-7" d="M137.72,107.17l2,1.89a.49.49,0,0,0,.7,0l.06-.07a.5.5,0,0,0,0-.7l-2-1.89a.5.5,0,0,0-.7,0l-.06.07A.5.5,0,0,0,137.72,107.17Z"/><path class="cls-7" d="M136.46,108.53l2,1.89a.5.5,0,0,0,.7,0l.06-.07a.5.5,0,0,0,0-.7l-2-1.89a.5.5,0,0,0-.7,0l-.06.07A.5.5,0,0,0,136.46,108.53Z"/><path class="cls-1" d="M145.49,119.39l2.63.87a.49.49,0,0,0,.63-.31l0-.09a.5.5,0,0,0-.31-.62l-2.63-.87a.5.5,0,0,0-.62.31l0,.09A.5.5,0,0,0,145.49,119.39Z"/><path class="cls-7" d="M145.77,118.55l2.63.87a.5.5,0,0,0,.63-.31l0-.09a.5.5,0,0,0-.31-.62l-2.63-.87a.5.5,0,0,0-.62.31l0,.09A.5.5,0,0,0,145.77,118.55Z"/><path class="cls-7" d="M145.19,120.31l2.63.87a.5.5,0,0,0,.63-.31l0-.09a.5.5,0,0,0-.31-.62l-2.63-.87a.5.5,0,0,0-.62.31l0,.09A.5.5,0,0,0,145.19,120.31Z"/><path class="cls-1" d="M157.12,117.34l1.32,2.64a.4.4,0,0,0,.54.18l.07,0a.4.4,0,0,0,.18-.54l-1.32-2.64a.41.41,0,0,0-.54-.18l-.07,0A.41.41,0,0,0,157.12,117.34Z"/><rect class="cls-7" x="158.39" y="116.26" width="0.88" height="3.76" rx="0.4" ry="0.4" transform="translate(-36.1 83.67) rotate(-26.62)"/><path class="cls-7" d="M157.44,116.94h.07a.4.4,0,0,1,.4.4v3a.4.4,0,0,1-.4.4h-.07a.41.41,0,0,1-.41-.41v-2.95A.4.4,0,0,1,157.44,116.94Z" transform="translate(-36.54 83.11) rotate(-26.61)"/><path class="cls-1" d="M149.72,111.39l2.8-1.48a.3.3,0,0,0,.12-.4l0,0a.3.3,0,0,0-.4-.12l-2.8,1.48a.3.3,0,0,0-.12.4l0,0A.3.3,0,0,0,149.72,111.39Z"/><path class="cls-7" d="M149.47,110.92l2.8-1.48a.3.3,0,0,0,.12-.4l0,0a.3.3,0,0,0-.4-.12l-2.8,1.48a.3.3,0,0,0-.12.4l0,0A.3.3,0,0,0,149.47,110.92Z"/><path class="cls-7" d="M150,111.9l2.8-1.48a.3.3,0,0,0,.12-.4l0,0a.3.3,0,0,0-.4-.12l-2.8,1.48a.3.3,0,0,0-.12.4l0,0A.3.3,0,0,0,150,111.9Z"/><path class="cls-7" d="M200,28.26q.11-.19.67-.19h2.21a1.28,1.28,0,0,0,1.46-1.43q0-1.49-1.59-1.49h-1.94c-.42,0-.67-.06-.77-.19a1.91,1.91,0,0,1-.15-1V22.53a1.52,1.52,0,0,0-.34-1.19,2.17,2.17,0,0,0-1.28-.27,3.37,3.37,0,0,0-1.82.35,1.48,1.48,0,0,0-.5,1.3V24a2.31,2.31,0,0,1-.08.73q-.11.38-.76.38h-.51a1,1,0,0,0-.8.45,1.71,1.71,0,0,0-.34,1.07,1.53,1.53,0,0,0,.32,1,1,1,0,0,0,.84.39h.43q.46,0,.58.18a1.81,1.81,0,0,1,.12.85V30q0,.76-.07,2.27t-.07,2.27q0,4.7,4.46,4.7a4.94,4.94,0,0,0,3.54-1.2,4.37,4.37,0,0,0,1.27-3.33q0-2.73-1.7-2.73a1.29,1.29,0,0,0-1.46,1.46,2.24,2.24,0,0,0,0,.27V34a1.45,1.45,0,0,1,0,.32q0,1.43-1,1.43t-1-1.59q0,.16,0-.73l.05-1.81,0-1.67V28.85A1.24,1.24,0,0,1,200,28.26Zm-19.17-3.11-.86.11a9.31,9.31,0,0,1-1.11.11,3.58,3.58,0,0,1-.7-.08,6.39,6.39,0,0,0-.92-.13,1.48,1.48,0,0,0-1.17.51,2,2,0,0,0-.45,1.32q0,1.49,1.3,1.49a1.77,1.77,0,0,0,.47-.09,1.83,1.83,0,0,1,.42-.09q.46,0,.46,1.54V34.2q0,1.51-.46,1.51a1.39,1.39,0,0,1-.41-.09,1.47,1.47,0,0,0-.49-.09q-1.3,0-1.3,1.51,0,1.81,1.7,1.81a14.35,14.35,0,0,0,1.44-.11,14.31,14.31,0,0,1,1.44-.11,12.34,12.34,0,0,1,1.49.14,7.65,7.65,0,0,0,1,.08q1.43,0,1.43-1.7,0-1.32-1-1.46c-.34-.05-.55-.17-.62-.34a5.49,5.49,0,0,1-.11-1.47V31.06a2.68,2.68,0,0,1,.72-1.92,2.4,2.4,0,0,1,1.82-.76,1.51,1.51,0,0,1,1.38.63,4.34,4.34,0,0,1,.41,2.2V35q0,.62-.73.67-1.11.08-1.11,1.51a1.43,1.43,0,0,0,1.59,1.65,9.26,9.26,0,0,0,1.24-.11,10.23,10.23,0,0,1,1.43-.11,11.65,11.65,0,0,1,1.3.11,11.65,11.65,0,0,0,1.3.11q1.62,0,1.62-1.86,0-1.4-1.19-1.4a1.17,1.17,0,0,0-.41.05,1.54,1.54,0,0,1-.41.08q-.54,0-.54-1.38v-4a7.09,7.09,0,0,0-.62-3.4,4.15,4.15,0,0,0-4-2.11,6.09,6.09,0,0,0-4.7,2.43v-1.3Q181.6,25.15,180.87,25.15Zm-8.73-1.74a2.45,2.45,0,1,0-1.74.71A2.37,2.37,0,0,0,172.14,23.41Zm-1,1.85a8.41,8.41,0,0,1-1.19.11,11.27,11.27,0,0,1-1.51-.13,6.68,6.68,0,0,0-.86-.08,1.57,1.57,0,0,0-1.21.5,1.86,1.86,0,0,0-.46,1.31q0,1.51,1.3,1.51a2.23,2.23,0,0,0,.43-.05,2.61,2.61,0,0,1,.49-.13q.46,0,.46,1.54V34.2q0,1.51-.49,1.51l-.19,0-.7-.16q-1.3,0-1.3,1.54a1.82,1.82,0,0,0,.46,1.28,1.54,1.54,0,0,0,1.19.5,13.89,13.89,0,0,0,1.4-.11,14,14,0,0,1,1.43-.11,16.46,16.46,0,0,1,1.73.08q1.24.13,1.51.14,1.59,0,1.59-1.86,0-1.4-1.13-1.4a2.16,2.16,0,0,0-.47.07,2,2,0,0,1-.39.07q-.51,0-.51-1.38V26.2q0-1.05-.76-1.05Zm-22.9-4.32a1.18,1.18,0,0,0-.95-.32,12.32,12.32,0,0,0-1.4.11,21,21,0,0,1-2.54.16q-.76,0-2.27-.14t-2.16-.13a1.75,1.75,0,0,0-2,2,1.94,1.94,0,0,0,.42,1.27,1.29,1.29,0,0,0,1,.51,3.16,3.16,0,0,0,.66-.09,3.17,3.17,0,0,1,.63-.09q.54,0,.67.7A6.72,6.72,0,0,1,140.4,26v7.48a7.31,7.31,0,0,1-.05,1.13q-.13.7-.67.7a3.12,3.12,0,0,1-.63-.09,3.19,3.19,0,0,0-.63-.09,1.33,1.33,0,0,0-1.07.5,1.93,1.93,0,0,0-.42,1.28,2,2,0,0,0,.54,1.43,1.82,1.82,0,0,0,1.38.57l1.67-.22A12.08,12.08,0,0,1,142,38.6q.73,0,1.3.05l.95.13a7.36,7.36,0,0,0,1,.08,1.66,1.66,0,0,0,1.3-.54,2.1,2.1,0,0,0,.49-1.46q0-1.65-1.08-1.65a.84.84,0,0,0-.24,0h-.16l-.16,0a.42.42,0,0,1-.3-.08q-.24-.16-.24-1.43V23.59l3.59,13.47q.41,1.54,1.49,1.54h1.73q1.11,0,1.59-1.73L157,23.59V33.77c0,.43,0,.74,0,.92-.05.4-.23.59-.51.59l-.13,0h-.19a.84.84,0,0,0-.24,0q-1.11,0-1.11,1.67a2,2,0,0,0,.5,1.43,1.7,1.7,0,0,0,1.31.54,12.32,12.32,0,0,0,1.51-.13,10.14,10.14,0,0,1,3.13,0,15,15,0,0,0,1.73.16,2,2,0,0,0,1.43-.53,2.15,2.15,0,0,0,.11-2.71,1.33,1.33,0,0,0-1.05-.51,3.39,3.39,0,0,0-.65.09,3.31,3.31,0,0,1-.65.09q-.7,0-.7-1.84V26q0-1.81.73-1.81a3.36,3.36,0,0,1,.62.09,3.35,3.35,0,0,0,.67.09,1.29,1.29,0,0,0,1-.51,1.94,1.94,0,0,0,.42-1.27,1.92,1.92,0,0,0-.54-1.44,2,2,0,0,0-1.43-.53c-.23,0-.59,0-1.08.05q-2.56.22-3.21.22a17.92,17.92,0,0,1-1.84-.14,18.1,18.1,0,0,0-1.81-.13,1.27,1.27,0,0,0-1,.45,4.43,4.43,0,0,0-.66,1.63L151,32.15l-2.24-9.86A3.64,3.64,0,0,0,148.23,20.94Zm-23.6,11q0,3.89-2.51,3.89a2.2,2.2,0,0,1-1.93-1A5.1,5.1,0,0,1,119.5,32a5.11,5.11,0,0,1,.69-2.85,2.14,2.14,0,0,1,1.88-1Q124.63,28.1,124.63,32Zm2.55,5.26a7.65,7.65,0,0,0,1.8-5.4,7.1,7.1,0,0,0-1.85-5.18,6.76,6.76,0,0,0-5.06-1.89,6.67,6.67,0,0,0-5.08,1.9A7.39,7.39,0,0,0,115.18,32,7.35,7.35,0,0,0,117,37.3a6.85,6.85,0,0,0,5.17,1.89A6.48,6.48,0,0,0,127.19,37.25ZM105.46,28.5a2.15,2.15,0,0,1,1.75-.84,2.19,2.19,0,0,1,1.46.53,1.57,1.57,0,0,1,.62,1.23.47.47,0,0,1-.09.34.81.81,0,0,1-.5.09h-3q-.49,0-.57-.11a.43.43,0,0,1-.08-.27A1.63,1.63,0,0,1,105.46,28.5Zm6.44-2.08a6.33,6.33,0,0,0-4.58-1.65,6.54,6.54,0,0,0-5,2,7.36,7.36,0,0,0-1.9,5.28,7.06,7.06,0,0,0,1.92,5.18,6.88,6.88,0,0,0,5.13,1.94,7.59,7.59,0,0,0,4.17-1.09,3.14,3.14,0,0,0,1.71-2.66,1.51,1.51,0,0,0-.5-1.16,1.86,1.86,0,0,0-1.31-.46,2.41,2.41,0,0,0-1.78.86,3.33,3.33,0,0,1-2.32,1.24,2.44,2.44,0,0,1-1.84-.76,2.61,2.61,0,0,1-.73-1.89q0-.38.12-.47a1.19,1.19,0,0,1,.61-.09h6.59a1.34,1.34,0,0,0,1.12-.38,2.74,2.74,0,0,0,.28-1.51A5.82,5.82,0,0,0,111.9,26.42ZM91.42,25.15a5.93,5.93,0,0,0-.92.11,6,6,0,0,1-.95.11,4.22,4.22,0,0,1-.92-.11,3.73,3.73,0,0,0-.76-.11,1.38,1.38,0,0,0-1.11.51A2,2,0,0,0,86.35,27q0,1.49,1.3,1.49a1.77,1.77,0,0,0,.47-.09,1.83,1.83,0,0,1,.42-.09q.46,0,.46,1.54V34.2q0,1.51-.46,1.51a1.39,1.39,0,0,1-.41-.09,1.47,1.47,0,0,0-.49-.09q-1.3,0-1.3,1.51,0,1.81,1.67,1.81.3,0,1.59-.14a17.89,17.89,0,0,1,1.81-.08,14.77,14.77,0,0,1,1.7.08q1.11.13,1.51.14a1.74,1.74,0,0,0,1.28-.53A1.78,1.78,0,0,0,96.45,37,1.43,1.43,0,0,0,95,35.57a2.94,2.94,0,0,0-.65.11,3,3,0,0,1-.67.11.42.42,0,0,1-.38-.16,2.92,2.92,0,0,1-.16-1.24v-1a11.75,11.75,0,0,1,.49-3.54,2.41,2.41,0,0,1,2.43-1.92h.16A2.53,2.53,0,0,0,95.88,29a1.55,1.55,0,0,0,.53,1.19,1.82,1.82,0,0,0,1.28.49,2.12,2.12,0,0,0,1.65-.72A2.61,2.61,0,0,0,100,28.1a3.13,3.13,0,0,0-1-2.36,3.5,3.5,0,0,0-2.5-1,4,4,0,0,0-3.32,1.49,5.8,5.8,0,0,0-.89,2V26A.74.74,0,0,0,91.42,25.15Zm-12.16.26a9.14,9.14,0,0,1,.82,4.47q0,5.56-3.48,5.56a2.9,2.9,0,0,1-2.81-1.65,9.28,9.28,0,0,1-.67-4q0-5.72,3.51-5.72A2.83,2.83,0,0,1,79.26,25.41Zm3.64,11.26a10.46,10.46,0,0,0,2.23-7.11,9.67,9.67,0,0,0-2.29-6.86,8.33,8.33,0,0,0-6.4-2.46,7.77,7.77,0,0,0-6.14,2.52,10.11,10.11,0,0,0-2.23,6.93q0,4.56,2.24,7a8.11,8.11,0,0,0,6.35,2.48A7.86,7.86,0,0,0,82.91,36.67Z"/><path class="cls-7" d="M186.3,47.85A4.34,4.34,0,0,0,185,51.14a4.28,4.28,0,0,0,.46,2,2.89,2.89,0,0,0,1.26,1.28,12.11,12.11,0,0,0,2.71.81l1.57.32q1.57.32,1.57,1.16,0,1.21-1.94,1.21a3.57,3.57,0,0,1-1.67-.31,4.07,4.07,0,0,1-1.24-1.31,2.78,2.78,0,0,0-.81-.84,2.28,2.28,0,0,0-1.11-.22q-1.51,0-1.51,1.21,0,.24,0,.73t0,.73c0,.18,0,.46-.05.84s-.05.66-.05.84q0,1.19,1.46,1.19A1.18,1.18,0,0,0,187,59.48,6.87,6.87,0,0,0,191.34,61a5.8,5.8,0,0,0,4-1.38,4.36,4.36,0,0,0,1.58-3.43,3.88,3.88,0,0,0-.67-2.27,3.57,3.57,0,0,0-1.39-1.16,11.18,11.18,0,0,0-2.63-.73,15.62,15.62,0,0,1-2.7-.61.81.81,0,0,1-.51-.8q0-1.08,1.57-1.08a2.71,2.71,0,0,1,2.24,1.24,2.18,2.18,0,0,0,1.78,1A1.27,1.27,0,0,0,196,50.39v-.73c0-.23,0-.38,0-.43a5.64,5.64,0,0,1,.08-.92,2.84,2.84,0,0,0,.11-.73q0-1-1.38-1t-1.46,1.13a5.4,5.4,0,0,0-3.51-1.16A4.87,4.87,0,0,0,186.3,47.85Zm-13.77,0a4.34,4.34,0,0,0-1.34,3.29,4.28,4.28,0,0,0,.46,2,2.89,2.89,0,0,0,1.26,1.28,12.11,12.11,0,0,0,2.71.81l1.57.32q1.57.32,1.57,1.16,0,1.21-1.94,1.21a3.57,3.57,0,0,1-1.67-.31,4.07,4.07,0,0,1-1.24-1.31,2.78,2.78,0,0,0-.81-.84,2.28,2.28,0,0,0-1.11-.22q-1.51,0-1.51,1.21,0,.24,0,.73t0,.73c0,.18,0,.46-.05.84s-.05.66-.05.84q0,1.19,1.46,1.19a1.18,1.18,0,0,0,1.35-1.32A6.87,6.87,0,0,0,177.57,61a5.8,5.8,0,0,0,4-1.38,4.36,4.36,0,0,0,1.58-3.43,3.88,3.88,0,0,0-.67-2.27A3.57,3.57,0,0,0,181,52.76a11.18,11.18,0,0,0-2.63-.73,15.62,15.62,0,0,1-2.7-.61.81.81,0,0,1-.51-.8q0-1.08,1.57-1.08A2.71,2.71,0,0,1,179,50.79a2.18,2.18,0,0,0,1.78,1,1.27,1.27,0,0,0,1.43-1.43v-.73c0-.23,0-.38,0-.43a5.64,5.64,0,0,1,.08-.92,2.84,2.84,0,0,0,.11-.73q0-1-1.38-1t-1.46,1.13A5.4,5.4,0,0,0,176,46.58,4.87,4.87,0,0,0,172.53,47.85Zm-11.6,2.46a2.15,2.15,0,0,1,1.75-.84,2.19,2.19,0,0,1,1.46.53,1.57,1.57,0,0,1,.62,1.23.47.47,0,0,1-.09.34.81.81,0,0,1-.5.09h-3q-.49,0-.57-.11a.43.43,0,0,1-.08-.27A1.63,1.63,0,0,1,160.94,50.3Zm6.44-2.08a6.33,6.33,0,0,0-4.58-1.65,6.54,6.54,0,0,0-5,2,7.36,7.36,0,0,0-1.9,5.28,7.06,7.06,0,0,0,1.92,5.18A6.88,6.88,0,0,0,163,61a7.59,7.59,0,0,0,4.17-1.09,3.14,3.14,0,0,0,1.71-2.66,1.51,1.51,0,0,0-.5-1.16,1.86,1.86,0,0,0-1.31-.46,2.41,2.41,0,0,0-1.78.86,3.33,3.33,0,0,1-2.32,1.24A2.44,2.44,0,0,1,161.1,57a2.61,2.61,0,0,1-.73-1.89q0-.38.12-.47a1.19,1.19,0,0,1,.61-.09h6.59a1.34,1.34,0,0,0,1.12-.38,2.74,2.74,0,0,0,.28-1.51A5.82,5.82,0,0,0,167.38,48.23ZM142.6,47l-.86.11a9.31,9.31,0,0,1-1.11.11,3.58,3.58,0,0,1-.7-.08A6.39,6.39,0,0,0,139,47a1.48,1.48,0,0,0-1.17.51,2,2,0,0,0-.45,1.32q0,1.49,1.3,1.49a1.77,1.77,0,0,0,.47-.09,1.83,1.83,0,0,1,.42-.09q.46,0,.46,1.54V56q0,1.51-.46,1.51a1.39,1.39,0,0,1-.41-.09,1.47,1.47,0,0,0-.49-.09q-1.3,0-1.3,1.51,0,1.81,1.7,1.81a14.35,14.35,0,0,0,1.44-.11,14.31,14.31,0,0,1,1.44-.11,12.34,12.34,0,0,1,1.49.14,7.65,7.65,0,0,0,1,.08q1.43,0,1.43-1.7,0-1.32-1-1.46c-.34-.05-.55-.17-.62-.34a5.49,5.49,0,0,1-.11-1.47V52.87a2.68,2.68,0,0,1,.72-1.92,2.4,2.4,0,0,1,1.82-.76,1.51,1.51,0,0,1,1.38.63,4.34,4.34,0,0,1,.41,2.2v3.78q0,.62-.73.67-1.11.08-1.11,1.51a1.43,1.43,0,0,0,1.59,1.65,9.26,9.26,0,0,0,1.24-.11,10.23,10.23,0,0,1,1.43-.11,11.65,11.65,0,0,1,1.3.11,11.65,11.65,0,0,0,1.3.11q1.62,0,1.62-1.86,0-1.4-1.19-1.4a1.17,1.17,0,0,0-.41.05,1.54,1.54,0,0,1-.41.08q-.54,0-.54-1.38v-4a7.09,7.09,0,0,0-.62-3.4,4.15,4.15,0,0,0-4-2.11,6.09,6.09,0,0,0-4.7,2.43v-1.3Q143.33,47,142.6,47Zm-13.47,4.21a4.39,4.39,0,0,1,.73,2.65,4.55,4.55,0,0,1-.74,2.73,2.28,2.28,0,0,1-1.93,1,2,2,0,0,1-1.71-.95,4.6,4.6,0,0,1-.63-2.59v-.35a5,5,0,0,1,.72-2.56,1.9,1.9,0,0,1,1.63-.95A2.29,2.29,0,0,1,129.13,51.17Zm-7-2.46a7.84,7.84,0,0,0-1.58,5.1A8.06,8.06,0,0,0,122.12,59a5,5,0,0,0,4.09,2,4.57,4.57,0,0,0,4.21-2.4v1q0,1,.84,1l.73-.08a10.19,10.19,0,0,1,1.16-.05,5.91,5.91,0,0,1,.92.05l.94.16h.16a1.29,1.29,0,0,0,1.08-.53,2.17,2.17,0,0,0,.41-1.36q0-1.38-1.16-1.38a1.43,1.43,0,0,0-.43.05,1.31,1.31,0,0,1-.41.08q-.51,0-.51-1.38V43.85a1.87,1.87,0,0,0-.26-1.15,1.16,1.16,0,0,0-.93-.31q-.32,0-1,.05t-1,.05q-.38,0-1.46-.11-.27,0-.86,0-1.84,0-1.84,1.73a1.65,1.65,0,0,0,.35,1.08,1.08,1.08,0,0,0,.86.43,2.37,2.37,0,0,0,.7-.11l.65-.05q.68,0,.68,1v1.94a5.47,5.47,0,0,0-3.78-1.59A5.08,5.08,0,0,0,122.1,48.71Zm-11.49,9q-1.46,0-1.46-1.24,0-.78,1.49-1.16a24.12,24.12,0,0,0,2.38-.67v.59A2.16,2.16,0,0,1,110.61,57.7ZM119,60.43a1.72,1.72,0,0,0,.8-1.46,1.47,1.47,0,0,0-1.49-1.48l-.19,0a2.78,2.78,0,0,1-.41,0q-.43,0-.43-.86V51.09q0-2.65-1.54-3.62a8.39,8.39,0,0,0-4.35-.89,9,9,0,0,0-4.24.84,2.55,2.55,0,0,0-1.54,2.29,2.11,2.11,0,0,0,.7,1.62,2.53,2.53,0,0,0,1.78.65,2.43,2.43,0,0,0,1.58-.51,1.57,1.57,0,0,0,.63-1.27v-.11a2.59,2.59,0,0,1,0-.38q0-.57.89-.57a2,2,0,0,1,1.31.42,1.28,1.28,0,0,1,.53,1,1.4,1.4,0,0,1-.69,1.28,8.24,8.24,0,0,1-2.61.74,17.27,17.27,0,0,0-2.43.59,3.49,3.49,0,0,0-2.46,3.67,3.78,3.78,0,0,0,1.27,3,5,5,0,0,0,3.4,1.12A6.31,6.31,0,0,0,114,59.21a2.91,2.91,0,0,0,3,1.78A3.44,3.44,0,0,0,119,60.43ZM86.85,42.74a1.18,1.18,0,0,0-.95-.32,12.32,12.32,0,0,0-1.4.11,21,21,0,0,1-2.54.16q-.76,0-2.27-.14t-2.16-.13a1.75,1.75,0,0,0-2,2A1.94,1.94,0,0,0,76,45.66a1.29,1.29,0,0,0,1,.51,3.16,3.16,0,0,0,.66-.09,3.17,3.17,0,0,1,.63-.09q.54,0,.67.7A6.72,6.72,0,0,1,79,47.79v7.48A7.31,7.31,0,0,1,79,56.41q-.13.7-.67.7a3.12,3.12,0,0,1-.63-.09,3.19,3.19,0,0,0-.63-.09,1.33,1.33,0,0,0-1.07.5,1.93,1.93,0,0,0-.42,1.28,2,2,0,0,0,.54,1.43,1.82,1.82,0,0,0,1.38.57l1.67-.22a12.08,12.08,0,0,1,1.54-.08q.73,0,1.3.05l.95.13a7.36,7.36,0,0,0,1,.08,1.66,1.66,0,0,0,1.3-.54,2.1,2.1,0,0,0,.49-1.46q0-1.65-1.08-1.65a.84.84,0,0,0-.24,0h-.16l-.16,0a.42.42,0,0,1-.3-.08q-.24-.16-.24-1.43V45.39l3.59,13.47q.41,1.54,1.49,1.54h1.73q1.11,0,1.59-1.73l3.75-13.28V55.57c0,.43,0,.74,0,.92-.05.4-.23.59-.51.59l-.13,0h-.19a.84.84,0,0,0-.24,0q-1.11,0-1.11,1.67a2,2,0,0,0,.5,1.43,1.7,1.7,0,0,0,1.31.54,12.32,12.32,0,0,0,1.51-.13,10.14,10.14,0,0,1,3.13,0,15,15,0,0,0,1.73.16,2,2,0,0,0,1.43-.53,2.15,2.15,0,0,0,.11-2.71,1.33,1.33,0,0,0-1.05-.51,3.39,3.39,0,0,0-.65.09,3.31,3.31,0,0,1-.65.09q-.7,0-.7-1.84V47.79q0-1.81.73-1.81a3.36,3.36,0,0,1,.62.09,3.35,3.35,0,0,0,.67.09,1.29,1.29,0,0,0,1-.51,1.94,1.94,0,0,0,.42-1.27,1.92,1.92,0,0,0-.54-1.44,2,2,0,0,0-1.43-.53c-.23,0-.59,0-1.08.05q-2.56.22-3.21.22a17.92,17.92,0,0,1-1.84-.14,18.1,18.1,0,0,0-1.81-.13,1.27,1.27,0,0,0-1,.45A4.43,4.43,0,0,0,92,44.5L89.6,53.95l-2.24-9.86A3.64,3.64,0,0,0,86.85,42.74Z"/><path class="cls-7" d="M235.12,213.14a1.68,1.68,0,0,0,.5-1.22,1.72,1.72,0,1,0-3.43,0,1.68,1.68,0,0,0,.5,1.22,1.7,1.7,0,0,0,2.43,0Zm-11-7.77a2.73,2.73,0,0,0-.84,2.07,2.7,2.7,0,0,0,.29,1.27,1.81,1.81,0,0,0,.79.81A7.61,7.61,0,0,0,226,210l1,.2q1,.2,1,.73,0,.77-1.22.77a2.25,2.25,0,0,1-1.05-.2,2.56,2.56,0,0,1-.78-.83,1.76,1.76,0,0,0-.51-.53,1.43,1.43,0,0,0-.7-.14q-1,0-1,.77c0,.1,0,.25,0,.46s0,.36,0,.46,0,.29,0,.53,0,.41,0,.53q0,.75.92.75a.74.74,0,0,0,.85-.83,4.32,4.32,0,0,0,2.72,1,3.65,3.65,0,0,0,2.49-.87,2.75,2.75,0,0,0,1-2.16,2.44,2.44,0,0,0-.42-1.43,2.25,2.25,0,0,0-.88-.73,7.06,7.06,0,0,0-1.66-.46,9.83,9.83,0,0,1-1.7-.38.51.51,0,0,1-.32-.5q0-.68,1-.68a1.71,1.71,0,0,1,1.41.78,1.38,1.38,0,0,0,1.12.65.8.8,0,0,0,.9-.9v-.46q0-.22,0-.27a3.62,3.62,0,0,1,.05-.58,1.78,1.78,0,0,0,.07-.46q0-.61-.87-.61t-.92.71a3.39,3.39,0,0,0-2.21-.73A3.07,3.07,0,0,0,224.08,205.37Zm-8.67,0a2.73,2.73,0,0,0-.84,2.07,2.7,2.7,0,0,0,.29,1.27,1.81,1.81,0,0,0,.79.81,7.61,7.61,0,0,0,1.71.51l1,.2q1,.2,1,.73,0,.77-1.22.77a2.25,2.25,0,0,1-1.05-.2,2.56,2.56,0,0,1-.78-.83,1.76,1.76,0,0,0-.51-.53,1.43,1.43,0,0,0-.7-.14q-1,0-1,.77c0,.1,0,.25,0,.46s0,.36,0,.46,0,.29,0,.53,0,.41,0,.53q0,.75.92.75a.74.74,0,0,0,.85-.83,4.32,4.32,0,0,0,2.72,1,3.65,3.65,0,0,0,2.49-.87,2.75,2.75,0,0,0,1-2.16,2.44,2.44,0,0,0-.42-1.43,2.25,2.25,0,0,0-.88-.73,7.06,7.06,0,0,0-1.66-.46,9.83,9.83,0,0,1-1.7-.38.51.51,0,0,1-.32-.5q0-.68,1-.68a1.71,1.71,0,0,1,1.41.78,1.38,1.38,0,0,0,1.12.65.8.8,0,0,0,.9-.9v-.46q0-.22,0-.27a3.62,3.62,0,0,1,.05-.58,1.78,1.78,0,0,0,.07-.46q0-.61-.87-.61t-.92.71a3.39,3.39,0,0,0-2.21-.73A3.07,3.07,0,0,0,215.41,205.37Zm-7.3,1.55a1.35,1.35,0,0,1,1.1-.53,1.38,1.38,0,0,1,.92.33,1,1,0,0,1,.39.77.3.3,0,0,1-.06.21.51.51,0,0,1-.31.06h-1.9c-.2,0-.32,0-.36-.07l-.05-.17A1,1,0,0,1,208.11,206.92Zm4.05-1.31a4,4,0,0,0-2.88-1,4.12,4.12,0,0,0-3.14,1.27,4.64,4.64,0,0,0-1.2,3.32,4.45,4.45,0,0,0,1.21,3.26,4.33,4.33,0,0,0,3.23,1.22A4.79,4.79,0,0,0,212,213a2,2,0,0,0,1.08-1.67,1,1,0,0,0-.31-.73,1.17,1.17,0,0,0-.82-.29,1.52,1.52,0,0,0-1.12.54,2.1,2.1,0,0,1-1.46.78,1.54,1.54,0,0,1-1.16-.48,1.65,1.65,0,0,1-.46-1.19c0-.16,0-.26.08-.3a.74.74,0,0,1,.38-.06h4.15a.84.84,0,0,0,.71-.24,1.73,1.73,0,0,0,.18-1A3.66,3.66,0,0,0,212.17,205.61Zm-15.6-.8-.54.07a5.84,5.84,0,0,1-.7.07,2.29,2.29,0,0,1-.44-.05,4,4,0,0,0-.58-.08.93.93,0,0,0-.74.32,1.22,1.22,0,0,0-.28.83q0,.93.82.93a1.11,1.11,0,0,0,.3-.06,1.19,1.19,0,0,1,.26-.06q.29,0,.29,1v2.75c0,.64-.1,1-.29,1a.85.85,0,0,1-.25-.06,1,1,0,0,0-.31-.06q-.82,0-.82,1,0,1.14,1.07,1.14a9,9,0,0,0,.91-.07,9,9,0,0,1,.91-.07,7.74,7.74,0,0,1,.94.08,4.77,4.77,0,0,0,.63.05q.9,0,.9-1.07,0-.83-.61-.92c-.22,0-.35-.1-.39-.21a3.43,3.43,0,0,1-.07-.93v-1.77a1.69,1.69,0,0,1,.45-1.21,1.51,1.51,0,0,1,1.15-.48,1,1,0,0,1,.87.4,2.73,2.73,0,0,1,.25,1.39V211c0,.26-.15.4-.46.42q-.7.05-.7,1a.9.9,0,0,0,1,1,5.82,5.82,0,0,0,.78-.07,6.45,6.45,0,0,1,.9-.07,7.36,7.36,0,0,1,.82.07,7.31,7.31,0,0,0,.82.07q1,0,1-1.17,0-.88-.75-.88a.72.72,0,0,0-.25,0,1,1,0,0,1-.26.05q-.34,0-.34-.87V208a4.46,4.46,0,0,0-.39-2.14,2.62,2.62,0,0,0-2.5-1.33,3.83,3.83,0,0,0-3,1.53v-.82Q197,204.81,196.57,204.81Zm-8.48,2.65a2.76,2.76,0,0,1,.46,1.67,2.86,2.86,0,0,1-.47,1.72,1.44,1.44,0,0,1-1.21.65,1.24,1.24,0,0,1-1.08-.59,2.9,2.9,0,0,1-.4-1.63V209a3.15,3.15,0,0,1,.45-1.61,1.2,1.2,0,0,1,1-.6A1.44,1.44,0,0,1,188.08,207.46Zm-4.43-1.55a4.94,4.94,0,0,0-1,3.21,5.07,5.07,0,0,0,1,3.24,3.14,3.14,0,0,0,2.58,1.28,2.88,2.88,0,0,0,2.65-1.51v.63c0,.41.18.61.53.61l.46-.05a6.51,6.51,0,0,1,.73,0,3.77,3.77,0,0,1,.58,0l.59.1h.1a.82.82,0,0,0,.68-.33,1.37,1.37,0,0,0,.25-.86q0-.87-.73-.87a.89.89,0,0,0-.27,0,.84.84,0,0,1-.25.05q-.32,0-.32-.87v-7.73a1.18,1.18,0,0,0-.16-.72.73.73,0,0,0-.59-.2l-.63,0-.65,0c-.16,0-.46,0-.92-.07l-.54,0q-1.16,0-1.16,1.09a1,1,0,0,0,.22.68.67.67,0,0,0,.54.27,1.51,1.51,0,0,0,.44-.07l.41,0c.28,0,.43.2.43.61v1.22a3.44,3.44,0,0,0-2.38-1A3.2,3.2,0,0,0,183.66,205.92Zm-4.63,3.2q0,2.45-1.58,2.45a1.38,1.38,0,0,1-1.22-.65,3.94,3.94,0,0,1,0-3.6,1.35,1.35,0,0,1,1.18-.65Q179,206.67,179,209.11Zm1.61,3.32a4.82,4.82,0,0,0,1.13-3.4,4.46,4.46,0,0,0-1.17-3.26,4.25,4.25,0,0,0-3.19-1.19,4.2,4.2,0,0,0-3.2,1.2,5.47,5.47,0,0,0,0,6.69,4.31,4.31,0,0,0,3.26,1.19A4.08,4.08,0,0,0,180.63,212.43Zm-11.19-3.32q0,2.45-1.58,2.45a1.38,1.38,0,0,1-1.22-.65,3.94,3.94,0,0,1,0-3.6,1.35,1.35,0,0,1,1.18-.65Q169.44,206.67,169.44,209.11Zm1.61,3.32a4.82,4.82,0,0,0,1.13-3.4,4.46,4.46,0,0,0-1.17-3.26,4.25,4.25,0,0,0-3.19-1.19,4.2,4.2,0,0,0-3.2,1.2,5.47,5.47,0,0,0,0,6.69,4.31,4.31,0,0,0,3.26,1.19A4.08,4.08,0,0,0,171,212.43Zm-12.44.7.46,0q1.33,0,1.33.73,0,.9-2,.9t-2-.9q0-.48.77-.78a9.59,9.59,0,0,0,1,.07Zm.67-6.44a1.1,1.1,0,0,1,.31.8,1.08,1.08,0,0,1-.31.78,1.13,1.13,0,0,1-1.58,0,1.1,1.1,0,0,1-.31-.8,1.08,1.08,0,0,1,1.1-1.1A1.06,1.06,0,0,1,159.28,206.68Zm-3.47-1.3a2.45,2.45,0,0,0-1,2,2.19,2.19,0,0,0,.61,1.5,2.77,2.77,0,0,0-1.06.72,1.66,1.66,0,0,0-.3,1,1.47,1.47,0,0,0,1.36,1.55q-1.72.53-1.72,1.89a2.28,2.28,0,0,0,1.23,2,6.21,6.21,0,0,0,3.27.76,6.47,6.47,0,0,0,3.6-.88,2.72,2.72,0,0,0,1.33-2.39,2.14,2.14,0,0,0-.88-1.84,4.14,4.14,0,0,0-2.52-.63l-1.09,0h-.19a8.87,8.87,0,0,1-1.24-.05q-.82-.13-.82-.71a.57.57,0,0,1,.25-.44l.08,0a4.68,4.68,0,0,0,1.82.39,4.17,4.17,0,0,0,2.66-.8,2.56,2.56,0,0,0,1-2.11,2.25,2.25,0,0,0-1.63-2.31l0-.17q0-.49.36-.49a.24.24,0,0,1,.22.12l.17.27a.76.76,0,0,0,.7.36.94.94,0,0,0,.71-.29,1,1,0,0,0,.28-.71,1.25,1.25,0,0,0-.54-1,2.14,2.14,0,0,0-1.33-.41,2.29,2.29,0,0,0-1.55.48,1.74,1.74,0,0,0-.58,1.35l-.65,0A4,4,0,0,0,155.81,205.38Zm-12.28,1.54a1.35,1.35,0,0,1,1.1-.53,1.38,1.38,0,0,1,.92.33,1,1,0,0,1,.39.77.3.3,0,0,1-.06.21.51.51,0,0,1-.31.06h-1.9c-.2,0-.32,0-.36-.07l-.05-.17A1,1,0,0,1,143.53,206.92Zm4.05-1.31a4,4,0,0,0-2.88-1,4.12,4.12,0,0,0-3.14,1.27,4.64,4.64,0,0,0-1.2,3.32,4.45,4.45,0,0,0,1.21,3.26,4.33,4.33,0,0,0,3.23,1.22,4.79,4.79,0,0,0,2.63-.69,2,2,0,0,0,1.08-1.67,1,1,0,0,0-.31-.73,1.17,1.17,0,0,0-.82-.29,1.52,1.52,0,0,0-1.12.54,2.1,2.1,0,0,1-1.46.78,1.54,1.54,0,0,1-1.16-.48,1.65,1.65,0,0,1-.46-1.19c0-.16,0-.26.08-.3a.74.74,0,0,1,.38-.06h4.15a.84.84,0,0,0,.71-.24,1.73,1.73,0,0,0,.18-1A3.66,3.66,0,0,0,147.58,205.61Zm-9.64-1.9a1.54,1.54,0,1,0-1.1.45A1.49,1.49,0,0,0,137.94,203.72Zm-.64,1.16a5.25,5.25,0,0,1-.75.07,7.08,7.08,0,0,1-1-.08,4.12,4.12,0,0,0-.54-.05,1,1,0,0,0-.76.31,1.17,1.17,0,0,0-.29.82q0,1,.82,1l.27,0,.31-.08q.29,0,.29,1v2.75c0,.64-.1,1-.31,1l-.12,0-.44-.1q-.82,0-.82,1a1.15,1.15,0,0,0,.29.81,1,1,0,0,0,.75.31,8.75,8.75,0,0,0,.88-.07,8.78,8.78,0,0,1,.9-.07,10.26,10.26,0,0,1,1.09.05q.78.08,1,.08,1,0,1-1.17,0-.88-.71-.88a1.33,1.33,0,0,0-.3,0l-.25,0q-.32,0-.32-.87v-5.12q0-.66-.48-.66Zm-11.19-3a5,5,0,0,0-.56.05,6.37,6.37,0,0,1-.75.07A5.87,5.87,0,0,1,124,202a3.29,3.29,0,0,0-.49,0q-1.09,0-1.09,1.14,0,.93.82.93a.87.87,0,0,0,.27,0,1,1,0,0,1,.31-.07q.29,0,.29,1v5.66c0,.64-.1,1-.31,1l-.12,0-.42-.1q-.83,0-.83,1a1.15,1.15,0,0,0,.29.81,1,1,0,0,0,.75.31,6.63,6.63,0,0,0,.78-.08,6.35,6.35,0,0,1,.88-.05,11.46,11.46,0,0,1,1.44.07,6,6,0,0,0,.73.07q1,0,1-1.21,0-.82-.7-.82a1.21,1.21,0,0,0-.31.05,1.19,1.19,0,0,1-.29.05c-.18,0-.27-.22-.27-.65v-.34l.61-.56a1,1,0,0,1,.53-.32s.18.15.39.44l.56.78a1.7,1.7,0,0,1,.37.73.57.57,0,0,1-.12.32,1.46,1.46,0,0,0-.2.6.91.91,0,0,0,.25.65.79.79,0,0,0,.59.27,4.85,4.85,0,0,0,.65-.07,6,6,0,0,1,.9-.07,7.33,7.33,0,0,1,.82.07,7.33,7.33,0,0,0,.82.07q1,0,1-1.07t-.77-1l-.36.05a1,1,0,0,1-.27.05q-.32,0-.87-.87l-1.33-2.09-.15-.22-.07-.19q0-.19.44-.51l.71-.53a1.57,1.57,0,0,1,.75-.37,1.64,1.64,0,0,1,.34.05,1.7,1.7,0,0,0,.37.05q.78,0,.78-1a.89.89,0,0,0-1-1l-.76.07q-.73.07-1.22.07a9.51,9.51,0,0,1-1-.07q-.63-.07-.93-.07-.88,0-.88.78a.74.74,0,0,0,.22.58l.27.26a.38.38,0,0,1,.15.27c0,.15-.15.35-.46.61l-.39.34-.8.7v-5.78Q126.66,201.92,126.12,201.92Zm-7,7.19q0,2.45-1.58,2.45a1.38,1.38,0,0,1-1.22-.65,3.94,3.94,0,0,1,0-3.6,1.35,1.35,0,0,1,1.18-.65Q119.08,206.67,119.08,209.11Zm1.61,3.32a4.82,4.82,0,0,0,1.13-3.4,4.46,4.46,0,0,0-1.17-3.26,4.25,4.25,0,0,0-3.19-1.19,4.2,4.2,0,0,0-3.2,1.2,5.47,5.47,0,0,0,0,6.69,4.31,4.31,0,0,0,3.26,1.19A4.08,4.08,0,0,0,120.69,212.43Zm-11.19-3.32q0,2.45-1.58,2.45a1.38,1.38,0,0,1-1.22-.65,3.94,3.94,0,0,1,0-3.6,1.35,1.35,0,0,1,1.18-.65Q109.49,206.67,109.49,209.11Zm1.61,3.32a4.82,4.82,0,0,0,1.13-3.4,4.46,4.46,0,0,0-1.17-3.26,4.25,4.25,0,0,0-3.19-1.19,4.2,4.2,0,0,0-3.2,1.2,5.47,5.47,0,0,0,0,6.69,4.31,4.31,0,0,0,3.26,1.19A4.08,4.08,0,0,0,111.1,212.43ZM100,208.29a1.41,1.41,0,0,0,.93.3,1.6,1.6,0,0,0,1.14-.42,1.44,1.44,0,0,0,.44-1.1,2.13,2.13,0,0,0-1-1.79,4.12,4.12,0,0,0-2.47-.71,4.22,4.22,0,0,0-4.52,4.54,4.56,4.56,0,0,0,1.19,3.31,4.24,4.24,0,0,0,3.2,1.23,4.32,4.32,0,0,0,2.69-.85,2.48,2.48,0,0,0,1.12-2,1.19,1.19,0,0,0-.36-.89,1.28,1.28,0,0,0-.93-.35,1.13,1.13,0,0,0-.75.2,2.23,2.23,0,0,0-.41.71,1.29,1.29,0,0,1-1.22.9,1.57,1.57,0,0,1-1.31-.65,2.76,2.76,0,0,1-.49-1.72,2.69,2.69,0,0,1,.47-1.66,1.45,1.45,0,0,1,1.22-.62,1.49,1.49,0,0,1,.87.27.92.92,0,0,0-.17.51A1,1,0,0,0,100,208.29Zm-16.56-1.37q0-.25.36-.31a.76.76,0,0,0,.71-.82q0-1-.94-1l-.82.07c-.51,0-.87.07-1.09.07a6.88,6.88,0,0,1-.81-.07,7.08,7.08,0,0,0-.81-.07,1,1,0,0,0-.74.33,1.17,1.17,0,0,0-.3.81q0,1,.87,1l.08,0h.07l.25,0q.2,0,.41.48l1.9,4.5a6.8,6.8,0,0,1,.58,1.72,1.64,1.64,0,0,1-.42.92,1.15,1.15,0,0,1-.88.54,1,1,0,0,1-.42-.1,2.11,2.11,0,0,0,0-.37,1.08,1.08,0,0,0-.32-.81,1.17,1.17,0,0,0-.85-.31,1.37,1.37,0,0,0-1,.4,1.39,1.39,0,0,0-.4,1,1.77,1.77,0,0,0,.78,1.48,3.26,3.26,0,0,0,2,.58A4.11,4.11,0,0,0,85,215.2a6.94,6.94,0,0,0,.76-1.16q.26-.53.94-2.29l1.46-3.81.22-.59q.19-.51.49-.51l.23,0,.23,0a.68.68,0,0,0,.55-.3,1.09,1.09,0,0,0,.23-.69q0-1.1-1-1.1a7.28,7.28,0,0,0-.82.07,7.11,7.11,0,0,1-.82.07,6.66,6.66,0,0,1-.78-.07,6.8,6.8,0,0,0-.78-.07.79.79,0,0,0-.62.28,1,1,0,0,0-.25.71q0,.58.36.71l.31.12c.18.07.27.17.27.29a2.14,2.14,0,0,1-.14.61L84.73,211l-1.16-3.66A1.78,1.78,0,0,1,83.47,206.92Zm-7.41-.15c0-.08.19-.12.42-.12h1.39a.8.8,0,0,0,.92-.9q0-.93-1-.93H76.57c-.26,0-.42,0-.48-.12a1.2,1.2,0,0,1-.09-.61v-.92a1,1,0,0,0-.21-.75,1.36,1.36,0,0,0-.81-.17,2.13,2.13,0,0,0-1.15.22.94.94,0,0,0-.31.82v.83a1.44,1.44,0,0,1-.05.46c0,.16-.2.24-.48.24h-.32a.62.62,0,0,0-.5.28,1.08,1.08,0,0,0-.21.67,1,1,0,0,0,.2.64.65.65,0,0,0,.53.25h.27c.19,0,.31,0,.37.11a1.15,1.15,0,0,1,.08.54v.54q0,.48,0,1.43t0,1.43q0,3,2.81,3a3.11,3.11,0,0,0,2.23-.76,2.75,2.75,0,0,0,.8-2.1q0-1.72-1.07-1.72a.81.81,0,0,0-.92.92l0,.17v.22l0,.2q0,.9-.61.9t-.65-1,0-.46l0-1.14,0-1.05v-.7A.78.78,0,0,1,76.06,206.77Zm-12.07-2-.54.07a5.84,5.84,0,0,1-.7.07,2.29,2.29,0,0,1-.44-.05,4,4,0,0,0-.58-.08.93.93,0,0,0-.74.32,1.22,1.22,0,0,0-.28.83q0,.93.82.93a1.11,1.11,0,0,0,.3-.06,1.19,1.19,0,0,1,.26-.06q.29,0,.29,1v2.75c0,.64-.1,1-.29,1a.85.85,0,0,1-.25-.06,1,1,0,0,0-.31-.06q-.82,0-.82,1,0,1.14,1.07,1.14a9,9,0,0,0,.91-.07,9,9,0,0,1,.91-.07,7.74,7.74,0,0,1,.94.08,4.77,4.77,0,0,0,.63.05q.9,0,.9-1.07,0-.83-.61-.92c-.22,0-.35-.1-.39-.21a3.43,3.43,0,0,1-.07-.93v-1.77a1.69,1.69,0,0,1,.45-1.21,1.51,1.51,0,0,1,1.15-.48,1,1,0,0,1,.87.4,2.73,2.73,0,0,1,.25,1.39V211c0,.26-.15.4-.46.42q-.7.05-.7,1a.9.9,0,0,0,1,1,5.82,5.82,0,0,0,.78-.07,6.45,6.45,0,0,1,.9-.07,7.36,7.36,0,0,1,.82.07,7.31,7.31,0,0,0,.82.07q1,0,1-1.17,0-.88-.75-.88a.72.72,0,0,0-.25,0,1,1,0,0,1-.26.05q-.34,0-.34-.87V208a4.46,4.46,0,0,0-.39-2.14,2.62,2.62,0,0,0-2.5-1.33,3.83,3.83,0,0,0-3,1.53v-.82Q64.45,204.81,64,204.81Zm-5.5-1.1a1.54,1.54,0,1,0-1.1.45A1.49,1.49,0,0,0,58.49,203.72Zm-.64,1.16a5.25,5.25,0,0,1-.75.07,7.08,7.08,0,0,1-1-.08,4.12,4.12,0,0,0-.54-.05,1,1,0,0,0-.76.31,1.17,1.17,0,0,0-.29.82q0,1,.82,1l.27,0,.31-.08q.29,0,.29,1v2.75c0,.64-.1,1-.31,1l-.12,0-.44-.1q-.82,0-.82,1a1.15,1.15,0,0,0,.29.81,1,1,0,0,0,.75.31,8.75,8.75,0,0,0,.88-.07,8.78,8.78,0,0,1,.9-.07,10.26,10.26,0,0,1,1.09.05q.78.08,1,.08,1,0,1-1.17,0-.88-.71-.88a1.33,1.33,0,0,0-.3,0l-.25,0q-.32,0-.32-.87v-5.12q0-.66-.48-.66Zm-14.42-2.72a.74.74,0,0,0-.59-.2A7.89,7.89,0,0,0,42,202a13.29,13.29,0,0,1-1.6.1q-.48,0-1.43-.08T37.57,202a1.11,1.11,0,0,0-1.26,1.24,1.22,1.22,0,0,0,.26.8.81.81,0,0,0,.65.32,2,2,0,0,0,.42-.06,2,2,0,0,1,.4-.06q.34,0,.42.44a4.25,4.25,0,0,1,0,.7V210a4.64,4.64,0,0,1,0,.71q-.08.44-.42.44a2,2,0,0,1-.4-.06,2,2,0,0,0-.4-.06.84.84,0,0,0-.67.31,1.22,1.22,0,0,0-.26.81,1.25,1.25,0,0,0,.34.9,1.14,1.14,0,0,0,.87.36l1.05-.14a7.64,7.64,0,0,1,1-.05c.31,0,.58,0,.82,0l.6.08a4.67,4.67,0,0,0,.61.05,1,1,0,0,0,.82-.34,1.32,1.32,0,0,0,.31-.92q0-1-.68-1l-.15,0h-.1l-.1,0a.27.27,0,0,1-.19-.05c-.1-.07-.15-.37-.15-.9v-6.41l2.26,8.48q.25,1,.93,1h1.09q.7,0,1-1.09L49,203.83v6.41c0,.27,0,.46,0,.58s-.14.37-.32.37l-.08,0h-.12l-.15,0q-.7,0-.7,1.05a1.28,1.28,0,0,0,.31.9,1.07,1.07,0,0,0,.83.34,7.77,7.77,0,0,0,1-.08,7.74,7.74,0,0,1,1-.08,7.61,7.61,0,0,1,1,.07,9.59,9.59,0,0,0,1.09.1,1.24,1.24,0,0,0,.9-.33,1.21,1.21,0,0,0,.34-.91,1.2,1.2,0,0,0-.27-.8.84.84,0,0,0-.66-.32,2.14,2.14,0,0,0-.41.06,2.08,2.08,0,0,1-.41.06q-.44,0-.44-1.16v-4.71q0-1.14.46-1.14a2.08,2.08,0,0,1,.39.06,2.09,2.09,0,0,0,.42.06.81.81,0,0,0,.65-.32,1.37,1.37,0,0,0-.08-1.71,1.24,1.24,0,0,0-.9-.33L52,202q-1.62.14-2,.14a11.43,11.43,0,0,1-1.16-.08,11.37,11.37,0,0,0-1.14-.08.8.8,0,0,0-.65.28,2.8,2.8,0,0,0-.42,1l-1.48,5.95L43.76,203A2.29,2.29,0,0,0,43.43,202.16Z"/><path class="cls-7" d="M239,222.37q0-.56-.39-.56l-.39,0a3,3,0,0,1-.42,0,6.72,6.72,0,0,1-.7,0l-.58-.05a.75.75,0,0,0-.49.17.51.51,0,0,0-.2.41c0,.36.19.54.58.54a1.89,1.89,0,0,0,.37-.05,1.85,1.85,0,0,1,.36-.05q.37,0,.48.67a29.32,29.32,0,0,1,.1,3.22v3a15.57,15.57,0,0,1-.11,2.12q-.1.52-.37.52a2,2,0,0,1-.42-.07.83.83,0,0,0-.33,0q-.66,0-.66.53t.7.63l.87-.07q.51-.05.8-.05a11,11,0,0,1,1.11.07c.32,0,.56.05.72.05q.75,0,.75-.61a.49.49,0,0,0-.56-.54,1.46,1.46,0,0,0-.38.08,1.49,1.49,0,0,1-.39.08q-.42,0-.51-.83,0-.15,0-1.12v-.32a1.47,1.47,0,0,0,.07-.34v-1.22a3.77,3.77,0,0,1,.44-2,2.19,2.19,0,0,1,2-.92,1.82,1.82,0,0,1,1.74.88,5.29,5.29,0,0,1,.34,2.33v1.65c0,.4,0,.66,0,.8q0,1.1-.53,1.1a.91.91,0,0,1-.29-.05,1.43,1.43,0,0,0-.44-.08.62.62,0,0,0-.42.15.47.47,0,0,0-.18.37.57.57,0,0,0,.2.45.74.74,0,0,0,.51.18q.17,0,.88-.1a5.18,5.18,0,0,1,.68,0,10.22,10.22,0,0,1,1.16.08,5.88,5.88,0,0,0,.65.05q.82,0,.82-.58t-.63-.58l-.27,0a1.23,1.23,0,0,1-.39.1q-.37,0-.44-.85,0-.1,0-1.1V227.6a2.87,2.87,0,0,0-.89-2.19,3.73,3.73,0,0,0-3.68-.59,4.59,4.59,0,0,0-1.25.89l.07-3.31Zm-6,10.1q-1.19,0-1.19-1.78V226.5c0-.24.08-.36.24-.36h1.87q.7,0,.7-.63t-.65-.6h-1.85c-.2,0-.31-.08-.31-.25v-1.82q0-.64-.61-.65a.58.58,0,0,0-.66.65v1.75q0,.32-.29.32h-.66a.54.54,0,0,0-.4.19.6.6,0,0,0-.18.42.59.59,0,0,0,.18.43.63.63,0,0,0,.46.18h.56c.22,0,.33.12.33.36v4.08a4,4,0,0,0,.42,2.14,2.13,2.13,0,0,0,1.92.87,2.33,2.33,0,0,0,2.11-1,5.07,5.07,0,0,0,.47-2.58q0-.78-.59-.78t-.61.7V231Q234.2,232.46,233,232.46Zm-6.2-8.76a.92.92,0,0,0,.28-.67.89.89,0,0,0-.28-.66,1,1,0,0,0-1.34,0,.89.89,0,0,0-.28.66.95.95,0,0,0,1.62.67ZM227,227q0-.92,0-1.05s0-.11,0-.2,0-.16,0-.2c0-.44-.17-.66-.49-.66l-.42,0-.42,0-.7-.07-.46,0q-.75,0-.75.58c0,.36.21.54.62.54a1.75,1.75,0,0,0,.37-.06,1.83,1.83,0,0,1,.39-.06q.43,0,.51,1.07v4.35q-.08,1.09-.5,1.09a2.41,2.41,0,0,1-.4-.05,2.34,2.34,0,0,0-.4-.05q-.58,0-.58.56t.68.58a8.8,8.8,0,0,0,.89-.08,8,8,0,0,1,1-.07,6.7,6.7,0,0,1,.83.08,6.53,6.53,0,0,0,.83.08.84.84,0,0,0,.54-.17.51.51,0,0,0,.21-.41q0-.56-.65-.56a.73.73,0,0,0-.25,0,2.58,2.58,0,0,1-.43.08q-.37,0-.46-.76,0-.15,0-1v-2.21Q227,227.7,227,227Zm-14.12-.61q0-.51.44-.51a1.26,1.26,0,0,1,.42.08l.42,0q.63,0,.63-.57t-.75-.59l-.88.09a8.92,8.92,0,0,1-1.09.08,4.14,4.14,0,0,1-.63,0l-.73-.11-.19,0q-.76,0-.76.6a.49.49,0,0,0,.56.55l.37,0a1,1,0,0,1,.31-.07c.22,0,.37.18.48.55l1.63,6.13q.27,1.06,1.07,1.06a1,1,0,0,0,.78-.35,2.9,2.9,0,0,0,.48-1.2l1.33-5.94,1.27,6.05q.31,1.43,1.21,1.43a.93.93,0,0,0,.75-.32,2.88,2.88,0,0,0,.48-1.12l1.16-4.4q.49-1.9,1-1.9l.31.06a.58.58,0,0,0,.29.06.5.5,0,0,0,.56-.57q0-.59-.73-.59l-.19,0-.56.08a6.62,6.62,0,0,1-.88.06,6.77,6.77,0,0,1-.85,0l-.7-.1-.25,0q-.83,0-.83.59t.63.56a2.36,2.36,0,0,0,.44-.06,2.43,2.43,0,0,1,.44-.06c.26,0,.39.15.39.46v0a3.73,3.73,0,0,1-.12.85l-1.26,5.18-1.28-6a3.5,3.5,0,0,0-.45-1.26.91.91,0,0,0-.77-.32.9.9,0,0,0-.76.31,3.43,3.43,0,0,0-.45,1.27l-1.33,6L213,227.23A3.68,3.68,0,0,1,212.9,226.4ZM201.72,232a2.46,2.46,0,0,1-3.46-.39,4.11,4.11,0,0,1-.7-2.54,4,4,0,0,1,.68-2.46,2.21,2.21,0,0,1,1.88-.9,2.41,2.41,0,0,1,1.57.56,2.13,2.13,0,0,1,.74,1.33,9.07,9.07,0,0,1,.09,1.55,12.53,12.53,0,0,1-.07,1.45A2.14,2.14,0,0,1,201.72,232Zm-4.5-6.19a5.72,5.72,0,0,0,0,6.59,3.44,3.44,0,0,0,2.78,1.26,3.06,3.06,0,0,0,2.61-1.21v.37c0,.41.15.61.46.61a1.49,1.49,0,0,0,.36-.05l.39,0,.52,0,.52,0q.77,0,.77-.58t-.64-.56l-.38,0a1.32,1.32,0,0,1-.35,0,.39.39,0,0,1-.42-.27,6.76,6.76,0,0,1-.1-1.4v-4.51q0-.44,0-1.29.05-1.21.05-1.31c0-.57,0-.87,0-.9v-.19q0-.68-.48-.68a3.26,3.26,0,0,0-.44,0l-.44,0-.56-.05-.49,0q-.85,0-.85.56t.63.54a2,2,0,0,0,.38-.05,2,2,0,0,1,.38-.05q.39,0,.48.53a5.68,5.68,0,0,1,0,.83v1.72a2.78,2.78,0,0,0-2.52-1.31A3.44,3.44,0,0,0,197.22,225.81Zm-7.68.58a2.56,2.56,0,0,1,1.73-.69,2.22,2.22,0,0,1,1.6.66,2.11,2.11,0,0,1,.68,1.56q0,.24-.36.24h-4.06q-.37,0-.37-.24A2,2,0,0,1,189.54,226.39Zm4.35-.74a3.51,3.51,0,0,0-2.63-1.07,3.69,3.69,0,0,0-2.92,1.29,5,5,0,0,0-1.12,3.37,4.7,4.7,0,0,0,1.05,3.22,3.59,3.59,0,0,0,2.84,1.2,4.09,4.09,0,0,0,2.55-.86,2.46,2.46,0,0,0,1.12-2,.56.56,0,0,0-.63-.65.53.53,0,0,0-.56.41l-.15.49a1.86,1.86,0,0,1-.81,1,2.43,2.43,0,0,1-1.37.41,2.46,2.46,0,0,1-1.9-.85,3.06,3.06,0,0,1-.76-2.12.25.25,0,0,1,.07-.2.48.48,0,0,1,.29-.06h5.41q.41,0,.49-.14a2.1,2.1,0,0,0,.08-.79A3.75,3.75,0,0,0,193.89,225.65ZM182.55,232a2.46,2.46,0,0,1-3.46-.39,4.11,4.11,0,0,1-.7-2.54,4,4,0,0,1,.68-2.46,2.21,2.21,0,0,1,1.88-.9,2.41,2.41,0,0,1,1.57.56,2.13,2.13,0,0,1,.74,1.33,9.07,9.07,0,0,1,.09,1.55,12.53,12.53,0,0,1-.07,1.45A2.14,2.14,0,0,1,182.55,232Zm-4.5-6.19a5.72,5.72,0,0,0,0,6.59,3.44,3.44,0,0,0,2.78,1.26,3.06,3.06,0,0,0,2.61-1.21v.37c0,.41.15.61.46.61a1.49,1.49,0,0,0,.36-.05l.39,0,.52,0,.52,0q.77,0,.77-.58t-.64-.56l-.38,0a1.32,1.32,0,0,1-.35,0,.39.39,0,0,1-.42-.27,6.76,6.76,0,0,1-.1-1.4v-4.51q0-.44,0-1.29.05-1.21.05-1.31c0-.57,0-.87,0-.9v-.19q0-.68-.48-.68a3.26,3.26,0,0,0-.44,0l-.44,0-.56-.05-.49,0q-.85,0-.85.56t.63.54a2,2,0,0,0,.38-.05,2,2,0,0,1,.38-.05q.39,0,.48.53a5.68,5.68,0,0,1,0,.83v1.72a2.78,2.78,0,0,0-2.52-1.31A3.44,3.44,0,0,0,178,225.81Zm-5.87,6.1a2.5,2.5,0,0,1-1.79.62,2,2,0,0,1-1.27-.37,1.24,1.24,0,0,1-.47-1q0-1.24,1.93-1.43a7.83,7.83,0,0,0,1.48-.24,2.18,2.18,0,0,0,.79-.48v1.21A2.3,2.3,0,0,1,172.17,231.91Zm4.29,0V230.9q0-.82-.55-.82t-.52.54v.83q0,1.08-.59,1.08t-.58-.59a7.25,7.25,0,0,1,0-1v-3.43q0-3-3.09-3a3.81,3.81,0,0,0-2.29.68,2,2,0,0,0-.94,1.63,1,1,0,0,0,.3.75,1,1,0,0,0,.74.31.9.9,0,0,0,.62-.22.72.72,0,0,0,.25-.56.66.66,0,0,0-.24-.58c-.1-.07-.15-.12-.15-.17s.08-.24.25-.36a2.6,2.6,0,0,1,1.43-.43,2.07,2.07,0,0,1,1.35.4,1.35,1.35,0,0,1,.48,1.1,1.09,1.09,0,0,1-.43,1,5.12,5.12,0,0,1-1.86.43q-1,.12-1.33.2a3.16,3.16,0,0,0-.79.33,2.21,2.21,0,0,0-1.21,2.07,2.23,2.23,0,0,0,.83,1.82,3.35,3.35,0,0,0,2.2.68,3.06,3.06,0,0,0,2.72-1.28,1.57,1.57,0,0,0,1.72,1.21A1.51,1.51,0,0,0,176.47,232Zm-11.75-2.86a4,4,0,0,1-.71,2.52,2.33,2.33,0,0,1-1.95.91,2.2,2.2,0,0,1-1.88-.91,4.14,4.14,0,0,1-.67-2.51v-.22a3.93,3.93,0,0,1,.75-2.36,2.28,2.28,0,0,1,1.87-.83Q164.72,225.7,164.72,229.1Zm.27,3.3a4.86,4.86,0,0,0,1.11-3.33,4.77,4.77,0,0,0-1.07-3.28,3.71,3.71,0,0,0-2.92-1.21,3.66,3.66,0,0,0-2.9,1.23,5.62,5.62,0,0,0,0,6.61,3.6,3.6,0,0,0,2.86,1.23A3.72,3.72,0,0,0,165,232.4Zm-9.32-9.83a1.47,1.47,0,0,0,0-.25q0-.49-.39-.49a3.73,3.73,0,0,0-.51.05,3.76,3.76,0,0,1-.51.05l-.46,0-.41-.05-.32,0q-.68,0-.68.56c0,.36.19.54.58.54l.31,0,.44-.07a.48.48,0,0,1,.48.39,5.3,5.3,0,0,1,.05.68v5.68l0,1.19a7.35,7.35,0,0,1-.09,1.37.36.36,0,0,1-.39.26l-.5-.09-.15,0H153c-.39,0-.58.18-.58.53s.24.61.71.61h.08a7.27,7.27,0,0,0,.8-.07,7.29,7.29,0,0,1,.81-.07,8.75,8.75,0,0,1,.91.07c.4,0,.68.07.86.07q.69,0,.7-.56a.51.51,0,0,0-.57-.58l-.27,0a2.23,2.23,0,0,1-.43.08q-.45,0-.46-.87v-5.28Q155.56,223.87,155.68,222.57ZM135,224.88H135l-.41.07h-.31a5.26,5.26,0,0,1-.56,0l-.51,0q-.7,0-.7.58t.63.54l.27,0,.48-.09a.39.39,0,0,1,.42.36,12.14,12.14,0,0,1,.08,1.8v3.57q0,.83-.5.83l-.07,0-.43-.08-.1,0h-.1q-.66,0-.66.53t.68.58l.88-.07.75-.05a8.72,8.72,0,0,1,1,.07,6.14,6.14,0,0,0,.71.05q.76,0,.76-.54t-.66-.56h-.12l-.1,0a1.44,1.44,0,0,1-.36.09c-.2,0-.33-.19-.37-.58q0-.12,0-.8v-2.27a4.06,4.06,0,0,1,.49-2.32,2,2,0,0,1,1.72-.82,1.6,1.6,0,0,1,1.42.58,3.86,3.86,0,0,1,.4,2.07v2.48l-.05.8q0,.87-.42.87a1.36,1.36,0,0,1-.36-.07.7.7,0,0,0-.29,0,.46.46,0,0,0-.51.53q0,.58.7.58a4.85,4.85,0,0,0,.75-.07,5,5,0,0,1,.78-.07,6.27,6.27,0,0,1,.76.07,6.24,6.24,0,0,0,.76.07q.8,0,.8-.55a.53.53,0,0,0-.16-.39.55.55,0,0,0-.4-.16l-.3,0-.3,0c-.22,0-.35-.13-.4-.4a14.72,14.72,0,0,1-.08-2v-1.21a5.09,5.09,0,0,1,.37-2.31,1.76,1.76,0,0,1,1.68-.83,2.07,2.07,0,0,1,1.12.31,1.54,1.54,0,0,1,.67.84,5.92,5.92,0,0,1,.18,1.71v2.16a8.36,8.36,0,0,1-.09,1.45.35.35,0,0,1-.37.29.89.89,0,0,1-.27,0l-.34,0c-.36,0-.54.17-.54.51s.24.6.71.6c.19,0,.47,0,.84-.06a8.4,8.4,0,0,1,.84-.06,7.42,7.42,0,0,1,.79.06,7.65,7.65,0,0,0,.77.06q.68,0,.68-.6t-.59-.51a1.63,1.63,0,0,0-.35.06,1.58,1.58,0,0,1-.35.06c-.24,0-.38-.2-.44-.61,0-.1,0-.39,0-.85v-2.93a5.2,5.2,0,0,0-.22-1.77,2.46,2.46,0,0,0-1.17-1.29,3.62,3.62,0,0,0-1.73-.41,3.51,3.51,0,0,0-1.53.29,3.59,3.59,0,0,0-1.17,1,2.66,2.66,0,0,0-2.45-1.29,3,3,0,0,0-1.36.28,4,4,0,0,0-1.16,1v-.49C135.41,225,135.27,224.88,135,224.88Zm-7,7a2.5,2.5,0,0,1-1.79.62,2,2,0,0,1-1.27-.37,1.24,1.24,0,0,1-.47-1q0-1.24,1.93-1.43a7.83,7.83,0,0,0,1.48-.24,2.18,2.18,0,0,0,.79-.48v1.21A2.3,2.3,0,0,1,128,231.91Zm4.29,0V230.9q0-.82-.55-.82t-.52.54v.83q0,1.08-.59,1.08t-.58-.59a7.25,7.25,0,0,1,0-1v-3.43q0-3-3.09-3a3.81,3.81,0,0,0-2.29.68,2,2,0,0,0-.94,1.63,1,1,0,0,0,.3.75,1,1,0,0,0,.74.31.9.9,0,0,0,.62-.22.72.72,0,0,0,.25-.56.66.66,0,0,0-.24-.58c-.1-.07-.15-.12-.15-.17s.08-.24.25-.36a2.6,2.6,0,0,1,1.43-.43,2.07,2.07,0,0,1,1.35.4,1.35,1.35,0,0,1,.48,1.1,1.09,1.09,0,0,1-.43,1,5.12,5.12,0,0,1-1.86.43q-1,.12-1.33.2a3.16,3.16,0,0,0-.79.33,2.21,2.21,0,0,0-1.21,2.07,2.23,2.23,0,0,0,.83,1.82,3.35,3.35,0,0,0,2.2.68,3.06,3.06,0,0,0,2.72-1.28,1.57,1.57,0,0,0,1.72,1.21A1.51,1.51,0,0,0,132.32,232Zm-15.69-5.57a2.56,2.56,0,0,1,1.73-.69,2.22,2.22,0,0,1,1.6.66,2.11,2.11,0,0,1,.68,1.56q0,.24-.36.24h-4.06q-.37,0-.37-.24A2,2,0,0,1,116.63,226.39Zm4.35-.74a3.51,3.51,0,0,0-2.63-1.07,3.69,3.69,0,0,0-2.92,1.29,5,5,0,0,0-1.12,3.37,4.7,4.7,0,0,0,1.05,3.22,3.59,3.59,0,0,0,2.84,1.2,4.09,4.09,0,0,0,2.55-.86,2.46,2.46,0,0,0,1.12-2,.56.56,0,0,0-.63-.65.53.53,0,0,0-.56.41l-.15.49a1.86,1.86,0,0,1-.81,1,2.43,2.43,0,0,1-1.37.41,2.46,2.46,0,0,1-1.9-.85,3.06,3.06,0,0,1-.76-2.12.25.25,0,0,1,.07-.2.48.48,0,0,1,.29-.06h5.41q.41,0,.49-.14a2.1,2.1,0,0,0,.08-.79A3.75,3.75,0,0,0,121,225.65Zm-12.9-.78a1.09,1.09,0,0,0-.32,0l-.44,0-.51,0-.51,0q-.73,0-.73.59a.49.49,0,0,0,.56.54,1.89,1.89,0,0,0,.37-.05,1.88,1.88,0,0,1,.37-.05q.46,0,.51,1l.05,3.86v.87q0,.78-.46.78l-.24,0-.26-.05-.26,0q-.65,0-.65.53c0,.4.23.6.69.6l.95-.08c.26,0,.62,0,1.07,0a7.32,7.32,0,0,1,.77.06,7.59,7.59,0,0,0,.77.06h.07q.69,0,.69-.59a.48.48,0,0,0-.54-.54,1.45,1.45,0,0,0-.32,0,2,2,0,0,1-.46.06q-.44,0-.53-1,0-.14,0-1.28V229a6.73,6.73,0,0,1,.27-2.21,1.72,1.72,0,0,1,1.77-1.19,1.7,1.7,0,0,1,1.08.34,1,1,0,0,1,.43.83.85.85,0,0,1-.1.37l-.22-.05a.64.64,0,0,0-.48.21.68.68,0,0,0-.2.48.74.74,0,0,0,.27.58,1,1,0,0,0,.66.24,1.2,1.2,0,0,0,1-.47,1.89,1.89,0,0,0,.37-1.21,2.22,2.22,0,0,0-.74-1.73,3,3,0,0,0-4.29.57v-.47C108.52,225,108.37,224.86,108.08,224.86Zm-5.57,3.52a1,1,0,0,0,.71.26,1.12,1.12,0,0,0,.89-.41,1.54,1.54,0,0,0,.35-1,2.33,2.33,0,0,0-.9-1.88,3.44,3.44,0,0,0-2.26-.74,3.66,3.66,0,0,0-2.92,1.27,5,5,0,0,0-1.1,3.37,4.73,4.73,0,0,0,1.06,3.21,3.52,3.52,0,0,0,2.8,1.22,3.4,3.4,0,0,0,2.6-1.07,3.53,3.53,0,0,0,.65-1,2.54,2.54,0,0,0,.27-1,.64.64,0,0,0-.66-.66.59.59,0,0,0-.54.34q0,.09-.2.68a2.14,2.14,0,0,1-.76,1.17,2.07,2.07,0,0,1-1.3.42,2.18,2.18,0,0,1-1.86-.91,4.14,4.14,0,0,1-.67-2.51,4,4,0,0,1,.71-2.48,2.26,2.26,0,0,1,1.89-.93,2.13,2.13,0,0,1,1.25.34,1.32,1.32,0,0,1,.57.94q-.85.1-.85.78A.81.81,0,0,0,102.51,228.38Zm-16.12-2a2.56,2.56,0,0,1,1.73-.69,2.22,2.22,0,0,1,1.6.66,2.11,2.11,0,0,1,.68,1.56q0,.24-.36.24H86q-.37,0-.37-.24A2,2,0,0,1,86.38,226.39Zm4.35-.74a3.51,3.51,0,0,0-2.63-1.07,3.69,3.69,0,0,0-2.92,1.29,5,5,0,0,0-1.12,3.37,4.7,4.7,0,0,0,1.05,3.22,3.59,3.59,0,0,0,2.84,1.2,4.09,4.09,0,0,0,2.55-.86,2.46,2.46,0,0,0,1.12-2,.56.56,0,0,0-.63-.65.53.53,0,0,0-.56.41l-.15.49a1.86,1.86,0,0,1-.81,1,2.43,2.43,0,0,1-1.37.41,2.46,2.46,0,0,1-1.9-.85,3.06,3.06,0,0,1-.76-2.12.25.25,0,0,1,.07-.2.48.48,0,0,1,.29-.06h5.41q.41,0,.49-.14a2.1,2.1,0,0,0,.08-.79A3.75,3.75,0,0,0,90.74,225.65Zm-10.12,2.74a1,1,0,0,0,.71.26,1.12,1.12,0,0,0,.89-.41,1.54,1.54,0,0,0,.35-1,2.33,2.33,0,0,0-.9-1.88,3.44,3.44,0,0,0-2.26-.74,3.66,3.66,0,0,0-2.92,1.27,5,5,0,0,0-1.1,3.37,4.73,4.73,0,0,0,1.06,3.21,3.52,3.52,0,0,0,2.8,1.22,3.4,3.4,0,0,0,2.6-1.07,3.53,3.53,0,0,0,.65-1,2.54,2.54,0,0,0,.27-1,.64.64,0,0,0-.66-.66.59.59,0,0,0-.54.34q0,.09-.2.68a2.14,2.14,0,0,1-.76,1.17,2.07,2.07,0,0,1-1.3.42,2.18,2.18,0,0,1-1.86-.91,4.14,4.14,0,0,1-.67-2.51,4,4,0,0,1,.71-2.48,2.26,2.26,0,0,1,1.89-.93,2.13,2.13,0,0,1,1.25.34,1.32,1.32,0,0,1,.57.94q-.85.1-.85.78A.81.81,0,0,0,80.61,228.38Zm-8-4.68a.92.92,0,0,0,.28-.67.89.89,0,0,0-.28-.66,1,1,0,0,0-1.34,0A.89.89,0,0,0,71,223a.95.95,0,0,0,1.62.67Zm.23,3.31q0-.92,0-1.05s0-.11,0-.2,0-.16,0-.2c0-.44-.17-.66-.49-.66l-.42,0-.42,0-.7-.07-.46,0q-.75,0-.75.58c0,.36.21.54.62.54a1.75,1.75,0,0,0,.37-.06,1.83,1.83,0,0,1,.39-.06q.43,0,.51,1.07v4.35q-.08,1.09-.5,1.09a2.41,2.41,0,0,1-.4-.05,2.34,2.34,0,0,0-.4-.05q-.58,0-.58.56t.68.58a8.8,8.8,0,0,0,.89-.08,8,8,0,0,1,1-.07,6.7,6.7,0,0,1,.83.08,6.53,6.53,0,0,0,.83.08.84.84,0,0,0,.54-.17.51.51,0,0,0,.21-.41q0-.56-.65-.56a.73.73,0,0,0-.25,0,2.58,2.58,0,0,1-.43.08q-.37,0-.46-.76,0-.15,0-1v-2.21Q72.87,227.7,72.88,227Zm-10.35,5.46q-1.19,0-1.19-1.78V226.5c0-.24.08-.36.24-.36h1.87q.7,0,.7-.63t-.65-.6H61.65c-.2,0-.31-.08-.31-.25v-1.82q0-.64-.61-.65a.58.58,0,0,0-.66.65v1.75q0,.32-.29.32h-.66a.54.54,0,0,0-.4.19.6.6,0,0,0-.18.42.59.59,0,0,0,.18.43.63.63,0,0,0,.46.18h.56c.22,0,.33.12.33.36v4.08a4,4,0,0,0,.42,2.14,2.13,2.13,0,0,0,1.92.87,2.33,2.33,0,0,0,2.11-1A5.07,5.07,0,0,0,65,230q0-.78-.59-.78t-.61.7V231Q63.74,232.46,62.53,232.46Zm-12.19-7.6-.46,0a2.35,2.35,0,0,1-.48,0l-.63-.07-.17,0q-.76,0-.76.56c0,.36.21.54.62.54l.35,0,.36,0a.4.4,0,0,1,.39.21,2.18,2.18,0,0,1,.15.79v4.54q0,1-.54,1a2.13,2.13,0,0,1-.46-.05l-.32-.05a.48.48,0,0,0-.55.54q0,.58.71.58l.85-.08a8.68,8.68,0,0,1,1-.07,6.18,6.18,0,0,1,.83.05q.75.1.88.1.68,0,.68-.55t-.53-.57a1.67,1.67,0,0,0-.39.06,1.68,1.68,0,0,1-.37.06.37.37,0,0,1-.37-.27,3.39,3.39,0,0,1-.1-1v-2.26a4.59,4.59,0,0,1,.41-2.26,2.11,2.11,0,0,1,1.95-1,2.16,2.16,0,0,1,1.27.39,1.64,1.64,0,0,1,.66,1,6,6,0,0,1,.08,1.24v3.2q0,.93-.45.93l-.42-.07a1.57,1.57,0,0,0-.31,0q-.59,0-.59.53t.68.6l.9-.1a6.51,6.51,0,0,1,.73,0,8.32,8.32,0,0,1,1,.07,7.34,7.34,0,0,0,.78.07.75.75,0,0,0,.49-.17.53.53,0,0,0,.2-.43.5.5,0,0,0-.16-.37.54.54,0,0,0-.38-.15l-.35,0a2.47,2.47,0,0,1-.4,0c-.25,0-.4-.19-.46-.58q0-.14,0-.87v-3.23a4,4,0,0,0-.24-1.51A2.45,2.45,0,0,0,55.29,225a3.44,3.44,0,0,0-1.73-.47,3.29,3.29,0,0,0-2.72,1.29v-.48Q50.84,224.86,50.35,224.86Zm-4.84-1.16a.92.92,0,0,0,.28-.67.89.89,0,0,0-.28-.66,1,1,0,0,0-1.34,0,.89.89,0,0,0-.28.66.95.95,0,0,0,1.62.67Zm.23,3.31q0-.92,0-1.05s0-.11,0-.2,0-.16,0-.2c0-.44-.17-.66-.49-.66l-.42,0-.42,0-.7-.07-.46,0q-.75,0-.75.58c0,.36.21.54.62.54a1.75,1.75,0,0,0,.37-.06,1.83,1.83,0,0,1,.39-.06q.43,0,.51,1.07v4.35q-.08,1.09-.5,1.09a2.41,2.41,0,0,1-.4-.05,2.34,2.34,0,0,0-.4-.05q-.58,0-.58.56t.68.58a8.8,8.8,0,0,0,.89-.08,8,8,0,0,1,1-.07,6.7,6.7,0,0,1,.83.08,6.53,6.53,0,0,0,.83.08.84.84,0,0,0,.54-.17.51.51,0,0,0,.21-.41q0-.56-.65-.56a.73.73,0,0,0-.25,0,2.58,2.58,0,0,1-.43.08q-.37,0-.46-.76,0-.15,0-1v-2.21Q45.72,227.7,45.73,227Zm-14.23-4.22q-.22-.83-.88-.83a7.54,7.54,0,0,0-.81.07,7.64,7.64,0,0,1-.87.07,7.23,7.23,0,0,1-.83-.05l-.6-.07-.22,0q-.76,0-.76.6a.47.47,0,0,0,.53.54l.41,0,.41,0q.87,0,.87,1.27v6.83q0,1.28-.87,1.28a2.22,2.22,0,0,1-.37-.05,2.29,2.29,0,0,0-.44-.05.5.5,0,0,0-.37.16.56.56,0,0,0-.15.4q0,.59.78.59h.1l.1,0,.71-.14a8.7,8.7,0,0,1,1.21-.05,6.15,6.15,0,0,1,.87.05l.8.12.36,0q.68,0,.68-.58t-.66-.58h-.71q-.66,0-.68-1.23L30,223.2l.07-.1.12.1,3.08,9.69a.87.87,0,0,0,.33.52,1.31,1.31,0,0,0,.66.13.89.89,0,0,0,1-.64l3.13-9.69.1-.1.08.1v4.53q0,1.07,0,1.63,0,1.46,0,1.73-.15,1.27-.77,1.27l-.45,0-.26,0q-.69,0-.68.59t.66.57a3.33,3.33,0,0,0,.54-.05,9.53,9.53,0,0,1,1.53-.12,17.68,17.68,0,0,1,2,.14l.25,0q.73,0,.73-.61a.48.48,0,0,0-.54-.54l-.44,0a1.54,1.54,0,0,1-.37.05q-.85,0-.85-1.27v-6.82q0-1.27.87-1.27l.4,0,.4,0a.48.48,0,0,0,.54-.54q0-.6-.78-.6l-.2,0-.59.1a4.84,4.84,0,0,1-.8.05,6.18,6.18,0,0,1-.75,0,2.34,2.34,0,0,1-.44-.08A2.59,2.59,0,0,0,38,222h-.08q-.54,0-.76.71l-2.87,9.16-2.62-8.6Z"/><path class="cls-7" d="M86.49,249.1a4,4,0,0,1-.71,2.52,2.33,2.33,0,0,1-1.95.91,2.2,2.2,0,0,1-1.88-.91,4.14,4.14,0,0,1-.67-2.51v-.22a3.93,3.93,0,0,1,.75-2.36,2.28,2.28,0,0,1,1.87-.83Q86.49,245.7,86.49,249.1Zm.27,3.3a4.86,4.86,0,0,0,1.11-3.33,4.77,4.77,0,0,0-1.07-3.28,3.71,3.71,0,0,0-2.92-1.21,3.66,3.66,0,0,0-2.9,1.23,5.62,5.62,0,0,0,0,6.61,3.6,3.6,0,0,0,2.86,1.23A3.72,3.72,0,0,0,86.76,252.4Zm-13.5-6A2.56,2.56,0,0,1,75,245.7a2.22,2.22,0,0,1,1.6.66,2.11,2.11,0,0,1,.68,1.56q0,.24-.36.24H72.85q-.37,0-.37-.24A2,2,0,0,1,73.26,246.39Zm4.35-.74A3.51,3.51,0,0,0,75,244.57a3.69,3.69,0,0,0-2.92,1.29,5,5,0,0,0-1.12,3.37A4.7,4.7,0,0,0,72,252.45a3.59,3.59,0,0,0,2.84,1.2,4.09,4.09,0,0,0,2.55-.86,2.46,2.46,0,0,0,1.12-2,.56.56,0,0,0-.63-.65.53.53,0,0,0-.56.41l-.15.49a1.86,1.86,0,0,1-.81,1,2.43,2.43,0,0,1-1.37.41,2.46,2.46,0,0,1-1.9-.85,3.06,3.06,0,0,1-.76-2.12.25.25,0,0,1,.07-.2.48.48,0,0,1,.29-.06h5.41q.41,0,.49-.14a2.1,2.1,0,0,0,.08-.79A3.75,3.75,0,0,0,77.61,245.65Zm-12.9-.78a1.09,1.09,0,0,0-.32,0l-.44,0-.51,0-.51,0q-.73,0-.73.59a.49.49,0,0,0,.56.54,1.89,1.89,0,0,0,.37-.05,1.88,1.88,0,0,1,.37-.05q.46,0,.51,1l.05,3.86v.87q0,.78-.46.78l-.24,0-.26-.05-.26,0q-.65,0-.65.53c0,.4.23.6.69.6l.95-.08c.26,0,.62,0,1.07,0a7.32,7.32,0,0,1,.77.06,7.59,7.59,0,0,0,.77.06h.07q.69,0,.69-.59a.48.48,0,0,0-.54-.54,1.45,1.45,0,0,0-.32,0,2,2,0,0,1-.46.06q-.44,0-.53-1,0-.14,0-1.28V249a6.73,6.73,0,0,1,.27-2.21,1.72,1.72,0,0,1,1.77-1.19,1.7,1.7,0,0,1,1.08.34,1,1,0,0,1,.43.83.85.85,0,0,1-.1.37l-.22-.05a.64.64,0,0,0-.48.21.68.68,0,0,0-.2.48.74.74,0,0,0,.27.58,1,1,0,0,0,.66.24,1.2,1.2,0,0,0,1-.47,1.89,1.89,0,0,0,.37-1.21,2.22,2.22,0,0,0-.74-1.73,3,3,0,0,0-4.29.57v-.47C65.15,245,65,244.86,64.71,244.86Zm-5.81-.76a6,6,0,0,1,.88,3.51,6.12,6.12,0,0,1-.93,3.58,3.09,3.09,0,0,1-5,.05,6.11,6.11,0,0,1-.9-3.58,6,6,0,0,1,.9-3.54,3.2,3.2,0,0,1,5.07,0Zm1,7.93a7.24,7.24,0,0,0,1.33-4.59A6.36,6.36,0,0,0,60,243.21a4.4,4.4,0,0,0-3.54-1.56,4.48,4.48,0,0,0-3.66,1.61,6.76,6.76,0,0,0-1.33,4.43,6.83,6.83,0,0,0,1.32,4.42,4.71,4.71,0,0,0,7.19-.07Z"/><path class="cls-7" d="M92.88,242.52q.65,0,.65.44t-.75.49h-.46l0,0v-.71C92.28,242.59,92.48,242.52,92.88,242.52Zm.07-.51-.34,0h-.36l-.34,0h-.24l-.24,0h-.08q-.32,0-.32.26a.23.23,0,0,0,.25.26l.15,0,.08,0,.1,0,0,.05,0,.19v2q0,.25-.15.25h-.24a.23.23,0,0,0-.25.26c0,.18.1.26.31.26l.1,0,.24,0,.17,0,.15,0h.12l.14,0,.25,0,.09,0q.32,0,.32-.28a.22.22,0,0,0-.25-.25h-.24c-.09,0-.14-.09-.14-.27V244l.05,0h.44a.94.94,0,0,1,.42.07c.08,0,.12.17.12.36v.44a.6.6,0,0,0,.67.68.62.62,0,0,0,.71-.7v-.58a.26.26,0,0,0-.29-.29c-.18,0-.27.13-.27.37v.34q0,.32-.11.32c-.07,0-.11-.08-.11-.24v-.31a.86.86,0,0,0-.27-.73.77.77,0,0,0,.49-.78Q94.14,242,92.95,242Zm-2.21,3.88a2.88,2.88,0,1,1,2,.85A2.78,2.78,0,0,1,90.74,245.88Zm-.36-4.45a3.4,3.4,0,1,0,2.4-1A3.27,3.27,0,0,0,90.38,241.44Z"/><path class="cls-7" d="M220.32,253.34a1.09,1.09,0,0,0,0-1.51,1,1,0,0,0-1.5,0,1.09,1.09,0,0,0,0,1.51,1,1,0,0,0,1.5,0Zm-9.52-8a2.38,2.38,0,0,0-.9,1.93,1.83,1.83,0,0,0,.92,1.76,7.37,7.37,0,0,0,2.67.69q1.84.19,1.84,1.34a1.31,1.31,0,0,1-.54,1.07,2.17,2.17,0,0,1-1.38.42,3.59,3.59,0,0,1-1.9-.46,1.4,1.4,0,0,1-.76-1.19,2.63,2.63,0,0,0-.11-.9q-.09-.17-.45-.17c-.36,0-.54.2-.54.59a3.21,3.21,0,0,0,.07.56,4.13,4.13,0,0,1,.07.77,3.39,3.39,0,0,1,0,.48q-.1,1-.1.88,0,.7.63.7t.58-.61v-.32a3.87,3.87,0,0,0,2.44.8,3.75,3.75,0,0,0,2.44-.76,2.43,2.43,0,0,0,.93-2q0-2-2.89-2.4l-1-.14q-1.5-.2-1.5-1.29a1.21,1.21,0,0,1,.53-1,2.11,2.11,0,0,1,1.31-.4,2.42,2.42,0,0,1,1.33.37,1.09,1.09,0,0,1,.59.88v.56a.49.49,0,0,0,.55.54q.55,0,.55-.65,0-.2,0-.59a6,6,0,0,1,0-.6,4.09,4.09,0,0,1,.06-.68c0-.27,0-.44,0-.51a.49.49,0,0,0-.56-.54q-.54,0-.54.63v.07a3,3,0,0,0-1.9-.59A3.56,3.56,0,0,0,210.8,245.31Zm-9.33-2.8q0-.7-.55-.7h-.12l-.38,0-.4,0-.56-.05-.48,0q-.67,0-.67.58c0,.35.19.53.57.53a1.41,1.41,0,0,0,.48-.08l.33,0a.35.35,0,0,1,.36.25,5.21,5.21,0,0,1,.12,1.16v6.87l-.05.66q-.05.65-.46.65l-.37-.05a1.78,1.78,0,0,0-.32,0q-.65,0-.65.56t.66.56a8.28,8.28,0,0,0,.87-.08,6.83,6.83,0,0,1,.9-.07,7.51,7.51,0,0,1,.89.08,7.31,7.31,0,0,0,.88.08q.65,0,.65-.56a.5.5,0,0,0-.58-.56,1.57,1.57,0,0,0-.32,0l-.29,0q-.39,0-.48-.59c0-.07,0-.37,0-.92v-.39l1.26-1.12q.19-.17.25-.17c.07,0,.16.07.27.22l1.7,2.26.22.32.17.24,0,0v.05c0,.08-.05.12-.15.12a2,2,0,0,1-.39-.08l-.27,0c-.41,0-.61.18-.61.54s.21.58.65.58a6.67,6.67,0,0,0,.77-.07,6.69,6.69,0,0,1,.79-.07,9,9,0,0,1,.91.07,9,9,0,0,0,.91.07q.78,0,.78-.58c0-.36-.2-.54-.61-.54a1.56,1.56,0,0,0-.31,0l-.28,0q-.36,0-1.19-1.07l-2.18-2.82a.5.5,0,0,1-.14-.25c0-.07.06-.16.19-.27l1.78-1.63a1.34,1.34,0,0,1,.88-.42,2.43,2.43,0,0,1,.38,0,2.4,2.4,0,0,0,.38,0c.38,0,.58-.18.58-.55s-.28-.59-.83-.59l-.39,0-.7.1a4.06,4.06,0,0,1-.58,0,16.75,16.75,0,0,1-1.79-.14l-.48,0q-.75,0-.75.59c0,.36.2.54.59.54a2.63,2.63,0,0,0,.49-.07,2.56,2.56,0,0,1,.49-.07c.15,0,.22.06.22.17a.4.4,0,0,1-.15.31l-2.91,2.72Zm-11.37,2.35-.46,0a2.35,2.35,0,0,1-.48,0l-.63-.07-.17,0q-.76,0-.76.56c0,.36.21.54.62.54l.35,0,.36,0a.4.4,0,0,1,.39.21,2.18,2.18,0,0,1,.15.79v4.54q0,1-.54,1a2.13,2.13,0,0,1-.46-.05l-.32-.05a.48.48,0,0,0-.55.54q0,.58.71.58l.85-.08a8.68,8.68,0,0,1,1-.07,6.18,6.18,0,0,1,.83.05q.75.1.88.1.68,0,.68-.55t-.53-.57a1.67,1.67,0,0,0-.39.06,1.68,1.68,0,0,1-.37.06.37.37,0,0,1-.37-.27,3.39,3.39,0,0,1-.1-1v-2.26a4.59,4.59,0,0,1,.41-2.26,2.11,2.11,0,0,1,1.95-1,2.16,2.16,0,0,1,1.27.39,1.64,1.64,0,0,1,.66,1,6,6,0,0,1,.08,1.24v3.2q0,.93-.45.93l-.42-.07a1.57,1.57,0,0,0-.31,0q-.59,0-.59.53t.68.6l.9-.1a6.51,6.51,0,0,1,.73,0,8.32,8.32,0,0,1,1,.07,7.34,7.34,0,0,0,.78.07.75.75,0,0,0,.49-.17.53.53,0,0,0,.2-.43.5.5,0,0,0-.16-.37.54.54,0,0,0-.38-.15l-.35,0a2.47,2.47,0,0,1-.4,0c-.25,0-.4-.19-.46-.58q0-.14,0-.87v-3.23a4,4,0,0,0-.24-1.51A2.45,2.45,0,0,0,195,245a3.44,3.44,0,0,0-1.73-.47,3.29,3.29,0,0,0-2.72,1.29v-.48Q190.59,244.86,190.1,244.86Zm-5.2,8.57a1.49,1.49,0,0,0,.36-.05l.36,0,.53.05.44,0q.71,0,.71-.58a.5.5,0,0,0-.58-.56,2,2,0,0,0-.34,0,1.94,1.94,0,0,1-.34,0q-.39,0-.48-.9,0-.12,0-1.16v-2.62a15.87,15.87,0,0,1,.08-1.91,1.63,1.63,0,0,0,0-.37c0-.36-.17-.54-.51-.54l-.41,0-.41,0-.47,0-.47,0q-.66,0-.66.58t.6.51h.51c.24,0,.38.27.44.82v2a7.69,7.69,0,0,1-.27,2.52,1.79,1.79,0,0,1-.78.88,2.49,2.49,0,0,1-1.29.33,1.75,1.75,0,0,1-1.87-1.07,6.76,6.76,0,0,1-.24-2.12v-1.1l.05-1.26v-1.46q0-.65-.53-.65l-.29,0a4.48,4.48,0,0,1-.53.05l-.5,0-.5,0q-.73,0-.73.54c0,.37.2.55.6.55l.34,0,.33,0q.5,0,.5,2.33v1.41q0,1.14,0,1.5a2.59,2.59,0,0,0,.37,1.27,3,3,0,0,0,2.79,1.24,3.09,3.09,0,0,0,2.67-1.24v.53Q184.42,253.43,184.9,253.43Zm-15.61-11.07q0-.56-.39-.56l-.39,0a3,3,0,0,1-.42,0,6.72,6.72,0,0,1-.7,0l-.58-.05a.75.75,0,0,0-.49.17.51.51,0,0,0-.2.41c0,.36.19.54.58.54a1.89,1.89,0,0,0,.37-.05,1.85,1.85,0,0,1,.36-.05q.37,0,.48.67a29.32,29.32,0,0,1,.1,3.22v3a15.57,15.57,0,0,1-.11,2.12q-.1.52-.37.52a2,2,0,0,1-.42-.07.83.83,0,0,0-.33,0q-.66,0-.66.53t.7.63l.87-.07q.51-.05.8-.05a11,11,0,0,1,1.11.07c.32,0,.56.05.72.05q.75,0,.75-.61a.49.49,0,0,0-.56-.54,1.46,1.46,0,0,0-.38.08,1.49,1.49,0,0,1-.39.08q-.42,0-.51-.83,0-.15,0-1.12v-.32a1.47,1.47,0,0,0,.07-.34v-1.22a3.77,3.77,0,0,1,.44-2,2.19,2.19,0,0,1,2-.92,1.82,1.82,0,0,1,1.74.88,5.29,5.29,0,0,1,.34,2.33v1.65c0,.4,0,.66,0,.8q0,1.1-.53,1.1a.91.91,0,0,1-.29-.05,1.43,1.43,0,0,0-.44-.08.62.62,0,0,0-.42.15.47.47,0,0,0-.18.37.57.57,0,0,0,.2.45.74.74,0,0,0,.51.18q.17,0,.88-.1a5.18,5.18,0,0,1,.68,0,10.22,10.22,0,0,1,1.16.08,5.88,5.88,0,0,0,.65.05q.82,0,.82-.58t-.63-.58l-.27,0a1.23,1.23,0,0,1-.39.1q-.37,0-.44-.85,0-.1,0-1.1V247.6a2.87,2.87,0,0,0-.89-2.19,3.73,3.73,0,0,0-3.68-.59,4.59,4.59,0,0,0-1.25.89l.07-3.31Zm-5.87,6a1,1,0,0,0,.71.26,1.12,1.12,0,0,0,.89-.41,1.54,1.54,0,0,0,.35-1,2.33,2.33,0,0,0-.9-1.88,3.44,3.44,0,0,0-2.26-.74,3.66,3.66,0,0,0-2.92,1.27,5,5,0,0,0-1.1,3.37,4.73,4.73,0,0,0,1.06,3.21,3.52,3.52,0,0,0,2.8,1.22,3.4,3.4,0,0,0,2.6-1.07,3.53,3.53,0,0,0,.65-1,2.54,2.54,0,0,0,.27-1,.64.64,0,0,0-.66-.66.59.59,0,0,0-.54.34q0,.09-.2.68a2.14,2.14,0,0,1-.76,1.17,2.07,2.07,0,0,1-1.3.42,2.18,2.18,0,0,1-1.86-.91,4.14,4.14,0,0,1-.67-2.51,4,4,0,0,1,.71-2.48,2.26,2.26,0,0,1,1.89-.93,2.13,2.13,0,0,1,1.25.34,1.32,1.32,0,0,1,.57.94q-.85.1-.85.78A.81.81,0,0,0,163.42,248.38Zm-16.12-2a2.56,2.56,0,0,1,1.73-.69,2.22,2.22,0,0,1,1.6.66,2.11,2.11,0,0,1,.68,1.56q0,.24-.36.24h-4.06q-.37,0-.37-.24A2,2,0,0,1,147.29,246.39Zm4.35-.74a3.51,3.51,0,0,0-2.63-1.07,3.69,3.69,0,0,0-2.92,1.29,5,5,0,0,0-1.12,3.37,4.7,4.7,0,0,0,1.05,3.22,3.59,3.59,0,0,0,2.84,1.2,4.09,4.09,0,0,0,2.55-.86,2.46,2.46,0,0,0,1.12-2,.56.56,0,0,0-.63-.65.53.53,0,0,0-.56.41l-.15.49a1.86,1.86,0,0,1-.81,1,2.43,2.43,0,0,1-1.37.41,2.46,2.46,0,0,1-1.9-.85,3.06,3.06,0,0,1-.76-2.12.25.25,0,0,1,.07-.2.48.48,0,0,1,.29-.06h5.41q.41,0,.49-.14a2.1,2.1,0,0,0,.08-.79A3.75,3.75,0,0,0,151.65,245.65Zm-9.41-1.95a.92.92,0,0,0,.28-.67.89.89,0,0,0-.28-.66,1,1,0,0,0-1.34,0,.89.89,0,0,0-.28.66.95.95,0,0,0,1.62.67Zm.23,3.31q0-.92,0-1.05s0-.11,0-.2,0-.16,0-.2c0-.44-.17-.66-.49-.66l-.42,0-.42,0-.7-.07-.46,0q-.75,0-.75.58c0,.36.21.54.62.54a1.75,1.75,0,0,0,.37-.06,1.83,1.83,0,0,1,.39-.06q.43,0,.51,1.07v4.35q-.08,1.09-.5,1.09a2.41,2.41,0,0,1-.4-.05,2.34,2.34,0,0,0-.4-.05q-.58,0-.58.56t.68.58a8.8,8.8,0,0,0,.89-.08,8,8,0,0,1,1-.07,6.7,6.7,0,0,1,.83.08,6.53,6.53,0,0,0,.83.08.84.84,0,0,0,.54-.17.51.51,0,0,0,.21-.41q0-.56-.65-.56a.73.73,0,0,0-.25,0,2.58,2.58,0,0,1-.43.08q-.37,0-.46-.76,0-.15,0-1v-2.21Q142.45,247.7,142.46,247Zm-10.64-4.49q0-.7-.55-.7h-.12l-.38,0-.4,0-.56-.05-.48,0q-.67,0-.67.58c0,.35.19.53.57.53a1.41,1.41,0,0,0,.48-.08l.33,0a.35.35,0,0,1,.36.25,5.21,5.21,0,0,1,.12,1.16v6.87l-.05.66q-.05.65-.46.65l-.37-.05a1.78,1.78,0,0,0-.32,0q-.65,0-.65.56t.66.56a8.28,8.28,0,0,0,.87-.08,6.83,6.83,0,0,1,.9-.07,7.51,7.51,0,0,1,.89.08,7.31,7.31,0,0,0,.88.08q.65,0,.65-.56a.5.5,0,0,0-.58-.56,1.57,1.57,0,0,0-.32,0l-.29,0q-.39,0-.48-.59c0-.07,0-.37,0-.92v-.39l1.26-1.12q.19-.17.25-.17c.07,0,.16.07.27.22l1.7,2.26.22.32.17.24,0,0v.05c0,.08-.05.12-.15.12a2,2,0,0,1-.39-.08l-.27,0c-.41,0-.61.18-.61.54s.21.58.65.58a6.67,6.67,0,0,0,.77-.07,6.69,6.69,0,0,1,.79-.07,9,9,0,0,1,.91.07,9,9,0,0,0,.91.07q.78,0,.78-.58c0-.36-.2-.54-.61-.54a1.56,1.56,0,0,0-.31,0l-.28,0q-.36,0-1.19-1.07l-2.18-2.82a.5.5,0,0,1-.14-.25c0-.07.06-.16.19-.27l1.78-1.63a1.34,1.34,0,0,1,.88-.42,2.43,2.43,0,0,1,.38,0,2.4,2.4,0,0,0,.38,0c.38,0,.58-.18.58-.55s-.28-.59-.83-.59l-.39,0-.7.1a4.06,4.06,0,0,1-.58,0,16.75,16.75,0,0,1-1.79-.14l-.48,0q-.75,0-.75.59c0,.36.2.54.59.54a2.63,2.63,0,0,0,.49-.07,2.56,2.56,0,0,1,.49-.07c.15,0,.22.06.22.17a.4.4,0,0,1-.15.31l-2.91,2.72Zm-5.36,6.58a4,4,0,0,1-.71,2.52,2.33,2.33,0,0,1-1.95.91,2.2,2.2,0,0,1-1.88-.91,4.14,4.14,0,0,1-.67-2.51v-.22a3.93,3.93,0,0,1,.75-2.36,2.28,2.28,0,0,1,1.87-.83Q126.47,245.7,126.47,249.1Zm.27,3.3a4.86,4.86,0,0,0,1.11-3.33,4.77,4.77,0,0,0-1.07-3.28,3.71,3.71,0,0,0-2.92-1.21,3.66,3.66,0,0,0-2.9,1.23,5.62,5.62,0,0,0,0,6.61,3.6,3.6,0,0,0,2.86,1.23A3.72,3.72,0,0,0,126.74,252.4Zm-9.55-3.3a4,4,0,0,1-.71,2.52,2.33,2.33,0,0,1-1.95.91,2.2,2.2,0,0,1-1.88-.91,4.14,4.14,0,0,1-.67-2.51v-.22a3.93,3.93,0,0,1,.75-2.36,2.28,2.28,0,0,1,1.87-.83Q117.19,245.7,117.19,249.1Zm.27,3.3a4.86,4.86,0,0,0,1.11-3.33,4.77,4.77,0,0,0-1.07-3.28,3.71,3.71,0,0,0-2.92-1.21,3.66,3.66,0,0,0-2.9,1.23,5.62,5.62,0,0,0,0,6.61,3.6,3.6,0,0,0,2.86,1.23A3.72,3.72,0,0,0,117.46,252.4Zm-10.29-4a1,1,0,0,0,.71.26,1.12,1.12,0,0,0,.89-.41,1.54,1.54,0,0,0,.35-1,2.33,2.33,0,0,0-.9-1.88,3.44,3.44,0,0,0-2.26-.74,3.66,3.66,0,0,0-2.92,1.27,5,5,0,0,0-1.1,3.37,4.73,4.73,0,0,0,1.06,3.21,3.52,3.52,0,0,0,2.8,1.22,3.4,3.4,0,0,0,2.6-1.07,3.53,3.53,0,0,0,.65-1,2.54,2.54,0,0,0,.27-1,.64.64,0,0,0-.66-.66.59.59,0,0,0-.54.34q0,.09-.2.68a2.14,2.14,0,0,1-.76,1.17,2.07,2.07,0,0,1-1.3.42,2.18,2.18,0,0,1-1.86-.91,4.14,4.14,0,0,1-.67-2.51,4,4,0,0,1,.71-2.48,2.26,2.26,0,0,1,1.89-.93,2.13,2.13,0,0,1,1.25.34,1.32,1.32,0,0,1,.57.94q-.85.1-.85.78A.81.81,0,0,0,107.17,248.38Z"/></g></g></svg>