<svg xmlns="http://www.w3.org/2000/svg" viewBox="0 0 78 74.53"><defs><style>.cls-1{fill:#f1ebe2;}</style></defs><title>ryansig</title><g id="Layer_2" data-name="Layer 2"><g id="Layer_1-2" data-name="Layer 1"><path class="cls-1" d="M2.78,17.16C2.69,21,2.6,24.9,2.6,28.78A122.72,122.72,0,0,0,4.47,52.23l1-.11L4.06,9.81A6.8,6.8,0,0,0,4,8.67a2.55,2.55,0,0,0-.53-1.15,1.78,1.78,0,0,0-1.35-.61,1.5,1.5,0,0,0-.7.17,1.23,1.23,0,0,0-.54.57L0,9.42,1.58,8.26C6.27,4.84,11.52,2,17.2,1.2A21,21,0,0,1,20.1,1c4.79,0,9.6,1.64,12.78,5.09A6.11,6.11,0,0,1,34.7,9.92a2.93,2.93,0,0,1-.2,1.09A5.75,5.75,0,0,1,33,12.89,51.52,51.52,0,0,1,8.88,26L7.7,26.3l1,.64A105,105,0,0,1,30.58,45.2a4,4,0,0,0,.67.6,1.71,1.71,0,0,0,1,.33,1.25,1.25,0,0,0,.53-.12.85.85,0,0,0,.38-.35.89.89,0,0,0,.11-.44,1.25,1.25,0,0,0-.23-.7,1.1,1.1,0,0,0-.26-.27.77.77,0,0,0-.44-.15.68.68,0,0,0-.41.14.81.81,0,0,0-.24.31l.91.42-.17-.08.11.15.06-.07-.17-.08.11.15-.2-.26v.32l.2-.07-.2-.26v.1l-.14.19a.24.24,0,0,0,.14,0v-.23l-.14.19h0l.07.15h.1l-.09,0,0,0h.1l-.09,0,.13.07-.06-.14-.06.06.13.07-.06-.14-.11,0a.75.75,0,0,1-.39-.16,3,3,0,0,1-.49-.45A106,106,0,0,0,9.26,26.09L9,26.52,9.1,27A52.52,52.52,0,0,0,33.73,13.61a6.66,6.66,0,0,0,1.69-2.23,3.94,3.94,0,0,0,.28-1.46,7.05,7.05,0,0,0-2.08-4.5C30.19,1.71,25.12,0,20.1,0a22,22,0,0,0-3,.21C11.14,1,5.76,4,1,7.46l.29.4.45.21L1.85,8a.51.51,0,0,1,.24-.05.8.8,0,0,1,.58.25A1.56,1.56,0,0,1,3,8.87a5.9,5.9,0,0,1,.09,1l1.4,42.31.5,0,.49-.1A121.75,121.75,0,0,1,3.6,28.78c0-3.86.09-7.74.18-11.6l-1,0Z"/><path class="cls-1" d="M57.83,28.28a4.2,4.2,0,0,0-1.79-.4,6.42,6.42,0,0,0-3.5,1.23,15.72,15.72,0,0,0-2.86,2.55c-1.67,1.86-3.39,3.9-4.06,6.46A7.42,7.42,0,0,0,45.39,40a7,7,0,0,0,.66,3,5.07,5.07,0,0,0,2.06,2.26,4.56,4.56,0,0,0,2.26.59,6.31,6.31,0,0,0,4.06-1.67,7.48,7.48,0,0,0,2.38-3.88,9.94,9.94,0,0,0,.24-2.22c0-2.93-1.15-5.78-2.25-8.41l-.94.34q2.64,8.51,5.91,16.81l.93-.37q-3.25-8.26-5.88-16.74l-.48.15-.46.19c1.1,2.62,2.17,5.37,2.17,8a8.94,8.94,0,0,1-.22,2,6.49,6.49,0,0,1-2.07,3.35,5.32,5.32,0,0,1-3.4,1.42,3.56,3.56,0,0,1-1.77-.46A4.07,4.07,0,0,1,47,42.56,6,6,0,0,1,46.39,40a6.42,6.42,0,0,1,.2-1.61c.58-2.26,2.18-4.2,3.83-6a14.75,14.75,0,0,1,2.67-2.39A5.45,5.45,0,0,1,56,28.88a3.2,3.2,0,0,1,1.37.3l.42-.91Z"/><path class="cls-1" d="M62.71,27.73q-.1,1.52-.1,3a47.43,47.43,0,0,0,1.08,10l1-.17a35.26,35.26,0,0,1-.39-4.54,12.14,12.14,0,0,1,.43-3.37,7.65,7.65,0,0,1,1.94-3.3,5.09,5.09,0,0,1,3.23-1.54h.29a5.39,5.39,0,0,1,4.16,2.26,10.38,10.38,0,0,1,2.09,5,24.42,24.42,0,0,1,.19,3.31c0,1.08,0,2.17,0,3.27A20.65,20.65,0,0,0,77,46.58l1-.24a19.69,19.69,0,0,1-.44-4.65c0-1.08,0-2.17,0-3.27A25.38,25.38,0,0,0,77.4,35a11.37,11.37,0,0,0-2.3-5.45,6.39,6.39,0,0,0-4.94-2.63h-.35a6.09,6.09,0,0,0-3.86,1.83,8.64,8.64,0,0,0-2.2,3.74,13.13,13.13,0,0,0-.47,3.64,36.15,36.15,0,0,0,.4,4.67l.5-.06.49-.11a46.44,46.44,0,0,1-1.05-9.84q0-1.49.1-3l-1-.06Z"/><path class="cls-1" d="M25.18,28.78A70.74,70.74,0,0,0,36.74,43.61l.36.35.35-.36A57.85,57.85,0,0,0,48.18,27.91l-.88-.47a448.74,448.74,0,0,0-25,46.67l.91.42A447.73,447.73,0,0,1,48.15,28l-.43-.26-.45-.21A56.85,56.85,0,0,1,36.73,42.91l.36.35.35-.36A69.75,69.75,0,0,1,26,28.28l-.86.5Z"/></g></g></svg>