<svg xmlns="http://www.w3.org/2000/svg" viewBox="0 0 273 273"><defs><style>.cls-1{fill:#fff;}.cls-2{fill:#f2ebe2;}.cls-3{fill:#cf2027;}.cls-4{fill:#82602d;}.cls-5{fill:#b69258;}.cls-6{fill:#f6a8b9;}.cls-7{fill:#341b10;}.cls-8{fill:#880b0d;}.cls-9{fill:#231f20;}</style></defs><title>strawberry</title><g id="Layer_2" data-name="Layer 2"><g id="Layer_1-2" data-name="Layer 1"><rect class="cls-1" width="273" height="273"/><circle class="cls-2" cx="136.5" cy="125.99" r="58.87"/><path class="cls-3" d="M135,129.42a2.68,2.68,0,0,0-1.68.54,2.7,2.7,0,0,0-4.41,2c0,1.49,4.42,6.26,4.42,6.26s4.28-4.58,4.31-6.07A2.7,2.7,0,0,0,135,129.42Z"/><path class="cls-4" d="M150.84,127.82S132.75,160,129,163.09c0,0-6.26,9.6-7.14-2,0,0,1.13-30.74,3.32-40.57S157.93,124.86,150.84,127.82Z"/><polygon class="cls-5" points="148.78 128.17 147.48 130.31 144.43 125.68 148.78 128.17"/><polygon class="cls-5" points="126.15 125.76 127.02 119.45 137.29 120.67 134.99 124.86 127.59 126.17 126.15 125.76"/><polygon class="cls-5" points="146.26 132.64 141.47 125.47 137.6 125.83 130.02 127.7 141.03 137.58 143.43 138.03 146.26 132.64"/><path class="cls-5" d="M138.09,137.27s-7.61-8-11.51-8.27l-.7.21-1.11,8.17,1.4,1.45S135.71,137.45,138.09,137.27Z"/><path class="cls-5" d="M141.27,141.51l-.92-1.55s-7.77-.82-12,.77c0,0,6.27,7.53,6.23,8.92l1.84.12Z"/><path class="cls-5" d="M132.33,149.73s-5.87-8.23-6.62-8.27a2.47,2.47,0,0,0-1.24.23s-.81,9-.54,9.45S126.05,150.1,132.33,149.73Z"/><path class="cls-5" d="M133.7,153.63l-.53-1.44a27.21,27.21,0,0,0-9.09,1.5s-.94,9.21.49,10.56S133.7,153.63,133.7,153.63Z"/><path class="cls-6" d="M118,105c.76-2.65,4.08-4.1,7.9-3.69,0-.21.1-.41.16-.62,2.54-8.86,12.54-13.77,22.34-11S164,102,161.51,110.86a15.2,15.2,0,0,1-1.5,3.51c2.88,2.14,4.38,5.28,3.55,8.18-1.17,4.09-6.55,6.14-12,4.58a13.42,13.42,0,0,1-2.89-1.2,9.54,9.54,0,0,1-8.71,1.75,9.68,9.68,0,0,1-5-3.33,6.34,6.34,0,0,1-3-3.73,13.66,13.66,0,0,1-5.84-.43c-5-1.44-8.38-5.11-7.5-8.2a3.89,3.89,0,0,1,1.1-1.77C118.17,108.64,117.46,106.76,118,105Z"/><path class="cls-7" d="M140.1,105.4s1.16-.14,1.25-.74a1.83,1.83,0,0,1,1.45-1.28c.65-.11.45,4,.45,4a1.91,1.91,0,0,1-1.8-1.16C140.88,105,140.06,105.62,140.1,105.4Z"/><path class="cls-3" d="M130.88,129.61a3,3,0,0,1,1.88.64,3,3,0,0,1,4.92,2.36c0,1.68-5.07,7-5.07,7s-4.73-5.21-4.74-6.89A3,3,0,0,1,130.88,129.61Z"/><path class="cls-7" d="M136.4,93.5s.76.9,1.31.65a1.83,1.83,0,0,1,1.86.52c.45.48-3.14,2.58-3.14,2.58a1.91,1.91,0,0,1,0-2.15C137.16,93.94,136.2,93.59,136.4,93.5Z"/><path class="cls-7" d="M146.88,118s.76.89,1.31.65a1.83,1.83,0,0,1,1.86.52c.45.48-3.14,2.58-3.14,2.58a1.9,1.9,0,0,1,0-2.15C147.64,118.44,146.67,118.09,146.88,118Z"/><path class="cls-7" d="M126.56,111.24s-.11-1.17-.71-1.27a1.83,1.83,0,0,1-1.24-1.48c-.1-.65,4-.34,4-.34a1.9,1.9,0,0,1-1.21,1.77C126.18,110.45,126.78,111.29,126.56,111.24Z"/><path class="cls-7" d="M151.76,95.21s-.29,1,.18,1.3a1.6,1.6,0,0,1,.56,1.63c-.13.59-3.54-.88-3.54-.88a1.83,1.83,0,0,1,1.6-1.17C151.82,96,151.59,95.11,151.76,95.21Z"/><path class="cls-7" d="M136,115.81s.34,1.12.94,1.11a1.83,1.83,0,0,1,1.5,1.21c.22.62-3.9,1.13-3.9,1.13a1.9,1.9,0,0,1,.84-2C136.52,116.51,135.77,115.81,136,115.81Z"/><circle class="cls-8" cx="134.6" cy="101.24" r="0.3" transform="translate(-32.17 124.83) rotate(-45)"/><circle class="cls-8" cx="141.26" cy="115.53" r="0.3" transform="translate(-40.32 133.72) rotate(-45)"/><circle class="cls-8" cx="146.71" cy="93.43" r="0.3" transform="translate(-23.1 131.11) rotate(-45)"/><circle class="cls-8" cx="146.71" cy="110.65" r="0.3" transform="translate(-35.27 136.15) rotate(-45)"/><circle class="cls-8" cx="148.43" cy="123.85" r="0.3" transform="translate(-44.1 141.23) rotate(-45)"/><circle class="cls-8" cx="152.45" cy="104.91" r="0.3" transform="translate(-29.53 138.53) rotate(-45)"/><circle class="cls-8" cx="125.48" cy="114.67" r="0.3" transform="translate(-44.33 122.31) rotate(-45)"/><circle class="cls-8" cx="159.39" cy="120.93" r="0.3" transform="translate(-38.8 148.36) rotate(-45.07)"/><path class="cls-7" d="M158.45,110.27s1-.63.81-1.21a1.83,1.83,0,0,1,.75-1.78c.54-.38,2.15,3.45,2.15,3.45a1.9,1.9,0,0,1-2.13-.27C159,109.58,158.51,110.49,158.45,110.27Z"/><path class="cls-9" d="M214,24.93q.11-.19.67-.19h2.21a1.28,1.28,0,0,0,1.46-1.43q0-1.49-1.59-1.49h-1.94c-.42,0-.67-.06-.77-.19a1.91,1.91,0,0,1-.15-1V19.21A1.52,1.52,0,0,0,213.6,18a2.17,2.17,0,0,0-1.28-.27,3.37,3.37,0,0,0-1.82.35,1.48,1.48,0,0,0-.5,1.3v1.32a2.31,2.31,0,0,1-.08.73q-.11.38-.76.38h-.51a1,1,0,0,0-.8.45,1.71,1.71,0,0,0-.34,1.07,1.53,1.53,0,0,0,.32,1,1,1,0,0,0,.84.39h.43q.46,0,.58.18a1.81,1.81,0,0,1,.12.85v.86q0,.76-.07,2.27t-.07,2.27q0,4.7,4.46,4.7a4.94,4.94,0,0,0,3.54-1.2,4.37,4.37,0,0,0,1.27-3.33q0-2.73-1.7-2.73a1.29,1.29,0,0,0-1.46,1.46,2.24,2.24,0,0,0,0,.27v.35a1.45,1.45,0,0,1,0,.32q0,1.43-1,1.43t-1-1.59q0,.16,0-.73l.05-1.81,0-1.67V25.53A1.24,1.24,0,0,1,214,24.93Zm-15.58.24a2.15,2.15,0,0,1,1.75-.84,2.19,2.19,0,0,1,1.46.53,1.57,1.57,0,0,1,.62,1.23.47.47,0,0,1-.09.34.81.81,0,0,1-.5.09h-3q-.49,0-.57-.11a.43.43,0,0,1-.08-.27A1.63,1.63,0,0,1,198.46,25.18Zm6.44-2.08a6.33,6.33,0,0,0-4.58-1.65,6.54,6.54,0,0,0-5,2,7.36,7.36,0,0,0-1.9,5.28,7.06,7.06,0,0,0,1.92,5.18,6.88,6.88,0,0,0,5.13,1.94,7.59,7.59,0,0,0,4.17-1.09,3.14,3.14,0,0,0,1.71-2.66,1.51,1.51,0,0,0-.5-1.16,1.86,1.86,0,0,0-1.31-.46,2.41,2.41,0,0,0-1.78.86,3.33,3.33,0,0,1-2.32,1.24,2.44,2.44,0,0,1-1.84-.76A2.61,2.61,0,0,1,197.9,30q0-.38.12-.47a1.19,1.19,0,0,1,.61-.09h6.59a1.34,1.34,0,0,0,1.12-.38,2.74,2.74,0,0,0,.28-1.51A5.82,5.82,0,0,0,204.9,23.1Zm-21.18,2.08a2.15,2.15,0,0,1,1.75-.84,2.19,2.19,0,0,1,1.46.53,1.57,1.57,0,0,1,.62,1.23.47.47,0,0,1-.09.34.81.81,0,0,1-.5.09h-3q-.49,0-.57-.11a.43.43,0,0,1-.08-.27A1.63,1.63,0,0,1,183.72,25.18Zm6.44-2.08a6.33,6.33,0,0,0-4.58-1.65,6.54,6.54,0,0,0-5,2,7.36,7.36,0,0,0-1.9,5.28,7.06,7.06,0,0,0,1.92,5.18,6.88,6.88,0,0,0,5.13,1.94,7.59,7.59,0,0,0,4.17-1.09,3.14,3.14,0,0,0,1.71-2.66,1.51,1.51,0,0,0-.5-1.16,1.86,1.86,0,0,0-1.31-.46,2.41,2.41,0,0,0-1.78.86,3.33,3.33,0,0,1-2.32,1.24,2.44,2.44,0,0,1-1.84-.76,2.61,2.61,0,0,1-.73-1.89q0-.38.12-.47a1.19,1.19,0,0,1,.61-.09h6.59a1.34,1.34,0,0,0,1.12-.38,2.74,2.74,0,0,0,.28-1.51A5.82,5.82,0,0,0,190.16,23.1Zm-29.93,2.51v-.24c0-.18,0-.29.12-.34a2.25,2.25,0,0,1,.63-.12q1.05-.08,1.05-1.46,0-1.62-1.46-1.62a13.6,13.6,0,0,0-1.4.11,13.53,13.53,0,0,1-1.4.11,11,11,0,0,1-1.28-.11,11.1,11.1,0,0,0-1.28-.11q-1.59,0-1.59,1.75,0,1.57,1.13,1.57l.34,0,.34,0q.54,0,.73.84l2.16,8.21q.38,1.38,1.21,1.38a6.68,6.68,0,0,0,.86-.08,6.68,6.68,0,0,1,.86-.08,5.85,5.85,0,0,1,.89.08,5.55,5.55,0,0,0,.81.08.85.85,0,0,0,.8-.39,8.75,8.75,0,0,0,.58-1.93l1.57-6.88,1.32,7.1q.41,2.11,1.4,2.11a5.45,5.45,0,0,0,.76-.08,5.48,5.48,0,0,1,.78-.08,6.05,6.05,0,0,1,.81.08,6,6,0,0,0,.81.08q.89,0,1.43-1.73l2.24-7q.24-.73.24-.76.27-1,.62-1l.41.05a1,1,0,0,0,.27,0,1.09,1.09,0,0,0,.89-.45,1.8,1.8,0,0,0,.35-1.15,1.7,1.7,0,0,0-.43-1.21,1.49,1.49,0,0,0-1.13-.46,11.4,11.4,0,0,0-1.3.11,11.38,11.38,0,0,1-1.3.11,12.12,12.12,0,0,1-1.35-.11,12.16,12.16,0,0,0-1.35-.11,1.38,1.38,0,0,0-1.54,1.59q0,1.49,1.32,1.51.65,0,.65.4a1.57,1.57,0,0,1-.05.38l-1.43,6-1.54-7.64a3.34,3.34,0,0,0-.8-1.9,3.74,3.74,0,0,0-2.09-.39,3.41,3.41,0,0,0-1.93.39,2.66,2.66,0,0,0-.8,1.58l-1.73,8L160.29,26A2.17,2.17,0,0,1,160.23,25.61Zm-19.86-7.14a5.28,5.28,0,0,0-1.66,4,4.64,4.64,0,0,0,1.94,3.92,6,6,0,0,0,2.16,1.05l1.78.43a11.13,11.13,0,0,1,2.83.93,1.48,1.48,0,0,1,.59,1.34,1.71,1.71,0,0,1-.67,1.4,2.81,2.81,0,0,1-1.81.54q-2.78,0-3.08-2a3,3,0,0,0-.63-1.66,2,2,0,0,0-1.47-.45,2.39,2.39,0,0,0-1.5.45,1.38,1.38,0,0,0-.58,1.15,9.13,9.13,0,0,0,.07.92c0,.41.07.72.07.92a11.47,11.47,0,0,1-.11,1.32,9.88,9.88,0,0,0-.08,1.21A1.54,1.54,0,0,0,140,35.68a1.43,1.43,0,0,0,1.62-1.51,7.41,7.41,0,0,0,4.62,1.73A6.68,6.68,0,0,0,151,34.15a5.84,5.84,0,0,0,1.86-4.47A4.64,4.64,0,0,0,151.3,26a10.69,10.69,0,0,0-4.94-2,10.41,10.41,0,0,1-2.52-.7,1.21,1.21,0,0,1-.5-1.13q0-1.62,2.32-1.62t2.86,1.75l.13.57a1.64,1.64,0,0,0,1.84,1.3q1.84,0,1.84-1.59v-.14a6.51,6.51,0,0,0-.05-.7,6.42,6.42,0,0,1-.05-.7q0-.41.08-1.19t.08-1.19q0-1.46-1.73-1.46a1.59,1.59,0,0,0-1.17.35,2,2,0,0,0-.37,1.3,5.49,5.49,0,0,0-4.43-1.92A6.05,6.05,0,0,0,140.37,18.47Zm-15,10.19q0,3.89-2.51,3.89a2.2,2.2,0,0,1-1.93-1,5.1,5.1,0,0,1-.69-2.86,5.11,5.11,0,0,1,.69-2.85,2.14,2.14,0,0,1,1.88-1Q125.38,24.77,125.38,28.66Zm2.55,5.26a7.65,7.65,0,0,0,1.8-5.4,7.1,7.1,0,0,0-1.85-5.18,6.76,6.76,0,0,0-5.06-1.89,6.67,6.67,0,0,0-5.08,1.9,7.39,7.39,0,0,0-1.81,5.31A7.35,7.35,0,0,0,117.75,34a6.85,6.85,0,0,0,5.17,1.89A6.48,6.48,0,0,0,127.93,33.93ZM101.68,18.47a5.28,5.28,0,0,0-1.66,4A4.64,4.64,0,0,0,102,26.42a6,6,0,0,0,2.16,1.05l1.78.43a11.13,11.13,0,0,1,2.83.93,1.48,1.48,0,0,1,.59,1.34,1.71,1.71,0,0,1-.67,1.4,2.81,2.81,0,0,1-1.81.54q-2.78,0-3.08-2a3,3,0,0,0-.63-1.66,2,2,0,0,0-1.47-.45,2.39,2.39,0,0,0-1.5.45,1.38,1.38,0,0,0-.58,1.15,9.13,9.13,0,0,0,.07.92c0,.41.07.72.07.92a11.47,11.47,0,0,1-.11,1.32A9.88,9.88,0,0,0,99.54,34a1.54,1.54,0,0,0,1.75,1.73,1.43,1.43,0,0,0,1.62-1.51,7.41,7.41,0,0,0,4.62,1.73,6.68,6.68,0,0,0,4.75-1.74,5.84,5.84,0,0,0,1.86-4.47A4.64,4.64,0,0,0,112.6,26a10.69,10.69,0,0,0-4.94-2,10.41,10.41,0,0,1-2.52-.7,1.21,1.21,0,0,1-.5-1.13q0-1.62,2.32-1.62t2.86,1.75l.13.57a1.64,1.64,0,0,0,1.84,1.3q1.84,0,1.84-1.59v-.14a6.51,6.51,0,0,0-.05-.7,6.42,6.42,0,0,1-.05-.7q0-.41.08-1.19t.08-1.19q0-1.46-1.73-1.46a1.59,1.59,0,0,0-1.17.35,2,2,0,0,0-.37,1.3A5.49,5.49,0,0,0,106,16.92,6.05,6.05,0,0,0,101.68,18.47ZM93,30.23l1,0,1,0,1,0a1.33,1.33,0,0,0,1.13-.43,2.61,2.61,0,0,0,.32-1.51q0-1.67-1.46-1.67H95.3l-1.24,0-1.24,0H92q-1.43,0-1.43,1.76T92,30.25Zm-14.82-13a7.68,7.68,0,0,0-.93.08,11.16,11.16,0,0,1-1.44.08,9.41,9.41,0,0,1-1-.08,9.44,9.44,0,0,0-1-.08,1.54,1.54,0,0,0-1.19.5A1.86,1.86,0,0,0,72.13,19q0,1.49,1.3,1.49a1.4,1.4,0,0,0,.43-.05,1.49,1.49,0,0,1,.49-.11q.46,0,.46,1.51v9q0,1.51-.46,1.51a1.53,1.53,0,0,1-.45-.09,1.5,1.5,0,0,0-.45-.09q-1.32,0-1.32,1.54A1.82,1.82,0,0,0,72.59,35a1.54,1.54,0,0,0,1.19.5q.3,0,1.38-.14a9.88,9.88,0,0,1,1.21-.08,12.23,12.23,0,0,1,1.54.11,11,11,0,0,0,1.16.11q1.49,0,1.49-1.78,0-1.22-.84-1.35a1.16,1.16,0,0,1-.66-.23,1.31,1.31,0,0,1-.12-.71V28.26q0-3.21,2.32-3.21Q83,25,83,27.28v4.13a1.78,1.78,0,0,1-.11.73q-.11.22-.57.24-1,.08-1,1.46a1.73,1.73,0,0,0,.42,1.22,1.41,1.41,0,0,0,1.09.46,11.31,11.31,0,0,0,1.28-.11,11.31,11.31,0,0,1,1.28-.11,12.4,12.4,0,0,1,1.35.11,12.41,12.41,0,0,0,1.35.11q1.59,0,1.59-1.89,0-1.38-1.19-1.38a1.42,1.42,0,0,0-.43.05,1.17,1.17,0,0,1-.38.05q-.54,0-.54-1.35V26.37a6.18,6.18,0,0,0-.7-3.35,4,4,0,0,0-3.56-1.57,4.91,4.91,0,0,0-1.94.34,8.25,8.25,0,0,0-1.94,1.34V18.18Q78.94,17.24,78.21,17.24ZM65.26,22.09a9.14,9.14,0,0,1,.82,4.47q0,5.56-3.48,5.56a2.9,2.9,0,0,1-2.81-1.65,9.28,9.28,0,0,1-.67-4q0-5.72,3.51-5.72A2.83,2.83,0,0,1,65.26,22.09Zm3.64,11.26a10.46,10.46,0,0,0,2.23-7.11,9.67,9.67,0,0,0-2.29-6.86,8.33,8.33,0,0,0-6.4-2.46,7.77,7.77,0,0,0-6.14,2.52,10.11,10.11,0,0,0-2.23,6.93q0,4.56,2.24,7a8.11,8.11,0,0,0,6.35,2.48A7.86,7.86,0,0,0,68.91,33.34Z"/><path class="cls-9" d="M205.16,47q0-.4.57-.49a1.2,1.2,0,0,0,1.13-1.3q0-1.57-1.48-1.57l-1.3.11q-1.22.11-1.73.11a11,11,0,0,1-1.28-.11,11.1,11.1,0,0,0-1.28-.11,1.51,1.51,0,0,0-1.17.53,1.86,1.86,0,0,0-.47,1.28q0,1.54,1.38,1.54l.13,0h.11l.41-.05q.32,0,.65.76l3,7.15a10.85,10.85,0,0,1,.92,2.73,2.61,2.61,0,0,1-.66,1.46,1.82,1.82,0,0,1-1.39.86,1.62,1.62,0,0,1-.67-.16,3.31,3.31,0,0,0,.05-.59,1.71,1.71,0,0,0-.51-1.28,1.85,1.85,0,0,0-1.35-.5,2.18,2.18,0,0,0-1.61.63,2.21,2.21,0,0,0-.63,1.63,2.8,2.8,0,0,0,1.24,2.35,5.17,5.17,0,0,0,3.16.92,6.53,6.53,0,0,0,5.29-2.73,11.16,11.16,0,0,0,1.2-1.84q.42-.84,1.5-3.65l2.32-6,.35-.94c.2-.54.46-.81.78-.81a2.14,2.14,0,0,1,.37.05,2,2,0,0,0,.36.05,1.08,1.08,0,0,0,.88-.47,1.74,1.74,0,0,0,.36-1.09q0-1.75-1.62-1.75a11.4,11.4,0,0,0-1.3.11,11.38,11.38,0,0,1-1.3.11,10.64,10.64,0,0,1-1.24-.11,10.7,10.7,0,0,0-1.24-.11,1.26,1.26,0,0,0-1,.45,1.64,1.64,0,0,0-.39,1.12c0,.61.19,1,.57,1.13l.49.19q.43.16.43.46a3.42,3.42,0,0,1-.22,1l-1.84,5.56-1.84-5.8A2.87,2.87,0,0,1,205.16,47Zm-15.77-3.35a5.93,5.93,0,0,0-.92.11,6,6,0,0,1-.95.11,4.22,4.22,0,0,1-.92-.11,3.73,3.73,0,0,0-.76-.11,1.38,1.38,0,0,0-1.11.51,2,2,0,0,0-.43,1.32q0,1.49,1.3,1.49a1.77,1.77,0,0,0,.47-.09,1.83,1.83,0,0,1,.42-.09q.46,0,.46,1.54v4.37q0,1.51-.46,1.51a1.39,1.39,0,0,1-.41-.09,1.47,1.47,0,0,0-.49-.09q-1.3,0-1.3,1.51,0,1.81,1.67,1.81.3,0,1.59-.14a17.89,17.89,0,0,1,1.81-.08,14.77,14.77,0,0,1,1.7.08q1.11.13,1.51.14a1.74,1.74,0,0,0,1.28-.53,1.78,1.78,0,0,0,.53-1.31A1.43,1.43,0,0,0,193,54.06a2.94,2.94,0,0,0-.65.11,3,3,0,0,1-.67.11.42.42,0,0,1-.38-.16,2.92,2.92,0,0,1-.16-1.24v-1a11.75,11.75,0,0,1,.49-3.54A2.41,2.41,0,0,1,194,46.39h.16a2.53,2.53,0,0,0-.35,1.05,1.55,1.55,0,0,0,.53,1.19,1.82,1.82,0,0,0,1.28.49,2.12,2.12,0,0,0,1.65-.72,2.61,2.61,0,0,0,.65-1.82,3.13,3.13,0,0,0-1-2.36,3.5,3.5,0,0,0-2.5-1,4,4,0,0,0-3.32,1.49,5.8,5.8,0,0,0-.89,2V44.47A.74.74,0,0,0,189.39,43.63Zm-14.26,0a5.93,5.93,0,0,0-.92.11,6,6,0,0,1-.95.11,4.22,4.22,0,0,1-.92-.11,3.73,3.73,0,0,0-.76-.11,1.38,1.38,0,0,0-1.11.51,2,2,0,0,0-.43,1.32q0,1.49,1.3,1.49a1.77,1.77,0,0,0,.47-.09,1.83,1.83,0,0,1,.42-.09q.46,0,.46,1.54v4.37q0,1.51-.46,1.51a1.39,1.39,0,0,1-.41-.09,1.47,1.47,0,0,0-.49-.09q-1.3,0-1.3,1.51,0,1.81,1.67,1.81.3,0,1.59-.14a17.89,17.89,0,0,1,1.81-.08,14.77,14.77,0,0,1,1.7.08q1.11.13,1.51.14a1.74,1.74,0,0,0,1.28-.53,1.78,1.78,0,0,0,.53-1.31,1.43,1.43,0,0,0-1.43-1.43,2.94,2.94,0,0,0-.65.11,3,3,0,0,1-.67.11.42.42,0,0,1-.38-.16,2.92,2.92,0,0,1-.16-1.24v-1a11.75,11.75,0,0,1,.49-3.54,2.41,2.41,0,0,1,2.43-1.92h.16a2.53,2.53,0,0,0-.35,1.05,1.55,1.55,0,0,0,.53,1.19,1.82,1.82,0,0,0,1.28.49A2.12,2.12,0,0,0,183,48.4a2.61,2.61,0,0,0,.65-1.82,3.13,3.13,0,0,0-1-2.36,3.5,3.5,0,0,0-2.5-1,4,4,0,0,0-3.32,1.49,5.8,5.8,0,0,0-.89,2V44.47A.74.74,0,0,0,175.14,43.63ZM160.67,47a2.15,2.15,0,0,1,1.75-.84,2.19,2.19,0,0,1,1.46.53,1.57,1.57,0,0,1,.62,1.23.47.47,0,0,1-.09.34.81.81,0,0,1-.5.09h-3q-.49,0-.57-.11a.43.43,0,0,1-.08-.27A1.63,1.63,0,0,1,160.67,47Zm6.44-2.08a6.33,6.33,0,0,0-4.58-1.65,6.54,6.54,0,0,0-5,2,7.36,7.36,0,0,0-1.9,5.28,7.06,7.06,0,0,0,1.92,5.18,6.88,6.88,0,0,0,5.13,1.94,7.59,7.59,0,0,0,4.17-1.09,3.14,3.14,0,0,0,1.71-2.66,1.51,1.51,0,0,0-.5-1.16,1.86,1.86,0,0,0-1.31-.46,2.41,2.41,0,0,0-1.78.86,3.33,3.33,0,0,1-2.32,1.24,2.44,2.44,0,0,1-1.84-.76,2.61,2.61,0,0,1-.73-1.89q0-.38.12-.47a1.19,1.19,0,0,1,.61-.09h6.59a1.34,1.34,0,0,0,1.12-.38,2.74,2.74,0,0,0,.28-1.51A5.82,5.82,0,0,0,167.1,44.9ZM145,50.44a4.73,4.73,0,0,1,.71-2.69,2.13,2.13,0,0,1,1.82-1.07q2.29,0,2.29,3.78t-2.35,3.78Q145,54.25,145,50.44ZM144.2,39a8,8,0,0,0-.92.08,11.23,11.23,0,0,1-1.43.08,9.43,9.43,0,0,1-1-.08,9.43,9.43,0,0,0-1-.08,1.53,1.53,0,0,0-1.2.5,1.9,1.9,0,0,0-.45,1.31q0,1.49,1.3,1.49a1.41,1.41,0,0,0,.43-.05,1.49,1.49,0,0,1,.49-.11q.46,0,.46,1.38V55.87a1.37,1.37,0,0,0,1.54,1.57q1.49,0,1.49-1.24a5.8,5.8,0,0,0-.05-.67,5.11,5.11,0,0,0,4.35,2.16,5.38,5.38,0,0,0,4.4-2,8.3,8.3,0,0,0,1.65-5.4,8.13,8.13,0,0,0-1.47-5.06,4.61,4.61,0,0,0-3.85-1.93A5.32,5.32,0,0,0,145,45.09V40Q145,39,144.2,39Zm-23.25,8.37v-.24c0-.18,0-.29.12-.34a2.25,2.25,0,0,1,.63-.12q1.05-.08,1.05-1.46,0-1.62-1.46-1.62a13.6,13.6,0,0,0-1.4.11,13.53,13.53,0,0,1-1.4.11,11,11,0,0,1-1.28-.11,11.1,11.1,0,0,0-1.28-.11q-1.59,0-1.59,1.75,0,1.57,1.13,1.57l.34,0,.34,0q.54,0,.73.84L119,55.92q.38,1.38,1.21,1.38a6.68,6.68,0,0,0,.86-.08,6.68,6.68,0,0,1,.86-.08,5.85,5.85,0,0,1,.89.08,5.55,5.55,0,0,0,.81.08.85.85,0,0,0,.8-.39,8.75,8.75,0,0,0,.58-1.93l1.57-6.88,1.32,7.1q.41,2.11,1.4,2.11a5.45,5.45,0,0,0,.76-.08,5.48,5.48,0,0,1,.78-.08,6.05,6.05,0,0,1,.81.08,6,6,0,0,0,.81.08q.89,0,1.43-1.73l2.24-7q.24-.73.24-.76.27-1,.62-1l.41.05a1,1,0,0,0,.27,0,1.09,1.09,0,0,0,.89-.45,1.8,1.8,0,0,0,.35-1.15,1.7,1.7,0,0,0-.43-1.21,1.49,1.49,0,0,0-1.13-.46,11.4,11.4,0,0,0-1.3.11,11.38,11.38,0,0,1-1.3.11,12.12,12.12,0,0,1-1.35-.11,12.16,12.16,0,0,0-1.35-.11,1.38,1.38,0,0,0-1.54,1.59q0,1.49,1.32,1.51.65,0,.65.4a1.57,1.57,0,0,1-.05.38l-1.43,6-1.54-7.64a3.34,3.34,0,0,0-.8-1.9,3.74,3.74,0,0,0-2.09-.39,3.41,3.41,0,0,0-1.93.39,2.66,2.66,0,0,0-.8,1.58l-1.73,8L121,47.79A2.17,2.17,0,0,1,120.95,47.41Zm-14.9,7q-1.46,0-1.46-1.24,0-.78,1.49-1.16a24.12,24.12,0,0,0,2.38-.67v.59A2.16,2.16,0,0,1,106,54.38Zm8.36,2.73a1.72,1.72,0,0,0,.8-1.46,1.47,1.47,0,0,0-1.49-1.48l-.19,0a2.78,2.78,0,0,1-.41,0q-.43,0-.43-.86V47.76q0-2.65-1.54-3.62a8.39,8.39,0,0,0-4.35-.89,9,9,0,0,0-4.24.84A2.55,2.55,0,0,0,101,46.39a2.11,2.11,0,0,0,.7,1.62,2.53,2.53,0,0,0,1.78.65,2.43,2.43,0,0,0,1.58-.51,1.57,1.57,0,0,0,.63-1.27v-.11a2.59,2.59,0,0,1,0-.38q0-.57.89-.57a2,2,0,0,1,1.31.42,1.28,1.28,0,0,1,.53,1,1.4,1.4,0,0,1-.69,1.28,8.24,8.24,0,0,1-2.61.74,17.27,17.27,0,0,0-2.43.59,3.49,3.49,0,0,0-2.46,3.67,3.78,3.78,0,0,0,1.27,3,5,5,0,0,0,3.4,1.12,6.31,6.31,0,0,0,4.48-1.78,2.91,2.91,0,0,0,3,1.78A3.44,3.44,0,0,0,114.4,57.11ZM91.2,43.63a5.93,5.93,0,0,0-.92.11,6,6,0,0,1-.95.11,4.22,4.22,0,0,1-.92-.11,3.73,3.73,0,0,0-.76-.11,1.38,1.38,0,0,0-1.11.51,2,2,0,0,0-.43,1.32q0,1.49,1.3,1.49a1.77,1.77,0,0,0,.47-.09,1.83,1.83,0,0,1,.42-.09q.46,0,.46,1.54v4.37q0,1.51-.46,1.51a1.39,1.39,0,0,1-.41-.09,1.47,1.47,0,0,0-.49-.09q-1.3,0-1.3,1.51,0,1.81,1.67,1.81.3,0,1.59-.14a17.89,17.89,0,0,1,1.81-.08,14.77,14.77,0,0,1,1.7.08q1.11.13,1.51.14a1.74,1.74,0,0,0,1.28-.53,1.78,1.78,0,0,0,.53-1.31,1.43,1.43,0,0,0-1.43-1.43,2.94,2.94,0,0,0-.65.11,3,3,0,0,1-.67.11.42.42,0,0,1-.38-.16,2.92,2.92,0,0,1-.16-1.24v-1a11.75,11.75,0,0,1,.49-3.54,2.41,2.41,0,0,1,2.43-1.92H96a2.53,2.53,0,0,0-.35,1.05,1.55,1.55,0,0,0,.53,1.19,1.82,1.82,0,0,0,1.28.49,2.12,2.12,0,0,0,1.65-.72,2.61,2.61,0,0,0,.65-1.82,3.13,3.13,0,0,0-1-2.36,3.5,3.5,0,0,0-2.5-1,4,4,0,0,0-3.32,1.49,5.8,5.8,0,0,0-.89,2V44.47A.74.74,0,0,0,91.2,43.63ZM80.5,46.74q.11-.19.67-.19h2.21a1.28,1.28,0,0,0,1.46-1.43q0-1.49-1.59-1.49H81.31c-.42,0-.67-.06-.77-.19a1.91,1.91,0,0,1-.15-1V41a1.52,1.52,0,0,0-.34-1.19,2.17,2.17,0,0,0-1.28-.27,3.37,3.37,0,0,0-1.82.35,1.48,1.48,0,0,0-.5,1.3v1.32a2.31,2.31,0,0,1-.08.73q-.11.38-.76.38H75.1a1,1,0,0,0-.8.45A1.71,1.71,0,0,0,74,45.15a1.53,1.53,0,0,0,.32,1,1,1,0,0,0,.84.39h.43q.46,0,.58.18a1.81,1.81,0,0,1,.12.85v.86q0,.76-.07,2.27T76.13,53q0,4.7,4.46,4.7a4.94,4.94,0,0,0,3.54-1.2,4.37,4.37,0,0,0,1.27-3.33q0-2.73-1.7-2.73a1.29,1.29,0,0,0-1.46,1.46,2.24,2.24,0,0,0,0,.27v.35a1.45,1.45,0,0,1,0,.32q0,1.43-1,1.43t-1-1.59q0,.16,0-.73l.05-1.81,0-1.67V47.33A1.24,1.24,0,0,1,80.5,46.74ZM60.4,40.27a5.28,5.28,0,0,0-1.66,4,4.64,4.64,0,0,0,1.94,3.92,6,6,0,0,0,2.16,1.05l1.78.43a11.13,11.13,0,0,1,2.83.93A1.48,1.48,0,0,1,68.06,52a1.71,1.71,0,0,1-.67,1.4,2.81,2.81,0,0,1-1.81.54q-2.78,0-3.08-2a3,3,0,0,0-.63-1.66,2,2,0,0,0-1.47-.45,2.39,2.39,0,0,0-1.5.45,1.38,1.38,0,0,0-.58,1.15,9.13,9.13,0,0,0,.07.92c0,.41.07.72.07.92a11.47,11.47,0,0,1-.11,1.32,9.88,9.88,0,0,0-.08,1.21A1.54,1.54,0,0,0,60,57.48,1.43,1.43,0,0,0,61.63,56a7.41,7.41,0,0,0,4.62,1.73A6.68,6.68,0,0,0,71,56a5.84,5.84,0,0,0,1.86-4.47,4.64,4.64,0,0,0-1.54-3.67,10.69,10.69,0,0,0-4.94-2,10.41,10.41,0,0,1-2.52-.7,1.21,1.21,0,0,1-.5-1.13q0-1.62,2.32-1.62t2.86,1.75l.13.57A1.64,1.64,0,0,0,70.51,46q1.84,0,1.84-1.59v-.14a6.51,6.51,0,0,0-.05-.7,6.42,6.42,0,0,1-.05-.7q0-.41.08-1.19t.08-1.19Q72.4,39,70.68,39a1.59,1.59,0,0,0-1.17.35,2,2,0,0,0-.37,1.3,5.49,5.49,0,0,0-4.43-1.92A6.05,6.05,0,0,0,60.4,40.27Z"/><path class="cls-9" d="M203,212.82a1.68,1.68,0,0,0,.5-1.22,1.72,1.72,0,1,0-3.43,0,1.68,1.68,0,0,0,.5,1.22,1.7,1.7,0,0,0,2.43,0Zm-11-7.77a2.73,2.73,0,0,0-.84,2.07,2.7,2.7,0,0,0,.29,1.27,1.81,1.81,0,0,0,.79.81,7.61,7.61,0,0,0,1.71.51l1,.2q1,.2,1,.73,0,.77-1.22.77a2.25,2.25,0,0,1-1.05-.2,2.56,2.56,0,0,1-.78-.83,1.76,1.76,0,0,0-.51-.53,1.43,1.43,0,0,0-.7-.14q-1,0-1,.77c0,.1,0,.25,0,.46s0,.36,0,.46,0,.29,0,.53,0,.41,0,.53q0,.75.92.75a.74.74,0,0,0,.85-.83,4.32,4.32,0,0,0,2.72,1,3.65,3.65,0,0,0,2.49-.87,2.75,2.75,0,0,0,1-2.16,2.44,2.44,0,0,0-.42-1.43,2.25,2.25,0,0,0-.88-.73,7.06,7.06,0,0,0-1.66-.46,9.83,9.83,0,0,1-1.7-.38.51.51,0,0,1-.32-.5q0-.68,1-.68a1.71,1.71,0,0,1,1.41.78,1.38,1.38,0,0,0,1.12.65.8.8,0,0,0,.9-.9v-.46q0-.22,0-.27a3.62,3.62,0,0,1,.05-.58,1.78,1.78,0,0,0,.07-.46q0-.61-.87-.61t-.92.71a3.39,3.39,0,0,0-2.21-.73A3.07,3.07,0,0,0,192,205.05ZM187,213.11a3.37,3.37,0,0,0,.55-.07,3.34,3.34,0,0,1,.55-.07,4,4,0,0,1,.6.07,4,4,0,0,0,.6.07q1,0,1-1.17,0-.88-.73-.88a1,1,0,0,0-.29,0,.76.76,0,0,1-.24,0q-.32,0-.32-.85V205.1c0-.41-.18-.61-.54-.61a4.89,4.89,0,0,0-.56.05l-.73.08a5.05,5.05,0,0,1-.68-.07,5.21,5.21,0,0,0-.7-.07q-1,0-1,1.17,0,.9.63.9a1.09,1.09,0,0,0,.26,0,1.08,1.08,0,0,1,.26,0q.39,0,.39.87v1.58q0,2.13-1.53,2.13-1,0-1.05-1.33l0-4.52q0-.71-.51-.71a4.12,4.12,0,0,0-.61.07,4,4,0,0,1-.61.07,4.35,4.35,0,0,1-.63-.07,4.46,4.46,0,0,0-.63-.07q-1,0-1,1.14,0,.93.76.94l.17,0h.17a.29.29,0,0,1,.25.1,1.69,1.69,0,0,1,.08.7V210a5.31,5.31,0,0,0,.28,2.1,2.05,2.05,0,0,0,.93.91,3,3,0,0,0,1.43.34,3.6,3.6,0,0,0,3-1.43v.66Q186.56,213.11,187,213.11Zm-10.71-4.32q0,2.45-1.58,2.45a1.38,1.38,0,0,1-1.22-.65,3.94,3.94,0,0,1,0-3.6,1.35,1.35,0,0,1,1.18-.65Q176.34,206.34,176.34,208.79Zm1.61,3.32a4.82,4.82,0,0,0,1.13-3.4,4.46,4.46,0,0,0-1.17-3.26,4.25,4.25,0,0,0-3.19-1.19,4.2,4.2,0,0,0-3.2,1.2,5.47,5.47,0,0,0,0,6.69,4.31,4.31,0,0,0,3.26,1.19A4.08,4.08,0,0,0,177.95,212.11Zm-10-8.71a1.54,1.54,0,1,0-1.1.45A1.49,1.49,0,0,0,168,203.39Zm-.64,1.16a5.25,5.25,0,0,1-.75.07,7.08,7.08,0,0,1-1-.08,4.12,4.12,0,0,0-.54-.05,1,1,0,0,0-.76.31,1.17,1.17,0,0,0-.29.82q0,1,.82,1l.27,0,.31-.08q.29,0,.29,1v2.75c0,.64-.1,1-.31,1l-.12,0-.44-.1q-.82,0-.82,1a1.15,1.15,0,0,0,.29.81,1,1,0,0,0,.75.31A8.75,8.75,0,0,0,166,213a8.78,8.78,0,0,1,.9-.07,10.26,10.26,0,0,1,1.09.05q.78.08,1,.08,1,0,1-1.17,0-.88-.71-.88a1.33,1.33,0,0,0-.3,0l-.25,0q-.32,0-.32-.87v-5.12q0-.66-.48-.66ZM160.68,208a1.41,1.41,0,0,0,.93.3,1.6,1.6,0,0,0,1.14-.42,1.44,1.44,0,0,0,.44-1.1,2.13,2.13,0,0,0-1-1.79,4.12,4.12,0,0,0-2.47-.71,4.22,4.22,0,0,0-4.52,4.54,4.56,4.56,0,0,0,1.19,3.31,4.24,4.24,0,0,0,3.2,1.23,4.32,4.32,0,0,0,2.69-.85,2.48,2.48,0,0,0,1.12-2,1.19,1.19,0,0,0-.36-.89,1.28,1.28,0,0,0-.93-.35,1.13,1.13,0,0,0-.75.2,2.23,2.23,0,0,0-.41.71,1.29,1.29,0,0,1-1.22.9,1.57,1.57,0,0,1-1.31-.65,2.76,2.76,0,0,1-.49-1.72,2.69,2.69,0,0,1,.47-1.66,1.45,1.45,0,0,1,1.22-.62,1.49,1.49,0,0,1,.87.27.92.92,0,0,0-.17.51A1,1,0,0,0,160.68,208Zm-7.88-4.57a1.54,1.54,0,1,0-1.1.45A1.49,1.49,0,0,0,152.8,203.39Zm-.64,1.16a5.25,5.25,0,0,1-.75.07,7.08,7.08,0,0,1-1-.08,4.12,4.12,0,0,0-.54-.05,1,1,0,0,0-.76.31,1.17,1.17,0,0,0-.29.82q0,1,.82,1l.27,0,.31-.08q.29,0,.29,1v2.75c0,.64-.1,1-.31,1l-.12,0-.44-.1q-.82,0-.82,1a1.15,1.15,0,0,0,.29.81,1,1,0,0,0,.75.31,8.75,8.75,0,0,0,.88-.07,8.78,8.78,0,0,1,.9-.07,10.26,10.26,0,0,1,1.09.05q.78.08,1,.08,1,0,1-1.17,0-.88-.71-.88a1.33,1.33,0,0,0-.3,0l-.25,0q-.32,0-.32-.87v-5.12q0-.66-.48-.66Zm-6.46-2.91a3,3,0,0,1-.68.07,8.22,8.22,0,0,1-.87-.07l-.58-.05a1,1,0,0,0-.78.31,1.16,1.16,0,0,0-.29.83q0,.93.82.93a.87.87,0,0,0,.27,0,1,1,0,0,1,.31-.07q.29,0,.29,1v5.66c0,.64-.1,1-.29,1a1,1,0,0,1-.28-.06,1,1,0,0,0-.28-.06q-.83,0-.83,1a1.17,1.17,0,0,0,.29.83,1,1,0,0,0,.75.31c.12,0,.42,0,.9-.08a6.7,6.7,0,0,1,.8-.05q.44,0,.83,0l1.29.1q1,0,1-1.17,0-.88-.75-.88a.88.88,0,0,0-.27,0,.76.76,0,0,1-.24,0q-.34,0-.34-.85v-8q0-.63-.48-.63A5,5,0,0,0,145.71,201.65Zm-9,4.95a1.35,1.35,0,0,1,1.1-.53,1.38,1.38,0,0,1,.92.33,1,1,0,0,1,.39.77.3.3,0,0,1-.06.21.51.51,0,0,1-.31.06h-1.9c-.2,0-.32,0-.36-.07l-.05-.17A1,1,0,0,1,136.73,206.6Zm4.05-1.31a4,4,0,0,0-2.88-1,4.12,4.12,0,0,0-3.14,1.27,4.64,4.64,0,0,0-1.2,3.32,4.45,4.45,0,0,0,1.21,3.26,4.33,4.33,0,0,0,3.23,1.22,4.79,4.79,0,0,0,2.63-.69,2,2,0,0,0,1.08-1.67,1,1,0,0,0-.31-.73,1.17,1.17,0,0,0-.82-.29,1.52,1.52,0,0,0-1.12.54,2.1,2.1,0,0,1-1.46.78,1.54,1.54,0,0,1-1.16-.48,1.65,1.65,0,0,1-.46-1.19c0-.16,0-.26.08-.3a.74.74,0,0,1,.38-.06H141a.84.84,0,0,0,.71-.24,1.73,1.73,0,0,0,.18-1A3.66,3.66,0,0,0,140.79,205.29Zm-12.62,1.85a2.76,2.76,0,0,1,.46,1.67,2.86,2.86,0,0,1-.47,1.72,1.44,1.44,0,0,1-1.21.65,1.24,1.24,0,0,1-1.08-.59,2.9,2.9,0,0,1-.4-1.63v-.22a3.15,3.15,0,0,1,.45-1.61,1.2,1.2,0,0,1,1-.6A1.44,1.44,0,0,1,128.16,207.14Zm-4.43-1.55a4.94,4.94,0,0,0-1,3.21,5.07,5.07,0,0,0,1,3.24,3.14,3.14,0,0,0,2.58,1.28,2.88,2.88,0,0,0,2.65-1.51v.63c0,.41.18.61.53.61L130,213a6.51,6.51,0,0,1,.73,0,3.77,3.77,0,0,1,.58,0l.59.1h.1a.82.82,0,0,0,.68-.33,1.37,1.37,0,0,0,.25-.86q0-.87-.73-.87a.89.89,0,0,0-.27,0,.84.84,0,0,1-.25.05q-.32,0-.32-.87v-7.73a1.18,1.18,0,0,0-.16-.72.73.73,0,0,0-.59-.2l-.63,0-.65,0c-.16,0-.46,0-.92-.07l-.54,0q-1.16,0-1.16,1.09a1,1,0,0,0,.22.68.67.67,0,0,0,.54.27,1.51,1.51,0,0,0,.44-.07l.41,0c.28,0,.43.2.43.61v1.22a3.44,3.44,0,0,0-2.38-1A3.2,3.2,0,0,0,123.73,205.6Zm-12.09,1q0-.25.36-.31a.76.76,0,0,0,.71-.82q0-1-.94-1l-.82.07c-.51,0-.87.07-1.09.07a6.88,6.88,0,0,1-.81-.07,7.08,7.08,0,0,0-.81-.07,1,1,0,0,0-.74.33,1.17,1.17,0,0,0-.3.81q0,1,.87,1l.08,0h.07l.25,0q.2,0,.41.48l1.9,4.5a6.8,6.8,0,0,1,.58,1.72,1.64,1.64,0,0,1-.42.92,1.15,1.15,0,0,1-.88.54,1,1,0,0,1-.42-.1,2.11,2.11,0,0,0,0-.37,1.08,1.08,0,0,0-.32-.81,1.17,1.17,0,0,0-.85-.31,1.37,1.37,0,0,0-1,.4,1.39,1.39,0,0,0-.4,1,1.77,1.77,0,0,0,.78,1.48,3.26,3.26,0,0,0,2,.58,4.11,4.11,0,0,0,3.33-1.72,6.94,6.94,0,0,0,.76-1.16q.26-.53.94-2.29l1.46-3.81.22-.59q.19-.51.49-.51l.23,0,.23,0a.68.68,0,0,0,.55-.3,1.09,1.09,0,0,0,.23-.69q0-1.1-1-1.1a7.28,7.28,0,0,0-.82.07,7.11,7.11,0,0,1-.82.07,6.66,6.66,0,0,1-.78-.07,6.8,6.8,0,0,0-.78-.07.79.79,0,0,0-.62.28,1,1,0,0,0-.25.71q0,.58.36.71l.31.12c.18.07.27.17.27.29a2.14,2.14,0,0,1-.14.61l-1.16,3.5-1.16-3.66A1.78,1.78,0,0,1,111.64,206.6Zm-9.93-2.11a3.79,3.79,0,0,0-.58.07,3.72,3.72,0,0,1-.59.07,2.64,2.64,0,0,1-.58-.07,2.38,2.38,0,0,0-.48-.07.87.87,0,0,0-.7.32,1.25,1.25,0,0,0-.27.83q0,.93.82.93a1.11,1.11,0,0,0,.3-.06,1.19,1.19,0,0,1,.26-.06q.29,0,.29,1v2.75c0,.64-.1,1-.29,1a.85.85,0,0,1-.25-.06,1,1,0,0,0-.31-.06q-.82,0-.82,1,0,1.14,1.05,1.14.19,0,1-.08a11.15,11.15,0,0,1,1.14-.05,9.22,9.22,0,0,1,1.07.05,9.5,9.5,0,0,0,1,.08,1.1,1.1,0,0,0,.81-.33,1.12,1.12,0,0,0,.33-.82.9.9,0,0,0-.9-.9,1.89,1.89,0,0,0-.41.07,1.9,1.9,0,0,1-.42.07.27.27,0,0,1-.24-.1,1.86,1.86,0,0,1-.1-.78v-.65a7.4,7.4,0,0,1,.31-2.23,1.52,1.52,0,0,1,1.53-1.21h.1a1.59,1.59,0,0,0-.22.66,1,1,0,0,0,.33.75,1.14,1.14,0,0,0,.81.31,1.34,1.34,0,0,0,1-.45,1.64,1.64,0,0,0,.41-1.15,2,2,0,0,0-.64-1.49,2.2,2.2,0,0,0-1.57-.6,2.52,2.52,0,0,0-2.09.94,3.65,3.65,0,0,0-.56,1.27V205A.47.47,0,0,0,101.71,204.49Zm-9,0a3.79,3.79,0,0,0-.58.07,3.72,3.72,0,0,1-.59.07,2.64,2.64,0,0,1-.58-.07,2.38,2.38,0,0,0-.48-.07.87.87,0,0,0-.7.32,1.25,1.25,0,0,0-.27.83q0,.93.82.93a1.11,1.11,0,0,0,.3-.06,1.19,1.19,0,0,1,.26-.06q.29,0,.29,1v2.75c0,.64-.1,1-.29,1a.85.85,0,0,1-.25-.06,1,1,0,0,0-.31-.06q-.82,0-.82,1,0,1.14,1.05,1.14.19,0,1-.08a11.15,11.15,0,0,1,1.14-.05,9.22,9.22,0,0,1,1.07.05,9.5,9.5,0,0,0,1,.08,1.1,1.1,0,0,0,.81-.33,1.12,1.12,0,0,0,.33-.82.9.9,0,0,0-.9-.9,1.89,1.89,0,0,0-.41.07,1.9,1.9,0,0,1-.42.07.27.27,0,0,1-.24-.1,1.86,1.86,0,0,1-.1-.78v-.65a7.4,7.4,0,0,1,.31-2.23,1.52,1.52,0,0,1,1.53-1.21h.1a1.59,1.59,0,0,0-.22.66,1,1,0,0,0,.33.75,1.14,1.14,0,0,0,.81.31,1.34,1.34,0,0,0,1-.45,1.64,1.64,0,0,0,.41-1.15,2,2,0,0,0-.64-1.49,2.2,2.2,0,0,0-1.57-.6,2.52,2.52,0,0,0-2.09.94,3.65,3.65,0,0,0-.56,1.27V205A.47.47,0,0,0,92.74,204.49Zm-9.11,2.11a1.35,1.35,0,0,1,1.1-.53,1.38,1.38,0,0,1,.92.33,1,1,0,0,1,.39.77.3.3,0,0,1-.06.21.51.51,0,0,1-.31.06h-1.9c-.2,0-.32,0-.36-.07l-.05-.17A1,1,0,0,1,83.62,206.6Zm4.05-1.31a4,4,0,0,0-2.88-1,4.12,4.12,0,0,0-3.14,1.27,4.64,4.64,0,0,0-1.2,3.32,4.45,4.45,0,0,0,1.21,3.26,4.33,4.33,0,0,0,3.23,1.22,4.79,4.79,0,0,0,2.63-.69A2,2,0,0,0,88.6,211a1,1,0,0,0-.31-.73,1.17,1.17,0,0,0-.82-.29,1.52,1.52,0,0,0-1.12.54,2.1,2.1,0,0,1-1.46.78,1.54,1.54,0,0,1-1.16-.48,1.65,1.65,0,0,1-.46-1.19c0-.16,0-.26.08-.3a.74.74,0,0,1,.38-.06h4.15a.84.84,0,0,0,.71-.24,1.73,1.73,0,0,0,.18-1A3.66,3.66,0,0,0,87.68,205.29Zm-12,5.3a1.88,1.88,0,0,1-1.21.37,2.66,2.66,0,0,1-1.36-.25,1,1,0,0,1-.37-.89v-1.24a.56.56,0,0,1,.12-.42.76.76,0,0,1,.49-.11h.51a2.93,2.93,0,0,1,1.67.43,1.3,1.3,0,0,1,.63,1.12A1.2,1.2,0,0,1,75.69,210.59Zm-2.95-6a.72.72,0,0,1,.36-.73,2.55,2.55,0,0,1,.88-.1q1.77,0,1.77,1.14a1,1,0,0,1-.52.87,2.64,2.64,0,0,1-1.4.32H73.3a.82.82,0,0,1-.43-.07c-.09-.06-.14-.2-.14-.43Zm5.63-1.74a2.7,2.7,0,0,0-1.46-.94,7.94,7.94,0,0,0-2-.24q-.75,0-1.14,0l-1.16.1c-.26,0-.61,0-1.05,0s-1,0-1.36-.05L69,201.63l-.07,0h-.07A1.15,1.15,0,0,0,68,202a1.26,1.26,0,0,0-.33.91,1.22,1.22,0,0,0,.26.8.81.81,0,0,0,.65.32,2,2,0,0,0,.42-.06,2,2,0,0,1,.4-.06q.46,0,.46,1.14v4.71q0,1.16-.46,1.16a2,2,0,0,1-.4-.06,2.05,2.05,0,0,0-.42-.06.81.81,0,0,0-.65.32,1.37,1.37,0,0,0,.07,1.7,1.17,1.17,0,0,0,.88.34H69q.34,0,1.12-.08c.52-.06.92-.08,1.19-.08s.72,0,1,0l1.21.08q.73.05,1.39.05a5.25,5.25,0,0,0,3.26-.89,3,3,0,0,0,1.16-2.51A2.79,2.79,0,0,0,77.27,207l-.43-.17a2.31,2.31,0,0,0,2.09-2.36A2.51,2.51,0,0,0,78.37,202.82Z"/><path class="cls-9" d="M256.18,222.19q0-.7-.55-.7h-.12l-.38,0-.4,0-.56-.05-.48,0q-.67,0-.67.58c0,.35.19.53.57.53a1.41,1.41,0,0,0,.48-.08l.33,0a.35.35,0,0,1,.36.25,5.21,5.21,0,0,1,.12,1.16v6.87l-.05.66q-.05.65-.46.65L254,232a1.78,1.78,0,0,0-.32,0q-.65,0-.65.56t.66.56a8.28,8.28,0,0,0,.87-.08,6.83,6.83,0,0,1,.9-.07,7.51,7.51,0,0,1,.89.08,7.31,7.31,0,0,0,.88.08q.65,0,.65-.56a.5.5,0,0,0-.58-.56,1.57,1.57,0,0,0-.32,0l-.29,0q-.39,0-.48-.59c0-.07,0-.37,0-.92v-.39l1.26-1.12q.19-.17.25-.17c.07,0,.16.07.27.22l1.7,2.26.22.32.17.24,0,0V232c0,.08-.05.12-.15.12a2,2,0,0,1-.39-.08l-.27,0c-.41,0-.61.18-.61.54s.21.58.65.58a6.67,6.67,0,0,0,.77-.07,6.69,6.69,0,0,1,.79-.07,9,9,0,0,1,.91.07,9,9,0,0,0,.91.07q.78,0,.78-.58c0-.36-.2-.54-.61-.54a1.56,1.56,0,0,0-.31,0l-.28,0q-.36,0-1.19-1.07l-2.18-2.82a.5.5,0,0,1-.14-.25c0-.07.06-.16.19-.27l1.78-1.63a1.34,1.34,0,0,1,.88-.42,2.43,2.43,0,0,1,.38,0,2.4,2.4,0,0,0,.38,0c.38,0,.58-.18.58-.55s-.28-.59-.83-.59l-.39,0-.7.1a4.06,4.06,0,0,1-.58,0,16.75,16.75,0,0,1-1.79-.14l-.48,0q-.75,0-.75.59c0,.36.2.54.59.54a2.63,2.63,0,0,0,.49-.07,2.56,2.56,0,0,1,.49-.07c.15,0,.22.06.22.17a.4.4,0,0,1-.15.31l-2.91,2.72Zm-8.87,2.35a1.09,1.09,0,0,0-.32,0l-.44,0-.51,0-.51,0q-.73,0-.73.59a.49.49,0,0,0,.56.54,1.89,1.89,0,0,0,.37-.05,1.88,1.88,0,0,1,.37-.05q.46,0,.51,1l.05,3.86v.87q0,.78-.46.78l-.24,0-.26-.05-.26,0q-.65,0-.65.53c0,.4.23.6.69.6l.95-.08c.26,0,.62,0,1.07,0a7.32,7.32,0,0,1,.77.06,7.59,7.59,0,0,0,.77.06h.07q.69,0,.69-.59a.48.48,0,0,0-.54-.54,1.45,1.45,0,0,0-.32,0,2,2,0,0,1-.46.06q-.44,0-.53-1,0-.14,0-1.28v-1.12a6.73,6.73,0,0,1,.27-2.21,1.72,1.72,0,0,1,1.77-1.19,1.7,1.7,0,0,1,1.08.34,1,1,0,0,1,.43.83.85.85,0,0,1-.1.37l-.22-.05a.64.64,0,0,0-.48.21.68.68,0,0,0-.2.48.74.74,0,0,0,.27.58,1,1,0,0,0,.66.24,1.2,1.2,0,0,0,1-.47,1.89,1.89,0,0,0,.37-1.21,2.22,2.22,0,0,0-.74-1.73,3,3,0,0,0-4.29.57V225C247.75,224.7,247.6,224.54,247.3,224.54Zm-7,7a2.5,2.5,0,0,1-1.79.62,2,2,0,0,1-1.27-.37,1.24,1.24,0,0,1-.47-1q0-1.24,1.93-1.43a7.83,7.83,0,0,0,1.48-.24,2.18,2.18,0,0,0,.79-.48v1.21A2.3,2.3,0,0,1,240.34,231.59Zm4.29,0v-1.05q0-.82-.55-.82t-.52.54v.83q0,1.08-.59,1.08t-.58-.59a7.25,7.25,0,0,1,0-1v-3.43q0-3-3.09-3a3.81,3.81,0,0,0-2.29.68,2,2,0,0,0-.94,1.63,1,1,0,0,0,.3.75,1,1,0,0,0,.74.31.9.9,0,0,0,.62-.22.72.72,0,0,0,.25-.56.66.66,0,0,0-.24-.58c-.1-.07-.15-.12-.15-.17s.08-.24.25-.36a2.6,2.6,0,0,1,1.43-.43,2.07,2.07,0,0,1,1.35.4,1.35,1.35,0,0,1,.48,1.1,1.09,1.09,0,0,1-.43,1,5.12,5.12,0,0,1-1.86.43q-1,.12-1.33.2a3.16,3.16,0,0,0-.79.33,2.21,2.21,0,0,0-1.21,2.07,2.23,2.23,0,0,0,.83,1.82,3.35,3.35,0,0,0,2.2.68,3.06,3.06,0,0,0,2.72-1.28,1.57,1.57,0,0,0,1.72,1.21A1.51,1.51,0,0,0,244.64,231.63Zm-13.71,0a2.46,2.46,0,0,1-3.46-.39,4.11,4.11,0,0,1-.7-2.54,4,4,0,0,1,.68-2.46,2.21,2.21,0,0,1,1.88-.9,2.41,2.41,0,0,1,1.57.56,2.13,2.13,0,0,1,.74,1.33,9.07,9.07,0,0,1,.09,1.55,12.53,12.53,0,0,1-.07,1.45A2.14,2.14,0,0,1,230.93,231.67Zm-4.5-6.19a5.72,5.72,0,0,0,0,6.59,3.44,3.44,0,0,0,2.78,1.26,3.06,3.06,0,0,0,2.61-1.21v.37c0,.41.15.61.46.61a1.49,1.49,0,0,0,.36-.05l.39,0,.52,0,.52,0q.77,0,.77-.58t-.64-.56l-.38,0a1.32,1.32,0,0,1-.35,0,.39.39,0,0,1-.42-.27,6.76,6.76,0,0,1-.1-1.4v-4.51q0-.44,0-1.29.05-1.21.05-1.31c0-.57,0-.87,0-.9v-.19q0-.68-.48-.68a3.26,3.26,0,0,0-.44,0l-.44,0-.56-.05-.49,0q-.85,0-.85.56t.63.54a2,2,0,0,0,.38-.05,2,2,0,0,1,.38-.05q.39,0,.48.53a5.68,5.68,0,0,1,0,.83v1.72a2.78,2.78,0,0,0-2.52-1.31A3.44,3.44,0,0,0,226.43,225.49Zm-10,6.19a2.46,2.46,0,0,1-3.46-.39,4.11,4.11,0,0,1-.7-2.54,4,4,0,0,1,.68-2.46,2.21,2.21,0,0,1,1.88-.9,2.41,2.41,0,0,1,1.57.56,2.13,2.13,0,0,1,.74,1.33,9.07,9.07,0,0,1,.09,1.55,12.53,12.53,0,0,1-.07,1.45A2.14,2.14,0,0,1,216.48,231.67Zm-4.5-6.19a5.72,5.72,0,0,0,0,6.59,3.44,3.44,0,0,0,2.78,1.26,3.06,3.06,0,0,0,2.61-1.21v.37c0,.41.15.61.46.61a1.49,1.49,0,0,0,.36-.05l.39,0,.52,0,.52,0q.77,0,.77-.58t-.64-.56l-.38,0a1.32,1.32,0,0,1-.35,0,.39.39,0,0,1-.42-.27,6.76,6.76,0,0,1-.1-1.4v-4.51q0-.44,0-1.29.05-1.21.05-1.31c0-.57,0-.87,0-.9v-.19q0-.68-.48-.68a3.26,3.26,0,0,0-.44,0l-.44,0-.56-.05-.49,0q-.85,0-.85.56t.63.54a2,2,0,0,0,.38-.05,2,2,0,0,1,.38-.05q.39,0,.48.53a5.68,5.68,0,0,1,0,.83v1.72a2.78,2.78,0,0,0-2.52-1.31A3.44,3.44,0,0,0,212,225.49Zm-9.76-.94-.46,0a2.35,2.35,0,0,1-.48,0l-.63-.07-.17,0q-.76,0-.76.56c0,.36.21.54.62.54l.35,0,.36,0a.4.4,0,0,1,.39.21,2.18,2.18,0,0,1,.15.79v4.54q0,1-.54,1a2.13,2.13,0,0,1-.46-.05l-.32-.05a.48.48,0,0,0-.55.54q0,.58.71.58l.85-.08a8.68,8.68,0,0,1,1-.07,6.18,6.18,0,0,1,.83.05q.75.1.88.1.68,0,.68-.55t-.53-.57a1.67,1.67,0,0,0-.39.06,1.68,1.68,0,0,1-.37.06.37.37,0,0,1-.37-.27,3.39,3.39,0,0,1-.1-1v-2.26a4.59,4.59,0,0,1,.41-2.26,2.11,2.11,0,0,1,1.95-1,2.16,2.16,0,0,1,1.27.39,1.64,1.64,0,0,1,.66,1,6,6,0,0,1,.08,1.24v3.2q0,.93-.45.93l-.42-.07a1.57,1.57,0,0,0-.31,0q-.59,0-.59.53t.68.6l.9-.1a6.51,6.51,0,0,1,.73,0,8.32,8.32,0,0,1,1,.07,7.34,7.34,0,0,0,.78.07.75.75,0,0,0,.49-.17.53.53,0,0,0,.2-.43.5.5,0,0,0-.16-.37.54.54,0,0,0-.38-.15l-.35,0a2.47,2.47,0,0,1-.4,0c-.25,0-.4-.19-.46-.58q0-.14,0-.87V227.4a4,4,0,0,0-.24-1.51,2.45,2.45,0,0,0-1.11-1.16,3.44,3.44,0,0,0-1.73-.47,3.29,3.29,0,0,0-2.72,1.29v-.48Q202.71,224.54,202.22,224.54Zm-6.95,7a2.5,2.5,0,0,1-1.79.62,2,2,0,0,1-1.27-.37,1.24,1.24,0,0,1-.47-1q0-1.24,1.93-1.43a7.83,7.83,0,0,0,1.48-.24,2.18,2.18,0,0,0,.79-.48v1.21A2.3,2.3,0,0,1,195.28,231.59Zm4.29,0v-1.05q0-.82-.55-.82t-.52.54v.83q0,1.08-.59,1.08t-.58-.59a7.25,7.25,0,0,1,0-1v-3.43q0-3-3.09-3a3.81,3.81,0,0,0-2.29.68,2,2,0,0,0-.94,1.63,1,1,0,0,0,.3.75,1,1,0,0,0,.74.31.9.9,0,0,0,.62-.22.72.72,0,0,0,.25-.56.66.66,0,0,0-.24-.58c-.1-.07-.15-.12-.15-.17s.08-.24.25-.36a2.6,2.6,0,0,1,1.43-.43,2.07,2.07,0,0,1,1.35.4,1.35,1.35,0,0,1,.48,1.1,1.09,1.09,0,0,1-.43,1,5.12,5.12,0,0,1-1.86.43q-1,.12-1.33.2a3.16,3.16,0,0,0-.79.33,2.21,2.21,0,0,0-1.21,2.07,2.23,2.23,0,0,0,.83,1.82,3.35,3.35,0,0,0,2.2.68,3.06,3.06,0,0,0,2.72-1.28,1.57,1.57,0,0,0,1.72,1.21A1.51,1.51,0,0,0,199.57,231.63Zm-26.93-7.07h-.05l-.41.07h-.31a5.26,5.26,0,0,1-.56,0l-.51,0q-.7,0-.7.58t.63.54l.27,0,.48-.09a.39.39,0,0,1,.42.36,12.14,12.14,0,0,1,.08,1.8v3.57q0,.83-.5.83l-.07,0L171,232l-.1,0h-.1q-.66,0-.66.53t.68.58l.88-.07.75-.05a8.72,8.72,0,0,1,1,.07,6.14,6.14,0,0,0,.71.05q.76,0,.76-.54t-.66-.56h-.12l-.1,0a1.44,1.44,0,0,1-.36.09c-.2,0-.33-.19-.37-.58q0-.12,0-.8v-2.27a4.06,4.06,0,0,1,.49-2.32,2,2,0,0,1,1.72-.82,1.6,1.6,0,0,1,1.42.58,3.86,3.86,0,0,1,.4,2.07v2.48l-.05.8q0,.87-.42.87a1.36,1.36,0,0,1-.36-.07.7.7,0,0,0-.29,0,.46.46,0,0,0-.51.53q0,.58.7.58a4.85,4.85,0,0,0,.75-.07,5,5,0,0,1,.78-.07,6.27,6.27,0,0,1,.76.07,6.24,6.24,0,0,0,.76.07q.8,0,.8-.55a.53.53,0,0,0-.16-.39.55.55,0,0,0-.4-.16l-.3,0-.3,0c-.22,0-.35-.13-.4-.4a14.72,14.72,0,0,1-.08-2v-1.21a5.09,5.09,0,0,1,.37-2.31,1.76,1.76,0,0,1,1.68-.83,2.07,2.07,0,0,1,1.12.31,1.54,1.54,0,0,1,.67.84,5.92,5.92,0,0,1,.18,1.71v2.16a8.36,8.36,0,0,1-.09,1.45.35.35,0,0,1-.37.29.89.89,0,0,1-.27,0l-.34,0c-.36,0-.54.17-.54.51s.24.6.71.6c.19,0,.47,0,.84-.06a8.4,8.4,0,0,1,.84-.06,7.42,7.42,0,0,1,.79.06,7.65,7.65,0,0,0,.77.06q.68,0,.68-.6T185,232a1.63,1.63,0,0,0-.35.06,1.58,1.58,0,0,1-.35.06c-.24,0-.38-.2-.44-.61,0-.1,0-.39,0-.85v-2.93a5.2,5.2,0,0,0-.22-1.77,2.46,2.46,0,0,0-1.17-1.29,3.62,3.62,0,0,0-1.73-.41,3.51,3.51,0,0,0-1.53.29,3.59,3.59,0,0,0-1.17,1,2.66,2.66,0,0,0-2.45-1.29,3,3,0,0,0-1.36.28,4,4,0,0,0-1.16,1v-.49C173,224.72,172.91,224.56,172.64,224.56Zm-7,7a2.5,2.5,0,0,1-1.79.62,2,2,0,0,1-1.27-.37,1.24,1.24,0,0,1-.47-1q0-1.24,1.93-1.43a7.83,7.83,0,0,0,1.48-.24,2.18,2.18,0,0,0,.79-.48v1.21A2.3,2.3,0,0,1,165.66,231.59Zm4.29,0v-1.05q0-.82-.55-.82t-.52.54v.83q0,1.08-.59,1.08t-.58-.59a7.25,7.25,0,0,1,0-1v-3.43q0-3-3.09-3a3.81,3.81,0,0,0-2.29.68,2,2,0,0,0-.94,1.63,1,1,0,0,0,.3.75,1,1,0,0,0,.74.31.9.9,0,0,0,.62-.22.72.72,0,0,0,.25-.56.66.66,0,0,0-.24-.58c-.1-.07-.15-.12-.15-.17s.08-.24.25-.36a2.6,2.6,0,0,1,1.43-.43,2.07,2.07,0,0,1,1.35.4,1.35,1.35,0,0,1,.48,1.1,1.09,1.09,0,0,1-.43,1,5.12,5.12,0,0,1-1.86.43q-1,.12-1.33.2a3.16,3.16,0,0,0-.79.33,2.21,2.21,0,0,0-1.21,2.07,2.23,2.23,0,0,0,.83,1.82,3.35,3.35,0,0,0,2.2.68,3.06,3.06,0,0,0,2.72-1.28,1.57,1.57,0,0,0,1.72,1.21A1.51,1.51,0,0,0,170,231.63Zm-15.69-5.57a2.56,2.56,0,0,1,1.73-.69,2.22,2.22,0,0,1,1.6.66,2.11,2.11,0,0,1,.68,1.56q0,.24-.36.24h-4.06q-.37,0-.37-.24A2,2,0,0,1,154.26,226.06Zm4.35-.74a3.51,3.51,0,0,0-2.63-1.07,3.69,3.69,0,0,0-2.92,1.29,5,5,0,0,0-1.12,3.37,4.7,4.7,0,0,0,1.05,3.22,3.59,3.59,0,0,0,2.84,1.2,4.09,4.09,0,0,0,2.55-.86,2.46,2.46,0,0,0,1.12-2,.56.56,0,0,0-.63-.65.53.53,0,0,0-.56.41l-.15.49a1.86,1.86,0,0,1-.81,1,2.43,2.43,0,0,1-1.37.41,2.46,2.46,0,0,1-1.9-.85,3.06,3.06,0,0,1-.76-2.12.25.25,0,0,1,.07-.2.48.48,0,0,1,.29-.06h5.41q.41,0,.49-.14a2.1,2.1,0,0,0,.08-.79A3.75,3.75,0,0,0,158.62,225.32Zm-12.9-.78a1.09,1.09,0,0,0-.32,0l-.44,0-.51,0-.51,0q-.73,0-.73.59a.49.49,0,0,0,.56.54,1.89,1.89,0,0,0,.37-.05,1.88,1.88,0,0,1,.37-.05q.46,0,.51,1l.05,3.86v.87q0,.78-.46.78l-.24,0-.26-.05-.26,0q-.65,0-.65.53c0,.4.23.6.69.6l.95-.08c.26,0,.62,0,1.07,0a7.32,7.32,0,0,1,.77.06,7.59,7.59,0,0,0,.77.06h.07q.69,0,.69-.59a.48.48,0,0,0-.54-.54,1.45,1.45,0,0,0-.32,0,2,2,0,0,1-.46.06q-.44,0-.53-1,0-.14,0-1.28v-1.12a6.73,6.73,0,0,1,.27-2.21,1.72,1.72,0,0,1,1.77-1.19,1.7,1.7,0,0,1,1.08.34,1,1,0,0,1,.43.83.85.85,0,0,1-.1.37l-.22-.05a.64.64,0,0,0-.48.21.68.68,0,0,0-.2.48.74.74,0,0,0,.27.58,1,1,0,0,0,.66.24,1.2,1.2,0,0,0,1-.47,1.89,1.89,0,0,0,.37-1.21,2.22,2.22,0,0,0-.74-1.73,3,3,0,0,0-4.29.57V225C146.16,224.7,146,224.54,145.71,224.54Zm-5.57,3.52a1,1,0,0,0,.71.26,1.12,1.12,0,0,0,.89-.41,1.54,1.54,0,0,0,.35-1,2.33,2.33,0,0,0-.9-1.88,3.44,3.44,0,0,0-2.26-.74,3.66,3.66,0,0,0-2.92,1.27,5,5,0,0,0-1.1,3.37,4.73,4.73,0,0,0,1.06,3.21,3.52,3.52,0,0,0,2.8,1.22,3.4,3.4,0,0,0,2.6-1.07,3.53,3.53,0,0,0,.65-1,2.54,2.54,0,0,0,.27-1,.64.64,0,0,0-.66-.66.59.59,0,0,0-.54.34q0,.09-.2.68a2.14,2.14,0,0,1-.76,1.17,2.07,2.07,0,0,1-1.3.42,2.18,2.18,0,0,1-1.86-.91,4.14,4.14,0,0,1-.67-2.51,4,4,0,0,1,.71-2.48,2.26,2.26,0,0,1,1.89-.93,2.13,2.13,0,0,1,1.25.34,1.32,1.32,0,0,1,.57.94q-.85.1-.85.78A.81.81,0,0,0,140.15,228.06Zm-16.12-2a2.56,2.56,0,0,1,1.73-.69,2.22,2.22,0,0,1,1.6.66,2.11,2.11,0,0,1,.68,1.56q0,.24-.36.24h-4.06q-.37,0-.37-.24A2,2,0,0,1,124,226.06Zm4.35-.74a3.51,3.51,0,0,0-2.63-1.07,3.69,3.69,0,0,0-2.92,1.29,5,5,0,0,0-1.12,3.37,4.7,4.7,0,0,0,1.05,3.22,3.59,3.59,0,0,0,2.84,1.2,4.09,4.09,0,0,0,2.55-.86,2.46,2.46,0,0,0,1.12-2,.56.56,0,0,0-.63-.65.53.53,0,0,0-.56.41l-.15.49a1.86,1.86,0,0,1-.81,1,2.43,2.43,0,0,1-1.37.41,2.46,2.46,0,0,1-1.9-.85,3.06,3.06,0,0,1-.76-2.12.25.25,0,0,1,.07-.2.48.48,0,0,1,.29-.06h5.41q.41,0,.49-.14a2.1,2.1,0,0,0,.08-.79A3.75,3.75,0,0,0,128.37,225.32Zm-10.12,2.74a1,1,0,0,0,.71.26,1.12,1.12,0,0,0,.89-.41,1.54,1.54,0,0,0,.35-1,2.33,2.33,0,0,0-.9-1.88,3.44,3.44,0,0,0-2.26-.74,3.66,3.66,0,0,0-2.92,1.27,5,5,0,0,0-1.1,3.37,4.73,4.73,0,0,0,1.06,3.21,3.52,3.52,0,0,0,2.8,1.22,3.4,3.4,0,0,0,2.6-1.07,3.53,3.53,0,0,0,.65-1,2.54,2.54,0,0,0,.27-1,.64.64,0,0,0-.66-.66.59.59,0,0,0-.54.34q0,.09-.2.68a2.14,2.14,0,0,1-.76,1.17,2.07,2.07,0,0,1-1.3.42,2.18,2.18,0,0,1-1.86-.91,4.14,4.14,0,0,1-.67-2.51,4,4,0,0,1,.71-2.48,2.26,2.26,0,0,1,1.89-.93,2.13,2.13,0,0,1,1.25.34,1.32,1.32,0,0,1,.57.94q-.85.1-.85.78A.81.81,0,0,0,118.25,228.06Zm-8-4.68a.92.92,0,0,0,.28-.67.89.89,0,0,0-.28-.66,1,1,0,0,0-1.34,0,.89.89,0,0,0-.28.66.95.95,0,0,0,1.62.67Zm.23,3.31q0-.92,0-1.05s0-.11,0-.2,0-.16,0-.2c0-.44-.17-.66-.49-.66l-.42,0-.42,0-.7-.07-.46,0q-.75,0-.75.58c0,.36.21.54.62.54a1.75,1.75,0,0,0,.37-.06,1.83,1.83,0,0,1,.39-.06q.43,0,.51,1.07V231q-.08,1.09-.5,1.09a2.41,2.41,0,0,1-.4-.05,2.34,2.34,0,0,0-.4-.05q-.58,0-.58.56t.68.58a8.8,8.8,0,0,0,.89-.08,8,8,0,0,1,1-.07,6.7,6.7,0,0,1,.83.08,6.53,6.53,0,0,0,.83.08.84.84,0,0,0,.54-.17.51.51,0,0,0,.21-.41q0-.56-.65-.56a.73.73,0,0,0-.25,0,2.58,2.58,0,0,1-.43.08q-.37,0-.46-.76,0-.15,0-1v-2.21Q110.51,227.38,110.52,226.68Zm-14.62-.85a.21.21,0,0,1,.24-.24l.32,0,.32,0q.65,0,.65-.56t-.71-.56l-.7.06a11.86,11.86,0,0,1-1.31.08l-.2,0h-.14l-.68-.1-.39,0q-.78,0-.78.58c0,.36.2.54.59.54l.35,0,.37,0q.37,0,.66.76l.2.54,1.87,4.73A5.4,5.4,0,0,1,97,233.2a2,2,0,0,1-.72,1.5,2.33,2.33,0,0,1-1.62.67,1.1,1.1,0,0,1-1-.37.66.66,0,0,0,.49-.7.74.74,0,0,0-.25-.57.93.93,0,0,0-.65-.23,1,1,0,0,0-.8.33,1.22,1.22,0,0,0-.31.86A1.55,1.55,0,0,0,92.9,236a2.83,2.83,0,0,0,1.74.53A3.53,3.53,0,0,0,97.54,235,11.83,11.83,0,0,0,99,232.23l2.31-5.78q.34-.87.66-.87l.31.05a.71.71,0,0,0,.25,0,.49.49,0,0,0,.56-.55q0-.57-.73-.57a6.88,6.88,0,0,0-.85.08,6.73,6.73,0,0,1-.85.08,3.65,3.65,0,0,1-.51,0l-.61-.08-.34,0q-.73,0-.73.58a.49.49,0,0,0,.56.54l.36,0a1.23,1.23,0,0,1,.32,0q.39,0,.39.29a1.2,1.2,0,0,1-.08.37l-2.07,5.66-2-5.75A1.12,1.12,0,0,1,95.9,225.83Zm-9.26-1.29a1.09,1.09,0,0,0-.32,0l-.44,0-.51,0-.51,0q-.73,0-.73.59a.49.49,0,0,0,.56.54,1.89,1.89,0,0,0,.37-.05,1.88,1.88,0,0,1,.37-.05q.46,0,.51,1l.05,3.86v.87q0,.78-.46.78l-.24,0L85,232l-.26,0q-.65,0-.65.53c0,.4.23.6.69.6l.95-.08c.26,0,.62,0,1.07,0a7.32,7.32,0,0,1,.77.06,7.59,7.59,0,0,0,.77.06h.07q.69,0,.69-.59a.48.48,0,0,0-.54-.54,1.45,1.45,0,0,0-.32,0,2,2,0,0,1-.46.06q-.44,0-.53-1,0-.14,0-1.28v-1.12a6.73,6.73,0,0,1,.27-2.21,1.72,1.72,0,0,1,1.77-1.19,1.7,1.7,0,0,1,1.08.34,1,1,0,0,1,.43.83.85.85,0,0,1-.1.37l-.22-.05A.64.64,0,0,0,90,227a.68.68,0,0,0-.2.48.74.74,0,0,0,.27.58,1,1,0,0,0,.66.24,1.2,1.2,0,0,0,1-.47,1.89,1.89,0,0,0,.37-1.21,2.22,2.22,0,0,0-.74-1.73,3,3,0,0,0-4.29.57V225C87.08,224.7,86.93,224.54,86.64,224.54Zm-8.58,0a1.09,1.09,0,0,0-.32,0l-.44,0-.51,0-.51,0q-.73,0-.73.59a.49.49,0,0,0,.56.54,1.89,1.89,0,0,0,.37-.05,1.88,1.88,0,0,1,.37-.05q.46,0,.51,1l.05,3.86v.87q0,.78-.46.78l-.24,0-.26-.05-.26,0q-.65,0-.65.53c0,.4.23.6.69.6l.95-.08c.26,0,.62,0,1.07,0a7.32,7.32,0,0,1,.77.06,7.59,7.59,0,0,0,.77.06h.07q.69,0,.69-.59A.48.48,0,0,0,80,232a1.45,1.45,0,0,0-.32,0,2,2,0,0,1-.46.06q-.44,0-.53-1,0-.14,0-1.28v-1.12a6.73,6.73,0,0,1,.27-2.21,1.72,1.72,0,0,1,1.77-1.19,1.7,1.7,0,0,1,1.08.34,1,1,0,0,1,.43.83.85.85,0,0,1-.1.37l-.22-.05a.64.64,0,0,0-.48.21.68.68,0,0,0-.2.48.74.74,0,0,0,.27.58,1,1,0,0,0,.66.24,1.2,1.2,0,0,0,1-.47,1.89,1.89,0,0,0,.37-1.21,2.22,2.22,0,0,0-.74-1.73,3,3,0,0,0-4.29.57V225C78.5,224.7,78.35,224.54,78.06,224.54Zm-8.77,1.52a2.56,2.56,0,0,1,1.73-.69,2.22,2.22,0,0,1,1.6.66,2.11,2.11,0,0,1,.68,1.56q0,.24-.36.24H68.88q-.37,0-.37-.24A2,2,0,0,1,69.28,226.06Zm4.35-.74A3.51,3.51,0,0,0,71,224.25a3.69,3.69,0,0,0-2.92,1.29A5,5,0,0,0,67,228.91,4.7,4.7,0,0,0,68,232.13a3.59,3.59,0,0,0,2.84,1.2,4.09,4.09,0,0,0,2.55-.86,2.46,2.46,0,0,0,1.12-2,.56.56,0,0,0-.63-.65.53.53,0,0,0-.56.41l-.15.49a1.86,1.86,0,0,1-.81,1,2.43,2.43,0,0,1-1.37.41,2.46,2.46,0,0,1-1.9-.85,3.06,3.06,0,0,1-.76-2.12.25.25,0,0,1,.07-.2.48.48,0,0,1,.29-.06h5.41q.41,0,.49-.14a2.1,2.1,0,0,0,.08-.79A3.75,3.75,0,0,0,73.64,225.32Zm-13.27.55a2.32,2.32,0,0,1,1.46-.5,2.11,2.11,0,0,1,1.81.91,4.2,4.2,0,0,1,.66,2.51,4.06,4.06,0,0,1-.69,2.49,2.22,2.22,0,0,1-1.87.93,2,2,0,0,1-2-1.24,6.56,6.56,0,0,1-.27-2.31,7.51,7.51,0,0,1,.12-1.53A2.15,2.15,0,0,1,60.37,225.88Zm-.77-3.9c0-.32-.12-.47-.37-.47a3.73,3.73,0,0,0-.51.05,3.77,3.77,0,0,1-.53.05l-.44,0-.41-.05-.34,0q-.68,0-.68.56c0,.36.19.54.58.54l.32,0,.44-.07a.39.39,0,0,1,.38.22,2.34,2.34,0,0,1,.13.85v6.26l-.08,1.31v1.19q0,.85.59.85a.53.53,0,0,0,.6-.61s0-.22-.07-.54a2.73,2.73,0,0,0,2.53,1.31A3.53,3.53,0,0,0,64.6,232a5.23,5.23,0,0,0,1.06-3.44,4.74,4.74,0,0,0-1-3.16,3.36,3.36,0,0,0-2.71-1.19,3.08,3.08,0,0,0-1.42.29,3.44,3.44,0,0,0-1.11,1q0-1.93.17-3.33ZM46,226.07q0-.51.44-.51a1.26,1.26,0,0,1,.42.08l.42,0q.63,0,.63-.57t-.75-.59l-.88.09a8.92,8.92,0,0,1-1.09.08,4.14,4.14,0,0,1-.63,0l-.73-.11-.19,0q-.76,0-.76.6a.49.49,0,0,0,.56.55l.37,0a1,1,0,0,1,.31-.07c.22,0,.37.18.48.55l1.63,6.13q.27,1.06,1.07,1.06a1,1,0,0,0,.78-.35,2.9,2.9,0,0,0,.48-1.2l1.33-5.94,1.27,6.05q.31,1.43,1.21,1.43a.93.93,0,0,0,.75-.32,2.88,2.88,0,0,0,.48-1.12l1.16-4.4q.49-1.9,1-1.9l.31.06a.58.58,0,0,0,.29.06.5.5,0,0,0,.56-.57q0-.59-.73-.59l-.19,0-.56.08a6.62,6.62,0,0,1-.88.06,6.77,6.77,0,0,1-.85,0l-.7-.1-.25,0q-.83,0-.83.59t.63.56a2.36,2.36,0,0,0,.44-.06,2.43,2.43,0,0,1,.44-.06c.26,0,.39.15.39.46v0a3.73,3.73,0,0,1-.12.85l-1.26,5.18-1.28-6a3.5,3.5,0,0,0-.45-1.26.91.91,0,0,0-.77-.32.9.9,0,0,0-.76.31,3.43,3.43,0,0,0-.45,1.27l-1.33,6-1.24-5.18A3.68,3.68,0,0,1,46,226.07Zm-6.61,5.52a2.5,2.5,0,0,1-1.79.62,2,2,0,0,1-1.27-.37,1.24,1.24,0,0,1-.47-1q0-1.24,1.93-1.43a7.83,7.83,0,0,0,1.48-.24,2.18,2.18,0,0,0,.79-.48v1.21A2.3,2.3,0,0,1,39.41,231.59Zm4.29,0v-1.05q0-.82-.55-.82t-.52.54v.83q0,1.08-.59,1.08t-.58-.59a7.25,7.25,0,0,1,0-1v-3.43q0-3-3.09-3a3.81,3.81,0,0,0-2.29.68,2,2,0,0,0-.94,1.63,1,1,0,0,0,.3.75,1,1,0,0,0,.74.31.9.9,0,0,0,.62-.22.72.72,0,0,0,.25-.56.66.66,0,0,0-.24-.58c-.1-.07-.15-.12-.15-.17s.08-.24.25-.36a2.6,2.6,0,0,1,1.43-.43,2.07,2.07,0,0,1,1.35.4,1.35,1.35,0,0,1,.48,1.1,1.09,1.09,0,0,1-.43,1,5.12,5.12,0,0,1-1.86.43q-1,.12-1.33.2a3.16,3.16,0,0,0-.79.33,2.21,2.21,0,0,0-1.21,2.07,2.23,2.23,0,0,0,.83,1.82,3.35,3.35,0,0,0,2.2.68,3.06,3.06,0,0,0,2.72-1.28A1.57,1.57,0,0,0,42,233.26,1.51,1.51,0,0,0,43.7,231.63Zm-15.27-7.09a1.09,1.09,0,0,0-.32,0l-.44,0-.51,0-.51,0q-.73,0-.73.59a.49.49,0,0,0,.56.54,1.89,1.89,0,0,0,.37-.05,1.88,1.88,0,0,1,.37-.05q.46,0,.51,1l.05,3.86v.87q0,.78-.46.78l-.24,0-.26-.05-.26,0q-.65,0-.65.53c0,.4.23.6.69.6l.95-.08c.26,0,.62,0,1.07,0a7.32,7.32,0,0,1,.77.06,7.59,7.59,0,0,0,.77.06h.07q.69,0,.69-.59a.48.48,0,0,0-.54-.54,1.45,1.45,0,0,0-.32,0,2,2,0,0,1-.46.06q-.44,0-.53-1,0-.14,0-1.28v-1.12a6.73,6.73,0,0,1,.27-2.21,1.72,1.72,0,0,1,1.77-1.19,1.7,1.7,0,0,1,1.08.34,1,1,0,0,1,.43.83.85.85,0,0,1-.1.37l-.22-.05a.64.64,0,0,0-.48.21.68.68,0,0,0-.2.48.74.74,0,0,0,.27.58,1,1,0,0,0,.66.24,1.2,1.2,0,0,0,1-.47,1.89,1.89,0,0,0,.37-1.21,2.22,2.22,0,0,0-.74-1.73,3,3,0,0,0-4.29.57V225C28.88,224.7,28.73,224.54,28.43,224.54ZM23,232.14q-1.19,0-1.19-1.78v-4.18c0-.24.08-.36.24-.36h1.87q.7,0,.7-.63t-.65-.6H22.09c-.2,0-.31-.08-.31-.25v-1.82q0-.64-.61-.65a.58.58,0,0,0-.66.65v1.75q0,.32-.29.32h-.66a.54.54,0,0,0-.4.19.6.6,0,0,0-.18.42.59.59,0,0,0,.18.43.63.63,0,0,0,.46.18h.56c.22,0,.33.12.33.36v4.08a4,4,0,0,0,.42,2.14,2.13,2.13,0,0,0,1.92.87,2.33,2.33,0,0,0,2.11-1,5.07,5.07,0,0,0,.47-2.58q0-.78-.59-.78t-.61.7v1.09Q24.18,232.14,23,232.14Zm-12.05-9.88a3.06,3.06,0,0,0-1.09,2.43,2.86,2.86,0,0,0,.43,1.56,2.58,2.58,0,0,0,1.17,1,10.71,10.71,0,0,0,2.24.6l1,.17q2,.36,2,2a2,2,0,0,1-.76,1.67,3.18,3.18,0,0,1-2.05.61,3.13,3.13,0,0,1-2.2-.75,2.63,2.63,0,0,1-.81-2v-.7q0-.77-.66-.77t-.65.76a8.19,8.19,0,0,0,.09,1,8.22,8.22,0,0,1,.09,1q0,.19-.06.85l-.08.88-.05.14q0,.71.68.71a.55.55,0,0,0,.63-.62,1.85,1.85,0,0,0-.07-.35v-.25A4.44,4.44,0,0,0,14,233.42a4.32,4.32,0,0,0,3-1,3.3,3.3,0,0,0,1.15-2.6A2.77,2.77,0,0,0,17,227.45a6.7,6.7,0,0,0-2.77-.88,7.38,7.38,0,0,1-1.9-.49,1.68,1.68,0,0,1-1-1.58A1.8,1.8,0,0,1,12,223a2.66,2.66,0,0,1,1.76-.54,2.86,2.86,0,0,1,1.9.58,2,2,0,0,1,.69,1.6c0,.09,0,.21,0,.37l0,.46v.08a.59.59,0,0,0,.66.68q.63,0,.63-.82a1.34,1.34,0,0,0,0-.24l-.05-.68c0-.31,0-.49,0-.54a10.86,10.86,0,0,1,.05-1.14c0-.32.05-.49.05-.51v-.1q0-.73-.58-.73t-.53.66v.24a3.65,3.65,0,0,0-2.72-1.07A4.18,4.18,0,0,0,10.92,222.26Z"/><path class="cls-9" d="M198.94,253a1.09,1.09,0,0,0,0-1.51,1,1,0,0,0-1.5,0,1.09,1.09,0,0,0,0,1.51,1,1,0,0,0,1.5,0Zm-9.52-8a2.38,2.38,0,0,0-.9,1.93,1.83,1.83,0,0,0,.92,1.76,7.37,7.37,0,0,0,2.67.69q1.84.19,1.84,1.34a1.31,1.31,0,0,1-.54,1.07,2.17,2.17,0,0,1-1.38.42,3.59,3.59,0,0,1-1.9-.46,1.4,1.4,0,0,1-.76-1.19,2.63,2.63,0,0,0-.11-.9q-.09-.17-.45-.17c-.36,0-.54.2-.54.59a3.21,3.21,0,0,0,.07.56,4.13,4.13,0,0,1,.07.77,3.39,3.39,0,0,1,0,.48q-.1,1-.1.88,0,.7.63.7t.58-.61v-.32a3.87,3.87,0,0,0,2.44.8,3.75,3.75,0,0,0,2.44-.76,2.43,2.43,0,0,0,.93-2q0-2-2.89-2.4l-1-.14q-1.5-.2-1.5-1.29a1.21,1.21,0,0,1,.53-1,2.11,2.11,0,0,1,1.31-.4,2.42,2.42,0,0,1,1.33.37,1.09,1.09,0,0,1,.59.88v.56a.49.49,0,0,0,.55.54q.55,0,.55-.65,0-.2,0-.59a6,6,0,0,1,0-.6,4.09,4.09,0,0,1,.06-.68c0-.27,0-.44,0-.51a.49.49,0,0,0-.56-.54q-.54,0-.54.63v.07a3,3,0,0,0-1.9-.59A3.56,3.56,0,0,0,189.42,245Zm-7.78.88a2.31,2.31,0,0,1,1.45-.49q2.41,0,2.41,3.4a4.16,4.16,0,0,1-.67,2.54,2.47,2.47,0,0,1-3.26.48,2,2,0,0,1-.74-.93,5.32,5.32,0,0,1-.19-1.66V249c0-.12,0-.21,0-.25a8,8,0,0,1,.17-1.61A2.13,2.13,0,0,1,181.64,245.87Zm-1.49-1.31-.42,0-.44,0-.63,0-.41,0q-.75,0-.75.54t.62.56a1.69,1.69,0,0,0,.38-.06,1.69,1.69,0,0,1,.36-.06q.42,0,.44.78v6.56a13.18,13.18,0,0,1-.09,1.84.38.38,0,0,1-.4.33,2.37,2.37,0,0,1-.42-.06l-.32,0q-.57,0-.57.54a.53.53,0,0,0,.2.41.72.72,0,0,0,.49.18q.22,0,.9-.08a5.63,5.63,0,0,1,.68,0,9.15,9.15,0,0,1,1.12.05,6.21,6.21,0,0,0,.76.07q.71,0,.71-.56a.49.49,0,0,0-.54-.56,1.93,1.93,0,0,0-.36.05,1.89,1.89,0,0,1-.36.05c-.26,0-.42-.18-.49-.53a6.14,6.14,0,0,1,0-.83v-1.41a3.05,3.05,0,0,0,2.4,1,3.51,3.51,0,0,0,2.85-1.28,5.23,5.23,0,0,0,1.06-3.44,4.73,4.73,0,0,0-1-3.18,3.37,3.37,0,0,0-2.7-1.17,3,3,0,0,0-2.6,1.33V245Q180.58,244.56,180.16,244.56Zm-4.9-1.18a.92.92,0,0,0,.28-.67.89.89,0,0,0-.28-.66,1,1,0,0,0-1.34,0,.89.89,0,0,0-.28.66.95.95,0,0,0,1.62.67Zm.23,3.31q0-.92,0-1.05s0-.11,0-.2,0-.16,0-.2c0-.44-.17-.66-.49-.66l-.42,0-.42,0-.7-.07-.46,0q-.75,0-.75.58c0,.36.21.54.62.54a1.75,1.75,0,0,0,.37-.06,1.83,1.83,0,0,1,.39-.06q.43,0,.51,1.07V251q-.08,1.09-.5,1.09a2.41,2.41,0,0,1-.4-.05,2.34,2.34,0,0,0-.4-.05q-.58,0-.58.56t.68.58a8.8,8.8,0,0,0,.89-.08,8,8,0,0,1,1-.07,6.7,6.7,0,0,1,.83.08,6.53,6.53,0,0,0,.83.08.84.84,0,0,0,.54-.17.51.51,0,0,0,.21-.41q0-.56-.65-.56a.73.73,0,0,0-.25,0,2.58,2.58,0,0,1-.43.08q-.37,0-.46-.76,0-.15,0-1v-2.21Q175.47,247.38,175.48,246.68ZM164.54,242q0-.56-.39-.56l-.39,0a3,3,0,0,1-.42,0,6.72,6.72,0,0,1-.7,0l-.58-.05a.75.75,0,0,0-.49.17.51.51,0,0,0-.2.41c0,.36.19.54.58.54a1.89,1.89,0,0,0,.37-.05,1.85,1.85,0,0,1,.36-.05q.37,0,.48.67a29.32,29.32,0,0,1,.1,3.22v3a15.57,15.57,0,0,1-.11,2.12q-.1.52-.37.52a2,2,0,0,1-.42-.07.83.83,0,0,0-.33,0q-.66,0-.66.53t.7.63l.87-.07q.51-.05.8-.05a11,11,0,0,1,1.11.07c.32,0,.56.05.72.05q.75,0,.75-.61a.49.49,0,0,0-.56-.54,1.46,1.46,0,0,0-.38.08,1.49,1.49,0,0,1-.39.08q-.42,0-.51-.83,0-.15,0-1.12v-.32a1.47,1.47,0,0,0,.07-.34v-1.22a3.77,3.77,0,0,1,.44-2,2.19,2.19,0,0,1,2-.92,1.82,1.82,0,0,1,1.74.88,5.29,5.29,0,0,1,.34,2.33v1.65c0,.4,0,.66,0,.8q0,1.1-.53,1.1a.91.91,0,0,1-.29-.05,1.43,1.43,0,0,0-.44-.08.62.62,0,0,0-.42.15.47.47,0,0,0-.18.37.57.57,0,0,0,.2.45.74.74,0,0,0,.51.18q.17,0,.88-.1a5.18,5.18,0,0,1,.68,0,10.22,10.22,0,0,1,1.16.08,5.88,5.88,0,0,0,.65.05q.82,0,.82-.58t-.63-.58l-.27,0a1.23,1.23,0,0,1-.39.1q-.37,0-.44-.85,0-.1,0-1.1v-2.84a2.87,2.87,0,0,0-.89-2.19,3.73,3.73,0,0,0-3.68-.59,4.59,4.59,0,0,0-1.25.89l.07-3.31Zm-5.87,6a1,1,0,0,0,.71.26,1.12,1.12,0,0,0,.89-.41,1.54,1.54,0,0,0,.35-1,2.33,2.33,0,0,0-.9-1.88,3.44,3.44,0,0,0-2.26-.74,3.66,3.66,0,0,0-2.92,1.27,5,5,0,0,0-1.1,3.37,4.73,4.73,0,0,0,1.06,3.21,3.52,3.52,0,0,0,2.8,1.22,3.4,3.4,0,0,0,2.6-1.07,3.53,3.53,0,0,0,.65-1,2.54,2.54,0,0,0,.27-1,.64.64,0,0,0-.66-.66.59.59,0,0,0-.54.34q0,.09-.2.68a2.14,2.14,0,0,1-.76,1.17,2.07,2.07,0,0,1-1.3.42,2.18,2.18,0,0,1-1.86-.91,4.14,4.14,0,0,1-.67-2.51,4,4,0,0,1,.71-2.48,2.26,2.26,0,0,1,1.89-.93,2.13,2.13,0,0,1,1.25.34,1.32,1.32,0,0,1,.57.94q-.85.1-.85.78A.81.81,0,0,0,158.66,248.06Zm-16.12-2a2.56,2.56,0,0,1,1.73-.69,2.22,2.22,0,0,1,1.6.66,2.11,2.11,0,0,1,.68,1.56q0,.24-.36.24h-4.06q-.37,0-.37-.24A2,2,0,0,1,142.54,246.06Zm4.35-.74a3.51,3.51,0,0,0-2.63-1.07,3.69,3.69,0,0,0-2.92,1.29,5,5,0,0,0-1.12,3.37,4.7,4.7,0,0,0,1.05,3.22,3.59,3.59,0,0,0,2.84,1.2,4.09,4.09,0,0,0,2.55-.86,2.46,2.46,0,0,0,1.12-2,.56.56,0,0,0-.63-.65.53.53,0,0,0-.56.41l-.15.49a1.86,1.86,0,0,1-.81,1,2.43,2.43,0,0,1-1.37.41,2.46,2.46,0,0,1-1.9-.85,3.06,3.06,0,0,1-.76-2.12.25.25,0,0,1,.07-.2.48.48,0,0,1,.29-.06h5.41q.41,0,.49-.14a2.1,2.1,0,0,0,.08-.79A3.75,3.75,0,0,0,146.89,245.32Zm-10,6.82q-1.19,0-1.19-1.78v-4.18c0-.24.08-.36.24-.36h1.87q.7,0,.7-.63t-.65-.6H136c-.2,0-.31-.08-.31-.25v-1.82q0-.64-.61-.65a.58.58,0,0,0-.66.65v1.75q0,.32-.29.32h-.66a.54.54,0,0,0-.4.19.6.6,0,0,0-.18.42.59.59,0,0,0,.18.43.63.63,0,0,0,.46.18h.56c.22,0,.33.12.33.36v4.08a4,4,0,0,0,.42,2.14,2.13,2.13,0,0,0,1.92.87,2.33,2.33,0,0,0,2.11-1,5.07,5.07,0,0,0,.47-2.58q0-.78-.59-.78t-.61.7v1.09Q138.08,252.14,136.88,252.14Zm-8.3-.55a2.5,2.5,0,0,1-1.79.62,2,2,0,0,1-1.27-.37,1.24,1.24,0,0,1-.47-1q0-1.24,1.93-1.43a7.83,7.83,0,0,0,1.48-.24,2.18,2.18,0,0,0,.79-.48v1.21A2.3,2.3,0,0,1,128.57,251.59Zm4.29,0v-1.05q0-.82-.55-.82t-.52.54v.83q0,1.08-.59,1.08t-.58-.59a7.25,7.25,0,0,1,0-1v-3.43q0-3-3.09-3a3.81,3.81,0,0,0-2.29.68,2,2,0,0,0-.94,1.63,1,1,0,0,0,.3.75,1,1,0,0,0,.74.31.9.9,0,0,0,.62-.22.72.72,0,0,0,.25-.56.66.66,0,0,0-.24-.58c-.1-.07-.15-.12-.15-.17s.08-.24.25-.36a2.6,2.6,0,0,1,1.43-.43,2.07,2.07,0,0,1,1.35.4,1.35,1.35,0,0,1,.48,1.1,1.09,1.09,0,0,1-.43,1,5.12,5.12,0,0,1-1.86.43q-1,.12-1.33.2a3.16,3.16,0,0,0-.79.33,2.21,2.21,0,0,0-1.21,2.07,2.23,2.23,0,0,0,.83,1.82,3.35,3.35,0,0,0,2.2.68,3.06,3.06,0,0,0,2.72-1.28,1.57,1.57,0,0,0,1.72,1.21A1.51,1.51,0,0,0,132.86,251.63Zm-11.51-9.38a1.47,1.47,0,0,0,0-.25q0-.49-.39-.49a3.73,3.73,0,0,0-.51.05,3.76,3.76,0,0,1-.51.05l-.46,0-.41-.05-.32,0q-.68,0-.68.56c0,.36.19.54.58.54l.31,0,.44-.07a.48.48,0,0,1,.48.39,5.3,5.3,0,0,1,.05.68v5.68l0,1.19a7.35,7.35,0,0,1-.09,1.37.36.36,0,0,1-.39.26l-.5-.09-.15,0h-.12c-.39,0-.58.18-.58.53s.24.61.71.61h.08a7.27,7.27,0,0,0,.8-.07,7.29,7.29,0,0,1,.81-.07,8.75,8.75,0,0,1,.91.07c.4,0,.68.07.86.07q.69,0,.7-.56a.51.51,0,0,0-.57-.58l-.27,0a2.23,2.23,0,0,1-.43.08q-.45,0-.46-.87v-5.28Q121.24,243.55,121.36,242.25Zm-5.49,6.53a4,4,0,0,1-.71,2.52,2.33,2.33,0,0,1-1.95.91,2.2,2.2,0,0,1-1.88-.91,4.14,4.14,0,0,1-.67-2.51v-.22a3.93,3.93,0,0,1,.75-2.36,2.28,2.28,0,0,1,1.87-.83Q115.86,245.37,115.86,248.78Zm.27,3.3a4.86,4.86,0,0,0,1.11-3.33,4.77,4.77,0,0,0-1.07-3.28,3.71,3.71,0,0,0-2.92-1.21,3.66,3.66,0,0,0-2.9,1.23,5.62,5.62,0,0,0,0,6.61,3.6,3.6,0,0,0,2.86,1.23A3.72,3.72,0,0,0,116.14,252.07Zm-10.29-4a1,1,0,0,0,.71.26,1.12,1.12,0,0,0,.89-.41,1.54,1.54,0,0,0,.35-1,2.33,2.33,0,0,0-.9-1.88,3.44,3.44,0,0,0-2.26-.74,3.66,3.66,0,0,0-2.92,1.27,5,5,0,0,0-1.1,3.37,4.73,4.73,0,0,0,1.06,3.21,3.52,3.52,0,0,0,2.8,1.22,3.4,3.4,0,0,0,2.6-1.07,3.53,3.53,0,0,0,.65-1,2.54,2.54,0,0,0,.27-1,.64.64,0,0,0-.66-.66.59.59,0,0,0-.54.34q0,.09-.2.68a2.14,2.14,0,0,1-.76,1.17,2.07,2.07,0,0,1-1.3.42,2.18,2.18,0,0,1-1.86-.91,4.14,4.14,0,0,1-.67-2.51,4,4,0,0,1,.71-2.48,2.26,2.26,0,0,1,1.89-.93,2.13,2.13,0,0,1,1.25.34,1.32,1.32,0,0,1,.57.94q-.85.1-.85.78A.81.81,0,0,0,105.84,248.06Zm-7.93.71a4,4,0,0,1-.71,2.52,2.33,2.33,0,0,1-1.95.91,2.2,2.2,0,0,1-1.88-.91,4.14,4.14,0,0,1-.67-2.51v-.22a3.93,3.93,0,0,1,.75-2.36,2.28,2.28,0,0,1,1.87-.83Q97.91,245.37,97.91,248.78Zm.27,3.3a4.86,4.86,0,0,0,1.11-3.33,4.77,4.77,0,0,0-1.07-3.28,3.71,3.71,0,0,0-2.92-1.21,3.66,3.66,0,0,0-2.9,1.23,5.62,5.62,0,0,0,0,6.61,3.6,3.6,0,0,0,2.86,1.23A3.72,3.72,0,0,0,98.18,252.07Zm-15-10q0-.56-.39-.56l-.39,0a3,3,0,0,1-.42,0,6.72,6.72,0,0,1-.7,0l-.58-.05a.75.75,0,0,0-.49.17.51.51,0,0,0-.2.41c0,.36.19.54.58.54a1.89,1.89,0,0,0,.37-.05,1.85,1.85,0,0,1,.36-.05q.37,0,.48.67a29.32,29.32,0,0,1,.1,3.22v3a15.57,15.57,0,0,1-.11,2.12q-.1.52-.37.52A2,2,0,0,1,81,252a.83.83,0,0,0-.33,0q-.66,0-.66.53t.7.63l.87-.07q.51-.05.8-.05a11,11,0,0,1,1.11.07c.32,0,.56.05.72.05q.75,0,.75-.61a.49.49,0,0,0-.56-.54A1.46,1.46,0,0,0,84,252a1.49,1.49,0,0,1-.39.08q-.42,0-.51-.83,0-.15,0-1.12v-.32a1.47,1.47,0,0,0,.07-.34v-1.22a3.77,3.77,0,0,1,.44-2,2.19,2.19,0,0,1,2-.92,1.82,1.82,0,0,1,1.74.88,5.29,5.29,0,0,1,.34,2.33v1.65c0,.4,0,.66,0,.8q0,1.1-.53,1.1a.91.91,0,0,1-.29-.05,1.43,1.43,0,0,0-.44-.08.62.62,0,0,0-.42.15.47.47,0,0,0-.18.37.57.57,0,0,0,.2.45.74.74,0,0,0,.51.18q.17,0,.88-.1a5.18,5.18,0,0,1,.68,0,10.22,10.22,0,0,1,1.16.08,5.88,5.88,0,0,0,.65.05q.82,0,.82-.58T90,252l-.27,0a1.23,1.23,0,0,1-.39.1q-.37,0-.44-.85,0-.1,0-1.1v-2.84a2.87,2.87,0,0,0-.89-2.19,3.73,3.73,0,0,0-3.68-.59,4.59,4.59,0,0,0-1.25.89l.07-3.31Zm-5.87,6a1,1,0,0,0,.71.26,1.12,1.12,0,0,0,.89-.41,1.54,1.54,0,0,0,.35-1,2.33,2.33,0,0,0-.9-1.88,3.44,3.44,0,0,0-2.26-.74,3.66,3.66,0,0,0-2.92,1.27,5,5,0,0,0-1.1,3.37,4.73,4.73,0,0,0,1.06,3.21,3.52,3.52,0,0,0,2.8,1.22,3.4,3.4,0,0,0,2.6-1.07,3.53,3.53,0,0,0,.65-1,2.54,2.54,0,0,0,.27-1,.64.64,0,0,0-.66-.66.59.59,0,0,0-.54.34q0,.09-.2.68a2.14,2.14,0,0,1-.76,1.17,2.07,2.07,0,0,1-1.3.42,2.18,2.18,0,0,1-1.86-.91,4.14,4.14,0,0,1-.67-2.51,4,4,0,0,1,.71-2.48,2.26,2.26,0,0,1,1.89-.93,2.13,2.13,0,0,1,1.25.34,1.32,1.32,0,0,1,.57.94q-.85.1-.85.78A.81.81,0,0,0,77.28,248.06Z"/></g></g></svg>