<svg xmlns="http://www.w3.org/2000/svg" viewBox="0 0 273 273"><defs><style>.cls-1{fill:#fff;}.cls-2{fill:#231f20;}.cls-3{fill:#4c2f24;}.cls-4{fill:#f2ebe2;}.cls-5{fill:#cf2027;}.cls-6{fill:#82602d;}.cls-7{fill:#b69258;}.cls-8{fill:#f2ebce;}.cls-9{fill:#e7e799;}</style></defs><title>vanillachip</title><g id="Layer_2" data-name="Layer 2"><g id="Layer_1-2" data-name="Layer 1"><rect class="cls-1" width="273" height="273"/><path class="cls-2" d="M177.12,33.26q-1.46,0-1.46-1.24,0-.78,1.49-1.16a24.12,24.12,0,0,0,2.38-.67v.59A2.16,2.16,0,0,1,177.12,33.26ZM185.48,36a1.72,1.72,0,0,0,.8-1.46A1.47,1.47,0,0,0,184.79,33l-.19,0a2.78,2.78,0,0,1-.41,0q-.43,0-.43-.86V26.64q0-2.65-1.54-3.62a8.39,8.39,0,0,0-4.35-.89,9,9,0,0,0-4.24.84,2.55,2.55,0,0,0-1.54,2.29,2.11,2.11,0,0,0,.7,1.62,2.53,2.53,0,0,0,1.78.65,2.43,2.43,0,0,0,1.58-.51,1.57,1.57,0,0,0,.63-1.27v-.11a2.59,2.59,0,0,1,0-.38q0-.57.89-.57a2,2,0,0,1,1.31.42,1.28,1.28,0,0,1,.53,1,1.4,1.4,0,0,1-.69,1.28,8.24,8.24,0,0,1-2.61.74,17.27,17.27,0,0,0-2.43.59,3.49,3.49,0,0,0-2.46,3.67,3.78,3.78,0,0,0,1.27,3,5,5,0,0,0,3.4,1.12,6.31,6.31,0,0,0,4.48-1.78,2.91,2.91,0,0,0,3,1.78A3.44,3.44,0,0,0,185.48,36ZM166,18a4.74,4.74,0,0,1-1.08.11,12.83,12.83,0,0,1-1.38-.11q-.7-.08-.92-.08a1.62,1.62,0,0,0-1.24.49,1.84,1.84,0,0,0-.46,1.32q0,1.49,1.3,1.49a1.4,1.4,0,0,0,.43-.05,1.49,1.49,0,0,1,.49-.11q.46,0,.46,1.51v9q0,1.51-.46,1.51a1.53,1.53,0,0,1-.45-.09,1.5,1.5,0,0,0-.45-.09q-1.32,0-1.32,1.51a1.86,1.86,0,0,0,.46,1.31,1.54,1.54,0,0,0,1.19.5q.3,0,1.43-.14a10.75,10.75,0,0,1,1.27-.08q.7,0,1.32.05l2.05.16q1.62,0,1.62-1.86,0-1.4-1.19-1.4a1.43,1.43,0,0,0-.43.05,1.17,1.17,0,0,1-.38.05q-.54,0-.54-1.35V18.92c0-.67-.25-1-.76-1A8.07,8.07,0,0,0,166,18Zm-9.83,0a4.74,4.74,0,0,1-1.08.11,12.83,12.83,0,0,1-1.38-.11q-.7-.08-.92-.08a1.62,1.62,0,0,0-1.24.49,1.84,1.84,0,0,0-.46,1.32q0,1.49,1.3,1.49a1.4,1.4,0,0,0,.43-.05,1.49,1.49,0,0,1,.49-.11q.46,0,.46,1.51v9q0,1.51-.46,1.51a1.53,1.53,0,0,1-.45-.09,1.5,1.5,0,0,0-.45-.09q-1.32,0-1.32,1.51a1.86,1.86,0,0,0,.46,1.31,1.54,1.54,0,0,0,1.19.5q.3,0,1.43-.14a10.75,10.75,0,0,1,1.27-.08q.7,0,1.32.05l2.05.16q1.62,0,1.62-1.86,0-1.4-1.19-1.4a1.43,1.43,0,0,0-.43.05,1.17,1.17,0,0,1-.38.05q-.54,0-.54-1.35V18.92c0-.67-.25-1-.76-1A8.07,8.07,0,0,0,156.17,18Zm-8.38,2.77a2.45,2.45,0,1,0-1.74.71A2.37,2.37,0,0,0,147.79,20.77Zm-1,1.85a8.41,8.41,0,0,1-1.19.11,11.27,11.27,0,0,1-1.51-.13,6.68,6.68,0,0,0-.86-.08A1.57,1.57,0,0,0,142,23a1.86,1.86,0,0,0-.46,1.31q0,1.51,1.3,1.51a2.23,2.23,0,0,0,.43-.05,2.61,2.61,0,0,1,.49-.13q.46,0,.46,1.54v4.37q0,1.51-.49,1.51l-.19,0-.7-.16q-1.3,0-1.3,1.54A1.82,1.82,0,0,0,142,35.7a1.54,1.54,0,0,0,1.19.5,13.89,13.89,0,0,0,1.4-.11A14,14,0,0,1,146,36a16.46,16.46,0,0,1,1.73.08q1.24.13,1.51.14,1.59,0,1.59-1.86,0-1.4-1.13-1.4a2.16,2.16,0,0,0-.47.07,2,2,0,0,1-.39.07q-.51,0-.51-1.38V23.56q0-1.05-.76-1.05Zm-18.28-.11-.86.11a9.31,9.31,0,0,1-1.11.11,3.58,3.58,0,0,1-.7-.08,6.39,6.39,0,0,0-.92-.13,1.48,1.48,0,0,0-1.17.51,2,2,0,0,0-.45,1.32q0,1.49,1.3,1.49a1.77,1.77,0,0,0,.47-.09,1.83,1.83,0,0,1,.42-.09q.46,0,.46,1.54v4.37q0,1.51-.46,1.51a1.39,1.39,0,0,1-.41-.09,1.47,1.47,0,0,0-.49-.09q-1.3,0-1.3,1.51,0,1.81,1.7,1.81a14.35,14.35,0,0,0,1.44-.11,14.31,14.31,0,0,1,1.44-.11,12.34,12.34,0,0,1,1.49.14,7.65,7.65,0,0,0,1,.08q1.43,0,1.43-1.7,0-1.32-1-1.46c-.34-.05-.55-.17-.62-.34a5.49,5.49,0,0,1-.11-1.47V28.43a2.68,2.68,0,0,1,.72-1.92,2.4,2.4,0,0,1,1.82-.76,1.51,1.51,0,0,1,1.38.63,4.34,4.34,0,0,1,.41,2.2v3.78q0,.62-.73.67-1.11.08-1.11,1.51a1.43,1.43,0,0,0,1.59,1.65,9.26,9.26,0,0,0,1.24-.11,10.23,10.23,0,0,1,1.43-.11,11.65,11.65,0,0,1,1.3.11,11.65,11.65,0,0,0,1.3.11q1.62,0,1.62-1.86,0-1.4-1.19-1.4a1.17,1.17,0,0,0-.41.05,1.54,1.54,0,0,1-.41.08q-.54,0-.54-1.38v-4a7.09,7.09,0,0,0-.62-3.4,4.15,4.15,0,0,0-4-2.11,6.09,6.09,0,0,0-4.7,2.43v-1.3Q129.22,22.51,128.49,22.51ZM113.7,33.26q-1.46,0-1.46-1.24,0-.78,1.49-1.16a24.12,24.12,0,0,0,2.38-.67v.59A2.16,2.16,0,0,1,113.7,33.26ZM122.06,36a1.72,1.72,0,0,0,.8-1.46A1.47,1.47,0,0,0,121.37,33l-.19,0a2.78,2.78,0,0,1-.41,0q-.43,0-.43-.86V26.64q0-2.65-1.54-3.62a8.39,8.39,0,0,0-4.35-.89,9,9,0,0,0-4.24.84,2.55,2.55,0,0,0-1.54,2.29,2.11,2.11,0,0,0,.7,1.62,2.53,2.53,0,0,0,1.78.65,2.43,2.43,0,0,0,1.58-.51,1.57,1.57,0,0,0,.63-1.27v-.11a2.59,2.59,0,0,1,0-.38q0-.57.89-.57a2,2,0,0,1,1.31.42,1.28,1.28,0,0,1,.53,1,1.4,1.4,0,0,1-.69,1.28,8.24,8.24,0,0,1-2.61.74,17.27,17.27,0,0,0-2.43.59,3.49,3.49,0,0,0-2.46,3.67,3.78,3.78,0,0,0,1.27,3,5,5,0,0,0,3.4,1.12A6.31,6.31,0,0,0,117,34.77a2.91,2.91,0,0,0,3,1.78A3.44,3.44,0,0,0,122.06,36ZM95.66,22c0-.31.16-.46.49-.46a.84.84,0,0,1,.24,0h.27q1.11,0,1.11-1.59,0-2-1.78-2a13,13,0,0,0-1.43.13,14.1,14.1,0,0,1-1.84.14A14.9,14.9,0,0,1,91,18.11,15,15,0,0,0,89.4,18a1.74,1.74,0,0,0-2,2,2.12,2.12,0,0,0,.36,1.28,1.13,1.13,0,0,0,1,.5,2.07,2.07,0,0,0,.61-.09,1.82,1.82,0,0,1,.5-.09q.54,0,1,1.32L94,33q1,3.13,2.43,3.13l.78,0L98,36l.81,0,.81,0q1.4,0,2.13-2.21l3.29-10q.76-2.32,1.4-2.32a2.34,2.34,0,0,1,.46.09,2.24,2.24,0,0,0,.54.09,1.16,1.16,0,0,0,1-.54,2.19,2.19,0,0,0,.39-1.32,1.87,1.87,0,0,0-.51-1.36A1.8,1.8,0,0,0,107,18a11.3,11.3,0,0,0-1.54.16,10.31,10.31,0,0,1-1.57.11,14.91,14.91,0,0,1-1.67-.14,15.1,15.1,0,0,0-1.67-.13q-1.73,0-1.73,2,0,1.62,1.24,1.62h.05l.38,0q.43,0,.43.43a2.73,2.73,0,0,1-.13.65L98.2,31.31l-2.43-8.69A2.35,2.35,0,0,1,95.66,22Z"/><path class="cls-2" d="M234.12,48.37a6.18,6.18,0,0,1,0,5.37,1.88,1.88,0,0,1-1.65,1,1.79,1.79,0,0,1-1.59-1,5.26,5.26,0,0,1-.59-2.7,5.17,5.17,0,0,1,.59-2.7,1.84,1.84,0,0,1,3.25,0Zm-5.28-4a3.75,3.75,0,0,0-.51.05,9.22,9.22,0,0,1-1.46.11,3.51,3.51,0,0,1-.78-.05l-.94-.13H225a1.38,1.38,0,0,0-1.11.51,2,2,0,0,0-.43,1.3q0,1.51,1.3,1.51a2.25,2.25,0,0,0,.43-.05,2.59,2.59,0,0,1,.49-.13q.46,0,.46,1.54v8.94q0,1.54-.49,1.54l-.46-.11a1,1,0,0,0-.41-.08q-1.32,0-1.32,1.51a1.83,1.83,0,0,0,.46,1.28,1.51,1.51,0,0,0,1.16.5l.49,0q1.78-.22,2.29-.22a22.53,22.53,0,0,1,2.46.14c.67.07,1.16.11,1.48.11a1.46,1.46,0,0,0,1.67-1.62q0-1.4-1.24-1.4c-.14,0-.38,0-.7.05a2.83,2.83,0,0,1-.62.08q-.65,0-.65-.84V56.76a10.71,10.71,0,0,0,1.57,1,4.23,4.23,0,0,0,1.81.38,4.77,4.77,0,0,0,4-1.94A8.47,8.47,0,0,0,239.07,51a8.21,8.21,0,0,0-1.46-5.12,4.68,4.68,0,0,0-3.92-1.9,5.1,5.1,0,0,0-4.18,2.16v-.81Q229.52,44.34,228.84,44.34Zm-8.38-1.77a2.45,2.45,0,1,0-1.74.71A2.37,2.37,0,0,0,220.46,42.58Zm-1,1.85a8.41,8.41,0,0,1-1.19.11,11.27,11.27,0,0,1-1.51-.13,6.68,6.68,0,0,0-.86-.08,1.57,1.57,0,0,0-1.21.5,1.86,1.86,0,0,0-.46,1.31q0,1.51,1.3,1.51a2.23,2.23,0,0,0,.43-.05,2.61,2.61,0,0,1,.49-.13q.46,0,.46,1.54v4.37q0,1.51-.49,1.51l-.19,0-.7-.16q-1.3,0-1.3,1.54a1.82,1.82,0,0,0,.46,1.28,1.54,1.54,0,0,0,1.19.5,13.89,13.89,0,0,0,1.4-.11,14,14,0,0,1,1.43-.11,16.46,16.46,0,0,1,1.73.08q1.24.13,1.51.14,1.59,0,1.59-1.86,0-1.4-1.13-1.4a2.16,2.16,0,0,0-.47.07,2,2,0,0,1-.39.07q-.51,0-.51-1.38V45.37q0-1.05-.76-1.05Zm-17.12-4.7a7.68,7.68,0,0,0-.93.08,11.16,11.16,0,0,1-1.44.08,9.41,9.41,0,0,1-1-.08,9.44,9.44,0,0,0-1-.08,1.54,1.54,0,0,0-1.19.5,1.86,1.86,0,0,0-.46,1.31q0,1.49,1.3,1.49A1.4,1.4,0,0,0,198,43a1.49,1.49,0,0,1,.49-.11q.46,0,.46,1.51v9q0,1.51-.46,1.51a1.53,1.53,0,0,1-.45-.09,1.5,1.5,0,0,0-.45-.09q-1.32,0-1.32,1.54a1.82,1.82,0,0,0,.46,1.28,1.54,1.54,0,0,0,1.19.5q.3,0,1.38-.14a9.88,9.88,0,0,1,1.21-.08,12.23,12.23,0,0,1,1.54.11,11,11,0,0,0,1.16.11q1.49,0,1.49-1.78,0-1.22-.84-1.35a1.16,1.16,0,0,1-.66-.23,1.31,1.31,0,0,1-.12-.71V50.74q0-3.21,2.32-3.21,1.7,0,1.7,2.24V53.9a1.78,1.78,0,0,1-.11.73q-.11.22-.57.24-1,.08-1,1.46a1.73,1.73,0,0,0,.42,1.22,1.41,1.41,0,0,0,1.09.46,11.31,11.31,0,0,0,1.28-.11,11.31,11.31,0,0,1,1.28-.11,12.4,12.4,0,0,1,1.35.11,12.41,12.41,0,0,0,1.35.11q1.59,0,1.59-1.89,0-1.38-1.19-1.38a1.42,1.42,0,0,0-.43.05,1.17,1.17,0,0,1-.38.05q-.54,0-.54-1.35V48.85a6.18,6.18,0,0,0-.7-3.35,4,4,0,0,0-3.56-1.57,4.91,4.91,0,0,0-1.94.34,8.25,8.25,0,0,0-1.94,1.34V40.67Q203.06,39.73,202.33,39.73ZM181.73,42A11,11,0,0,0,179.67,49,9.81,9.81,0,0,0,182,55.9a8,8,0,0,0,6.22,2.51,8.14,8.14,0,0,0,5.25-1.63,5.14,5.14,0,0,0,2-4.2,3,3,0,0,0-.66-2.05,2.26,2.26,0,0,0-1.79-.76,2.09,2.09,0,0,0-1.46.51,1.65,1.65,0,0,0-.54,1.35l0,1a1.64,1.64,0,0,1-.73,1.44,3.21,3.21,0,0,1-1.94.55,3.08,3.08,0,0,1-2.79-1.36,8.23,8.23,0,0,1-.88-4.33q0-5.72,3.62-5.72a3.06,3.06,0,0,1,1.92.58,1.71,1.71,0,0,1,.73,1.47l0,.84q-.05,1.7,2,1.7a2.37,2.37,0,0,0,1.58-.51,1.68,1.68,0,0,0,.61-1.35,8.27,8.27,0,0,0-.09-1,8.41,8.41,0,0,1-.09-1,14.76,14.76,0,0,1,.13-1.59,9.41,9.41,0,0,0,.08-1,1.62,1.62,0,0,0-1.7-1.7q-1.62,0-1.62,1.51a.92.92,0,0,0,0,.27,6.22,6.22,0,0,0-4.51-1.89A6.79,6.79,0,0,0,181.73,42ZM165.09,57.52l.73,0q2.11,0,2.11,1.16,0,1.43-3.21,1.43t-3.19-1.43q0-.76,1.22-1.24a15.07,15.07,0,0,0,1.62.11Zm1.07-10.23a1.75,1.75,0,0,1,.5,1.27,1.72,1.72,0,0,1-.5,1.24,1.79,1.79,0,0,1-2.51,0,1.75,1.75,0,0,1-.5-1.27,1.71,1.71,0,0,1,1.75-1.75A1.68,1.68,0,0,1,166.16,47.29Zm-5.51-2.07A3.89,3.89,0,0,0,159,48.39a3.47,3.47,0,0,0,1,2.38,4.37,4.37,0,0,0-1.69,1.15,2.64,2.64,0,0,0-.47,1.66A2.33,2.33,0,0,0,160,56q-2.73.84-2.73,3a3.63,3.63,0,0,0,2,3.2,9.86,9.86,0,0,0,5.2,1.2A10.28,10.28,0,0,0,170.14,62a4.33,4.33,0,0,0,2.11-3.79,3.4,3.4,0,0,0-1.4-2.92,6.57,6.57,0,0,0-4-1l-1.73,0h-.3a14.27,14.27,0,0,1-2-.08q-1.3-.22-1.3-1.13a.91.91,0,0,1,.41-.7l.13.05a7.45,7.45,0,0,0,2.89.62,6.62,6.62,0,0,0,4.23-1.27,4.06,4.06,0,0,0,1.61-3.35,3.58,3.58,0,0,0-2.59-3.67,1,1,0,0,1,0-.27q0-.78.57-.78a.37.37,0,0,1,.35.19l.27.43a1.21,1.21,0,0,0,1.11.57,1.5,1.5,0,0,0,1.12-.46,1.57,1.57,0,0,0,.45-1.13,2,2,0,0,0-.85-1.65,3.39,3.39,0,0,0-2.12-.65,3.64,3.64,0,0,0-2.46.77,2.76,2.76,0,0,0-.92,2.15l-1-.05A6.34,6.34,0,0,0,160.65,45.22Zm-16.35-.9-.86.11a9.31,9.31,0,0,1-1.11.11,3.58,3.58,0,0,1-.7-.08,6.39,6.39,0,0,0-.92-.13,1.48,1.48,0,0,0-1.17.51,2,2,0,0,0-.45,1.32q0,1.49,1.3,1.49a1.77,1.77,0,0,0,.47-.09,1.83,1.83,0,0,1,.42-.09q.46,0,.46,1.54v4.37q0,1.51-.46,1.51a1.39,1.39,0,0,1-.41-.09,1.47,1.47,0,0,0-.49-.09q-1.3,0-1.3,1.51,0,1.81,1.7,1.81a14.35,14.35,0,0,0,1.44-.11,14.31,14.31,0,0,1,1.44-.11,12.34,12.34,0,0,1,1.49.14,7.65,7.65,0,0,0,1,.08q1.43,0,1.43-1.7,0-1.32-1-1.46c-.34-.05-.55-.17-.62-.34A5.49,5.49,0,0,1,145.9,53V50.23a2.68,2.68,0,0,1,.72-1.92,2.4,2.4,0,0,1,1.82-.76,1.51,1.51,0,0,1,1.38.63,4.34,4.34,0,0,1,.41,2.2v3.78q0,.62-.73.67-1.11.08-1.11,1.51A1.43,1.43,0,0,0,150,58a9.26,9.26,0,0,0,1.24-.11,10.23,10.23,0,0,1,1.43-.11,11.65,11.65,0,0,1,1.3.11,11.65,11.65,0,0,0,1.3.11q1.62,0,1.62-1.86,0-1.4-1.19-1.4a1.17,1.17,0,0,0-.41.05,1.54,1.54,0,0,1-.41.08q-.54,0-.54-1.38v-4a7.09,7.09,0,0,0-.62-3.4,4.15,4.15,0,0,0-4-2.11,6.09,6.09,0,0,0-4.7,2.43v-1.3Q145,44.32,144.3,44.32Zm-8.73-1.74a2.45,2.45,0,1,0-1.74.71A2.37,2.37,0,0,0,135.57,42.58Zm-1,1.85a8.41,8.41,0,0,1-1.19.11,11.27,11.27,0,0,1-1.51-.13,6.68,6.68,0,0,0-.86-.08,1.57,1.57,0,0,0-1.21.5,1.86,1.86,0,0,0-.46,1.31q0,1.51,1.3,1.51a2.23,2.23,0,0,0,.43-.05,2.61,2.61,0,0,1,.49-.13q.46,0,.46,1.54v4.37q0,1.51-.49,1.51l-.19,0-.7-.16q-1.3,0-1.3,1.54a1.82,1.82,0,0,0,.46,1.28A1.54,1.54,0,0,0,131,58a13.89,13.89,0,0,0,1.4-.11,14,14,0,0,1,1.43-.11,16.46,16.46,0,0,1,1.73.08q1.24.13,1.51.14,1.59,0,1.59-1.86,0-1.4-1.13-1.4a2.16,2.16,0,0,0-.47.07,2,2,0,0,1-.39.07q-.51,0-.51-1.38V45.37q0-1.05-.76-1.05Zm-17.12-4.7a7.68,7.68,0,0,0-.93.08,11.16,11.16,0,0,1-1.44.08,9.41,9.41,0,0,1-1-.08,9.44,9.44,0,0,0-1-.08,1.54,1.54,0,0,0-1.19.5,1.86,1.86,0,0,0-.46,1.31q0,1.49,1.3,1.49a1.4,1.4,0,0,0,.43-.05,1.49,1.49,0,0,1,.49-.11q.46,0,.46,1.51v9q0,1.51-.46,1.51a1.53,1.53,0,0,1-.45-.09,1.5,1.5,0,0,0-.45-.09q-1.32,0-1.32,1.54a1.82,1.82,0,0,0,.46,1.28A1.54,1.54,0,0,0,113,58q.3,0,1.38-.14a9.88,9.88,0,0,1,1.21-.08,12.23,12.23,0,0,1,1.54.11,11,11,0,0,0,1.16.11q1.49,0,1.49-1.78,0-1.22-.84-1.35a1.16,1.16,0,0,1-.66-.23,1.31,1.31,0,0,1-.12-.71V50.74q0-3.21,2.32-3.21,1.7,0,1.7,2.24V53.9a1.78,1.78,0,0,1-.11.73q-.11.22-.57.24-1,.08-1,1.46a1.73,1.73,0,0,0,.42,1.22A1.41,1.41,0,0,0,122,58a11.31,11.31,0,0,0,1.28-.11,11.31,11.31,0,0,1,1.28-.11,12.4,12.4,0,0,1,1.35.11,12.41,12.41,0,0,0,1.35.11q1.59,0,1.59-1.89,0-1.38-1.19-1.38a1.42,1.42,0,0,0-.43.05,1.17,1.17,0,0,1-.38.05q-.54,0-.54-1.35V48.85a6.18,6.18,0,0,0-.7-3.35,4,4,0,0,0-3.56-1.57,4.91,4.91,0,0,0-1.94.34,8.25,8.25,0,0,0-1.94,1.34V40.67Q118.17,39.73,117.44,39.73ZM100,45.21a4.34,4.34,0,0,0-1.34,3.29,4.28,4.28,0,0,0,.46,2,2.89,2.89,0,0,0,1.26,1.28,12.11,12.11,0,0,0,2.71.81l1.57.32q1.57.32,1.57,1.16,0,1.21-1.94,1.21a3.57,3.57,0,0,1-1.67-.31,4.07,4.07,0,0,1-1.24-1.31,2.78,2.78,0,0,0-.81-.84,2.28,2.28,0,0,0-1.11-.22q-1.51,0-1.51,1.21,0,.24,0,.73t0,.73c0,.18,0,.46-.05.84s-.05.66-.05.84q0,1.19,1.46,1.19a1.18,1.18,0,0,0,1.35-1.32A6.87,6.87,0,0,0,105,58.36,5.8,5.8,0,0,0,109,57a4.36,4.36,0,0,0,1.58-3.43,3.88,3.88,0,0,0-.67-2.27,3.57,3.57,0,0,0-1.39-1.16,11.18,11.18,0,0,0-2.63-.73,15.62,15.62,0,0,1-2.7-.61.81.81,0,0,1-.51-.8q0-1.08,1.57-1.08a2.71,2.71,0,0,1,2.24,1.24,2.18,2.18,0,0,0,1.78,1,1.27,1.27,0,0,0,1.43-1.43V47c0-.23,0-.38,0-.43a5.64,5.64,0,0,1,.08-.92,2.84,2.84,0,0,0,.11-.73q0-1-1.38-1T107,45.1a5.4,5.4,0,0,0-3.51-1.16A4.87,4.87,0,0,0,100,45.21Zm-5.72-2.63a2.45,2.45,0,1,0-1.74.71A2.37,2.37,0,0,0,94.29,42.58Zm-1,1.85a8.41,8.41,0,0,1-1.19.11,11.27,11.27,0,0,1-1.51-.13,6.68,6.68,0,0,0-.86-.08,1.57,1.57,0,0,0-1.21.5A1.86,1.86,0,0,0,88,46.13q0,1.51,1.3,1.51a2.23,2.23,0,0,0,.43-.05,2.61,2.61,0,0,1,.49-.13q.46,0,.46,1.54v4.37q0,1.51-.49,1.51l-.19,0-.7-.16q-1.3,0-1.3,1.54a1.82,1.82,0,0,0,.46,1.28,1.54,1.54,0,0,0,1.19.5,13.89,13.89,0,0,0,1.4-.11,14,14,0,0,1,1.43-.11,16.46,16.46,0,0,1,1.73.08q1.24.13,1.51.14,1.59,0,1.59-1.86,0-1.4-1.13-1.4a2.16,2.16,0,0,0-.47.07,2,2,0,0,1-.39.07q-.51,0-.51-1.38V45.37q0-1.05-.76-1.05ZM75,44.32l-.86.11a9.31,9.31,0,0,1-1.11.11,3.58,3.58,0,0,1-.7-.08,6.39,6.39,0,0,0-.92-.13,1.48,1.48,0,0,0-1.17.51,2,2,0,0,0-.45,1.32q0,1.49,1.3,1.49a1.77,1.77,0,0,0,.47-.09,1.83,1.83,0,0,1,.42-.09q.46,0,.46,1.54v4.37q0,1.51-.46,1.51a1.39,1.39,0,0,1-.41-.09,1.47,1.47,0,0,0-.49-.09q-1.3,0-1.3,1.51,0,1.81,1.7,1.81a14.35,14.35,0,0,0,1.44-.11,14.31,14.31,0,0,1,1.44-.11,12.34,12.34,0,0,1,1.49.14,7.65,7.65,0,0,0,1,.08q1.43,0,1.43-1.7,0-1.32-1-1.46c-.34-.05-.55-.17-.62-.34A5.49,5.49,0,0,1,76.59,53V50.23a2.68,2.68,0,0,1,.72-1.92,2.4,2.4,0,0,1,1.82-.76,1.51,1.51,0,0,1,1.38.63,4.34,4.34,0,0,1,.41,2.2v3.78q0,.62-.73.67-1.11.08-1.11,1.51A1.43,1.43,0,0,0,80.66,58a9.26,9.26,0,0,0,1.24-.11,10.23,10.23,0,0,1,1.43-.11,11.65,11.65,0,0,1,1.3.11,11.65,11.65,0,0,0,1.3.11q1.62,0,1.62-1.86,0-1.4-1.19-1.4a1.17,1.17,0,0,0-.41.05,1.54,1.54,0,0,1-.41.08q-.54,0-.54-1.38v-4a7.09,7.09,0,0,0-.62-3.4,4.15,4.15,0,0,0-4-2.11,6.09,6.09,0,0,0-4.7,2.43v-1.3Q75.72,44.32,75,44.32ZM60.2,55.06q-1.46,0-1.46-1.24,0-.78,1.49-1.16A24.12,24.12,0,0,0,62.6,52v.59A2.16,2.16,0,0,1,60.2,55.06Zm8.36,2.73a1.72,1.72,0,0,0,.8-1.46,1.47,1.47,0,0,0-1.49-1.48l-.19,0a2.78,2.78,0,0,1-.41,0q-.43,0-.43-.86V48.45q0-2.65-1.54-3.62A8.39,8.39,0,0,0,61,43.94a9,9,0,0,0-4.24.84,2.55,2.55,0,0,0-1.54,2.29,2.11,2.11,0,0,0,.7,1.62,2.53,2.53,0,0,0,1.78.65,2.43,2.43,0,0,0,1.58-.51,1.57,1.57,0,0,0,.63-1.27v-.11a2.59,2.59,0,0,1,0-.38q0-.57.89-.57a2,2,0,0,1,1.31.42,1.28,1.28,0,0,1,.53,1,1.4,1.4,0,0,1-.69,1.28,8.24,8.24,0,0,1-2.61.74,17.27,17.27,0,0,0-2.43.59,3.49,3.49,0,0,0-2.46,3.67,3.78,3.78,0,0,0,1.27,3,5,5,0,0,0,3.4,1.12,6.31,6.31,0,0,0,4.48-1.78,2.91,2.91,0,0,0,3,1.78A3.44,3.44,0,0,0,68.56,57.79Zm-26.39-14c0-.31.16-.46.49-.46a.84.84,0,0,1,.24,0h.27q1.11,0,1.11-1.59,0-2-1.78-2a13,13,0,0,0-1.43.13,14.1,14.1,0,0,1-1.84.14,14.9,14.9,0,0,1-1.67-.14,15,15,0,0,0-1.65-.13,1.74,1.74,0,0,0-2,2A2.12,2.12,0,0,0,34.29,43a1.13,1.13,0,0,0,1,.5,2.07,2.07,0,0,0,.61-.09,1.82,1.82,0,0,1,.5-.09q.54,0,1,1.32l3.21,10.1q1,3.13,2.43,3.13l.78,0,.78,0,.81,0,.81,0q1.4,0,2.13-2.21l3.29-10q.76-2.32,1.4-2.32a2.34,2.34,0,0,1,.46.09,2.24,2.24,0,0,0,.54.09,1.16,1.16,0,0,0,1-.54,2.19,2.19,0,0,0,.39-1.32,1.87,1.87,0,0,0-.51-1.36,1.8,1.8,0,0,0-1.35-.53,11.3,11.3,0,0,0-1.54.16,10.31,10.31,0,0,1-1.57.11,14.91,14.91,0,0,1-1.67-.14A15.1,15.1,0,0,0,47,39.78q-1.73,0-1.73,2,0,1.62,1.24,1.62h.05l.38,0q.43,0,.43.43a2.73,2.73,0,0,1-.13.65L44.7,53.12l-2.43-8.69A2.35,2.35,0,0,1,42.16,43.8Z"/><path class="cls-2" d="M185.43,200.92q0-.36,0-.68,0-1.16-1.7-1.16t-1.7,1.16c0,.1,0,.33.05.68l.53,5.47q.08.85.8.85h.66q.71,0,.8-.85Zm-.54,9.62a1.62,1.62,0,0,0-1.14-2.75,1.53,1.53,0,0,0-1.12.48,1.6,1.6,0,0,0,0,2.28,1.54,1.54,0,0,0,1.12.48A1.56,1.56,0,0,0,184.89,210.54ZM177,205.65a1.41,1.41,0,0,0,.93.3,1.6,1.6,0,0,0,1.14-.42,1.44,1.44,0,0,0,.44-1.1,2.13,2.13,0,0,0-1-1.79,4.12,4.12,0,0,0-2.47-.71,4.22,4.22,0,0,0-4.52,4.54,4.56,4.56,0,0,0,1.19,3.31,4.24,4.24,0,0,0,3.2,1.23,4.32,4.32,0,0,0,2.69-.85,2.48,2.48,0,0,0,1.12-2,1.19,1.19,0,0,0-.36-.89,1.28,1.28,0,0,0-.93-.35,1.13,1.13,0,0,0-.75.2,2.23,2.23,0,0,0-.41.71,1.29,1.29,0,0,1-1.22.9,1.57,1.57,0,0,1-1.31-.65,2.76,2.76,0,0,1-.49-1.72,2.69,2.69,0,0,1,.47-1.66,1.45,1.45,0,0,1,1.22-.62,1.49,1.49,0,0,1,.87.27.92.92,0,0,0-.17.51A1,1,0,0,0,177,205.65Zm-7.88-4.57a1.54,1.54,0,1,0-1.1.45A1.49,1.49,0,0,0,169.12,201.08Zm-.64,1.16a5.25,5.25,0,0,1-.75.07,7.08,7.08,0,0,1-1-.08,4.12,4.12,0,0,0-.54-.05,1,1,0,0,0-.76.31,1.17,1.17,0,0,0-.29.82q0,1,.82,1l.27,0,.31-.08q.29,0,.29,1v2.75c0,.64-.1,1-.31,1l-.12,0-.44-.1q-.82,0-.82,1a1.15,1.15,0,0,0,.29.81,1,1,0,0,0,.75.31,8.75,8.75,0,0,0,.88-.07,8.78,8.78,0,0,1,.9-.07,10.26,10.26,0,0,1,1.09.05q.78.08,1,.08,1,0,1-1.17,0-.88-.71-.88a1.33,1.33,0,0,0-.3,0l-.25,0q-.32,0-.32-.87v-5.12q0-.66-.48-.66Zm-10.62.49a2.73,2.73,0,0,0-.84,2.07,2.7,2.7,0,0,0,.29,1.27,1.81,1.81,0,0,0,.79.81,7.61,7.61,0,0,0,1.71.51l1,.2q1,.2,1,.73,0,.77-1.22.77a2.25,2.25,0,0,1-1.05-.2,2.56,2.56,0,0,1-.78-.83,1.76,1.76,0,0,0-.51-.53,1.43,1.43,0,0,0-.7-.14q-1,0-1,.77c0,.1,0,.25,0,.46s0,.36,0,.46,0,.29,0,.53,0,.41,0,.53q0,.75.92.75a.74.74,0,0,0,.85-.83,4.32,4.32,0,0,0,2.72,1,3.65,3.65,0,0,0,2.49-.87,2.75,2.75,0,0,0,1-2.16,2.44,2.44,0,0,0-.42-1.43,2.25,2.25,0,0,0-.88-.73,7.06,7.06,0,0,0-1.66-.46,9.83,9.83,0,0,1-1.7-.38.51.51,0,0,1-.32-.5q0-.68,1-.68a1.71,1.71,0,0,1,1.41.78,1.38,1.38,0,0,0,1.12.65.8.8,0,0,0,.9-.9v-.46q0-.22,0-.27A3.62,3.62,0,0,1,164,203a1.78,1.78,0,0,0,.07-.46q0-.61-.87-.61t-.92.71a3.39,3.39,0,0,0-2.21-.73A3.07,3.07,0,0,0,157.87,202.73Zm-8.67,0a2.73,2.73,0,0,0-.84,2.07,2.7,2.7,0,0,0,.29,1.27,1.81,1.81,0,0,0,.79.81,7.61,7.61,0,0,0,1.71.51l1,.2q1,.2,1,.73,0,.77-1.22.77a2.25,2.25,0,0,1-1.05-.2,2.56,2.56,0,0,1-.78-.83,1.76,1.76,0,0,0-.51-.53,1.43,1.43,0,0,0-.7-.14q-1,0-1,.77c0,.1,0,.25,0,.46s0,.36,0,.46,0,.29,0,.53,0,.41,0,.53q0,.75.92.75a.74.74,0,0,0,.85-.83,4.32,4.32,0,0,0,2.72,1,3.65,3.65,0,0,0,2.49-.87,2.75,2.75,0,0,0,1-2.16,2.44,2.44,0,0,0-.42-1.43,2.25,2.25,0,0,0-.88-.73,7.06,7.06,0,0,0-1.66-.46,9.83,9.83,0,0,1-1.7-.38.51.51,0,0,1-.32-.5q0-.68,1-.68a1.71,1.71,0,0,1,1.41.78,1.38,1.38,0,0,0,1.12.65.8.8,0,0,0,.9-.9v-.46q0-.22,0-.27a3.62,3.62,0,0,1,.05-.58,1.78,1.78,0,0,0,.07-.46q0-.61-.87-.61t-.92.71a3.39,3.39,0,0,0-2.21-.73A3.07,3.07,0,0,0,149.2,202.73Zm-7.42,6.21q-.92,0-.92-.78,0-.49.94-.73a15.42,15.42,0,0,0,1.5-.42v.37A1.36,1.36,0,0,1,141.78,208.94Zm5.26,1.72a1.08,1.08,0,0,0,.5-.92.93.93,0,0,0-.93-.93l-.12,0-.25,0c-.18,0-.27-.18-.27-.54v-3.52a2.48,2.48,0,0,0-1-2.28,5.28,5.28,0,0,0-2.74-.56,5.63,5.63,0,0,0-2.67.53,1.6,1.6,0,0,0-1,1.44,1.33,1.33,0,0,0,.44,1,1.59,1.59,0,0,0,1.12.41,1.53,1.53,0,0,0,1-.32,1,1,0,0,0,.4-.8v-.07l0-.24q0-.36.56-.36a1.29,1.29,0,0,1,.83.26.81.81,0,0,1,.33.65.88.88,0,0,1-.43.81,5.19,5.19,0,0,1-1.64.47,11,11,0,0,0-1.53.37,2.2,2.2,0,0,0-1.55,2.31,2.38,2.38,0,0,0,.8,1.88,3.12,3.12,0,0,0,2.14.71,4,4,0,0,0,2.82-1.12,1.83,1.83,0,0,0,1.87,1.12A2.16,2.16,0,0,0,147,210.66Zm-12.26-11.32a3,3,0,0,1-.68.07,8.22,8.22,0,0,1-.87-.07l-.58-.05a1,1,0,0,0-.78.31,1.16,1.16,0,0,0-.29.83q0,.93.82.93a.87.87,0,0,0,.27,0,1,1,0,0,1,.31-.07q.29,0,.29,1v5.66c0,.64-.1,1-.29,1a1,1,0,0,1-.28-.06,1,1,0,0,0-.28-.06q-.83,0-.83,1a1.17,1.17,0,0,0,.29.83,1,1,0,0,0,.75.31c.12,0,.42,0,.9-.08a6.7,6.7,0,0,1,.8-.05q.44,0,.83,0l1.29.1q1,0,1-1.17,0-.88-.75-.88a.88.88,0,0,0-.27,0,.76.76,0,0,1-.24,0q-.34,0-.34-.85v-8q0-.63-.48-.63A5,5,0,0,0,134.77,199.33Zm-6.37,6.32a1.41,1.41,0,0,0,.93.3,1.6,1.6,0,0,0,1.14-.42,1.44,1.44,0,0,0,.44-1.1,2.13,2.13,0,0,0-1-1.79,4.12,4.12,0,0,0-2.47-.71,4.22,4.22,0,0,0-4.52,4.54,4.56,4.56,0,0,0,1.19,3.31,4.24,4.24,0,0,0,3.2,1.23,4.32,4.32,0,0,0,2.69-.85,2.48,2.48,0,0,0,1.12-2,1.19,1.19,0,0,0-.36-.89,1.28,1.28,0,0,0-.93-.35,1.13,1.13,0,0,0-.75.2,2.23,2.23,0,0,0-.41.71,1.29,1.29,0,0,1-1.22.9,1.57,1.57,0,0,1-1.31-.65,2.76,2.76,0,0,1-.49-1.72,2.69,2.69,0,0,1,.47-1.66,1.45,1.45,0,0,1,1.22-.62,1.49,1.49,0,0,1,.87.27.92.92,0,0,0-.17.51A1,1,0,0,0,128.4,205.65Zm-15.83-1.37a1.35,1.35,0,0,1,1.1-.53,1.38,1.38,0,0,1,.92.33,1,1,0,0,1,.39.77.3.3,0,0,1-.06.21.51.51,0,0,1-.31.06h-1.9c-.2,0-.32,0-.36-.07l-.05-.17A1,1,0,0,1,112.57,204.28Zm4.05-1.31a4,4,0,0,0-2.88-1,4.12,4.12,0,0,0-3.14,1.27,4.64,4.64,0,0,0-1.2,3.32,4.45,4.45,0,0,0,1.21,3.26,4.33,4.33,0,0,0,3.23,1.22,4.79,4.79,0,0,0,2.63-.69,2,2,0,0,0,1.08-1.67,1,1,0,0,0-.31-.73,1.17,1.17,0,0,0-.82-.29,1.52,1.52,0,0,0-1.12.54,2.1,2.1,0,0,1-1.46.78,1.54,1.54,0,0,1-1.16-.48,1.65,1.65,0,0,1-.46-1.19c0-.16,0-.26.08-.3a.74.74,0,0,1,.38-.06h4.15a.84.84,0,0,0,.71-.24,1.73,1.73,0,0,0,.18-1A3.66,3.66,0,0,0,116.63,203Zm-14.87-3.69a4.78,4.78,0,0,0-.59.05,7.15,7.15,0,0,1-.91.05,6.08,6.08,0,0,1-.65-.05,5.89,5.89,0,0,0-.65-.05,1,1,0,0,0-.75.31,1.17,1.17,0,0,0-.29.83q0,.93.82.93a.87.87,0,0,0,.27,0,1,1,0,0,1,.31-.07q.29,0,.29,1v5.66c0,.64-.1,1-.29,1a1,1,0,0,1-.28-.06,1,1,0,0,0-.28-.06q-.83,0-.83,1a1.15,1.15,0,0,0,.29.81,1,1,0,0,0,.75.31q.19,0,.87-.08a6.14,6.14,0,0,1,.76-.05,7.69,7.69,0,0,1,1,.07,6.92,6.92,0,0,0,.73.07q.93,0,.93-1.12c0-.51-.18-.79-.53-.85a.73.73,0,0,1-.42-.14.83.83,0,0,1-.08-.45v-2q0-2,1.46-2,1.07,0,1.07,1.41v2.6a1.12,1.12,0,0,1-.07.46q-.07.14-.36.15-.65.05-.65.92a1.09,1.09,0,0,0,.26.77.89.89,0,0,0,.69.29,7.11,7.11,0,0,0,.81-.07,7.14,7.14,0,0,1,.81-.07,7.81,7.81,0,0,1,.85.07,7.81,7.81,0,0,0,.85.07q1,0,1-1.19,0-.87-.75-.87a.88.88,0,0,0-.27,0,.76.76,0,0,1-.24,0q-.34,0-.34-.85V205a3.89,3.89,0,0,0-.44-2.11,2.5,2.5,0,0,0-2.24-1,3.1,3.1,0,0,0-1.22.21,5.2,5.2,0,0,0-1.22.84v-3.11C102.22,199.48,102.07,199.28,101.76,199.28Zm-12.44,9.22a3.85,3.85,0,0,0-.55-.06q-1,0-1,1.12A1.11,1.11,0,0,0,89,210.81a11.48,11.48,0,0,0,1.17-.07q1-.1,1.75-.1t1.75.1q.68.07,1.17.07,1.28,0,1.28-1.34a.9.9,0,0,0-1-1,3.84,3.84,0,0,0-.55.06,3.71,3.71,0,0,1-.55.06q-.58,0-.58-1.05v-4.9a1.45,1.45,0,0,1,.2-.88.84.84,0,0,1,.7-.25q.75,0,.75.61a3.77,3.77,0,0,1-.05.51,4,4,0,0,0-.05.54q0,1.46,1.28,1.46a1.21,1.21,0,0,0,.93-.37,1.44,1.44,0,0,0,.35-1c0-.07,0-.34-.07-.82s-.05-.63-.05-.82,0-.42,0-.76,0-.59,0-.76a.67.67,0,0,0-.77-.75c-.25,0-.57,0-1,.05q-1.36.12-3.83.12t-3.81-.12c-.4,0-.73-.05-1-.05a.66.66,0,0,0-.75.75c0,.17,0,.4,0,.68s.05.7.05.83a7.11,7.11,0,0,1-.05.82q-.07.58-.07.8a1.49,1.49,0,0,0,.34,1,1.18,1.18,0,0,0,.93.38q1.27,0,1.28-1.51a3.5,3.5,0,0,0-.06-.52,3.37,3.37,0,0,1-.06-.52q0-.58.83-.58t.83,1.14v4.9q0,1.05-.58,1.05A3.7,3.7,0,0,1,89.33,208.51Z"/><path class="cls-2" d="M220,229.36a2.46,2.46,0,0,1-3.46-.39,4.11,4.11,0,0,1-.7-2.54,4,4,0,0,1,.68-2.46,2.21,2.21,0,0,1,1.88-.9,2.41,2.41,0,0,1,1.57.56,2.13,2.13,0,0,1,.74,1.33,9.07,9.07,0,0,1,.09,1.55,12.53,12.53,0,0,1-.07,1.45A2.14,2.14,0,0,1,220,229.36Zm-4.5-6.19a5.72,5.72,0,0,0,0,6.59,3.44,3.44,0,0,0,2.78,1.26,3.06,3.06,0,0,0,2.61-1.21v.37c0,.41.15.61.46.61a1.49,1.49,0,0,0,.36-.05l.39,0,.52,0,.52,0q.77,0,.77-.58t-.64-.56l-.38,0a1.32,1.32,0,0,1-.35,0,.39.39,0,0,1-.42-.27,6.76,6.76,0,0,1-.1-1.4v-4.51q0-.44,0-1.29.05-1.21.05-1.31c0-.57,0-.87,0-.9v-.19q0-.68-.48-.68a3.26,3.26,0,0,0-.44,0l-.44,0-.56-.05-.49,0q-.85,0-.85.56t.63.54a2,2,0,0,0,.38-.05,2,2,0,0,1,.38-.05q.39,0,.48.53a5.68,5.68,0,0,1,0,.83v1.72a2.78,2.78,0,0,0-2.52-1.31A3.44,3.44,0,0,0,215.55,223.17Zm-9.76-.94-.46,0a2.35,2.35,0,0,1-.48,0l-.63-.07-.17,0q-.76,0-.76.56c0,.36.21.54.62.54l.35,0,.36,0a.4.4,0,0,1,.39.21,2.18,2.18,0,0,1,.15.79v4.54q0,1-.54,1a2.13,2.13,0,0,1-.46-.05l-.32-.05a.48.48,0,0,0-.55.54q0,.58.71.58l.85-.08a8.68,8.68,0,0,1,1-.07,6.18,6.18,0,0,1,.83.05q.75.1.88.1.68,0,.68-.55t-.53-.57a1.67,1.67,0,0,0-.39.06,1.68,1.68,0,0,1-.37.06.37.37,0,0,1-.37-.27,3.39,3.39,0,0,1-.1-1v-2.26a4.59,4.59,0,0,1,.41-2.26,2.11,2.11,0,0,1,1.95-1,2.16,2.16,0,0,1,1.27.39,1.64,1.64,0,0,1,.66,1,6,6,0,0,1,.08,1.24v3.2q0,.93-.45.93l-.42-.07a1.57,1.57,0,0,0-.31,0q-.59,0-.59.53t.68.6l.9-.1a6.51,6.51,0,0,1,.73,0,8.32,8.32,0,0,1,1,.07,7.34,7.34,0,0,0,.78.07.75.75,0,0,0,.49-.17.53.53,0,0,0,.2-.43.5.5,0,0,0-.16-.37.54.54,0,0,0-.38-.15l-.35,0a2.47,2.47,0,0,1-.4,0c-.25,0-.4-.19-.46-.58q0-.14,0-.87v-3.23a4,4,0,0,0-.24-1.51,2.45,2.45,0,0,0-1.11-1.16,3.44,3.44,0,0,0-1.73-.47,3.29,3.29,0,0,0-2.72,1.29v-.48Q206.28,222.22,205.79,222.22Zm-6.95,7a2.5,2.5,0,0,1-1.79.62,2,2,0,0,1-1.27-.37,1.24,1.24,0,0,1-.47-1q0-1.24,1.93-1.43a7.83,7.83,0,0,0,1.48-.24,2.18,2.18,0,0,0,.79-.48v1.21A2.3,2.3,0,0,1,198.84,229.27Zm4.29,0v-1.05q0-.82-.55-.82t-.52.54v.83q0,1.08-.59,1.08t-.58-.59a7.25,7.25,0,0,1,0-1V224.9q0-3-3.09-3a3.81,3.81,0,0,0-2.29.68,2,2,0,0,0-.94,1.63,1,1,0,0,0,.3.75,1,1,0,0,0,.74.31.9.9,0,0,0,.62-.22.72.72,0,0,0,.25-.56.66.66,0,0,0-.24-.58c-.1-.07-.15-.12-.15-.17s.08-.24.25-.36a2.6,2.6,0,0,1,1.43-.43,2.07,2.07,0,0,1,1.35.4,1.35,1.35,0,0,1,.48,1.1,1.09,1.09,0,0,1-.43,1,5.12,5.12,0,0,1-1.86.43q-1,.12-1.33.2a3.16,3.16,0,0,0-.79.33,2.21,2.21,0,0,0-1.21,2.07,2.23,2.23,0,0,0,.83,1.82,3.35,3.35,0,0,0,2.2.68,3.06,3.06,0,0,0,2.72-1.28,1.57,1.57,0,0,0,1.72,1.21A1.51,1.51,0,0,0,203.14,229.31Zm-26.93-7.07h-.05l-.41.07h-.31a5.26,5.26,0,0,1-.56,0l-.51,0q-.7,0-.7.58t.63.54l.27,0,.48-.09a.39.39,0,0,1,.42.36,12.14,12.14,0,0,1,.08,1.8V229q0,.83-.5.83l-.07,0-.43-.08-.1,0h-.1q-.66,0-.66.53t.68.58l.88-.07.75-.05a8.72,8.72,0,0,1,1,.07,6.14,6.14,0,0,0,.71.05q.76,0,.76-.54t-.66-.56h-.12l-.1,0a1.44,1.44,0,0,1-.36.09c-.2,0-.33-.19-.37-.58q0-.12,0-.8v-2.27a4.06,4.06,0,0,1,.49-2.32A2,2,0,0,1,179,223a1.6,1.6,0,0,1,1.42.58,3.86,3.86,0,0,1,.4,2.07v2.48l-.05.8q0,.87-.42.87a1.36,1.36,0,0,1-.36-.07.7.7,0,0,0-.29,0,.46.46,0,0,0-.51.53q0,.58.7.58a4.85,4.85,0,0,0,.75-.07,5,5,0,0,1,.78-.07,6.27,6.27,0,0,1,.76.07,6.24,6.24,0,0,0,.76.07q.8,0,.8-.55a.53.53,0,0,0-.16-.39.55.55,0,0,0-.4-.16l-.3,0-.3,0c-.22,0-.35-.13-.4-.4a14.72,14.72,0,0,1-.08-2v-1.21a5.09,5.09,0,0,1,.37-2.31,1.76,1.76,0,0,1,1.68-.83,2.07,2.07,0,0,1,1.12.31,1.54,1.54,0,0,1,.67.84,5.92,5.92,0,0,1,.18,1.71V228a8.36,8.36,0,0,1-.09,1.45.35.35,0,0,1-.37.29.89.89,0,0,1-.27,0l-.34,0c-.36,0-.54.17-.54.51s.24.6.71.6c.19,0,.47,0,.84-.06a8.4,8.4,0,0,1,.84-.06,7.42,7.42,0,0,1,.79.06,7.65,7.65,0,0,0,.77.06q.68,0,.68-.6t-.59-.51a1.63,1.63,0,0,0-.35.06,1.58,1.58,0,0,1-.35.06c-.24,0-.38-.2-.44-.61,0-.1,0-.39,0-.85v-2.93a5.2,5.2,0,0,0-.22-1.77,2.46,2.46,0,0,0-1.17-1.29,3.62,3.62,0,0,0-1.73-.41,3.51,3.51,0,0,0-1.53.29,3.59,3.59,0,0,0-1.17,1,2.66,2.66,0,0,0-2.45-1.29,3,3,0,0,0-1.36.28,4,4,0,0,0-1.16,1v-.49C176.62,222.41,176.48,222.24,176.21,222.24Zm-7,7a2.5,2.5,0,0,1-1.79.62,2,2,0,0,1-1.27-.37,1.24,1.24,0,0,1-.47-1q0-1.24,1.93-1.43a7.83,7.83,0,0,0,1.48-.24,2.18,2.18,0,0,0,.79-.48v1.21A2.3,2.3,0,0,1,169.23,229.27Zm4.29,0v-1.05q0-.82-.55-.82t-.52.54v.83q0,1.08-.59,1.08t-.58-.59a7.25,7.25,0,0,1,0-1V224.9q0-3-3.09-3a3.81,3.81,0,0,0-2.29.68,2,2,0,0,0-.94,1.63,1,1,0,0,0,.3.75,1,1,0,0,0,.74.31.9.9,0,0,0,.62-.22.72.72,0,0,0,.25-.56.66.66,0,0,0-.24-.58c-.1-.07-.15-.12-.15-.17s.08-.24.25-.36a2.6,2.6,0,0,1,1.43-.43,2.07,2.07,0,0,1,1.35.4,1.35,1.35,0,0,1,.48,1.1,1.09,1.09,0,0,1-.43,1,5.12,5.12,0,0,1-1.86.43q-1,.12-1.33.2a3.16,3.16,0,0,0-.79.33,2.21,2.21,0,0,0-1.21,2.07,2.23,2.23,0,0,0,.83,1.82,3.35,3.35,0,0,0,2.2.68,3.06,3.06,0,0,0,2.72-1.28,1.57,1.57,0,0,0,1.72,1.21A1.51,1.51,0,0,0,173.52,229.31Zm-15.69-5.57a2.56,2.56,0,0,1,1.73-.69,2.22,2.22,0,0,1,1.6.66,2.11,2.11,0,0,1,.68,1.56q0,.24-.36.24h-4.06q-.37,0-.37-.24A2,2,0,0,1,157.83,223.75Zm4.35-.74a3.51,3.51,0,0,0-2.63-1.07,3.69,3.69,0,0,0-2.92,1.29,5,5,0,0,0-1.12,3.37,4.7,4.7,0,0,0,1.05,3.22,3.59,3.59,0,0,0,2.84,1.2,4.09,4.09,0,0,0,2.55-.86,2.46,2.46,0,0,0,1.12-2,.56.56,0,0,0-.63-.65.53.53,0,0,0-.56.41l-.15.49a1.86,1.86,0,0,1-.81,1,2.43,2.43,0,0,1-1.37.41,2.46,2.46,0,0,1-1.9-.85,3.06,3.06,0,0,1-.76-2.12.25.25,0,0,1,.07-.2.48.48,0,0,1,.29-.06h5.41q.41,0,.49-.14a2.1,2.1,0,0,0,.08-.79A3.75,3.75,0,0,0,162.18,223Zm-12.9-.78a1.09,1.09,0,0,0-.32,0l-.44,0-.51,0-.51,0q-.73,0-.73.59a.49.49,0,0,0,.56.54,1.89,1.89,0,0,0,.37-.05,1.88,1.88,0,0,1,.37-.05q.46,0,.51,1l.05,3.86V229q0,.78-.46.78l-.24,0-.26-.05-.26,0q-.65,0-.65.53c0,.4.23.6.69.6l.95-.08c.26,0,.62,0,1.07,0a7.32,7.32,0,0,1,.77.06,7.59,7.59,0,0,0,.77.06h.07q.69,0,.69-.59a.48.48,0,0,0-.54-.54,1.45,1.45,0,0,0-.32,0,2,2,0,0,1-.46.06q-.44,0-.53-1,0-.14,0-1.28v-1.12a6.73,6.73,0,0,1,.27-2.21A1.72,1.72,0,0,1,152,223a1.7,1.7,0,0,1,1.08.34,1,1,0,0,1,.43.83.85.85,0,0,1-.1.37l-.22-.05a.64.64,0,0,0-.48.21.68.68,0,0,0-.2.48.74.74,0,0,0,.27.58,1,1,0,0,0,.66.24,1.2,1.2,0,0,0,1-.47,1.89,1.89,0,0,0,.37-1.21,2.22,2.22,0,0,0-.74-1.73,3,3,0,0,0-4.29.57v-.47C149.72,222.39,149.58,222.22,149.28,222.22Zm-5.57,3.52a1,1,0,0,0,.71.26,1.12,1.12,0,0,0,.89-.41,1.54,1.54,0,0,0,.35-1,2.33,2.33,0,0,0-.9-1.88,3.44,3.44,0,0,0-2.26-.74,3.66,3.66,0,0,0-2.92,1.27,5,5,0,0,0-1.1,3.37,4.73,4.73,0,0,0,1.06,3.21,3.52,3.52,0,0,0,2.8,1.22,3.4,3.4,0,0,0,2.6-1.07,3.53,3.53,0,0,0,.65-1,2.54,2.54,0,0,0,.27-1,.64.64,0,0,0-.66-.66.59.59,0,0,0-.54.34q0,.09-.2.68a2.14,2.14,0,0,1-.76,1.17,2.07,2.07,0,0,1-1.3.42,2.18,2.18,0,0,1-1.86-.91,4.14,4.14,0,0,1-.67-2.51,4,4,0,0,1,.71-2.48,2.26,2.26,0,0,1,1.89-.93,2.13,2.13,0,0,1,1.25.34,1.32,1.32,0,0,1,.57.94q-.85.1-.85.78A.81.81,0,0,0,143.71,225.74Zm-16.12-2a2.56,2.56,0,0,1,1.73-.69,2.22,2.22,0,0,1,1.6.66,2.11,2.11,0,0,1,.68,1.56q0,.24-.36.24h-4.06q-.37,0-.37-.24A2,2,0,0,1,127.59,223.75Zm4.35-.74a3.51,3.51,0,0,0-2.63-1.07,3.69,3.69,0,0,0-2.92,1.29,5,5,0,0,0-1.12,3.37,4.7,4.7,0,0,0,1.05,3.22,3.59,3.59,0,0,0,2.84,1.2,4.09,4.09,0,0,0,2.55-.86,2.46,2.46,0,0,0,1.12-2,.56.56,0,0,0-.63-.65.53.53,0,0,0-.56.41l-.15.49a1.86,1.86,0,0,1-.81,1,2.43,2.43,0,0,1-1.37.41,2.46,2.46,0,0,1-1.9-.85,3.06,3.06,0,0,1-.76-2.12.25.25,0,0,1,.07-.2.48.48,0,0,1,.29-.06h5.41q.41,0,.49-.14a2.1,2.1,0,0,0,.08-.79A3.75,3.75,0,0,0,131.94,223Zm-10.12,2.74a1,1,0,0,0,.71.26,1.12,1.12,0,0,0,.89-.41,1.54,1.54,0,0,0,.35-1,2.33,2.33,0,0,0-.9-1.88,3.44,3.44,0,0,0-2.26-.74,3.66,3.66,0,0,0-2.92,1.27,5,5,0,0,0-1.1,3.37,4.73,4.73,0,0,0,1.06,3.21,3.52,3.52,0,0,0,2.8,1.22,3.4,3.4,0,0,0,2.6-1.07,3.53,3.53,0,0,0,.65-1,2.54,2.54,0,0,0,.27-1,.64.64,0,0,0-.66-.66.59.59,0,0,0-.54.34q0,.09-.2.68a2.14,2.14,0,0,1-.76,1.17,2.07,2.07,0,0,1-1.3.42,2.18,2.18,0,0,1-1.86-.91,4.14,4.14,0,0,1-.67-2.51,4,4,0,0,1,.71-2.48,2.26,2.26,0,0,1,1.89-.93,2.13,2.13,0,0,1,1.25.34,1.32,1.32,0,0,1,.57.94q-.85.1-.85.78A.81.81,0,0,0,121.82,225.74Zm-8-4.68a.92.92,0,0,0,.28-.67.89.89,0,0,0-.28-.66,1,1,0,0,0-1.34,0,.89.89,0,0,0-.28.66.95.95,0,0,0,1.62.67Zm.23,3.31q0-.92,0-1.05s0-.11,0-.2,0-.16,0-.2c0-.44-.17-.66-.49-.66l-.42,0-.42,0-.7-.07-.46,0q-.75,0-.75.58c0,.36.21.54.62.54a1.75,1.75,0,0,0,.37-.06,1.83,1.83,0,0,1,.39-.06q.43,0,.51,1.07v4.35q-.08,1.09-.5,1.09a2.41,2.41,0,0,1-.4-.05,2.34,2.34,0,0,0-.4-.05q-.58,0-.58.56t.68.58a8.8,8.8,0,0,0,.89-.08,8,8,0,0,1,1-.07,6.7,6.7,0,0,1,.83.08,6.53,6.53,0,0,0,.83.08.84.84,0,0,0,.54-.17.51.51,0,0,0,.21-.41q0-.56-.65-.56a.73.73,0,0,0-.25,0,2.58,2.58,0,0,1-.43.08q-.37,0-.46-.76,0-.15,0-1v-2.21Q114.08,225.06,114.09,224.37Zm-11.85,4.91a2.5,2.5,0,0,1-1.79.62,2,2,0,0,1-1.27-.37,1.24,1.24,0,0,1-.47-1q0-1.24,1.93-1.43a7.83,7.83,0,0,0,1.48-.24,2.18,2.18,0,0,0,.79-.48v1.21A2.3,2.3,0,0,1,102.24,229.27Zm4.29,0v-1.05q0-.82-.55-.82t-.52.54v.83q0,1.08-.59,1.08t-.58-.59a7.25,7.25,0,0,1,0-1V224.9q0-3-3.09-3a3.81,3.81,0,0,0-2.29.68,2,2,0,0,0-.94,1.63,1,1,0,0,0,.3.75,1,1,0,0,0,.74.31.9.9,0,0,0,.62-.22.72.72,0,0,0,.25-.56.66.66,0,0,0-.24-.58c-.1-.07-.15-.12-.15-.17s.08-.24.25-.36a2.6,2.6,0,0,1,1.43-.43,2.07,2.07,0,0,1,1.35.4,1.35,1.35,0,0,1,.48,1.1,1.09,1.09,0,0,1-.43,1,5.12,5.12,0,0,1-1.86.43q-1,.12-1.33.2a3.16,3.16,0,0,0-.79.33,2.21,2.21,0,0,0-1.21,2.07,2.23,2.23,0,0,0,.83,1.82,3.35,3.35,0,0,0,2.2.68,3.06,3.06,0,0,0,2.72-1.28,1.57,1.57,0,0,0,1.72,1.21A1.51,1.51,0,0,0,106.53,229.31ZM95,219.93a1.47,1.47,0,0,0,0-.25q0-.49-.39-.49a3.73,3.73,0,0,0-.51.05,3.76,3.76,0,0,1-.51.05l-.46,0-.41-.05-.32,0q-.68,0-.68.56c0,.36.19.54.58.54l.31,0,.44-.07a.48.48,0,0,1,.48.39,5.3,5.3,0,0,1,.05.68v5.68l0,1.19a7.35,7.35,0,0,1-.09,1.37.36.36,0,0,1-.39.26l-.5-.09-.15,0h-.12c-.39,0-.58.18-.58.53s.24.61.71.61h.08a7.27,7.27,0,0,0,.8-.07,7.29,7.29,0,0,1,.81-.07,8.75,8.75,0,0,1,.91.07c.4,0,.68.07.86.07q.69,0,.7-.56a.51.51,0,0,0-.57-.58l-.27,0a2.23,2.23,0,0,1-.43.08q-.45,0-.46-.87v-5.28Q94.9,221.23,95,219.93Zm-5.25,0a1.47,1.47,0,0,0,0-.25q0-.49-.39-.49a3.73,3.73,0,0,0-.51.05,3.76,3.76,0,0,1-.51.05l-.46,0-.41-.05-.32,0q-.68,0-.68.56c0,.36.19.54.58.54l.31,0,.44-.07a.48.48,0,0,1,.48.39,5.3,5.3,0,0,1,.05.68v5.68l0,1.19a7.35,7.35,0,0,1-.09,1.37.36.36,0,0,1-.39.26l-.5-.09-.15,0h-.12c-.39,0-.58.18-.58.53s.24.61.71.61h.08a7.27,7.27,0,0,0,.8-.07,7.29,7.29,0,0,1,.81-.07,8.75,8.75,0,0,1,.91.07c.4,0,.68.07.86.07q.69,0,.7-.56a.51.51,0,0,0-.57-.58l-.27,0a2.23,2.23,0,0,1-.43.08q-.45,0-.46-.87v-5.28Q89.65,221.23,89.77,219.93Zm-5.52,1.13a.92.92,0,0,0,.28-.67.89.89,0,0,0-.28-.66,1,1,0,0,0-1.34,0,.89.89,0,0,0-.28.66.95.95,0,0,0,1.62.67Zm.23,3.31q0-.92,0-1.05s0-.11,0-.2,0-.16,0-.2c0-.44-.17-.66-.49-.66l-.42,0-.42,0-.7-.07-.46,0q-.75,0-.75.58c0,.36.21.54.62.54a1.75,1.75,0,0,0,.37-.06,1.83,1.83,0,0,1,.39-.06q.43,0,.51,1.07v4.35q-.08,1.09-.5,1.09a2.41,2.41,0,0,1-.4-.05,2.34,2.34,0,0,0-.4-.05q-.58,0-.58.56t.68.58a8.8,8.8,0,0,0,.89-.08,8,8,0,0,1,1-.07,6.7,6.7,0,0,1,.83.08,6.53,6.53,0,0,0,.83.08.84.84,0,0,0,.54-.17.51.51,0,0,0,.21-.41q0-.56-.65-.56a.73.73,0,0,0-.25,0,2.58,2.58,0,0,1-.43.08q-.37,0-.46-.76,0-.15,0-1v-2.21Q84.46,225.06,84.48,224.37ZM73,222.22l-.46,0a2.35,2.35,0,0,1-.48,0l-.63-.07-.17,0q-.76,0-.76.56c0,.36.21.54.62.54l.35,0,.36,0a.4.4,0,0,1,.39.21,2.18,2.18,0,0,1,.15.79v4.54q0,1-.54,1a2.13,2.13,0,0,1-.46-.05l-.32-.05a.48.48,0,0,0-.55.54q0,.58.71.58l.85-.08a8.68,8.68,0,0,1,1-.07,6.18,6.18,0,0,1,.83.05q.75.1.88.1.68,0,.68-.55t-.53-.57a1.67,1.67,0,0,0-.39.06,1.68,1.68,0,0,1-.37.06.37.37,0,0,1-.37-.27,3.39,3.39,0,0,1-.1-1v-2.26A4.59,4.59,0,0,1,74,224,2.11,2.11,0,0,1,76,223a2.16,2.16,0,0,1,1.27.39,1.64,1.64,0,0,1,.66,1,6,6,0,0,1,.08,1.24v3.2q0,.93-.45.93l-.42-.07a1.57,1.57,0,0,0-.31,0q-.59,0-.59.53t.68.6l.9-.1a6.51,6.51,0,0,1,.73,0,8.32,8.32,0,0,1,1,.07,7.34,7.34,0,0,0,.78.07.75.75,0,0,0,.49-.17.53.53,0,0,0,.2-.43.5.5,0,0,0-.16-.37.54.54,0,0,0-.38-.15l-.35,0a2.47,2.47,0,0,1-.4,0c-.25,0-.4-.19-.46-.58q0-.14,0-.87v-3.23a4,4,0,0,0-.24-1.51,2.45,2.45,0,0,0-1.11-1.16,3.44,3.44,0,0,0-1.73-.47,3.29,3.29,0,0,0-2.72,1.29v-.48Q73.48,222.22,73,222.22Zm-6.95,7a2.5,2.5,0,0,1-1.79.62,2,2,0,0,1-1.27-.37,1.24,1.24,0,0,1-.47-1q0-1.24,1.93-1.43a7.83,7.83,0,0,0,1.48-.24,2.18,2.18,0,0,0,.79-.48v1.21A2.3,2.3,0,0,1,66,229.27Zm4.29,0v-1.05q0-.82-.55-.82t-.52.54v.83q0,1.08-.59,1.08t-.58-.59a7.25,7.25,0,0,1,0-1V224.9q0-3-3.09-3a3.81,3.81,0,0,0-2.29.68,2,2,0,0,0-.94,1.63,1,1,0,0,0,.3.75,1,1,0,0,0,.74.31.9.9,0,0,0,.62-.22.72.72,0,0,0,.25-.56.66.66,0,0,0-.24-.58c-.1-.07-.15-.12-.15-.17s.08-.24.25-.36a2.6,2.6,0,0,1,1.43-.43,2.07,2.07,0,0,1,1.35.4,1.35,1.35,0,0,1,.48,1.1,1.09,1.09,0,0,1-.43,1,5.12,5.12,0,0,1-1.86.43q-1,.12-1.33.2a3.16,3.16,0,0,0-.79.33,2.21,2.21,0,0,0-1.21,2.07,2.23,2.23,0,0,0,.83,1.82,3.35,3.35,0,0,0,2.2.68,3.06,3.06,0,0,0,2.72-1.28,1.57,1.57,0,0,0,1.72,1.21A1.51,1.51,0,0,0,70.34,229.31Zm-16.9-7.84a1.67,1.67,0,0,1-.08-.51q0-.47.75-.47h.61q.65,0,.65-.61t-.63-.56a10.48,10.48,0,0,0-1.24.11,10.37,10.37,0,0,1-1.26.11,9.57,9.57,0,0,1-1.68-.17,2.56,2.56,0,0,0-.46,0q-.68,0-.68.59t.66.58h.65a.91.91,0,0,1,.75.29,3.26,3.26,0,0,1,.36.8l3,8.54a1.1,1.1,0,0,0,1.1.83,1.08,1.08,0,0,0,1.07-.83l2.79-8.18a7,7,0,0,1,.5-1.22.54.54,0,0,1,.47-.28h.08l.39,0,.07,0q.63,0,.63-.58t-.63-.6a3.22,3.22,0,0,0-.54.05,9.25,9.25,0,0,1-1.51.15,8.63,8.63,0,0,1-1.1-.1,8.46,8.46,0,0,0-1.08-.1q-.65,0-.65.58t.66.59l.37,0,.37,0q.68,0,.68.65a4.58,4.58,0,0,1-.25,1.16L56,229.31l-2.4-7.23Z"/><path class="cls-2" d="M247,250.7a1.09,1.09,0,0,0,0-1.51,1,1,0,0,0-1.5,0,1.09,1.09,0,0,0,0,1.51,1,1,0,0,0,1.5,0Zm-9.52-8a2.38,2.38,0,0,0-.9,1.93,1.83,1.83,0,0,0,.92,1.76,7.37,7.37,0,0,0,2.67.69q1.84.19,1.84,1.34a1.31,1.31,0,0,1-.54,1.07,2.17,2.17,0,0,1-1.38.42,3.59,3.59,0,0,1-1.9-.46,1.4,1.4,0,0,1-.76-1.19,2.63,2.63,0,0,0-.11-.9q-.09-.17-.45-.17c-.36,0-.54.2-.54.59a3.21,3.21,0,0,0,.07.56,4.13,4.13,0,0,1,.07.77,3.39,3.39,0,0,1,0,.48q-.1,1-.1.88,0,.7.63.7t.58-.61v-.32a3.87,3.87,0,0,0,2.44.8,3.75,3.75,0,0,0,2.44-.76,2.43,2.43,0,0,0,.93-2q0-2-2.89-2.4l-1-.14q-1.5-.2-1.5-1.29a1.21,1.21,0,0,1,.53-1,2.11,2.11,0,0,1,1.31-.4,2.42,2.42,0,0,1,1.33.37,1.09,1.09,0,0,1,.59.88v.56a.49.49,0,0,0,.55.54q.55,0,.55-.65,0-.2,0-.59a6,6,0,0,1,0-.6,4.09,4.09,0,0,1,.06-.68c0-.27,0-.44,0-.51a.49.49,0,0,0-.56-.54q-.54,0-.54.63v.07a3,3,0,0,0-1.9-.59A3.56,3.56,0,0,0,237.44,242.67Zm-7.78.88a2.31,2.31,0,0,1,1.45-.49q2.41,0,2.41,3.4a4.16,4.16,0,0,1-.67,2.54,2.47,2.47,0,0,1-3.26.48,2,2,0,0,1-.74-.93,5.32,5.32,0,0,1-.19-1.66v-.24c0-.12,0-.21,0-.25a8,8,0,0,1,.17-1.61A2.13,2.13,0,0,1,229.67,243.55Zm-1.49-1.31-.42,0-.44,0-.63,0-.41,0q-.75,0-.75.54t.62.56a1.69,1.69,0,0,0,.38-.06,1.69,1.69,0,0,1,.36-.06q.42,0,.44.78v6.56a13.18,13.18,0,0,1-.09,1.84.38.38,0,0,1-.4.33,2.37,2.37,0,0,1-.42-.06l-.32,0q-.57,0-.57.54a.53.53,0,0,0,.2.41.72.72,0,0,0,.49.18q.22,0,.9-.08a5.63,5.63,0,0,1,.68,0,9.15,9.15,0,0,1,1.12.05,6.21,6.21,0,0,0,.76.07q.71,0,.71-.56a.49.49,0,0,0-.54-.56,1.93,1.93,0,0,0-.36.05,1.89,1.89,0,0,1-.36.05c-.26,0-.42-.18-.49-.53a6.14,6.14,0,0,1,0-.83V250a3.05,3.05,0,0,0,2.4,1,3.51,3.51,0,0,0,2.85-1.28,5.23,5.23,0,0,0,1.06-3.44,4.73,4.73,0,0,0-1-3.18,3.37,3.37,0,0,0-2.7-1.17,3,3,0,0,0-2.6,1.33v-.54Q228.6,242.24,228.18,242.24Zm-4.9-1.18a.92.92,0,0,0,.28-.67.89.89,0,0,0-.28-.66,1,1,0,0,0-1.34,0,.89.89,0,0,0-.28.66.95.95,0,0,0,1.62.67Zm.23,3.31q0-.92,0-1.05s0-.11,0-.2,0-.16,0-.2c0-.44-.17-.66-.49-.66l-.42,0-.42,0-.7-.07-.46,0q-.75,0-.75.58c0,.36.21.54.62.54a1.75,1.75,0,0,0,.37-.06,1.83,1.83,0,0,1,.39-.06q.43,0,.51,1.07v4.35q-.08,1.09-.5,1.09a2.41,2.41,0,0,1-.4-.05,2.34,2.34,0,0,0-.4-.05q-.58,0-.58.56t.68.58a8.8,8.8,0,0,0,.89-.08,8,8,0,0,1,1-.07,6.7,6.7,0,0,1,.83.08,6.53,6.53,0,0,0,.83.08.84.84,0,0,0,.54-.17.51.51,0,0,0,.21-.41q0-.56-.65-.56a.73.73,0,0,0-.25,0,2.58,2.58,0,0,1-.43.08q-.37,0-.46-.76,0-.15,0-1v-2.21Q223.49,245.06,223.5,244.37Zm-10.94-4.64q0-.56-.39-.56l-.39,0a3,3,0,0,1-.42,0,6.72,6.72,0,0,1-.7,0l-.58-.05a.75.75,0,0,0-.49.17.51.51,0,0,0-.2.41c0,.36.19.54.58.54a1.89,1.89,0,0,0,.37-.05,1.85,1.85,0,0,1,.36-.05q.37,0,.48.67a29.32,29.32,0,0,1,.1,3.22v3a15.57,15.57,0,0,1-.11,2.12q-.1.52-.37.52a2,2,0,0,1-.42-.07.83.83,0,0,0-.33,0q-.66,0-.66.53t.7.63l.87-.07q.51-.05.8-.05a11,11,0,0,1,1.11.07c.32,0,.56.05.72.05q.75,0,.75-.61a.49.49,0,0,0-.56-.54,1.46,1.46,0,0,0-.38.08,1.49,1.49,0,0,1-.39.08q-.42,0-.51-.83,0-.15,0-1.12v-.32a1.47,1.47,0,0,0,.07-.34v-1.22a3.77,3.77,0,0,1,.44-2,2.19,2.19,0,0,1,2-.92,1.82,1.82,0,0,1,1.74.88,5.29,5.29,0,0,1,.34,2.33v1.65c0,.4,0,.66,0,.8q0,1.1-.53,1.1a.91.91,0,0,1-.29-.05,1.43,1.43,0,0,0-.44-.08.62.62,0,0,0-.42.15.47.47,0,0,0-.18.37.57.57,0,0,0,.2.45.74.74,0,0,0,.51.18q.17,0,.88-.1a5.18,5.18,0,0,1,.68,0,10.22,10.22,0,0,1,1.16.08,5.88,5.88,0,0,0,.65.05q.82,0,.82-.58t-.63-.58l-.27,0a1.23,1.23,0,0,1-.39.1q-.37,0-.44-.85,0-.1,0-1.1V245a2.87,2.87,0,0,0-.89-2.19,3.73,3.73,0,0,0-3.68-.59,4.59,4.59,0,0,0-1.25.89l.07-3.31Zm-5.87,6a1,1,0,0,0,.71.26,1.12,1.12,0,0,0,.89-.41,1.54,1.54,0,0,0,.35-1,2.33,2.33,0,0,0-.9-1.88,3.44,3.44,0,0,0-2.26-.74,3.66,3.66,0,0,0-2.92,1.27,5,5,0,0,0-1.1,3.37,4.73,4.73,0,0,0,1.06,3.21,3.52,3.52,0,0,0,2.8,1.22,3.4,3.4,0,0,0,2.6-1.07,3.53,3.53,0,0,0,.65-1,2.54,2.54,0,0,0,.27-1,.64.64,0,0,0-.66-.66.59.59,0,0,0-.54.34q0,.09-.2.68a2.14,2.14,0,0,1-.76,1.17,2.07,2.07,0,0,1-1.3.42,2.18,2.18,0,0,1-1.86-.91,4.14,4.14,0,0,1-.67-2.51,4,4,0,0,1,.71-2.48,2.26,2.26,0,0,1,1.89-.93,2.13,2.13,0,0,1,1.25.34,1.32,1.32,0,0,1,.57.94q-.85.1-.85.78A.81.81,0,0,0,206.68,245.74Zm-16.12-2a2.56,2.56,0,0,1,1.73-.69,2.22,2.22,0,0,1,1.6.66,2.11,2.11,0,0,1,.68,1.56q0,.24-.36.24h-4.06q-.37,0-.37-.24A2,2,0,0,1,190.56,243.75Zm4.35-.74a3.51,3.51,0,0,0-2.63-1.07,3.69,3.69,0,0,0-2.92,1.29,5,5,0,0,0-1.12,3.37,4.7,4.7,0,0,0,1.05,3.22,3.59,3.59,0,0,0,2.84,1.2,4.09,4.09,0,0,0,2.55-.86,2.46,2.46,0,0,0,1.12-2,.56.56,0,0,0-.63-.65.53.53,0,0,0-.56.41l-.15.49a1.86,1.86,0,0,1-.81,1,2.43,2.43,0,0,1-1.37.41,2.46,2.46,0,0,1-1.9-.85,3.06,3.06,0,0,1-.76-2.12.25.25,0,0,1,.07-.2.48.48,0,0,1,.29-.06h5.41q.41,0,.49-.14a2.1,2.1,0,0,0,.08-.79A3.75,3.75,0,0,0,194.91,243Zm-10,6.82q-1.19,0-1.19-1.78v-4.18c0-.24.08-.36.24-.36h1.87q.7,0,.7-.63t-.65-.6H184c-.2,0-.31-.08-.31-.25V240.2q0-.64-.61-.65a.58.58,0,0,0-.66.65V242q0,.32-.29.32h-.66a.54.54,0,0,0-.4.19.6.6,0,0,0-.18.42.59.59,0,0,0,.18.43.63.63,0,0,0,.46.18h.56c.22,0,.33.12.33.36v4.08a4,4,0,0,0,.42,2.14,2.13,2.13,0,0,0,1.92.87,2.33,2.33,0,0,0,2.11-1,5.07,5.07,0,0,0,.47-2.58q0-.78-.59-.78t-.61.7v1.09Q186.1,249.82,184.9,249.82Zm-8.3-.55a2.5,2.5,0,0,1-1.79.62,2,2,0,0,1-1.27-.37,1.24,1.24,0,0,1-.47-1q0-1.24,1.93-1.43a7.83,7.83,0,0,0,1.48-.24,2.18,2.18,0,0,0,.79-.48v1.21A2.3,2.3,0,0,1,176.59,249.27Zm4.29,0v-1.05q0-.82-.55-.82t-.52.54v.83q0,1.08-.59,1.08t-.58-.59a7.25,7.25,0,0,1,0-1V244.9q0-3-3.09-3a3.81,3.81,0,0,0-2.29.68,2,2,0,0,0-.94,1.63,1,1,0,0,0,.3.75,1,1,0,0,0,.74.31.9.9,0,0,0,.62-.22.72.72,0,0,0,.25-.56.66.66,0,0,0-.24-.58c-.1-.07-.15-.12-.15-.17s.08-.24.25-.36a2.6,2.6,0,0,1,1.43-.43,2.07,2.07,0,0,1,1.35.4,1.35,1.35,0,0,1,.48,1.1,1.09,1.09,0,0,1-.43,1,5.12,5.12,0,0,1-1.86.43q-1,.12-1.33.2a3.16,3.16,0,0,0-.79.33,2.21,2.21,0,0,0-1.21,2.07,2.23,2.23,0,0,0,.83,1.82,3.35,3.35,0,0,0,2.2.68,3.06,3.06,0,0,0,2.72-1.28,1.57,1.57,0,0,0,1.72,1.21A1.51,1.51,0,0,0,180.89,249.31Zm-11.51-9.38a1.47,1.47,0,0,0,0-.25q0-.49-.39-.49a3.73,3.73,0,0,0-.51.05,3.76,3.76,0,0,1-.51.05l-.46,0-.41-.05-.32,0q-.68,0-.68.56c0,.36.19.54.58.54l.31,0,.44-.07a.48.48,0,0,1,.48.39,5.3,5.3,0,0,1,.05.68v5.68l0,1.19a7.35,7.35,0,0,1-.09,1.37.36.36,0,0,1-.39.26l-.5-.09-.15,0h-.12c-.39,0-.58.18-.58.53s.24.61.71.61h.08a7.27,7.27,0,0,0,.8-.07,7.29,7.29,0,0,1,.81-.07,8.75,8.75,0,0,1,.91.07c.4,0,.68.07.86.07q.69,0,.7-.56a.51.51,0,0,0-.57-.58l-.27,0a2.23,2.23,0,0,1-.43.08q-.45,0-.46-.87v-5.28Q169.26,241.23,169.38,239.93Zm-5.49,6.53a4,4,0,0,1-.71,2.52,2.33,2.33,0,0,1-1.95.91,2.2,2.2,0,0,1-1.88-.91,4.14,4.14,0,0,1-.67-2.51v-.22a3.93,3.93,0,0,1,.75-2.36,2.28,2.28,0,0,1,1.87-.83Q163.89,243.06,163.89,246.46Zm.27,3.3a4.86,4.86,0,0,0,1.11-3.33,4.77,4.77,0,0,0-1.07-3.28,3.71,3.71,0,0,0-2.92-1.21,3.66,3.66,0,0,0-2.9,1.23,5.62,5.62,0,0,0,0,6.61,3.6,3.6,0,0,0,2.86,1.23A3.72,3.72,0,0,0,164.16,249.76Zm-10.29-4a1,1,0,0,0,.71.26,1.12,1.12,0,0,0,.89-.41,1.54,1.54,0,0,0,.35-1,2.33,2.33,0,0,0-.9-1.88,3.44,3.44,0,0,0-2.26-.74,3.66,3.66,0,0,0-2.92,1.27,5,5,0,0,0-1.1,3.37,4.73,4.73,0,0,0,1.06,3.21,3.52,3.52,0,0,0,2.8,1.22,3.4,3.4,0,0,0,2.6-1.07,3.53,3.53,0,0,0,.65-1,2.54,2.54,0,0,0,.27-1,.64.64,0,0,0-.66-.66.59.59,0,0,0-.54.34q0,.09-.2.68a2.14,2.14,0,0,1-.76,1.17,2.07,2.07,0,0,1-1.3.42,2.18,2.18,0,0,1-1.86-.91,4.14,4.14,0,0,1-.67-2.51,4,4,0,0,1,.71-2.48,2.26,2.26,0,0,1,1.89-.93,2.13,2.13,0,0,1,1.25.34,1.32,1.32,0,0,1,.57.94q-.85.1-.85.78A.81.81,0,0,0,153.87,245.74Zm-7.93.71a4,4,0,0,1-.71,2.52,2.33,2.33,0,0,1-1.95.91,2.2,2.2,0,0,1-1.88-.91,4.14,4.14,0,0,1-.67-2.51v-.22a3.93,3.93,0,0,1,.75-2.36,2.28,2.28,0,0,1,1.87-.83Q145.93,243.06,145.93,246.46Zm.27,3.3a4.86,4.86,0,0,0,1.11-3.33,4.77,4.77,0,0,0-1.07-3.28,3.71,3.71,0,0,0-2.92-1.21,3.66,3.66,0,0,0-2.9,1.23,5.62,5.62,0,0,0,0,6.61,3.6,3.6,0,0,0,2.86,1.23A3.72,3.72,0,0,0,146.21,249.76Zm-15-10q0-.56-.39-.56l-.39,0a3,3,0,0,1-.42,0,6.72,6.72,0,0,1-.7,0l-.58-.05a.75.75,0,0,0-.49.17.51.51,0,0,0-.2.41c0,.36.19.54.58.54a1.89,1.89,0,0,0,.37-.05,1.85,1.85,0,0,1,.36-.05q.37,0,.48.67a29.32,29.32,0,0,1,.1,3.22v3a15.57,15.57,0,0,1-.11,2.12q-.1.52-.37.52a2,2,0,0,1-.42-.07.83.83,0,0,0-.33,0q-.66,0-.66.53t.7.63l.87-.07q.51-.05.8-.05a11,11,0,0,1,1.11.07c.32,0,.56.05.72.05q.75,0,.75-.61a.49.49,0,0,0-.56-.54,1.46,1.46,0,0,0-.38.08,1.49,1.49,0,0,1-.39.08q-.42,0-.51-.83,0-.15,0-1.12v-.32a1.47,1.47,0,0,0,.07-.34v-1.22a3.77,3.77,0,0,1,.44-2,2.19,2.19,0,0,1,2-.92,1.82,1.82,0,0,1,1.74.88,5.29,5.29,0,0,1,.34,2.33v1.65c0,.4,0,.66,0,.8q0,1.1-.53,1.1a.91.91,0,0,1-.29-.05,1.43,1.43,0,0,0-.44-.08.62.62,0,0,0-.42.15.47.47,0,0,0-.18.37.57.57,0,0,0,.2.45.74.74,0,0,0,.51.18q.17,0,.88-.1a5.18,5.18,0,0,1,.68,0,10.22,10.22,0,0,1,1.16.08,5.88,5.88,0,0,0,.65.05q.82,0,.82-.58t-.63-.58l-.27,0a1.23,1.23,0,0,1-.39.1q-.37,0-.44-.85,0-.1,0-1.1V245a2.87,2.87,0,0,0-.89-2.19,3.73,3.73,0,0,0-3.68-.59,4.59,4.59,0,0,0-1.25.89l.07-3.31Zm-5.87,6a1,1,0,0,0,.71.26,1.12,1.12,0,0,0,.89-.41,1.54,1.54,0,0,0,.35-1,2.33,2.33,0,0,0-.9-1.88,3.44,3.44,0,0,0-2.26-.74,3.66,3.66,0,0,0-2.92,1.27,5,5,0,0,0-1.1,3.37,4.73,4.73,0,0,0,1.06,3.21,3.52,3.52,0,0,0,2.8,1.22,3.4,3.4,0,0,0,2.6-1.07,3.53,3.53,0,0,0,.65-1,2.54,2.54,0,0,0,.27-1,.64.64,0,0,0-.66-.66.59.59,0,0,0-.54.34q0,.09-.2.68a2.14,2.14,0,0,1-.76,1.17,2.07,2.07,0,0,1-1.3.42,2.18,2.18,0,0,1-1.86-.91,4.14,4.14,0,0,1-.67-2.51,4,4,0,0,1,.71-2.48,2.26,2.26,0,0,1,1.89-.93,2.13,2.13,0,0,1,1.25.34,1.32,1.32,0,0,1,.57.94q-.85.1-.85.78A.81.81,0,0,0,125.3,245.74Zm-12.81,4.08q-1.19,0-1.19-1.78v-4.18c0-.24.08-.36.24-.36h1.87q.7,0,.7-.63t-.65-.6h-1.85c-.2,0-.31-.08-.31-.25V240.2q0-.64-.61-.65a.58.58,0,0,0-.66.65V242q0,.32-.29.32h-.66a.54.54,0,0,0-.4.19.6.6,0,0,0-.18.42.59.59,0,0,0,.18.43.63.63,0,0,0,.46.18h.56c.22,0,.33.12.33.36v4.08a4,4,0,0,0,.42,2.14,2.13,2.13,0,0,0,1.92.87,2.33,2.33,0,0,0,2.11-1,5.07,5.07,0,0,0,.47-2.58q0-.78-.59-.78t-.61.7v1.09Q113.7,249.82,112.5,249.82Zm-10.11-6.08a2.56,2.56,0,0,1,1.73-.69,2.22,2.22,0,0,1,1.6.66,2.11,2.11,0,0,1,.68,1.56q0,.24-.36.24H102q-.37,0-.37-.24A2,2,0,0,1,102.38,243.75Zm4.35-.74a3.51,3.51,0,0,0-2.63-1.07,3.69,3.69,0,0,0-2.92,1.29,5,5,0,0,0-1.12,3.37,4.7,4.7,0,0,0,1.05,3.22,3.59,3.59,0,0,0,2.84,1.2,4.09,4.09,0,0,0,2.55-.86,2.46,2.46,0,0,0,1.12-2,.56.56,0,0,0-.63-.65.53.53,0,0,0-.56.41l-.15.49a1.86,1.86,0,0,1-.81,1,2.43,2.43,0,0,1-1.37.41,2.46,2.46,0,0,1-1.9-.85,3.06,3.06,0,0,1-.76-2.12.25.25,0,0,1,.07-.2.48.48,0,0,1,.29-.06h5.41q.41,0,.49-.14a2.1,2.1,0,0,0,.08-.79A3.75,3.75,0,0,0,106.73,243Zm-13.33.74a2.56,2.56,0,0,1,1.73-.69,2.22,2.22,0,0,1,1.6.66,2.11,2.11,0,0,1,.68,1.56q0,.24-.36.24H93q-.37,0-.37-.24A2,2,0,0,1,93.41,243.75Zm4.35-.74a3.51,3.51,0,0,0-2.63-1.07,3.69,3.69,0,0,0-2.92,1.29,5,5,0,0,0-1.12,3.37,4.7,4.7,0,0,0,1.05,3.22A3.59,3.59,0,0,0,95,251a4.09,4.09,0,0,0,2.55-.86,2.46,2.46,0,0,0,1.12-2,.56.56,0,0,0-.63-.65.53.53,0,0,0-.56.41l-.15.49a1.86,1.86,0,0,1-.81,1,2.43,2.43,0,0,1-1.37.41,2.46,2.46,0,0,1-1.9-.85,3.06,3.06,0,0,1-.76-2.12.25.25,0,0,1,.07-.2.48.48,0,0,1,.29-.06h5.41q.41,0,.49-.14a2.1,2.1,0,0,0,.08-.79A3.75,3.75,0,0,0,97.76,243Zm-17.83.75q0-.51.44-.51a1.26,1.26,0,0,1,.42.08l.42,0q.63,0,.63-.57t-.75-.59l-.88.09a8.92,8.92,0,0,1-1.09.08,4.14,4.14,0,0,1-.63,0l-.73-.11-.19,0q-.76,0-.76.6a.49.49,0,0,0,.56.55l.37,0a1,1,0,0,1,.31-.07c.22,0,.37.18.48.55l1.63,6.13q.27,1.06,1.07,1.06a1,1,0,0,0,.78-.35,2.9,2.9,0,0,0,.48-1.2l1.33-5.94,1.27,6.05Q85.4,251,86.3,251a.93.93,0,0,0,.75-.32,2.88,2.88,0,0,0,.48-1.12l1.16-4.4q.49-1.9,1-1.9l.31.06a.58.58,0,0,0,.29.06.5.5,0,0,0,.56-.57q0-.59-.73-.59l-.19,0-.56.08a6.62,6.62,0,0,1-.88.06,6.77,6.77,0,0,1-.85,0l-.7-.1-.25,0q-.83,0-.83.59t.63.56a2.36,2.36,0,0,0,.44-.06,2.43,2.43,0,0,1,.44-.06c.26,0,.39.15.39.46v0a3.73,3.73,0,0,1-.12.85l-1.26,5.18-1.28-6a3.5,3.5,0,0,0-.45-1.26.91.91,0,0,0-.77-.32.9.9,0,0,0-.76.31,3.43,3.43,0,0,0-.45,1.27l-1.33,6L80,244.59A3.68,3.68,0,0,1,79.92,243.76Zm-9.39-1.08a2.38,2.38,0,0,0-.9,1.93,1.83,1.83,0,0,0,.92,1.76,7.37,7.37,0,0,0,2.67.69q1.84.19,1.84,1.34a1.31,1.31,0,0,1-.54,1.07,2.17,2.17,0,0,1-1.38.42,3.59,3.59,0,0,1-1.9-.46,1.4,1.4,0,0,1-.76-1.19,2.63,2.63,0,0,0-.11-.9q-.09-.17-.45-.17c-.36,0-.54.2-.54.59a3.21,3.21,0,0,0,.07.56,4.13,4.13,0,0,1,.07.77,3.39,3.39,0,0,1,0,.48q-.1,1-.1.88,0,.7.63.7t.58-.61v-.32A3.87,3.87,0,0,0,73,251a3.75,3.75,0,0,0,2.44-.76,2.43,2.43,0,0,0,.93-2q0-2-2.89-2.4l-1-.14q-1.5-.2-1.5-1.29a1.21,1.21,0,0,1,.53-1,2.11,2.11,0,0,1,1.31-.4,2.42,2.42,0,0,1,1.33.37,1.09,1.09,0,0,1,.59.88v.56a.49.49,0,0,0,.55.54q.55,0,.55-.65,0-.2,0-.59a6,6,0,0,1,0-.6,4.09,4.09,0,0,1,.06-.68c0-.27,0-.44,0-.51a.49.49,0,0,0-.56-.54q-.54,0-.54.63v.07a3,3,0,0,0-1.9-.59A3.56,3.56,0,0,0,70.54,242.67Zm-5.85,4.11h2.65q.68,0,.68-.61t-.68-.58H64.69q-.68,0-.68.59T64.69,246.78Zm-3.37-5.72a.92.92,0,0,0,.28-.67.89.89,0,0,0-.28-.66,1,1,0,0,0-1.34,0,.89.89,0,0,0-.28.66.95.95,0,0,0,1.62.67Zm.23,3.31q0-.92,0-1.05s0-.11,0-.2,0-.16,0-.2c0-.44-.17-.66-.49-.66l-.42,0-.42,0-.7-.07-.46,0q-.75,0-.75.58c0,.36.21.54.62.54a1.75,1.75,0,0,0,.37-.06,1.83,1.83,0,0,1,.39-.06q.43,0,.51,1.07v4.35q-.08,1.09-.5,1.09a2.41,2.41,0,0,1-.4-.05,2.34,2.34,0,0,0-.4-.05q-.58,0-.58.56t.68.58a8.8,8.8,0,0,0,.89-.08,8,8,0,0,1,1-.07,6.7,6.7,0,0,1,.83.08,6.53,6.53,0,0,0,.83.08.84.84,0,0,0,.54-.17.51.51,0,0,0,.21-.41q0-.56-.65-.56a.73.73,0,0,0-.25,0,2.58,2.58,0,0,1-.43.08q-.37,0-.46-.76,0-.15,0-1v-2.21Q61.53,245.06,61.54,244.37Zm-16.4-2.12h-.05l-.41.07h-.31a5.26,5.26,0,0,1-.56,0l-.51,0q-.7,0-.7.58t.63.54l.27,0,.48-.09a.39.39,0,0,1,.42.36,12.14,12.14,0,0,1,.08,1.8V249q0,.83-.5.83l-.07,0-.43-.08-.1,0h-.1q-.66,0-.66.53t.68.58l.88-.07.75-.05a8.72,8.72,0,0,1,1,.07,6.14,6.14,0,0,0,.71.05q.76,0,.76-.54t-.66-.56H46.6l-.1,0a1.44,1.44,0,0,1-.36.09c-.2,0-.33-.19-.37-.58q0-.12,0-.8v-2.27a4.06,4.06,0,0,1,.49-2.32A2,2,0,0,1,48,243a1.6,1.6,0,0,1,1.42.58,3.86,3.86,0,0,1,.4,2.07v2.48l-.05.8q0,.87-.42.87a1.36,1.36,0,0,1-.36-.07.7.7,0,0,0-.29,0,.46.46,0,0,0-.51.53q0,.58.7.58a4.85,4.85,0,0,0,.75-.07,5,5,0,0,1,.78-.07,6.27,6.27,0,0,1,.76.07,6.24,6.24,0,0,0,.76.07q.8,0,.8-.55a.53.53,0,0,0-.16-.39.55.55,0,0,0-.4-.16l-.3,0-.3,0c-.22,0-.35-.13-.4-.4a14.72,14.72,0,0,1-.08-2v-1.21a5.09,5.09,0,0,1,.37-2.31,1.76,1.76,0,0,1,1.68-.83,2.07,2.07,0,0,1,1.12.31,1.54,1.54,0,0,1,.67.84,5.92,5.92,0,0,1,.18,1.71V248a8.36,8.36,0,0,1-.09,1.45.35.35,0,0,1-.37.29.89.89,0,0,1-.27,0l-.34,0c-.36,0-.54.17-.54.51s.24.6.71.6c.19,0,.47,0,.84-.06a8.4,8.4,0,0,1,.84-.06,7.42,7.42,0,0,1,.79.06,7.65,7.65,0,0,0,.77.06q.68,0,.68-.6t-.59-.51a1.63,1.63,0,0,0-.35.06,1.58,1.58,0,0,1-.35.06c-.24,0-.38-.2-.44-.61,0-.1,0-.39,0-.85v-2.93a5.2,5.2,0,0,0-.22-1.77A2.46,2.46,0,0,0,55,242.34a3.62,3.62,0,0,0-1.73-.41,3.51,3.51,0,0,0-1.53.29,3.59,3.59,0,0,0-1.17,1,2.66,2.66,0,0,0-2.45-1.29,3,3,0,0,0-1.36.28,4,4,0,0,0-1.16,1v-.49C45.55,242.41,45.41,242.24,45.14,242.24Zm-8.79,1.5a2.56,2.56,0,0,1,1.73-.69,2.22,2.22,0,0,1,1.6.66,2.11,2.11,0,0,1,.68,1.56q0,.24-.36.24H35.95q-.37,0-.37-.24A2,2,0,0,1,36.35,243.75Zm4.35-.74a3.51,3.51,0,0,0-2.63-1.07,3.69,3.69,0,0,0-2.92,1.29A5,5,0,0,0,34,246.59a4.7,4.7,0,0,0,1.05,3.22,3.59,3.59,0,0,0,2.84,1.2,4.09,4.09,0,0,0,2.55-.86,2.46,2.46,0,0,0,1.12-2,.56.56,0,0,0-.63-.65.53.53,0,0,0-.56.41l-.15.49a1.86,1.86,0,0,1-.81,1,2.43,2.43,0,0,1-1.37.41,2.46,2.46,0,0,1-1.9-.85,3.06,3.06,0,0,1-.76-2.12.25.25,0,0,1,.07-.2.48.48,0,0,1,.29-.06h5.41q.41,0,.49-.14a2.1,2.1,0,0,0,.08-.79A3.75,3.75,0,0,0,40.71,243Zm-13.81-.33a2.38,2.38,0,0,0-.9,1.93,1.83,1.83,0,0,0,.92,1.76,7.37,7.37,0,0,0,2.67.69q1.84.19,1.84,1.34a1.31,1.31,0,0,1-.54,1.07,2.17,2.17,0,0,1-1.38.42,3.59,3.59,0,0,1-1.9-.46,1.4,1.4,0,0,1-.76-1.19,2.63,2.63,0,0,0-.11-.9q-.09-.17-.45-.17c-.36,0-.54.2-.54.59a3.21,3.21,0,0,0,.07.56,4.13,4.13,0,0,1,.07.77,3.39,3.39,0,0,1,0,.48q-.1,1-.1.88,0,.7.63.7t.58-.61v-.32a3.87,3.87,0,0,0,2.44.8,3.75,3.75,0,0,0,2.44-.76,2.43,2.43,0,0,0,.93-2q0-2-2.89-2.4l-1-.14q-1.5-.2-1.5-1.29a1.21,1.21,0,0,1,.53-1,2.11,2.11,0,0,1,1.31-.4,2.42,2.42,0,0,1,1.33.37,1.09,1.09,0,0,1,.59.88v.56a.49.49,0,0,0,.55.54q.55,0,.55-.65,0-.2,0-.59a6,6,0,0,1,0-.6,4.09,4.09,0,0,1,.06-.68c0-.27,0-.44,0-.51a.49.49,0,0,0-.56-.54q-.54,0-.54.63v.07a3,3,0,0,0-1.9-.59A3.56,3.56,0,0,0,26.9,242.67Z"/><path class="cls-3" d="M124.31,110.21s0-.46-.31-.5a.74.74,0,0,1-.56-.58c0-.26,1.88-.12,1.88-.12a.76.76,0,0,1-.58.69C124.14,109.9,124.41,110.23,124.31,110.21Z"/><path class="cls-3" d="M124.2,100.11s-.13-.55-.43-.57a.89.89,0,0,1-.7-.63c-.09-.31,1.93-.44,1.93-.44a.93.93,0,0,1-.46.94C124,99.75,124.31,100.11,124.2,100.11Z"/><circle class="cls-4" cx="136.5" cy="124.67" r="58.87"/><path class="cls-5" d="M136.33,125.09a2.7,2.7,0,0,0-1.69.55,2.72,2.72,0,0,0-4.45,2c0,1.5,4.46,6.31,4.46,6.31s4.31-4.61,4.35-6.12A2.72,2.72,0,0,0,136.33,125.09Z"/><path class="cls-6" d="M152.29,123.48s-18.23,32.38-22,35.53c0,0-6.31,9.68-7.2-2.06,0,0,1.14-31,3.35-40.88S159.44,120.5,152.29,123.48Z"/><polygon class="cls-7" points="150.22 123.83 148.9 125.99 145.84 121.32 150.22 123.83"/><polygon class="cls-7" points="127.42 121.4 128.28 115.04 138.64 116.27 136.32 120.5 128.86 121.81 127.42 121.4"/><polygon class="cls-7" points="147.68 128.34 142.85 121.11 138.95 121.48 131.31 123.36 142.4 133.32 144.82 133.77 147.68 128.34"/><path class="cls-7" d="M139.45,133s-7.67-8-11.6-8.33l-.71.21L126,133.11l1.41,1.46S137,133.18,139.45,133Z"/><path class="cls-7" d="M142.65,137.28l-.93-1.56s-7.83-.82-12.12.78c0,0,6.32,7.59,6.28,9l1.85.12Z"/><path class="cls-7" d="M133.64,145.56s-5.91-8.3-6.67-8.34a2.49,2.49,0,0,0-1.25.23s-.81,9-.54,9.52S127.31,145.93,133.64,145.56Z"/><path class="cls-7" d="M135,149.49,134.5,148a27.45,27.45,0,0,0-9.16,1.51s-.95,9.29.5,10.64S135,149.49,135,149.49Z"/><path class="cls-8" d="M119.15,100.5c.76-2.67,4.12-4.13,8-3.72.05-.21.1-.41.16-.62,2.55-8.93,12.63-13.88,22.51-11.06S165.6,97.46,163,106.39a15.29,15.29,0,0,1-1.52,3.53c2.9,2.16,4.41,5.32,3.58,8.24-1.18,4.13-6.6,6.19-12.11,4.62a13.56,13.56,0,0,1-2.92-1.21,9.61,9.61,0,0,1-8.77,1.76,9.76,9.76,0,0,1-5-3.36,6.39,6.39,0,0,1-3-3.76,13.75,13.75,0,0,1-5.88-.44c-5.06-1.45-8.45-5.15-7.56-8.26a3.91,3.91,0,0,1,1.11-1.78C119.37,104.15,118.65,102.25,119.15,100.5Z"/><path class="cls-9" d="M119.15,100.5l.12,0c.65-2.29,3.31-3.7,6.57-3.7a11.73,11.73,0,0,1,1.26.07h.11l0-.11c.05-.21.1-.41.16-.62,2-7.17,9-11.76,16.78-11.76a20.28,20.28,0,0,1,5.58.79c8.28,2.37,13.76,9.47,13.76,16.94a15.18,15.18,0,0,1-2.09,7.7l-.06.1.09.07a8.45,8.45,0,0,1,3.75,6.5,5.84,5.84,0,0,1-.22,1.6c-.89,3.11-4.27,5.05-8.29,5.05a13.6,13.6,0,0,1-6.55-1.72l-.08,0-.07.05a9.37,9.37,0,0,1-6,2.12,9.8,9.8,0,0,1-2.7-.38,9.63,9.63,0,0,1-5-3.31v0h0a6.27,6.27,0,0,1-3-3.69l0-.11-.11,0a11.69,11.69,0,0,1-1.85.14,14.53,14.53,0,0,1-4-.58c-4.49-1.28-7.62-4.35-7.61-7.12a3.56,3.56,0,0,1,.14-1,3.78,3.78,0,0,1,1.08-1.73l.09-.09-.09-.09a5.9,5.9,0,0,1-1.88-4,4,4,0,0,1,.15-1.1l-.12,0-.12,0a4.19,4.19,0,0,0-.16,1.17,6.15,6.15,0,0,0,2,4.18l.09-.09-.09-.09a4,4,0,0,0-1.15,1.84,3.8,3.8,0,0,0-.15,1.06c0,3,3.24,6.05,7.79,7.36a14.78,14.78,0,0,0,4,.59,12,12,0,0,0,1.89-.15l0-.12-.12,0a6.52,6.52,0,0,0,3.11,3.84l.06-.11-.1.08a9.88,9.88,0,0,0,5.08,3.4,10,10,0,0,0,2.76.39,9.62,9.62,0,0,0,6.12-2.17l-.08-.1-.06.11a13.85,13.85,0,0,0,6.67,1.76c4.09,0,7.6-2,8.53-5.24a6.08,6.08,0,0,0,.23-1.67,8.69,8.69,0,0,0-3.85-6.7l-.07.1.11.06a15.42,15.42,0,0,0,2.13-7.82c0-7.6-5.57-14.79-13.94-17.18a20.52,20.52,0,0,0-5.65-.8c-7.88,0-14.93,4.65-17,11.94-.06.21-.11.42-.16.63l.12,0v-.12a12,12,0,0,0-1.29-.07c-3.33,0-6.11,1.43-6.81,3.88Z"/><path class="cls-3" d="M138.13,90.21s.45.1.57-.15a.74.74,0,0,1,.73-.35c.25,0-.46,1.83-.46,1.83a.76.76,0,0,1-.48-.76C138.48,90.15,138.08,90.3,138.13,90.21Z"/><path class="cls-3" d="M134.58,93.68s.2.53.46.52a.89.89,0,0,1,.71.56c.13.3-1.65.6-1.65.6a.93.93,0,0,1,.28-1C134.84,94,134.48,93.68,134.58,93.68Z"/><path class="cls-3" d="M151.77,88s-.34.46-.25.62a1,1,0,0,1-.2.8c-.19.26-1-.7-1-.7s.38-.47.81-.41S151.74,87.94,151.77,88Z"/><path class="cls-3" d="M140.29,108.6s.13.55.43.57a.89.89,0,0,1,.7.63c.09.31-1.93.44-1.93.44a.93.93,0,0,1,.46-.94C140.52,109,140.18,108.6,140.29,108.6Z"/><path class="cls-3" d="M128.94,103.8s-.11.52.08.64a.84.84,0,0,1,.24.79c-.05.3-1.46-.31-1.46-.31a.9.9,0,0,1,.65-.64C129,104.19,128.87,103.75,128.94,103.8Z"/><path class="cls-3" d="M148.17,108.67s-.45-.1-.57.15a.74.74,0,0,1-.73.35c-.25,0,.46-1.83.46-1.83a.75.75,0,0,1,.48.76C147.82,108.73,148.22,108.58,148.17,108.67Z"/><path class="cls-3" d="M148.79,118s-.2-.54-.46-.52a.89.89,0,0,1-.71-.56c-.12-.29,1.65-.6,1.65-.6a.93.93,0,0,1-.28,1C148.53,117.68,148.89,118,148.79,118Z"/><path class="cls-3" d="M134.56,112.74s.34-.46.25-.62a1,1,0,0,1,.21-.8c.18-.26,1,.7,1,.7s-.38.47-.81.41S134.6,112.8,134.56,112.74Z"/><path class="cls-3" d="M141.18,119.94s.11-.52-.08-.64a.84.84,0,0,1-.24-.79c.05-.3,1.46.31,1.46.31a.9.9,0,0,1-.65.64C141.15,119.55,141.25,120,141.18,119.94Z"/><path class="cls-3" d="M145.5,94.44s.24.39.5.31a.74.74,0,0,1,.76.27c.15.21-1.63.95-1.63.95a.76.76,0,0,1,.21-.88C145.78,94.64,145.4,94.46,145.5,94.44Z"/><path class="cls-3" d="M134.51,105s.45-.11.45-.39a.74.74,0,0,1,.49-.64c.25-.08.41,1.84.41,1.84a.75.75,0,0,1-.77-.47C134.79,104.79,134.51,105.11,134.51,105Z"/><path class="cls-3" d="M147.18,100.86s.42.39.65.26a.89.89,0,0,1,.89.18c.24.21-1.21,1.28-1.21,1.28a.94.94,0,0,1-.18-1C147.56,101,147.09,100.9,147.18,100.86Z"/><path class="cls-3" d="M155.24,92.79s-.1.56.05.66a1,1,0,0,1,.17.81c0,.32-1.17-.2-1.17-.2s.13-.59.54-.73S155.18,92.75,155.24,92.79Z"/><path class="cls-3" d="M156.44,102.78s.37.44.64.31a.89.89,0,0,1,.9.25c.22.23-1.53,1.26-1.53,1.26a.93.93,0,0,1,0-1C156.8,103,156.33,102.82,156.44,102.78Z"/><path class="cls-3" d="M143.75,101s.13.52.36.54.48.31.57.6-1.44.37-1.44.37a.89.89,0,0,1,.3-.86C143.95,101.34,143.66,101,143.75,101Z"/><path class="cls-5" d="M132.18,125.29a3,3,0,0,1,1.89.64,3.06,3.06,0,0,1,5,2.37c0,1.69-5.11,7-5.11,7s-4.77-5.25-4.78-6.94A3.06,3.06,0,0,1,132.18,125.29Z"/><path class="cls-3" d="M154.88,112.65s.44-.14.42-.41a.74.74,0,0,1,.45-.67c.24-.09.52,1.81.52,1.81a.76.76,0,0,1-.8-.42C155.15,112.42,154.88,112.75,154.88,112.65Z"/><path class="cls-3" d="M157,120.61s-.4-.22-.59,0a.74.74,0,0,1-.79.14c-.23-.11.94-1.63.94-1.63a.76.76,0,0,1,.25.86C156.63,120.58,157,120.54,157,120.61Z"/><path class="cls-3" d="M162.54,117.08s-.37-.38-.58-.28a.84.84,0,0,1-.79-.24c-.22-.21,1.06-1,1.06-1a.89.89,0,0,1,.17.9C162.2,116.89,162.62,117,162.54,117.08Z"/></g></g></svg>